<svg width="58" height="58" viewBox="0 0 58 58" fill="none" xmlns="http://www.w3.org/2000/svg">
<g clip-path="url(#clip0)">
<path d="M57.2545 3.94543C57.1086 3.77222 56.8999 3.66404 56.6742 3.64478L44.0515 2.56668L43.8227 0.747611C43.7638 0.279646 43.3357 -0.0520412 42.8688 0.00675181L31.1593 1.47895C31.1132 1.46695 31.066 1.45788 31.0168 1.45369L14.9222 0.078912C14.4588 0.0381307 14.0381 0.394513 13.9987 0.857041L13.7587 3.66642L1.29225 5.23377C0.830968 5.29177 0.493503 5.72598 0.551389 6.1876L6.91485 56.8026C6.94374 57.0334 6.89423 57.2552 6.9886 57.4785C7.12091 57.7913 7.43583 58.0001 7.77556 58.0001H49.6793C50.1511 58.0001 50.5333 57.6179 50.5333 57.146V56.0337L52.1874 56.175C52.6508 56.2152 53.0715 55.8596 53.1109 55.3969L57.4522 4.56859C57.4716 4.34282 57.4006 4.11875 57.2545 3.94543ZM6.92153 43.1627L2.35279 6.82186L6.92153 6.24753V43.1627ZM15.6279 1.85346L23.1022 2.4918L15.4917 3.44869L15.6279 1.85346ZM42.2346 1.80804L42.6709 5.27863H14.6281L42.2346 1.80804ZM51.4818 54.4004L50.5333 54.3194V29.3619C50.5333 28.8902 50.1511 28.5079 49.6793 28.5079C49.2075 28.5079 48.8253 28.8901 48.8253 29.3619V56.2919H8.62959V6.98669H48.8254V25.3765C48.8254 25.8484 49.2076 26.2306 49.6794 26.2306C50.1512 26.2306 50.5335 25.8484 50.5335 25.3765V6.13266C50.5335 5.66096 50.1512 5.27863 49.6794 5.27863H44.3925L44.2693 4.29954L55.6778 5.27399L51.4818 54.4004Z" fill="black"/>
<path d="M45.1246 9.8335H40.5697C40.2842 9.8335 40.0175 9.97612 39.8592 10.2138L37.9262 13.1133C35.8456 11.6229 33.2982 10.7444 30.5493 10.7444C30.0776 10.7444 29.6953 11.1266 29.6953 11.5984V23.4408C29.6953 23.9125 30.0775 24.2949 30.5493 24.2949H42.3918C42.8636 24.2949 43.2458 23.9127 43.2458 23.4408C43.2458 19.8049 41.709 16.5215 39.2515 14.2047L41.027 11.5416H45.1247C45.5964 11.5416 45.9787 11.1593 45.9787 10.6875C45.9787 10.2157 45.5963 9.8335 45.1246 9.8335ZM41.5049 22.5868H31.4034V12.4853C33.4745 12.6452 35.3852 13.3838 36.9775 14.5365L36.2154 15.6796C35.9774 16.0364 36.0472 16.5307 36.376 16.8068C36.7609 17.1301 37.358 17.0448 37.6366 16.6271L38.2887 15.6488C40.1045 17.4525 41.296 19.8839 41.5049 22.5868Z" fill="black"/>
<path d="M45.1246 38.0729H37.3994L36.0382 35.8951C38.2432 33.6102 39.6019 30.5031 39.6019 27.0846C39.6019 26.6128 39.2197 26.2306 38.7479 26.2306H27.7595V15.2422C27.7595 14.7705 27.3771 14.3882 26.9054 14.3882C19.9047 14.3882 14.209 20.0839 14.209 27.0846C14.209 34.0854 19.9047 39.7811 26.9054 39.7811C29.8647 39.7811 32.5905 38.7634 34.7518 37.0597L36.2017 39.3797C36.3579 39.6294 36.6315 39.7811 36.926 39.7811H45.1246C45.5963 39.7811 45.9786 39.3989 45.9786 38.9271C45.9786 38.4552 45.5963 38.0729 45.1246 38.0729ZM33.0956 31.1868C32.8457 30.7866 32.3186 30.6651 31.9187 30.9151C31.5187 31.165 31.397 31.692 31.647 32.092L33.8406 35.6017C31.9478 37.1458 29.533 38.0731 26.9055 38.0731C20.8466 38.0731 15.9172 33.1437 15.9172 27.0848C15.9172 21.3131 20.3901 16.5665 26.0515 16.1292V27.0848C26.0515 27.5565 26.4338 27.9388 26.9055 27.9388H37.8611C37.6703 30.4084 36.6594 32.6517 35.1013 34.3963L33.0956 31.1868Z" fill="black"/>
<path d="M19.6172 42.6279H12.3296C11.858 42.6279 11.4756 43.0101 11.4756 43.482C11.4756 43.9538 11.8579 44.336 12.3296 44.336H19.6172C20.0889 44.336 20.4713 43.9538 20.4713 43.482C20.4713 43.0101 20.0889 42.6279 19.6172 42.6279Z" fill="black"/>
<path d="M30.5489 42.6279H23.2613C22.7896 42.6279 22.4072 43.0101 22.4072 43.482C22.4072 43.9538 22.7896 44.336 23.2613 44.336H30.5489C31.0206 44.336 31.4029 43.9538 31.4029 43.482C31.4029 43.0101 31.0206 42.6279 30.5489 42.6279Z" fill="black"/>
<path d="M24.172 47.1826H12.3296C11.858 47.1826 11.4756 47.5648 11.4756 48.0366C11.4756 48.5085 11.8579 48.8907 12.3296 48.8907H24.172C24.6437 48.8907 25.0261 48.5085 25.0261 48.0366C25.0261 47.5648 24.6436 47.1826 24.172 47.1826Z" fill="black"/>
<path d="M30.5489 47.1826H27.8159C27.3444 47.1826 26.9619 47.5648 26.9619 48.0366C26.9619 48.5085 27.3442 48.8907 27.8159 48.8907H30.5489C31.0206 48.8907 31.4029 48.5085 31.4029 48.0366C31.4028 47.5648 31.0206 47.1826 30.5489 47.1826Z" fill="black"/>
<path d="M15.9734 51.7373H12.3296C11.858 51.7373 11.4756 52.1195 11.4756 52.5913C11.4756 53.0632 11.8579 53.4454 12.3296 53.4454H15.9734C16.4451 53.4454 16.8274 53.0632 16.8274 52.5913C16.8274 52.1195 16.4451 51.7373 15.9734 51.7373Z" fill="black"/>
<path d="M30.5491 51.7373H19.6177C19.1461 51.7373 18.7637 52.1195 18.7637 52.5913C18.7637 53.0632 19.146 53.4454 19.6177 53.4454H30.5491C31.0208 53.4454 31.4031 53.0632 31.4031 52.5913C31.4031 52.1195 31.0208 51.7373 30.5491 51.7373Z" fill="black"/>
</g>
<defs>
<clipPath id="clip0">
<rect width="58" height="58" fill="white"/>
</clipPath>
</defs>
</svg>
