<svg width="650" height="569" viewBox="0 0 650 569" fill="none" xmlns="http://www.w3.org/2000/svg">
<g opacity="0.54">
<path d="M374.991 322.865C376.294 322.759 377.329 322.915 378.019 323.063C378.72 323.23 379.064 323.37 379.064 323.37C379.064 323.37 378.706 323.475 378.05 323.7C377.415 323.914 376.525 324.277 375.536 324.829C373.534 325.894 370.419 326.534 368.177 328.894C365.908 331.296 364.508 332.403 362.96 335.275C361.828 337.38 360.387 339.718 360.387 339.718C360.387 339.718 360.592 338.181 361.291 335.831C362.001 333.5 363.259 330.22 366.004 327.33C368.777 324.398 372.402 323.014 374.991 322.865Z" fill="#212121"/>
<path d="M441.567 298.954C441.579 298.974 441.579 298.974 441.567 298.954C441.439 298.87 441.493 298.918 441.567 298.954Z" fill="#212121"/>
<path d="M376.82 364.692L376.839 364.68C376.939 364.941 376.892 364.862 376.82 364.692Z" fill="#212121"/>
<path d="M117.412 417.083C121.074 414.549 124.615 412.033 127.844 409.254C131.093 406.463 134.2 403.519 137.24 400.64C143.317 394.832 149.106 389.113 154.522 383.612C157.165 380.861 159.897 378.083 162.657 375.578C165.44 373.112 168.221 370.778 171.073 368.744C176.699 364.589 182.412 361.434 187.714 358.833C193.038 356.272 198.007 354.313 202.4 352.716C203.788 352.219 205.118 351.757 206.378 351.309C206.282 351.234 206.155 351.151 206.028 351.068C205.365 350.563 204.742 350.035 204.15 349.516L204.192 349.858C195.745 350.938 187.828 353.912 180.69 357.77C173.532 361.639 167.121 366.383 161.225 371.377C149.454 381.405 139.509 392.177 129.096 401.071C123.278 406.019 117.4 410.373 111.628 414.324C112.045 413.556 123.623 404.007 128.961 399.313C139.118 390.385 148.911 379.624 160.64 369.568C166.505 364.565 172.955 359.798 180.14 355.887C186.943 352.173 194.479 349.265 202.578 347.994C201.749 347.114 201.021 346.228 200.459 345.402C199.253 343.562 198.563 342.023 198.199 340.95C197.854 339.866 197.674 339.289 197.674 339.289C197.674 339.289 197.913 339.832 198.347 340.89C198.81 341.905 199.636 343.364 200.953 345.034C201.693 345.94 202.638 346.883 203.734 347.817C203.785 347.814 203.855 347.799 203.905 347.795L203.938 347.986C204.777 348.703 205.705 349.394 206.743 350.046C207.124 350.296 207.557 350.541 207.989 350.787C208.348 350.997 208.707 351.207 209.085 351.406C209.537 351.64 210.02 351.883 210.503 352.125L212.261 352.305C212.326 352.372 212.553 352.58 213.166 352.642C213.949 352.814 214.74 352.955 215.488 353.068C217.005 353.284 218.433 353.394 219.762 353.378C222.42 353.346 224.687 352.782 226.405 352.04C228.123 351.298 229.334 350.407 230.072 349.739C230.81 349.072 231.149 348.664 231.149 348.664C231.149 348.664 230.875 349.139 230.195 349.904C229.525 350.689 228.386 351.748 226.654 352.734C224.941 353.709 222.558 354.525 219.754 354.8C219.158 354.859 218.54 354.879 217.923 354.899C219.692 355.413 221.559 355.869 223.505 356.28L223.487 356.16C226.707 355.878 229.52 355.572 231.89 354.869C234.252 354.197 236.11 353.111 237.405 351.961C238.712 350.829 239.479 349.673 239.892 348.854C240.306 348.035 240.447 347.559 240.447 347.559C240.447 347.559 240.399 348.059 240.081 348.953C239.764 349.847 239.139 351.157 237.869 352.529C236.637 353.879 234.748 355.271 232.282 356.214C231.322 356.592 230.246 356.906 229.159 357.2C230.87 357.433 232.627 357.613 234.455 357.778C239.22 355.964 242.634 353.365 244.809 351.385C246.006 350.292 246.829 349.365 247.407 348.738C247.955 348.103 248.246 347.749 248.246 347.749C248.246 347.749 248.008 348.151 247.549 348.891C247.079 349.612 246.347 350.696 245.272 351.954C243.717 353.781 241.379 356.066 238.08 358.099C239.489 358.22 240.91 358.361 242.392 358.518C242.442 358.514 242.504 358.53 242.566 358.547C247.571 357.143 251.185 354.664 253.445 352.739C254.658 351.716 255.503 350.828 256.062 350.213C256.609 349.578 256.893 349.255 256.893 349.255C256.893 349.255 256.643 349.637 256.204 350.366C255.722 351.068 254.987 352.1 253.889 353.319C252.307 355.057 249.873 357.267 246.488 359.062C247.729 359.255 249.001 359.456 250.257 359.719C250.37 359.732 250.474 359.776 250.567 359.8L250.533 359.742C254.35 357.878 257.139 355.828 258.99 354.326C260.841 352.824 261.777 351.91 261.777 351.91C261.777 351.91 261.06 353.064 259.465 354.914C258.135 356.453 256.114 358.473 253.31 360.453C254.972 360.873 256.614 361.303 258.279 361.773C258.558 361.846 258.837 361.919 259.127 362.012C262.718 359.94 265.402 357.978 266.949 356.181C267.839 355.189 268.4 354.31 268.757 353.708C269.082 353.098 269.253 352.762 269.253 352.762C269.253 352.762 269.156 353.133 268.927 353.818C268.678 354.515 268.255 355.497 267.48 356.684C266.34 358.505 264.253 360.591 261.536 362.677C262.57 362.965 263.613 363.221 264.674 363.467C268.556 360.726 273.231 357.232 274.987 355.524C276.971 353.577 277.983 352.434 277.983 352.434C277.983 352.434 277.198 353.785 275.478 356.05C273.881 358.164 271.392 361.088 267.864 364.121C270.051 364.496 272.251 364.758 274.481 364.714C274.613 364.715 274.765 364.705 274.917 364.695C276.364 363.535 277.799 362.669 278.948 361.762C280.688 360.43 281.979 359.046 282.925 357.837C283.891 356.617 284.524 355.59 284.925 354.884C285.325 354.178 285.512 353.78 285.512 353.78C285.512 353.78 285.387 354.194 285.094 354.995C284.79 355.776 284.307 356.924 283.463 358.309C282.64 359.683 281.456 361.293 279.763 362.886C279.189 363.431 278.546 363.991 277.902 364.551C280.033 364.381 282.169 364.13 284.313 363.848C287.343 362.208 289.483 360.17 290.878 358.515C291.831 357.407 292.459 356.462 292.863 355.807C293.267 355.151 293.457 354.803 293.457 354.803C293.457 354.803 293.321 355.198 293.013 355.929C292.706 356.66 292.207 357.738 291.397 358.999C290.558 360.302 289.351 361.874 287.655 363.416C288.865 363.286 290.094 363.145 291.296 363.046C291.953 363.003 292.61 362.96 293.247 362.929C295.851 360.829 297.84 358.801 299.28 357.225C300.351 356.048 301.119 355.074 301.655 354.42C302.16 353.757 302.432 353.415 302.432 353.415C302.432 353.415 302.214 353.805 301.797 354.573C301.369 355.322 300.719 356.41 299.791 357.739C298.697 359.324 297.648 360.986 296.042 362.817C297.196 362.772 298.331 362.738 299.455 362.685C299.657 362.672 299.828 362.651 300.03 362.637C303.89 358.781 306.322 354.998 307.841 352.3C308.623 350.898 309.157 349.747 309.523 348.982C309.878 348.197 310.065 347.799 310.065 347.799C310.065 347.799 309.951 348.233 309.712 349.081C309.462 349.909 309.086 351.152 308.466 352.695C307.426 355.271 305.716 358.763 302.841 362.464C304.264 362.34 305.676 362.197 307.034 362.007C307.346 361.956 307.626 361.897 307.938 361.846C310.51 359.11 312.28 356.527 313.464 354.602C314.874 352.256 315.515 350.884 315.515 350.884C315.515 350.884 315.167 352.399 314.089 354.998C313.358 356.71 312.256 358.955 310.616 361.356C311.937 361.057 313.203 360.71 314.447 360.324C316.384 358.117 317.828 356.144 318.848 354.656C320.128 352.806 320.758 351.729 320.758 351.729C320.758 351.729 320.391 352.941 319.473 355.052C318.95 356.223 318.234 357.691 317.275 359.327C318.344 358.912 319.36 358.45 320.352 357.948C320.864 357.702 321.384 357.424 321.884 357.158C329.041 347.36 332.281 337.91 333.917 331.418C334.736 328.105 335.154 325.499 335.404 323.727C335.623 321.946 335.734 321.015 335.734 321.015C335.734 321.015 335.696 321.982 335.601 323.795C335.456 325.612 335.215 328.297 334.586 331.709C333.497 337.567 331.188 345.738 326.065 354.479C326.201 354.399 326.327 354.299 326.464 354.219L326.726 354.039C326.8 354.075 326.876 354.162 326.961 354.217L327.208 354.414C328.915 352.577 330.311 350.79 331.491 349.129C331.527 349.056 331.574 349.002 331.61 348.928C332.576 347.393 333.753 345.052 334.816 342.069C335.9 339.075 336.735 335.386 337.377 331.232C338.008 327.059 338.395 322.425 338.824 317.503C339.262 312.551 339.834 307.783 340.78 303.477C341.063 302.21 341.388 300.971 341.728 299.801C341.537 300.149 341.35 300.547 341.194 300.953C340.83 301.901 340.454 302.829 340.106 303.714C339.39 305.497 338.729 307.195 338.101 308.769C336.834 311.898 335.742 314.608 334.839 316.789C333.013 321.162 332.022 323.552 332.022 323.552C332.022 323.552 332.79 321.004 334.186 316.436C334.9 314.156 335.775 311.388 336.803 308.164C337.113 307.169 337.471 306.12 337.817 305.052C336.203 308.304 334.208 311.805 331.813 315.383C324.367 329.758 319.69 338.185 319.69 338.185C319.69 338.185 321.9 332.853 325.861 323.874C325.442 324.145 325.042 324.404 324.612 324.656C323.806 325.521 322.988 326.366 322.136 327.153C319.718 330.691 317.475 333.498 315.683 335.594C312.852 338.876 311.143 340.531 311.143 340.531C311.143 340.531 312.684 338.633 315.172 335.08C316.053 333.804 317.073 332.316 318.149 330.611C316.797 331.664 315.418 332.627 314.052 333.478C312.999 334.146 311.952 334.732 310.912 335.287C310.022 336.279 309.239 337.183 308.577 337.937C306.903 339.965 305.981 341.081 305.981 341.081C305.981 341.081 306.645 339.749 308.039 337.465C308.241 337.137 308.47 336.766 308.72 336.385C306.474 337.435 304.335 338.265 302.385 338.88C298.904 339.971 296.003 340.485 293.98 340.749C292.984 340.885 292.206 340.947 291.67 340.971C291.145 341.016 290.861 341.024 290.861 341.024C290.861 341.024 291.13 340.946 291.637 340.781C292.155 340.635 292.892 340.414 293.836 340.099C295.735 339.487 298.462 338.497 301.631 336.96C304.377 335.643 307.47 333.888 310.635 331.671C305.104 333.88 300.147 335.23 296.174 336.109C292.38 336.935 289.381 337.324 287.365 337.557C285.347 337.74 284.289 337.86 284.289 337.86C284.289 337.86 285.363 337.678 287.403 337.352C289.439 336.975 292.406 336.395 296.175 335.347C301.499 333.862 308.458 331.448 316.108 327.344C318.42 325.284 320.727 322.991 322.913 320.401C322.96 320.348 323.007 320.294 323.063 320.209C319.655 322.594 316.36 324.677 313.143 326.4C306.958 329.779 301.181 331.791 296.409 332.875C291.618 333.97 287.804 334.179 285.256 334.173C283.986 334.154 282.999 334.127 282.355 334.058C281.703 334.019 281.365 333.98 281.365 333.98C281.365 333.98 281.711 333.988 282.371 333.996C283.043 334.023 284.026 333.999 285.332 333.944C287.933 333.815 291.745 333.424 296.449 332.091C301.165 330.777 306.735 328.545 312.666 325C317.563 322.112 322.688 318.355 328.034 313.945C329.174 312.439 330.255 310.967 331.278 309.53C328.654 312.402 325.801 314.883 322.874 317.013C318.008 320.539 312.982 323.162 308.103 325.095C298.338 328.993 289.383 330.37 282.186 331.165C274.947 331.933 269.34 332.036 265.547 332.101C261.752 332.115 259.774 332.143 259.774 332.143C259.774 332.143 261.818 332.05 265.666 331.9C269.53 331.688 275.206 331.388 282.451 330.407C289.643 329.378 298.508 327.713 307.926 323.625C312.615 321.592 317.425 318.913 322.018 315.414C325.797 312.497 329.415 308.992 332.482 304.812C330.349 306.19 328.319 307.744 326.327 309.275C324.791 310.462 323.266 311.668 321.726 312.804C320.163 313.901 318.566 314.94 317.019 315.975C310.688 319.911 304.154 322.602 297.897 324.423C291.641 326.243 285.631 327.184 280.098 327.637C274.561 328.04 269.496 327.904 264.986 327.549C255.95 326.769 249.133 324.981 244.635 323.57C242.35 322.938 240.699 322.223 239.558 321.841C238.424 321.428 237.851 321.211 237.851 321.211C237.851 321.211 238.463 321.405 239.636 321.795C240.817 322.155 242.526 322.835 244.858 323.413C249.47 324.705 256.421 326.363 265.487 326.836C270.003 327.109 275.054 327.043 280.534 326.543C285.996 325.921 291.874 324.847 297.961 322.916C304.048 320.985 310.323 318.209 316.351 314.293C317.389 313.555 318.458 312.825 319.547 312.084C318.46 312.693 317.322 313.305 316.095 313.944C311.174 316.479 305.141 319.218 298.11 321.465C294.6 322.598 290.836 323.564 286.888 324.351C282.905 325.078 278.735 325.574 274.402 325.613C270.019 325.656 265.915 325.143 261.913 324.491C257.939 323.797 254.145 322.918 250.619 321.778C243.55 319.56 237.543 316.643 232.75 313.829C227.965 310.985 224.387 308.275 222.032 306.266C220.823 305.32 219.955 304.463 219.351 303.924C218.747 303.385 218.444 303.09 218.444 303.09C218.444 303.09 218.795 303.331 219.473 303.774C220.152 304.217 221.103 304.946 222.423 305.723C224.98 307.404 228.812 309.65 233.726 311.999C238.649 314.317 244.691 316.663 251.578 318.436C255.029 319.357 258.7 320.072 262.532 320.613C266.342 321.115 270.401 321.55 274.399 321.522C278.447 321.491 282.419 321.059 286.229 320.485C290.044 319.83 293.709 319.052 297.161 318.136C304.078 316.323 310.207 314.105 315.262 312.069C319.415 310.377 322.825 308.803 325.45 307.505C327.92 305.536 330.5 303.53 333.402 301.808C335.25 300.255 337.223 298.603 339.373 296.849C339.392 296.837 339.412 296.826 339.431 296.815C340.27 296.14 341.129 295.455 342.038 294.766C342.716 294.265 343.414 293.752 344.142 293.248C345.074 292.598 346.037 291.956 347.043 291.342C348.713 290.34 350.499 289.401 352.436 288.584C357.648 286.324 363.749 285.54 369.944 285.409C376.172 285.337 382.532 285.713 389.199 285.987C395.85 286.324 402.753 286.776 409.822 287.604C410.466 287.673 411.082 287.785 411.727 287.855C412.413 287.952 413.088 288.03 413.775 288.127C415.947 288.431 418.13 288.756 420.247 289.145C423.636 289.736 426.901 290.294 430.095 290.552C435.261 290.996 440.292 290.312 445.066 289.096C446.145 288.833 447.221 288.519 448.266 288.197C449.042 287.953 449.775 287.682 450.54 287.419C455.356 285.784 459.824 283.776 463.675 281.342C466.375 279.632 468.787 277.698 470.792 275.608C471.04 275.358 471.256 275.1 471.484 274.862C472.508 273.739 473.407 272.584 474.201 271.385C476.629 267.683 478.217 263.711 478.227 260.137C478.245 250.786 473.093 246.818 471.139 246.124C471.254 246.187 471.347 246.212 471.455 246.306C472.377 246.896 473.223 248.028 473.754 249.476C474.285 250.923 474.541 252.663 474.472 254.566C474.435 256.477 474.084 258.57 473.29 260.714C472.893 261.785 472.356 262.886 471.633 263.939C470.941 264.999 469.85 266.004 468.843 266.75C467.922 267.42 466.916 268.034 465.908 268.597C465.751 268.689 465.575 268.791 465.419 268.883C461.936 270.735 457.967 271.979 453.747 272.661C450.894 273.122 448.06 273.256 445.313 272.999C442.576 272.762 439.91 272.195 437.525 271.123C436.318 270.674 435.243 269.912 434.197 269.29C433.724 268.884 433.243 268.509 432.781 268.123C432.543 267.895 432.365 267.816 432.058 267.47C431.786 267.183 431.56 266.843 431.397 266.518C430.721 265.182 430.715 264.005 430.668 262.982C430.645 261.999 430.629 260.985 430.71 260.046C430.99 256.261 432.196 253.431 433.153 251.612C433.642 250.697 434.077 250.049 434.392 249.602C434.72 249.175 434.878 248.951 434.878 248.951C434.878 248.951 434.762 249.203 434.551 249.693C434.339 250.184 434.051 250.904 433.749 251.868C433.152 253.765 432.536 256.617 432.761 260.054C432.817 260.913 432.935 261.789 433.08 262.754C433.221 263.668 433.443 264.588 433.822 265.101C434.013 265.383 434.171 265.474 434.669 265.787C435.074 266.075 435.486 266.332 435.922 266.629C436.853 267.055 437.752 267.605 438.806 267.882C440.845 268.632 443.152 268.988 445.583 269.063C447.998 269.2 450.565 269.011 453.126 268.59C456.613 268.048 459.953 267.118 462.928 265.878C463.037 265.841 463.135 265.784 463.244 265.746C464.548 265.194 465.767 264.586 466.89 263.904C467.856 263.313 468.542 262.78 469.173 262.018C469.815 261.276 470.349 260.439 470.79 259.578C471.692 257.844 472.214 256.043 472.489 254.36C473.072 251.002 472.515 248.074 471.112 246.796C470.439 246.139 469.673 245.905 469.169 245.806C468.645 245.718 468.37 245.696 468.37 245.696C468.37 245.696 468.65 245.637 469.186 245.612C469.319 245.613 453.368 244.809 450.71 244.84C447.434 244.892 443.976 244.945 440.436 244.994C438.509 245.019 436.531 245.046 434.534 245.086C434.25 245.094 433.955 245.083 433.671 245.091C432.16 245.109 430.648 245.126 429.106 245.136C427.583 245.134 426.024 245.205 424.335 245.143C421.197 244.983 417.99 244.837 414.732 244.695C413.136 244.657 411.494 244.541 410.128 244.762C408.396 244.987 406.658 245.111 404.925 245.153C401.458 245.238 398.063 245.176 394.602 245.178C391.148 245.15 387.714 245.111 384.342 245.088C380.998 245.022 377.602 245.092 374.161 244.637C373.905 244.603 373.669 244.557 373.432 244.512C372.335 244.34 371.242 244.087 370.177 243.791C368.148 243.192 366.187 242.397 364.473 241.483C361.572 239.978 359.005 238.278 356.429 236.923C355.903 236.653 355.39 236.402 354.864 236.132C353.636 235.512 352.419 234.911 351.206 234.361C349.868 233.779 348.542 233.216 347.2 232.715C346.159 232.326 345.149 231.945 344.123 231.626C340.524 230.451 336.964 229.567 333.563 228.956C332.741 228.807 331.942 228.697 331.143 228.587C329.596 228.363 328.091 228.167 326.631 228.049C322.16 227.672 318.088 227.664 314.515 227.968C312.723 228.045 311.076 228.325 309.532 228.467C308.003 228.678 306.64 228.95 305.383 229.134C302.91 229.661 300.989 230.101 299.715 230.479C298.428 230.837 297.75 231.024 297.75 231.024C297.75 231.024 298.414 230.767 299.674 230.319C300.93 229.821 302.821 229.24 305.262 228.523C306.501 228.218 307.868 227.865 309.399 227.521C310.925 227.259 312.585 226.866 314.39 226.677C317.989 226.147 322.165 225.885 326.752 226.011C327.179 226.024 327.598 226.067 328.025 226.08C325.136 223.964 321.447 221.739 317.262 219.83C311.693 217.26 306.286 215.461 302.287 214.23C298.249 213.022 295.732 212.263 295.732 212.263C295.732 212.263 296.378 212.2 297.582 212.152C298.768 212.115 300.513 212.092 302.652 212.206C306.911 212.446 312.915 213.292 318.987 216.093C324.849 218.806 329.267 222.862 331.838 226.318C332.164 226.337 332.493 226.407 332.819 226.427C331.769 222.16 330.603 218.775 329.706 216.387C328.711 213.741 328.07 212.331 328.07 212.331C328.07 212.331 328.988 213.632 330.401 216.138C331.725 218.539 333.491 222.098 335.019 226.689C335.5 226.749 335.973 226.84 336.466 226.919L336.511 226.368C336.554 225.634 336.609 224.92 336.664 224.206C336.765 222.808 336.862 221.492 336.965 220.277C337.18 217.817 337.348 215.725 337.5 214.009C337.834 210.586 338.027 208.716 338.027 208.716C338.027 208.716 338.102 210.64 338.237 214.103C338.31 217.235 338.401 221.747 338.517 227.242C339.164 227.362 339.792 227.493 340.451 227.633C341.828 220.426 344.09 214.959 345.864 211.351C346.787 209.473 347.599 208.08 348.146 207.131C348.705 206.201 349.029 205.723 349.029 205.723C349.029 205.723 348.789 206.256 348.327 207.261C347.876 208.285 347.222 209.77 346.508 211.735C345.101 215.522 343.366 221.128 342.493 228.119C343.163 228.278 343.803 228.429 344.484 228.608C344.853 226.32 345.467 223.914 346.438 221.536C348.737 215.549 352.209 210.895 354.922 207.814C356.303 206.272 357.517 205.117 358.361 204.361C359.236 203.614 359.726 203.196 359.726 203.196C359.726 203.196 359.417 203.744 358.853 204.755C358.31 205.755 357.52 207.188 356.591 208.964C354.774 212.545 352.355 217.474 350.24 223.014C349.324 225.307 348.568 227.559 347.965 229.67C348.576 229.863 349.191 230.107 349.795 230.332C351.818 222.301 354.867 216.295 357.259 212.352C358.542 210.238 359.648 208.673 360.421 207.617C361.206 206.581 361.609 206.058 361.609 206.058C361.609 206.058 361.252 206.659 360.563 207.77C359.886 208.901 358.93 210.588 357.836 212.801C355.795 216.985 353.265 223.161 351.729 231.038C351.803 231.074 351.884 231.078 351.958 231.114C353.377 226.27 355.699 222.342 357.544 219.663C359.464 216.888 360.873 215.303 360.873 215.303C360.873 215.303 360.368 217.357 359.379 220.558C358.41 223.748 357.036 228.041 355.739 232.735C356.504 233.101 357.265 233.417 358.042 233.803C358.745 234.153 359.428 234.514 360.123 234.895C362.613 227.169 364.32 222.682 364.32 222.682C364.32 222.682 363.523 227.739 361.849 235.828C362.861 236.391 363.892 236.943 364.9 237.456C366.585 231.407 367.799 227.916 367.799 227.916C367.799 227.916 367.501 231.895 366.6 238.299C367.249 238.602 367.918 238.893 368.575 239.165C369.593 235.788 370.874 233.177 371.882 231.355C373.174 229.077 374.046 227.965 374.046 227.965C374.046 227.965 373.421 229.274 372.534 231.708C371.82 233.673 370.965 236.43 370.351 239.779C370.901 239.957 371.47 240.122 372.016 240.249C373.419 237.488 374.899 234.497 376.388 231.344C379.62 224.26 382.372 217.745 383.765 212.812C384.489 210.369 384.913 208.31 385.123 206.875C385.292 205.413 385.382 204.625 385.382 204.625C385.382 204.625 385.517 205.439 385.764 206.894C385.941 208.365 386.033 210.542 385.781 213.208C385.358 218.545 383.473 225.734 380.106 233.081C378.796 235.867 377.371 238.458 375.891 240.818C376.718 240.886 377.553 240.923 378.407 240.948C382.278 228.269 384.855 220.781 384.855 220.781C384.855 220.781 383.343 228.565 380.45 240.987C381.324 241.001 382.218 241.004 383.131 240.995C384.775 233.842 386.456 228.189 387.685 224.322C388.95 220.381 389.756 218.258 389.756 218.258C389.756 218.258 389.275 220.533 388.374 224.602C387.544 228.524 386.407 234.121 385.272 240.976C386.216 240.976 387.191 240.983 388.166 240.99C391.849 223.41 394.374 212.961 394.374 212.961C394.374 212.961 393.222 221.899 390.965 236.442C391.141 236.339 391.297 236.248 391.512 236.122C392.236 235.699 393.194 235.139 394.278 234.479L394.135 234.458C395.764 222.118 397.08 214.764 397.08 214.764C397.08 214.764 396.995 221.845 396.344 233.167C397.288 232.536 398.298 231.841 399.313 231.064C399.38 230.999 399.467 230.922 399.564 230.865C400.612 224.532 401.064 219.335 401.309 215.624C401.575 211.455 401.608 209.178 401.608 209.178C401.608 209.178 401.873 211.516 402.038 215.749C402.144 219.072 402.165 223.598 401.727 228.997C401.746 228.986 401.746 228.986 401.766 228.975C402.72 228.049 403.595 226.987 404.421 225.796C405.77 211.495 406.85 203.019 406.85 203.019C406.85 203.019 406.847 210.42 406.463 222.556C406.59 222.324 406.748 222.101 406.875 221.869C407.54 220.719 408.206 219.569 408.856 218.481C409.746 213.001 410 208.498 410.06 205.367C410.132 202.124 410.036 200.343 410.036 200.343C410.036 200.343 410.427 202.135 410.793 205.41C411.046 207.729 411.248 210.812 411.163 214.482C411.282 214.282 411.401 214.081 411.508 213.861C412.008 212.965 412.438 212.084 412.859 211.235C412.879 211.223 412.867 211.204 412.887 211.192C413.835 203.79 412.853 197.621 411.801 193.487C411.225 191.2 410.584 189.475 410.174 188.325C409.713 187.177 409.471 186.584 409.471 186.584C409.471 186.584 409.783 187.162 410.384 188.28C410.946 189.421 411.746 191.105 412.555 193.387C413.639 196.453 414.698 200.688 414.969 205.777C415.343 204.352 415.497 203.133 415.547 202.186C415.608 201.573 415.567 201.098 415.586 200.772C415.586 200.458 415.584 200.275 415.584 200.275C415.584 200.275 415.645 200.423 415.758 200.751C415.859 201.059 416.052 201.524 416.192 202.124C416.449 203.102 416.666 204.549 416.646 206.266C416.889 205.783 417.195 205.5 417.575 205.251C418.186 200.014 417.945 195.694 417.603 192.641C417.409 190.917 417.191 189.602 417.03 188.699C416.85 187.807 416.759 187.336 416.759 187.336C416.759 187.336 416.92 187.792 417.221 188.666C417.502 189.551 417.923 190.853 418.33 192.583C419.011 195.544 419.787 198.711 419.629 203.604C419.927 203.351 420.301 203.002 420.944 202.442C421.467 196.469 421.628 190.235 421.678 186.953C421.71 183.418 421.686 181.491 421.686 181.491C421.686 181.491 422.048 183.457 422.423 187.016C422.758 190.283 423.113 194.93 423.028 200.621C423.287 200.391 423.585 200.138 423.892 199.854C424.496 199.317 425.12 198.768 425.713 198.212C426.949 192.74 426.87 188.116 426.603 184.966C426.467 183.341 426.252 182.076 426.126 181.231C425.968 180.378 425.888 179.927 425.888 179.927C425.888 179.927 426.039 180.364 426.336 181.187C426.614 182.021 426.98 183.277 427.342 184.928C427.925 187.631 428.42 191.487 428.053 196.11C428.963 195.289 429.913 194.445 430.852 193.582C431.1 188.215 430.925 183.831 430.715 180.779C430.489 177.474 430.269 175.661 430.269 175.661C430.269 175.661 430.792 177.454 431.446 180.772C431.978 183.478 432.549 187.237 432.799 191.84C433.556 191.161 434.322 190.451 435.119 189.749C436.098 184.376 436.467 179.936 436.644 176.736C436.826 173.009 436.792 170.93 436.792 170.93C436.792 170.93 437.141 173.009 437.369 176.811C437.532 179.602 437.593 183.344 437.235 187.804C438.146 186.983 439.026 186.154 439.917 185.344C440.775 179.36 441.196 174.469 441.446 170.991C441.695 167.198 441.781 165.101 441.781 165.101C441.781 165.101 442.033 167.237 442.183 171.085C442.303 174.163 442.352 178.333 442.061 183.357C442.866 182.624 443.651 181.902 444.417 181.193C445.348 175.873 445.687 171.425 445.829 168.167C445.989 164.085 445.914 161.847 445.914 161.847C445.914 161.847 446.295 164.116 446.566 168.26C446.742 171.254 447.292 174.396 447.166 178.668C447.597 178.284 448.018 177.881 448.43 177.509C449.668 170.829 450.039 165.313 450.141 161.448C450.239 157.351 450.152 155.092 450.152 155.092C450.152 155.092 450.565 157.37 450.878 161.542C451.123 164.968 451.247 169.67 450.735 175.348C450.888 175.206 451.011 175.056 451.164 174.914C452.877 172.234 454.522 166.654 454.755 163.999C454.922 161.278 454.941 158.932 455.041 157.037C455.217 153.208 455.303 151.111 455.303 151.111C455.303 151.111 455.465 153.273 455.766 157.111C455.872 159.043 456.117 161.393 456.167 164.171C456.16 165.775 456.127 167.605 455.725 169.52C456.821 167.803 457.519 166.215 457.79 164.928C458.026 164.029 458.08 163.315 458.098 162.806C458.115 162.297 458.13 162.053 458.13 162.053C458.13 162.053 458.177 162.314 458.28 162.804C458.364 163.307 458.453 164.042 458.426 165.028C458.411 166.979 457.644 169.841 455.83 172.842C455.493 173.433 455.075 174.019 454.668 174.624C455.589 174.269 456.568 173.881 457.677 173.443C458.87 167.314 459.642 162.35 460.167 158.894C460.666 155.349 460.945 153.402 460.945 153.402C460.945 153.402 460.996 155.419 460.888 159.05C460.788 162.336 460.533 166.972 459.893 172.567C460.834 172.201 461.833 171.8 462.863 171.408C464.515 165.93 464.86 161.268 464.905 158.067C464.919 156.431 464.856 155.156 464.812 154.317C464.755 153.458 464.706 153.014 464.706 153.014C464.706 153.014 464.818 153.474 465.025 154.323C465.214 155.184 465.459 156.457 465.65 158.13C465.996 161.102 466.145 165.397 465.201 170.514C466.25 170.111 467.339 169.684 468.448 169.246C469.174 164.519 469.397 160.636 469.491 157.879C469.568 154.869 469.541 153.206 469.541 153.206C469.541 153.206 469.883 154.868 470.225 157.922C470.495 160.493 470.729 164.082 470.516 168.431C471.515 168.03 472.545 167.638 473.584 167.215C474.474 161.736 474.84 157.245 475.071 154.093C475.296 150.708 475.337 148.847 475.337 148.847C475.337 148.847 475.603 150.738 475.808 154.187C475.983 157.18 476.083 161.346 475.703 166.396C476.425 166.105 477.178 165.823 477.919 165.52C478.177 165.422 478.423 165.305 478.681 165.207C479.798 159.936 480.314 155.567 480.607 152.431C480.928 148.806 481.021 146.811 481.021 146.811C481.021 146.811 481.266 148.845 481.344 152.525C481.395 155.486 481.314 159.522 480.757 164.36C482.014 163.862 483.24 163.355 484.415 162.852C485.539 157.997 486.067 153.963 486.329 151.133C486.608 148.11 486.682 146.44 486.682 146.44C486.682 146.44 486.934 148.129 487.066 151.227C487.156 153.851 487.141 157.506 486.597 161.918L486.617 161.906C487.347 161.584 488.046 161.254 488.726 160.936C489.199 160.712 489.64 160.48 490.082 160.248C492.479 149.401 494.22 142.953 494.22 142.953C494.22 142.953 493.664 149.05 492.311 158.945C493.11 158.426 493.877 157.899 494.552 157.347C496.927 152.836 498.104 148.79 498.739 145.926C499.076 144.392 499.26 143.182 499.39 142.371C499.489 141.552 499.552 141.122 499.552 141.122C499.552 141.122 499.57 141.557 499.596 142.408C499.59 143.251 499.591 144.51 499.452 146.113C499.271 148.318 498.803 151.242 497.75 154.559C499.145 153.219 500.212 151.992 500.984 151.069C501.961 149.868 502.463 149.155 502.463 149.155C502.463 149.155 502.193 149.995 501.524 151.409C500.847 152.854 499.74 154.866 497.981 157.153C497.129 158.254 496.07 159.451 494.837 160.617C496.407 160.251 498.091 159.765 499.822 159.226L499.551 159.122C501.752 153.191 502.835 148.176 503.462 144.714C504.069 141.263 504.246 139.323 504.246 139.323C504.246 139.323 504.356 141.305 504.163 144.881C503.974 148.193 503.43 152.919 501.897 158.511C503.328 158.042 504.795 157.5 506.329 156.892C507.842 152.387 508.774 148.641 509.364 146.013C509.975 143.243 510.229 141.703 510.229 141.703C510.229 141.703 510.273 143.304 510.065 146.181C509.89 148.619 509.529 151.952 508.663 155.947C510.275 155.294 511.923 154.567 513.607 153.766L513.413 153.748C514.566 146.384 515.568 141.994 515.568 141.994C515.568 141.994 515.749 146.164 515.556 152.837C516.334 152.461 517.111 152.085 517.897 151.679C518.735 148.355 519.287 145.618 519.639 143.707C520.013 141.652 520.212 140.512 520.212 140.512C520.212 140.512 520.319 141.683 520.376 143.801C520.396 145.495 520.354 147.802 520.077 150.562C520.941 150.109 521.824 149.645 522.696 149.162C522.814 149.093 522.931 149.025 523.048 148.956C523.499 145.597 524.008 142.833 524.408 140.867C524.913 138.499 525.266 137.218 525.266 137.218C525.266 137.218 525.223 138.581 525.129 141.023C525.062 142.794 525 145.113 524.937 147.878C526.357 147.075 527.753 146.232 529.178 145.347C529.803 142.332 530.112 139.764 530.277 137.936C530.469 135.751 530.51 134.519 530.51 134.519C530.51 134.519 530.784 135.75 531.011 137.979C531.164 139.543 531.268 141.607 531.166 144.08C532.121 143.47 533.053 142.82 534.005 142.159C534.55 139.321 534.915 136.983 535.14 135.303C535.411 133.387 535.547 132.363 535.547 132.363C535.547 132.363 535.729 133.437 535.866 135.377C535.955 136.742 536.054 138.573 536.002 140.729C536.892 140.051 537.77 139.354 538.626 138.618C539.13 135.621 539.745 133.215 540.245 131.558C540.823 129.673 541.215 128.683 541.215 128.683C541.215 128.683 541.124 129.785 540.958 131.745C540.85 133.041 540.749 134.754 540.656 136.749C542.22 135.206 543.622 133.52 544.759 131.649C547.234 127.579 548.183 122.694 546.913 118.635C546.416 116.932 546.477 116.004 545.311 115.4C542.15 116.906 535.54 118.749 529.067 120.827C526.501 121.645 524.038 122.324 521.748 122.849C520.618 123.116 519.516 123.34 518.461 123.511C517.959 123.594 517.395 123.662 516.858 123.686C516.341 123.7 515.852 123.671 515.379 123.58C514.417 123.46 513.494 123.003 512.96 122.449C512.407 121.906 512.09 121.409 511.8 121.002C511.375 120.41 511.096 120.023 510.974 119.858C508.665 119.948 506.55 120.056 504.625 120.263C502.952 120.454 494.774 123.79 493.423 124.082C493.403 124.093 493.442 124.07 493.532 124.044C489.594 125.611 484.019 127.295 477.08 128.307C475.15 128.596 473.115 128.841 471.004 128.999C468.853 129.18 466.727 129.268 464.521 129.534C462.304 129.781 460 130.104 457.684 130.54C456.551 130.756 455.308 131.01 454.272 131.301C453.266 131.6 452.273 132.102 451.268 132.716C449.257 133.943 447.287 135.646 444.911 137.192C442.501 138.679 440.198 139.947 437.75 141.325C432.882 144.039 427.777 146.708 422.552 149.394C417.327 152.081 412.238 154.688 407.395 157.309C404.963 158.625 402.582 159.938 400.229 161.209C397.836 162.502 395.364 163.659 392.852 164.524C390.247 165.364 387.863 165.865 385.495 166.436C383.134 166.976 380.863 167.49 378.631 167.981C376.431 168.48 374.3 168.965 372.336 169.51C371.848 169.663 371.361 169.817 370.885 169.99C368.255 172 364.784 174.501 360.047 176.587C357.193 177.809 354.088 179.23 350.657 180.632C348.936 181.323 347.176 182.037 345.195 182.644C344.119 182.958 343.185 183.11 342.164 183.34C341.163 183.557 340.159 183.724 339.127 183.934C330.943 185.464 321.909 186.572 312.491 187.696C303.061 188.8 294.105 189.862 286.032 191.222C278.017 192.548 271.713 193.793 265.867 195.688C270.185 195.893 273.523 195.543 276.771 196.163C281.284 197.015 292.145 201.188 294.36 202.15C292.112 201.312 280.841 198.638 276.311 197.98C272.282 197.37 267.398 197.05 261.814 197.191C261.145 197.215 260.465 197.219 259.757 197.265C259.019 197.303 258.272 197.372 257.514 197.422C251.635 197.867 245.055 198.774 238.424 201.391C230.843 204.221 223.309 209.018 214.813 213.695C210.548 216.005 205.995 218.272 200.988 219.939C198.43 220.726 195.97 221.455 193.125 221.885C190.305 222.221 187.536 222.108 184.803 221.921C182.082 221.754 179.353 221.486 176.67 221.427C175.318 221.404 174.07 221.425 172.701 221.596C171.348 221.704 170.001 221.914 168.654 222.124C165.945 222.606 163.268 223.278 160.593 224.133C157.929 225.008 155.268 226.065 152.655 227.251C147.39 229.646 142.198 232.524 136.869 235.481C135.516 236.219 134.163 236.957 132.811 237.695C131.337 238.452 129.896 239.084 128.433 239.677C125.505 240.863 122.568 241.898 119.599 242.925C116.651 243.94 113.721 244.943 110.812 245.936C109.364 246.467 107.905 246.978 106.458 247.51C104.968 248.013 103.486 248.485 102.013 248.927C96.1067 250.673 90.2282 252.063 84.4637 253.333C81.5815 253.968 78.6959 254.553 75.838 255.095C72.9997 255.626 70.2005 256.134 67.4323 256.65C64.4065 257.264 43.2187 258.497 40.5216 258.236C45.6562 256.337 61.0418 254.245 66.6579 253.035C69.4538 252.477 72.2497 251.918 75.0962 251.357C77.9116 250.787 80.7548 250.175 83.606 249.531C89.3167 248.214 95.1023 246.8 100.857 245.064C102.28 244.625 103.722 244.176 105.142 243.687C106.57 243.167 108.017 242.636 109.465 242.105C112.394 241.101 115.323 240.098 118.292 239.071C121.241 238.056 124.127 237.025 126.937 235.907C128.342 235.348 129.705 234.762 130.971 234.1C132.305 233.373 133.649 232.666 134.963 231.951C140.295 229.044 145.597 226.129 151.103 223.698C153.856 222.482 156.638 221.407 159.473 220.511C162.319 219.635 165.198 218.949 168.09 218.466C169.538 218.249 170.978 218.064 172.432 217.948C173.852 217.774 175.406 217.784 176.82 217.824C179.69 217.931 182.421 218.25 185.084 218.451C187.747 218.653 190.356 218.807 192.767 218.578C195.152 218.26 197.708 217.605 200.059 216.914C204.835 215.434 209.288 213.356 213.532 211.19C222.006 206.789 229.833 202.135 237.727 199.436C245.623 196.605 253.213 196.079 259.722 195.948C259.905 195.946 260.087 195.944 260.281 195.962C261.501 195.354 262.813 194.771 264.206 194.192C270.046 191.75 277.255 189.583 285.394 187.843C293.534 186.103 302.544 184.773 312.013 183.646C321.482 182.519 330.482 181.667 338.591 180.548C339.607 180.4 340.592 180.245 341.588 180.108C342.541 179.944 343.588 179.805 344.398 179.62C346.167 179.19 347.985 178.573 349.704 178.014C352.146 177.164 354.459 176.363 356.663 175.6C356.82 175.509 356.968 175.448 357.124 175.357C359.779 173.884 362.66 171.99 365.99 169.965C367.66 168.962 369.513 167.958 371.616 167.201C372.927 166.75 374.241 166.35 375.605 165.946C376.443 165.404 377.328 165.437 377.967 165.273C380.161 164.673 382.414 164.039 384.737 163.389C387.029 162.732 389.484 162.084 391.696 161.29C393.963 160.41 396.195 159.29 398.463 157.964C400.782 156.635 403.129 155.263 405.526 153.888C410.372 151.135 415.465 148.447 420.69 145.76C425.915 143.073 431.015 140.486 435.901 137.893C438.305 136.619 440.807 135.288 442.969 134.05C445.098 132.753 447.172 131.095 449.55 129.732C450.735 129.065 452.035 128.462 453.434 128.117C454.794 127.795 455.981 127.626 457.207 127.434C459.662 127.101 462.003 126.887 464.309 126.746C466.603 126.586 468.848 126.612 470.896 126.57C472.975 126.535 474.966 126.395 476.875 126.25C480.359 125.971 483.476 125.514 486.264 124.986C486.72 124.824 497.906 121.068 501.233 119.937C501.412 119.884 501.58 119.812 501.74 119.771C501.72 119.783 501.701 119.794 501.681 119.806C501.97 119.716 502.138 119.644 502.157 119.632C502.068 119.659 501.908 119.7 501.74 119.771C501.869 119.722 502.028 119.681 502.157 119.632C503.081 119.328 503.888 119.093 504.449 118.975C507.155 118.443 510.291 118.106 513.687 117.721C517.071 117.317 520.779 116.882 524.567 115.822C525.503 115.538 526.473 115.312 527.413 114.946C528.396 114.607 529.387 114.238 530.39 113.888C532.465 113.174 534.594 112.507 536.87 111.911C538.008 111.614 539.168 111.355 540.383 111.144C540.994 111.023 541.609 110.952 542.285 110.897C542.985 110.882 543.619 110.8 544.607 111.01C546.32 111.426 547.563 112.431 548.552 113.584C549.522 114.749 550.195 116.035 550.661 117.416C551.566 120.087 551.727 123.011 551.26 125.803C550.804 128.614 549.771 131.291 548.286 133.733C545.308 138.648 541.006 142.107 536.847 144.958C532.646 147.78 528.404 150.129 524.294 152.164C516.042 156.226 508.227 159.062 501.472 160.701C498.277 161.519 495.314 162.018 492.642 162.294C491.925 162.818 491.177 163.334 490.356 163.814C487.116 165.813 483.393 167.569 479.397 169.17C471.38 172.333 463.845 174.166 458.332 175.237C456.938 175.501 455.704 175.724 454.579 175.909C454.237 175.952 453.894 175.994 453.56 176.006C452.026 178.005 450.231 180.051 448.299 182.177C447.759 182.781 447.189 183.377 446.619 183.972L446.6 183.984C444 186.763 441.111 189.632 437.958 192.498C433.369 196.676 428.793 200.295 424.625 203.308C424.325 203.693 423.975 204.082 423.582 204.442C422.68 205.232 421.656 205.726 420.724 206.061C419.373 206.981 418.069 207.848 416.891 208.616C416.715 208.719 416.55 208.841 416.374 208.944C416.084 210.871 415.512 212.99 414.66 215.168C413.574 217.98 412.116 220.826 410.431 223.779C408.873 226.5 406.92 229.084 404.626 230.95C406.196 231.527 407.868 232.098 409.68 232.64C413.141 233.713 417.014 234.729 421.123 235.922C423.183 236.528 425.192 237.138 427.158 237.852C427.657 238.033 428.136 238.225 428.616 238.417C429.084 238.589 429.671 238.876 430.049 239.074C430.911 239.515 431.772 239.957 432.591 240.37C433.286 240.751 433.958 241.093 434.622 241.466C440.285 241.593 445.715 241.725 450.787 241.83C453.452 241.9 456.035 241.964 458.516 242.035C460.987 242.087 463.491 242.198 465.791 242.585C469.393 243.182 471.298 243.433 473.864 245.265C473.719 245.062 484.214 252.02 479.251 265.705C478.541 268.035 478.541 268.035 476.111 272.184C475.291 273.608 474.284 274.983 473.173 276.315C476.8 280.545 480.972 285.663 485.437 291.685C489.009 296.629 493.002 302.114 496.087 308.785C499.17 315.406 501.545 322.702 504.314 330.267C507.013 337.847 509.839 345.824 512.774 354.079C513.135 355.101 513.508 356.142 513.861 357.195L514.41 358.764C514.598 359.31 514.843 359.953 514.931 360.821C515.037 361.677 514.818 362.828 514.379 363.557C513.962 364.326 513.489 364.864 513.041 365.31C512.149 366.251 511.156 367.067 510.076 367.778C505.7 370.571 500.315 371.279 495.315 370.265C493.145 369.829 491.145 369.056 489.303 368.06C488.004 370.236 484.29 374.611 481.95 376.083C479.429 377.74 475.795 378.526 471.994 377.993C468.192 377.46 464.258 375.666 460.802 372.806C457.327 369.957 454.457 366.125 451.874 362.02C450.572 359.973 449.343 357.779 448.081 355.709C446.807 353.62 445.49 351.95 443.514 350.77C441.574 349.516 439.183 348.657 436.662 347.664C434.112 346.714 431.408 345.409 429.006 343.769C424.133 340.504 420.252 336.108 417.65 331.253L417.175 330.35L417.08 330.143L417.057 330.104L417.042 330.034C416.993 329.905 416.974 329.916 416.923 329.92L416.892 329.912L416.64 329.928L416.134 329.961C415.811 329.992 415.454 329.965 415.12 329.977C414.448 329.95 413.772 330.004 413.127 329.934C410.479 329.803 407.929 329.3 405.531 328.654C400.725 327.344 396.49 325.307 392.691 323.25C388.9 321.163 385.552 319.027 382.498 317.034C382.244 316.868 382.009 316.69 381.743 316.504C381.195 316.51 380.65 316.566 380.24 316.806C379.84 317.065 379.501 317.473 379.504 317.971C379.429 319.011 380.226 320.329 381.178 321.374C381.419 321.652 381.689 321.889 381.969 322.144C382.281 322.408 382.593 322.672 382.916 322.956C383.55 323.503 384.197 324.07 384.874 324.645C387.532 326.948 390.448 329.468 393.56 332.188C396.675 334.959 400.003 337.736 403.47 341.063C405.183 342.738 406.862 344.669 408.271 346.81C409.7 348.94 410.894 351.207 412.057 353.466C414.371 357.964 416.761 362.681 418.847 367.732C420.934 372.783 422.592 377.954 423.398 383.15C423.842 385.75 423.991 388.339 423.985 390.888C423.947 392.169 423.956 393.397 423.739 394.731C423.541 396.054 423.148 397.491 422.256 398.747C421.366 400.054 420.059 400.87 418.958 401.409C417.836 401.96 416.837 402.36 415.779 402.794C413.683 403.652 411.507 404.373 409.25 404.643C407.017 404.951 404.643 404.66 402.669 403.662C400.695 402.664 399.287 401.152 398.204 399.659C397.11 398.147 396.331 396.635 395.598 395.2C394.865 393.766 394.247 392.395 393.695 391.092C393.456 390.549 393.26 390.034 393.064 389.519C392.116 388.525 388.97 382.02 387.778 376.524C387.652 375.995 377.89 366.745 376.9 364.332C376.587 363.571 376.771 364.067 376.881 364.344C374.766 364.766 373.932 363.968 371.603 363.44C368.585 362.764 366.053 361.306 364.054 359.771C363.573 359.397 362.852 358.926 362.034 358.381L361.922 358.368C361.93 358.337 361.919 358.317 361.938 358.306C359.351 356.617 355.735 354.427 354.854 353.368C354.732 353.203 354.652 353.067 354.622 352.926C353.6 353.602 351.349 355.81 349.481 356.745C347.543 357.694 345.317 359.047 342.304 359.863C340.797 360.246 338.945 360.804 337.145 360.911C335.368 361.058 333.662 359.352 331.679 358.832C331.175 358.733 330.668 358.584 330.177 358.372C329.678 358.192 329.159 358.022 328.704 357.737L327.978 357.348L327.6 357.15L327.418 357.019L327.079 356.798L326.909 356.687L326.825 356.632L326.758 356.697L326.507 356.896C326.42 356.973 326.381 356.996 326.111 357.206C325.676 357.539 325.221 357.884 324.763 358.178C323.808 358.788 322.876 359.438 321.836 359.994C317.765 362.321 312.975 364.045 307.808 364.992C302.657 366.009 297.108 366.077 291.799 366.556C286.432 367.069 280.757 368.314 274.59 368.402C268.3 368.458 262.52 366.694 257.25 365.13C254.61 364.338 252.031 363.562 249.524 362.955C247.01 362.378 244.474 361.945 242.003 361.578C237.023 360.869 232.177 360.343 227.661 359.44C223.125 358.549 219.014 357.305 215.375 355.837C212.382 354.622 211.97 354.994 209.729 353.496C208.285 354.077 204.766 354.744 203.145 355.429C198.867 357.221 193.824 357.571 188.695 360.333C183.577 363.114 178.139 366.424 172.791 370.651C170.094 372.726 167.488 375.089 164.837 377.557C162.22 380.083 159.726 382.774 157.063 385.669C151.76 391.366 146.06 397.19 140.013 403.139C136.968 406.099 133.884 409.082 130.532 412.012C127.161 414.953 123.475 417.58 119.794 420.125C116.082 422.662 112.498 425.15 108.81 427.594C106.993 428.84 105.127 429.957 103.304 431.101C101.48 432.246 99.6451 433.371 97.8263 434.434C95.6474 435.734 93.4848 436.972 91.3416 438.198C95.3662 434.849 113.739 419.597 117.412 417.083ZM335.855 302.053L336.075 302.475C336.305 302.105 336.535 301.735 336.756 301.395C336.446 301.629 336.165 301.82 335.855 302.053ZM486.969 125.204C488.191 124.962 489.321 124.695 490.4 124.431C490.49 124.405 490.806 124.273 491.251 124.092C489.653 124.501 487.978 124.955 486.969 125.204ZM491.54 124.002C490.985 124.221 490.529 124.382 490.42 124.42C491.959 124.045 493.343 123.63 494.555 123.236C495.441 122.955 493.675 123.436 491.54 124.002ZM540.05 113.358C538.973 113.49 526.89 117.193 525.87 117.422C521.796 118.308 517.204 119.968 513.772 120.112C512.8 120.155 511.868 120.175 510.977 120.223C511.158 120.354 511.532 120.634 512.048 121.067C512.829 121.686 513.843 122.747 515.414 122.563C515.799 122.548 516.243 122.498 516.683 122.398C517.092 122.291 517.501 122.183 518.008 122.017C518.963 121.721 520.005 121.349 521.086 120.953C523.258 120.182 525.661 119.355 528.207 118.549C533.109 116.969 537.641 115.79 541.03 114.99C540.96 115.004 540.789 115.026 540.859 115.011C542.36 114.212 543.132 112.974 540.05 113.358ZM391.705 236.901C391.375 236.963 391.094 237.022 390.864 237.078C390.666 238.4 390.441 239.765 390.219 241.181C391.112 241.183 392.006 241.186 392.93 241.197C393.296 239.173 393.738 237.55 394.128 236.377C394.136 236.346 394.144 236.315 394.172 236.273C393.205 236.549 392.376 236.746 391.705 236.901ZM396.788 235.452C396.113 235.689 395.466 235.884 394.87 236.075C394.86 236.238 394.858 236.37 394.841 236.564C394.777 237.756 394.727 239.333 394.748 241.21C395.611 241.204 396.465 241.229 397.328 241.224C397.432 238.618 397.81 236.482 398.185 234.924C397.721 235.117 397.225 235.302 396.788 235.452ZM402.081 233.015C401.787 233.186 401.533 233.335 401.248 233.475C401.243 233.557 401.219 233.65 401.225 233.751L400.857 233.704C400.219 234.05 399.598 234.334 398.985 234.588C398.981 234.669 398.984 234.72 398.979 234.801C398.922 236.409 398.955 238.62 399.216 241.222C399.896 241.218 400.556 241.226 401.236 241.222C401.667 237.874 402.079 235.167 402.417 233.186C402.293 233.153 402.177 233.09 402.081 233.015ZM403.219 233.661C403.255 235.608 403.292 238.184 403.257 241.222C403.785 241.228 404.333 241.223 404.85 241.209C405.063 241.215 405.285 241.191 405.487 241.178C405.524 238.637 405.827 236.597 406.116 235.116C405.092 234.666 404.115 234.161 403.219 233.661ZM408.42 236.184C407.898 235.964 407.426 235.741 406.935 235.53C407 236.987 407.165 238.885 407.493 241.107C408.15 241.064 408.826 241.01 409.461 240.928C409.648 239.139 409.831 237.747 409.963 236.804C409.452 236.604 408.911 236.396 408.42 236.184ZM410.515 237.032C410.687 237.954 410.902 239.22 411.137 240.788C411.988 240.763 412.78 240.772 413.565 240.812C413.763 239.804 413.963 238.979 414.133 238.328C412.879 237.933 411.672 237.484 410.515 237.032ZM414.83 238.577C414.931 239.2 415.023 239.986 415.114 240.904C416.387 240.973 417.641 241.053 418.887 241.164C419.028 240.688 419.165 240.294 419.297 239.98C417.775 239.532 416.293 239.06 414.83 238.577ZM420.145 240.219C420.235 240.508 420.34 240.866 420.417 241.268C421.814 241.369 423.192 241.482 424.527 241.567C424.609 241.572 424.71 241.566 424.791 241.57C423.27 241.122 421.748 240.673 420.145 240.219ZM341.795 297.716L342.278 298.273C342.395 297.89 342.52 297.475 342.648 297.112C342.358 297.334 342.077 297.525 341.795 297.716ZM429.875 294.485C429.06 294.437 428.253 294.358 427.446 294.279C428.413 294.632 429.411 294.993 430.417 295.323C430.502 295.063 430.595 294.773 430.679 294.514C430.404 294.491 430.151 294.508 429.875 294.485ZM432.672 294.556C432.488 295.005 432.273 295.445 432.097 295.863C433.123 296.181 434.18 296.508 435.276 296.812C435.448 296.029 435.62 295.247 435.77 294.425C434.739 294.502 433.697 294.56 432.672 294.556ZM437.827 294.219C437.531 295.284 437.232 296.299 436.941 297.282C437.716 297.485 438.533 297.716 439.353 297.997C439.605 296.722 439.901 295.342 440.252 293.878C439.449 294.032 438.633 294.116 437.827 294.219ZM442.366 293.455C441.766 295.302 441.218 297.013 440.741 298.577C441.004 298.712 441.286 298.835 441.56 298.99C441.75 299.089 441.653 299.014 441.568 298.959C441.485 298.457 442.297 298.455 442.298 297.693C442.305 296.403 442.591 294.872 443.118 293.305C442.888 293.36 442.627 293.408 442.366 293.455ZM444.309 298.171C443.837 299.024 443.54 299.774 443.394 300.332C443.386 300.363 443.398 300.383 443.389 300.414C443.758 300.775 444.088 301.16 444.398 301.556C445.035 298.56 445.939 296.247 446.657 294.647C446.825 294.26 446.995 293.924 447.158 293.619C446.023 295.358 444.968 296.92 444.309 298.171ZM484 342.062C483.275 345.267 482.255 349.851 481.13 355.467C481.94 356.673 482.855 357.791 483.81 358.886C487.209 348.136 489.452 341.919 489.452 341.919C489.452 341.919 488.067 349.156 485.364 360.602C486.632 361.828 488.025 362.956 489.498 363.905C491.652 355.379 493.157 350.458 493.157 350.458C493.157 350.458 492.588 356.038 491.251 364.927C492.185 365.404 493.136 365.819 494.131 366.13C494.884 363.197 495.672 360.821 496.313 359.135C497.091 357.053 497.617 355.933 497.617 355.933C497.617 355.933 497.393 357.166 497.01 359.383C496.702 361.19 496.335 363.661 495.959 366.609C495.99 366.617 496.021 366.626 496.052 366.634C497.153 366.856 498.278 366.986 499.385 366.994C500.897 361.86 502.004 358.905 502.004 358.905C502.004 358.905 501.829 361.972 501.208 366.926C502.328 366.822 503.43 366.598 504.475 366.276C504.982 365.167 505.501 364.26 505.944 363.581C506.766 362.339 508.192 359.302 508.192 359.302C508.192 359.302 507.032 362.525 506.585 363.915C506.424 364.402 506.281 365.011 506.13 365.65C506.712 365.389 507.282 365.108 507.818 364.768C508.636 364.237 509.389 363.64 510.054 362.937C510.407 362.599 510.66 362.268 510.767 362.047C510.883 361.796 510.894 361.816 510.878 361.563C510.868 361.097 510.369 359.84 510.039 358.826C509.686 357.773 509.344 356.74 508.971 355.698C506.184 347.383 503.518 339.365 500.948 331.736C498.367 324.088 496.202 316.747 493.444 310.278C490.717 303.817 488.642 302.511 485.218 297.506C483.893 295.552 482.282 293.424 480.589 291.291C480.412 294.491 480.208 296.342 480.208 296.342C480.208 296.342 479.575 293.642 478.908 289.178C477.858 287.876 476.8 286.605 475.785 285.362C475.451 287.394 475.086 289.103 474.741 290.354C474.273 292.202 473.92 293.169 473.92 293.169C473.92 293.169 473.952 292.101 474.02 290.198C474.063 288.52 474.11 286.131 474.076 283.291C473.425 282.491 472.808 281.75 472.233 281.036C471.7 284.837 471.082 287.954 470.554 290.283C469.829 293.487 469.301 295.187 469.301 295.187C469.301 295.187 469.496 293.367 469.83 290.076C470.082 287.41 470.38 283.746 470.548 279.319C470.008 279.923 469.56 280.368 469.12 280.783L469.213 280.807C466.984 286.465 465.346 291.07 464.222 294.219C463.11 297.388 462.503 299.134 462.503 299.134C462.503 299.134 462.808 297.276 463.534 293.939C464.145 291.169 465.055 287.383 466.354 282.872C466.013 283.097 465.664 283.354 465.245 283.625C464.411 284.217 463.542 284.751 462.654 285.297C460.955 288.809 460.111 291.899 459.632 294.042C459.165 296.205 459.011 297.423 459.011 297.423C459.011 297.423 458.838 296.185 458.911 293.886C458.967 292.096 459.205 289.674 459.972 286.812C459.128 287.253 458.264 287.705 457.377 288.119C455.741 291.2 454.878 293.988 454.361 296.021C454.067 297.269 453.888 298.265 453.78 298.932C453.671 299.599 453.624 299.968 453.624 299.968C453.624 299.968 453.601 299.614 453.574 298.895C453.559 298.196 453.543 297.181 453.659 295.854C453.8 294.119 454.157 291.811 454.991 289.199C453.164 289.978 451.283 290.71 449.367 291.383C448.97 291.511 448.572 291.638 448.155 291.777C448.091 291.893 448.036 291.978 447.98 292.063C447.839 292.539 447.603 293.438 447.296 294.798C446.879 296.642 446.642 301.399 446.516 304.91C446.748 305.351 447.011 305.801 447.262 306.231C448.599 302.459 449.842 299.423 450.781 297.169C452.047 294.173 452.827 292.589 452.827 292.589C452.827 292.589 452.333 294.347 451.461 297.48C450.723 300.168 449.698 303.889 448.562 308.41C449.199 309.455 449.886 310.496 450.624 311.534C450.914 311.942 451.225 312.338 451.515 312.745C452.575 308.767 453.749 305.614 454.716 303.318C455.998 300.259 456.848 298.661 456.848 298.661C456.848 298.661 456.253 300.425 455.377 303.64C454.65 306.347 453.737 310.082 453.012 314.678C453.973 315.873 455.025 317.043 456.115 318.19C457.491 313.004 458.822 308.816 459.823 305.816C461.03 302.225 461.798 300.307 461.798 300.307C461.798 300.307 461.335 302.388 460.512 306.096C459.786 309.433 458.803 314.126 457.755 319.829C458.892 320.922 460.1 322.001 461.355 323.025C464.456 313.787 466.55 308.392 466.55 308.392C466.55 308.392 465.38 314.559 463.025 324.358C464.073 325.162 465.159 325.944 466.274 326.683C468.86 317.641 470.657 312.367 470.657 312.367C470.657 312.367 469.811 318.371 467.98 327.942C468.292 328.206 468.604 328.47 468.888 328.776C468.947 327.666 469.331 326.392 470.085 325.348C470.831 324.335 471.709 323.638 472.592 323.174C475.439 314.846 477.191 310.122 477.191 310.122C477.191 310.122 476.14 314.698 474.162 322.492C475.38 322.017 477.442 320.339 477.442 320.339C477.442 320.339 474.109 324.78 473.271 325.952C472.698 328.202 472.056 330.65 471.345 333.296C471.983 334.97 472.578 336.616 473.215 338.29C473.241 338.38 473.287 338.458 473.313 338.548C475 332.052 476.846 326.906 478.272 323.239C479.996 318.873 481.095 316.577 481.095 316.577C481.095 316.577 480.243 319.07 478.924 323.592C477.666 327.949 476.005 334.219 474.594 341.997C475.122 343.394 475.689 344.768 476.268 346.161C477.654 340.497 479.228 336.009 480.481 332.81C482.022 328.892 483.055 326.845 483.055 326.845C483.055 326.845 482.288 329.078 481.153 333.152C480.083 336.978 478.707 342.479 477.689 349.266C477.818 349.532 477.916 349.789 478.065 350.044C478.578 351.056 479.11 352.057 479.681 353.034C481.065 348.264 482.368 344.433 483.347 341.709C484.507 338.486 485.226 336.754 485.226 336.754C485.226 336.754 484.765 338.702 484 342.062ZM380.509 365.03C380.724 364.275 380.934 363.602 381.108 363.002C380.791 363.134 380.455 363.278 380.128 363.39C379.8 363.503 379.43 363.588 379.08 363.662C379.479 364.032 379.956 364.488 380.509 365.03ZM382.28 366.803C382.606 367.137 382.944 367.491 383.274 367.875C384.021 364.71 384.668 362.18 385.159 360.371C385.112 360.425 385.064 360.479 385.006 360.513L384.8 360.476C384.144 361.148 383.313 361.791 382.393 362.329C382.371 363.234 382.323 364.364 382.23 365.73C382.292 366.061 382.315 366.415 382.28 366.803ZM329.103 355.772L329.686 356.14C330.059 356.42 330.485 356.565 330.914 356.761C330.987 356.796 331.08 356.821 331.154 356.857C334.558 352.086 336.608 347.739 337.887 344.63C338.579 342.94 339.029 341.601 339.346 340.707C339.633 339.805 339.794 339.318 339.794 339.318C339.794 339.318 339.695 339.821 339.544 340.775C339.362 341.721 339.07 343.152 338.567 344.941C337.68 348.136 336.083 352.585 333.155 357.497C333.806 357.668 334.453 357.788 335.128 357.866C338.832 353.339 340.575 348.779 341.446 345.646C341.9 344.043 342.12 342.759 342.266 341.887C342.393 341.026 342.464 340.564 342.464 340.564C342.464 340.564 342.474 341.031 342.483 341.944C342.461 342.849 342.395 344.173 342.162 345.883C341.703 348.959 340.53 353.371 337.594 357.999C338.538 357.998 339.448 357.939 340.343 357.809L340.238 357.765C343.623 351.615 345.055 346.029 345.759 342.207C346.1 340.276 346.265 338.763 346.37 337.73C346.456 336.709 346.501 336.158 346.501 336.158C346.501 336.158 346.537 336.714 346.575 337.768C346.614 338.821 346.623 340.363 346.48 342.363C346.204 346.066 345.335 351.402 342.73 357.359C343.634 357.066 344.837 356.52 346.143 355.836C347.374 352.466 348.454 349.421 349.239 346.679C350.089 343.69 350.598 341.058 350.844 338.92C351.078 336.763 351.078 335.057 351.045 333.922C350.98 332.779 350.921 332.184 350.921 332.184C350.921 332.184 351.042 332.795 351.239 333.94C351.416 335.096 351.59 336.831 351.553 339.056C351.496 341.293 351.228 344.022 350.578 347.13C350.125 349.363 349.491 351.78 348.735 354.347C349.976 353.596 351.201 352.774 352.286 351.983C354.418 344.991 355.595 339.239 356.329 335.242C357.059 331.194 357.329 328.963 357.329 328.963C357.329 328.963 357.349 331.287 357.042 335.429C356.772 338.918 356.227 343.776 354.999 349.531C355.603 348.68 356.173 347.769 356.704 346.882C357.888 340.916 359.048 334.282 359.885 331.091C360.371 329.363 361.011 328.124 361.602 327.384C362.173 326.657 362.581 326.366 362.581 326.366C362.581 326.366 362.208 326.715 361.763 327.526C361.288 328.329 360.854 329.606 360.581 331.339C360.236 333.981 359.869 337.528 359.346 341.795C359.533 341.397 359.629 341.158 359.629 341.158C359.629 341.158 360.276 344.689 358.986 348.093C358.474 349.416 357.746 350.55 357.013 351.45C357.067 351.498 357.109 351.525 357.171 351.541C357.649 351.866 358.254 352.273 358.956 352.755C359.78 347.97 360.698 344.154 361.425 341.446C362.268 338.356 362.8 336.707 362.8 336.707C362.8 336.707 362.55 338.479 362.129 341.664C361.745 344.644 361.25 348.869 360.826 354.023C361.292 354.328 361.801 354.66 362.31 354.992C362.87 350.204 363.622 346.328 364.252 343.546C365.038 340.043 365.607 338.188 365.607 338.188C365.607 338.188 365.332 340.186 364.976 343.752C364.669 346.818 364.325 351.033 364.142 356.152C364.818 356.544 365.505 356.956 366.25 357.333C366.801 351.633 367.642 347.101 368.331 343.969C369.068 340.652 369.601 338.871 369.601 338.871C369.601 338.871 369.37 340.765 369.043 344.156C368.725 347.517 368.362 352.373 368.283 358.297C368.951 358.588 369.609 358.86 370.294 359.089C370.517 353.187 371.274 348.467 371.961 345.153C372.734 341.448 373.347 339.489 373.347 339.489C373.347 339.489 373.028 341.591 372.666 345.371C372.354 348.833 372.057 353.756 372.303 359.699C372.365 359.715 372.427 359.732 372.489 359.748C372.911 359.842 373.311 359.897 373.722 359.972C375.433 349.028 376.715 342.558 376.715 342.558C376.715 342.558 376.455 349.296 375.623 360.172C376.633 360.238 377.604 360.195 378.511 360.085C379.349 352.091 380.078 347.414 380.078 347.414C380.078 347.414 380.384 351.618 380.376 359.73C381.444 359.447 382.412 359.038 383.253 358.547C383.885 355.632 384.212 353.185 384.403 351.446C384.613 349.382 384.68 348.24 384.68 348.24C384.68 348.24 384.928 349.382 385.136 351.49C385.26 352.913 385.355 354.826 385.286 357.043C388.16 354.419 389.282 350.457 389.56 348.957C389.878 347.302 389.927 346.354 389.927 346.354C389.927 346.354 390.192 347.301 390.297 349.051C390.362 351.453 389.948 353.348 389.328 354.891C389.449 354.873 389.519 354.858 389.519 354.858C389.519 354.858 389.421 354.915 389.265 355.007C388.318 357.292 386.887 358.705 385.882 359.634C385.737 361.765 385.437 365.246 384.955 369.674C385.438 370.231 385.924 370.839 386.411 371.447C387.299 365.47 388.399 360.708 389.285 357.33C390.309 353.426 391.005 351.34 391.005 351.34C391.005 351.34 390.583 353.58 389.981 357.579C389.393 361.465 388.668 367.005 388.179 373.798C388.267 373.904 388.347 374.041 388.446 374.166L388.848 374.719L389.039 375C389.127 375.106 389.062 375.04 389.085 375.079C389.068 375.141 389.09 375.312 389.176 375.55C389.23 375.597 389.331 375.59 389.46 375.541C389.519 375.507 389.608 375.481 389.726 375.412C389.879 375.27 390.032 375.128 390.166 374.998C392.058 363.108 393.815 354.262 393.815 354.262C393.815 354.262 393.569 360.755 392.722 371.247C393.356 370.536 394.024 369.883 394.687 369.312C394.927 369.093 395.189 368.913 395.44 368.714L395.222 368.789C396.059 364.836 396.466 361.581 396.705 359.342C396.945 357.103 397.006 355.861 397.006 355.861C397.006 355.861 397.24 357.115 397.431 359.417C397.612 361.567 397.785 363.749 397.464 367.374C398.207 366.939 398.957 366.606 399.679 366.315C400.548 362.055 401.377 359.524 401.377 359.524C401.377 359.524 401.309 362.056 402.034 365.542C402.054 365.531 402.054 365.53 402.085 365.539C404.313 364.997 406.061 365.025 407.234 365.1C408.39 365.238 408.987 365.361 408.987 365.361C408.987 365.361 408.354 365.312 407.177 365.317C406.003 365.374 404.257 365.529 402.174 366.274C400.379 366.929 398.296 367.989 396.377 369.688C396.377 369.688 395.96 370.142 395.39 370.738C395.453 370.622 395.508 370.537 395.556 370.483C395.308 370.733 395.052 371.013 394.819 371.333C395.02 371.137 395.22 370.942 395.401 370.757C394.735 371.907 392.672 375.605 392.228 376.416C392.12 376.636 391.993 376.868 391.866 377.1C391.767 377.289 391.629 377.501 391.482 377.744C391.069 378.878 390.757 380.005 390.551 381.044C390.724 381.52 390.923 382.085 391.157 382.709C391.486 382.15 391.807 381.621 392.072 381.178C392.919 379.843 393.398 379.091 393.398 379.091C393.398 379.091 393.302 379.96 392.935 381.487C392.751 382.25 392.527 383.168 392.293 384.249C392.24 384.517 392.178 384.815 392.116 385.114C392.479 386.004 392.896 386.941 393.369 387.976C393.858 387.061 394.325 386.289 394.709 385.645C395.556 384.31 396.035 383.558 396.035 383.558C396.035 383.558 395.908 384.419 395.572 385.954C395.408 386.706 395.195 387.643 394.961 388.724C394.854 389.259 394.734 389.907 394.622 390.523C394.702 390.66 394.751 390.789 394.82 390.906C395.155 391.524 395.512 392.181 395.881 392.857C396.409 391.919 396.919 391.175 397.357 390.578C398.241 389.353 398.8 388.738 398.8 388.738C398.8 388.738 398.577 389.524 398.192 390.929C398.005 391.642 397.766 392.49 397.537 393.49C397.438 393.994 397.319 394.509 397.224 395.064L397.215 395.095C397.738 395.944 398.291 396.801 398.895 397.655C399.369 396.04 399.901 394.706 400.324 393.724C400.97 392.271 401.533 391.574 401.533 391.574C401.533 391.574 401.364 392.407 401.23 393.929C401.121 395.357 400.945 397.48 400.905 399.97C401.197 400.245 401.508 400.509 401.84 400.762C402.505 398.982 403.245 396.792 403.743 396.028C404.372 395.084 404.797 394.599 404.797 394.599C404.797 394.599 404.736 395.212 404.626 396.326C404.506 397.288 404.215 399.977 403.998 401.94C404.362 402.069 404.714 402.178 405.105 402.264C405.615 401.205 406.118 400.36 406.544 399.744C407.137 398.872 407.546 398.45 407.546 398.45C407.546 398.45 407.512 399.02 407.415 400.022C407.365 400.654 407.298 401.481 407.236 402.409C407.722 402.387 408.216 402.335 408.719 402.251C410.233 398.558 411.502 396.374 411.502 396.374C411.502 396.374 411.499 398.344 411.134 401.626C411.482 401.502 411.829 401.378 412.176 401.254C412.685 399.251 413.301 397.657 413.807 396.548C414.432 395.238 414.864 394.54 414.864 394.54C414.864 394.54 414.793 395.316 414.703 396.733C414.63 397.641 414.577 398.853 414.565 400.224C414.94 400.058 415.304 399.871 415.679 399.705C416.33 398.485 416.736 397.25 417.053 396.041C417.44 394.503 417.685 393.127 417.834 391.99C418.163 389.725 418.311 388.406 418.311 388.406C418.311 388.406 418.361 388.717 418.452 389.321C418.542 389.924 418.66 390.799 418.755 391.95C418.851 393.102 418.904 394.54 418.823 396.24C418.778 396.792 418.724 397.374 418.632 397.979C418.93 397.726 419.186 397.445 419.36 397.16C420.226 395.814 420.303 393.565 420.24 391.214C420.17 388.894 419.983 386.51 419.502 384.115C418.64 379.319 417.014 374.471 415.01 369.607C412.988 364.755 410.703 360.082 408.486 355.527C407.393 353.253 406.299 351.111 405.094 349.139C403.889 347.167 402.487 345.442 400.936 343.777C397.819 340.509 394.513 337.456 391.613 334.559C388.682 331.654 385.936 328.931 383.419 326.466C382.789 325.837 382.182 325.247 381.595 324.646C381.291 324.351 381.007 324.045 380.715 323.769C380.412 323.475 380.105 323.129 379.848 322.78C378.846 321.425 377.946 319.93 378.154 318.13C378.265 317.199 378.95 316.484 379.668 316.143C379.984 316.01 380.304 315.929 380.596 315.889C380.454 315.736 380.312 315.583 380.189 315.418C379.527 314.599 379.209 313.472 379.24 312.536C379.328 310.622 379.969 309.25 380.335 307.856C381.19 305.099 381.928 302.726 382.533 300.798C383.762 296.931 384.436 294.806 384.436 294.806C384.436 294.806 383.979 296.988 383.153 300.961C382.734 302.938 382.213 305.368 381.594 308.169C381.329 309.557 380.822 311.113 380.891 312.489C380.893 312.672 380.926 312.863 380.978 313.042C381.251 311.938 381.617 311.173 381.889 310.201C382.362 308.586 382.713 307.751 382.713 307.751C382.713 307.751 382.652 308.679 382.61 310.357C382.588 311.576 382.604 313.22 382.73 315.141C382.973 315.287 383.227 315.453 383.501 315.608C384.239 316.016 385.007 316.433 385.787 316.87C385.977 314.817 386.435 313.893 386.882 312.504C387.458 310.75 387.926 309.847 387.926 309.847C387.926 309.847 387.759 310.863 387.595 312.691C387.487 313.987 387.424 315.676 387.522 317.639C388.194 317.981 388.762 318.279 389.186 318.556C389.344 318.647 389.472 318.73 389.579 318.825C390.37 316.316 390.965 314.237 391.391 312.676C391.938 310.65 392.25 309.523 392.25 309.523C392.25 309.523 392.256 310.701 392.111 312.832C391.991 314.555 391.738 316.907 391.251 319.71C392.113 320.151 392.974 320.592 393.886 321.03C393.959 321.066 394.021 321.082 394.095 321.118C395.845 314.821 397.127 311.133 397.127 311.133C397.127 311.133 396.831 315.295 395.884 321.935C396.908 322.386 397.933 322.837 399.004 323.234C400.297 317.23 401.325 313.691 401.325 313.691C401.325 313.691 401.349 317.639 400.888 323.943C402.01 324.337 403.141 324.699 404.299 325.019C405.166 322.597 405.792 320.526 406.249 318.973C406.845 316.762 407.173 315.573 407.173 315.573C407.173 315.573 407.166 316.863 406.961 319.16C406.803 320.775 406.498 322.947 405.972 325.458C406.065 325.483 406.169 325.527 406.282 325.539C407.096 325.72 407.898 325.881 408.74 326.018C411.338 319.016 413.152 314.938 413.152 314.938C413.152 314.938 412.383 319.323 410.706 326.286C411.401 326.352 412.096 326.418 412.787 326.434C415.513 318.753 417.422 314.253 417.422 314.253C417.422 314.253 416.602 318.956 414.838 326.442C414.889 326.439 414.92 326.447 414.97 326.444C415.273 326.424 415.569 326.435 415.872 326.415L416.992 326.311L417.245 326.295C419.953 318.494 421.769 313.969 421.769 313.969C421.769 313.969 420.915 318.613 419.173 326.138C419.204 326.146 419.255 326.143 419.286 326.151L419.475 326.565L419.863 327.362L420.25 328.159L420.439 328.573L420.576 328.808L421.014 329.602C421.151 329.836 421.288 330.071 421.445 330.294C422.257 326.251 423.409 323.059 424.383 320.732C425.05 319.135 425.662 317.938 426.087 317.138C426.524 316.358 426.75 315.938 426.75 315.938C426.75 315.938 426.597 316.394 426.257 317.249C425.948 318.112 425.514 319.389 425.044 321.054C424.242 323.858 423.334 327.826 422.98 332.651C424.119 334.241 425.446 335.748 426.918 337.144C428.797 328.463 430.161 323.39 430.161 323.39C430.161 323.39 429.744 329.275 428.622 338.667C429.426 339.325 430.239 339.952 431.099 340.526C431.619 337.152 432.531 334.493 433.322 332.614C434.352 330.202 435.116 328.994 435.116 328.994C435.116 328.994 434.607 330.368 433.991 332.905C433.481 335.04 432.957 338.049 432.869 341.669C433.702 342.152 434.564 342.594 435.444 343.023C437.653 334.412 439.234 329.395 439.234 329.395C439.234 329.395 438.664 334.975 437.296 343.856C437.567 343.961 437.829 344.096 438.1 344.2C438.34 344.296 438.548 344.384 438.788 344.48C439.638 341.175 440.489 338.501 441.167 336.609C441.962 334.333 442.493 333.131 442.493 333.131C442.493 333.131 442.276 334.465 441.863 336.858C441.521 338.92 441.069 341.782 440.625 345.243C441.46 345.594 442.287 345.977 443.126 346.379C445.336 339.656 446.907 335.746 446.907 335.746C446.907 335.746 446.319 340.262 444.917 347.378C445.16 347.525 445.391 347.652 445.646 347.818C446.367 348.289 447.052 348.833 447.69 349.431C449.627 341.477 451.009 336.838 451.009 336.838C451.009 336.838 450.549 342.381 449.309 351.213C450.029 352.13 450.64 353.085 451.177 354.004C451.689 351.423 452.385 349.337 452.996 347.825C453.891 345.675 454.541 344.587 454.541 344.587C454.541 344.587 454.165 345.83 453.693 348.074C453.253 350.194 452.802 353.238 452.81 356.933C453.48 358.169 454.138 359.384 454.824 360.558C454.927 360.734 455.018 360.89 455.11 361.047C455.535 358.542 456.059 356.477 456.505 354.905C457.217 352.442 457.733 351.17 457.733 351.17C457.733 351.17 457.511 352.585 457.209 355.123C456.972 357.23 456.725 360.129 456.658 363.605C457.325 364.658 458.009 365.649 458.721 366.597C460.303 359.113 461.476 354.702 461.476 354.702C461.476 354.702 461.282 360.115 460.414 368.73C461.05 369.46 461.703 370.128 462.364 370.765C463.699 364.16 464.762 360.233 464.762 360.233C464.762 360.233 464.77 364.872 464.244 372.185L463.937 372.154C464.857 372.876 465.794 373.536 466.774 374.091C468.193 367.227 469.292 363.226 469.292 363.226C469.292 363.226 469.193 367.77 468.582 375.028C469.776 375.59 470.979 375.988 472.185 376.255C472.975 369.706 473.715 365.81 473.715 365.81C473.715 365.81 474.044 369.92 474.112 376.545C475.063 376.645 475.976 376.636 476.874 376.557C477.666 374.231 478.155 372.24 478.444 370.759C478.792 368.93 478.897 367.897 478.897 367.897C478.897 367.897 479.087 368.941 479.162 370.865C479.217 372.485 479.354 373.796 478.891 376.192C479.748 375.953 480.552 375.667 481.287 375.264C481.69 375.055 482.05 374.818 482.429 374.57L481.662 374.782C482.351 372.281 482.713 370.206 482.943 368.76C483.142 367.305 483.252 366.506 483.252 366.506C483.252 366.506 483.468 367.324 483.677 368.803C483.838 370.021 484.016 371.045 483.941 372.847C484.705 371.325 486.529 368.789 487.201 367.111C485.492 365.984 483.895 364.687 482.493 363.277C479.102 359.854 476.545 355.838 474.583 351.764C472.622 347.689 471.154 343.562 469.786 339.56C469.097 337.574 468.417 335.558 467.739 333.724C467.558 333.279 467.388 332.854 467.202 332.49C466.661 333.856 466.274 335.079 465.992 336.031C465.546 337.604 465.361 338.499 465.361 338.499C465.361 338.499 465.24 337.573 465.263 335.906C465.301 334.625 465.449 332.859 465.935 330.817C465.589 330.494 465.204 330.195 464.714 329.851C464.279 329.555 463.882 329.235 463.447 328.939C462.712 330.286 462.213 331.497 461.857 332.413C461.352 333.705 461.126 334.441 461.126 334.441C461.126 334.441 461.034 333.655 461.144 332.227C461.234 331.124 461.43 329.619 461.975 327.858C460.959 327.061 459.981 326.242 459.023 325.411C458.524 326.936 458.217 328.296 458.061 329.332C457.818 330.891 457.785 331.776 457.785 331.776C457.785 331.776 457.515 330.911 457.328 329.288C457.183 328.009 457.146 326.194 457.535 324.077C456.843 323.432 456.159 322.756 455.507 322.088C454.894 324.047 454.474 325.708 454.18 326.956C453.815 328.665 453.613 329.623 453.613 329.623C453.613 329.623 453.477 328.626 453.451 326.831C453.43 325.269 453.541 323.079 453.999 320.45C453.089 319.434 452.211 318.425 451.381 317.363C451.004 319.052 450.715 320.533 450.492 321.634C450.15 323.382 449.968 324.328 449.968 324.328C449.968 324.328 449.832 323.332 449.755 321.54C449.687 320.032 449.68 317.91 449.849 315.372C449.325 314.655 448.821 313.926 448.347 313.206C447.786 312.38 447.275 311.55 446.783 310.709C445.468 316.988 444.411 320.702 444.411 320.702C444.411 320.702 444.463 314.505 445.01 307.495C444.717 306.905 444.417 306.346 444.136 305.776C442.845 312.276 441.873 316.045 441.873 316.045C441.873 316.045 441.985 311.074 442.651 303.101C442.033 302.177 441.311 301.392 440.443 300.85C440.359 300.795 440.254 300.751 440.158 300.676C439.685 302.29 439.272 303.739 438.947 304.978C438.11 308.17 437.655 309.905 437.655 309.905C437.655 309.905 437.797 308.038 438.262 304.749C438.44 303.438 438.703 301.867 439.014 300.111C438.179 299.759 437.308 299.481 436.437 299.203C436.437 299.203 436.437 299.203 436.426 299.184C435.377 302.552 434.382 305.337 433.58 307.512C432.249 311.071 431.427 312.942 431.427 312.942C431.427 312.942 431.952 310.877 432.899 307.201C433.473 304.95 434.159 302.083 434.901 298.684C433.728 298.294 432.587 297.912 431.473 297.487C430.472 300.04 429.763 302.238 429.257 303.977C428.42 306.854 428.079 308.47 428.079 308.47C428.079 308.47 428.11 306.773 428.553 303.759C428.819 301.925 429.245 299.602 429.995 296.934C428.869 296.49 427.775 296.054 426.7 295.606C424.673 304.348 423.437 309.058 423.437 309.058C423.437 309.058 423.979 304.15 425.218 295.45L424.863 294.843C424.11 294.497 423.368 294.17 422.633 293.811C420.278 303.742 418.59 309.608 418.59 309.608C418.59 309.608 419.214 303.314 420.681 293.3C420.363 293.249 420.014 293.191 419.696 293.141C419.409 293.098 419.122 293.056 418.835 293.014C417.129 297.501 416.067 301.296 415.364 304.043C414.525 307.367 414.189 309.216 414.189 309.216C414.189 309.216 414.235 307.274 414.659 303.825C415.014 301.02 415.667 297.201 416.947 292.701C415.849 292.529 414.732 292.369 413.615 292.208C412.591 295.483 411.96 298.265 411.517 300.335C410.957 303.102 410.722 304.63 410.722 304.63C410.722 304.63 410.628 303.033 410.796 300.179C410.914 298.09 411.187 295.281 411.834 291.99C411.047 291.899 410.267 291.777 409.48 291.687C409.224 291.653 408.968 291.619 408.692 291.596C408.492 292.107 408.292 292.617 408.111 293.116C407.662 294.323 407.28 295.465 406.945 296.553C406.264 298.709 405.768 300.599 405.393 302.157C404.662 305.26 404.389 306.994 404.389 306.994C404.389 306.994 404.363 305.199 404.68 301.97C404.838 300.355 405.125 298.377 405.567 296.125C405.798 294.993 406.064 293.788 406.409 292.537C406.498 292.196 406.604 291.794 406.721 291.41C405.688 291.305 404.676 291.189 403.643 291.084C402.11 295.732 401.032 299.589 400.32 302.366C399.487 305.609 399.097 307.411 399.097 307.411C399.097 307.411 399.196 305.516 399.616 302.149C399.97 299.344 400.601 295.485 401.703 290.906C400.601 290.815 399.487 290.706 398.404 290.604C396.917 294.569 395.927 297.903 395.235 300.354C394.415 303.351 394.027 305.022 394.027 305.022C394.027 305.022 394.106 303.27 394.53 300.136C394.877 297.677 395.451 294.35 396.487 290.465C395.365 290.386 394.231 290.288 393.14 290.217C390.9 299.896 389.323 305.593 389.323 305.593C389.323 305.593 389.912 299.687 391.254 290.087C390.621 290.037 389.969 289.998 389.336 289.948C385.955 300.189 383.609 306.23 383.609 306.23C383.609 306.23 384.786 299.849 387.205 289.803C386.828 289.787 386.44 289.751 386.063 289.735C383.139 296.718 381.246 302.547 380.019 306.597C378.77 310.79 378.192 313.123 378.192 313.123C378.192 313.123 378.468 310.678 379.33 306.317C380.139 302.224 381.507 296.439 383.882 289.594C381.7 289.452 379.549 289.319 377.429 289.193C373.511 302.556 370.86 310.455 370.86 310.455C370.86 310.455 372.404 302.232 375.371 289.084C374.537 289.047 373.702 289.011 372.878 288.993C370.205 296.092 368.518 301.958 367.403 306.021C366.311 310.123 365.779 312.401 365.779 312.401C365.779 312.401 366.009 310.011 366.695 305.753C367.383 301.677 368.545 295.855 370.669 288.894C370.455 288.888 370.242 288.882 370.028 288.875C369.399 288.876 368.769 288.876 368.159 288.865C367.118 295.614 365.473 300.878 364.142 304.437C362.704 308.217 361.714 310.159 361.714 310.159C361.714 310.159 362.458 308.019 363.481 304.115C364.413 300.501 365.545 295.3 366.111 288.908C365.058 288.946 364.047 289.012 363.028 289.11C360.251 302.225 358.293 310.007 358.293 310.007C358.293 310.007 359.123 302.045 360.943 289.358C359.947 289.494 358.993 289.658 358.043 289.872C356.363 296.784 355.3 302.416 354.598 306.29C353.951 310.21 353.573 312.346 353.573 312.346C353.573 312.346 353.599 310.101 353.886 306.103C354.166 302.318 354.667 296.935 355.795 290.425C355.027 290.638 354.282 290.889 353.548 291.161C353.42 291.21 353.291 291.259 353.162 291.308C352.917 298.43 351.865 304.083 350.97 307.938C349.995 311.971 349.252 314.111 349.252 314.111C349.252 314.111 349.721 311.816 350.266 307.72C350.752 303.973 351.225 298.632 351.108 292.193C350.843 292.322 350.577 292.451 350.28 292.572C348.432 300.632 347.35 307.22 346.684 311.782C346.024 316.444 345.734 319.001 345.734 319.001C345.734 319.001 345.703 316.343 345.971 311.595C346.215 307.254 346.74 301.149 347.943 293.781C347.286 294.139 346.641 294.516 346.007 294.913C345.289 297.589 344.706 300.632 344.278 304.03C343.729 308.208 343.404 312.859 342.986 317.8C342.56 322.772 341.907 327.535 340.859 331.847C339.819 336.128 338.4 339.896 336.797 342.853C336.018 344.305 335.196 345.547 334.434 346.622C333.223 349.219 331.478 352.338 328.88 355.614L329.103 355.772Z" fill="#212121"/>
<path d="M124.402 365.608C129.731 362.021 135.493 357.919 141.741 353.795C148.008 349.659 154.227 346.024 160.157 343.241C166.075 340.438 171.692 338.466 176.531 337.318C181.369 336.169 185.36 335.725 188.108 335.667C189.472 335.578 190.563 335.649 191.263 335.634C191.974 335.638 192.37 335.643 192.37 335.643C192.37 335.643 191.988 335.708 191.284 335.805C190.572 335.933 189.51 336.002 188.178 336.282C185.508 336.741 181.67 337.672 177.114 339.259C172.558 340.846 167.313 343.23 161.726 346.285C156.14 349.341 150.183 353.111 143.994 357.201C137.805 361.29 131.839 365.224 126.237 368.524C120.636 371.824 115.391 374.522 110.816 376.435C106.272 378.357 102.442 379.571 99.7852 380.232C98.4599 380.614 97.4051 380.784 96.696 380.962C95.995 381.11 95.6249 381.195 95.6249 381.195C95.6249 381.195 95.9916 381.059 96.655 380.803C97.3265 380.515 98.321 380.196 99.5745 379.647C102.096 378.619 105.682 376.943 109.924 374.595C114.178 372.266 119.073 369.195 124.402 365.608Z" fill="#212121"/>
<path d="M199.456 318.863C197.169 318.81 193.857 318.935 189.822 319.483C185.807 320.02 181.094 321.069 175.99 322.661C170.874 324.234 165.38 326.37 159.683 328.834C153.97 331.36 148.515 333.787 143.583 335.988C138.589 338.172 133.999 340.015 130.098 341.377C126.178 342.75 122.95 343.692 120.702 344.245C118.454 344.798 117.212 345.052 117.212 345.052C117.212 345.052 118.387 344.549 120.511 343.648C122.623 342.728 125.638 341.333 129.315 339.499C132.992 337.665 137.3 335.383 142.111 332.886C146.942 330.378 152.265 327.634 158.079 325.101C163.904 322.589 169.704 320.616 175.084 319.36C180.483 318.094 185.47 317.514 189.67 317.473C193.871 317.432 197.215 317.812 199.518 318.25C200.666 318.419 201.537 318.697 202.122 318.801C202.711 318.955 203.029 319.005 203.029 319.005C203.029 319.005 202.703 318.986 202.113 318.964C201.491 318.933 200.622 318.838 199.456 318.863Z" fill="#212121"/>
<path d="M182.988 306.58C180.456 306.827 178.808 306.924 178.808 306.924C178.808 306.924 180.079 305.867 182.393 304.619C184.707 303.371 188.13 302 192.107 301.486C196.083 300.973 199.757 301.423 202.295 302.039C204.852 302.643 206.34 303.348 206.34 303.348C206.34 303.348 204.716 303.667 202.205 304.085C199.695 304.503 196.32 305.059 192.616 305.544C188.931 306.019 185.54 306.322 182.988 306.58Z" fill="#212121"/>
<path d="M312.16 273.318C311.635 271.657 311.282 270.289 311.087 269.327C310.892 268.365 310.797 267.844 310.797 267.844C310.797 267.844 311.111 268.29 311.669 269.066C312.208 269.853 313.003 270.989 313.977 272.387C315.927 275.183 318.627 278.905 321.595 282.995C324.562 287.085 327.282 290.796 329.337 293.504C330.37 294.868 331.205 295.981 331.783 296.745C332.372 297.529 332.674 297.956 332.674 297.956C332.674 297.956 332.199 297.682 331.357 297.23C330.504 296.757 329.328 296.002 327.91 294.968C325.097 292.938 321.424 289.707 318.3 285.393C315.156 281.091 313.218 276.609 312.16 273.318Z" fill="#212121"/>
<path d="M326.065 281.174C327.652 282.634 329.687 284.724 331.57 287.271C332.495 288.541 333.343 289.856 334.006 290.99C334.669 292.124 335.279 293.079 335.888 293.852C336.485 294.604 337.109 295.132 337.595 295.425C337.838 295.572 338.039 295.691 338.185 295.762C338.332 295.834 338.406 295.87 338.406 295.87C338.406 295.87 338.316 295.896 338.156 295.937C337.996 295.978 337.755 296.014 337.432 296.045C336.775 296.088 335.794 295.98 334.665 295.485C333.567 294.998 332.396 294.161 331.324 293.135C330.251 292.109 329.254 290.986 328.294 289.658C326.366 287.033 325.123 284.322 324.381 282.29C323.628 280.237 323.375 278.863 323.375 278.863C323.375 278.863 324.477 279.715 326.065 281.174Z" fill="#212121"/>
<path d="M382.242 290.019C378.128 304.257 375.35 312.702 375.35 312.702C375.35 312.702 377.004 303.681 380.177 289.494L382.242 290.019Z" fill="#212121"/>
<path d="M353.855 284.184C359.257 282.338 365.911 280.705 373.468 279.988C381.002 279.231 389.472 279.581 398.032 281.164C406.619 282.704 414.591 284.761 421.948 285.945C429.276 287.171 436.014 287.431 441.608 286.812C447.194 286.223 451.596 284.778 454.467 283.494C455.896 282.842 457.006 282.272 457.718 281.83C458.442 281.407 458.813 281.19 458.813 281.19C458.813 281.19 458.453 281.426 457.764 281.908C457.075 282.39 456.03 283.026 454.619 283.799C451.812 285.282 447.429 287.03 441.739 287.89C436.072 288.788 429.16 288.813 421.67 287.76C414.164 286.768 406.109 284.838 397.634 283.311C389.167 281.753 381.014 281.271 373.587 281.807C366.157 282.293 359.565 283.628 354.135 285.201C348.713 286.743 344.462 288.493 341.572 289.789C340.111 290.432 339.021 290.991 338.263 291.355C337.505 291.719 337.122 291.917 337.122 291.917C337.122 291.917 337.494 291.7 338.218 291.277C338.941 290.854 339.986 290.217 341.42 289.484C344.288 288.017 348.441 286.01 353.855 284.184Z" fill="#212121"/>
<path d="M311.716 309.376C306.488 312.012 300.051 314.961 292.464 316.929C284.889 318.916 276.124 319.632 267.119 318.545C258.126 317.478 249.806 314.916 242.666 311.769C235.527 308.621 229.492 304.985 224.635 301.658C219.798 298.32 216.091 295.344 213.597 293.233C211.104 291.122 209.755 289.89 209.755 289.89C209.755 289.89 211.168 291.006 213.803 292.956C216.438 294.905 220.283 297.669 225.225 300.737C230.186 303.793 236.274 307.161 243.377 310.067C250.461 312.985 258.605 315.336 267.362 316.357C276.11 317.409 284.582 316.865 292.011 315.121C299.451 313.396 305.908 310.751 311.234 308.372C316.538 305.954 320.751 303.78 323.659 302.291C326.566 300.801 328.176 299.965 328.176 299.965C328.176 299.965 326.623 300.899 323.83 302.584C321.037 304.269 316.941 306.689 311.716 309.376Z" fill="#212121"/>
</g>
</svg>
