<svg width="27" height="27" viewBox="0 0 27 27" fill="none" xmlns="http://www.w3.org/2000/svg">
<g clip-path="url(#clip0)">
<path d="M24.7275 11.3169C24.1251 11.3169 23.6369 11.8052 23.6369 12.4075V13.506C23.6352 16.3715 22.5178 19.0649 20.4904 21.0899C18.4645 23.1134 15.7724 24.2276 12.9093 24.2276C12.9072 24.2276 12.9051 24.2276 12.9029 24.2276C6.98762 24.2242 2.17793 19.4091 2.18131 13.4937C2.18294 10.6283 3.30038 7.93493 5.32781 5.90982C7.3537 3.8863 10.0458 2.77213 12.909 2.77213C12.9111 2.77213 12.9132 2.77213 12.9153 2.77213C14.4273 2.77297 15.8942 3.08547 17.2754 3.70083C17.8257 3.94604 18.4703 3.69867 18.7155 3.14849C18.9606 2.59831 18.7134 1.95358 18.1631 1.70837C16.5012 0.967818 14.736 0.591822 12.9165 0.59082C12.9138 0.59082 12.9116 0.59082 12.9089 0.59082C9.46382 0.59082 6.22392 1.93175 3.78622 4.3666C1.34663 6.80335 0.00200603 10.0444 2.12651e-06 13.4925C-0.00194905 16.9406 1.33887 20.1832 3.77573 22.6228C6.21259 25.0624 9.45354 26.407 12.9017 26.409C12.9044 26.409 12.9065 26.409 12.9093 26.409C16.3544 26.409 19.5942 25.0681 22.0319 22.6332C24.4715 20.1964 25.8162 16.9554 25.8182 13.5067V12.4076C25.8182 11.8052 25.3299 11.3169 24.7275 11.3169Z" fill="white"/>
<path d="M26.6806 2.09871C26.2546 1.67283 25.5641 1.67283 25.1381 2.09871L12.9091 14.3277L10.1348 11.5534C9.70889 11.1275 9.01828 11.1275 8.5924 11.5534C8.16647 11.9793 8.16647 12.6699 8.5924 13.0958L12.1379 16.6414C12.3509 16.8544 12.6301 16.9608 12.9092 16.9608C13.1883 16.9608 13.4674 16.8544 13.6804 16.6414L26.6806 3.64114C27.1065 3.2152 27.1065 2.52464 26.6806 2.09871Z" fill="white"/>
</g>
<defs>
<clipPath id="clip0">
<rect width="27" height="27" fill="white"/>
</clipPath>
</defs>
</svg>
