<svg width="16" height="16" viewBox="0 0 16 16" fill="none" xmlns="http://www.w3.org/2000/svg">
<g clip-path="url(#clip0_811_2621)">
<path d="M2.16453 4.32906C3.35997 4.32906 4.32906 3.35997 4.32906 2.16453C4.32906 0.969094 3.35997 0 2.16453 0C0.969094 0 0 0.969094 0 2.16453C0 3.35997 0.969094 4.32906 2.16453 4.32906Z" fill="#F7D033"/>
<path d="M7.99949 4.32906C9.19493 4.32906 10.164 3.35997 10.164 2.16453C10.164 0.969094 9.19493 0 7.99949 0C6.80406 0 5.83496 0.969094 5.83496 2.16453C5.83496 3.35997 6.80406 4.32906 7.99949 4.32906Z" fill="#F7D033"/>
<path d="M13.8359 4.32906C15.0314 4.32906 16.0005 3.35997 16.0005 2.16453C16.0005 0.969094 15.0314 0 13.8359 0C12.6405 0 11.6714 0.969094 11.6714 2.16453C11.6714 3.35997 12.6405 4.32906 13.8359 4.32906Z" fill="#F7D033"/>
<path d="M7.99949 10.1645C9.19493 10.1645 10.164 9.19542 10.164 7.99998C10.164 6.80454 9.19493 5.83545 7.99949 5.83545C6.80406 5.83545 5.83496 6.80454 5.83496 7.99998C5.83496 9.19542 6.80406 10.1645 7.99949 10.1645Z" fill="#F7D033"/>
<path d="M13.8359 10.1645C15.0314 10.1645 16.0005 9.19542 16.0005 7.99998C16.0005 6.80454 15.0314 5.83545 13.8359 5.83545C12.6405 5.83545 11.6714 6.80454 11.6714 7.99998C11.6714 9.19542 12.6405 10.1645 13.8359 10.1645Z" fill="#F7D033"/>
<path d="M13.8359 16C15.0314 16 16.0005 15.0309 16.0005 13.8354C16.0005 12.64 15.0314 11.6709 13.8359 11.6709C12.6405 11.6709 11.6714 12.64 11.6714 13.8354C11.6714 15.0309 12.6405 16 13.8359 16Z" fill="#F7D033"/>
</g>
<defs>
<clipPath id="clip0_811_2621">
<rect width="16" height="16" fill="white"/>
</clipPath>
</defs>
</svg>
