<svg width="95" height="33" fill="none" xmlns="http://www.w3.org/2000/svg"><path d="M1.659 0L0 2.732v28.197h45.864L47.926 33l2.286-2.07h43.174L95 28.33V0H1.659zm46.805 28.814l-.493-.484-1.076-1.146H3.138V1.454H93.52v25.73H49.989l-1.524 1.63z" fill="#FEDD00"/><path d="M14.296 7.843a2.544 2.544 0 0 0-.743-.609 2.003 2.003 0 0 0-.9-.234h-2.307c-.313 0-.625.094-.9.234-.273.14-.507.328-.742.609a3.078 3.078 0 0 0-.508.89A3.248 3.248 0 0 0 8 9.808v8.382c0 .374.078.749.196 1.077.117.327.273.608.508.89.195.233.47.467.743.608.274.14.587.234.9.234h2.307c.313 0 .625-.094.9-.234.273-.14.508-.328.742-.609a3.08 3.08 0 0 0 .509-.89A3.25 3.25 0 0 0 15 18.19v-1.405h-2.346v1.405h-2.308V9.809h2.308v1.405H15V9.809a3.26 3.26 0 0 0-.195-1.077c-.118-.327-.274-.655-.509-.89zm10.899 0a2.862 2.862 0 0 0-.849-.609A2.55 2.55 0 0 0 23.318 7h-2.636a2.55 2.55 0 0 0-1.028.234c-.313.14-.581.328-.85.609a3.006 3.006 0 0 0-.58.89A2.89 2.89 0 0 0 18 9.808v8.382c0 .374.09.749.224 1.077a2.862 2.862 0 0 0 1.43 1.498c.313.14.67.234 1.028.234h2.636a2.55 2.55 0 0 0 1.028-.234 2.62 2.62 0 0 0 .85-.609 3.01 3.01 0 0 0 .58-.89A2.89 2.89 0 0 0 26 18.192V9.809c0-.374-.09-.749-.224-1.077-.134-.327-.312-.655-.58-.89zm-1.877 10.3h-2.636V9.81h2.636v8.335zM34.5 15.644L31.958 7H29v14h2.773v-4.933L33.206 21h2.588l1.48-4.933V21H40V7h-2.958L34.5 15.644zm14.691-7.796a2.878 2.878 0 0 0-.854-.612A2.562 2.562 0 0 0 47.303 7H42v14h2.652v-4.195h2.651c.36 0 .72-.095 1.034-.236.315-.141.584-.33.854-.613a2.913 2.913 0 0 0 .809-1.98V9.781c0-.377-.09-.754-.225-1.084-.135-.283-.314-.613-.584-.849zm-1.888 6.176h-2.651V9.828h2.651v4.196zM54.79 7H52v14h7v-2.819h-4.21V7zM62 21h6v-2.819h-3.584V15.41h2.98v-2.818h-2.98V9.819H68V7h-6v14zm9-11.181h2.682V21h2.636V9.819H79V7h-8v2.819zm18.776-1.087c-.133-.327-.357-.608-.58-.89a2.862 2.862 0 0 0-.85-.608A2.55 2.55 0 0 0 87.318 7h-2.636a2.55 2.55 0 0 0-1.028.234c-.313.14-.581.328-.85.609a3.006 3.006 0 0 0-.58.89A2.89 2.89 0 0 0 82 9.808v8.382c0 .374.09.749.224 1.077a2.862 2.862 0 0 0 1.43 1.498c.313.14.67.234 1.028.234h2.636a2.55 2.55 0 0 0 1.028-.234 2.62 2.62 0 0 0 .85-.609 2.99 2.99 0 0 0 .58-.89A2.89 2.89 0 0 0 90 18.192V9.809c0-.374-.09-.749-.224-1.077zm-2.458 9.412h-2.636V9.809h2.636v8.335z" fill="#000"/></svg>