<svg width="82" height="82" viewBox="0 0 82 82" fill="none" xmlns="http://www.w3.org/2000/svg">
<g clip-path="url(#clip0)">
<path d="M80.7701 32.8068L71.0667 31.8432C70.4761 29.9007 69.698 28.0202 68.7431 26.2278L74.9178 18.6784C75.3629 18.1352 75.3235 17.3438 74.8277 16.8473L65.1602 7.1765C64.6631 6.67935 63.871 6.63998 63.3271 7.08508L55.7791 13.2571C53.9867 12.3028 52.1062 11.5247 50.1636 10.9335L49.1933 1.23003C49.1233 0.53202 48.5354 0.000168181 47.8333 0.000168181H34.1667C33.462 -0.0031684 32.8707 0.529351 32.8 1.23003L31.8431 10.9335C29.8985 11.5247 28.0153 12.3028 26.2209 13.2571L18.6729 7.08508C18.129 6.63998 17.3369 6.67935 16.8398 7.1765L7.17633 16.8399C6.68052 17.3371 6.64181 18.1285 7.08625 18.6717L13.2569 26.2211C12.302 28.0155 11.5239 29.8987 10.9333 31.8432L1.22987 32.8142C0.534521 32.8836 0.00333658 33.4675 0 34.1668V47.8335C0 48.5355 0.531852 49.1234 1.22987 49.1935L10.9333 50.1638C11.5232 52.1063 12.3013 53.9875 13.2569 55.7793L7.08625 63.3286C6.64181 63.8718 6.68052 64.6633 7.17633 65.1604L16.8398 74.8238C17.3369 75.321 18.129 75.3604 18.6729 74.9153L25.4708 69.3532L23.7405 67.2404L17.9035 72.0238L9.98507 64.0967L15.9629 56.7896C16.3213 56.3512 16.3726 55.7365 16.091 55.2447C14.8805 53.136 13.9449 50.8811 13.307 48.5349C13.1595 47.9877 12.689 47.5886 12.1252 47.5312L2.73333 46.6036V35.4107L12.1252 34.4718C12.689 34.4144 13.1595 34.0154 13.307 33.4682C13.9456 31.1225 14.8812 28.867 16.091 26.7583C16.3726 26.2665 16.3213 25.6525 15.9629 25.2141L9.98507 17.9036L17.9035 9.98391L25.2106 15.9644C25.6497 16.3221 26.2643 16.3721 26.7554 16.0899C28.8655 14.8814 31.121 13.9458 33.4667 13.3058C34.0139 13.1577 34.4122 12.6872 34.469 12.124L35.4032 2.7335H46.6035L47.5424 12.124C47.5991 12.6872 47.9975 13.1577 48.544 13.3058C50.8903 13.9458 53.1452 14.8814 55.2559 16.0899C55.7471 16.3721 56.361 16.3221 56.8001 15.9644L64.0965 9.98391L72.0149 17.9036L66.0371 25.2068C65.6787 25.6452 65.6274 26.2598 65.909 26.7516C67.1188 28.8603 68.0544 31.1152 68.693 33.4615C68.8405 34.0087 69.311 34.4077 69.8748 34.4645L79.2667 35.4034V46.6036L69.8748 47.5426C69.311 47.5993 68.8405 47.9983 68.693 48.5455C68.0551 50.8918 67.1195 53.1467 65.909 55.2561C65.6274 55.7472 65.6787 56.3618 66.0371 56.8003L72.0149 64.0967L64.0965 72.0238L58.2488 67.2404L56.5171 69.3572L63.3231 74.9253C63.867 75.3704 64.6591 75.3303 65.1556 74.8332L74.8197 65.1698C75.3155 64.6733 75.3542 63.8812 74.9098 63.3386L68.7431 55.7793C69.6987 53.9875 70.4768 52.1063 71.0667 50.1638L80.7701 49.1935C81.4681 49.1234 82 48.5355 82 47.8335V34.1668C82 33.4648 81.4681 32.8769 80.7701 32.8068Z" fill="black"/>
<path d="M39.6333 13.6669H42.3667V16.4002H39.6333V13.6669Z" fill="black"/>
<path d="M20.7062 22.6383L22.6394 20.7064L24.5713 22.6397L22.6381 24.5722L20.7062 22.6383Z" fill="black"/>
<path d="M13.6667 39.6336H16.4V42.3669H13.6667V39.6336Z" fill="black"/>
<path d="M20.7068 59.3622L22.6387 57.4289L24.572 59.3608L22.6401 61.2947L20.7068 59.3622Z" fill="black"/>
<path d="M57.428 59.3615L59.3613 57.4289L61.2938 59.3628L59.3599 61.2947L57.428 59.3615Z" fill="black"/>
<path d="M65.6 39.6336H68.3333V42.3669H65.6V39.6336Z" fill="black"/>
<path d="M57.4287 22.6403L59.3606 20.7064L61.2945 22.639L59.3619 24.5722L57.4287 22.6403Z" fill="black"/>
<path d="M62.8667 41.0003C62.8633 35.0232 60.4136 29.3076 56.0881 25.1829C51.7625 21.0576 45.9375 18.8821 39.967 19.1624C30.2722 19.6148 22.0375 26.4054 19.7473 35.8366C17.4564 45.2672 21.6598 55.0787 30.0667 59.9275V63.1186C28.4291 63.6891 27.332 65.2333 27.332 66.967C27.332 68.7007 28.4291 70.2449 30.0667 70.8154V72.4337C30.0727 77.7148 34.3522 81.9943 39.6333 82.0003H42.3667C47.6478 81.9943 51.9273 77.7148 51.9333 72.4337V70.8154C53.5709 70.2449 54.668 68.7007 54.668 66.967C54.668 65.2333 53.5709 63.6891 51.9333 63.1186V59.9288C58.7039 56.0323 62.874 48.8126 62.8667 41.0003ZM21.8787 40.2076C22.3358 30.3273 30.2142 22.4049 40.0925 21.8944C49.0472 21.4626 57.1004 27.309 59.4633 35.9574C61.8257 44.6059 57.8631 53.7348 49.9327 57.9155C49.4836 58.1511 49.2013 58.6155 49.2 59.1227V62.867H32.8V59.1227C32.8 58.6155 32.5197 58.1511 32.0713 57.9142C25.5656 54.4488 21.6084 47.5741 21.8787 40.2076ZM42.3667 79.267H39.6333C35.861 79.2623 32.8047 76.206 32.8 72.4337V71.067H49.2V72.4337C49.1953 76.206 46.139 79.2623 42.3667 79.267ZM50.5667 68.3337H31.4333C30.6786 68.3337 30.0667 67.7217 30.0667 66.967C30.0667 66.2123 30.6786 65.6003 31.4333 65.6003H50.5667C51.3214 65.6003 51.9333 66.2123 51.9333 66.967C51.9333 67.7217 51.3214 68.3337 50.5667 68.3337Z" fill="black"/>
<path d="M35.7522 46.1212L41 41.462L46.2451 46.1226C46.763 46.583 47.5437 46.583 48.0616 46.1226L54.2116 40.6559L52.3964 38.6059L47.15 43.2718L41.9035 38.6112C41.3857 38.1515 40.6063 38.1515 40.0884 38.6112L34.85 43.2718L29.6142 38.6126L27.7964 40.6546L33.9464 46.1212C34.463 46.575 35.2357 46.575 35.7522 46.1212Z" fill="black"/>
</g>
<defs>
<clipPath id="clip0">
<rect width="82" height="82" fill="white" transform="translate(0 0.000244141)"/>
</clipPath>
</defs>
</svg>
