<svg width="82" height="82" viewBox="0 0 82 82" fill="none" xmlns="http://www.w3.org/2000/svg">
<path d="M11.5313 13.5632L9.8746 11.9065L8.06291 13.7182L10.6254 16.2807C10.8753 16.5305 11.2033 16.6561 11.5313 16.6561C11.8593 16.6561 12.1873 16.5305 12.4371 16.2807L18.8433 9.87443L17.0317 8.06274L11.5313 13.5632Z" fill="black"/>
<path d="M37.1562 13.5632L35.4996 11.9065L33.6879 13.7182L36.2504 16.2807C36.5002 16.5305 36.8282 16.6561 37.1562 16.6561C37.4842 16.6561 37.8123 16.5305 38.0621 16.2807L44.4683 9.87443L42.6567 8.06274L37.1562 13.5632Z" fill="black"/>
<path d="M62.7812 13.5632L61.1246 11.9065L59.3129 13.7182L61.8754 16.2807C62.1252 16.5305 62.4532 16.6561 62.7812 16.6561C63.1092 16.6561 63.4373 16.5305 63.6871 16.2807L70.0933 9.87443L68.2817 8.06274L62.7812 13.5632Z" fill="black"/>
<path d="M16.6563 73.0315C16.9843 73.0315 17.3123 72.9059 17.5621 72.6561L23.9683 66.2498L22.1567 64.4381L16.6563 69.9385L14.9996 68.2819L13.1879 70.0936L15.7504 72.6561C16.0003 72.9059 16.3283 73.0315 16.6563 73.0315Z" fill="black"/>
<path d="M42.2812 73.0315C42.6092 73.0315 42.9373 72.9059 43.1871 72.6561L49.5933 66.2498L47.7817 64.4381L42.2812 69.9385L40.6246 68.2819L38.8129 70.0936L41.3754 72.6561C41.6252 72.9059 41.9532 73.0315 42.2812 73.0315Z" fill="black"/>
<path d="M67.9062 73.0315C68.2342 73.0315 68.5623 72.9059 68.8121 72.6561L75.2183 66.2498L73.4067 64.4381L67.9062 69.9385L66.2496 68.2819L64.4379 70.0936L67.0004 72.6561C67.2502 72.9059 67.5782 73.0315 67.9062 73.0315Z" fill="black"/>
<path d="M79.4375 35.875V17.9375C79.4375 14.8202 77.1966 12.2218 74.242 11.6542C73.6642 6.54591 69.322 2.5625 64.0625 2.5625C58.8452 2.5625 54.5351 6.48312 53.9009 11.5312H48.5978C47.9649 6.48312 43.6548 2.5625 38.4375 2.5625C33.2202 2.5625 28.9101 6.48312 28.2759 11.5312H22.9728C22.3399 6.48312 18.0297 2.5625 12.8125 2.5625C7.16091 2.5625 2.5625 7.16091 2.5625 12.8125C2.5625 18.4641 7.16091 23.0625 12.8125 23.0625C18.0297 23.0625 22.3399 19.1419 22.9741 14.0938H28.2772C28.9114 19.1419 33.2215 23.0625 38.4388 23.0625C43.656 23.0625 47.9662 19.1419 48.6004 14.0938H53.9035C54.5377 19.1419 58.8478 23.0625 64.0651 23.0625C69.2131 23.0625 73.4746 19.2431 74.1959 14.2923C75.7424 14.7882 76.875 16.2257 76.875 17.9375V35.875C76.875 37.9942 75.1504 39.7188 73.0312 39.7188H51.7804L54.7183 36.7808L52.9067 34.9692L48.1571 39.7188H41.5304L44.4683 36.7808L42.6567 34.9692L37.9071 39.7188H31.2804L34.2183 36.7808L32.4067 34.9692L27.6571 39.7188H8.96875C5.43634 39.7188 2.5625 42.5926 2.5625 46.125V64.0625C2.5625 67.1798 4.80341 69.7782 7.75797 70.3457C8.33581 75.4541 12.678 79.4375 17.9375 79.4375C23.1548 79.4375 27.4649 75.5169 28.0991 70.4688H33.4022C34.0364 75.5169 38.3465 79.4375 43.5638 79.4375C48.781 79.4375 53.0912 75.5169 53.7254 70.4688H59.0285C59.6627 75.5169 63.9728 79.4375 69.1901 79.4375C74.8417 79.4375 79.4401 74.8391 79.4401 69.1875C79.4401 63.5359 74.8417 58.9375 69.1901 58.9375C63.9728 58.9375 59.6627 62.8581 59.0285 67.9062H53.7254C53.0912 62.8581 48.781 58.9375 43.5638 58.9375C38.3465 58.9375 34.0364 62.8581 33.4022 67.9062H28.0991C27.4649 62.8581 23.1548 58.9375 17.9375 58.9375C12.7894 58.9375 8.528 62.7569 7.80666 67.7077C6.25762 67.2118 5.125 65.7743 5.125 64.0625V46.125C5.125 44.0058 6.84956 42.2812 8.96875 42.2812H27.6571L32.4067 47.0308L34.2183 45.2192L31.2804 42.2812H37.9071L42.6567 47.0308L44.4683 45.2192L41.5304 42.2812H48.1571L52.9067 47.0308L54.7183 45.2192L51.7804 42.2812H73.0312C76.5637 42.2812 79.4375 39.4074 79.4375 35.875ZM12.8125 20.5C8.57284 20.5 5.125 17.0522 5.125 12.8125C5.125 8.57284 8.57284 5.125 12.8125 5.125C17.0522 5.125 20.5 8.57284 20.5 12.8125C20.5 17.0522 17.0522 20.5 12.8125 20.5ZM38.4375 20.5C34.1978 20.5 30.75 17.0522 30.75 12.8125C30.75 8.57284 34.1978 5.125 38.4375 5.125C42.6772 5.125 46.125 8.57284 46.125 12.8125C46.125 17.0522 42.6772 20.5 38.4375 20.5ZM64.0625 20.5C59.8228 20.5 56.375 17.0522 56.375 12.8125C56.375 8.57284 59.8228 5.125 64.0625 5.125C68.3022 5.125 71.75 8.57284 71.75 12.8125C71.75 17.0522 68.3022 20.5 64.0625 20.5ZM69.1875 61.5C73.4272 61.5 76.875 64.9478 76.875 69.1875C76.875 73.4272 73.4272 76.875 69.1875 76.875C64.9478 76.875 61.5 73.4272 61.5 69.1875C61.5 64.9478 64.9478 61.5 69.1875 61.5ZM43.5625 61.5C47.8022 61.5 51.25 64.9478 51.25 69.1875C51.25 73.4272 47.8022 76.875 43.5625 76.875C39.3228 76.875 35.875 73.4272 35.875 69.1875C35.875 64.9478 39.3228 61.5 43.5625 61.5ZM17.9375 61.5C22.1772 61.5 25.625 64.9478 25.625 69.1875C25.625 73.4272 22.1772 76.875 17.9375 76.875C13.6978 76.875 10.25 73.4272 10.25 69.1875C10.25 64.9478 13.6978 61.5 17.9375 61.5Z" fill="black"/>
</svg>
