<svg width="82" height="82" viewBox="0 0 82 82" fill="none" xmlns="http://www.w3.org/2000/svg">
<path d="M47.9439 13.7424C47.4461 14.2407 47.4461 15.0476 47.9439 15.5445C48.4412 16.0428 49.2492 16.0428 49.746 15.5445C50.2443 15.0476 50.2443 14.2407 49.746 13.7424C49.2492 13.2455 48.4412 13.2455 47.9439 13.7424Z" fill="black"/>
<path d="M14.6023 14.6434C14.1039 15.1417 14.1039 15.9486 14.6023 16.4455C15.0996 16.9438 15.9075 16.9438 16.4044 16.4455C16.9027 15.9486 16.9027 15.1417 16.4044 14.6434C15.9075 14.1465 15.0996 14.1465 14.6023 14.6434Z" fill="black"/>
<path d="M79.6089 20.2624L66.1858 6.83927C64.3312 4.98471 61.3297 4.98409 59.4745 6.83927L52.0519 14.2618C48.3051 12.9251 44.0917 13.71 41.0704 16.3321C37.1858 14.4627 32.6566 14.4571 28.7689 16.3172L21.5255 9.05412C19.671 7.19955 16.6694 7.19894 14.8142 9.05412L1.39108 22.4773C-0.46534 24.3343 -0.461632 27.3358 1.38984 29.1873C1.56102 29.3591 8.94527 36.7631 9.17825 36.9967C8.83157 39.4409 9.64792 41.9449 11.4141 43.7111L9.17764 45.9482C6.70633 48.4189 6.70509 52.4252 9.17825 54.8984C10.4575 56.1764 12.2138 56.8475 14.0504 56.7332C13.9349 58.5791 14.6054 60.3237 15.8895 61.6078C17.1422 62.8617 18.8731 63.5656 20.7623 63.4488C20.6474 65.3095 21.329 67.0473 22.6008 68.3209C23.8677 69.5878 25.6036 70.2762 27.473 70.1613C27.3586 72.0227 28.0409 73.761 29.3139 75.0341C31.7809 77.4992 35.7953 77.4992 38.2635 75.0328L40.5 72.7957L42.7371 75.0341C45.2047 77.4992 49.2185 77.4986 51.6861 75.0335C53.0197 73.6999 53.6309 71.9139 53.5233 70.1644C55.5417 70.2973 57.4549 69.4617 58.7502 67.9384C59.8175 66.6852 60.2748 65.0592 60.1469 63.442C62.0379 63.5854 63.8139 62.905 65.1092 61.6091C66.3915 60.3274 67.0645 58.5828 66.9496 56.7326C68.7862 56.8469 70.5438 56.1745 71.8224 54.8972C74.2875 52.4296 74.2875 48.4152 71.8217 45.9476L70.6229 44.7493C72.834 41.7904 73.4322 37.8903 72.1864 34.3963L79.6083 26.9737C81.4635 25.1185 81.4641 22.1176 79.6089 20.2624ZM11.4153 52.6607C10.1806 51.4254 10.1794 49.4212 11.4153 48.1853C13.8168 45.7832 15.7245 43.8755 18.1272 41.4728C19.3607 40.2399 21.3673 40.2393 22.6008 41.4728C23.8275 42.6995 23.8479 44.7017 22.6027 45.9463C22.602 45.947 22.602 45.947 22.6014 45.9476L22.6008 45.9482L15.8908 52.6601C14.6567 53.893 12.6488 53.893 11.4153 52.6607ZM18.1279 59.3714C16.8907 58.1342 16.89 56.1362 18.1272 54.8984C18.1272 54.8978 18.1272 54.8978 18.1279 54.8978L24.8379 48.1859C26.072 46.953 28.0798 46.953 29.3139 48.1853C30.5536 49.4249 30.5487 51.426 29.3139 52.6601L22.6008 59.372C21.3655 60.6086 19.3644 60.6086 18.1279 59.3714ZM24.8391 66.0845C23.6019 64.8448 23.605 62.8456 24.8379 61.6091C24.8385 61.6091 24.8385 61.6091 24.8385 61.6084L31.551 54.8978L31.5516 54.8972C32.7857 53.6637 34.7929 53.6643 36.0252 54.8966C37.2624 56.1356 37.2605 58.1342 36.0264 59.3707C36.0264 59.3707 36.0264 59.3707 36.0258 59.3714C36.0258 59.3714 36.0258 59.3714 36.0252 59.372L29.3133 66.0839C28.0755 67.3217 26.0745 67.3192 24.8391 66.0845ZM36.0264 72.7957C34.7923 74.0286 32.7845 74.0286 31.551 72.7964C30.3144 71.5598 30.3132 69.5594 31.5504 68.3216L31.551 68.3209L38.2617 61.6097C38.2623 61.6097 38.2629 61.6091 38.2635 61.6084C39.4989 60.3731 41.5011 60.3725 42.7371 61.6084C43.9737 62.845 43.9743 64.846 42.7371 66.0839C40.4722 68.3494 38.5194 70.3022 36.0264 72.7957ZM49.4496 72.7957C48.2155 74.0286 46.2077 74.0286 44.9748 72.7964L42.7377 70.558L44.9742 68.3209C45.7726 67.5225 46.33 66.548 46.6131 65.485L49.449 68.3209C50.6831 69.5551 50.6831 71.5623 49.4496 72.7957ZM69.5859 52.6601C68.3512 53.893 66.3433 53.893 65.1105 52.6607L58.3992 45.9482C57.7818 45.3302 56.7801 45.3308 56.1621 45.9476C55.5441 46.5656 55.5441 47.5673 56.1615 48.1853L62.8734 54.8984C64.1069 56.1307 64.1131 58.1317 62.8721 59.372C61.6405 60.6042 59.6413 60.6141 58.3936 59.3658L58.2416 59.215L51.6867 52.6607C51.0687 52.0427 50.067 52.0427 49.449 52.6607C48.831 53.2781 48.831 54.2798 49.449 54.8978L55.9946 61.4428C57.2121 62.7363 57.3653 64.6847 56.3407 65.888C55.4842 66.8953 54.1271 67.2673 52.8819 66.8359C51.6997 66.4256 51.8437 66.1036 44.9742 59.3714C43.7234 58.1206 41.9937 57.4154 40.102 57.5322C40.2163 55.6721 39.5347 53.9344 38.2629 52.6607C36.9287 51.3259 35.1409 50.7147 33.3907 50.8241C33.5057 48.9775 32.8358 47.233 31.5504 45.9476C30.2156 44.614 28.4284 44.0034 26.6782 44.1128C26.7932 42.2663 26.1233 40.5205 24.8385 39.2357C22.3715 36.7687 18.3571 36.7687 15.8901 39.2357L13.6518 41.474C12.4573 40.2795 11.987 38.5219 12.4245 36.8867C12.5697 36.3423 12.4146 35.7608 12.016 35.3609L8.06589 31.4003L15.8908 23.5754C16.5081 22.9581 16.5081 21.9563 15.8908 21.3383C15.2728 20.7204 14.271 20.7204 13.6537 21.3383L5.83189 29.1601L3.62878 26.9515C3.01019 26.3329 3.01019 25.333 3.62878 24.7144L17.0519 11.2912C17.6736 10.6695 18.6741 10.6769 19.2872 11.29L27.3568 19.3818C27.8666 19.8929 28.6595 19.9942 29.2818 19.6265C32.1393 17.9382 35.5679 17.6422 38.6269 18.7354L30.4319 26.9311C27.9667 29.398 27.9667 33.4124 30.4325 35.8807C32.9001 38.3458 36.9139 38.3458 39.3821 35.88L42.7377 32.5244C45.8282 29.4327 50.8314 29.4314 53.9232 32.525L69.5847 48.1847C70.8175 49.4188 70.8175 51.4272 69.5859 52.6601ZM77.3718 24.7366L74.0588 28.049L66.2284 20.2198C65.6104 19.6018 64.6087 19.6024 63.9907 20.2198C63.3733 20.8378 63.3733 21.8395 63.9907 22.4575L71.8217 30.2867L69.2021 32.9057C68.7281 33.3803 68.6045 34.1021 68.8938 34.7071C70.1044 37.2396 69.8609 40.1948 68.353 42.4788L56.1609 30.2879C51.8338 25.959 44.8277 25.9577 40.5 30.2879L37.145 33.643C35.9109 34.8758 33.9024 34.8758 32.6696 33.6436C31.4367 32.4095 31.4367 30.4016 32.6696 29.1682C34.8226 27.0151 39.2449 22.5928 42.7371 19.1C45.1046 16.7325 48.7229 16.1121 51.7411 17.5544C52.3461 17.8437 53.0679 17.7201 53.5425 17.2461L61.7116 9.07636C62.3296 8.45838 63.3301 8.45776 63.9487 9.07636L77.3718 22.5001C77.9886 23.1169 77.9911 24.1168 77.3718 24.7366Z" fill="black"/>
</svg>
