<svg width="44" height="44" viewBox="0 0 44 44" fill="none" xmlns="http://www.w3.org/2000/svg">
<g clip-path="url(#clip0)">
<path d="M32.3299 8.17119C31.9942 8.50722 31.9942 9.05138 32.3299 9.3864C32.6653 9.72243 33.2101 9.72243 33.5451 9.3864C33.8811 9.05138 33.8811 8.50722 33.5451 8.17119C33.2101 7.83617 32.6653 7.83617 32.3299 8.17119Z" fill="black"/>
<path d="M9.84577 8.77861C9.50974 9.11464 9.50974 9.6588 9.84577 9.99382C10.1811 10.3298 10.726 10.3298 11.061 9.99382C11.397 9.6588 11.397 9.11464 11.061 8.77861C10.726 8.44359 10.1811 8.44359 9.84577 8.77861Z" fill="black"/>
<path d="M43.2444 10.6254L35.9528 3.33381C34.9453 2.3264 33.3149 2.32606 32.3071 3.33381L28.2751 7.36583C26.2398 6.63972 23.951 7.06605 22.3098 8.4904C20.1997 7.47493 17.7394 7.4719 15.6275 8.48234L11.6929 4.53694C10.6855 3.52952 9.05499 3.52919 8.04724 4.53694L0.755646 11.8285C-0.252777 12.8373 -0.250763 14.4678 0.754974 15.4735C0.847962 15.5668 4.85916 19.5888 4.98572 19.7156C4.79739 21.0433 5.24084 22.4035 6.20026 23.363L4.98538 24.5782C3.64294 25.9203 3.64227 28.0966 4.98572 29.44C5.6806 30.1342 6.63464 30.4988 7.63232 30.4367C7.56955 31.4394 7.93378 32.3871 8.63135 33.0846C9.3118 33.7658 10.2521 34.1481 11.2783 34.0847C11.2159 35.0954 11.5861 36.0394 12.277 36.7313C12.9651 37.4194 13.9081 37.7934 14.9236 37.731C14.8615 38.7421 15.2321 39.6864 15.9236 40.3779C17.2637 41.717 19.4444 41.717 20.7851 40.3772L22 39.162L23.2152 40.3779C24.5556 41.717 26.736 41.7167 28.0764 40.3776C28.8008 39.6531 29.1328 38.683 29.0744 37.7326C30.1708 37.8048 31.2101 37.351 31.9137 36.5235C32.4934 35.8427 32.7419 34.9595 32.6724 34.081C33.6996 34.1589 34.6644 33.7893 35.368 33.0853C36.0645 32.3891 36.4301 31.4414 36.3677 30.4363C37.3654 30.4985 38.3201 30.1332 39.0146 29.4393C40.3537 28.0989 40.3537 25.9183 39.0143 24.5778L38.363 23.9269C39.5641 22.3196 39.8891 20.2011 39.2123 18.3031L43.244 14.271C44.2518 13.2633 44.2521 11.6332 43.2444 10.6254ZM6.20093 28.2245C5.53021 27.5534 5.52954 26.4648 6.20093 25.7934C7.50543 24.4885 8.54172 23.4522 9.84689 22.1471C10.5169 21.4774 11.6069 21.477 12.277 22.1471C12.9433 22.8134 12.9544 23.9011 12.278 24.5772C12.2776 24.5775 12.2776 24.5775 12.2773 24.5778L12.277 24.5782L8.63202 28.2241C7.96164 28.8938 6.87097 28.8938 6.20093 28.2245ZM9.84723 31.8698C9.17517 31.1977 9.17484 30.1124 9.84689 29.44C9.84689 29.4397 9.84689 29.4397 9.84723 29.4397L13.4922 25.7937C14.1626 25.124 15.2532 25.124 15.9236 25.7934C16.597 26.4668 16.5943 27.5538 15.9236 28.2241L12.277 31.8701C11.6059 32.5418 10.519 32.5418 9.84723 31.8698ZM13.4929 35.5164C12.8208 34.843 12.8225 33.757 13.4922 33.0853C13.4925 33.0853 13.4925 33.0853 13.4925 33.085L17.1388 29.4397L17.1392 29.4393C17.8095 28.7693 18.8999 28.7696 19.5692 29.439C20.2413 30.1121 20.2403 31.1977 19.5699 31.8694C19.5699 31.8694 19.5699 31.8694 19.5696 31.8698C19.5696 31.8698 19.5696 31.8698 19.5692 31.8701L15.9233 35.5161C15.2509 36.1885 14.1639 36.1871 13.4929 35.5164ZM19.5699 39.162C18.8995 39.8317 17.8089 39.8317 17.1388 39.1624C16.4671 38.4906 16.4664 37.404 17.1385 36.7316L17.1388 36.7313L20.7841 33.0856C20.7845 33.0856 20.7848 33.0853 20.7851 33.085C21.4562 32.4139 22.5438 32.4136 23.2152 33.085C23.8869 33.7567 23.8873 34.8437 23.2152 35.5161C21.9849 36.7467 20.9241 37.8075 19.5699 39.162ZM26.8615 39.162C26.1911 39.8317 25.1005 39.8317 24.4308 39.1624L23.2155 37.9465L24.4304 36.7313C24.8641 36.2976 25.1669 35.7682 25.3207 35.1908L26.8612 36.7313C27.5316 37.4016 27.5316 38.492 26.8615 39.162ZM37.7997 28.2241C37.129 28.8938 36.0384 28.8938 35.3687 28.2245L31.723 24.5782C31.3877 24.2425 30.8435 24.2428 30.5078 24.5778C30.1721 24.9135 30.1721 25.4577 30.5075 25.7934L34.1534 29.44C34.8235 30.1094 34.8268 31.1964 34.1528 31.8701C33.4837 32.5395 32.3978 32.5448 31.72 31.8667L31.6374 31.7848L28.0767 28.2245C27.741 27.8888 27.1969 27.8888 26.8612 28.2245C26.5255 28.5598 26.5255 29.104 26.8612 29.4397L30.4168 32.995C31.0782 33.6976 31.1614 34.7561 30.6048 35.4096C30.1396 35.9568 29.4024 36.1589 28.726 35.9246C28.0838 35.7017 28.162 35.5268 24.4304 31.8698C23.751 31.1903 22.8114 30.8073 21.7838 30.8707C21.8459 29.8603 21.4756 28.9163 20.7848 28.2245C20.06 27.4994 19.0889 27.1674 18.1382 27.2268C18.2006 26.2237 17.8367 25.2761 17.1385 24.5778C16.4134 23.8534 15.4426 23.5217 14.4919 23.5812C14.5543 22.5781 14.1904 21.6298 13.4925 20.9319C12.1524 19.5918 9.97177 19.5918 8.63168 20.9319L7.4158 22.1477C6.76691 21.4988 6.51144 20.5441 6.74911 19.6559C6.828 19.3601 6.74374 19.0443 6.52722 18.8271L4.38147 16.6756L8.63202 12.4251C8.96738 12.0897 8.96738 11.5455 8.63202 11.2098C8.29633 10.8742 7.75217 10.8742 7.41681 11.2098L3.16794 15.4587L1.97119 14.259C1.63516 13.9229 1.63516 13.3798 1.97119 13.0437L9.26279 5.75215C9.60049 5.41444 10.144 5.41847 10.477 5.75148L14.8605 10.147C15.1374 10.4247 15.5681 10.4797 15.9062 10.28C17.4584 9.36286 19.3208 9.20207 20.9825 9.79591L16.5309 14.2479C15.1918 15.588 15.1918 17.7686 16.5312 19.1094C17.8716 20.4485 20.052 20.4485 21.3927 19.109L23.2155 17.2862C24.8943 15.6068 27.6121 15.6061 29.2916 17.2866L37.7991 25.793C38.4688 26.4634 38.4688 27.5544 37.7997 28.2241ZM42.0291 13.0558L40.2295 14.8551L35.9759 10.6022C35.6402 10.2666 35.0961 10.2669 34.7604 10.6022C34.425 10.9379 34.425 11.4821 34.7604 11.8178L39.0143 16.0707L37.5913 17.4934C37.3338 17.7512 37.2667 18.1433 37.4238 18.4719C38.0814 19.8476 37.9491 21.4529 37.13 22.6936L30.5071 16.0714C28.1566 13.7198 24.3509 13.7192 22 16.0714L20.1775 17.8938C19.5071 18.5635 18.4161 18.5635 17.7464 17.8942C17.0767 17.2238 17.0767 16.1331 17.7464 15.4631C18.916 14.2935 21.3182 11.8913 23.2152 9.99397C24.5013 8.70793 26.4667 8.37089 28.1063 9.1544C28.4349 9.3115 28.827 9.24437 29.0848 8.98689L33.5223 4.54902C33.858 4.21333 34.4015 4.21299 34.7375 4.54902L42.0291 11.841C42.3642 12.176 42.3655 12.7191 42.0291 13.0558Z" fill="black"/>
</g>
<defs>
<clipPath id="clip0">
<rect width="44" height="44" fill="white"/>
</clipPath>
</defs>
</svg>
