<svg width="40" height="40" viewBox="0 0 40 40" fill="none" xmlns="http://www.w3.org/2000/svg">
<path d="M39.3737 31.9833C39.7196 31.9833 40 31.703 40 31.357V9.31109C40 9.145 39.9341 8.98578 39.8166 8.8682L33.1361 2.18766C33.0185 2.07023 32.8593 2.0043 32.6932 2.0043H18.6221V1.87891C18.6221 0.842891 17.7792 0 16.7432 0H1.87891C0.842891 0 0 0.842891 0 1.87891V22.0877C0 23.1237 0.842891 23.9666 1.87891 23.9666H6.68055V39.3737C6.68055 39.7196 6.96086 40 7.30688 40H39.3737C39.7196 40 40 39.7197 40 39.3737V34.6973C40 34.3513 39.7197 34.0709 39.3737 34.0709C39.0277 34.0709 38.7473 34.3512 38.7473 34.6973V38.7473H7.9332V23.9666H16.7432C17.7792 23.9666 18.6221 23.1237 18.6221 22.0877V11.3148C18.6221 10.9689 18.3418 10.6885 17.9958 10.6885C17.6498 10.6885 17.3695 10.9688 17.3695 11.3148V22.0877C17.3695 22.4331 17.0885 22.7141 16.7431 22.7141H1.87891C1.53352 22.7141 1.25258 22.4331 1.25258 22.0877V1.87891C1.25258 1.53352 1.53352 1.25258 1.87891 1.25258H16.7432C17.0886 1.25258 17.3695 1.53352 17.3695 1.87891V7.97492C17.3695 8.32086 17.6498 8.60125 17.9959 8.60125C18.3419 8.60125 18.6222 8.32094 18.6222 7.97492V3.2568H32.069C32.068 3.27063 32.0669 3.28445 32.0669 3.29852V9.31102C32.0669 9.65695 32.3472 9.93734 32.6932 9.93734H38.7057C38.7198 9.93734 38.7336 9.93617 38.7474 9.93523V31.357C38.7474 31.703 39.0277 31.9833 39.3737 31.9833ZM33.3195 8.68477V4.1425L37.8617 8.68477H33.3195Z" fill="black"/>
<path d="M15.4907 28.7266H11.3153C10.9694 28.7266 10.689 29.0069 10.689 29.3529C10.689 29.6988 10.9693 29.9792 11.3153 29.9792H15.4907C15.8366 29.9792 16.117 29.6989 16.117 29.3529C16.1169 29.007 15.8366 28.7266 15.4907 28.7266Z" fill="black"/>
<path d="M15.4907 32.0667H11.3153C10.9694 32.0667 10.689 32.347 10.689 32.693C10.689 33.0389 10.9693 33.3193 11.3153 33.3193H15.4907C15.8366 33.3193 16.117 33.039 16.117 32.693C16.1169 32.347 15.8366 32.0667 15.4907 32.0667Z" fill="black"/>
<path d="M28.0166 19.3738C25.4567 19.3738 23.0706 20.3912 21.2978 22.2387C21.0582 22.4883 21.0663 22.8847 21.316 23.1243C21.5656 23.3639 21.9621 23.3557 22.2015 23.106C23.736 21.5071 25.8012 20.6264 28.0166 20.6264C32.46 20.6264 36.075 24.2414 36.075 28.6849C36.075 33.1283 32.46 36.7433 28.0166 36.7433C23.5731 36.7433 19.9581 33.1283 19.9581 28.6849C19.9581 27.3725 20.2635 26.1214 20.8656 24.966C21.0255 24.6593 20.9064 24.281 20.5998 24.1211C20.2931 23.9615 19.9148 24.0803 19.7549 24.3871C19.0685 25.7042 18.7056 27.1903 18.7056 28.6849C18.7056 33.819 22.8825 37.996 28.0167 37.996C33.1508 37.996 37.3278 33.819 37.3278 28.6849C37.3278 23.5507 33.1506 19.3738 28.0166 19.3738Z" fill="black"/>
<path d="M29.4467 28.1421L28.4762 28.1135V24.6347H30.6891C31.0351 24.6347 31.3154 24.3544 31.3154 24.0084C31.3154 23.6625 31.0351 23.3821 30.6891 23.3821H28.4762V22.6722C28.4762 22.3263 28.1958 22.0459 27.8498 22.0459C27.5039 22.0459 27.2235 22.3262 27.2235 22.6722V23.3821H26.5972C25.5612 23.3821 24.7183 24.225 24.7183 25.261V27.4321C24.7183 28.4647 25.5557 29.3056 26.587 29.311L27.2235 29.3297V32.7348H25.3446C24.9987 32.7348 24.7183 33.0151 24.7183 33.3611C24.7183 33.7071 24.9986 33.9874 25.3446 33.9874H27.2235V34.6973C27.2235 35.0432 27.5038 35.3236 27.8498 35.3236C28.1958 35.3236 28.4762 35.0433 28.4762 34.6973V33.9874H29.4365C30.4725 33.9874 31.3154 33.1446 31.3154 32.1085V30.0209C31.3154 28.9884 30.478 28.1476 29.4467 28.1421ZM27.2236 28.0767L26.6158 28.0588C26.6097 28.0586 26.6035 28.0585 26.5973 28.0585C26.2519 28.0585 25.971 27.7776 25.971 27.4322V25.261C25.971 24.9157 26.2519 24.6347 26.5973 24.6347H27.2237V28.0767H27.2236ZM30.0629 32.1087C30.0629 32.4541 29.7819 32.735 29.4365 32.735H28.4762V29.3667L29.4181 29.3945C29.4242 29.3946 29.4304 29.3947 29.4365 29.3947C29.7819 29.3947 30.0629 29.6757 30.0629 30.021V32.1087Z" fill="black"/>
<path d="M15.9914 2.00415H2.63023C2.2843 2.00415 2.00391 2.28446 2.00391 2.63048V5.97079C2.00391 6.31673 2.28422 6.59712 2.63023 6.59712H15.9914C16.3373 6.59712 16.6177 6.31681 16.6177 5.97079V2.63048C16.6177 2.28454 16.3374 2.00415 15.9914 2.00415ZM15.3651 5.34446H3.25656V3.25681H15.3652V5.34446H15.3651Z" fill="black"/>
<path d="M5.3025 7.34863H2.63023C2.2843 7.34863 2.00391 7.62895 2.00391 7.97496V10.6472C2.00391 10.9932 2.28422 11.2736 2.63023 11.2736H5.3025C5.64844 11.2736 5.92883 10.9932 5.92883 10.6472V7.97496C5.92875 7.62895 5.64844 7.34863 5.3025 7.34863ZM4.67617 10.0208H3.25656V8.60121H4.67617V10.0208Z" fill="black"/>
<path d="M10.6472 7.34863H7.97496C7.62902 7.34863 7.34863 7.62895 7.34863 7.97496V10.6472C7.34863 10.9932 7.62895 11.2736 7.97496 11.2736H10.6472C10.9932 11.2736 11.2736 10.9932 11.2736 10.6472V7.97496C11.2736 7.62895 10.9932 7.34863 10.6472 7.34863ZM10.0209 10.0208H8.60129V8.60121H10.0209V10.0208Z" fill="black"/>
<path d="M15.9915 7.34863H13.3192C12.9733 7.34863 12.6929 7.62895 12.6929 7.97496V10.6472C12.6929 10.9932 12.9732 11.2736 13.3192 11.2736H15.9915C16.3374 11.2736 16.6178 10.9932 16.6178 10.6472V7.97496C16.6178 7.62895 16.3375 7.34863 15.9915 7.34863ZM15.3651 10.0208H13.9455V8.60121H15.3651V10.0208Z" fill="black"/>
<path d="M5.3025 12.6931H2.63023C2.2843 12.6931 2.00391 12.9734 2.00391 13.3194V15.9917C2.00391 16.3376 2.28422 16.618 2.63023 16.618H5.3025C5.64844 16.618 5.92883 16.3377 5.92883 15.9917V13.3194C5.92875 12.9734 5.64844 12.6931 5.3025 12.6931ZM4.67617 15.3653H3.25656V13.9457H4.67617V15.3653Z" fill="black"/>
<path d="M10.6472 12.6931H7.97496C7.62902 12.6931 7.34863 12.9734 7.34863 13.3194V15.9917C7.34863 16.3376 7.62895 16.618 7.97496 16.618H10.6472C10.9932 16.618 11.2736 16.3377 11.2736 15.9917V13.3194C11.2736 12.9734 10.9932 12.6931 10.6472 12.6931ZM10.0209 15.3653H8.60129V13.9457H10.0209V15.3653Z" fill="black"/>
<path d="M5.3025 18.0376H2.63023C2.2843 18.0376 2.00391 18.3179 2.00391 18.6639V21.3362C2.00391 21.6821 2.28422 21.9625 2.63023 21.9625H5.3025C5.64844 21.9625 5.92883 21.6822 5.92883 21.3362V18.6639C5.92875 18.3179 5.64844 18.0376 5.3025 18.0376ZM4.67617 20.7099H3.25656V19.2903H4.67617V20.7099Z" fill="black"/>
<path d="M10.6472 18.0376H7.97496C7.62902 18.0376 7.34863 18.3179 7.34863 18.6639V21.3362C7.34863 21.6821 7.62895 21.9625 7.97496 21.9625H10.6472C10.9932 21.9625 11.2736 21.6822 11.2736 21.3362V18.6639C11.2736 18.3179 10.9932 18.0376 10.6472 18.0376ZM10.0209 20.7099H8.60129V19.2903H10.0209V20.7099Z" fill="black"/>
<path d="M15.9915 12.6931H13.3192C12.9733 12.6931 12.6929 12.9734 12.6929 13.3194V21.3362C12.6929 21.6821 12.9732 21.9625 13.3192 21.9625H15.9915C16.3374 21.9625 16.6178 21.6822 16.6178 21.3362V13.3194C16.6178 12.9734 16.3375 12.6931 15.9915 12.6931ZM15.3651 20.7098H13.9455V13.9458H15.3651V20.7098Z" fill="black"/>
<path d="M37.1327 14.7687L33.7211 11.5291C33.4704 11.2909 33.074 11.3012 32.8357 11.552C32.5974 11.8028 32.6078 12.1992 32.8586 12.4374L35.804 15.2344L35.2841 15.7543L26.2795 6.74929C26.192 6.66187 26.0807 6.60226 25.9594 6.57804L23.6387 6.1139L22.5214 4.88194C22.289 4.62562 21.8927 4.60624 21.6367 4.83866C21.3805 5.07101 21.3612 5.46702 21.5934 5.72335C21.5934 5.72335 22.8812 7.13249 22.9241 7.16069L23.3328 9.20452C23.357 9.32577 23.4166 9.4371 23.5041 9.5246L33.4834 19.504C33.8497 19.8702 34.3308 20.0533 34.812 20.0533C35.2931 20.0533 35.7742 19.8702 36.1405 19.504C36.1405 19.504 36.1405 19.504 36.1405 19.504L36.2586 19.3859C36.991 18.6533 36.991 17.4612 36.2586 16.7287L36.17 16.6401L37.1443 15.6658C37.3898 15.4202 37.3845 15.0078 37.1327 14.7687ZM24.5239 8.77312L24.273 7.51827L25.5278 7.76921L31.5642 13.8058L30.5605 14.8095L24.5239 8.77312ZM35.373 18.5001L35.255 18.6181C35.0106 18.8622 34.6134 18.8624 34.3692 18.6181L31.4464 15.6952L32.4501 14.6915L35.373 17.6144C35.6172 17.8585 35.6171 18.2558 35.373 18.5001Z" fill="black"/>
</svg>
