<svg width="48" height="48" fill="none" xmlns="http://www.w3.org/2000/svg"><path d="M47.2 0H.8a.8.8 0 0 0-.8.8v46.4a.8.8 0 0 0 .8.8h46.4a.8.8 0 0 0 .8-.8V.8a.8.8 0 0 0-.8-.8zm-.8 46.4H1.6V1.6h44.8v44.8z" fill="#FECC2F"/><path d="M7.2 11.2a4 4 0 1 0-.001-8.001 4 4 0 0 0 0 8zm0-6.4a2.4 2.4 0 1 1-.001 4.8 2.4 2.4 0 0 1 0-4.8zm0 40a4 4 0 1 0-.001-8 4 4 0 0 0 0 8zm0-6.4a2.4 2.4 0 1 1-.001 4.801 2.4 2.4 0 0 1 0-4.8zm33.6-1.6a4 4 0 1 0 .001 8.001 4 4 0 0 0 0-8zm0 6.4a2.4 2.4 0 1 1 .001-4.8 2.4 2.4 0 0 1 0 4.8zm0-32a4 4 0 1 0-3.92-4.8H19.2V8h17.68a4.007 4.007 0 0 0 3.92 3.2zm0-6.4a2.4 2.4 0 1 1-.001 4.8 2.4 2.4 0 0 1 0-4.8zM32 38.4H16a.8.8 0 0 0-.8.8V44a.8.8 0 0 0 .8.8h16a.8.8 0 0 0 .8-.8v-4.8a.8.8 0 0 0-.8-.8zm-13.6 4.8h-1.6V40h1.6v3.2zm3.2 0H20V40h1.6v3.2zm3.2 0h-1.6V40h1.6v3.2zm3.2 0h-1.6V40H28v3.2zm3.2 0h-1.6V40h1.6v3.2zM10.398 16h2.4v1.6h-2.4v1.6h2.4v1.6h-2.4v1.6h2.4V24h-2.4v1.6h2.4v1.6h-2.4v1.6h2.4v1.6h-2.4V32h2.4v2.4h1.6V32h1.6v2.4h1.6V32h1.6v2.4h1.6V32h1.6v2.4h1.6V32h1.6v2.4h1.6V32h1.6v2.4h1.6V32h1.6v-1.6h-1.6v-1.6h1.6v-1.6h-1.6v-1.6h1.6V24h-1.6v-1.6h1.6v-1.6h-1.6v-1.6h1.6v-1.6h-1.6V16h1.6v-1.6h-1.6V12h-1.6v2.4h-1.6V12h-1.6v2.4h-1.6V12h-1.6v2.4h-1.6V12h-1.6v2.4h-1.6V12h-1.6v2.4h-1.6V12h-1.6v2.4h-2.4V16zm4 0h14.4v14.4h-14.4V16zM13.6 9.6h3.2a.8.8 0 0 0 .8-.8V5.6a.8.8 0 0 0-.8-.8h-3.2a.8.8 0 0 0-.8.8v3.2a.8.8 0 0 0 .8.8zm.8-3.2H16V8h-1.6V6.4zm23.2 28.8a2.4 2.4 0 1 0-4.8.001 2.4 2.4 0 0 0 4.8 0zm-2.4.8a.8.8 0 1 1 0-1.6.8.8 0 0 1 0 1.6zm6.398-.8a2.4 2.4 0 0 0 2.4-2.4V15.2a2.4 2.4 0 0 0-2.4-2.4h-4.8a2.4 2.4 0 0 0 0 4.8h2.4v15.2a2.4 2.4 0 0 0 2.4 2.4zm-4.8-19.2a.8.8 0 0 1 0-1.6h4.8a.8.8 0 0 1 .8.8v17.6a.8.8 0 0 1-1.6 0v-16a.8.8 0 0 0-.8-.8h-3.2zM4 15.2v17.6a2.4 2.4 0 0 0 4.8 0V15.2a2.4 2.4 0 0 0-4.8 0zm3.2 0v17.6a.8.8 0 0 1-1.6 0V15.2a.8.8 0 0 1 1.6 0z" fill="#FECC2F"/><path d="M34.398 31.2h3.2v-1.6h-1.6v-8.8h1.6v-1.6h-3.2v12z" fill="#FECC2F"/></svg>