<svg width="45" height="45" viewBox="0 0 45 45" fill="none" xmlns="http://www.w3.org/2000/svg">
<g clip-path="url(#clip0)">
<path d="M29.9842 14.0393C29.8753 12.8841 28.9049 12.0016 27.7445 12.0023H26.9947V8.25306C26.9908 6.79946 26.1462 5.47943 24.828 4.86669C25.2567 4.34033 25.4921 3.68295 25.495 3.00413C25.495 1.34764 24.1521 0.00476074 22.4956 0.00476074C20.8391 0.00476074 19.4963 1.34764 19.4963 3.00413C19.4991 3.68295 19.7346 4.34033 20.1632 4.86669C19.6025 5.13066 19.1158 5.52917 18.7464 6.02671C18.377 5.52917 17.8903 5.13066 17.3297 4.86669C17.7583 4.34033 17.9937 3.68295 17.9966 3.00413C17.9966 1.34764 16.6537 0.00476074 14.9972 0.00476074C13.3407 0.00476074 11.9979 1.34764 11.9979 3.00413C12.0008 3.68295 12.2362 4.34033 12.6648 4.86669C12.1041 5.13066 11.6174 5.52917 11.248 6.02671C10.8786 5.52917 10.3919 5.13066 9.83126 4.86669C10.2599 4.34033 10.4953 3.68295 10.4982 3.00413C10.4982 1.34764 9.15534 0.00476074 7.49884 0.00476074C5.84235 0.00476074 4.49921 1.34755 4.49921 3.00413C4.50211 3.68295 4.73752 4.34033 5.16617 4.86669C3.84798 5.47943 3.00343 6.79946 2.99948 8.25306V12.0023H2.24966C1.08929 12.0016 0.118997 12.8841 0.0100344 14.0393C-0.0988403 15.1946 0.689469 16.2429 1.82954 16.4589L11.9977 30.9851V44.2459C11.9977 44.5224 12.1499 44.7765 12.3937 44.907C12.6376 45.0374 12.9334 45.0231 13.1635 44.8697L17.6626 41.8703C17.8712 41.7312 17.9964 41.4971 17.9965 41.2464V30.9851L28.1647 16.459C29.3047 16.2429 30.093 15.1946 29.9842 14.0393ZM22.4956 1.5044C23.3239 1.5044 23.9954 2.17584 23.9954 3.00413C23.9954 3.83243 23.3239 4.50386 22.4956 4.50386C21.6673 4.50386 20.9959 3.83243 20.9959 3.00413C20.9969 2.17619 21.6678 1.50537 22.4956 1.5044ZM19.4963 8.25306C19.4976 7.01124 20.504 6.00483 21.7458 6.00351H23.2455C24.4874 6.00483 25.4938 7.01124 25.4951 8.25306V12.0023H22.4957V9.00297C22.4957 8.58882 22.16 8.25315 21.7459 8.25315C21.3317 8.25315 20.9961 8.58882 20.9961 9.00297V12.0023H19.4963V8.25306H19.4963ZM14.9971 1.5044C15.8254 1.5044 16.4969 2.17584 16.4969 3.00413C16.4969 3.83243 15.8254 4.50386 14.9971 4.50386C14.1689 4.50386 13.4974 3.83243 13.4974 3.00413C13.4984 2.17619 14.1693 1.50537 14.9971 1.5044ZM11.9977 8.25306C11.999 7.01124 13.0054 6.00483 14.2472 6.00351H15.747C16.9888 6.00483 17.9952 7.01124 17.9965 8.25306V12.0023H14.9971V9.00297C14.9971 8.58882 14.6615 8.25315 14.2473 8.25315C13.8332 8.25315 13.4975 8.58882 13.4975 9.00297V12.0023H11.9978V8.25306H11.9977ZM7.49858 1.5044C8.32687 1.5044 8.99831 2.17584 8.99831 3.00413C8.99831 3.83243 8.32687 4.50378 7.49858 4.50378C6.67029 4.50378 5.99894 3.83234 5.99894 3.00413C5.99991 2.17619 6.67073 1.50537 7.49858 1.5044ZM4.49921 8.25306C4.50053 7.01124 5.50694 6.00483 6.74876 6.00351H8.24849C9.49031 6.00483 10.4967 7.01124 10.498 8.25306V12.0023H7.49858V9.00297C7.49858 8.58882 7.16291 8.25315 6.74876 8.25315C6.33461 8.25315 5.99894 8.58882 5.99894 9.00297V12.0023H4.49921V8.25306ZM25.2547 18.0011H18.7463C18.3322 18.0011 17.9965 18.3369 17.9965 18.7509C17.9965 19.1651 18.3323 19.5007 18.7463 19.5007H24.2049L23.1551 21.0005H17.2466C16.8325 21.0005 16.4968 21.3361 16.4968 21.7503C16.4968 22.1644 16.8325 22.5001 17.2466 22.5001H22.1053L21.0555 23.9998H15.7469C15.3327 23.9998 14.9971 24.3356 14.9971 24.7497C14.9971 25.1637 15.3327 25.4995 15.7469 25.4995H20.0056L18.9558 26.9992H14.2471C13.833 26.9992 13.4973 27.3349 13.4973 27.749C13.4973 28.1632 13.833 28.4988 14.2471 28.4988H17.9059L16.6321 30.3185C16.5439 30.4445 16.4966 30.5946 16.4966 30.7484V40.845L13.4972 42.8448V30.7486C13.4972 30.5948 13.45 30.4447 13.3617 30.3187L3.68972 16.5014H26.3046L25.2547 18.0011ZM2.24966 15.0017C1.83551 15.0017 1.49984 14.666 1.49984 14.2519C1.49984 13.8377 1.83551 13.5021 2.24966 13.5021H27.7445C28.1585 13.5025 28.494 13.8379 28.4944 14.2519C28.4939 14.6659 28.1585 15.0014 27.7445 15.0017H2.24966Z" fill="#FECC2F"/>
<path d="M44.9269 25.1583C44.4159 21.3408 41.3291 18.3861 37.4928 18.0427V4.06422L39.962 6.53346C40.1511 6.72484 40.4281 6.80033 40.6881 6.73126C40.948 6.66219 41.1511 6.45912 41.2201 6.19919C41.2892 5.93926 41.2137 5.66219 41.0223 5.47318L37.273 1.7239C37.2664 1.71722 37.2573 1.71528 37.2505 1.70887C37.1865 1.64674 37.1117 1.59674 37.0299 1.56124L37.0273 1.56063C37.0209 1.55808 37.0142 1.55817 37.0078 1.55571C36.9315 1.52715 36.851 1.51151 36.7694 1.50931C36.7449 1.50843 36.7218 1.51151 36.6973 1.513C36.6325 1.51687 36.5686 1.52935 36.5071 1.55C36.483 1.5572 36.4593 1.56564 36.4361 1.57539C36.3532 1.61089 36.2774 1.66116 36.2126 1.72381L32.4633 5.47309C32.1705 5.76588 32.1705 6.24066 32.4633 6.53346C32.7561 6.82625 33.2309 6.82625 33.5237 6.53346L35.9929 4.06422V18.0414C35.2622 18.1067 34.5436 18.2689 33.8557 18.5237C30.2477 19.8681 28.0503 23.5304 28.562 27.3466C29.0737 31.1629 32.1582 34.117 35.9929 34.4635V40.4965C35.9919 41.3244 35.321 41.9951 34.4932 41.9962H19.4964C19.0823 41.9962 18.7466 42.3319 18.7466 42.7461C18.7466 43.1602 19.0823 43.4959 19.4964 43.4959H34.4934C36.1493 43.4942 37.4912 42.1523 37.4928 40.4965V34.4674C38.2223 34.3995 38.9396 34.2351 39.6259 33.9784C43.2367 32.6382 45.4379 28.9758 44.9269 25.1583ZM40.8775 31.5593C38.552 33.3636 35.3243 33.4492 32.9063 31.7708C30.4883 30.0924 29.4399 27.0385 30.317 24.2288C31.1942 21.4192 33.7938 19.5041 36.7372 19.4995L36.743 19.5007L36.7489 19.4995C39.5621 19.5075 42.0766 21.2562 43.0633 23.8907C44.0881 26.6498 43.2031 29.755 40.8775 31.5593Z" fill="#FECC2F"/>
<path d="M39.1912 22.6883L39.2912 22.4693C39.4621 22.0926 39.2956 21.6486 38.9193 21.477C38.5429 21.3053 38.0985 21.4708 37.9262 21.8469L37.8264 22.0658C36.6252 21.7286 35.3508 22.27 34.7595 23.3686C34.3164 24.5354 34.7427 25.8534 35.7851 26.5397L34.9392 28.3936C34.8399 28.2905 34.7553 28.1741 34.6878 28.0478C34.5528 27.8088 34.5314 27.5221 34.6295 27.2658C34.7412 27.022 34.7141 26.7371 34.5587 26.5187C34.4032 26.3002 34.1429 26.1815 33.876 26.2072C33.6091 26.2329 33.3762 26.3992 33.2653 26.6433C32.9746 27.3135 33.0055 28.0797 33.3491 28.7244C33.5751 29.1553 33.8973 29.5283 34.2907 29.8147L34.1912 30.0329C34.0193 30.4097 34.1854 30.8545 34.5623 31.0265C34.9391 31.1984 35.3839 31.0323 35.5558 30.6554L35.6521 30.4444C35.8805 30.494 36.1136 30.5193 36.3474 30.5199C37.3429 30.566 38.2728 30.0232 38.7222 29.1337C39.0135 28.4637 38.9828 27.6971 38.6387 27.0526C38.4128 26.6218 38.0906 26.2487 37.6972 25.9624L38.5438 24.1071C38.863 24.3881 38.9844 24.8321 38.8526 25.2365C38.6807 25.6134 38.847 26.0583 39.2238 26.2302C39.6007 26.4021 40.0456 26.2358 40.2175 25.8589C40.6602 24.6922 40.2337 23.3745 39.1912 22.6883ZM36.1241 23.991C36.3433 23.6269 36.758 23.4277 37.1791 23.4845L36.4326 25.1206C36.1136 24.8393 35.9923 24.3954 36.1241 23.991ZM37.358 28.5114C37.1388 28.8754 36.7243 29.0744 36.3031 29.0179L37.0489 27.3834C37.1482 27.4866 37.2327 27.6029 37.3001 27.7293C37.4354 27.9682 37.4566 28.2551 37.358 28.5114Z" fill="#FECC2F"/>
</g>
<defs>
<clipPath id="clip0">
<rect width="45" height="45" fill="white"/>
</clipPath>
</defs>
</svg>
