<svg width="27" height="28" viewBox="0 0 27 28" fill="none" xmlns="http://www.w3.org/2000/svg">
<g clip-path="url(#clip0)">
<path d="M24.7275 12.0093C24.1251 12.0093 23.6368 12.4976 23.6368 13.0999V14.1984C23.6352 17.0639 22.5177 19.7573 20.4904 21.7823C18.4645 23.8058 15.7724 24.92 12.9092 24.92C12.9071 24.92 12.905 24.92 12.9029 24.92C6.98756 24.9166 2.17787 20.1015 2.18125 14.1861C2.18288 11.3207 3.30032 8.62731 5.32775 6.6022C7.35364 4.57868 10.0458 3.46451 12.9089 3.46451C12.911 3.46451 12.9131 3.46451 12.9152 3.46451C14.4272 3.46535 15.8942 3.77786 17.2753 4.39321C17.8256 4.63843 18.4702 4.39105 18.7154 3.84087C18.9605 3.2907 18.7133 2.64596 18.1631 2.40075C16.5011 1.6602 14.7359 1.28421 12.9164 1.2832C12.9137 1.2832 12.9116 1.2832 12.9088 1.2832C9.46376 1.2832 6.22386 2.62413 3.78616 5.05898C1.34657 7.49573 0.001945 10.7367 -5.89086e-05 14.1849C-0.00201008 17.633 1.33881 20.8756 3.77567 23.3152C6.21252 25.7547 9.45347 27.0994 12.9016 27.1014C12.9043 27.1014 12.9065 27.1014 12.9092 27.1014C16.3543 27.1014 19.5942 25.7605 22.0319 23.3256C24.4715 20.8888 25.8161 17.6478 25.8181 14.1991V13.1C25.8181 12.4976 25.3298 12.0093 24.7275 12.0093Z" fill="white"/>
<path d="M26.6806 2.79109C26.2546 2.36521 25.5641 2.36521 25.1381 2.79109L12.9091 15.0201L10.1348 12.2458C9.70889 11.8198 9.01828 11.8198 8.5924 12.2458C8.16647 12.6717 8.16647 13.3623 8.5924 13.7882L12.1379 17.3338C12.3509 17.5467 12.6301 17.6532 12.9092 17.6532C13.1883 17.6532 13.4674 17.5467 13.6804 17.3338L26.6806 4.33352C27.1065 3.90758 27.1065 3.21703 26.6806 2.79109Z" fill="white"/>
</g>
<defs>
<clipPath id="clip0">
<rect width="27" height="27" fill="white" transform="translate(0 0.692383)"/>
</clipPath>
</defs>
</svg>
