<svg width="75" height="155" viewBox="0 0 75 155" fill="none" xmlns="http://www.w3.org/2000/svg">
<path d="M57.1 0.0449056C56.5726 -0.118737 56.0123 0.176214 55.8486 0.703698L53.1819 9.29955C53.0183 9.82703 53.3132 10.3873 53.8407 10.5509C54.3682 10.7146 54.9285 10.4196 55.0921 9.89215L57.4625 2.2514L65.1033 4.62181C65.6308 4.78545 66.191 4.4905 66.3547 3.96302C66.5183 3.43553 66.2234 2.87526 65.6959 2.71162L57.1 0.0449056ZM1.4381 154.399C1.87246 154.187 2.31445 153.97 2.76365 153.748L1.8758 151.955C1.4306 152.176 0.992502 152.391 0.561896 152.601L1.4381 154.399ZM5.4706 152.383C6.34812 151.933 7.24747 151.464 8.16605 150.976L7.22773 149.21C6.31808 149.693 5.42732 150.158 4.55801 150.604L5.4706 152.383ZM10.8211 149.541C11.6844 149.065 12.5614 148.574 13.4504 148.067L12.4589 146.33C11.5792 146.832 10.7111 147.318 9.85653 147.789L10.8211 149.541ZM16.0713 146.543C16.931 146.034 17.7996 145.51 18.6755 144.971L17.6279 143.267C16.7617 143.8 15.9025 144.318 15.0521 144.822L16.0713 146.543ZM21.2262 143.373C22.0683 142.835 22.9156 142.284 23.7668 141.719L22.6608 140.053C21.8198 140.611 20.9823 141.156 20.1499 141.687L21.2262 143.373ZM26.2817 140.017C27.1023 139.451 27.9251 138.871 28.7491 138.279L27.5822 136.655C26.7687 137.24 25.956 137.812 25.1455 138.371L26.2817 140.017ZM31.1985 136.483C32.0006 135.883 32.8026 135.27 33.6035 134.645L32.3729 133.069C31.5829 133.685 30.7916 134.29 30 134.882L31.1985 136.483ZM35.9718 132.757C36.753 132.12 37.532 131.472 38.3078 130.811L37.0111 129.289C36.2466 129.94 35.4788 130.579 34.7086 131.206L35.9718 132.757ZM40.5878 128.825C41.3407 128.155 42.0895 127.472 42.8333 126.777L41.4682 125.316C40.7361 125.999 39.9988 126.671 39.2573 127.332L40.5878 128.825ZM45.0225 124.683C45.7424 123.977 46.4565 123.26 47.1639 122.531L45.7285 121.138C45.033 121.855 44.3307 122.56 43.6225 123.255L45.0225 124.683ZM49.2505 120.324C49.9333 119.583 50.6087 118.83 51.2758 118.065L49.7688 116.75C49.1138 117.501 48.4503 118.241 47.7794 118.969L49.2505 120.324ZM53.2444 115.745C53.8855 114.967 54.5176 114.178 55.1399 113.378L53.5609 112.15C52.9506 112.935 52.3304 113.709 51.7013 114.472L53.2444 115.745ZM56.9726 110.946C57.5676 110.132 58.1522 109.306 58.7254 108.469L57.0752 107.339C56.5136 108.159 55.9409 108.968 55.3577 109.767L56.9726 110.946ZM60.4053 105.931C60.9492 105.08 61.4813 104.217 62.0007 103.343L60.2815 102.322C59.7733 103.176 59.2526 104.02 58.7201 104.853L60.4053 105.931ZM63.512 100.702C63.9994 99.8166 64.4736 98.9195 64.9339 98.0112L63.1499 97.1071C62.7 97.995 62.2363 98.872 61.7597 99.7382L63.512 100.702ZM66.2616 95.2747C66.6874 94.3568 67.099 93.4277 67.4954 92.4875L65.6525 91.7105C65.2653 92.6287 64.8634 93.5363 64.4473 94.4331L66.2616 95.2747ZM68.6262 89.6664C68.986 88.7199 69.3306 87.7625 69.6592 86.7942L67.7652 86.1516C67.4445 87.0968 67.1081 88.0315 66.7568 88.9556L68.6262 89.6664ZM70.5826 83.9016C70.8731 82.9313 71.1475 81.9503 71.4052 80.9587L69.4695 80.4557C69.218 81.4235 68.9501 82.3809 68.6666 83.3281L70.5826 83.9016ZM72.1147 78.0097C72.3336 77.0209 72.536 76.022 72.7212 75.0128L70.7541 74.6518C70.5733 75.637 70.3757 76.6121 70.162 77.5772L72.1147 78.0097ZM73.2146 72.0225C73.3614 71.0216 73.4914 70.011 73.604 68.9905L71.616 68.7712C71.5061 69.768 71.3791 70.755 71.2358 71.7323L73.2146 72.0225ZM73.8834 65.9729C73.959 64.9665 74.0177 63.9508 74.0591 62.9259L72.0607 62.8452C72.0202 63.8472 71.9628 64.8398 71.889 65.8232L73.8834 65.9729ZM74.1303 59.8917C74.137 58.8864 74.1271 57.8725 74.1003 56.8499L72.101 56.9025C72.1273 57.9031 72.1369 58.8951 72.1303 59.8783L74.1303 59.8917ZM73.9711 53.8052C73.9127 52.8075 73.8383 51.8019 73.7474 50.7881L71.7554 50.9668C71.8444 51.96 71.9173 52.9451 71.9745 53.922L73.9711 53.8052ZM73.4262 47.7341C73.3075 46.7499 73.1734 45.7583 73.0236 44.7593L71.0457 45.0559C71.1927 46.036 71.3242 47.0085 71.4405 47.9735L73.4262 47.7341ZM72.5265 41.7401C72.3506 40.7586 72.1597 39.7702 71.9533 38.7747L69.9949 39.1808C70.1977 40.1587 70.3852 41.1294 70.5579 42.0929L72.5265 41.7401ZM71.2992 35.8168C71.0677 34.8307 70.8211 33.838 70.5593 32.8386L68.6246 33.3454C68.8821 34.3285 69.1246 35.3047 69.3522 36.274L71.2992 35.8168ZM69.7664 29.9541C69.488 28.9864 69.1953 28.0126 68.8882 27.0325L66.9797 27.6306C67.2822 28.5958 67.5703 29.5547 67.8444 30.5071L69.7664 29.9541ZM67.948 24.1472C67.6302 23.2077 67.2992 22.2626 66.9549 21.3119L65.0744 21.9931C65.414 22.9305 65.7403 23.8622 66.0534 24.788L67.948 24.1472ZM65.8812 18.4429C65.523 17.5151 65.1521 16.5821 64.7684 15.6438L62.9172 16.4009C63.296 17.3272 63.6621 18.2479 64.0155 19.1633L65.8812 18.4429ZM63.6031 12.8706C63.2022 11.9411 62.7887 11.0066 62.3626 10.0669L60.5411 10.893C60.9622 11.8215 61.3707 12.7447 61.7666 13.6627L63.6031 12.8706ZM61.0964 7.33917C60.671 6.44329 60.2342 5.54284 59.7857 4.63781L57.9937 5.52581C58.4372 6.42093 58.8692 7.3113 59.2897 8.19697L61.0964 7.33917ZM58.4053 1.90893C58.1693 1.45182 57.9305 0.993571 57.6886 0.534163L55.9189 1.46584C56.1582 1.9205 56.3946 2.37398 56.6281 2.82626L58.4053 1.90893Z" fill="black"/>
</svg>
