<svg width="16" height="99" viewBox="0 0 16 99" fill="none" xmlns="http://www.w3.org/2000/svg">
<path d="M7.64644 97.8536C7.8417 98.0488 8.15829 98.0488 8.35355 97.8536L11.5355 94.6716C11.7308 94.4763 11.7308 94.1597 11.5355 93.9645C11.3403 93.7692 11.0237 93.7692 10.8284 93.9645L8 96.7929L5.17157 93.9645C4.97631 93.7692 4.65972 93.7692 4.46446 93.9645C4.2692 94.1597 4.2692 94.4763 4.46446 94.6716L7.64644 97.8536ZM7.49999 1.40098e-08L7.49999 2.4375L8.49999 2.4375L8.49999 -1.40104e-08L7.49999 1.40098e-08ZM7.49999 7.3125L7.49999 12.1875L8.49999 12.1875L8.49999 7.3125L7.49999 7.3125ZM7.49999 17.0625L7.49999 21.9375L8.49999 21.9375L8.49999 17.0625L7.49999 17.0625ZM7.49999 26.8125L7.49999 31.6875L8.49999 31.6875L8.49999 26.8125L7.49999 26.8125ZM7.49999 36.5625L7.49999 41.4375L8.49999 41.4375L8.49999 36.5625L7.49999 36.5625ZM7.49999 46.3125L7.49999 51.1875L8.49999 51.1875L8.49999 46.3125L7.49999 46.3125ZM7.49999 56.0625L7.49999 60.9375L8.49999 60.9375L8.49999 56.0625L7.49999 56.0625ZM7.49999 65.8125L7.5 70.6875L8.49999 70.6875L8.49999 65.8125L7.49999 65.8125ZM7.5 75.5625L7.5 80.4375L8.5 80.4375L8.5 75.5625L7.5 75.5625ZM7.5 85.3125L7.5 90.1875L8.5 90.1875L8.5 85.3125L7.5 85.3125ZM7.5 95.0625L7.5 97.5L8.5 97.5L8.5 95.0625L7.5 95.0625ZM7.29289 98.2071C7.68341 98.5976 8.31658 98.5976 8.7071 98.2071L15.0711 91.8431C15.4616 91.4526 15.4616 90.8195 15.0711 90.4289C14.6805 90.0384 14.0474 90.0384 13.6568 90.4289L8 96.0858L2.34314 90.4289C1.95262 90.0384 1.31945 90.0384 0.928928 90.4289C0.538403 90.8195 0.538403 91.4526 0.928928 91.8431L7.29289 98.2071ZM6.99999 2.80198e-08L6.99999 2.4375L8.99999 2.4375L8.99999 -2.80204e-08L6.99999 2.80198e-08ZM6.99999 7.3125L6.99999 12.1875L8.99999 12.1875L8.99999 7.3125L6.99999 7.3125ZM6.99999 17.0625L6.99999 21.9375L8.99999 21.9375L8.99999 17.0625L6.99999 17.0625ZM6.99999 26.8125L6.99999 31.6875L8.99999 31.6875L8.99999 26.8125L6.99999 26.8125ZM6.99999 36.5625L6.99999 41.4375L8.99999 41.4375L8.99999 36.5625L6.99999 36.5625ZM6.99999 46.3125L6.99999 51.1875L8.99999 51.1875L8.99999 46.3125L6.99999 46.3125ZM6.99999 56.0625L6.99999 60.9375L8.99999 60.9375L8.99999 56.0625L6.99999 56.0625ZM6.99999 65.8125L7 70.6875L9 70.6875L8.99999 65.8125L6.99999 65.8125ZM7 75.5625L7 80.4375L9 80.4375L9 75.5625L7 75.5625ZM7 85.3125L7 90.1875L9 90.1875L9 85.3125L7 85.3125ZM7 95.0625L7 97.5L9 97.5L9 95.0625L7 95.0625Z" fill="#E7B518"/>
</svg>
