<svg width="368" height="20" viewBox="0 0 368 20" fill="none" xmlns="http://www.w3.org/2000/svg">
<path d="M350.354 10.7549C350.549 10.5597 350.549 10.2431 350.354 10.0478L347.172 6.86583C346.976 6.67057 346.66 6.67057 346.464 6.86583C346.269 7.0611 346.269 7.37768 346.464 7.57294L349.293 10.4014L346.464 13.2298C346.269 13.4251 346.269 13.7416 346.464 13.9369C346.66 14.1322 346.976 14.1322 347.172 13.9369L350.354 10.7549ZM0 10.9014H350V9.90137H0V10.9014Z" fill="#FECC2F"/>
<path d="M360.222 10.5909L353.507 0.985625L351.255 2.75502L355.377 8.82154L357.417 10.5488L355.377 12.0654L351 18.0056L353.21 19.8171L360.222 10.5909ZM368 10.5909L361.2 0.901367L358.905 2.7129L363.07 8.82154L365.11 10.5488L363.07 12.0654L358.65 18.0477L360.945 19.9014L368 10.5909Z" fill="#FECC2F"/>
</svg>
