<svg width="80" height="65" viewBox="0 0 80 65" fill="none" xmlns="http://www.w3.org/2000/svg">
<path fill-rule="evenodd" clip-rule="evenodd" d="M13.2717 20.8447L11.9241 20.3447V21.7822V51.989V52.6511L12.5337 52.9097L39.2559 64.2371L39.646 63.3164L40.0364 64.2371L66.7585 52.9097L67.3682 52.6511V51.989V21.7822V20.3447L66.0205 20.8447C58.209 23.7419 42.5601 29.5288 39.646 30.5427C36.7319 29.5288 21.0833 23.7419 13.2717 20.8447ZM39.646 31.5994L39.333 32.5491C37.575 31.9695 22.4226 26.3699 13.9241 23.2195V51.3267L39.646 62.2302L65.3682 51.3267V23.2195C56.8696 26.3699 41.7173 31.9695 39.9592 32.5491L39.646 31.5994Z" fill="black"/>
<path d="M50.3906 41.8023L38.9382 31.9768L67.2567 21.5303L79.2921 29.8875L50.3906 41.8023Z" fill="#FECC2F"/>
<path d="M27.6103 41.7268L39.6457 31.9768L12.0352 21.5303L0.707764 30.8442L27.6103 41.7268Z" fill="#FECC2F"/>
<path d="M0 14.5664L12.0354 21.5307L37.522 9.69139L26.6664 2.78589L0 14.5664Z" fill="#FECC2F"/>
<path d="M67.2564 21.5306L37.522 9.69123L51.9172 3.42334L79.9997 13.8698L67.2564 21.5306Z" fill="#FECC2F"/>
<path d="M50.3908 39.0172L38.9385 29.1916L67.257 18.7451L79.2923 27.1023L50.3908 39.0172Z" fill="#00D97E"/>
<path d="M27.6108 38.9417L39.6462 29.1916L12.0357 18.7451L0.708252 28.059L27.6108 38.9417Z" fill="#00D97E"/>
<path d="M0.000244141 11.7805L12.0356 18.7449L37.5222 6.9055L26.6666 0L0.000244141 11.7805Z" fill="#00D97E"/>
<path d="M67.2566 18.7449L37.5222 6.90559L51.9175 0.637695L80 11.0842L67.2566 18.7449Z" fill="#00D97E"/>
<path d="M38.646 63.3167C38.646 63.869 39.0937 64.3167 39.646 64.3167C40.1983 64.3167 40.646 63.869 40.646 63.3167H38.646ZM38.646 30.8445V63.3167H40.646V30.8445H38.646Z" fill="black"/>
<path d="M50.3906 40.41L38.9382 30.5844L67.2567 20.1379L79.2921 28.4951L50.3906 40.41Z" fill="black"/>
<path d="M27.6103 40.3345L39.6457 30.5844L12.0352 20.1379L0.707764 29.4518L27.6103 40.3345Z" fill="black"/>
<path d="M0 13.1736L12.0354 20.1379L37.522 8.29856L26.6664 1.39307L0 13.1736Z" fill="black"/>
<path d="M67.2564 20.138L37.522 8.29866L51.9172 2.03076L79.9997 12.4773L67.2564 20.138Z" fill="black"/>
</svg>
