<svg width="90" height="80" viewBox="0 0 90 80" fill="none" xmlns="http://www.w3.org/2000/svg">
<path d="M36.1262 39.9634C35.5092 39.3449 34.5062 39.3449 33.8892 39.9634C33.2706 40.5804 33.2706 41.5834 33.8892 42.2004C34.5062 42.819 35.5092 42.819 36.1262 42.2004C36.7448 41.5834 36.7448 40.5804 36.1262 39.9634Z" fill="black"/>
<path d="M44.5 42.6641C41.883 42.6641 39.7539 44.7932 39.7539 47.4102C39.7539 50.0272 41.883 52.1562 44.5 52.1562C47.117 52.1562 49.2461 50.0272 49.2461 47.4102C49.2461 44.7932 47.117 42.6641 44.5 42.6641ZM44.5 48.9922C43.6277 48.9922 42.918 48.2825 42.918 47.4102C42.918 46.5378 43.6277 45.8281 44.5 45.8281C45.3723 45.8281 46.082 46.5378 46.082 47.4102C46.082 48.2825 45.3723 48.9922 44.5 48.9922Z" fill="black"/>
<path d="M44.5 34.7539C42.7316 34.7539 41.0216 35.1113 39.4179 35.8162C38.618 36.1679 38.2546 37.1013 38.6061 37.9012C38.9577 38.7011 39.8912 39.0643 40.6911 38.7129C41.8911 38.1855 43.1727 37.918 44.5 37.918C49.734 37.918 53.9922 42.1762 53.9922 47.4102C53.9922 52.6441 49.734 56.9023 44.5 56.9023C39.266 56.9023 35.0078 52.6441 35.0078 47.4102C35.0078 47.3561 35.0077 47.3032 35.0089 47.2491C35.0292 46.3757 34.3375 45.6511 33.4641 45.6308C32.5892 45.609 31.8661 46.3021 31.8458 47.1757C31.8439 47.2545 31.8438 47.3314 31.8438 47.4102C31.8438 54.3888 37.5213 60.0664 44.5 60.0664C51.4787 60.0664 57.1562 54.3888 57.1562 47.4102C57.1562 40.4315 51.4787 34.7539 44.5 34.7539Z" fill="black"/>
<path d="M44.5 11.0234C43.6262 11.0234 42.918 11.7317 42.918 12.6055V22.0977C42.918 22.9714 43.6262 23.6797 44.5 23.6797C45.3738 23.6797 46.082 22.9714 46.082 22.0977V12.6055C46.082 11.7317 45.3738 11.0234 44.5 11.0234Z" fill="black"/>
<path d="M26.8256 22.7524L20.1146 16.0415C19.4968 15.4237 18.4951 15.4237 17.8772 16.0415C17.2594 16.6592 17.2594 17.661 17.8772 18.2789L24.5881 24.9899C25.2059 25.6077 26.2078 25.6078 26.8256 24.9899C27.4434 24.3721 27.4434 23.3704 26.8256 22.7524Z" fill="black"/>
<path d="M71.1227 16.0415C70.5049 15.4237 69.5032 15.4237 68.8853 16.0415L62.1743 22.7524C61.5565 23.3702 61.5565 24.372 62.1743 24.9899C62.7919 25.6077 63.7938 25.6078 64.4117 24.9899L71.1227 18.2789C71.7405 17.6611 71.7405 16.6594 71.1227 16.0415Z" fill="black"/>
<path d="M84.6037 47.6807C74.5538 36.3029 59.6315 26.8438 44.5 26.8438C29.3664 26.8438 14.4442 36.3052 4.39628 47.6807C3.81789 48.3356 3.87991 49.3353 4.53471 49.9137C5.18967 50.4921 6.18952 50.4301 6.76775 49.7753C7.10488 49.3936 7.45024 49.0132 7.80003 48.6353C15.6176 60.4474 29.7892 67.9766 44.5 67.9766C59.2108 67.9766 73.3823 60.4474 81.2 48.6353C81.5497 49.0134 81.8951 49.3937 82.2322 49.7753C82.8087 50.428 83.8084 50.4939 84.4653 49.9137C85.1201 49.3353 85.1821 48.3355 84.6037 47.6807ZM44.5 64.8125C30.5916 64.8125 17.2145 57.5859 10.0609 46.3059C15.6974 40.7829 28.721 30.0078 44.5 30.0078C60.2792 30.0078 73.3026 40.7829 78.9391 46.3057C71.7854 57.5859 58.4084 64.8125 44.5 64.8125Z" fill="black"/>
</svg>
