<svg width="49" height="49" viewBox="0 0 49 49" fill="none" xmlns="http://www.w3.org/2000/svg">
<path d="M48.1832 28.5836H45.6785L44.1 5.66153C44.0704 5.23236 43.7136 4.89979 43.2832 4.90039H38.3832C37.9528 4.89979 37.596 5.23236 37.5664 5.66153L35.9879 28.5836H34.3002V23.6836C34.3002 23.2329 33.9344 22.8668 33.4837 22.8668C33.2977 22.8665 33.1177 22.9299 32.9729 23.046L26.1334 28.5175V23.6836C26.1334 23.2329 25.7679 22.8668 25.3169 22.8668C25.1312 22.8665 24.9512 22.9299 24.8064 23.046L17.9669 28.5175V23.6836C17.9669 23.2329 17.6014 22.8668 17.1504 22.8668C16.9647 22.8665 16.7843 22.9299 16.6399 23.046L9.80036 28.5175V23.6836C9.80006 23.2329 9.43429 22.8671 8.98359 22.8671C8.83495 22.8671 8.6899 22.9075 8.56279 22.9838L0.395974 27.8837C0.150434 28.0315 0 28.2968 0 28.5836V48.1835C0 48.6345 0.365768 49 0.816771 49H48.1832C48.6342 49 49 48.6345 49 48.1835V29.4003C49 28.949 48.6342 28.5836 48.1832 28.5836ZM39.1458 6.53362H42.5206L44.0417 28.5836H37.6247L39.1458 6.53362ZM27.7663 47.3668V37.5668H32.6664V47.3668H27.7663ZM47.3668 47.3668H34.3002V36.75C34.3002 36.2993 33.9341 35.9336 33.4831 35.9336H26.9499C26.4989 35.9336 26.1331 36.2993 26.1331 36.75V47.3668H1.63324V29.0459L8.16652 25.126V30.2168C8.16652 30.6681 8.53199 31.0336 8.98299 31.0342C9.16842 31.0342 9.34876 30.9708 9.49381 30.8547L16.3333 25.3832V30.2168C16.3333 30.6681 16.6985 31.0336 17.1498 31.0342C17.3352 31.0342 17.5153 30.9708 17.6603 30.855L24.4999 25.3835V30.2171C24.4999 30.6681 24.865 31.0342 25.3163 31.0342C25.5017 31.0342 25.6818 30.9708 25.8268 30.855L32.6664 25.3835V29.4003C32.6664 29.8516 33.0321 30.2171 33.4831 30.2171H47.3662V47.3668H47.3668Z" fill="#FECC2F"/>
<path d="M27.761 1.63394C28.0579 1.79305 28.3262 2.0006 28.555 2.24794C29.0129 2.8063 29.6649 3.16997 30.3799 3.26717C31.1333 3.17117 31.8212 2.79165 32.3042 2.20547C32.5108 1.98864 32.742 1.79694 32.9936 1.63394C33.1616 1.64142 33.6019 2.05354 33.8387 2.27485C34.2793 2.82006 34.9121 3.17506 35.6066 3.26717C36.4087 3.16549 37.1417 2.76324 37.6582 2.14177C37.8583 1.95395 38.1613 1.66893 38.2199 1.63394C38.6583 1.63394 38.7588 1.77929 39.0286 2.16808C39.383 2.8377 40.0756 3.25969 40.8335 3.26717C41.2842 3.26717 41.65 2.90141 41.65 2.45071C41.65 1.99941 41.2842 1.63394 40.8335 1.63394C40.6699 1.63394 40.6382 1.62258 40.3729 1.23947C39.9393 0.460385 39.1111 -0.0160364 38.2199 0.000412612C37.5592 0.0922276 36.9581 0.431973 36.5394 0.951161C36.2681 1.20687 35.8135 1.63394 35.641 1.63783C35.3879 1.4847 35.1571 1.29808 34.9531 1.08365C34.462 0.485507 33.761 0.098209 32.9933 0.000412612C32.2853 0.0970127 31.6405 0.457693 31.1874 1.00978C30.9584 1.25562 30.6937 1.46586 30.4027 1.63394C30.1305 1.47783 29.8829 1.28283 29.6678 1.05404C29.1905 0.474441 28.511 0.098209 27.7663 0.000412612C27.3156 -0.00108275 26.9484 0.363186 26.9469 0.814485C26.9454 1.26519 27.3099 1.63245 27.761 1.63394Z" fill="#FECC2F"/>
<path d="M8.98358 37.5668H5.7165C5.26549 37.5668 4.90002 37.9325 4.90002 38.3832V43.2832C4.90002 43.7345 5.26549 44.1 5.7165 44.1H8.98358C9.43429 44.1 9.80005 43.7345 9.80005 43.2832V38.3832C9.80005 37.9325 9.43429 37.5668 8.98358 37.5668ZM8.16651 42.4668H6.53327V39.2003H8.16651V42.4668Z" fill="#FECC2F"/>
<path d="M15.5168 37.5668H12.2501C11.7988 37.5668 11.4333 37.9325 11.4333 38.3832V43.2832C11.4333 43.7345 11.7988 44.1 12.2501 44.1H15.5168C15.9676 44.1 16.3333 43.7345 16.3333 43.2832V38.3832C16.3333 37.9325 15.9676 37.5668 15.5168 37.5668ZM14.6998 42.4668H13.0665V39.2003H14.6998V42.4668Z" fill="#FECC2F"/>
<path d="M22.0501 37.5668H18.7834C18.3321 37.5668 17.9666 37.9325 17.9666 38.3832V43.2832C17.9666 43.7345 18.3321 44.1 18.7834 44.1H22.0501C22.5008 44.1 22.8666 43.7345 22.8666 43.2832V38.3832C22.8666 37.9325 22.5008 37.5668 22.0501 37.5668ZM21.2331 42.4668H19.5998V39.2003H21.2331V42.4668Z" fill="#FECC2F"/>
</svg>
