<svg xmlns="http://www.w3.org/2000/svg" width="107" height="115" fill="none"><circle cx="53.5" cy="53.5" r="52" stroke="#000" stroke-width="3"/><path d="M74.08 21.42l-10.9-.02C50.9 21.4 43 29.5 43 42.03v9.5H32.03c-.94 0-1.7.77-1.7 1.72v13.78c0 .94.76 1.7 1.7 1.7H43v34.78c0 .96.77 1.73 1.72 1.73h14.3c.95 0 1.72-.77 1.72-1.7v-34.8h12.82c.95 0 1.72-.77 1.72-1.7v-13.8c0-.45-.18-.88-.5-1.2-.32-.32-.76-.5-1.2-.5H60.73v-8.06c0-3.88.93-5.85 6-5.85h7.34c.95 0 1.7-.76 1.7-1.7v-12.8c0-.95-.75-1.7-1.7-1.7z"/></svg>