<svg width="60" height="60" viewBox="0 0 60 60" fill="none" xmlns="http://www.w3.org/2000/svg">
<rect width="60" height="60" fill="white"/>
<g>
<path d="M48.4042 17.6505C49.3866 13.362 49.2588 10.3103 49.2529 10.1825C49.2382 9.86548 49.097 9.56798 48.8619 9.35876C48.6268 9.14946 48.3183 9.04664 48.007 9.07355C38.6196 9.87476 29.8901 14.7886 24.4904 22.6576L17.8353 22.6113C17.5117 22.6097 17.2021 22.7459 16.9832 22.9881L11.1341 29.4604C10.8501 29.7747 10.758 30.2217 10.8938 30.6259C11.0297 31.0301 11.3719 31.3268 11.7859 31.3996L18.9296 32.6548C18.0415 34.5461 17.4904 35.871 17.4273 36.0236C17.24 36.4772 17.353 37.0019 17.7098 37.335L18.2435 37.8334C17.6975 38.054 17.191 38.3994 16.7677 38.8677C16.4379 39.2327 16.1786 39.6502 15.9966 40.1094L11.8051 48.7017C11.5794 49.1644 11.6802 49.7233 12.053 50.0751C12.2836 50.2928 12.5841 50.3992 12.8834 50.3865C13.068 50.3787 13.2521 50.3255 13.4189 50.2253L21.5841 45.3163C21.7114 45.2507 21.8342 45.1791 21.9499 45.1029C21.9619 45.0953 21.9736 45.0874 21.9851 45.0794C22.2572 44.896 22.5074 44.6789 22.7289 44.4338C23.1521 43.9654 23.4478 43.4231 23.6179 42.8514L24.2188 43.4124C24.5938 43.763 25.1499 43.8186 25.582 43.557C25.729 43.4682 26.9102 42.7527 28.5741 41.6911L30.3993 48.7789C30.6163 49.6618 31.755 49.9533 32.3554 49.2747L38.2046 42.8024C38.4235 42.5602 38.5314 42.2352 38.5018 41.9074L37.8932 35.1783C39.0437 34.255 40.0401 33.3697 40.7413 32.5939C44.9699 27.8257 47.1008 23.0239 48.4042 17.6505ZM46.1502 17.1975C45.9434 18.0904 45.672 19.0857 45.3177 20.1493L38.5928 13.8704C41.2312 12.6913 44.0287 11.9077 46.9439 11.5337C46.8908 12.7504 46.7125 14.77 46.1502 17.1975ZM14.2487 29.4653L18.3312 24.9478L22.995 24.9803C21.8681 26.8371 20.8423 28.7608 19.9865 30.4734L14.2487 29.4653ZM21.6366 37.8357L19.8641 36.1807C20.1133 35.6078 20.4996 34.739 20.9924 33.6902L23.3737 35.9136L21.6366 37.8357ZM21.0373 42.8543C20.9388 42.9632 20.8277 43.0593 20.7067 43.1398C20.7048 43.1411 20.7028 43.1425 20.7008 43.1437C20.6468 43.1794 20.5874 43.2134 20.5245 43.245C20.4984 43.2581 20.4729 43.2721 20.4479 43.2872L15.5835 46.2116L18.0749 41.1047C18.0904 41.0729 18.1044 41.0403 18.117 41.0073C18.1959 40.7998 18.3111 40.6114 18.4593 40.4474C19.1113 39.726 20.2199 39.679 20.9307 40.3426C21.6414 41.0061 21.6892 42.1329 21.0373 42.8543ZM25.1366 41.1036L23.3282 39.4151L25.0653 37.4929L27.4046 39.6772C26.4599 40.281 25.6684 40.7749 25.1366 41.1036ZM36.1692 41.6031L32.0868 46.1206L30.607 40.3742C32.2306 39.3062 34.0468 38.0703 35.7373 36.8279L36.1692 41.6031ZM39.0496 31.0145C37.1898 33.0724 32.8734 36.098 29.4058 38.3799L26.6169 35.776L30.2226 31.7861C30.6511 31.312 30.6198 30.574 30.1527 30.1379C29.6856 29.7017 28.9596 29.7325 28.531 30.2067L24.9254 34.1965L22.0489 31.5108C22.1419 31.3247 22.2368 31.1366 22.3336 30.9461C24.5251 26.6386 26.6711 23.269 28.5397 21.2014C30.8201 18.6781 33.456 16.5848 36.3815 14.9715L44.4355 22.4916C43.2843 25.2247 41.5785 28.216 39.0496 31.0145Z" fill="#2E2E2E"/>
<path d="M38.5419 20.8523C35.4205 17.9251 30.3022 20.339 30.5024 24.6459C30.5604 27.2677 32.9292 29.4796 35.5043 29.316C39.7428 29.154 41.6763 23.7652 38.5419 20.8523ZM37.1427 26.1653C36.2533 27.1911 34.5779 27.2623 33.6048 26.3153C32.5942 25.4101 32.5219 23.7071 33.4523 22.7195C34.3856 21.6868 35.9727 21.6195 36.9901 22.5694C38.0076 23.5194 38.076 25.1325 37.1427 26.1653Z" fill="#F7D033"/>
</g>
</svg>
