<svg width="60" height="60" viewBox="0 0 60 60" fill="none" xmlns="http://www.w3.org/2000/svg">
<rect width="60" height="60" fill="white"/>
<g>
<path d="M51.8993 40.1207L48.1209 37.5942C47.4885 37.1715 46.6333 37.3413 46.2102 37.9736C45.7874 38.6059 45.9572 39.4614 46.5895 39.8843L47.6037 40.5624L39.7385 42.124C39.7357 42.1014 39.7331 42.0787 39.7285 42.0558L39.2189 39.4889C39.1152 38.9666 38.6077 38.6273 38.0855 38.731C37.5632 38.8347 37.2238 39.3422 37.3275 39.8644L37.8372 42.4313C37.8417 42.4542 37.848 42.476 37.854 42.4982L33.0545 43.4511L32.7058 41.6946C32.6021 41.1723 32.0946 40.833 31.5724 40.9367C31.0501 41.0404 30.7108 41.5479 30.8145 42.0701L31.1632 43.8265L26.3671 44.7787L26.1525 43.6979C26.0488 43.1755 25.5414 42.8363 25.0191 42.94C24.4969 43.0437 24.1575 43.5511 24.2612 44.0734L24.4758 45.1542L17.8558 46.4685L15.6043 35.1285L21.5672 30.5043L21.713 31.2389C21.8167 31.7613 22.3242 32.1005 22.8464 31.9968C23.3687 31.8931 23.708 31.3856 23.6043 30.8634L23.51 30.3882L28.9409 32.6333L29.2855 34.3694C29.3893 34.8917 29.8967 35.231 30.419 35.1273C30.9412 35.0236 31.2806 34.5161 31.1769 33.9938L30.8185 32.189C30.8449 32.1388 30.869 32.0874 30.8884 32.0334L34.2821 22.5732C34.4653 22.6631 34.6779 22.6967 34.8936 22.6539C35.416 22.5502 35.7552 22.0427 35.6515 21.5205L35.3437 19.9704L43.1993 16.2628C43.8184 15.9706 44.0834 15.2319 43.7913 14.6127C43.499 13.9937 42.7599 13.7287 42.1412 14.0207L33.6672 18.0202C33.37 18.1606 33.1405 18.4132 33.0294 18.7227L28.9938 29.9725L22.6226 27.3387C22.2114 27.1687 21.7405 27.2321 21.3895 27.5047L15.0646 32.4098L12.3921 18.9496L13.4063 19.6278C13.7226 19.8391 14.0944 19.9024 14.4401 19.8337C14.786 19.7651 15.1055 19.5646 15.3169 19.2484C15.7397 18.6162 15.5698 17.7607 14.9375 17.3377L11.1591 14.8113C10.5269 14.3886 9.67162 14.5583 9.24842 15.1906L6.72169 18.9691C6.29889 19.6013 6.46874 20.4568 7.10104 20.8798C7.73346 21.3025 8.58867 21.1327 9.01174 20.5004L9.69 19.4861L15.1537 47.005L14.2756 47.1794C13.5295 47.3275 13.0447 48.0524 13.1929 48.7985C13.341 49.5446 14.0659 50.0294 14.812 49.8812L15.6901 49.7069L15.8645 50.585C16.0126 51.3311 16.7375 51.8159 17.4836 51.6677C18.2297 51.5196 18.7145 50.7946 18.5663 50.0486L18.392 49.1705L48.14 43.2642L47.4618 44.2784C47.039 44.9106 47.2089 45.7661 47.8412 46.1891C48.1574 46.4004 48.5293 46.4637 48.875 46.395C49.2207 46.3264 49.5403 46.1259 49.7517 45.8097L52.2783 42.0315C52.4814 41.7278 52.5555 41.3559 52.4843 40.9976C52.4134 40.6391 52.2029 40.3237 51.8993 40.1207Z" fill="#2E2E2E"/>
<path d="M30.5531 35.803C30.0307 35.9067 29.6915 36.4141 29.7952 36.9364L30.3048 39.5033C30.4085 40.0255 30.916 40.3649 31.4382 40.2612C31.9605 40.1575 32.2998 39.65 32.1961 39.1278L31.6865 36.5609C31.5828 36.0386 31.0755 35.6992 30.5531 35.803Z" fill="#F7D033"/>
<path d="M23.9999 37.8059C23.4775 37.9096 23.1383 38.4171 23.242 38.9393L23.7516 41.5062C23.8553 42.0286 24.3628 42.3678 24.885 42.2641C25.4073 42.1604 25.7466 41.6529 25.6429 41.1307L25.1333 38.5638C25.0296 38.0416 24.5221 37.7022 23.9999 37.8059Z" fill="#F7D033"/>
<path d="M24.1138 33.43C24.0101 32.9078 23.5026 32.5684 22.9803 32.6721C22.4581 32.7758 22.1187 33.2833 22.2224 33.8055L22.7321 36.3724C22.8357 36.8947 23.3432 37.234 23.8655 37.1303C24.3877 37.0266 24.7271 36.5191 24.6234 35.9969L24.1138 33.43Z" fill="#F7D033"/>
<path d="M37.1802 29.221C37.0765 28.6986 36.569 28.3594 36.0467 28.4631C35.5245 28.5668 35.1851 29.0743 35.2888 29.5965L35.7985 32.1634C35.9022 32.6858 36.4096 33.025 36.9319 32.9213C37.4543 32.8176 37.7935 32.3102 37.6898 31.7879L37.1802 29.221Z" fill="#F7D033"/>
<path d="M36.1611 24.0872C36.0574 23.5649 35.55 23.2256 35.0277 23.3293C34.5054 23.433 34.1661 23.9405 34.2698 24.4628L34.7794 27.0296C34.8831 27.552 35.3906 27.8912 35.9129 27.7875C36.4352 27.6838 36.7745 27.1764 36.6708 26.6541L36.1611 24.0872Z" fill="#F7D033"/>
<path d="M37.0663 33.5969C36.544 33.7006 36.2047 34.2081 36.3084 34.7303L36.818 37.2972C36.9217 37.8195 37.4292 38.1588 37.9514 38.0551C38.4738 37.9514 38.813 37.444 38.7093 36.9217L38.1997 34.3548C38.096 33.8326 37.5885 33.4932 37.0663 33.5969Z" fill="#F7D033"/>
</g>
</svg>
