<svg width="45" height="45" viewBox="0 0 45 45" fill="none" xmlns="http://www.w3.org/2000/svg">
<g clip-path="url(#clip0)">
<path d="M29.9839 14.0393C29.875 12.8841 28.9047 12.0016 27.7443 12.0023H26.9945V8.25306C26.9905 6.79946 26.146 5.47943 24.8278 4.86669C25.2564 4.34033 25.4919 3.68295 25.4948 3.00413C25.4948 1.34764 24.1519 0.00476074 22.4954 0.00476074C20.8389 0.00476074 19.496 1.34764 19.496 3.00413C19.4989 3.68295 19.7343 4.34033 20.163 4.86669C19.6022 5.13066 19.1155 5.52917 18.7462 6.02671C18.3768 5.52917 17.89 5.13066 17.3294 4.86669C17.7581 4.34033 17.9935 3.68295 17.9964 3.00413C17.9964 1.34764 16.6535 0.00476074 14.997 0.00476074C13.3405 0.00476074 11.9976 1.34764 11.9976 3.00413C12.0005 3.68295 12.2359 4.34033 12.6646 4.86669C12.1039 5.13066 11.6171 5.52917 11.2478 6.02671C10.8784 5.52917 10.3916 5.13066 9.83102 4.86669C10.2597 4.34033 10.4951 3.68295 10.498 3.00413C10.498 1.34764 9.1551 0.00476074 7.4986 0.00476074C5.8421 0.00476074 4.49896 1.34755 4.49896 3.00413C4.50186 3.68295 4.73728 4.34033 5.16592 4.86669C3.84774 5.47943 3.00319 6.79946 2.99923 8.25306V12.0023H2.24941C1.08905 12.0016 0.118753 12.8841 0.0097903 14.0393C-0.0990845 15.1946 0.689225 16.2429 1.82929 16.4589L11.9974 30.9851V44.2459C11.9974 44.5224 12.1496 44.7765 12.3935 44.907C12.6373 45.0374 12.9331 45.0231 13.1633 44.8697L17.6624 41.8703C17.871 41.7312 17.9962 41.4971 17.9963 41.2464V30.9851L28.1644 16.459C29.3045 16.2429 30.0928 15.1946 29.9839 14.0393ZM22.4954 1.5044C23.3237 1.5044 23.9951 2.17584 23.9951 3.00413C23.9951 3.83243 23.3237 4.50386 22.4954 4.50386C21.6671 4.50386 20.9956 3.83243 20.9956 3.00413C20.9966 2.17619 21.6675 1.50537 22.4954 1.5044ZM19.496 8.25306C19.4973 7.01124 20.5037 6.00483 21.7456 6.00351H23.2453C24.4871 6.00483 25.4935 7.01124 25.4948 8.25306V12.0023H22.4955V9.00297C22.4955 8.58882 22.1598 8.25315 21.7456 8.25315C21.3315 8.25315 20.9958 8.58882 20.9958 9.00297V12.0023H19.4961V8.25306H19.496ZM14.9969 1.5044C15.8252 1.5044 16.4966 2.17584 16.4966 3.00413C16.4966 3.83243 15.8252 4.50386 14.9969 4.50386C14.1686 4.50386 13.4972 3.83243 13.4972 3.00413C13.4981 2.17619 14.169 1.50537 14.9969 1.5044ZM11.9974 8.25306C11.9988 7.01124 13.0052 6.00483 14.247 6.00351H15.7467C16.9885 6.00483 17.995 7.01124 17.9963 8.25306V12.0023H14.9969V9.00297C14.9969 8.58882 14.6612 8.25315 14.2471 8.25315C13.8329 8.25315 13.4973 8.58882 13.4973 9.00297V12.0023H11.9975V8.25306H11.9974ZM7.49834 1.5044C8.32663 1.5044 8.99807 2.17584 8.99807 3.00413C8.99807 3.83243 8.32663 4.50378 7.49834 4.50378C6.67004 4.50378 5.99869 3.83234 5.99869 3.00413C5.99966 2.17619 6.67048 1.50537 7.49834 1.5044ZM4.49896 8.25306C4.50028 7.01124 5.50669 6.00483 6.74852 6.00351H8.24825C9.49007 6.00483 10.4965 7.01124 10.4978 8.25306V12.0023H7.49834V9.00297C7.49834 8.58882 7.16266 8.25315 6.74852 8.25315C6.33437 8.25315 5.99869 8.58882 5.99869 9.00297V12.0023H4.49896V8.25306ZM25.2545 18.0011H18.7461C18.332 18.0011 17.9963 18.3369 17.9963 18.7509C17.9963 19.1651 18.332 19.5007 18.7461 19.5007H24.2047L23.1549 21.0005H17.2464C16.8322 21.0005 16.4965 21.3361 16.4965 21.7503C16.4965 22.1644 16.8322 22.5001 17.2464 22.5001H22.105L21.0552 23.9998H15.7466C15.3325 23.9998 14.9968 24.3356 14.9968 24.7497C14.9968 25.1637 15.3325 25.4995 15.7466 25.4995H20.0054L18.9556 26.9992H14.2469C13.8328 26.9992 13.4971 27.3349 13.4971 27.749C13.4971 28.1632 13.8328 28.4988 14.2469 28.4988H17.9057L16.6319 30.3185C16.5436 30.4445 16.4964 30.5946 16.4964 30.7484V40.845L13.497 42.8448V30.7486C13.497 30.5948 13.4497 30.4447 13.3615 30.3187L3.68948 16.5014H26.3043L25.2545 18.0011ZM2.24941 15.0017C1.83527 15.0017 1.49959 14.666 1.49959 14.2519C1.49959 13.8377 1.83527 13.5021 2.24941 13.5021H27.7443C28.1583 13.5025 28.4938 13.8379 28.4941 14.2519C28.4937 14.6659 28.1583 15.0014 27.7443 15.0017H2.24941Z" fill="#FECC2F"/>
<path d="M44.9266 25.1583C44.4157 21.3408 41.3288 18.3861 37.4926 18.0427V4.06422L39.9618 6.53346C40.1508 6.72484 40.4279 6.80033 40.6878 6.73126C40.9477 6.66219 41.1508 6.45912 41.2199 6.19919C41.289 5.93926 41.2135 5.66219 41.0221 5.47318L37.2728 1.7239C37.2661 1.71722 37.2571 1.71528 37.2502 1.70887C37.1862 1.64674 37.1115 1.59674 37.0297 1.56124L37.027 1.56063C37.0207 1.55808 37.0139 1.55817 37.0076 1.55571C36.9312 1.52715 36.8507 1.51151 36.7692 1.50931C36.7447 1.50843 36.7216 1.51151 36.6971 1.513C36.6323 1.51687 36.5683 1.52935 36.5068 1.55C36.4827 1.5572 36.459 1.56564 36.4358 1.57539C36.3529 1.61089 36.2772 1.66116 36.2123 1.72381L32.4631 5.47309C32.1703 5.76588 32.1703 6.24066 32.4631 6.53346C32.7559 6.82625 33.2306 6.82625 33.5234 6.53346L35.9927 4.06422V18.0414C35.262 18.1067 34.5434 18.2689 33.8555 18.5237C30.2474 19.8681 28.0501 23.5304 28.5618 27.3466C29.0734 31.1629 32.158 34.117 35.9927 34.4635V40.4965C35.9916 41.3244 35.3208 41.9951 34.4929 41.9962H19.4962C19.082 41.9962 18.7463 42.3319 18.7463 42.7461C18.7463 43.1602 19.082 43.4959 19.4962 43.4959H34.4932C36.1491 43.4942 37.491 42.1523 37.4926 40.4965V34.4674C38.2221 34.3995 38.9394 34.2351 39.6257 33.9784C43.2365 32.6382 45.4376 28.9758 44.9266 25.1583ZM40.8773 31.5593C38.5517 33.3636 35.324 33.4492 32.906 31.7708C30.488 30.0924 29.4396 27.0385 30.3168 24.2288C31.1939 21.4192 33.7936 19.5041 36.7369 19.4995L36.7428 19.5007L36.7486 19.4995C39.5619 19.5075 42.0764 21.2562 43.063 23.8907C44.0879 26.6498 43.2028 29.755 40.8773 31.5593Z" fill="#FECC2F"/>
<path d="M39.191 22.6883L39.2909 22.4693C39.4618 22.0926 39.2954 21.6486 38.919 21.477C38.5427 21.3053 38.0983 21.4708 37.926 21.8469L37.8262 22.0658C36.6249 21.7286 35.3506 22.27 34.7593 23.3686C34.3162 24.5354 34.7424 25.8534 35.7849 26.5397L34.939 28.3936C34.8397 28.2905 34.7551 28.1741 34.6875 28.0478C34.5525 27.8088 34.5312 27.5221 34.6292 27.2658C34.7409 27.022 34.7139 26.7371 34.5584 26.5187C34.403 26.3002 34.1426 26.1815 33.8757 26.2072C33.6089 26.2329 33.376 26.3992 33.265 26.6433C32.9743 27.3135 33.0053 28.0797 33.3489 28.7244C33.5749 29.1553 33.8971 29.5283 34.2905 29.8147L34.1909 30.0329C34.0191 30.4097 34.1851 30.8545 34.562 31.0265C34.9388 31.1984 35.3836 31.0323 35.5555 30.6554L35.6518 30.4444C35.8803 30.494 36.1133 30.5193 36.3472 30.5199C37.3427 30.566 38.2726 30.0232 38.7219 29.1337C39.0132 28.4637 38.9826 27.6971 38.6385 27.0526C38.4125 26.6218 38.0904 26.2487 37.697 25.9624L38.5436 24.1071C38.8628 24.3881 38.9841 24.8321 38.8523 25.2365C38.6805 25.6134 38.8467 26.0583 39.2236 26.2302C39.6005 26.4021 40.0454 26.2358 40.2173 25.8589C40.66 24.6922 40.2334 23.3745 39.191 22.6883ZM36.1239 23.991C36.343 23.6269 36.7577 23.4277 37.1789 23.4845L36.4324 25.1206C36.1133 24.8393 35.9921 24.3954 36.1239 23.991ZM37.3578 28.5114C37.1385 28.8754 36.7241 29.0744 36.3029 29.0179L37.0487 27.3834C37.148 27.4866 37.2325 27.6029 37.2999 27.7293C37.4351 27.9682 37.4564 28.2551 37.3578 28.5114Z" fill="#FECC2F"/>
</g>
<defs>
<clipPath id="clip0">
<rect width="45" height="45" fill="white"/>
</clipPath>
</defs>
</svg>
