<svg width="49" height="49" viewBox="0 0 49 49" fill="none" xmlns="http://www.w3.org/2000/svg">
<path d="M43.8238 37.2829H4.57861C3.71155 37.2818 2.88031 36.9369 2.26721 36.3238C1.65411 35.7107 1.30921 34.8795 1.30817 34.0124V5.23259C1.30921 4.36554 1.65411 3.53429 2.26721 2.92119C2.88031 2.30809 3.71155 1.9632 4.57861 1.96216H19.3152C19.4887 1.96216 19.655 2.03107 19.7777 2.15374C19.9004 2.2764 19.9693 2.44277 19.9693 2.61625C19.9693 2.78972 19.9004 2.95609 19.7777 3.07875C19.655 3.20142 19.4887 3.27033 19.3152 3.27033H4.57861C4.05819 3.27033 3.55908 3.47707 3.19108 3.84507C2.82309 4.21306 2.61635 4.71217 2.61635 5.23259V34.0124C2.61635 34.5328 2.82309 35.032 3.19108 35.3999C3.55908 35.7679 4.05819 35.9747 4.57861 35.9747H43.8238C44.3443 35.9747 44.8434 35.7679 45.2114 35.3999C45.5794 35.032 45.7861 34.5328 45.7861 34.0124V5.23259C45.7861 4.71217 45.5794 4.21306 45.2114 3.84507C44.8434 3.47707 44.3443 3.27033 43.8238 3.27033H36.8905C36.717 3.27033 36.5507 3.20142 36.428 3.07875C36.3053 2.95609 36.2364 2.78972 36.2364 2.61625C36.2364 2.44277 36.3053 2.2764 36.428 2.15374C36.5507 2.03107 36.717 1.96216 36.8905 1.96216H43.8238C44.6909 1.9632 45.5221 2.30809 46.1352 2.92119C46.7483 3.53429 47.0932 4.36554 47.0943 5.23259V34.0124C47.0932 34.8795 46.7483 35.7107 46.1352 36.3238C45.5221 36.9369 44.6909 37.2818 43.8238 37.2829V37.2829ZM32.3119 3.27033H30.3758C30.2023 3.27033 30.036 3.20142 29.9133 3.07875C29.7906 2.95609 29.7217 2.78972 29.7217 2.61625C29.7217 2.44277 29.7906 2.2764 29.9133 2.15374C30.036 2.03107 30.2023 1.96216 30.3758 1.96216H32.3119C32.4854 1.96216 32.6517 2.03107 32.7744 2.15374C32.8971 2.2764 32.966 2.44277 32.966 2.61625C32.966 2.78972 32.8971 2.95609 32.7744 3.07875C32.6517 3.20142 32.4854 3.27033 32.3119 3.27033ZM25.7972 3.27033H23.8938C23.7203 3.27033 23.554 3.20142 23.4313 3.07875C23.3086 2.95609 23.2397 2.78972 23.2397 2.61625C23.2397 2.44277 23.3086 2.2764 23.4313 2.15374C23.554 2.03107 23.7203 1.96216 23.8938 1.96216H25.7972C25.9707 1.96216 26.137 2.03107 26.2597 2.15374C26.3824 2.2764 26.4513 2.44277 26.4513 2.61625C26.4513 2.78972 26.3824 2.95609 26.2597 3.07875C26.137 3.20142 25.9707 3.27033 25.7972 3.27033Z" fill="#FECC2F"/>
<path d="M46.4402 28.7796H1.96226C1.78879 28.7796 1.62242 28.7107 1.49975 28.588C1.37709 28.4654 1.30817 28.299 1.30817 28.1255C1.30817 27.952 1.37709 27.7857 1.49975 27.663C1.62242 27.5403 1.78879 27.4714 1.96226 27.4714H46.4402C46.6137 27.4714 46.78 27.5403 46.9027 27.663C47.0254 27.7857 47.0943 27.952 47.0943 28.1255C47.0943 28.299 47.0254 28.4654 46.9027 28.588C46.78 28.7107 46.6137 28.7796 46.4402 28.7796Z" fill="#FECC2F"/>
<path d="M35.3207 46.44H13.0817C12.955 46.4401 12.831 46.4033 12.7248 46.3343C12.6186 46.2652 12.5347 46.1668 12.4834 46.0509C12.4321 45.9351 12.4155 45.8069 12.4357 45.6818C12.4558 45.5567 12.5119 45.4402 12.597 45.3464C15.235 42.437 16.2534 39.6251 15.7098 36.7504C15.6919 36.6559 15.6951 36.5586 15.7191 36.4655C15.7431 36.3723 15.7874 36.2856 15.8487 36.2116C15.91 36.1375 15.9869 36.0778 16.074 36.0369C16.161 35.9959 16.256 35.9747 16.3521 35.9746H31.3961C31.4924 35.9746 31.5876 35.9959 31.6747 36.0369C31.7618 36.078 31.8388 36.1377 31.9002 36.212C31.9615 36.2862 32.0057 36.3731 32.0297 36.4664C32.0536 36.5597 32.0566 36.6571 32.0385 36.7517C31.3386 40.4015 34.0282 44.2115 35.666 45.2306C35.7867 45.3057 35.8796 45.418 35.9307 45.5506C35.9818 45.6832 35.9884 45.8289 35.9494 45.9655C35.9103 46.1022 35.8279 46.2224 35.7144 46.308C35.601 46.3936 35.4628 46.44 35.3207 46.44V46.44ZM14.4867 45.1318H33.5644C31.8867 43.3004 30.4039 40.2347 30.6479 37.2828H17.1083C17.3791 39.9129 16.5 42.5449 14.4867 45.1318Z" fill="#FECC2F"/>
<path d="M24.2013 34.6619C23.7412 34.662 23.2914 34.5257 22.9088 34.2702C22.5262 34.0146 22.228 33.6514 22.0518 33.2263C21.8757 32.8013 21.8296 32.3336 21.9193 31.8823C22.0091 31.4311 22.2306 31.0166 22.5559 30.6913C22.8812 30.3659 23.2957 30.1444 23.747 30.0547C24.1982 29.9649 24.666 30.0111 25.091 30.1872C25.516 30.3633 25.8793 30.6615 26.1348 31.0441C26.3903 31.4267 26.5267 31.8765 26.5265 32.3366C26.5258 32.9531 26.2806 33.5441 25.8447 33.9801C25.4088 34.416 24.8177 34.6612 24.2013 34.6619V34.6619ZM24.2013 31.3188C23.9999 31.3187 23.8031 31.3783 23.6356 31.49C23.4682 31.6018 23.3376 31.7607 23.2605 31.9467C23.1834 32.1326 23.1631 32.3373 23.2023 32.5348C23.2415 32.7322 23.3384 32.9136 23.4807 33.056C23.623 33.1984 23.8044 33.2954 24.0018 33.3348C24.1992 33.3741 24.4039 33.354 24.5899 33.2769C24.7759 33.1999 24.9349 33.0695 25.0468 32.9021C25.1587 32.7347 25.2184 32.5379 25.2184 32.3366C25.218 32.0669 25.1108 31.8083 24.9201 31.6175C24.7295 31.4268 24.471 31.3194 24.2013 31.3188V31.3188Z" fill="#FECC2F"/>
<path d="M30.7421 17.8069H27.6404C27.4669 17.8069 27.3006 17.7379 27.1779 17.6153C27.0552 17.4926 26.9863 17.3262 26.9863 17.1528C26.9863 16.9793 27.0552 16.8129 27.1779 16.6903C27.3006 16.5676 27.4669 16.4987 27.6404 16.4987H30.7421C30.9444 16.5046 31.1459 16.4699 31.3346 16.3966C31.5232 16.3233 31.6953 16.2128 31.8405 16.0718C31.9857 15.9308 32.1012 15.7621 32.18 15.5757C32.2588 15.3892 32.2995 15.1889 32.2995 14.9864C32.2995 14.784 32.2588 14.5836 32.18 14.3972C32.1012 14.2108 31.9857 14.042 31.8405 13.901C31.6953 13.76 31.5232 13.6496 31.3346 13.5763C31.1459 13.5029 30.9444 13.4682 30.7421 13.4742H30.4674C30.376 13.4742 30.2856 13.455 30.202 13.4179C30.1184 13.3809 30.0436 13.3267 29.9823 13.2589C29.921 13.1911 29.8745 13.1112 29.846 13.0243C29.8174 12.9375 29.8074 12.8456 29.8165 12.7547C29.9127 11.7956 29.6729 10.8329 29.138 10.0311C28.6031 9.22928 27.8064 8.63808 26.8839 8.3585C25.9615 8.07893 24.9706 8.12835 24.0806 8.49831C23.1905 8.86828 22.4566 9.53582 22.0041 10.3869C21.9416 10.5044 21.8448 10.6 21.7265 10.661C21.6082 10.722 21.4742 10.7455 21.3422 10.7283C21.2338 10.713 21.1246 10.7049 21.0152 10.7041C20.4014 10.7056 19.8089 10.9292 19.3473 11.3337C18.8857 11.7382 18.5861 12.2962 18.5041 12.9045C18.4833 13.0617 18.4061 13.206 18.2869 13.3106C18.1677 13.4151 18.0145 13.4728 17.8559 13.4729H17.6603C17.2591 13.4729 16.8743 13.6323 16.5906 13.916C16.3068 14.1997 16.1474 14.5845 16.1474 14.9858C16.1474 15.387 16.3068 15.7718 16.5906 16.0556C16.8743 16.3393 17.2591 16.4987 17.6603 16.4987H20.0085C20.182 16.4987 20.3484 16.5676 20.471 16.6903C20.5937 16.8129 20.6626 16.9793 20.6626 17.1528C20.6626 17.3262 20.5937 17.4926 20.471 17.6153C20.3484 17.7379 20.182 17.8069 20.0085 17.8069H17.6603C16.9413 17.8072 16.2493 17.5329 15.7257 17.0401C15.2021 16.5473 14.8864 15.8732 14.8432 15.1555C14.7999 14.4378 15.0324 13.7306 15.493 13.1785C15.9536 12.6264 16.6077 12.271 17.3215 12.185C17.553 11.3728 18.0456 10.6595 18.7232 10.1554C19.4008 9.65139 20.2257 9.38469 21.0701 9.3966C21.6995 8.40907 22.6293 7.64968 23.7227 7.23023C24.8161 6.81078 26.0152 6.75342 27.1436 7.06659C28.272 7.37977 29.2701 8.04694 29.9909 8.96989C30.7117 9.89283 31.1172 11.0228 31.1476 12.1935C31.854 12.2952 32.4955 12.6607 32.9431 13.2166C33.3906 13.7725 33.6109 14.4773 33.5594 15.1891C33.508 15.9008 33.1888 16.5667 32.666 17.0524C32.1432 17.5382 31.4557 17.8078 30.7421 17.8069V17.8069Z" fill="#FECC2F"/>
<path d="M24.2012 21.3989C24.0277 21.3989 23.8613 21.33 23.7387 21.2073C23.616 21.0847 23.5471 20.9183 23.5471 20.7448V13.8233C23.5471 13.6498 23.616 13.4834 23.7387 13.3608C23.8613 13.2381 24.0277 13.1692 24.2012 13.1692C24.3747 13.1692 24.541 13.2381 24.6637 13.3608C24.7864 13.4834 24.8553 13.6498 24.8553 13.8233V20.7448C24.8553 20.9183 24.7864 21.0847 24.6637 21.2073C24.541 21.33 24.3747 21.3989 24.2012 21.3989Z" fill="#FECC2F"/>
<path d="M24.2013 21.4277C24.1153 21.428 24.0302 21.4112 23.9508 21.3783C23.8715 21.3454 23.7994 21.297 23.7388 21.2361L21.9728 19.4701C21.8536 19.3467 21.7877 19.1815 21.7892 19.01C21.7907 18.8385 21.8595 18.6744 21.9808 18.5531C22.102 18.4319 22.2661 18.3631 22.4376 18.3616C22.6091 18.3601 22.7743 18.426 22.8977 18.5452L24.2013 19.8488L25.5022 18.5478C25.6268 18.4352 25.7899 18.3748 25.9577 18.3791C26.1256 18.3834 26.2853 18.4521 26.4039 18.571C26.5225 18.6898 26.5909 18.8497 26.5948 19.0176C26.5988 19.1854 26.538 19.3484 26.4252 19.4727L24.6591 21.2387C24.5375 21.3597 24.3729 21.4277 24.2013 21.4277Z" fill="#FECC2F"/>
<path d="M28.9433 23.8741H19.459C19.2856 23.8741 19.1192 23.8051 18.9965 23.6825C18.8739 23.5598 18.805 23.3934 18.805 23.22V21.1485C18.805 20.975 18.8739 20.8086 18.9965 20.686C19.1192 20.5633 19.2856 20.4944 19.459 20.4944C19.6325 20.4944 19.7989 20.5633 19.9216 20.686C20.0442 20.8086 20.1131 20.975 20.1131 21.1485V22.5659H28.2892V21.1485C28.2892 20.975 28.3581 20.8086 28.4808 20.686C28.6035 20.5633 28.7698 20.4944 28.9433 20.4944C29.1168 20.4944 29.2831 20.5633 29.4058 20.686C29.5285 20.8086 29.5974 20.975 29.5974 21.1485V23.22C29.5974 23.3934 29.5285 23.5598 29.4058 23.6825C29.2831 23.8051 29.1168 23.8741 28.9433 23.8741Z" fill="#FECC2F"/>
</svg>
