<svg width="50" height="50" viewBox="0 0 50 50" fill="none" xmlns="http://www.w3.org/2000/svg">
<g clip-path="url(#clip0_811_2534)">
<path d="M49.0585 17.3139C48.9204 17.2539 45.5535 15.7953 25.6197 7.1571C25.2232 6.98521 24.774 6.98521 24.3775 7.1571L0.938727 17.3139C-0.318957 17.8578 -0.306847 19.643 0.938727 20.1812C5.49209 22.1541 12.9359 25.3801 24.3775 30.338C24.7716 30.5089 25.2209 30.511 25.6197 30.338C26.7062 29.8672 41.5103 23.452 42.187 23.1589V39.7986C42.187 40.6402 42.8341 41.3642 43.6749 41.4032C44.5722 41.445 45.3122 40.7305 45.3122 39.8424V22.5922C45.3122 22.3467 45.1303 22.1393 44.8867 22.108C41.9539 21.73 28.1222 19.9448 24.7984 19.5161C23.837 19.396 23.2379 18.4225 23.4907 17.5561C23.6889 16.8243 24.3837 16.3582 25.0875 16.4066C25.1576 16.4107 47.4256 19.2843 47.4096 19.2822C47.8257 19.3358 48.1677 19.6022 48.3319 19.9634C48.4468 20.216 48.7392 20.3317 48.9904 20.2139C49.4108 20.0169 49.7755 19.7575 49.9413 19.1704C50.1548 18.4097 49.769 17.6211 49.0585 17.3139Z" fill="#212121"/>
<path d="M23.1345 33.2051L10.0555 27.5377C9.73303 27.3979 9.37305 27.6343 9.37305 27.9857V33.5919C9.37305 38.849 16.2367 42.9674 24.9989 42.9674C33.761 42.9674 40.6247 38.849 40.6247 33.5919V27.9857C40.6247 27.6343 40.2647 27.398 39.9422 27.5377L26.8622 33.2051C25.6747 33.7214 24.3232 33.721 23.1345 33.2051Z" fill="#212121"/>
</g>
<defs>
<clipPath id="clip0_811_2534">
<rect width="50" height="50" fill="white"/>
</clipPath>
</defs>
</svg>
