<svg width="40" height="188" viewBox="0 0 40 188" fill="none" xmlns="http://www.w3.org/2000/svg">
<path d="M18.6464 186.854C18.8417 187.049 19.1583 187.049 19.3535 186.854L22.5355 183.672C22.7308 183.476 22.7308 183.16 22.5355 182.964C22.3403 182.769 22.0237 182.769 21.8284 182.964L19 185.793L16.1716 182.964C15.9763 182.769 15.6597 182.769 15.4645 182.964C15.2692 183.16 15.2692 183.476 15.4645 183.672L18.6464 186.854ZM18.5 26L18.5 28.5078L19.5 28.5078L19.5 26L18.5 26ZM18.5 33.5234L18.5 38.5391L19.5 38.5391L19.5 33.5234L18.5 33.5234ZM18.5 43.5547L18.5 48.5703L19.5 48.5703L19.5 43.5547L18.5 43.5547ZM18.5 53.5859L18.5 58.6016L19.5 58.6016L19.5 53.5859L18.5 53.5859ZM18.5 63.6172L18.5 68.6328L19.5 68.6328L19.5 63.6172L18.5 63.6172ZM18.5 73.6484L18.5 78.6641L19.5 78.6641L19.5 73.6484L18.5 73.6484ZM18.5 83.6797L18.5 88.6953L19.5 88.6953L19.5 83.6797L18.5 83.6797ZM18.5 93.7109L18.5 98.7266L19.5 98.7266L19.5 93.7109L18.5 93.7109ZM18.5 103.742L18.5 108.758L19.5 108.758L19.5 103.742L18.5 103.742ZM18.5 113.773L18.5 118.789L19.5 118.789L19.5 113.773L18.5 113.773ZM18.5 123.805L18.5 128.82L19.5 128.82L19.5 123.805L18.5 123.805ZM18.5 133.836L18.5 138.852L19.5 138.852L19.5 133.836L18.5 133.836ZM18.5 143.867L18.5 148.883L19.5 148.883L19.5 143.867L18.5 143.867ZM18.5 153.898L18.5 158.914L19.5 158.914L19.5 153.898L18.5 153.898ZM18.5 163.93L18.5 168.945L19.5 168.945L19.5 163.93L18.5 163.93ZM18.5 173.961L18.5 178.977L19.5 178.977L19.5 173.961L18.5 173.961ZM18.5 183.992L18.5 186.5L19.5 186.5L19.5 183.992L18.5 183.992ZM18.2929 187.207C18.6834 187.598 19.3166 187.598 19.7071 187.207L26.0711 180.843C26.4616 180.453 26.4616 179.819 26.0711 179.429C25.6805 179.038 25.0474 179.038 24.6568 179.429L19 185.086L13.3431 179.429C12.9526 179.038 12.3194 179.038 11.9289 179.429C11.5384 179.819 11.5384 180.453 11.9289 180.843L18.2929 187.207ZM18 26L18 28.5078L20 28.5078L20 26L18 26ZM18 33.5234L18 38.5391L20 38.5391L20 33.5234L18 33.5234ZM18 43.5547L18 48.5703L20 48.5703L20 43.5547L18 43.5547ZM18 53.5859L18 58.6016L20 58.6016L20 53.5859L18 53.5859ZM18 63.6172L18 68.6328L20 68.6328L20 63.6172L18 63.6172ZM18 73.6484L18 78.6641L20 78.6641L20 73.6484L18 73.6484ZM18 83.6797L18 88.6953L20 88.6953L20 83.6797L18 83.6797ZM18 93.7109L18 98.7266L20 98.7266L20 93.7109L18 93.7109ZM18 103.742L18 108.758L20 108.758L20 103.742L18 103.742ZM18 113.773L18 118.789L20 118.789L20 113.773L18 113.773ZM18 123.805L18 128.82L20 128.82L20 123.805L18 123.805ZM18 133.836L18 138.852L20 138.852L20 133.836L18 133.836ZM18 143.867L18 148.883L20 148.883L20 143.867L18 143.867ZM18 153.898L18 158.914L20 158.914L20 153.898L18 153.898ZM18 163.93L18 168.945L20 168.945L20 163.93L18 163.93ZM18 173.961L18 178.977L20 178.977L20 173.961L18 173.961ZM18 183.992L18 186.5L20 186.5L20 183.992L18 183.992Z" fill="#E7B518"/>
<rect width="39" height="19" transform="translate(1)" fill="#333333"/>
<path d="M11.175 6.623C11.175 7.065 11.0927 7.51133 10.928 7.962C10.772 8.41267 10.5683 8.85467 10.317 9.288C10.0743 9.72133 9.80133 10.1417 9.498 10.549C9.20333 10.9477 8.913 11.316 8.627 11.654L7.938 12.187V12.252L8.874 12.07H11.37V13.5H5.897V12.629C6.105 12.4123 6.339 12.161 6.599 11.875C6.859 11.5803 7.119 11.2727 7.379 10.952C7.64767 10.6227 7.90767 10.2847 8.159 9.938C8.41033 9.59133 8.63567 9.24467 8.835 8.898C9.03433 8.54267 9.19033 8.20033 9.303 7.871C9.42433 7.54167 9.485 7.22967 9.485 6.935C9.485 6.57967 9.381 6.28933 9.173 6.064C8.97367 5.83 8.653 5.713 8.211 5.713C7.93367 5.713 7.64767 5.77367 7.353 5.895C7.067 6.00767 6.82433 6.155 6.625 6.337L5.949 5.141C6.287 4.86367 6.66833 4.64267 7.093 4.478C7.52633 4.30467 8.03333 4.218 8.614 4.218C8.98667 4.218 9.329 4.27 9.641 4.374C9.953 4.478 10.2217 4.62967 10.447 4.829C10.6723 5.02833 10.85 5.27967 10.98 5.583C11.11 5.87767 11.175 6.22433 11.175 6.623ZM13.078 9.015H16.341V10.51H13.078V9.015ZM20.1935 12.252C20.7309 12.252 21.1382 12.109 21.4155 11.823C21.7015 11.537 21.8445 11.1903 21.8445 10.783C21.8445 10.289 21.6972 9.925 21.4025 9.691C21.1079 9.457 20.6442 9.34 20.0115 9.34H19.0755V8.443L20.6485 6.298L21.3895 5.713L20.3625 5.83H18.1785V4.4H23.1445V5.323L21.3115 7.78L20.7395 8.131V8.196L21.2855 8.118C21.5889 8.144 21.8749 8.21333 22.1435 8.326C22.4209 8.43867 22.6592 8.60333 22.8585 8.82C23.0665 9.028 23.2312 9.288 23.3525 9.6C23.4739 9.912 23.5345 10.2717 23.5345 10.679C23.5345 11.1903 23.4479 11.6323 23.2745 12.005C23.1099 12.3777 22.8759 12.6897 22.5725 12.941C22.2779 13.1923 21.9312 13.3787 21.5325 13.5C21.1339 13.6213 20.7049 13.682 20.2455 13.682C19.8642 13.682 19.4699 13.6473 19.0625 13.578C18.6552 13.5087 18.3259 13.409 18.0745 13.279L18.5295 11.875C18.7549 11.9877 19.0019 12.0787 19.2705 12.148C19.5479 12.2173 19.8555 12.252 20.1935 12.252ZM25.0995 6.454C25.0995 6.064 25.1559 5.73033 25.2685 5.453C25.3812 5.17567 25.5372 4.946 25.7365 4.764C25.9359 4.582 26.1742 4.452 26.4515 4.374C26.7375 4.28733 27.0452 4.244 27.3745 4.244C27.7039 4.244 28.0072 4.283 28.2845 4.361C28.5619 4.439 28.8002 4.56467 28.9995 4.738C29.2075 4.91133 29.3679 5.141 29.4805 5.427C29.5932 5.70433 29.6539 6.04667 29.6625 6.454C29.6539 6.86133 29.5932 7.208 29.4805 7.494C29.3679 7.77133 29.2075 7.99667 28.9995 8.17C28.8002 8.34333 28.5619 8.469 28.2845 8.547C28.0072 8.625 27.7039 8.664 27.3745 8.664C27.0452 8.664 26.7375 8.625 26.4515 8.547C26.1742 8.469 25.9359 8.34333 25.7365 8.17C25.5372 7.99667 25.3812 7.77133 25.2685 7.494C25.1559 7.208 25.0995 6.86133 25.0995 6.454ZM26.6075 6.454C26.6075 7.19933 26.8632 7.572 27.3745 7.572C27.6432 7.572 27.8339 7.494 27.9465 7.338C28.0679 7.17333 28.1329 6.87867 28.1415 6.454C28.1329 6.038 28.0679 5.74767 27.9465 5.583C27.8339 5.41833 27.6432 5.336 27.3745 5.336C27.1059 5.336 26.9109 5.41833 26.7895 5.583C26.6682 5.74767 26.6075 6.038 26.6075 6.454ZM30.3775 11.264C30.3775 10.874 30.4339 10.5403 30.5465 10.263C30.6592 9.98567 30.8152 9.756 31.0145 9.574C31.2139 9.392 31.4522 9.262 31.7295 9.184C32.0155 9.09733 32.3232 9.054 32.6525 9.054C32.9819 9.054 33.2852 9.093 33.5625 9.171C33.8399 9.249 34.0782 9.37467 34.2775 9.548C34.4855 9.72133 34.6459 9.951 34.7585 10.237C34.8712 10.5143 34.9319 10.8567 34.9405 11.264C34.9319 11.6713 34.8712 12.018 34.7585 12.304C34.6459 12.5813 34.4855 12.8067 34.2775 12.98C34.0782 13.1533 33.8399 13.279 33.5625 13.357C33.2852 13.435 32.9819 13.474 32.6525 13.474C32.3232 13.474 32.0155 13.435 31.7295 13.357C31.4522 13.279 31.2139 13.1533 31.0145 12.98C30.8152 12.8067 30.6592 12.5813 30.5465 12.304C30.4339 12.018 30.3775 11.6713 30.3775 11.264ZM31.8855 11.264C31.8855 12.0093 32.1412 12.382 32.6525 12.382C32.9212 12.382 33.1119 12.304 33.2245 12.148C33.3459 11.9833 33.4109 11.6887 33.4195 11.264C33.4109 10.848 33.3459 10.5577 33.2245 10.393C33.1119 10.2283 32.9212 10.146 32.6525 10.146C32.3839 10.146 32.1889 10.2283 32.0675 10.393C31.9462 10.5577 31.8855 10.848 31.8855 11.264ZM33.2375 4.218L34.1865 5.076L26.6985 13.682L25.7495 12.785L33.2375 4.218Z" fill="white"/>
<rect width="39" height="19" transform="translate(0 135)" fill="#ED8E00"/>
<path d="M3.813 147.07H5.62V141.935L5.815 141.051L5.191 141.818L4.034 142.611L3.319 141.636L6.283 139.244H7.232V147.07H9V148.5H3.813V147.07ZM10.396 143.937C10.396 142.342 10.669 141.159 11.215 140.388C11.761 139.608 12.5453 139.218 13.568 139.218C14.66 139.218 15.4616 139.604 15.973 140.375C16.4843 141.138 16.74 142.325 16.74 143.937C16.74 145.54 16.4626 146.732 15.908 147.512C15.362 148.292 14.5776 148.682 13.555 148.682C12.4716 148.682 11.6743 148.275 11.163 147.46C10.6516 146.637 10.396 145.462 10.396 143.937ZM12.086 143.937C12.086 144.994 12.1986 145.813 12.424 146.394C12.658 146.966 13.0393 147.252 13.568 147.252C14.0793 147.252 14.452 146.988 14.686 146.459C14.9286 145.93 15.05 145.09 15.05 143.937C15.05 142.888 14.9373 142.078 14.712 141.506C14.4866 140.934 14.101 140.648 13.555 140.648C13.035 140.648 12.658 140.917 12.424 141.454C12.1986 141.991 12.086 142.819 12.086 143.937ZM17.772 143.937C17.772 142.342 18.045 141.159 18.591 140.388C19.137 139.608 19.9213 139.218 20.944 139.218C22.036 139.218 22.8376 139.604 23.349 140.375C23.8603 141.138 24.116 142.325 24.116 143.937C24.116 145.54 23.8386 146.732 23.284 147.512C22.738 148.292 21.9536 148.682 20.931 148.682C19.8476 148.682 19.0503 148.275 18.539 147.46C18.0276 146.637 17.772 145.462 17.772 143.937ZM19.462 143.937C19.462 144.994 19.5746 145.813 19.8 146.394C20.034 146.966 20.4153 147.252 20.944 147.252C21.4553 147.252 21.828 146.988 22.062 146.459C22.3046 145.93 22.426 145.09 22.426 143.937C22.426 142.888 22.3133 142.078 22.088 141.506C21.8626 140.934 21.477 140.648 20.931 140.648C20.411 140.648 20.034 140.917 19.8 141.454C19.5746 141.991 19.462 142.819 19.462 143.937ZM25.2909 141.454C25.2909 141.064 25.3473 140.73 25.4599 140.453C25.5726 140.176 25.7286 139.946 25.9279 139.764C26.1273 139.582 26.3656 139.452 26.6429 139.374C26.9289 139.287 27.2366 139.244 27.5659 139.244C27.8953 139.244 28.1986 139.283 28.4759 139.361C28.7533 139.439 28.9916 139.565 29.1909 139.738C29.3989 139.911 29.5593 140.141 29.6719 140.427C29.7846 140.704 29.8453 141.047 29.8539 141.454C29.8453 141.861 29.7846 142.208 29.6719 142.494C29.5593 142.771 29.3989 142.997 29.1909 143.17C28.9916 143.343 28.7533 143.469 28.4759 143.547C28.1986 143.625 27.8953 143.664 27.5659 143.664C27.2366 143.664 26.9289 143.625 26.6429 143.547C26.3656 143.469 26.1273 143.343 25.9279 143.17C25.7286 142.997 25.5726 142.771 25.4599 142.494C25.3473 142.208 25.2909 141.861 25.2909 141.454ZM26.7989 141.454C26.7989 142.199 27.0546 142.572 27.5659 142.572C27.8346 142.572 28.0253 142.494 28.1379 142.338C28.2593 142.173 28.3243 141.879 28.3329 141.454C28.3243 141.038 28.2593 140.748 28.1379 140.583C28.0253 140.418 27.8346 140.336 27.5659 140.336C27.2973 140.336 27.1023 140.418 26.9809 140.583C26.8596 140.748 26.7989 141.038 26.7989 141.454ZM30.5689 146.264C30.5689 145.874 30.6253 145.54 30.7379 145.263C30.8506 144.986 31.0066 144.756 31.2059 144.574C31.4053 144.392 31.6436 144.262 31.9209 144.184C32.2069 144.097 32.5146 144.054 32.8439 144.054C33.1733 144.054 33.4766 144.093 33.7539 144.171C34.0313 144.249 34.2696 144.375 34.4689 144.548C34.6769 144.721 34.8373 144.951 34.9499 145.237C35.0626 145.514 35.1233 145.857 35.1319 146.264C35.1233 146.671 35.0626 147.018 34.9499 147.304C34.8373 147.581 34.6769 147.807 34.4689 147.98C34.2696 148.153 34.0313 148.279 33.7539 148.357C33.4766 148.435 33.1733 148.474 32.8439 148.474C32.5146 148.474 32.2069 148.435 31.9209 148.357C31.6436 148.279 31.4053 148.153 31.2059 147.98C31.0066 147.807 30.8506 147.581 30.7379 147.304C30.6253 147.018 30.5689 146.671 30.5689 146.264ZM32.0769 146.264C32.0769 147.009 32.3326 147.382 32.8439 147.382C33.1126 147.382 33.3033 147.304 33.4159 147.148C33.5373 146.983 33.6023 146.689 33.6109 146.264C33.6023 145.848 33.5373 145.558 33.4159 145.393C33.3033 145.228 33.1126 145.146 32.8439 145.146C32.5753 145.146 32.3803 145.228 32.2589 145.393C32.1376 145.558 32.0769 145.848 32.0769 146.264ZM33.4289 139.218L34.3779 140.076L26.8899 148.682L25.9409 147.785L33.4289 139.218Z" fill="white"/>
</svg>
