<svg width="49" height="49" fill="none" xmlns="http://www.w3.org/2000/svg"><g clip-path="url(#clip0)" fill="#000"><path d="M43.246 8.725l-1.633-4.9a.817.817 0 0 0-1.144-.473l-4.9 2.45a.817.817 0 0 0 .73 1.462l2.67-1.334c-7.024 12.844-19.832 21.02-33.25 21.02v1.633c14.192 0 27.716-8.725 34.96-22.384l1.015 3.042a.818.818 0 1 0 1.552-.516z"/><path d="M48.183 0H.817A.817.817 0 0 0 0 .817v36.75c0 .45.366.816.817.816h14.41l-2.94 9.56a.817.817 0 1 0 1.562.48l1.58-5.14H33.57l1.582 5.14a.817.817 0 1 0 1.562-.48l-2.942-9.56h14.41a.817.817 0 0 0 .818-.817V.816A.817.817 0 0 0 48.183 0zM15.93 41.65l1.006-3.267h15.126l1.005 3.267H15.931zm31.435-4.9H1.633V1.633h45.733V36.75z"/><path d="M9.802 30.216H6.535a.817.817 0 0 0-.816.817V34.3c0 .45.365.816.816.816h3.267a.817.817 0 0 0 .817-.816v-3.267a.817.817 0 0 0-.817-.817zm-.817 3.267H7.352V31.85h1.633v1.633zm8.981-4.9H14.7a.817.817 0 0 0-.816.817v4.9c0 .45.366.816.817.816h3.266a.817.817 0 0 0 .817-.816v-4.9a.817.817 0 0 0-.817-.817zm-.817 4.9h-1.633v-3.267h1.633v3.267zm8.985-8.167h-3.267a.817.817 0 0 0-.816.817V34.3c0 .45.365.816.816.816h3.267a.817.817 0 0 0 .817-.816v-8.167a.817.817 0 0 0-.817-.817zm-.817 8.167h-1.633V26.95h1.633v6.533zm8.981-13.067h-3.267a.817.817 0 0 0-.816.817V34.3c0 .45.366.816.817.816h3.266a.817.817 0 0 0 .817-.816V21.233a.817.817 0 0 0-.817-.817zm-.817 13.067h-1.633V22.05h1.633v11.433zm8.985-22.05H39.2a.817.817 0 0 0-.816.817V34.3c0 .45.365.816.816.816h3.267a.817.817 0 0 0 .817-.816V12.25a.817.817 0 0 0-.817-.817zm-.816 22.05h-1.634V13.066h1.634v20.417z"/></g><defs><clipPath id="clip0"><path fill="#fff" d="M0 0h49v49H0z"/></clipPath></defs></svg>