<svg width="52" height="52" fill="none" xmlns="http://www.w3.org/2000/svg"><path d="M23.394 33.96a1.018 1.018 0 0 0 0-1.438 1.018 1.018 0 0 0-1.437 0 1.018 1.018 0 0 0 0 1.437c.398.396 1.04.396 1.437 0zm.372-23.905v2.031a6.092 6.092 0 0 0 6.093 6.094 6.1 6.1 0 0 0 6.094-6.094v-2.03a1.016 1.016 0 1 0 0-2.032h-2.03a1.016 1.016 0 1 0 0 2.031v2.031a4.062 4.062 0 1 1-8.125 0v-2.03a1.016 1.016 0 1 0-.001-2.032h-2.031a1.016 1.016 0 1 0 0 2.031z" fill="#FECC2F"/><path d="M11.803 49.861a1.012 1.012 0 0 0 1.436 0l3.119-3.119a4.702 4.702 0 0 0 1.364-3.81l1.118-1.08a4.712 4.712 0 0 1 3.285-1.327h13.372a9.09 9.09 0 0 0 6.375-2.591.945.945 0 0 0 .072-.078l9.099-10.926a4.068 4.068 0 0 0-.483-5.726 4.073 4.073 0 0 0-5.7.455l-.983 1.016V2.844c0-.561-.456-1.016-1.016-1.016H16.758c-.56 0-1.015.455-1.015 1.016v22.755c-3.934.825-7.053 3.267-8.733 6.836a4.69 4.69 0 0 0-3.576 1.379L.299 36.933a1.017 1.017 0 0 0-.001 1.438l11.505 11.49zM41.846 3.86v20.916l-2.94 3.04a4.08 4.08 0 0 0-3.154-1.51H23.976a.56.56 0 0 1-.207-.043 13.127 13.127 0 0 0-4.98-.972c-.34 0-.678.012-1.015.034V3.86h24.071zM16.904 27.455c2.054-.297 4.11-.123 6.102.69a2.6 2.6 0 0 0 .97.192H35.75c1.102 0 2.031.898 2.031 2.031 0 1.12-.91 2.032-2.03 2.032h-8.837a1.016 1.016 0 0 0 0 2.03h8.836a4.067 4.067 0 0 0 4.027-4.595A17259.774 17259.774 0 0 0 46.386 23a2.038 2.038 0 0 1 2.864-.242c.856.723.964 2.007.236 2.868l-9.068 10.89a7.067 7.067 0 0 1-4.92 1.978H22.124c-1.76 0-3.426.673-4.695 1.896l-.448.433a4.727 4.727 0 0 0-.624-.769l-6.238-6.238A4.74 4.74 0 0 0 9 32.986c1.551-3.06 4.323-5.01 7.904-5.531zM4.869 35.25a2.693 2.693 0 0 1 3.815 0l6.239 6.24a2.694 2.694 0 0 1 0 3.814l-2.403 2.402L2.454 37.654 4.87 35.25z" fill="#FECC2F"/></svg>