<svg width="52" height="58" viewBox="0 0 52 58" fill="none" xmlns="http://www.w3.org/2000/svg">
<g clip-path="url(#clip0)">
<path d="M42.5774 14.9323V2.93549H15.6195C15.2443 1.34712 13.9421 0.166992 12.3838 0.166992C10.5336 0.166992 9.02897 1.8225 9.02897 3.85832C9.02897 5.57376 10.1023 7.00622 11.5451 7.41852V11.7096L0.10498 21.3921L11.5451 31.0747V35.2346H5.67413V44.4629H11.5451V50.131C10.1023 50.5433 9.02897 51.9758 9.02897 53.6912C9.02897 55.7271 10.5336 57.3826 12.3838 57.3826C14.234 57.3826 15.7386 55.7271 15.7386 53.6912C15.7386 51.9758 14.6649 50.5433 13.2225 50.131V44.4629H19.0935V35.2346H13.2225V31.0747L23.5721 22.315H31.6741V27.8519H51.8032V14.9323H42.5774ZM14.0612 53.6912C14.0612 54.7092 13.3089 55.5369 12.3838 55.5369C11.4587 55.5369 10.7064 54.7092 10.7064 53.6912C10.7064 52.6733 11.4587 51.8456 12.3838 51.8456C13.3089 51.8456 14.0612 52.6733 14.0612 53.6912ZM17.4161 42.6173H7.35155V37.0803H17.4161V42.6173ZM10.7064 3.85832C10.7064 2.84041 11.4587 2.01266 12.3838 2.01266C13.3089 2.01266 14.0612 2.84041 14.0612 3.85832C14.0612 4.87623 13.3089 5.70398 12.3838 5.70398C11.4587 5.70398 10.7064 4.87623 10.7064 3.85832ZM12.3838 29.4556L2.85577 21.3921L12.3838 13.3286L21.9114 21.3921L12.3838 29.4556ZM23.5721 20.4693L13.2225 11.7096V7.41852C14.3958 7.08282 15.314 6.07212 15.6195 4.78115H40.8999V14.9323H31.6741V20.4693H23.5721ZM50.1257 26.0063H33.3515V16.778H50.1257V26.0063Z" fill="black" stroke="black" stroke-width="0.25"/>
<path d="M35.0293 18.6235H48.4487V20.4692H35.0293V18.6235Z" fill="black" stroke="black" stroke-width="0.25"/>
<path d="M35.0293 22.3149H46.7712V24.1606H35.0293V22.3149Z" fill="black" stroke="black" stroke-width="0.25"/>
<path d="M22.4478 50.9225H49.2865V34.3115H22.4478V50.9225ZM24.1252 36.1572H47.609V49.0768H24.1252V36.1572Z" fill="black" stroke="black" stroke-width="0.25"/>
<path d="M25.8027 38.0029H27.4802V39.8486H25.8027V38.0029Z" fill="black" stroke="black" stroke-width="0.25"/>
<path d="M29.1577 38.0029H45.9319V39.8486H29.1577V38.0029Z" fill="black" stroke="black" stroke-width="0.25"/>
<path d="M29.1577 41.6943H45.9319V43.54H29.1577V41.6943Z" fill="black" stroke="black" stroke-width="0.25"/>
<path d="M25.8027 41.6943H27.4802V43.54H25.8027V41.6943Z" fill="black" stroke="black" stroke-width="0.25"/>
<path d="M25.8027 45.3857H27.4802V47.2314H25.8027V45.3857Z" fill="black" stroke="black" stroke-width="0.25"/>
<path d="M29.1577 45.3857H45.9319V47.2314H29.1577V45.3857Z" fill="black" stroke="black" stroke-width="0.25"/>
</g>
<defs>
<clipPath id="clip0">
<rect width="52" height="57.2156" fill="white" transform="translate(0 0.166992)"/>
</clipPath>
</defs>
</svg>
