<svg width="58" height="58" viewBox="0 0 58 58" fill="none" xmlns="http://www.w3.org/2000/svg">
<path d="M52.379 24.6117L52.3789 24.6116L29.7587 1.98802C29.7586 1.9879 29.7584 1.98777 29.7583 1.98765C28.7191 0.951457 27.0357 0.963055 26.0098 1.98565C24.9782 3.0206 24.9788 4.70128 26.0098 5.73393C26.0099 5.73404 26.01 5.73415 26.0101 5.73426L48.634 28.3566L48.634 28.3566C49.6665 29.3891 51.3463 29.3891 52.379 28.3566C52.379 28.3566 52.379 28.3566 52.379 28.3565M52.379 24.6117L52.9093 24.0813C54.2383 25.4101 54.2383 27.5579 52.9093 28.8869L52.379 28.3565M52.379 24.6117C53.4151 25.6475 53.4151 27.3204 52.379 28.3565M52.379 24.6117L52.379 28.3565" stroke="black" stroke-width="1.5"/>
<path d="M23.8028 9.3916L23.6325 10.2451C22.4332 16.2442 19.5185 21.9435 15.5762 26.5628L27.8839 38.8705C32.5026 34.929 38.1234 31.936 44.1228 30.7352L44.9778 30.5649L23.8028 9.3916Z" fill="black"/>
<path d="M5.43613 38.0522C5.43615 38.0522 5.43617 38.0522 5.43618 38.0522L13.3173 30.1727L24.2715 41.1268L16.3912 49.0072C16.3912 49.0072 16.3912 49.0072 16.3912 49.0072C14.689 50.7092 11.9372 50.7026 10.2418 49.0072L5.43618 44.2015C3.7341 42.4995 3.74076 39.7477 5.43613 38.0522ZM11.5857 42.8595C12.5423 43.8161 14.0925 43.8161 15.0491 42.8595L17.452 40.4567C18.4086 39.5001 18.4086 37.9498 17.452 36.9932C16.4953 36.0366 14.9451 36.0366 13.9885 36.9932L11.5857 39.396C10.6291 40.3526 10.6291 41.9029 11.5857 42.8595Z" stroke="black" stroke-width="1.5"/>
<path d="M31.4283 49.4417L33.7398 47.1302C35.7357 45.1346 35.7291 41.9079 33.7399 39.922L32.023 38.2039C31.0741 38.8413 30.1678 39.5339 29.2867 40.2729L31.3371 42.3264C31.9992 42.9851 32.0039 44.0572 31.3371 44.7275L28.9874 47.0772L25.5344 43.7317L20.7285 48.5375L28.4381 56.0081C29.7538 57.3271 31.9139 57.3346 33.242 56.0064C34.5679 54.6805 34.5679 52.525 33.242 51.1991L31.4283 49.4417Z" stroke="black" stroke-width="1.5"/>
<path d="M39.293 1C38.3538 1 37.5938 1.76001 37.5938 2.69922V6.09767C37.5938 7.03688 38.3538 7.79689 39.293 7.79689C40.2322 7.79689 40.9922 7.03688 40.9922 6.09767V2.69922C40.9922 1.76001 40.2322 1 39.293 1Z" stroke="black" stroke-width="1.5"/>
<path d="M51.8867 13.5938H48.4883C47.5491 13.5938 46.7891 14.3538 46.7891 15.293C46.7891 16.2322 47.5491 16.9922 48.4883 16.9922H51.8867C52.8259 16.9922 53.586 16.2322 53.586 15.293C53.586 14.3538 52.8259 13.5938 51.8867 13.5938Z" stroke="black" stroke-width="1.5"/>
<path d="M50.6897 3.89622C50.0259 3.23251 48.9506 3.23251 48.2869 3.89622L44.8884 7.29467C44.2247 7.95838 44.2247 9.03377 44.8884 9.69748C45.5521 10.3612 46.6275 10.3613 47.2912 9.69748L50.6897 6.29904C51.3534 5.63532 51.3534 4.55994 50.6897 3.89622Z" stroke="black" stroke-width="1.5"/>
</svg>
