<svg width="58" height="58" viewBox="0 0 58 58" fill="none" xmlns="http://www.w3.org/2000/svg">
<g clip-path="url(#clip0)">
<path d="M19.1777 30.6991H39.5683C40.5077 30.6991 41.2675 29.9389 41.2675 28.9999V8.49606C41.2675 7.55707 40.5077 6.79685 39.5683 6.79685H34.4706V5.09764C34.4706 2.28686 32.1838 0 29.373 0C26.5622 0 24.2754 2.28686 24.2754 5.09764V6.79685H19.1777C18.2387 6.79685 17.4785 7.55707 17.4785 8.49606V28.9999C17.4785 29.9389 18.2387 30.6991 19.1777 30.6991ZM27.6738 5.09764C27.6738 4.15997 28.4371 3.39842 29.373 3.39842C30.3089 3.39842 31.0722 4.15997 31.0722 5.09764V6.79685H27.6738V5.09764Z" fill="black"/>
<path d="M54.1274 28.1203L53.4858 28.5085C53.6587 28.7944 53.6687 29.1473 53.5143 29.4387L53.5128 29.4416L45.6871 44.3677C43.7554 48.0519 39.9725 50.3398 35.814 50.3398H21.58H21.2705L21.051 50.5581L14.606 56.9704L14.6046 56.9718C14.4186 57.1578 14.1767 57.2503 13.9336 57.2503C13.6904 57.2503 13.4485 57.1578 13.2625 56.9718L13.2615 56.9707L4.76643 48.5084C4.76632 48.5083 4.76622 48.5082 4.76612 48.5081C4.39557 48.1372 4.39567 47.5371 4.76643 47.1663L14.8154 37.1173C16.2815 35.6529 18.2217 34.8476 20.2923 34.8476H37.9553C38.2123 34.8476 38.4496 34.9811 38.5823 35.1993C38.7149 35.4184 38.7232 35.6909 38.6043 35.9178L38.6043 35.9178C37.8403 37.3759 36.9515 39.0725 36.657 39.635C36.491 39.9508 36.1695 40.1445 35.814 40.1445H24.2749C22.9216 40.1445 21.8256 41.2405 21.8256 42.5937C21.8256 43.9469 22.9216 45.0429 24.2749 45.0429H35.8144C37.9949 45.0429 39.9797 43.8429 40.995 41.9106L40.9954 41.9099L46.2076 31.9625C47.468 29.5576 49.9588 28.0508 52.6738 28.0508C53.0062 28.0508 53.316 28.2263 53.4848 28.5069L54.1274 28.1203Z" stroke="black" stroke-width="1.5"/>
</g>
<defs>
<clipPath id="clip0">
<rect width="58" height="58" fill="white"/>
</clipPath>
</defs>
</svg>
