<svg xmlns="http://www.w3.org/2000/svg" viewBox="0 0 1000 1000"><path d="M402 391.7v219.9h8V387.7h-8zm-24 8v199.9c0 2.2 1.8 4 4 4h12V395.7h-12c-2.2 0-4 1.8-4 4zm40 135.6V548l16.3 16.3c1.3 1.3 3.2 1.7 4.9 1 1.7-.7 2.8-2.3 2.8-4.1 0-1.2-.5-2.4-1.3-3.2L418 535.3zm0-46V502l16.3 16.3c1.3 1.3 3.2 1.7 4.9 1 1.7-.7 2.8-2.3 2.8-4.1 0-1.2-.5-2.4-1.3-3.2L418 489.3zm0-46V456l16.3 16.3c1.8 1.7 4.6 1.7 6.3 0 1.7-1.8 1.7-4.6 0-6.3L418 443.3zm21.2-16c1.4-.6 2.4-1.8 2.7-3.3.3-1.5-.2-3-1.2-4L418 397.3V410l16.3 16.3c1.3 1.4 3.2 1.8 4.9 1zM418 581.2v12.7l16.3 16.3c1.3 1.3 3.2 1.7 4.9 1 1.7-.7 2.8-2.3 2.8-4.1 0-1.2-.5-2.3-1.3-3.2L418 581.2zm127.3-17.4c3.5 1.9 7.7 1.7 11-.5l46-30.7h17.5c4.5 0 8.2-3.5 8.5-7.8h2.5c8.3 0 15-6.7 15-15v-16.1c0-8.3-6.7-15-15-15h-2.5c-.4-4.4-4-7.8-8.5-7.8h-17.5l-46-30.7c-1.8-1.2-3.9-1.8-5.9-1.8-1.7 0-3.5.4-5.1 1.3-3.5 1.9-5.7 5.5-5.7 9.4v105.4c.1 3.8 2.3 7.5 5.7 9.3zm83.1-76.7h2.4c3.6 0 6.5 2.9 6.5 6.5v16.1c0 3.6-2.9 6.5-6.5 6.5h-2.4v-29.1zm-23.1-7.8h14.5s.1 0 .1.1V524s0 .1-.1.1h-14.5v-44.8zM548.2 449c0-1.2.8-1.8 1.2-2 .4-.2 1.3-.6 2.3.1l45.2 30.1V526l-45.2 30.1c-1 .7-1.9.3-2.3.1-.4-.2-1.2-.8-1.2-2V449zm-58.9 106.6c1.5 1.5 3.9 1.5 5.4 0 1.5-1.5 1.5-3.9 0-5.4-12.9-12.9-20-30.1-20-48.5 0-18.3 7.1-35.5 20-48.5 1.5-1.5 1.5-3.9 0-5.4-.7-.7-1.7-1.1-2.7-1.1-1 0-2 .4-2.7 1.1-14.4 14.4-22.3 33.5-22.3 53.9s7.9 39.5 22.3 53.9zm21-21c1.5 1.5 3.9 1.5 5.4 0 1.5-1.5 1.5-3.9 0-5.4-7.3-7.3-11.4-17.1-11.4-27.5 0-10.4 4-20.1 11.4-27.5 1.5-1.5 1.5-3.9 0-5.4-.7-.7-1.7-1.1-2.7-1.1-1 0-2 .4-2.7 1.1-8.8 8.8-13.6 20.4-13.6 32.9 0 12.4 4.8 24.1 13.6 32.9z" fill="#2f2e2e"/></svg>