<svg width="58" height="58" viewBox="0 0 58 58" fill="none" xmlns="http://www.w3.org/2000/svg">
<g clip-path="url(#clip0)">
<path d="M50.7258 0.698242L42.8223 8.60226V15.5177H49.7377L57.6413 7.61415L50.7258 0.698242ZM47.2681 12.5538C46.4495 12.5538 45.7862 11.8905 45.7862 11.0719C45.7862 10.2537 46.4495 9.58994 47.2681 9.58994C48.0863 9.58994 48.7501 10.2537 48.7501 11.0719C48.7501 11.8905 48.0863 12.5538 47.2681 12.5538Z" fill="black"/>
<mask id="path-2-inside-1" fill="white">
<path fill-rule="evenodd" clip-rule="evenodd" d="M20.0986 33.4276V33.3005L37.8818 41.2048V17.4937L20.0986 25.398V25.2709C20.0986 23.704 18.8282 22.4336 17.2613 22.4336H7.1288C5.56145 22.4336 4.29102 23.704 4.29102 25.2709V26.3853H0.339844V32.313H4.29102V33.4276C4.29102 34.9945 5.56145 36.265 7.1288 36.265H7.25586V46.1443H13.1837V41.2047H15.1672C16.254 41.2047 17.135 40.3236 17.135 39.2368V36.265H17.2613C18.8282 36.265 20.0986 34.9945 20.0986 33.4276Z"/>
</mask>
<path d="M20.0986 33.3005L20.7079 31.9298L18.5986 30.9923V33.3005H20.0986ZM37.8818 41.2048L37.2726 42.5755L39.3818 43.5131V41.2048H37.8818ZM37.8818 17.4937H39.3818V15.1854L37.2726 16.123L37.8818 17.4937ZM20.0986 25.398H18.5986V27.7062L20.7079 26.7687L20.0986 25.398ZM4.29102 26.3853V27.8853H5.79102V26.3853H4.29102ZM0.339844 26.3853V24.8853H-1.16016V26.3853H0.339844ZM0.339844 32.313H-1.16016V33.813H0.339844V32.313ZM4.29102 32.313H5.79102V30.813H4.29102V32.313ZM7.25586 36.265H8.75586V34.765H7.25586V36.265ZM7.25586 46.1443H5.75586V47.6443H7.25586V46.1443ZM13.1837 46.1443V47.6443H14.6837V46.1443H13.1837ZM13.1837 41.2047V39.7047H11.6837V41.2047H13.1837ZM17.135 36.265V34.765H15.635V36.265H17.135ZM18.5986 33.3005V33.4276H21.5986V33.3005H18.5986ZM38.4911 39.8341L20.7079 31.9298L19.4894 34.6712L37.2726 42.5755L38.4911 39.8341ZM36.3818 17.4937V41.2048H39.3818V17.4937H36.3818ZM20.7079 26.7687L38.4911 18.8644L37.2726 16.123L19.4894 24.0273L20.7079 26.7687ZM18.5986 25.2709V25.398H21.5986V25.2709H18.5986ZM17.2613 23.9336C17.9998 23.9336 18.5986 24.5325 18.5986 25.2709H21.5986C21.5986 22.8756 19.6566 20.9336 17.2613 20.9336V23.9336ZM7.1288 23.9336H17.2613V20.9336H7.1288V23.9336ZM5.79102 25.2709C5.79102 24.5326 6.38972 23.9336 7.1288 23.9336V20.9336C4.73317 20.9336 2.79102 22.8754 2.79102 25.2709H5.79102ZM5.79102 26.3853V25.2709H2.79102V26.3853H5.79102ZM0.339844 27.8853H4.29102V24.8853H0.339844V27.8853ZM1.83984 32.313V26.3853H-1.16016V32.313H1.83984ZM4.29102 30.813H0.339844V33.813H4.29102V30.813ZM5.79102 33.4276V32.313H2.79102V33.4276H5.79102ZM7.1288 34.765C6.38972 34.765 5.79102 34.166 5.79102 33.4276H2.79102C2.79102 35.8231 4.73317 37.765 7.1288 37.765V34.765ZM7.25586 34.765H7.1288V37.765H7.25586V34.765ZM8.75586 46.1443V36.265H5.75586V46.1443H8.75586ZM13.1837 44.6443H7.25586V47.6443H13.1837V44.6443ZM11.6837 41.2047V46.1443H14.6837V41.2047H11.6837ZM15.1672 39.7047H13.1837V42.7047H15.1672V39.7047ZM15.635 39.2368C15.635 39.4952 15.4255 39.7047 15.1672 39.7047V42.7047C17.0824 42.7047 18.635 41.1521 18.635 39.2368H15.635ZM15.635 36.265V39.2368H18.635V36.265H15.635ZM17.2613 34.765H17.135V37.765H17.2613V34.765ZM18.5986 33.4276C18.5986 34.1661 17.9998 34.765 17.2613 34.765V37.765C19.6566 37.765 21.5986 35.823 21.5986 33.4276H18.5986Z" fill="black" mask="url(#path-2-inside-1)"/>
<path d="M47.8608 39.2573L40.875 46.2436L50.6557 56.0243L57.6415 49.0385L47.8608 39.2573ZM48.4834 49.3248C47.9976 49.2871 47.6117 48.9008 47.5745 48.415L47.1002 42.254L49.0702 42.1026L49.4791 47.4202L54.9059 47.8371L54.7551 49.8071L48.4834 49.3248Z" fill="black"/>
<path d="M54.6774 23.4214C54.6774 25.0587 53.3507 26.3853 51.7135 26.3853C50.0766 26.3853 48.75 25.0587 48.75 23.4214C48.75 21.7846 50.0766 20.4575 51.7135 20.4575C53.3507 20.4575 54.6774 21.7846 54.6774 23.4214Z" fill="black"/>
<path d="M50.7442 27.3733H52.6837C54.3307 27.3737 55.6653 28.7092 55.6653 30.3558V35.2769H47.7617V30.3558C47.7617 28.7088 49.0972 27.3733 50.7442 27.3733V27.3733Z" fill="black"/>
<path d="M46.7738 24.4094C46.7738 25.5006 45.8893 26.3852 44.798 26.3852C43.7068 26.3852 42.8223 25.5006 42.8223 24.4094C42.8223 23.3182 43.7068 22.4336 44.798 22.4336C45.8893 22.4336 46.7738 23.3182 46.7738 24.4094V24.4094Z" fill="black"/>
<path d="M44.7979 27.3733C46.4347 27.3733 47.7618 28.7004 47.7618 30.3372V33.3011H41.834V30.3372C41.834 28.7004 43.1611 27.3733 44.7979 27.3733Z" fill="black"/>
<path d="M37.5928 1.39699L36.1958 0L30.1605 6.03355C27.0904 3.73607 22.7388 4.36221 20.4413 7.43231C18.1438 10.5024 18.77 14.854 21.8401 17.1515C24.9106 19.4494 29.2618 18.8228 31.5597 15.7527C33.4054 13.2862 33.4054 9.89883 31.5597 7.43231L37.5928 1.39699ZM26.0271 16.5059C23.2986 16.5059 21.0869 14.2942 21.0869 11.5662C21.0869 8.83771 23.2986 6.62607 26.0271 6.62607C28.7551 6.62607 30.9668 8.83771 30.9668 11.5662C30.9637 14.2929 28.7538 16.5023 26.0271 16.5059Z" fill="black"/>
<path d="M27.0141 41.2048H23.0626L17.1348 47.1326L28.0022 58.0001L35.9058 50.0965L27.0141 41.2048ZM22.3638 48.4101L26.3159 44.4581L27.7128 45.8551L23.7608 49.8071L22.3638 48.4101ZM26.7247 52.771L25.3277 51.374L29.2798 47.422L30.6767 48.819L26.7247 52.771Z" fill="black"/>
</g>
<defs>
<clipPath id="clip0">
<rect width="58" height="58" fill="white"/>
</clipPath>
</defs>
</svg>
