<svg width="58" height="58" viewBox="0 0 58 58" fill="none" xmlns="http://www.w3.org/2000/svg">
<path d="M48.29 8.03223V26.4838H54.9997V8.03223H48.29ZM53.3223 24.8064H49.9675V9.70965H53.3223V24.8064Z" fill="black"/>
<path d="M39.9031 16.5168C39.3663 16.037 38.8069 15.5875 38.2257 15.1706V14.742H37.5941C34.3257 12.5799 30.4617 11.3872 26.4837 11.3872H25.645V32.3549H46.6128V31.5162C46.6128 29.812 46.3871 28.1262 45.9636 26.484H46.6128V11.3872H39.9031V16.5168ZM27.3224 30.6775V13.0831C29.696 13.1921 32.0083 13.7683 34.1403 14.742H31.516V26.484H38.2257V17.3144C38.8128 17.7991 39.3764 18.3133 39.9031 18.8719V26.484H44.2275C44.615 27.8519 44.8523 29.2559 44.9169 30.6775H27.3224ZM36.5482 16.4195V24.8066H33.1934V16.4195H36.5482ZM41.5805 13.0646H44.9353V24.8066H41.5805V13.0646Z" fill="black"/>
<path d="M16.664 28.4068L9.53564 35.5352L10.7217 36.7213L17.8501 29.5929L16.664 28.4068Z" fill="black"/>
<path d="M13.064 29C13.064 27.6128 11.9351 26.4839 10.5479 26.4839C9.16064 26.4839 8.03174 27.6128 8.03174 29C8.03174 30.3872 9.16064 31.5161 10.5479 31.5161C11.9351 31.5161 13.064 30.3872 13.064 29ZM9.70916 29C9.70916 28.537 10.0849 28.1613 10.5479 28.1613C11.0108 28.1613 11.3866 28.537 11.3866 29C11.3866 29.463 11.0108 29.8387 10.5479 29.8387C10.0849 29.8387 9.70916 29.463 9.70916 29Z" fill="black"/>
<path d="M17.2578 33.1934C15.8706 33.1934 14.7417 34.3223 14.7417 35.7095C14.7417 37.0967 15.8706 38.2256 17.2578 38.2256C18.6451 38.2256 19.774 37.0967 19.774 35.7095C19.774 34.3223 18.6451 33.1934 17.2578 33.1934ZM17.2578 36.5482C16.7949 36.5482 16.4191 36.1725 16.4191 35.7095C16.4191 35.2465 16.7949 34.8708 17.2578 34.8708C17.7208 34.8708 18.0965 35.2465 18.0965 35.7095C18.0965 36.1725 17.7208 36.5482 17.2578 36.5482Z" fill="black"/>
<path d="M39.7833 46.1457C42.0495 42.8068 43.2581 38.9295 43.2581 34.871V34.0323H23.9677V14.7419H23.129C22.3004 14.7419 21.4575 14.8149 20.6129 14.9214V3H3V14.7419H13.556L15.194 16.3799C7.85194 19.5326 3 26.8009 3 34.871C3 45.9696 12.0304 55 23.129 55C27.9961 55 32.6325 53.2404 36.2959 50.0625L38.8909 52.6575C39.4008 53.1674 40.0718 53.4232 40.7419 53.4232C41.4121 53.4232 42.083 53.1674 42.593 52.6575C43.6137 51.6368 43.6137 49.9761 42.593 48.9554L39.7833 46.1457ZM14.2505 13.0645H4.67742V4.67742H18.9355V17.7495L14.2505 13.0645ZM23.129 53.3226C12.9546 53.3226 4.67742 45.0454 4.67742 34.871C4.67742 27.2463 9.40439 20.4057 16.4839 17.6699L20.6129 21.7988V16.6039C21.174 16.5267 21.7351 16.4646 22.2903 16.4386V35.7097H41.5622C41.4154 39.0184 40.388 42.1744 38.5781 44.9405L37.2403 43.6028C37.3326 43.2228 37.3871 42.8278 37.3871 42.4194C37.3871 39.6441 35.1301 37.3871 32.3548 37.3871C29.5795 37.3871 27.3226 39.6441 27.3226 42.4194C27.3226 45.1946 29.5795 47.4516 32.3548 47.4516C32.7633 47.4516 33.1583 47.3971 33.5383 47.3048L35.1066 48.8732C31.7635 51.7383 27.5507 53.3226 23.129 53.3226ZM35.7097 42.4194C35.7097 44.2695 34.205 45.7742 32.3548 45.7742C30.5046 45.7742 29 44.2695 29 42.4194C29 40.5692 30.5046 39.0645 32.3548 39.0645C34.205 39.0645 35.7097 40.5692 35.7097 42.4194ZM41.407 51.4715C41.0397 51.8389 40.4442 51.8389 40.0768 51.4715L35.1838 46.5785C35.7063 46.2221 36.1576 45.7708 36.514 45.2483L41.407 50.1414C41.7735 50.5087 41.7735 51.1042 41.407 51.4715Z" fill="black"/>
<path d="M17.2582 6.35498H6.35498V8.0324H17.2582V6.35498Z" fill="black"/>
<path d="M17.2582 9.70947H6.35498V11.3869H17.2582V9.70947Z" fill="black"/>
<path d="M33.1935 41.5806H31.5161V43.258H33.1935V41.5806Z" fill="black"/>
<path d="M25.6457 41.5806H23.9683V43.258H25.6457V41.5806Z" fill="black"/>
<path d="M22.2907 41.5806H20.6133V43.258H22.2907V41.5806Z" fill="black"/>
<path d="M18.9357 41.5806H17.2583V43.258H18.9357V41.5806Z" fill="black"/>
</svg>
