<svg width="52" height="52" viewBox="0 0 52 52" fill="none" xmlns="http://www.w3.org/2000/svg">
<path d="M48.5325 0.866699H3.46755C1.55563 0.866699 0 2.42243 0 4.33425V32.9333C0 33.4117 0.388273 33.8 0.866633 33.8H51.1333C51.6116 33.8 51.9999 33.4117 51.9999 32.9333V4.33425C52 2.42243 50.4444 0.866699 48.5325 0.866699ZM50.2666 32.0667H1.73337V4.33425C1.73337 3.37743 2.51164 2.60007 3.46755 2.60007H48.5325C49.4884 2.60007 50.2666 3.37743 50.2666 4.33425V32.0667Z" fill="black"/>
<path d="M51.1334 32.0664H0.866633C0.388273 32.0664 0 32.4547 0 32.933V37.2655C0 39.1774 1.55563 40.733 3.46755 40.733H48.5325C50.4444 40.733 52 39.1774 52 37.2655V32.933C52 32.4547 51.6117 32.0664 51.1334 32.0664ZM50.2666 37.2656C50.2666 38.2224 49.4884 38.9998 48.5325 38.9998H3.46755C2.51164 38.9998 1.73337 38.2224 1.73337 37.2656V33.7998H50.2667V37.2656H50.2666Z" fill="black"/>
<path d="M28.5998 35.5332H23.3998C22.9215 35.5332 22.5332 35.9215 22.5332 36.3998C22.5332 36.8782 22.9215 37.2665 23.3998 37.2665H28.5998C29.0782 37.2665 29.4665 36.8782 29.4665 36.3998C29.4665 35.9215 29.0782 35.5332 28.5998 35.5332Z" fill="black"/>
<path d="M47.6667 4.3335H4.33343C3.85507 4.3335 3.4668 4.72177 3.4668 5.20013V32.9335C3.4668 33.4119 3.85507 33.8001 4.33343 33.8001H47.6668C48.1452 33.8001 48.5334 33.4119 48.5334 32.9335V5.20013C48.5334 4.72177 48.1452 4.3335 47.6667 4.3335ZM46.8001 32.0668H5.20006V6.06676H46.8001V32.0668Z" fill="black"/>
<path d="M37.2671 45.9336H14.7338C13.3003 45.9336 12.1338 47.1001 12.1338 48.5336C12.1338 49.967 13.3003 51.1336 14.7338 51.1336H37.2672C38.7006 51.1336 39.8672 49.967 39.8672 48.5336C39.8672 47.1001 38.7005 45.9336 37.2671 45.9336ZM37.2671 49.4002H14.7338C14.2554 49.4002 13.8672 49.0111 13.8672 48.5336C13.8672 48.056 14.2554 47.667 14.7338 47.667H37.2672C37.7455 47.667 38.1338 48.056 38.1338 48.5336C38.1338 49.0111 37.7455 49.4002 37.2671 49.4002Z" fill="black"/>
<path d="M35.5333 45.9333C32.6577 45.9333 31.2 43.8923 31.2 39.8666C31.2 39.3883 30.8117 39 30.3334 39H21.6667C21.1884 39 20.8001 39.3883 20.8001 39.8666C20.8001 43.8923 19.3424 45.9333 16.4667 45.9333C15.9884 45.9333 15.6001 46.3215 15.6001 46.7999C15.6001 47.2783 15.9884 47.6665 16.4667 47.6665H35.5333C36.0117 47.6665 36.4 47.2783 36.4 46.7999C36.4 46.3215 36.0117 45.9333 35.5333 45.9333ZM20.6882 45.9333C21.7551 44.7512 22.3834 42.9909 22.5099 40.7333H29.4909C29.6165 42.9909 30.2449 44.7512 31.3126 45.9333H20.6882Z" fill="black"/>
<path d="M41.4131 26.402L39.321 24.31L40.4849 23.146C40.7007 22.9302 40.7873 22.6165 40.7128 22.321C40.6383 22.0254 40.4138 21.7914 40.1217 21.703L31.4551 19.103C31.1492 19.0111 30.819 19.0952 30.5936 19.3206C30.3675 19.546 30.2843 19.877 30.3761 20.182L32.9761 28.8487C33.0636 29.1416 33.2984 29.366 33.594 29.4406C33.8886 29.5134 34.2033 29.4284 34.4191 29.2127L35.6445 27.9863L37.7366 30.0793C37.8987 30.2422 38.1197 30.3332 38.3493 30.3332C38.579 30.3332 38.8 30.2422 38.9621 30.0793L41.413 27.6275C41.7519 27.2887 41.7519 26.741 41.4131 26.402ZM38.3493 28.2411L36.4444 26.3353C36.2234 26.1143 35.934 26.0042 35.6445 26.0042C35.3542 26.0042 35.0647 26.1151 34.8446 26.3344L34.2189 26.9601L32.4985 21.2254L38.2333 22.9458L37.5624 23.6166C37.3778 23.802 37.2764 24.0482 37.2764 24.31C37.2764 24.5726 37.3787 24.8204 37.5642 25.0041L39.5748 27.0148L38.3493 28.2411Z" fill="black"/>
<path d="M36.3999 7.7998H12.1332C11.6549 7.7998 11.2666 8.18808 11.2666 8.66644V12.9998C11.2666 13.4782 11.6549 13.8664 12.1332 13.8664H36.3999C36.8782 13.8664 37.2665 13.4782 37.2665 12.9998V8.66644C37.2665 8.18808 36.8782 7.7998 36.3999 7.7998ZM35.5332 12.1332H12.9999V9.53317H35.5332V12.1332Z" fill="black"/>
<path d="M22.5334 17.3335H15.6C15.1217 17.3335 14.7334 17.7218 14.7334 18.2001V21.6668C14.7334 22.1451 15.1217 22.5334 15.6 22.5334H22.5334C23.0118 22.5334 23.4 22.1451 23.4 21.6668V18.2001C23.4 17.7218 23.0118 17.3335 22.5334 17.3335ZM21.6667 20.8001H16.4667V19.0668H21.6667V20.8001Z" fill="black"/>
<path d="M36.3999 7.7998H12.1332C11.6549 7.7998 11.2666 8.18808 11.2666 8.66644V25.1331C11.2666 25.6114 11.6549 25.9997 12.1332 25.9997H32.7651C33.0399 25.9997 33.2972 25.8706 33.4602 25.6504C33.6241 25.4303 33.6743 25.1461 33.5954 24.8834L32.4982 21.2252L36.1512 22.3216C36.4139 22.4005 36.6982 22.3503 36.9173 22.1864C37.1374 22.0235 37.2666 21.7653 37.2666 21.4913V8.66644C37.2665 8.18808 36.8782 7.7998 36.3999 7.7998ZM35.5332 20.3266L31.4538 19.1029C31.1479 19.011 30.8177 19.0951 30.5923 19.3204C30.3661 19.5466 30.283 19.8768 30.3748 20.1828L31.6002 24.2665H12.9999V9.53317H35.5332V20.3266Z" fill="black"/>
</svg>
