<svg width="58" height="58" viewBox="0 0 58 58" fill="none" xmlns="http://www.w3.org/2000/svg">
<g clip-path="url(#clip0)">
<path d="M33.6096 2.89837C33.8169 3.05089 34.013 3.20999 34.204 3.37618C34.3246 3.47955 34.4406 3.5895 34.5546 3.70199C34.7426 3.8844 34.9189 4.07542 35.0902 4.27354C35.1794 4.37741 35.2731 4.47469 35.3582 4.58465C35.5994 4.88816 35.8224 5.20636 36.024 5.53723C36.0696 5.61222 36.1061 5.69228 36.1497 5.76879C36.3053 6.04291 36.4497 6.32412 36.5784 6.61446C36.6321 6.73708 36.6822 6.86071 36.7288 6.98587C36.8327 7.25391 36.9249 7.52701 37.005 7.80468C37.04 7.92629 37.0775 8.04587 37.1089 8.16798C37.1231 8.22929 37.1459 8.28756 37.1595 8.34988H37.2092C37.6054 8.31239 38.0082 8.29465 38.4131 8.29465C40.409 8.2906 42.3866 8.67822 44.2335 9.43623L44.2988 9.46208C44.5274 8.74966 44.6424 8.00533 44.6393 7.25695C44.6363 4.33535 42.8837 1.70004 40.1906 0.568089C37.4975 -0.56437 34.3884 0.0269406 32.2988 2.06841C32.6287 2.23815 32.9479 2.42765 33.2545 2.6359C33.3771 2.71698 33.4911 2.80919 33.6096 2.89837V2.89837ZM37.3754 2.06841C40.2392 2.07195 42.5604 4.39261 42.5639 7.25695C42.5639 7.83002 42.0993 8.29465 41.5262 8.29465C40.9531 8.29465 40.4885 7.83002 40.4885 7.25695C40.4885 5.53774 39.0946 4.14382 37.3754 4.14382C36.8023 4.14382 36.3377 3.67919 36.3377 3.10612C36.3377 2.53305 36.8023 2.06841 37.3754 2.06841Z" fill="black"/>
<path d="M24.5686 16.7499C24.5894 16.7104 24.6147 16.6724 24.635 16.6319C24.7079 16.4925 24.789 16.3588 24.8665 16.222C24.9922 15.9985 25.1199 15.7766 25.2567 15.5597C25.3494 15.4143 25.4467 15.2734 25.542 15.1311C25.6793 14.9309 25.8181 14.7328 25.9635 14.5387C26.0674 14.3963 26.1794 14.2585 26.2893 14.1237C26.4388 13.9388 26.5923 13.7564 26.7489 13.5785C26.8675 13.4453 26.987 13.3135 27.1081 13.1833C27.2733 13.009 27.442 12.8408 27.6153 12.6751C27.741 12.5535 27.8656 12.4319 27.9954 12.3148C28.1798 12.1487 28.3698 11.9901 28.5618 11.8335C28.6905 11.7296 28.8162 11.6197 28.9479 11.5219C29.1648 11.3562 29.3888 11.2001 29.6142 11.0456C29.7303 10.966 29.8433 10.8809 29.9618 10.8039C30.3094 10.5789 30.6651 10.3651 31.0315 10.168C31.375 9.98305 31.7246 9.81381 32.0788 9.65521C32.1938 9.60455 32.3114 9.56097 32.4274 9.51182C32.6691 9.40845 32.9108 9.31168 33.154 9.2225C33.2949 9.17183 33.4382 9.12825 33.5801 9.08113C33.8066 9.00665 34.0336 8.93419 34.2631 8.87389C34.4146 8.83133 34.5672 8.79282 34.7207 8.75533C34.8443 8.72543 34.9654 8.68794 35.0901 8.66007C35.0901 8.64335 35.0901 8.6246 35.0809 8.60687C35.0561 8.50958 35.0196 8.41736 34.9902 8.32058C34.9249 8.09967 34.8555 7.87976 34.7693 7.66695C34.7227 7.55092 34.6655 7.43843 34.6118 7.32544C34.5266 7.14201 34.4385 6.9591 34.3376 6.78378C34.2713 6.66876 34.1988 6.5578 34.1304 6.44531C34.0265 6.28266 33.9145 6.12305 33.796 5.96902C33.7139 5.86565 33.6278 5.76178 33.5396 5.65791C33.4134 5.51148 33.2807 5.37011 33.1423 5.23431C33.0471 5.14108 32.9523 5.04684 32.852 4.95766C32.7025 4.82592 32.5404 4.7033 32.3838 4.58372C32.28 4.50721 32.1761 4.42715 32.0727 4.35571C31.8898 4.2341 31.6967 4.12618 31.5017 4.02028C31.4054 3.96859 31.3127 3.90931 31.2134 3.86067C30.9109 3.71373 30.5987 3.58807 30.2795 3.48369C30.0034 3.3859 29.7196 3.30989 29.4313 3.25669C28.9728 3.1594 28.5056 3.10873 28.0369 3.1062C24.716 3.10873 21.8198 5.36251 21.002 8.58052C20.1837 11.799 21.6526 15.1625 24.5686 16.7499ZM28.0369 5.18162C28.61 5.18162 29.0746 5.64626 29.0746 6.21933C29.0746 6.7924 28.61 7.25703 28.0369 7.25703C26.3177 7.25703 24.9238 8.65095 24.9238 10.3702C24.9238 10.9432 24.4591 11.4079 23.8861 11.4079C23.313 11.4079 22.8484 10.9432 22.8484 10.3702C22.8519 7.50582 25.1726 5.18516 28.0369 5.18162Z" fill="black"/>
<path d="M38.4136 37.3503C44.6814 37.3528 50.1253 33.0383 51.5542 26.9357C52.9831 20.8331 50.0205 14.5501 44.4033 11.7699C44.0916 11.6255 43.7805 11.4811 43.4608 11.3549C43.1142 11.2125 42.7626 11.0929 42.4089 10.982C42.2822 10.9429 42.1545 10.9054 42.0269 10.87C41.7811 10.8006 41.5318 10.7403 41.283 10.6866C41.1543 10.6582 41.0266 10.6252 40.8969 10.6014C40.5605 10.5381 40.22 10.4905 39.878 10.453C39.7407 10.4383 39.6028 10.4292 39.4625 10.4175C39.1858 10.3957 38.9066 10.3825 38.6244 10.378C38.5175 10.378 38.4136 10.3699 38.3098 10.3699C38.1167 10.3699 37.9237 10.3815 37.7316 10.3906C37.6136 10.3967 37.495 10.3977 37.3769 10.4074C37.0653 10.4312 36.7542 10.4641 36.4522 10.5112L35.9658 10.5857C31.5388 11.4182 27.8141 14.3935 26.0245 18.5271C24.2348 22.6957 24.6589 27.4839 27.1529 31.273C29.6468 35.062 33.8772 37.3452 38.4136 37.3503V37.3503ZM30.0081 30.0128C29.7715 30.1532 29.4882 30.1942 29.2217 30.1258C28.9547 30.0579 28.7257 29.8862 28.5853 29.6495C28.145 28.9057 27.7908 28.1148 27.5299 27.2909C27.3773 26.7508 27.6814 26.1868 28.2169 26.0181C28.7525 25.8499 29.3251 26.1377 29.509 26.6682C29.7218 27.3411 30.0111 27.9871 30.3714 28.5941C30.6612 29.0861 30.4991 29.7205 30.0081 30.0128ZM37.3759 16.7436V15.5584C37.3759 14.9853 37.8406 14.5207 38.4136 14.5207C38.9867 14.5207 39.4513 14.9853 39.4513 15.5584V16.7436C41.2785 17.2153 42.5574 18.86 42.5645 20.7469C42.5645 21.32 42.0998 21.7847 41.5268 21.7847C40.9537 21.7847 40.489 21.32 40.489 20.7469C40.489 19.6008 39.5598 18.6715 38.4136 18.6715C37.2675 18.6715 36.3382 19.6008 36.3382 20.7469C36.3382 21.8931 37.2675 22.8224 38.4136 22.8224C38.4648 22.829 38.5155 22.8386 38.5651 22.8523C38.6168 22.8426 38.669 22.8366 38.7217 22.834C40.7525 22.9734 42.38 24.5684 42.5609 26.5957C42.7418 28.623 41.4219 30.481 39.4483 30.9776V32.1617C39.4483 32.7348 38.9837 33.1994 38.4106 33.1994C37.8375 33.1994 37.3729 32.7348 37.3729 32.1617V30.9862C35.4272 30.4876 34.1204 28.664 34.2739 26.6621C34.2937 26.2861 34.5146 25.9502 34.8526 25.784C35.19 25.6178 35.5913 25.6477 35.9009 25.862C36.2105 26.0758 36.3798 26.4407 36.3433 26.8156C36.2582 27.9582 37.116 28.9539 38.2586 29.039C39.4017 29.1246 40.3973 28.2673 40.4825 27.1242C40.5681 25.9816 39.7113 24.9854 38.5682 24.8998C38.5403 24.8998 38.5185 24.8831 38.4912 24.879C38.4643 24.875 38.4415 24.8978 38.4136 24.8978C36.3261 24.9003 34.5628 23.3493 34.2988 21.2785C34.0353 19.2071 35.3542 17.2639 37.3759 16.7436V16.7436ZM26.9988 23.8601C26.9963 22.3106 27.312 20.7768 27.9276 19.3546C28.9466 16.9908 30.7327 15.0401 32.9976 13.8169C33.5028 13.5453 34.1321 13.7348 34.4037 14.2395C34.6752 14.7442 34.4863 15.374 33.9816 15.6456C32.1271 16.6448 30.6648 18.2408 29.8308 20.1754C29.3291 21.3388 29.0712 22.5928 29.0743 23.8601C29.0743 24.4331 28.6096 24.8978 28.0366 24.8978C27.4635 24.8978 26.9988 24.4331 26.9988 23.8601V23.8601Z" fill="black"/>
<path d="M25.1954 44.9239L25.1954 44.9239C24.558 44.8158 23.9115 45.0602 23.5054 45.5635L23.505 45.564C23.0969 46.0706 22.9955 46.759 23.2416 47.3622L23.2418 47.3625C23.4863 47.9607 24.0347 48.3806 24.6759 48.4605L24.676 48.4606L24.7054 48.4649L24.8202 48.4819L25.2559 48.5465C25.6315 48.6021 26.1684 48.6816 26.8138 48.7769C28.1044 48.9676 29.829 49.2219 31.5644 49.4762C33.2996 49.7305 35.0463 49.9849 36.3811 50.1757C37.0483 50.2711 37.6138 50.3508 38.024 50.4068C38.2287 50.4347 38.3969 50.457 38.5204 50.4724L38.5295 50.4736C38.6197 50.4849 38.7493 50.5011 38.8277 50.5011L38.8384 50.5011L38.8398 50.5011C40.3963 50.4982 41.8551 49.7532 42.77 48.502L55.2615 41.2882L55.2635 41.287C55.6731 41.0488 56.1793 41.0476 56.5908 41.2844C57.0017 41.5213 57.2549 41.9598 57.2545 42.4344L57.2546 42.44C57.2578 42.9121 57.0059 43.3489 56.5957 43.5824L56.5919 43.5847L32.9921 57.2091C32.9241 57.2457 32.8453 57.2581 32.7694 57.2441L32.7585 57.2421L32.7475 57.2404L7.45079 53.3668L7.45018 53.3667C6.73742 53.2581 6.01766 53.2036 5.29631 53.2036H0.767578V42.2511H3.17853C5.17322 42.2661 7.15896 41.9799 9.06856 41.4022C9.63632 41.2363 10.1878 41.0178 10.7159 40.7488C12.863 39.6603 15.2421 39.1075 17.6491 39.1379L17.6583 39.138L17.6675 39.1379C20.1156 39.109 22.534 39.6818 24.7089 40.8057C26.2078 41.6262 27.8139 42.2324 29.4808 42.6063L29.4973 42.61L29.514 42.613L39.2074 44.3316C39.5361 44.427 39.8153 44.6457 39.986 44.9426L39.9862 44.9429C40.162 45.2482 40.2091 45.6109 40.117 45.9507L40.1165 45.9525C40.0907 46.0487 40.0524 46.1417 40.0028 46.2288L39.9886 46.252C39.6734 46.7661 39.0631 47.0192 38.4763 46.8788L38.4762 46.879C38.4649 46.8763 38.4545 46.874 38.4499 46.873L38.4349 46.8701L38.422 46.8679L38.4072 46.8655L38.3733 46.8603L38.2577 46.8429L37.8322 46.7798C37.4677 46.7258 36.9492 46.6494 36.3284 46.5581C35.0866 46.3753 33.4346 46.1327 31.7839 45.8904C30.1332 45.6481 28.4837 45.4061 27.2469 45.2247L25.7526 45.0056L25.334 44.9442L25.2237 44.9281L25.1954 44.9239Z" stroke="black" stroke-width="1.5"/>
</g>
<defs>
<clipPath id="clip0">
<rect width="58" height="58" fill="white"/>
</clipPath>
</defs>
</svg>
