<svg width="58" height="58" viewBox="0 0 58 58" fill="none" xmlns="http://www.w3.org/2000/svg">
<path d="M8 20.5669V27.3311L14.7642 23.9492L8 20.5669Z" fill="black"/>
<path d="M28 0C22.7319 0.477051 18.5278 4.68115 18.0508 9.94922H28V0Z" fill="black"/>
<path d="M40 10.9492C40 5.22119 35.5981 0.506836 30 0V10.5068L37.7661 17.5669C39.1611 15.7231 40 13.4351 40 10.9492Z" fill="black"/>
<path d="M42 18.9492H44V26.9492H42V18.9492Z" fill="black"/>
<path d="M28.0677 21.1539C23.4374 20.7346 19.6867 17.2185 18.9053 12.6992H28.3228L35.2834 19.0273C33.776 20.2046 31.9374 20.9708 29.9327 21.154L29.251 21.2163V21.9009V36.043V36.6733L29.8719 36.7818C31.0367 36.9853 32.0663 37.5948 32.8367 38.4675L33.4313 39.1411L33.9878 38.4357L39.7558 31.1237L40.1655 30.6044L39.7015 30.1331C39.563 29.9923 39.4285 29.8476 39.2982 29.6992H40H46H46.75V28.9492V16.9492V16.1992H46H41.6985C42.0158 15.4328 42.2653 14.6321 42.4408 13.804C43.8673 13.0863 45.4245 12.6992 47 12.6992C52.6507 12.6992 57.25 17.298 57.25 22.9492C57.25 25.5081 56.3068 27.8514 54.75 29.6496V28.9492V20.9492V20.1992H54H48H47.25V20.9492V28.9492V29.6992H48H54H54.7067C52.8265 31.8432 50.0682 33.1992 47 33.1992C44.8162 33.1992 42.7938 32.5069 41.127 31.3356L40.5465 30.9276L40.107 31.4847L33.9312 39.3133L33.6602 39.6569L33.8259 40.0619C34.0987 40.7286 34.25 41.4526 34.25 42.2012V43.9492C34.25 45.889 33.1944 47.5818 31.6223 48.4921L31.2476 48.709L31.248 49.1419L31.25 50.95L31.2507 51.5643L31.853 51.6847L36.9498 52.7032C39.2015 53.1543 40.8846 54.979 41.1975 57.1992H16.8025C17.1154 54.979 18.7985 53.1543 21.0502 52.7032L26.147 51.6847L26.75 51.5642V50.9492V49.1401V48.7079L26.3759 48.4912C24.8047 47.581 23.75 45.8892 23.75 43.9492V41.9492C23.75 41.2621 23.8869 40.6075 24.1294 40.0019L24.2929 39.5934L24.0161 39.2513L17.7861 31.5531L17.3503 31.0145L16.7789 31.4064C15.1318 32.536 13.1425 33.1992 11 33.1992C9.00042 33.1992 7.1325 32.6233 5.55345 31.6287L6.3354 31.2377L19.5712 24.62L20.9129 23.9492L19.5713 23.2784L6.33542 16.6602L5.25 16.1175V17.3311V30.5669V31.43C2.53623 29.5839 0.75 26.4707 0.75 22.9492C0.75 17.298 5.34925 12.6992 11 12.6992C12.5755 12.6992 14.1327 13.0863 15.5582 13.8039C16.3001 17.3011 18.3706 20.3059 21.2161 22.2682C21.2378 22.5144 21.25 22.7407 21.25 22.9492C21.25 25.7872 20.0893 28.3589 18.2158 30.2187L17.7348 30.6961L18.1612 31.2228L23.9712 38.4011L24.5225 39.0821L25.1104 38.4324C25.8872 37.5737 26.9382 36.9738 28.1241 36.7748L28.75 36.6698V36.0352V21.9009V21.2157L28.0677 21.1539ZM39.25 28.9492V29.644C37.6928 27.8449 36.75 25.5057 36.75 22.9492C36.75 22.7407 36.7622 22.5143 36.784 22.2681C37.6919 21.6414 38.5193 20.9083 39.25 20.0874V28.9492Z" stroke="black" stroke-width="1.5"/>
<path d="M50 22.9492H52V26.9492H50V22.9492Z" fill="black"/>
</svg>
