<svg width="69" height="69" viewBox="0 0 69 69" fill="none" xmlns="http://www.w3.org/2000/svg">
<path d="M67.9893 0H1.01074C0.452202 0 0 0.452202 0 1.01074V43.0803C0 43.6383 0.452202 44.091 1.01074 44.091C1.56928 44.091 2.02148 43.6383 2.02148 43.0803V12.8027H33.4893V49.5222H30.9192C29.2231 49.5222 27.6638 50.4055 26.782 51.8174H15.8608C15.179 51.8174 14.5247 51.9369 13.9167 52.1543H2.02148V47.4375C2.02148 46.879 1.56928 46.4268 1.01074 46.4268C0.452202 46.4268 0 46.879 0 47.4375V53.165C0 53.7236 0.452202 54.1758 1.01074 54.1758H11.194C10.4696 55.1518 10.04 56.3615 10.04 57.6702C10.04 58.7752 10.936 59.6743 12.0373 59.6743H28.7361C30.9798 59.6743 33.2018 60.2523 35.1628 61.3457C36.2925 61.9748 37.498 62.4586 38.7472 62.7829C39.9964 63.1077 41.2841 63.2725 42.5738 63.2725H42.7039L45.535 68.4725C45.7119 68.7979 46.0525 69 46.4225 69H56.1072C56.6658 69 57.118 68.5478 57.118 67.9893C57.118 67.4307 56.6658 66.9785 56.1072 66.9785H47.0232L44.8564 62.9987L58.2693 60.4771C58.2746 60.4761 58.2803 60.475 58.2856 60.474L59.2848 60.286L63.2756 66.9785H60.375C59.8165 66.9785 59.3643 67.4307 59.3643 67.9893C59.3643 68.5478 59.8165 69 60.375 69H65.0555C65.4192 69 65.7546 68.8047 65.9341 68.4883C66.1141 68.1719 66.1099 67.784 65.9236 67.4713L60.6593 58.6441C60.4424 58.2803 60.0207 58.0903 59.6043 58.1687L58.9779 58.2867C58.7231 56.7479 58.1693 55.3581 57.3407 54.1758H67.9893C68.5478 54.1758 69 53.7236 69 53.165V17.2163C69 16.6578 68.5478 16.2056 67.9893 16.2056C67.4307 16.2056 66.9785 16.6578 66.9785 17.2163V52.1543H55.3987C53.1208 50.4071 49.8854 49.5222 45.7556 49.5222H35.5107V12.8027H66.9785V12.9375C66.9785 13.496 67.4307 13.9482 67.9893 13.9482C68.5478 13.9482 69 13.496 69 12.9375V1.01074C69 0.452202 68.5478 0 67.9893 0ZM54.3742 53.9173C54.3921 53.9331 54.41 53.9484 54.429 53.9631C56.0172 55.2934 56.7326 57.0053 56.9943 58.6594L43.2098 61.251H42.5738C41.4557 61.251 40.3391 61.1083 39.2552 60.8267C38.1724 60.545 37.1264 60.126 36.1472 59.5801C33.8867 58.3193 31.3235 57.6528 28.7361 57.6528H12.0615C12.071 55.5482 13.7714 53.8389 15.8608 53.8389H26.0724C26.0514 54.0247 26.0392 54.2126 26.0392 54.4021C26.0392 54.8559 26.213 55.2865 26.532 55.6192C26.8505 55.9477 27.2795 56.1362 27.738 56.1483C33.3134 56.301 37.6623 56.8585 38.8188 57.5707C39.3484 57.896 40.0006 58.3983 40.5692 58.8468C41.0072 59.1921 41.6426 59.1179 41.9884 58.6788C42.3343 58.2409 42.2596 57.6055 41.821 57.2596C41.1756 56.7505 40.4934 56.2273 39.8775 55.8488C37.8723 54.6143 31.7436 54.2458 28.0728 54.1358C28.1018 53.8262 28.1808 53.5262 28.3092 53.2393C28.7677 52.2096 29.7922 51.5442 30.9192 51.5442H45.7556C49.9596 51.5436 52.6634 52.5117 54.3742 53.9173ZM2.02148 10.7812V2.02148H66.9785V10.7812H2.02148Z" fill="black"/>
<path d="M7.20996 3.30176C5.53802 3.30176 4.17773 4.66205 4.17773 6.33398C4.17773 8.00592 5.53802 9.36621 7.20996 9.36621C8.8819 9.36621 10.2422 8.00592 10.2422 6.33398C10.2422 4.66205 8.8819 3.30176 7.20996 3.30176ZM7.20996 7.34473C6.65247 7.34473 6.19922 6.89147 6.19922 6.33398C6.19922 5.7765 6.65247 5.32324 7.20996 5.32324C7.76745 5.32324 8.2207 5.7765 8.2207 6.33398C8.2207 6.89147 7.76745 7.34473 7.20996 7.34473Z" fill="black"/>
<path d="M15.2959 3.30176C13.624 3.30176 12.2637 4.66205 12.2637 6.33398C12.2637 8.00592 13.624 9.36621 15.2959 9.36621C16.9678 9.36621 18.3281 8.00592 18.3281 6.33398C18.3281 4.66205 16.9678 3.30176 15.2959 3.30176ZM15.2959 7.34473C14.7384 7.34473 14.2852 6.89147 14.2852 6.33398C14.2852 5.7765 14.7384 5.32324 15.2959 5.32324C15.8534 5.32324 16.3066 5.7765 16.3066 6.33398C16.3066 6.89147 15.8534 7.34473 15.2959 7.34473Z" fill="black"/>
<path d="M23.3818 3.30176C21.7099 3.30176 20.3496 4.66205 20.3496 6.33398C20.3496 8.00592 21.7099 9.36621 23.3818 9.36621C25.0538 9.36621 26.4141 8.00592 26.4141 6.33398C26.4141 4.66205 25.0538 3.30176 23.3818 3.30176ZM23.3818 7.34473C22.8243 7.34473 22.3711 6.89147 22.3711 6.33398C22.3711 5.7765 22.8243 5.32324 23.3818 5.32324C23.9393 5.32324 24.3926 5.7765 24.3926 6.33398C24.3926 6.89147 23.9393 7.34473 23.3818 7.34473Z" fill="black"/>
<path d="M62.7891 30.3799H39.6094C39.0508 30.3799 38.5986 30.8321 38.5986 31.3906C38.5986 31.9492 39.0508 32.4014 39.6094 32.4014H62.7891C63.3471 32.4014 63.7998 31.9492 63.7998 31.3906C63.7998 30.8321 63.3471 30.3799 62.7891 30.3799Z" fill="black"/>
<path d="M39.6094 26.6948H51.1992C51.7572 26.6948 52.21 26.2426 52.21 25.6841C52.21 25.1261 51.7572 24.6733 51.1992 24.6733H39.6094C39.0508 24.6733 38.5986 25.1261 38.5986 25.6841C38.5986 26.2426 39.0508 26.6948 39.6094 26.6948Z" fill="black"/>
<path d="M62.7891 35.208H39.6094C39.0508 35.208 38.5986 35.6607 38.5986 36.2188C38.5986 36.7773 39.0508 37.2295 39.6094 37.2295H62.7891C63.3471 37.2295 63.7998 36.7773 63.7998 36.2188C63.7998 35.6607 63.3471 35.208 62.7891 35.208Z" fill="black"/>
<path d="M62.7891 40.0366H39.6094C39.0508 40.0366 38.5986 40.4893 38.5986 41.0474C38.5986 41.6059 39.0508 42.0581 39.6094 42.0581H62.7891C63.3471 42.0581 63.7998 41.6059 63.7998 41.0474C63.7998 40.4893 63.3471 40.0366 62.7891 40.0366Z" fill="black"/>
<path d="M7.04248 40.9129V40.9266C7.04248 43.3871 9.04396 45.3886 11.5045 45.3886H24.0082C26.4682 45.3886 28.4702 43.3871 28.4702 40.9266V40.9129C28.4702 36.4404 25.7144 32.6006 21.812 30.9987C23.8034 29.679 25.12 27.419 25.12 24.8564C25.12 20.796 21.8167 17.4927 17.7558 17.4927C13.6955 17.4927 10.3921 20.796 10.3921 24.8564C10.3921 27.419 11.7087 29.679 13.7002 30.9987C9.79833 32.6006 7.04248 36.4399 7.04248 40.9129ZM12.4136 24.8564C12.4136 21.9105 14.8105 19.5136 17.7563 19.5136C20.7022 19.5136 23.0991 21.9105 23.0991 24.8564C23.0991 27.8022 20.7022 30.1991 17.7563 30.1991C14.8105 30.1991 12.4136 27.8022 12.4136 24.8564ZM17.7563 32.2206C22.549 32.2206 26.4487 36.1198 26.4487 40.9129V40.9266C26.4487 42.2727 25.3538 43.3671 24.0082 43.3671H11.5045C10.1589 43.3671 9.06396 42.2727 9.06396 40.9266V40.9129C9.06396 36.1198 12.9632 32.2206 17.7563 32.2206Z" fill="black"/>
<path d="M21.5205 26.2824C21.2515 25.7934 20.6367 25.6149 20.1476 25.8844C20.1365 25.8902 19.0279 26.4809 17.7566 26.4809C16.4868 26.4809 15.3782 25.8913 15.3624 25.8829C14.8733 25.616 14.2611 25.7944 13.9926 26.2824C13.7236 26.7715 13.9015 27.3858 14.3906 27.6553C14.4532 27.6901 15.9504 28.5024 17.7566 28.5024C19.5622 28.5024 21.0594 27.6901 21.1225 27.6553C21.6111 27.3863 21.7895 26.7715 21.5205 26.2824Z" fill="black"/>
<path d="M16.9693 23.1209C16.9693 23.5989 16.5813 23.9869 16.1028 23.9869C15.6248 23.9869 15.2368 23.5989 15.2368 23.1209C15.2368 22.6424 15.6248 22.2544 16.1028 22.2544C16.5813 22.2544 16.9693 22.6424 16.9693 23.1209Z" fill="black"/>
<path d="M20.2759 23.1209C20.2759 23.5994 19.888 23.9869 19.4094 23.9869C18.9309 23.9869 18.5435 23.5994 18.5435 23.1209C18.5435 22.6424 18.9309 22.2544 19.4094 22.2544C19.888 22.2544 20.2759 22.6424 20.2759 23.1209Z" fill="black"/>
</svg>
