<svg width="41" height="41" viewBox="0 0 41 41" fill="none" xmlns="http://www.w3.org/2000/svg">
<path d="M36.0617 19.8095C42.2559 14.3863 41.3046 3.04667 40.1614 1.90115C39.5219 1.2619 38.0209 4.32766 34.0234 6.78703C33.6762 7.13028 33.2379 8.98137 33.2591 11.65C33.2591 11.65 32.5072 9.71219 32.5695 7.63723C31.6424 8.13733 30.6225 8.60997 29.531 9.05608C26.0328 10.4854 23.5774 13.6883 23.1055 17.4377C23.0598 15.4085 21.839 13.9016 22.9015 11.2861C19.3028 12.3427 15.6447 13.3434 12.8681 14.6678C10.4659 15.8081 8.69846 17.9531 8.0332 20.528C7.70441 21.803 7.49116 23.3702 7.50493 25.3454C7.22493 25.1543 6.20187 22.2802 6.46382 19.2028C2.65029 23.227 2.73244 29.403 4.09644 33.3123V33.313C2.54212 32.1188 0 32.8182 0 32.8182C1.8831 33.0778 2.88776 34.5719 2.88776 34.5719C0.124855 35.4807 0 39.1837 0 39.1837C1.55885 35.9359 5.77561 36.286 5.77561 36.286C5.80899 36.3196 5.84253 36.3386 5.87599 36.3697C5.1925 29.7623 9.22809 23.0999 16.0328 20.9245C20.2115 19.5887 29.5737 16.7533 33.2546 14.3078C31.1096 17.7497 19.5676 22.032 16.7788 23.052C10.7048 25.1641 7.20653 31.1155 7.40601 37.0205C9.61935 36.9894 12.393 33.431 17.9083 30.6458C17.2598 29.9281 14.5805 28.7103 11.6395 29.4806C14.8834 27.6842 17.5475 27.5221 19.6985 27.854C21.5847 28.1448 23.5179 27.8669 25.2426 27.051C25.2442 27.0495 25.2473 27.0487 25.2489 27.0479C28.464 25.5089 32.0047 23.5452 34.8393 21.0006C34.4557 20.3318 32.74 19.033 30.5465 19.8286C32.8482 18.4806 34.6505 18.9677 36.0617 19.8095Z" fill="black"/>
</svg>
