<svg width="52" height="52" fill="none" xmlns="http://www.w3.org/2000/svg"><path d="M35.14 0c-.56 0-1.015.455-1.015 1.016v4.671a1.016 1.016 0 0 0 2.031 0V1.016C36.156.455 35.702 0 35.141 0zM11.781 31.688a1.016 1.016 0 1 0 0 2.031 1.016 1.016 0 0 0 0-2.032z" fill="#FECC2F"/><path d="M49.36 29.656a4.067 4.067 0 0 0-4.063-4.062h-7.582c1.174-3.007 1.649-6.546 1.557-9.696-.017-.601-.04-.949-.071-1.168a4.068 4.068 0 0 0-4.06-3.964 4.067 4.067 0 0 0-4.063 4.062v1.016c0 6.423-8.248 10.032-14.473 11.58a3.051 3.051 0 0 0-2.793-1.83H3.656c-.56 0-1.015.454-1.015 1.015v24.375c0 .561.454 1.016 1.015 1.016h10.156a3.05 3.05 0 0 0 2.783-1.809c.516.133.994.257 1.436.373 3.546.926 5.5 1.436 10.25 1.436h10.922a4.067 4.067 0 0 0 4.063-4.063c0-.835-.254-1.612-.688-2.258a4.064 4.064 0 0 0 2.719-3.835 4.06 4.06 0 0 0-.68-2.261 4.064 4.064 0 0 0 2.024-6.091 4.064 4.064 0 0 0 2.718-3.836zM14.827 48.953c0 .56-.455 1.016-1.015 1.016H4.671V27.625h9.14c.56 0 1.016.456 1.016 1.016v20.312zm30.469-17.266h-5.078a1.016 1.016 0 0 0 0 2.032h3.047a2.031 2.031 0 0 1 0 4.062h-5.078a1.016 1.016 0 0 0 0 2.032h3.046a2.031 2.031 0 0 1 0 4.063l-5.078-.001a1.016 1.016 0 0 0 0 2.031h3.047a2.031 2.031 0 0 1 .001 4.062H28.28c-4.49 0-6.243-.457-9.737-1.37-.512-.133-1.073-.28-1.685-.436V29.456c7.35-1.751 16.25-6.024 16.25-13.612v-1.016c0-1.12.912-2.031 2.032-2.031 1.118 0 2.029.91 2.03 2.028v.003c0 .442.552 5.859-1.657 10.766h-3.42a1.016 1.016 0 1 0 0 2.031h13.203a2.031 2.031 0 0 1 0 4.063z" fill="#FECC2F"/><path d="M11.781 35.75c-.56 0-1.015.455-1.015 1.016v8.125a1.016 1.016 0 0 0 2.03 0v-8.125c0-.561-.454-1.016-1.015-1.016zm15.235-22.953h-4.063a1.016 1.016 0 0 0 0 2.03h4.063a1.016 1.016 0 0 0 0-2.03zm20.312 0h-4.062a1.016 1.016 0 0 0 0 2.03h4.062a1.016 1.016 0 0 0 0-2.03zm-2.851-8.321a1.016 1.016 0 0 0-1.436 0l-2.872 2.872a1.016 1.016 0 1 0 1.436 1.436l2.872-2.872a1.016 1.016 0 0 0 0-1.436zM30.114 7.348l-2.872-2.872a1.016 1.016 0 0 0-1.437 1.436l2.872 2.872a1.016 1.016 0 0 0 1.437-1.436z" fill="#FECC2F"/></svg>