<svg width="115" height="129" viewBox="0 0 115 129" fill="none" xmlns="http://www.w3.org/2000/svg">
<circle cx="61.5" cy="53.5" r="53.5" fill="#FECC2F"/>
<g clip-path="url(#clip0)">
<mask id="path-2-inside-1" fill="white">
<path d="M110.813 69.3942C110.877 69.2205 110.914 69.0388 110.922 68.8534C110.922 68.658 110.891 68.4636 110.83 68.2782L110.687 67.8739C109.175 53.2592 101.92 39.8436 90.517 30.5791C89.7021 29.9153 88.8502 29.3157 87.9983 28.7008C87.9558 28.6655 87.9332 28.6157 87.8871 28.5823C87.8409 28.5488 87.8038 28.5524 87.765 28.528C78.3368 21.7696 67.0339 18.1259 55.4334 18.1041C54.9559 18.1041 54.4757 18.1041 54.1184 18.1412C47.9307 18.2615 41.8098 19.439 36.0191 21.6231C30.9989 17.7071 24.1844 16.9972 18.4642 19.7944C12.744 22.5917 9.12016 28.4068 9.1292 34.7737C9.24044 36.8917 9.73243 38.9718 10.5834 40.9135C8.69329 43.4973 7.02924 46.2385 5.61027 49.1081C5.58223 49.1524 5.56595 49.2003 5.54153 49.2464C-7.59005 76.3986 3.33666 109.069 30.1614 122.857C56.9853 136.646 89.912 126.518 104.349 100.037C108.303 92.7525 110.551 84.6646 110.921 76.385C110.979 75.4915 110.998 74.5808 110.998 73.6692C110.998 72.2339 110.924 70.8113 110.813 69.3942ZM105.431 59.8892C105.196 59.6802 104.979 59.4388 104.733 59.2461C102.313 57.4085 99.5698 56.0383 96.646 55.2072C93.9835 54.5389 91.2007 54.5099 88.5246 55.1222C86.2483 55.6377 83.8879 55.6494 81.6061 55.1565C77.1783 54.1898 73.6793 53.4274 71.8235 50.4637C69.1655 46.2032 70.4117 40.2153 73.2162 38.1081C74.1405 37.4705 75.2809 37.2272 76.3852 37.4316C78.3495 37.5926 80.3237 37.2598 82.1271 36.4648C84.0462 35.5659 85.7509 34.2681 87.1283 32.6565C87.4783 32.9269 87.8482 33.1702 88.1909 33.4496C96.5492 40.2542 102.575 49.4969 105.431 59.8892ZM25.7987 21.8085C32.9551 21.8202 38.753 27.6182 38.7639 34.7737C38.7639 40.3139 30.4427 52.9978 25.7987 59.4279C21.3953 53.4771 17.5689 47.1193 14.3728 40.4414C13.5019 38.6679 12.9791 36.7443 12.8335 34.7737C12.8417 27.6164 18.6415 21.8166 25.7987 21.8085ZM3.5727 73.6692C3.57994 70.2181 3.92812 66.7751 4.61183 63.3918C4.80989 65.9666 5.14542 68.2574 5.44567 70.2443C6.59333 77.8384 7.67768 84.9974 13.2749 91.5442C15.6154 94.3026 19.535 98.914 25.5952 99.5959C31.6555 100.278 39.2441 96.7914 41.4363 95.7062L42.2774 95.282C43.4422 94.5486 44.7735 94.1226 46.1472 94.043C48.4905 94.2556 50.661 95.3643 52.2075 97.1378C55.3683 100.637 56.1705 106.479 53.924 109.64C53.2041 110.579 52.2102 111.27 51.0788 111.617C49.1426 112.264 47.4966 113.577 46.4339 115.321C44.8685 118.156 44.5772 121.521 45.6336 124.582C21.2407 119.856 3.61068 98.5161 3.5727 73.6692ZM55.4334 125.53C53.6436 125.53 51.8557 125.438 50.075 125.254C49.923 125.06 49.7819 124.857 49.6526 124.646C48.401 122.331 48.3874 119.543 49.6173 117.216C50.2857 116.154 51.3212 115.376 52.5258 115.028C54.2921 114.42 55.8331 113.288 56.9428 111.785C60.1642 107.255 59.2526 99.4069 54.9613 94.6598C52.7293 92.1077 49.5712 90.5521 46.1879 90.3387H46.1056C44.1549 90.3975 42.2539 90.9636 40.588 91.9819L39.7976 92.3817C35.7505 94.3767 29.9923 96.3492 26.0067 95.9006C21.4071 95.386 18.2128 91.622 16.0938 89.1295C11.1812 83.3876 10.2199 77.0344 9.10931 69.6818C7.91734 63.3918 7.87031 56.9391 8.96823 50.6319C9.96033 48.6233 11.0809 46.6807 12.3244 44.8159C12.3859 44.9389 12.4537 45.0646 12.5098 45.1867C12.6282 45.4218 12.7503 45.6551 12.8797 45.8903C13.0651 46.2403 13.2505 46.5903 13.4359 46.943C13.5634 47.1799 13.6927 47.4169 13.8247 47.6556C14.021 48.0074 14.2191 48.3592 14.4189 48.711C14.5528 48.9444 14.6857 49.1786 14.8214 49.4119C15.0276 49.7637 15.2338 50.1137 15.4418 50.4637C15.5783 50.6934 15.714 50.9213 15.8524 51.1492C16.0712 51.5191 16.2919 51.8655 16.5126 52.2227C16.6383 52.4253 16.7622 52.6306 16.8824 52.8305C17.1565 53.27 17.4287 53.696 17.7009 54.1274C17.7733 54.2386 17.8456 54.3553 17.9162 54.4647C18.2553 54.9901 18.5917 55.5029 18.9218 56.003C19.0475 56.1884 19.1696 56.3738 19.2926 56.5592C19.4961 56.8649 19.6996 57.1706 19.8976 57.4627L20.3372 58.1057C20.4963 58.3409 20.6573 58.576 20.8129 58.8003L21.2569 59.4388C21.3944 59.6377 21.5319 59.8322 21.663 60.0185C21.7941 60.2057 21.9424 60.4173 22.0799 60.6081C22.2165 60.799 22.3096 60.9319 22.4191 61.0857L22.7889 61.5966L23.091 62.0154L23.3858 62.4214L23.6264 62.747L23.8525 63.0545L23.9872 63.2399C24.1528 63.4642 24.2785 63.6324 24.3137 63.6785C24.6628 64.1452 25.2118 64.4201 25.7951 64.4201C26.3784 64.4201 26.9274 64.1452 27.2765 63.6785C28.8311 61.6174 42.4682 43.3345 42.4682 34.7737C42.4682 34.2328 42.4348 33.6956 42.3832 33.1621C42.3669 32.9975 42.3407 32.8329 42.3199 32.6683C42.272 32.2975 42.215 31.9267 42.1354 31.5568C42.1002 31.3714 42.0613 31.1977 42.0206 31.0196C41.9347 30.6488 41.8352 30.2789 41.7221 29.9081C41.676 29.7598 41.6371 29.6097 41.5883 29.464C41.4219 28.9675 41.2347 28.4765 41.0221 27.999C40.9814 27.9076 40.9326 27.8136 40.8901 27.7304C40.7047 27.3451 40.5202 26.9634 40.3068 26.5908C40.2145 26.4244 40.1123 26.2635 40.0128 26.0998C39.8347 25.8076 39.6493 25.5201 39.4566 25.237C39.3418 25.0724 39.2251 24.9078 39.1048 24.7459C39.0415 24.6645 38.9882 24.5777 38.9194 24.4981C42.773 23.2003 46.7695 22.3719 50.822 22.031C47.9343 27.4817 46.991 32.5236 48.0691 37.0337C48.873 40.0543 50.3987 42.8353 52.515 45.1369C54.2577 47.2948 55.5112 48.8503 55.4334 51.3898C55.2742 56.7609 49.2086 61.2322 46.9133 62.9215C43.9026 65.0893 40.5374 66.7145 36.9678 67.7256C33.6035 68.8244 30.7014 69.7722 29.5917 73.084C28.4947 77.4576 30.2962 82.0464 34.0765 84.5045C36.342 85.7282 39.0117 85.9642 41.4571 85.1566C44.1359 84.5344 46.9051 84.4014 49.6309 84.7659C53.1499 85.2642 56.184 85.692 57.6229 87.7069C58.4766 88.9107 58.4323 90.1551 58.2659 92.4378C57.8861 95.6691 58.2144 98.9448 59.2264 102.037C60.0711 104.571 61.3471 108.397 64.413 108.839C64.612 108.87 64.8136 108.887 65.0144 108.887C67.184 108.887 68.5116 106.971 69.908 104.956C70.5248 104.065 71.2049 103.104 72.0197 102.139C75.8317 108.298 79.7042 113.437 79.8842 113.682C80.2342 114.148 80.7832 114.422 81.3656 114.422C81.9489 114.422 82.4979 114.148 82.8479 113.682C86.866 108.301 90.5287 102.661 93.8107 96.8014C96.0862 97.4607 98.253 98.4483 100.243 99.7334C90.9755 115.708 73.9017 125.538 55.4334 125.53ZM90.0042 75.127C92.7562 77.5815 94.3298 81.0941 94.3289 84.7822C94.3289 86.1143 93.7881 88.7551 91.2197 93.7708C88.2877 99.2052 84.9958 104.436 81.3638 109.429C79.621 107.001 76.6221 102.691 73.9388 98.1607C72.443 95.6772 71.1072 93.1025 69.9378 90.4499C69.0669 88.6764 68.5442 86.7528 68.3986 84.7822C68.4067 77.6249 74.2065 71.8252 81.3638 71.817C81.7644 71.817 82.1614 71.8351 82.5566 71.8713C85.3259 72.1218 87.9395 73.2649 90.0042 75.127ZM107.229 76.1942C106.91 83.2393 105.134 90.1415 102.013 96.4659C99.984 95.1825 97.7972 94.1642 95.5092 93.4353C96.9399 90.7574 97.7999 87.81 98.0333 84.7822C98.0179 78.4262 94.404 72.6273 88.7037 69.8129L88.587 69.7614C88.1728 69.5615 87.7523 69.3743 87.3227 69.2061C87.0279 69.0912 86.7222 69.0017 86.4202 68.9058C86.2347 68.8497 86.0683 68.7801 85.8884 68.7204C85.4109 68.5848 84.9252 68.4744 84.4368 68.3831H84.4124C84.1167 68.3279 83.8164 68.2981 83.5162 68.2592C78.7537 67.5999 73.9397 69.0442 70.3267 72.2158C66.7128 75.3884 64.6572 79.9745 64.6943 84.7822C64.8381 87.2511 65.4612 89.6694 66.5283 91.9006C67.5666 94.2646 68.7377 96.5681 70.0364 98.7992C68.8788 100.066 67.8189 101.418 66.8648 102.844C66.3556 103.717 65.7126 104.504 64.9592 105.177C64.5884 105.121 63.902 104.33 62.7363 100.865C61.8862 98.2339 61.6194 95.4484 61.9567 92.7045C62.4378 90.2401 61.9648 87.6852 60.6345 85.5563C58.2695 82.249 54.1411 81.6666 50.1238 81.0968C47.001 80.67 43.8266 80.8129 40.7553 81.5174C38.3859 81.9705 37.2861 82.1396 36.0281 81.3555C33.7301 79.7801 32.5816 76.9937 33.1016 74.2561C33.5963 72.7747 35.0786 72.2394 38.1028 71.2463C42.0522 70.1132 45.7746 68.3044 49.1064 65.8997C51.805 63.92 58.9234 58.6664 59.1377 51.4992C59.2562 47.5779 57.2946 45.1586 55.3981 42.8199C53.6455 40.9424 52.3703 38.6715 51.6793 36.1981C50.6954 32.0714 51.9145 27.232 55.2209 21.8085H55.4334C65.6303 21.823 75.5984 24.8363 84.0959 30.4733C83.1146 31.5667 81.9272 32.4548 80.6005 33.087C79.309 33.6459 77.8973 33.8666 76.4964 33.7291C74.5484 33.4885 72.5822 33.9941 70.9914 35.1445C66.7915 38.3062 64.9095 46.3687 68.6844 52.4235C71.3713 56.7148 75.961 57.715 80.9731 58.8075C83.6708 59.3773 86.459 59.3655 89.1523 58.7723C91.3137 58.2568 93.5675 58.2631 95.7253 58.7931C98.1536 59.493 100.433 60.6344 102.449 62.1582C104.544 63.8956 106.132 66.1637 107.048 68.7258C107.2 70.3619 107.294 72.0024 107.294 73.6692C107.294 74.4976 107.278 75.3359 107.222 76.1942H107.229Z"/>
</mask>
<path d="M110.813 69.3942C110.877 69.2205 110.914 69.0388 110.922 68.8534C110.922 68.658 110.891 68.4636 110.83 68.2782L110.687 67.8739C109.175 53.2592 101.92 39.8436 90.517 30.5791C89.7021 29.9153 88.8502 29.3157 87.9983 28.7008C87.9558 28.6655 87.9332 28.6157 87.8871 28.5823C87.8409 28.5488 87.8038 28.5524 87.765 28.528C78.3368 21.7696 67.0339 18.1259 55.4334 18.1041C54.9559 18.1041 54.4757 18.1041 54.1184 18.1412C47.9307 18.2615 41.8098 19.439 36.0191 21.6231C30.9989 17.7071 24.1844 16.9972 18.4642 19.7944C12.744 22.5917 9.12016 28.4068 9.1292 34.7737C9.24044 36.8917 9.73243 38.9718 10.5834 40.9135C8.69329 43.4973 7.02924 46.2385 5.61027 49.1081C5.58223 49.1524 5.56595 49.2003 5.54153 49.2464C-7.59005 76.3986 3.33666 109.069 30.1614 122.857C56.9853 136.646 89.912 126.518 104.349 100.037C108.303 92.7525 110.551 84.6646 110.921 76.385C110.979 75.4915 110.998 74.5808 110.998 73.6692C110.998 72.2339 110.924 70.8113 110.813 69.3942ZM105.431 59.8892C105.196 59.6802 104.979 59.4388 104.733 59.2461C102.313 57.4085 99.5698 56.0383 96.646 55.2072C93.9835 54.5389 91.2007 54.5099 88.5246 55.1222C86.2483 55.6377 83.8879 55.6494 81.6061 55.1565C77.1783 54.1898 73.6793 53.4274 71.8235 50.4637C69.1655 46.2032 70.4117 40.2153 73.2162 38.1081C74.1405 37.4705 75.2809 37.2272 76.3852 37.4316C78.3495 37.5926 80.3237 37.2598 82.1271 36.4648C84.0462 35.5659 85.7509 34.2681 87.1283 32.6565C87.4783 32.9269 87.8482 33.1702 88.1909 33.4496C96.5492 40.2542 102.575 49.4969 105.431 59.8892ZM25.7987 21.8085C32.9551 21.8202 38.753 27.6182 38.7639 34.7737C38.7639 40.3139 30.4427 52.9978 25.7987 59.4279C21.3953 53.4771 17.5689 47.1193 14.3728 40.4414C13.5019 38.6679 12.9791 36.7443 12.8335 34.7737C12.8417 27.6164 18.6415 21.8166 25.7987 21.8085ZM3.5727 73.6692C3.57994 70.2181 3.92812 66.7751 4.61183 63.3918C4.80989 65.9666 5.14542 68.2574 5.44567 70.2443C6.59333 77.8384 7.67768 84.9974 13.2749 91.5442C15.6154 94.3026 19.535 98.914 25.5952 99.5959C31.6555 100.278 39.2441 96.7914 41.4363 95.7062L42.2774 95.282C43.4422 94.5486 44.7735 94.1226 46.1472 94.043C48.4905 94.2556 50.661 95.3643 52.2075 97.1378C55.3683 100.637 56.1705 106.479 53.924 109.64C53.2041 110.579 52.2102 111.27 51.0788 111.617C49.1426 112.264 47.4966 113.577 46.4339 115.321C44.8685 118.156 44.5772 121.521 45.6336 124.582C21.2407 119.856 3.61068 98.5161 3.5727 73.6692ZM55.4334 125.53C53.6436 125.53 51.8557 125.438 50.075 125.254C49.923 125.06 49.7819 124.857 49.6526 124.646C48.401 122.331 48.3874 119.543 49.6173 117.216C50.2857 116.154 51.3212 115.376 52.5258 115.028C54.2921 114.42 55.8331 113.288 56.9428 111.785C60.1642 107.255 59.2526 99.4069 54.9613 94.6598C52.7293 92.1077 49.5712 90.5521 46.1879 90.3387H46.1056C44.1549 90.3975 42.2539 90.9636 40.588 91.9819L39.7976 92.3817C35.7505 94.3767 29.9923 96.3492 26.0067 95.9006C21.4071 95.386 18.2128 91.622 16.0938 89.1295C11.1812 83.3876 10.2199 77.0344 9.10931 69.6818C7.91734 63.3918 7.87031 56.9391 8.96823 50.6319C9.96033 48.6233 11.0809 46.6807 12.3244 44.8159C12.3859 44.9389 12.4537 45.0646 12.5098 45.1867C12.6282 45.4218 12.7503 45.6551 12.8797 45.8903C13.0651 46.2403 13.2505 46.5903 13.4359 46.943C13.5634 47.1799 13.6927 47.4169 13.8247 47.6556C14.021 48.0074 14.2191 48.3592 14.4189 48.711C14.5528 48.9444 14.6857 49.1786 14.8214 49.4119C15.0276 49.7637 15.2338 50.1137 15.4418 50.4637C15.5783 50.6934 15.714 50.9213 15.8524 51.1492C16.0712 51.5191 16.2919 51.8655 16.5126 52.2227C16.6383 52.4253 16.7622 52.6306 16.8824 52.8305C17.1565 53.27 17.4287 53.696 17.7009 54.1274C17.7733 54.2386 17.8456 54.3553 17.9162 54.4647C18.2553 54.9901 18.5917 55.5029 18.9218 56.003C19.0475 56.1884 19.1696 56.3738 19.2926 56.5592C19.4961 56.8649 19.6996 57.1706 19.8976 57.4627L20.3372 58.1057C20.4963 58.3409 20.6573 58.576 20.8129 58.8003L21.2569 59.4388C21.3944 59.6377 21.5319 59.8322 21.663 60.0185C21.7941 60.2057 21.9424 60.4173 22.0799 60.6081C22.2165 60.799 22.3096 60.9319 22.4191 61.0857L22.7889 61.5966L23.091 62.0154L23.3858 62.4214L23.6264 62.747L23.8525 63.0545L23.9872 63.2399C24.1528 63.4642 24.2785 63.6324 24.3137 63.6785C24.6628 64.1452 25.2118 64.4201 25.7951 64.4201C26.3784 64.4201 26.9274 64.1452 27.2765 63.6785C28.8311 61.6174 42.4682 43.3345 42.4682 34.7737C42.4682 34.2328 42.4348 33.6956 42.3832 33.1621C42.3669 32.9975 42.3407 32.8329 42.3199 32.6683C42.272 32.2975 42.215 31.9267 42.1354 31.5568C42.1002 31.3714 42.0613 31.1977 42.0206 31.0196C41.9347 30.6488 41.8352 30.2789 41.7221 29.9081C41.676 29.7598 41.6371 29.6097 41.5883 29.464C41.4219 28.9675 41.2347 28.4765 41.0221 27.999C40.9814 27.9076 40.9326 27.8136 40.8901 27.7304C40.7047 27.3451 40.5202 26.9634 40.3068 26.5908C40.2145 26.4244 40.1123 26.2635 40.0128 26.0998C39.8347 25.8076 39.6493 25.5201 39.4566 25.237C39.3418 25.0724 39.2251 24.9078 39.1048 24.7459C39.0415 24.6645 38.9882 24.5777 38.9194 24.4981C42.773 23.2003 46.7695 22.3719 50.822 22.031C47.9343 27.4817 46.991 32.5236 48.0691 37.0337C48.873 40.0543 50.3987 42.8353 52.515 45.1369C54.2577 47.2948 55.5112 48.8503 55.4334 51.3898C55.2742 56.7609 49.2086 61.2322 46.9133 62.9215C43.9026 65.0893 40.5374 66.7145 36.9678 67.7256C33.6035 68.8244 30.7014 69.7722 29.5917 73.084C28.4947 77.4576 30.2962 82.0464 34.0765 84.5045C36.342 85.7282 39.0117 85.9642 41.4571 85.1566C44.1359 84.5344 46.9051 84.4014 49.6309 84.7659C53.1499 85.2642 56.184 85.692 57.6229 87.7069C58.4766 88.9107 58.4323 90.1551 58.2659 92.4378C57.8861 95.6691 58.2144 98.9448 59.2264 102.037C60.0711 104.571 61.3471 108.397 64.413 108.839C64.612 108.87 64.8136 108.887 65.0144 108.887C67.184 108.887 68.5116 106.971 69.908 104.956C70.5248 104.065 71.2049 103.104 72.0197 102.139C75.8317 108.298 79.7042 113.437 79.8842 113.682C80.2342 114.148 80.7832 114.422 81.3656 114.422C81.9489 114.422 82.4979 114.148 82.8479 113.682C86.866 108.301 90.5287 102.661 93.8107 96.8014C96.0862 97.4607 98.253 98.4483 100.243 99.7334C90.9755 115.708 73.9017 125.538 55.4334 125.53ZM90.0042 75.127C92.7562 77.5815 94.3298 81.0941 94.3289 84.7822C94.3289 86.1143 93.7881 88.7551 91.2197 93.7708C88.2877 99.2052 84.9958 104.436 81.3638 109.429C79.621 107.001 76.6221 102.691 73.9388 98.1607C72.443 95.6772 71.1072 93.1025 69.9378 90.4499C69.0669 88.6764 68.5442 86.7528 68.3986 84.7822C68.4067 77.6249 74.2065 71.8252 81.3638 71.817C81.7644 71.817 82.1614 71.8351 82.5566 71.8713C85.3259 72.1218 87.9395 73.2649 90.0042 75.127ZM107.229 76.1942C106.91 83.2393 105.134 90.1415 102.013 96.4659C99.984 95.1825 97.7972 94.1642 95.5092 93.4353C96.9399 90.7574 97.7999 87.81 98.0333 84.7822C98.0179 78.4262 94.404 72.6273 88.7037 69.8129L88.587 69.7614C88.1728 69.5615 87.7523 69.3743 87.3227 69.2061C87.0279 69.0912 86.7222 69.0017 86.4202 68.9058C86.2347 68.8497 86.0683 68.7801 85.8884 68.7204C85.4109 68.5848 84.9252 68.4744 84.4368 68.3831H84.4124C84.1167 68.3279 83.8164 68.2981 83.5162 68.2592C78.7537 67.5999 73.9397 69.0442 70.3267 72.2158C66.7128 75.3884 64.6572 79.9745 64.6943 84.7822C64.8381 87.2511 65.4612 89.6694 66.5283 91.9006C67.5666 94.2646 68.7377 96.5681 70.0364 98.7992C68.8788 100.066 67.8189 101.418 66.8648 102.844C66.3556 103.717 65.7126 104.504 64.9592 105.177C64.5884 105.121 63.902 104.33 62.7363 100.865C61.8862 98.2339 61.6194 95.4484 61.9567 92.7045C62.4378 90.2401 61.9648 87.6852 60.6345 85.5563C58.2695 82.249 54.1411 81.6666 50.1238 81.0968C47.001 80.67 43.8266 80.8129 40.7553 81.5174C38.3859 81.9705 37.2861 82.1396 36.0281 81.3555C33.7301 79.7801 32.5816 76.9937 33.1016 74.2561C33.5963 72.7747 35.0786 72.2394 38.1028 71.2463C42.0522 70.1132 45.7746 68.3044 49.1064 65.8997C51.805 63.92 58.9234 58.6664 59.1377 51.4992C59.2562 47.5779 57.2946 45.1586 55.3981 42.8199C53.6455 40.9424 52.3703 38.6715 51.6793 36.1981C50.6954 32.0714 51.9145 27.232 55.2209 21.8085H55.4334C65.6303 21.823 75.5984 24.8363 84.0959 30.4733C83.1146 31.5667 81.9272 32.4548 80.6005 33.087C79.309 33.6459 77.8973 33.8666 76.4964 33.7291C74.5484 33.4885 72.5822 33.9941 70.9914 35.1445C66.7915 38.3062 64.9095 46.3687 68.6844 52.4235C71.3713 56.7148 75.961 57.715 80.9731 58.8075C83.6708 59.3773 86.459 59.3655 89.1523 58.7723C91.3137 58.2568 93.5675 58.2631 95.7253 58.7931C98.1536 59.493 100.433 60.6344 102.449 62.1582C104.544 63.8956 106.132 66.1637 107.048 68.7258C107.2 70.3619 107.294 72.0024 107.294 73.6692C107.294 74.4976 107.278 75.3359 107.222 76.1942H107.229Z" fill="black" stroke="white" mask="url(#path-2-inside-1)"/>
<path d="M32.9599 32.9214C32.9599 36.8756 29.7546 40.08 25.8012 40.08C21.8479 40.08 18.6426 36.8756 18.6426 32.9214C18.6426 28.968 21.8479 25.7627 25.8012 25.7627C29.7546 25.7627 32.9599 28.968 32.9599 32.9214ZM29.7556 32.9214C29.7556 30.7376 27.985 28.967 25.8012 28.967C23.6175 28.967 21.8469 30.7376 21.8469 32.9214C21.8469 35.1051 23.6175 36.8757 25.8012 36.8757C27.985 36.8757 29.7556 35.1051 29.7556 32.9214Z" fill="black" stroke="white" stroke-width="0.5"/>
<path d="M81.3657 90.0883C77.4123 90.0883 74.207 86.8839 74.207 82.9297C74.207 78.9763 77.4124 75.771 81.3657 75.771C85.319 75.771 88.5244 78.9763 88.5244 82.9297C88.5244 86.8839 85.3191 90.0883 81.3657 90.0883ZM81.3657 86.884C83.5495 86.884 85.32 85.1134 85.32 82.9297C85.32 80.7459 83.5495 78.9753 81.3657 78.9753C79.1819 78.9753 77.4114 80.7459 77.4114 82.9297C77.4114 85.1134 79.1819 86.884 81.3657 86.884Z" fill="black" stroke="white" stroke-width="0.5"/>
</g>
<defs>
<clipPath id="clip0">
<rect width="111" height="111" fill="white" transform="translate(0 18)"/>
</clipPath>
</defs>
</svg>
