<svg xmlns="http://www.w3.org/2000/svg" width="56.233mm" height="30.388mm" fill-rule="evenodd" viewBox="0 0 5623 3038" shape-rendering="geometricPrecision" text-rendering="geometricPrecision" image-rendering="optimizeQuality" clip-rule="evenodd"><path fill="#c42426" d="M1502.5 289.83l-28.6.66-27.94 1.94-27.3 3.24-26.63 5.2-26.65 5.85-26 7.15-26 8.45-24.7 9.75-24.03 10.4-24.05 12.34-22.74 13-22.1 13.65-22.1 14.94-20.14 16.26-20.15 16.25-18.84 18.2-18.2 18.2-17.54 19.5-16.26 20.8-15.6 20.8-14.3 21.43-13 22.75-12.34 23.4-10.4 23.4-10.4 24.7-8.44 24.68-7.15 25.35-6.5 26-4.54 26.64-3.25 26.65-2.6 27.3-.64 27.93.65 27.3 2.6 27.3 3.26 26.63 4.55 26.65 6.5 26 7.16 25.35 8.44 24.7 10.4 24.7 10.4 24.03 12.35 22.75 13 22.74 14.3 21.45 15.6 21.44 16.24 20.15 17.53 19.5 18.2 18.2 18.84 18.2 20.15 16.9 20.14 15.6 22.1 14.94 22.1 14.3 22.74 13 24.05 11.7 24.04 10.4 24.7 9.74 25.98 8.44 26 7.15 26.65 5.85 26.64 5.2 27.3 3.25 27.94 1.95 28.6.65 27.94-.65 27.95-1.95 27.28-3.25 27.3-5.2 26.64-5.85 26-7.15 25.34-8.44 25.35-9.75 24.05-10.4 23.4-11.7 23.4-13 22.1-14.3 21.43-14.94 20.8-15.6 20.15-16.9 18.84-18.2 18.2-18.2 16.9-19.5 16.9-20.14 14.94-21.44 14.3-21.45 13-22.74 12.35-22.75 11.05-24.04 9.74-24.7 8.46-24.7 7.8-25.34 5.84-26 5.2-26.64 3.25-26.64 1.94-27.3.65-27.3-.66-27.93-1.95-27.3-3.26-26.66-5.2-26.64-5.85-26-7.8-25.34-8.46-24.7-9.74-24.7-11.05-23.38-12.35-23.4-13-22.75-14.3-21.44-14.94-20.8-16.9-20.8-16.9-19.5-18.2-18.2-18.83-18.2-20.15-16.24-20.8-16.25-21.44-14.93-22.1-13.65-23.4-13-23.4-12.34-24.03-10.4-25.34-9.75-25.34-8.45-26-7.15-26.65-5.85-27.3-5.2-27.28-3.24-27.96-1.95-27.94-.67zm874.72 536.8v498.45h308.04V809.73l1.3-15.6 1.3-14.94 2.6-14.3 3.25-14.3 3.26-13 4.55-13 5.2-12.35 5.86-11.7 5.84-11.04 7.16-10.4 7.14-9.74 8.45-9.75 7.8-9.1 9.1-8.43 9.1-7.8 9.75-7.15 10.4-6.5 10.4-6.5 11.03-5.85 11.05-5.2 11.7-5.2 11.7-4.55 11.7-3.9 12.35-3.24 12.34-2.6 12.35-2.6 12.35-1.95 13-1.95 13-.65 12.34-.65 13-.65v-285.3l-28.6.66-28.58 1.94-27.94 2.6-27.95 3.9-27.94 5.2-27.3 6.5-26.66 7.8-26 8.44-25.34 9.75-25.34 10.4-24.04 11.7-23.4 13-23.4 13.63-22.1 14.95-21.44 15.6-20.14 16.9-19.5 17.55-18.84 18.85-17.55 20.15-16.24 20.14-15.6 22.1-14.3 22.08-13 23.4-11.7 24.7-11.03 24.7-9.1 25.98-7.8 27.3-6.5 27.3-5.2 28.6-3.24 29.88-1.95 29.9-.66 31.2zm3246.1-326.9L5414.06 290.5 5087.18 616.7 4760.94 290.5l-209.9 209.24 326.88 326.9-326.88 326.22 209.9 209.9 326.24-326.87 326.88 326.87 209.26-209.9-326.24-326.24 326.24-326.9zM345.72 0H37.05v826.63l.66 30.54 1.95 30.54 3.9 29.26 5.2 28.6 6.5 27.3 7.8 27.28 9.1 26 10.4 25.34 12.33 24.05 13 23.4 14.3 22.74 15.6 21.44 16.24 20.8 17.55 19.5 18.85 18.85 19.5 17.55 20.13 16.9 21.45 16.24 22.1 14.3 22.74 14.3 24.05 12.35 24.03 11.68 25.35 11.05 25.35 9.75 25.98 8.44 26.66 7.15 27.3 6.5 27.3 5.2 27.94 3.9 28.6 3.25 28.58 1.3 28.6.65v-285.3l-13-.64-13-.65-12.35-.65-13-1.95-12.34-1.95-13-2.6-12.35-2.6-11.7-3.25-12.35-3.9-11.7-4.54-11.05-4.56-11.04-5.85-11.04-5.85-10.4-5.84-10.4-7.15-9.74-7.16-9.1-7.8-9.1-8.45-8.45-9.1-7.8-9.1-7.14-10.4-7.16-10.4-5.84-11.05-5.85-11.7-5.2-12.34-4.55-13-3.9-12.98-2.6-14.3-2.6-14.3-1.95-14.95-.65-15.6V599.18h326.24V321.03H345.73V0zM3772.5 289.83l-27.3.66-27.3 1.94-27.3 3.9-26 4.54-25.98 5.85-25.34 7.15-25.35 8.45-24.04 9.75-24.06 10.4-22.75 12.34-22.75 13-22.1 13.65-20.8 14.94-20.14 16.26-19.5 16.9-18.83 17.55-17.55 18.85-16.9 18.84-15.6 20.8-15.6 20.8-13.63 22.1-13 22.08-11.7 23.4-11.06 23.4-9.1 24.7-8.44 24.68-7.8 25.35-5.85 26-4.55 26.64-3.25 26.65-1.95 27.3-1.3 27.93 1.3 27.3 1.95 27.3 3.25 26.63 4.55 26.65 5.85 26 7.8 25.35 8.44 25.34 9.1 24.04 11.05 24.04 11.7 22.75 13 22.74 13.63 21.45 15.6 21.44 15.6 20.15 16.9 19.5 17.54 18.2 18.84 18.2 19.5 16.9 20.16 15.6 20.8 14.94 22.1 14.3 22.73 13 22.74 11.7 24.05 10.4 24.03 9.74 25.35 8.44 25.34 7.15 26 6.5 26 4.55 27.28 3.25 27.3 1.95 27.3.65h13.64l13-.65 13-.65 13.64-1.3 26-3.25 26-4.55 25.33-5.85 25.36-6.5 24.7-8.44 24.7-9.75 24.04-10.4 23.4-11.7 22.74-13 22.1-13.64 21.44-15.6 20.8-16.26 10.4-8.44 9.74-8.45 9.75-9.1 9.75-9.74-186.52-185.86-9.1 9.75-9.74 9.74-10.4 9.1-10.4 9.1-11.05 7.8-11.03 7.8-12.35 6.5-11.7 6.5-12.34 5.2-13 5.2-13 3.9-13 3.9-13.65 2.58-14.3 1.95-13.64 1.3-14.3.65-10.4-.64-9.75-.66-10.4-.65-9.75-1.95-9.74-1.3-9.75-2.6-9.74-2.6-9.75-3.24-9.1-3.26-9.1-3.24-9.1-4.55-8.43-4.55-9.1-4.55-8.45-5.2-7.8-5.2-8.45-5.85-7.8-5.84-7.15-6.5-7.8-6.5-7.14-6.5-6.5-7.15-7.15-7.8-6.5-7.8-5.84-7.8-5.86-7.8-5.85-8.45-5.2-9.1-5.2-8.45-4.56-9.1-4.55-9.1-3.9-9.75-3.9-9.74h769.43l2.6-11.7 1.96-12.34 1.94-13.65 1.95-14.28.64-14.3 1.3-14.3v-13.64l.64-12.35-.64-27.94-2.6-27.3-3.25-26.66-4.57-26.64-5.84-26-7.16-25.34-8.45-24.7-9.76-24.7L4256 594l-11.7-23.4-13-22.1-13.65-22.1-14.95-20.8-16.24-20.8-16.9-18.83-17.54-18.84-18.85-17.54-19.5-16.9-20.14-16.25-20.8-14.93-22.1-13.65-22.1-13-23.38-12.34-24.05-10.4-24.04-9.75-24.7-8.45-26-7.15-26-5.85-25.98-4.54-27.3-3.9-26.64-1.95-27.95-.67zM3528.8 719.4l3.9-9.75 3.9-9.1 4.54-9.75 4.55-8.44 5.2-9.1 5.2-8.45 5.84-8.44 5.85-8.44 5.83-7.8 6.5-7.8 7.15-7.15 6.5-7.15 7.15-7.15 7.8-6.5 7.14-6.5 7.8-5.84 8.45-5.85 7.8-5.2 8.45-5.2 9.1-4.55 8.44-4.55 9.1-3.9 9.1-3.9 9.1-3.25 9.76-3.24 9.75-2.62 9.76-1.95 9.74-1.95 9.75-1.3 10.4-1.3 9.75-.64h20.8l10.4.65 9.74 1.3 9.74 1.28 10.4 1.95 9.75 1.95 9.1 2.6 9.75 3.25 9.1 3.25 9.1 3.9 9.1 3.9 9.1 4.55 8.44 4.55 8.44 5.2 7.8 5.2 8.45 5.85 7.8 5.85 7.8 6.5 7.16 6.5 7.15 7.14 7.15 7.15 6.5 7.15 6.5 7.8 5.85 7.8 5.85 8.44 5.85 8.45 5.2 8.46 5.2 9.1 4.55 8.44 4.55 9.75 4.55 9.1 3.25 9.75h-487.4zm-2026.3 365.88l-12.35-.65-12.34-.65-11.7-1.95-12.34-1.95-11.7-3.25-11.05-3.25-11.04-3.9-11.04-4.55-10.4-5.2-10.4-5.85-10.4-6.5-9.74-6.5-9.1-7.14-9.1-7.8-9.1-8.45-7.8-8.46-8.45-9.1-7.14-9.1-7.16-9.75-6.5-10.4-6.5-10.4-5.85-11.04-5.2-11.05-5.2-11.04L1277 915l-3.9-11.7-3.25-12.33-2.6-12.35-1.96-13-1.95-13-.65-13v-26.64l.65-13 1.94-13 1.94-13 2.6-12.34 3.25-12.34 3.9-11.7 3.9-11.7 5.2-11.7 5.2-11.04 5.84-11.05 6.5-10.4 6.5-10.4 7.15-9.74 7.13-9.1 8.46-9.1 7.78-8.44 9.1-8.45 9.1-7.8 9.1-7.14 9.74-6.5 10.4-6.5 10.4-5.2 10.4-5.2 11.04-5.2 11.05-3.9 11.06-3.25 11.7-3.25 12.35-1.95 11.7-1.95 12.35-.65 12.35-.65 12.35.65 12.34.65 11.7 1.95 11.7 1.95 11.7 3.25 11.7 3.25 11.04 3.9 11.04 5.2 10.4 5.2 10.4 5.2 9.74 6.5 9.76 6.5 9.74 7.14 9.1 7.8 8.45 8.45 8.44 8.44 7.8 9.1 7.8 9.1 7.16 9.75 6.5 10.4 6.5 10.4 5.2 11.06 5.85 11.04 4.55 11.7 4.56 11.7 3.25 11.7 3.25 12.34 2.6 12.35 2.6 13 1.3 12.98.65 13 .65 13.65-.65 13-.65 13-1.3 13-2.6 13-2.6 12.34-3.25 12.34L1728 915l-4.55 12.36-4.54 11.05-5.84 11.06-5.2 11.04-6.5 10.4-6.5 10.4-7.15 9.74-7.8 9.1-7.8 9.1-8.43 8.45-8.45 8.44-9.1 7.8-9.74 7.15-9.76 6.48-9.75 6.5-10.4 5.85-10.4 5.2-11.03 4.55-11.05 3.9-11.7 3.25-11.7 3.25-11.7 1.95-11.7 1.95-12.35.65-12.35.65z"/></svg>