<svg width="52" height="52" viewBox="0 0 52 52" fill="none" xmlns="http://www.w3.org/2000/svg">
<path d="M47.6667 0H4.33333C1.94393 0 0 1.94393 0 4.33333V31.2V34.6667C0 37.0561 1.94393 39 4.33333 39H18.8951L17.4772 46.8H14.0721C13.0806 46.8 12.1897 47.3503 11.7459 48.2369C11.3403 49.049 11.3828 49.9945 11.8595 50.7667C12.3361 51.5389 13.1638 52 14.0712 52H37.9279C38.8353 52 39.6621 51.5389 40.1397 50.7667C40.6172 49.9945 40.6597 49.049 40.2532 48.2369C39.8112 47.3503 38.9203 46.8 37.9288 46.8H34.5237L33.1058 39H47.6667C50.0561 39 52 37.0561 52 34.6667V31.2V4.33333C52 1.94393 50.0561 0 47.6667 0ZM33.8 48.5333H37.9288C38.259 48.5333 38.5563 48.7171 38.7045 49.0126C38.8995 49.4026 38.7426 49.7319 38.6672 49.8559C38.5892 49.9789 38.3647 50.2667 37.9288 50.2667H14.0712C13.6353 50.2667 13.4099 49.9789 13.3337 49.855C13.2574 49.7311 13.1005 49.4026 13.2964 49.0117C13.4437 48.7171 13.741 48.5333 14.0712 48.5333H18.2H25.1333C25.6117 48.5333 26 48.1451 26 47.6667C26 47.1883 25.6117 46.8 25.1333 46.8H19.2383L20.6561 39H31.343L32.7617 46.8H30.3333C29.8549 46.8 29.4667 47.1883 29.4667 47.6667C29.4667 48.1451 29.8549 48.5333 30.3333 48.5333H33.8ZM50.2667 34.6667C50.2667 36.1001 49.1001 37.2667 47.6667 37.2667H32.0667H19.9333H4.33333C2.89987 37.2667 1.73333 36.1001 1.73333 34.6667V32.0667H50.2667V34.6667ZM50.2667 30.3333H1.73333V4.33333C1.73333 2.89987 2.89987 1.73333 4.33333 1.73333H47.6667C49.1001 1.73333 50.2667 2.89987 50.2667 4.33333V30.3333Z" fill="#FECC2F"/>
<path d="M23.4001 17.3331H14.7335V8.66647C14.7335 8.18807 14.3452 7.7998 13.8668 7.7998C8.13206 7.7998 3.4668 12.4651 3.4668 18.1998C3.4668 23.9345 8.13206 28.5998 13.8668 28.5998C19.6015 28.5998 24.2668 23.9345 24.2668 18.1998C24.2668 17.7214 23.8785 17.3331 23.4001 17.3331ZM13.8668 26.8665C9.088 26.8665 5.20013 22.9786 5.20013 18.1998C5.20013 13.7139 8.62693 10.0124 13.0001 9.57647V18.1998C13.0001 18.6782 13.3884 19.0665 13.8668 19.0665H22.4901C22.0542 23.4397 18.3527 26.8665 13.8668 26.8665Z" fill="#FECC2F"/>
<path d="M17.3335 4.3335C16.8551 4.3335 16.4668 4.72176 16.4668 5.20016V14.7335C16.4668 15.2119 16.8551 15.6002 17.3335 15.6002H26.8668C27.3452 15.6002 27.7335 15.2119 27.7335 14.7335C27.7335 8.99876 23.0682 4.3335 17.3335 4.3335ZM18.2001 13.8668V6.11016C22.2882 6.5175 25.5495 9.77876 25.9568 13.8668H18.2001Z" fill="#FECC2F"/>
<path d="M47.6668 3.4668H30.3335C29.8551 3.4668 29.4668 3.85506 29.4668 4.33346V27.7335C29.4668 28.2119 29.8551 28.6001 30.3335 28.6001H47.6668C48.1452 28.6001 48.5335 28.2119 48.5335 27.7335V4.33346C48.5335 3.85506 48.1452 3.4668 47.6668 3.4668ZM46.8001 26.8668H31.2001V5.20013H46.8001V26.8668Z" fill="#FECC2F"/>
<path d="M39.0003 7.7998H33.8003C33.3219 7.7998 32.9336 8.18807 32.9336 8.66647C32.9336 9.14487 33.3219 9.53314 33.8003 9.53314H39.0003C39.4787 9.53314 39.8669 9.14487 39.8669 8.66647C39.8669 8.18807 39.4787 7.7998 39.0003 7.7998Z" fill="#FECC2F"/>
<path d="M44.2003 11.2666H33.8003C33.3219 11.2666 32.9336 11.6549 32.9336 12.1333C32.9336 12.6117 33.3219 12.9999 33.8003 12.9999H44.2003C44.6787 12.9999 45.0669 12.6117 45.0669 12.1333C45.0669 11.6549 44.6787 11.2666 44.2003 11.2666Z" fill="#FECC2F"/>
<path d="M39.0003 14.7334H33.8003C33.3219 14.7334 32.9336 15.1217 32.9336 15.6001C32.9336 16.0785 33.3219 16.4667 33.8003 16.4667H39.0003C39.4787 16.4667 39.8669 16.0785 39.8669 15.6001C39.8669 15.1217 39.4787 14.7334 39.0003 14.7334Z" fill="#FECC2F"/>
<path d="M44.2003 18.2002H33.8003C33.3219 18.2002 32.9336 18.5885 32.9336 19.0669C32.9336 19.5453 33.3219 19.9335 33.8003 19.9335H44.2003C44.6787 19.9335 45.0669 19.5453 45.0669 19.0669C45.0669 18.5885 44.6787 18.2002 44.2003 18.2002Z" fill="#FECC2F"/>
<path d="M39.0003 21.6665H33.8003C33.3219 21.6665 32.9336 22.0548 32.9336 22.5332C32.9336 23.0116 33.3219 23.3998 33.8003 23.3998H39.0003C39.4787 23.3998 39.8669 23.0116 39.8669 22.5332C39.8669 22.0548 39.4787 21.6665 39.0003 21.6665Z" fill="#FECC2F"/>
<path d="M27.7332 33.7998H24.2666C23.7882 33.7998 23.3999 34.1881 23.3999 34.6665C23.3999 35.1449 23.7882 35.5331 24.2666 35.5331H27.7332C28.2116 35.5331 28.5999 35.1449 28.5999 34.6665C28.5999 34.1881 28.2116 33.7998 27.7332 33.7998Z" fill="#FECC2F"/>
</svg>
