<svg width="80" height="78" viewBox="0 0 80 78" fill="none" xmlns="http://www.w3.org/2000/svg">
<rect x="1" y="1" width="12" height="76" stroke="black" stroke-width="2"/>
<rect x="63" y="55" width="9" height="22" stroke="black" stroke-width="2"/>
<path d="M55 5C55 3.34315 56.3431 2 58 2H60V25H58C56.3431 25 55 23.6569 55 22V5Z" stroke="black" stroke-width="2"/>
<path fill-rule="evenodd" clip-rule="evenodd" d="M61 23.7479C62.9702 25.1652 65.3876 26 68 26C74.6274 26 80 20.6274 80 14C80 7.37258 74.6274 2 68 2C65.3876 2 62.9702 2.83476 61 4.25209V6.85857C62.8038 5.09032 65.2745 4 68 4C73.5228 4 78 8.47715 78 14C78 19.5228 73.5228 24 68 24C65.2745 24 62.8038 22.9097 61 21.1414V23.7479Z" fill="black"/>
<path d="M60 8.5C61.5 9.5 64.5 9 66.5 9C68.0811 9 68.5 11.5 69.5 12C70.5 12.5 73 10 73 14C73 17.2 71 17.3333 70 17V20.5C70 21.6667 70.4 24 72 24" stroke="black" stroke-width="2"/>
<path d="M42.1852 33.0866C42.1344 32.5024 42.595 32 43.1815 32H45.1664C45.6851 32 46.1177 32.3966 46.1626 32.9134L47.8148 51.9134C47.8656 52.4976 47.405 53 46.8185 53H44.8336C44.3149 53 43.8823 52.6034 43.8374 52.0866L42.1852 33.0866Z" stroke="black" stroke-width="2"/>
<path d="M44.5 32H27" stroke="black" stroke-width="2"/>
<path d="M21 24.5029L22.207 27.2723L22.5922 28.1561L23.4895 27.8035L26.3013 26.6987L25.1965 29.5105L24.8439 30.4078L25.7277 30.793L28.4971 32L25.7277 33.207L24.8439 33.5922L25.1965 34.4895L26.3013 37.3013L23.4895 36.1965L22.5922 35.8439L22.207 36.7277L21 39.4971L19.793 36.7277L19.4078 35.8439L18.5105 36.1965L15.6987 37.3013L16.8035 34.4895L17.1561 33.5922L16.2723 33.207L13.5029 32L16.2723 30.793L17.1561 30.4078L16.8035 29.5105L15.6987 26.6987L18.5105 27.8035L19.4078 28.1561L19.793 27.2723L21 24.5029Z" stroke="black" stroke-width="2"/>
<path d="M55 41.5H47L47.5 48H57.5L69.8438 39.0614C71.1788 38.0947 71.8991 36.4911 71.7351 34.8511C71.5954 33.454 70.5598 32.312 69.1831 32.0366L68.9521 31.9904C67.4056 31.6811 65.8031 32.106 64.613 33.1409L55 41.5Z" stroke="black" stroke-width="2"/>
<path fill-rule="evenodd" clip-rule="evenodd" d="M74 33.5V54H61V45.4655L59 46.9138V54V56H61H74H76V54V33.5C76 28.8056 72.1944 25 67.5 25C62.8056 25 59 28.8056 59 33.5V38.0217L61 36.2826V33.5C61 29.9101 63.9101 27 67.5 27C71.0899 27 74 29.9101 74 33.5Z" fill="black"/>
</svg>
