<svg xmlns="http://www.w3.org/2000/svg" width="1000" height="229.088" viewBox="0 0 264.58333 60.612868"><path d="M168.15 37.94c-4.6 0-8.35-3.75-8.35-8.36 0-4.6 3.75-8.35 8.35-8.35s8.36 3.75 8.36 8.35c0 4.66-3.77 8.36-8.34 8.36m0-21.68c-7.36 0-13.32 5.96-13.32 13.32 0 7.37 5.96 13.33 13.32 13.33 7.37 0 13.33-5.94 13.33-13.3 0-7.3-5.97-13.33-13.34-13.33M151.85 38.62h1.08v5h-1.08c-5.74 0-10.43-4.7-10.43-10.42V10.3h5v6.68h6.47V22h-6.48v11.24c0 2.94 2.44 5.38 5.42 5.38M212.9 37.94c-4.6 0-8.34-3.75-8.34-8.36 0-4.6 3.75-8.35 8.35-8.35 4.63 0 8.38 3.75 8.38 8.35-.05 4.66-3.8 8.36-8.36 8.36m0-21.68c-7.35 0-13.3 5.96-13.3 13.32 0 7.37 5.95 13.33 13.3 13.33 7.38 0 13.34-5.94 13.34-13.3 0-7.3-5.96-13.33-13.33-13.33M251.26 37.94c-4.6 0-8.36-3.75-8.36-8.36 0-4.6 3.75-8.35 8.36-8.35 4.6 0 8.36 3.75 8.36 8.35 0 4.66-3.8 8.36-8.36 8.36m0-21.68c-7.36 0-13.32 5.96-13.32 13.32 0 7.37 5.96 13.33 13.32 13.33 3.25 0 6.23-1.16 8.54-3.1v2.6h4.78V30c0-.15 0-.28 0-.42 0-7.3-5.96-13.32-13.32-13.32M195.25 16.26h2.4v5h-2.4c-2.98 0-5.42 2.45-5.42 5.43v15.88h-5V26.7c0-5.74 4.7-10.44 10.42-10.44" class="st0"/><path d="M229.58 9.62h5V42.5h-5zM108.08 27.37v15.85h-5V27.37c0-2.98-2.45-5.42-5.43-5.42-2.98 0-5.42 2.44-5.42 5.42v15.85h-5V27.37c0-2.98-2.45-5.42-5.43-5.42-3 0-5.42 2.44-5.42 5.42v15.85h-5.02V27.37c0-5.74 4.7-10.43 10.4-10.43 3.2 0 6 1.4 7.94 3.66 1.94-2.26 4.74-3.66 7.95-3.66 5.74 0 10.43 4.7 10.43 10.43M124.8 38.62c-4.6 0-8.36-3.75-8.36-8.36 0-4.6 3.75-8.35 8.35-8.35s8.34 3.76 8.34 8.37c0 4.6-3.8 8.36-8.36 8.36m0-21.68c-7.4 0-13.38 5.96-13.38 13.32s5.97 13.33 13.33 13.33 13.32-5.98 13.32-13.34c.05-7.32-5.9-13.32-13.28-13.32" class="st0"/><path d="M30.3 0C13.56 0 0 13.55 0 30.3c0 16.76 13.55 30.3 30.3 30.3 16.76 0 30.3-13.54 30.3-30.3C60.6 13.65 47.25 0 30.3 0" class="st1"/><path fill="#fff" d="M39.34 7.45l-9 29.8-.03.06-.07-.03-9-29.8L9.63 45.6h2.17s1.43-6.64 3.83-10.62c1.3-2.16 3.3-3.93 5.96-3.88 1.9.04 3.5 1.08 5.53 3.93.46.63 1 1.67 1.54 2.66.86 1.67 1.58 3.4 1.58 3.4s1.9-4.34 3.12-6.06c2.03-2.85 3.66-3.9 5.55-3.93 2.67-.04 4.7 1.73 5.97 3.9 2.4 3.97 3.82 10.6 3.82 10.6h2.17z" class="st2"/></svg>