<svg width="80" height="85" viewBox="0 0 80 85" fill="none" xmlns="http://www.w3.org/2000/svg">
<path d="M58.1403 84.8371C62.4539 85.1671 66.6436 83.7768 69.9292 80.954C70.9617 80.0673 71.8507 79.072 72.6056 78.0078C72.8008 77.7339 72.9783 77.4558 73.1558 77.1778C73.4543 76.7024 73.7173 76.2188 73.9666 75.7132C78.9552 66.3155 80.7776 56.2542 79.5186 45.0041C78.1443 32.8814 72.6018 21.8157 63.9195 13.8324C56.6445 7.13592 47.4739 2.85365 37.4119 1.42663C30.2018 0.402001 22.6282 1.09665 15.1678 3.39635C12.6015 3.69959 10.169 4.63544 8.02409 6.10821C7.73453 6.30374 7.46278 6.50344 7.18685 6.72095C6.98096 6.87963 6.79286 7.04246 6.60475 7.20529C3.90545 9.52594 2.14374 12.5728 1.39101 15.7987C0.251516 20.6821 1.37078 26.0174 4.86865 30.0848C7.6852 33.373 11.6121 35.3605 15.9299 35.6727C18.0511 35.8294 20.1352 35.5827 22.1024 34.9518C22.367 34.8632 22.6494 34.7787 22.9182 34.6723C23.3104 34.5195 23.7067 34.3489 24.0852 34.1741C31.5559 31.1063 37.9338 31.918 43.0461 36.6252C49.3634 42.4404 50.4126 51.2925 45.9435 59.5898C45.5749 60.124 45.2555 60.6884 44.954 61.257C44.7819 61.5927 44.6275 61.9325 44.4731 62.2724C44.1009 63.144 43.8176 64.0363 43.6055 64.9453C42.466 69.8287 43.5853 75.164 47.0832 79.2313C49.8997 82.5196 53.8266 84.5071 58.1403 84.8371ZM46.3153 63.3036C46.678 62.3922 47.1434 61.5236 47.7114 60.6977C48.3963 59.6923 49.2111 58.7736 50.1736 57.9458C56.0706 52.857 64.9952 53.53 70.0727 59.4318C72.537 62.2996 73.7322 65.9425 73.4354 69.707C73.3759 70.4448 73.2629 71.1702 73.0966 71.8831C72.8553 72.9168 72.4937 73.9036 72.0295 74.8477C71.6686 75.5904 71.2406 76.2986 70.7457 76.9724C70.1118 77.8394 69.3795 78.6457 68.5351 79.3696C65.6697 81.8394 62.0311 83.0388 58.2721 82.7442C54.5089 82.4675 51.0868 80.7293 48.6402 77.8657C45.0878 73.7104 44.3803 68.0578 46.3153 63.3036ZM6.46128 28.7274C1.38378 22.8256 2.06201 13.888 7.95907 8.79923C8.02909 8.7404 8.09911 8.68157 8.18692 8.62688C10.3272 6.85235 12.8861 5.77685 15.6031 5.47118C16.4704 5.37287 17.3566 5.35415 18.2399 5.4287C22.0031 5.70543 25.4252 7.44361 27.8718 10.3072C30.3361 13.175 31.5313 16.8179 31.2346 20.5824C31.175 21.3202 31.062 22.0456 30.8957 22.7585C30.2178 25.6636 28.6573 28.25 26.3562 30.2313C25.3937 31.0591 24.3536 31.7373 23.2536 32.2699C22.5583 32.5963 21.8534 32.8828 21.1119 33.0856C19.5012 33.5555 17.8063 33.7426 16.0932 33.606C12.3519 33.3156 8.92978 31.5774 6.46128 28.7274ZM44.4585 35.0754C40.0702 31.0446 34.9051 29.5387 29.0427 30.5387C31.5458 27.8527 33.0579 24.4282 33.3244 20.713C33.6569 16.393 32.2715 12.1983 29.4549 8.9101C27.3742 6.48891 24.7149 4.77839 21.7273 3.91211C26.9294 2.9272 32.1224 2.78582 37.1157 3.49994C46.7423 4.86294 55.5244 8.9606 62.4935 15.3602C70.8069 22.9943 76.1165 33.611 77.421 45.2288C78.1335 51.5028 77.8473 57.3934 76.5415 62.9897C76.2379 64.2908 75.8851 65.5615 75.4611 66.8157C75.1057 63.5943 73.8089 60.548 71.638 58.0306C68.8215 54.7423 64.8946 52.7548 60.5768 52.4426C56.7204 52.163 52.9645 53.2222 49.8654 55.4872C52.0985 47.9273 50.2362 40.3889 44.4585 35.0754Z" fill="white"/>
</svg>
