<svg width="49" height="49" viewBox="0 0 49 49" fill="none" xmlns="http://www.w3.org/2000/svg">
<path d="M40.4348 25.8984C40.041 25.8984 39.7218 26.2177 39.7218 26.6115C39.7218 27.1108 39.3156 27.517 38.8163 27.517C38.3171 27.517 37.9109 27.1108 37.9109 26.6115C37.9109 26.2176 37.5916 25.8984 37.1978 25.8984C36.804 25.8984 36.4847 26.2177 36.4847 26.6115C36.4847 27.8972 37.5307 28.9431 38.8163 28.9431C40.1019 28.9431 41.1479 27.8971 41.1479 26.6115C41.1479 26.2175 40.8287 25.8984 40.4348 25.8984Z" fill="#FECC2F"/>
<path d="M47.1284 26.015L45.1213 25.372C44.8643 25.2896 44.6617 25.0844 44.5795 24.8231C44.1565 23.4782 43.5181 22.2155 42.6822 21.0702C42.3012 20.5481 41.8775 20.0496 41.4147 19.575C41.7108 18.276 41.8717 16.8059 41.8509 15.5358C41.821 13.7189 41.4579 12.6533 40.7409 12.2777C40.3548 12.0752 39.1795 11.46 32.8184 14.3719C32.6678 14.4408 32.5271 14.5257 32.3968 14.6229C31.968 14.5077 31.5297 14.4011 31.0887 14.3054C31.0356 14.2938 30.9808 14.2836 30.9273 14.2723C31.4428 13.1462 31.7438 11.9232 31.8003 10.6607C31.8179 10.2672 31.5133 9.93396 31.1198 9.91645C30.7273 9.89693 30.393 10.2034 30.3755 10.5969C30.2826 12.6728 29.4214 14.626 27.9509 16.0967C27.0722 16.9753 26.0434 17.6136 24.9469 18.0155C23.0454 17.7487 21.1086 17.7487 19.207 18.0155C18.1105 17.6136 17.0818 16.9753 16.2031 16.0967C14.6342 14.5277 13.7701 12.4417 13.7701 10.2228C13.7701 8.00382 14.6342 5.91788 16.2031 4.34892C17.7721 2.77987 19.8582 1.91577 22.077 1.91577C24.2958 1.91577 26.3819 2.77987 27.9509 4.34892C28.5814 4.97941 29.1024 5.69891 29.4994 6.48722C29.6766 6.83902 30.1054 6.98066 30.4571 6.80342C30.8089 6.62637 30.9505 6.19752 30.7733 5.84581C30.3079 4.92142 29.6976 4.07856 28.9595 3.34031C27.1211 1.50195 24.6769 0.489502 22.0771 0.489502C19.4773 0.489502 17.0331 1.50195 15.1947 3.34031C13.3563 5.17876 12.3439 7.62292 12.3439 10.2227C12.3439 12.8225 13.3563 15.2667 15.1947 17.1051C15.725 17.6354 16.3019 18.0914 16.9121 18.4735C16.9123 18.4735 16.9125 18.4734 16.9127 18.4734C16.4693 18.5886 16.0292 18.718 15.5941 18.8634C15.2205 18.9883 15.019 19.3923 15.1439 19.7659C15.2687 20.1395 15.6728 20.341 16.0463 20.2162C19.9352 18.9161 24.2189 18.9161 28.1079 20.2162C28.1829 20.2413 28.2591 20.2532 28.3341 20.2532C28.6324 20.2532 28.9105 20.0644 29.0103 19.7659C29.1352 19.3924 28.9336 18.9883 28.5601 18.8634C28.1249 18.718 27.6849 18.5885 27.2415 18.4734C27.2417 18.4734 27.2419 18.4735 27.2421 18.4735C27.8524 18.0914 28.4292 17.6354 28.9595 17.1051C29.4286 16.636 29.8427 16.1237 30.2023 15.5792C30.3989 15.6174 30.594 15.6574 30.7863 15.6991C31.0424 15.7547 31.2973 15.8144 31.55 15.8771C31.542 15.9081 31.5339 15.939 31.5273 15.9705C31.1795 17.6209 31.2021 19.0806 31.5944 20.3088C31.9469 21.4127 32.5833 22.307 33.4855 22.9671C34.5488 23.745 35.8326 24.081 36.9955 24.081C37.8707 24.081 38.6776 23.8905 39.2701 23.5549C39.9405 23.1753 40.502 22.3753 40.9466 21.1742C41.1521 21.414 41.3468 21.6597 41.5304 21.9112C42.2747 22.9308 42.8428 24.0546 43.2192 25.2511C43.4401 25.9538 43.9887 26.5068 44.6865 26.7304L46.6936 27.3734C47.2202 27.5421 47.574 28.0268 47.574 28.5798V31.9079C47.574 32.4608 47.2202 32.9456 46.6936 33.1143L43.4598 34.1501C42.9425 34.316 42.5046 34.6715 42.227 35.1514C40.9565 37.347 38.9591 39.1639 36.2899 40.5517C35.9815 40.7122 35.7679 40.9992 35.7036 41.3393L34.6679 46.8234C34.6393 46.9745 34.5069 47.0841 34.3531 47.0841H30.9856C30.8318 47.0841 30.6995 46.9744 30.6708 46.8234L30.0972 43.7926C29.9843 43.1963 29.425 42.8001 28.823 42.8913C27.3724 43.1107 25.8777 43.2218 24.3807 43.2218C23.2669 43.2218 22.1673 43.1597 21.1124 43.0371C20.5291 42.97 19.9857 43.3677 19.8767 43.9436L19.3316 46.8234C19.3029 46.9745 19.1706 47.0841 19.0168 47.0841H15.6493C15.4955 47.0841 15.3631 46.9744 15.3341 46.8211L14.3369 41.6415C14.2727 41.3077 14.0631 41.024 13.7615 40.8629C9.21143 38.4339 6.80641 34.3757 6.80641 29.1273C6.80641 26.4756 7.38656 24.1308 8.53069 22.1577C9.59835 20.3165 11.1577 18.7942 13.1655 17.6328C13.5064 17.4356 13.6229 16.9993 13.4257 16.6583C13.2286 16.3175 12.7923 16.2012 12.4514 16.3981C8.55825 18.6502 6.21018 22.1246 5.5637 26.5375V26.5374C5.49508 26.5312 5.42637 26.5252 5.35794 26.5182C5.37038 26.042 5.28425 25.5616 5.09667 25.0953C4.68295 24.0669 3.8331 23.3246 2.93148 23.2043C2.22098 23.1092 1.54484 23.4109 1.07561 24.0308C0.395254 24.9299 0.506174 25.6413 0.718922 26.0798C1.0781 26.8199 2.00134 27.3434 3.53346 27.6725C3.49135 27.7356 3.44503 27.799 3.3943 27.8626C2.48905 28.9979 1.42253 29.249 0.730023 29.2726C0.324625 29.2863 0 29.6118 0 30.0175V30.0209C0 30.421 0.315725 30.7474 0.715477 30.7657C0.766678 30.7681 0.820176 30.7693 0.875875 30.7693C1.75213 30.7693 3.15849 30.4461 4.50963 28.7519C4.72295 28.4845 4.89675 28.2023 5.03035 27.9108C5.16491 27.9261 5.2942 27.9391 5.41804 27.9506C5.41804 27.9503 5.41804 27.9501 5.41814 27.9498C5.39383 28.3362 5.38033 28.7283 5.38033 29.1273C5.38033 32.0968 6.08825 34.7444 7.48427 36.997C8.77148 39.0737 10.6144 40.7742 12.9638 42.053L13.9332 47.0885C14.0891 47.9123 14.8108 48.5103 15.6493 48.5103H19.0168C19.8552 48.5103 20.5769 47.9123 20.7328 47.0885L21.2257 44.4846C22.2493 44.593 23.3092 44.648 24.3806 44.648C25.8506 44.648 27.3188 44.5456 28.7498 44.3434L29.2694 47.0887C29.4254 47.9125 30.1471 48.5104 30.9854 48.5104H34.3529C35.1914 48.5104 35.9131 47.9124 36.0691 47.0883L37.0775 41.7489C39.9264 40.2425 42.0738 38.2635 43.4613 35.8656C43.5613 35.6927 43.7153 35.5659 43.8948 35.5084L47.1284 34.4726C48.2479 34.1138 49 33.0832 49 31.9077V28.5796C49 27.4042 48.2479 26.3736 47.1284 26.015ZM40.3176 17.5398C40.0431 19.887 39.3069 21.8948 38.5671 22.3138C37.7263 22.7901 35.7849 22.8821 34.3274 21.8159C32.8681 20.7484 32.3824 18.8288 32.9226 16.2645C32.9226 16.2644 32.9226 16.2644 32.9226 16.2644C32.9769 16.0069 33.1599 15.7841 33.4121 15.6687C36.9822 14.0345 39.0405 13.5 39.8051 13.5C39.9205 13.5 40.0065 13.5121 40.0637 13.5345C40.2934 13.7793 40.5947 15.1709 40.3176 17.5398ZM2.00221 25.4571C1.92842 25.3049 2.1026 25.0374 2.21304 24.8914C2.38808 24.6602 2.54934 24.6129 2.67117 24.6129C2.69691 24.6129 2.72094 24.615 2.74295 24.618C3.07083 24.6617 3.5302 25.0225 3.77357 25.6275C3.8309 25.7699 3.90536 26.0058 3.92278 26.3C2.9356 26.0954 2.16863 25.8006 2.00221 25.4571Z" fill="#FECC2F"/>
<path d="M18.7282 2.99133C19.2322 2.89533 19.7842 2.82333 20.3842 2.77533C20.9962 2.71533 21.6022 2.68533 22.2022 2.68533C22.8262 2.68533 23.4502 2.73933 24.0742 2.84733C24.7102 2.94333 25.2802 3.14733 25.7842 3.45933C26.2882 3.75933 26.6962 4.18533 27.0082 4.73733C27.3322 5.27733 27.4942 5.98533 27.4942 6.86133C27.4942 7.65333 27.3562 8.32533 27.0802 8.87733C26.8042 9.41733 26.4382 9.86133 25.9822 10.2093C25.5262 10.5573 25.0042 10.8093 24.4162 10.9653C23.8402 11.1213 23.2402 11.1993 22.6162 11.1993C22.5562 11.1993 22.4602 11.1993 22.3282 11.1993C22.1962 11.1993 22.0582 11.1993 21.9142 11.1993C21.7702 11.1873 21.6262 11.1753 21.4822 11.1633C21.3502 11.1513 21.2542 11.1393 21.1942 11.1273V15.4653H18.7282V2.99133ZM22.4002 4.80933C22.1602 4.80933 21.9322 4.82133 21.7162 4.84533C21.5002 4.85733 21.3262 4.87533 21.1942 4.89933V8.98533C21.2422 8.99733 21.3142 9.00933 21.4102 9.02133C21.5062 9.03333 21.6082 9.04533 21.7162 9.05733C21.8242 9.05733 21.9262 9.05733 22.0222 9.05733C22.1302 9.05733 22.2082 9.05733 22.2562 9.05733C22.5802 9.05733 22.8982 9.02733 23.2102 8.96733C23.5342 8.90733 23.8222 8.79933 24.0742 8.64333C24.3262 8.47533 24.5242 8.24733 24.6682 7.95933C24.8242 7.67133 24.9022 7.29333 24.9022 6.82533C24.9022 6.42933 24.8302 6.10533 24.6862 5.85333C24.5422 5.58933 24.3502 5.37933 24.1102 5.22333C23.8822 5.06733 23.6182 4.95933 23.3182 4.89933C23.0182 4.83933 22.7122 4.80933 22.4002 4.80933Z" fill="#FECC2F"/>
<rect x="18.0347" y="12.5903" width="4.08333" height="1.36111" fill="#FECC2F"/>
</svg>
