<svg width="52" height="52" fill="none" xmlns="http://www.w3.org/2000/svg"><g clip-path="url(#clip0)" fill="#FECC2F"><path d="M40.096.003H3.332a.759.759 0 0 0-.755.762V5.97A3.257 3.257 0 0 0 0 9.161a3.257 3.257 0 0 0 2.577 3.191v1.387A3.257 3.257 0 0 0 0 16.931a3.257 3.257 0 0 0 2.577 3.191v1.387A3.257 3.257 0 0 0 0 24.701a3.257 3.257 0 0 0 2.577 3.191v1.387A3.257 3.257 0 0 0 0 32.471a3.257 3.257 0 0 0 2.577 3.192v1.387A3.257 3.257 0 0 0 0 40.24a3.257 3.257 0 0 0 2.577 3.192v5.204c0 .42.338.762.755.762h6.856a.759.759 0 0 0 .755-.762.759.759 0 0 0-.755-.762H4.087V38.74c.513.3.86.86.86 1.5 0 .421.338.762.755.762a.759.759 0 0 0 .755-.762 3.26 3.26 0 0 0-2.37-3.14v-6.13c.513.3.86.86.86 1.5 0 .42.338.762.755.762a.759.759 0 0 0 .756-.762 3.259 3.259 0 0 0-2.371-3.14V23.2c.513.3.86.86.86 1.5 0 .42.338.762.755.762a.759.759 0 0 0 .756-.762 3.26 3.26 0 0 0-2.37-3.141v-6.13c.512.3.86.86.86 1.5a.76.76 0 0 0 .755.763.759.759 0 0 0 .755-.763 3.26 3.26 0 0 0-2.37-3.14V7.66c.513.3.86.86.86 1.5 0 .422.338.763.755.763a.759.759 0 0 0 .755-.762 3.26 3.26 0 0 0-2.37-3.141V1.527H39.34v5.137c0 .421.338.762.755.762a.759.759 0 0 0 .755-.762V.765a.76.76 0 0 0-.755-.762zM2.576 41.845a1.737 1.737 0 0 1-1.066-1.604c0-.723.442-1.343 1.067-1.603v3.207zm0-7.77A1.736 1.736 0 0 1 1.51 32.47c0-.723.442-1.344 1.067-1.603v3.207zm0-7.77A1.736 1.736 0 0 1 1.51 24.7c0-.723.442-1.344 1.067-1.604v3.208zm0-7.77A1.736 1.736 0 0 1 1.51 16.93c0-.723.442-1.344 1.067-1.604v3.208zm0-7.77A1.736 1.736 0 0 1 1.51 9.16c0-.724.442-1.344 1.067-1.604v3.207z"/><path d="M15.8 10.78a.75.75 0 0 0-1.067 0l-1.526 1.54-.496-.501a.75.75 0 0 0-1.068 0 .767.767 0 0 0 0 1.078l1.03 1.04a.75.75 0 0 0 1.068 0l2.06-2.08a.767.767 0 0 0 0-1.078z"/><path d="M17.224 8.097H10.19a.759.759 0 0 0-.755.762v7.1c0 .422.338.763.755.763h7.035a.759.759 0 0 0 .755-.762v-7.1a.759.759 0 0 0-.755-.763zm-.755 7.1h-5.525V9.622h5.525v5.576zM32.553 9.82H20.966a.759.759 0 0 0-.755.762c0 .42.338.762.755.762h11.587a.759.759 0 0 0 .755-.762.759.759 0 0 0-.755-.762zm-4.958 3.552h-6.629a.759.759 0 0 0-.755.762c0 .42.338.762.755.762h6.63a.759.759 0 0 0 .755-.762.759.759 0 0 0-.756-.762zM15.8 22.885a.75.75 0 0 0-1.067 0l-1.526 1.54-.496-.5a.75.75 0 0 0-1.068 0 .767.767 0 0 0 0 1.077l1.03 1.04a.75.75 0 0 0 1.068 0l2.06-2.08a.767.767 0 0 0 0-1.077z"/><path d="M17.224 20.202H10.19a.759.759 0 0 0-.755.762v7.1a.76.76 0 0 0 .755.763h7.035a.759.759 0 0 0 .755-.762v-7.1a.759.759 0 0 0-.755-.763zm-.755 7.1h-5.525v-5.576h5.525v5.577zm16.084-5.377H20.966a.759.759 0 0 0-.755.762c0 .42.338.762.755.762h11.587a.759.759 0 0 0 .755-.762.759.759 0 0 0-.755-.762zm-4.958 3.552h-6.629a.759.759 0 0 0-.755.762c0 .421.338.762.755.762h6.63a.759.759 0 0 0 .755-.762.759.759 0 0 0-.756-.762zM15.8 34.99a.75.75 0 0 0-1.067 0l-1.526 1.54-.496-.5a.75.75 0 0 0-1.068 0 .767.767 0 0 0 0 1.078l1.03 1.039a.75.75 0 0 0 1.068 0l2.06-2.08a.767.767 0 0 0 0-1.077z"/><path d="M17.224 32.308H10.19a.759.759 0 0 0-.755.762v7.1c0 .42.338.762.755.762h7.035a.759.759 0 0 0 .755-.762v-7.1a.759.759 0 0 0-.755-.762zm-.755 7.1h-5.525v-5.576h5.525v5.576z"/><path d="M40.85 27.644V9.71a.759.759 0 0 0-.755-.762.759.759 0 0 0-.755.762v17.847c-.112 0-.225.003-.337.007l-.076.004c-.104.004-.208.01-.311.016l-.112.008c-.11.008-.22.018-.33.03-.016 0-.033.002-.05.004-.125.014-.25.03-.373.047l-.1.014c-.096.014-.193.03-.289.047l-.096.016a10.76 10.76 0 0 0-.366.072l-.048.011a11.934 11.934 0 0 0-.723.182l-.057.016a8.13 8.13 0 0 0-.355.11l-.078.025c-.096.032-.19.065-.285.099l-.084.03a12.076 12.076 0 0 0-1.06.45l-.048.023a12.54 12.54 0 0 0-.337.172l-.044.023c-.097.052-.193.105-.288.16l-.063.035a12.03 12.03 0 0 0-.642.397l-.05.034a11.94 11.94 0 0 0-.282.194l-.031.022a14.21 14.21 0 0 0-.315.233l-.003.003a11.746 11.746 0 0 0-.333.265c-.199.163-.392.333-.58.509l-.022.02c-.09.085-.178.17-.265.257l-.018.017c-.184.186-.363.377-.536.573l-.02.024c-.174.199-.342.403-.502.613l-.002.002c-.08.104-.157.21-.234.317l-.01.013a12.34 12.34 0 0 0-.852 1.378h-7.765a.759.759 0 0 0-.755.762c0 .42.338.762.755.762h7.086l-.002.005a12.202 12.202 0 0 0-.31.972l-.012.046c-.088.328-.164.661-.225 1l-.001.005h-6.536a.759.759 0 0 0-.755.762c0 .42.338.762.755.762h6.358v.001c-.006.108-.01.216-.013.324v.011a12.472 12.472 0 0 0-.002.635l.004.1.007.199.007.115.011.183.01.118a13.902 13.902 0 0 0 .049.485l.012.098.03.213.01.073.043.26.004.022a12.207 12.207 0 0 0 2.846 5.93H13.208a.759.759 0 0 0-.755.762c0 .42.338.762.755.762h18.747A11.979 11.979 0 0 0 39.416 52c6.677 0 12.109-5.483 12.109-12.221 0-6.248-4.671-11.416-10.674-12.134zm-1.434 22.83c-5.103 0-9.375-3.658-10.376-8.512l-.01-.043-.036-.194-.017-.092a10.031 10.031 0 0 1-.099-.713l-.015-.156-.011-.125-.012-.17-.007-.115-.008-.193-.003-.094a11.099 11.099 0 0 1-.004-.289c0-5.898 4.754-10.696 10.598-10.696.102 0 .204.001.308.004l.015.001c.1.003.202.008.307.014 5.552.33 9.969 4.992 9.969 10.677 0 5.898-4.755 10.697-10.599 10.697z"/><path d="M39.418 31.342a8.265 8.265 0 0 0-4.675 1.441.766.766 0 0 0-.202 1.058.75.75 0 0 0 1.048.205 6.769 6.769 0 0 1 3.829-1.18c3.777 0 6.849 3.1 6.849 6.912s-3.072 6.912-6.85 6.912c-3.776 0-6.848-3.1-6.848-6.912 0-1.362.392-2.68 1.134-3.811a.766.766 0 0 0-.213-1.056.75.75 0 0 0-1.046.215 8.455 8.455 0 0 0-1.385 4.652c0 4.652 3.75 8.436 8.359 8.436 4.61 0 8.36-3.784 8.36-8.436s-3.75-8.436-8.36-8.436z"/><path d="M40.18 37.449v-2.774a.759.759 0 0 0-.754-.762.759.759 0 0 0-.756.762v2.774a2.353 2.353 0 0 0-1.574 2.223c0 .425.113.824.31 1.168l-1.047 1.183a.767.767 0 0 0 .061 1.076.748.748 0 0 0 1.067-.061l1.053-1.192c.273.114.572.177.886.177 1.284 0 2.329-1.055 2.329-2.35 0-1.03-.66-1.907-1.574-2.224zm-.754 3.05a.824.824 0 0 1-.82-.827c0-.456.368-.826.82-.826.451 0 .819.37.819.826a.824.824 0 0 1-.82.827z"/></g><defs><clipPath id="clip0"><path fill="#fff" d="M0 0h51.525v52H0z"/></clipPath></defs></svg>