<svg width="21" height="21" viewBox="0 0 21 21" fill="none" xmlns="http://www.w3.org/2000/svg">
<path d="M21 4.12786L16.8625 0H11.6495L9.59507 2.04774C4.48671 1.62151 0.367781 4.49527 0.310083 4.53659C0.142943 4.65571 0.103857 4.88836 0.223721 5.05587C0.296309 5.15712 0.41059 5.21147 0.526731 5.21147C0.601553 5.21147 0.677119 5.18877 0.742635 5.14186C0.794377 5.10501 4.35791 2.61951 8.88779 2.7524L2.23312 9.38549L2.23609 9.38847L0 11.619L9.36055 21L13.0979 17.2727C13.8655 17.6747 14.7585 17.8724 15.6419 17.872C16.9451 17.872 18.2234 17.4484 19.0297 16.6421C21.772 13.8994 20.6836 10.8909 20.3113 10.0782L20.9996 9.39145V4.12786H21ZM16.555 0.744496L20.2555 4.43682V9.08248L12.9825 16.3316C11.4623 15.2417 10.9996 13.1966 11.6823 10.5149C11.7333 10.3157 11.6126 10.1129 11.4135 10.0622C11.2136 10.009 11.0118 10.1318 10.9608 10.331C9.99709 14.1156 11.2921 15.9821 12.4495 16.8628L11.5959 17.7138L3.28918 9.38958L9.87053 2.82536C11.4332 3.00404 13.0834 3.51998 14.7269 4.56264C14.7124 4.64491 14.7016 4.72867 14.7016 4.81503C14.7016 5.62281 15.3586 6.27982 16.1664 6.27982C16.9741 6.27982 17.6315 5.62281 17.6315 4.81503C17.6315 4.00725 16.9741 3.35023 16.1664 3.35023C15.7137 3.35023 15.3135 3.56092 15.0448 3.88478C13.5227 2.93294 11.9972 2.40249 10.5339 2.16425L11.957 0.744496H16.555ZM15.5652 5.13702C15.7297 5.26061 15.9631 5.22748 16.086 5.06257C16.2095 4.89841 16.176 4.66501 16.0115 4.5418C15.8965 4.45581 15.7811 4.37987 15.6661 4.29909C15.796 4.1729 15.972 4.09473 16.1664 4.09473C16.5635 4.09473 16.887 4.41784 16.887 4.8154C16.887 5.21222 16.5639 5.5357 16.1664 5.5357C15.8674 5.5357 15.611 5.35255 15.5019 5.09273C15.5231 5.10799 15.5443 5.12102 15.5652 5.13702ZM1.05272 11.6205L2.76208 9.91557L11.0714 18.2428L9.36204 19.9477L1.05272 11.6205ZM18.5033 16.1157C17.5444 17.0739 15.3876 17.5109 13.6529 16.7191L19.7485 10.6396C20.1189 11.5613 20.7182 13.9005 18.5033 16.1157Z" fill="#C4C4C4"/>
</svg>
