<svg width="44" height="55" fill="none" xmlns="http://www.w3.org/2000/svg"><path d="M19.08 34.99h-2v2h2v-2zm1.61-6.02l-1.634-1.153-.012.016-.01.016 1.656 1.121zm4.83-5.25l-1.346-1.48-.001.002 1.347 1.478zm3.36-3.5l-1.591-1.212-.005.006-.004.006 1.6 1.2zm-.98-7.35l-1.21 1.593.031.024.032.021L27.9 12.87zm-11.34-.14l.933 1.769.009-.005.009-.005-.951-1.759zm-4.27 3.78l-1.012 1.725 1.576.925 1.063-1.488-1.627-1.162zm-8.47-4.97l-1.672-1.097L.994 12.2l1.813 1.064L3.82 11.54zm7.91-6.93l-.875-1.799-.01.005.885 1.794zm24.78.98l-1.158 1.63.01.008L36.51 5.59zm3.92 14.56l-1.823-.823-.011.024-.01.026 1.844.773zm-2.31 3.71l-1.48-1.345-.003.003 1.483 1.342zm-3.5 3.43l1.33 1.493.01-.009-1.34-1.484zm-3.78 3.92l1.582 1.223.013-.017.013-.017-1.608-1.189zm-1.19 3.78v2h2v-2h-2zM19.57 50.74l-1.415 1.414.027.026.027.026 1.36-1.466zm0-8.96l1.358 1.468.015-.014.014-.013-1.387-1.441zm9.66 0l-1.388 1.44.015.014.014.014 1.359-1.468zm-.07 8.96l1.387 1.44-1.387-1.44zm-8.08-15.75c0-2.134.47-3.722 1.266-4.9l-3.313-2.24c-1.35 1.995-1.953 4.42-1.953 7.14h4zm1.244-4.867c1.007-1.427 2.505-3.068 4.543-4.925l-2.694-2.956c-2.163 1.97-3.885 3.829-5.117 5.575l3.268 2.306zm4.541-4.923c1.573-1.43 2.802-2.696 3.615-3.78l-3.2-2.4c-.588.783-1.599 1.85-3.106 3.22l2.691 2.96zm3.606-3.768A7.294 7.294 0 0 0 32 16.93h-4c0 .768-.226 1.44-.711 2.078l3.181 2.424zM32 16.93c0-2.371-1.012-4.34-2.953-5.698l-2.294 3.277c.858.6 1.247 1.339 1.247 2.421h4zm-2.892-5.653C27.304 9.908 25.013 9.33 22.44 9.33v4c2 0 3.348.449 4.25 1.133l2.418-3.186zM22.44 9.33c-2.486 0-4.78.531-6.831 1.64l1.902 3.52c1.401-.758 3.028-1.16 4.929-1.16v-4zm-6.814 1.631c-1.97 1.04-3.627 2.515-4.964 4.386l3.255 2.325c.996-1.394 2.187-2.44 3.576-3.173l-1.867-3.538zm-2.324 3.824l-8.47-4.97-2.025 3.45 8.47 4.97 2.025-3.45zm-7.81-2.148c1.757-2.678 4.117-4.752 7.122-6.233l-1.769-3.588C7.223 4.602 4.31 7.147 2.148 10.443l3.344 2.194zm7.112-6.228C15.637 4.934 19.293 4.16 23.63 4.16v-4c-4.81 0-9.088.86-12.775 2.651l1.749 3.598zM23.63 4.16c5.097 0 8.942 1.087 11.722 3.06l2.316-3.26c-3.66-2.6-8.403-3.8-14.038-3.8v4zm11.733 3.068c2.72 1.905 4.047 4.46 4.047 7.882h4c0-4.698-1.94-8.49-5.753-11.158l-2.294 3.276zm4.047 7.882c0 1.687-.288 3.076-.803 4.217l3.645 1.646c.792-1.753 1.158-3.723 1.158-5.863h-4zm-.825 4.267c-.53 1.263-1.184 2.3-1.945 3.138l2.96 2.69c1.105-1.215 1.99-2.652 2.674-4.281l-3.689-1.547zm-1.948 3.141c-.826.913-1.94 2.007-3.358 3.288l2.681 2.968c1.476-1.332 2.695-2.525 3.643-3.572l-2.966-2.684zm-3.349 3.28c-1.766 1.575-3.143 2.988-4.057 4.223l3.217 2.378c.673-.911 1.816-2.112 3.503-3.616l-2.663-2.986zm-4.03 4.19c-1.105 1.428-1.608 3.136-1.608 5.002h4c0-1.12.29-1.932.772-2.557l-3.165-2.446zm.392 3.002H19.08v4h10.57v-4zM24.4 50.56c-1.45 0-2.561-.442-3.47-1.286l-2.721 2.932c1.705 1.583 3.813 2.354 6.19 2.354v-4zm-3.416-1.234c-.887-.887-1.304-1.896-1.304-3.136h-4c0 2.307.842 4.331 2.475 5.964l2.829-2.828zM19.68 46.19c0-1.237.412-2.168 1.248-2.942l-2.717-2.935c-1.684 1.558-2.531 3.567-2.531 5.877h4zm1.277-2.97c.841-.81 1.932-1.26 3.443-1.26v-4c-2.41 0-4.539.763-6.218 2.38l2.775 2.88zm3.443-1.26c1.51 0 2.601.45 3.442 1.26l2.775-2.88c-1.679-1.617-3.808-2.38-6.217-2.38v4zm3.47 1.288c.837.774 1.25 1.705 1.25 2.942h4c0-2.31-.848-4.319-2.531-5.877l-2.718 2.934zm1.25 2.942c0 1.216-.422 2.217-1.349 3.11l2.777 2.88c1.687-1.627 2.572-3.66 2.572-5.99h-4zm-1.348 3.11c-.85.819-1.923 1.26-3.372 1.26v4c2.377 0 4.478-.772 6.147-2.38l-2.775-2.88z" fill="#FECC2F"/></svg>