<svg width="59" height="59" viewBox="0 0 59 59" fill="none" xmlns="http://www.w3.org/2000/svg">
<g clip-path="url(#clip0)">
<path d="M51.1334 2.57444e-08C51.1332 2.57444e-08 51.133 2.57444e-08 51.1329 2.57444e-08H33.4329C32.89 -0.000122891 32.4497 0.439919 32.4495 0.982842C32.4495 0.982965 32.4495 0.98321 32.4495 0.983333V2.95H26.5495C26.2043 2.95012 25.8843 3.1313 25.7065 3.42729L22.7565 8.34395C22.6646 8.49674 22.6162 8.67165 22.6162 8.85V14.75C22.6161 15.2929 23.0561 15.7332 23.5991 15.7333C23.5992 15.7333 23.5994 15.7333 23.5995 15.7333H25.5662C25.5662 17.3626 26.887 18.6833 28.5162 18.6833C30.1455 18.6833 31.4662 17.3626 31.4662 15.7333H42.2829C42.2829 17.3626 43.6036 18.6833 45.2329 18.6833C46.8621 18.6833 48.1829 17.3626 48.1829 15.7333H51.1329C51.6758 15.7335 52.1161 15.2934 52.1162 14.7505C52.1162 14.7504 52.1162 14.7501 52.1162 14.75V0.983333C52.1163 0.44041 51.6763 0.000122942 51.1334 2.57444e-08ZM27.1065 4.91667H28.5162V6.88333H25.9265L27.1065 4.91667ZM28.5162 16.7167C27.9732 16.7167 27.5329 16.2764 27.5329 15.7333C27.5329 15.1903 27.9732 14.75 28.5162 14.75C29.0593 14.75 29.4995 15.1903 29.4995 15.7333C29.4991 16.2761 29.059 16.7162 28.5162 16.7167ZM32.4495 13.7667H30.699C29.6325 12.5612 27.7909 12.4484 26.5853 13.5148C26.4963 13.5936 26.4122 13.6777 26.3335 13.7667H24.5829V9.12275L24.7465 8.85H29.4995C30.0425 8.85012 30.4828 8.41008 30.4829 7.86716C30.4829 7.86703 30.4829 7.86679 30.4829 7.86667V4.91667H32.4495V13.7667ZM45.2329 16.7167C44.6898 16.7167 44.2495 16.2764 44.2495 15.7333C44.2495 15.1903 44.6898 14.75 45.2329 14.75C45.7759 14.75 46.2162 15.1903 46.2162 15.7333C46.2157 16.2761 45.7757 16.7162 45.2329 16.7167ZM50.1495 13.7667H47.4156C46.3492 12.5612 44.5075 12.4484 43.302 13.5148C43.213 13.5936 43.1289 13.6777 43.0501 13.7667H34.4162V1.96667H50.1495V13.7667Z" fill="black"/>
<path d="M58.9997 2.9502H54.083V4.91686H58.9997V2.9502Z" fill="black"/>
<path d="M58.9997 6.8833H54.083V8.84997H58.9997V6.8833Z" fill="black"/>
<path d="M58.9997 10.8169H54.083V12.7836H58.9997V10.8169Z" fill="black"/>
<path d="M44.25 23.6002H7.86667C4.60815 23.6002 1.96667 20.9587 1.96667 17.7002C1.96667 14.4416 4.60815 11.8002 7.86667 11.8002H20.65V9.8335H7.86667C3.52205 9.8335 0 13.3556 0 17.7002C0 22.0448 3.52205 25.5668 7.86667 25.5668H44.25C51.3101 25.5668 57.0333 31.2901 57.0333 38.3502C57.0333 45.4103 51.3101 51.1335 44.25 51.1335H27.5333V53.1002H44.25C52.3962 53.1002 59 46.4963 59 38.3502C59 30.204 52.3962 23.6002 44.25 23.6002Z" fill="black"/>
<path d="M10.8174 47.2002C10.8173 47.2002 10.817 47.2002 10.8169 47.2002H4.91693C4.374 47.2001 3.93372 47.6401 3.93359 48.183C3.93359 48.1832 3.93359 48.1834 3.93359 48.1835V52.1169C3.93347 52.6598 4.37351 53.1001 4.91644 53.1002C4.91656 53.1002 4.9168 53.1002 4.91693 53.1002H10.8169C11.3598 53.1003 11.8001 52.6603 11.8003 52.1174C11.8003 52.1172 11.8003 52.117 11.8003 52.1169V48.1835C11.8004 47.6406 11.3603 47.2003 10.8174 47.2002ZM9.83359 51.1335H5.90026V49.1669H9.83359V51.1335Z" fill="black"/>
<path d="M24.5838 33.4331C24.5837 33.4331 24.5835 33.4331 24.5833 33.4331H0.983333C0.44041 33.433 0.000122942 33.873 2.57444e-08 34.4159C2.57444e-08 34.4161 2.57444e-08 34.4163 2.57444e-08 34.4164V58.0164C-0.000122891 58.5594 0.439919 58.9996 0.982842 58.9998C0.982965 58.9998 0.98321 58.9998 0.983333 58.9998H24.5833C25.1263 58.9999 25.5665 58.5599 25.5667 58.0169C25.5667 58.0168 25.5667 58.0166 25.5667 58.0164V34.4164C25.5668 33.8735 25.1267 33.4332 24.5838 33.4331ZM13.7667 35.3998H17.7V40.3164C17.7 41.4027 16.8195 42.2831 15.7333 42.2831C14.6471 42.2831 13.7667 41.4027 13.7667 40.3164V35.3998ZM7.86667 35.3998H11.8V40.3164C11.8 41.4027 10.9195 42.2831 9.83333 42.2831C8.74712 42.2831 7.86667 41.4027 7.86667 40.3164V35.3998ZM1.96667 35.3998H5.9V40.3164C5.9 41.4027 5.01955 42.2831 3.93333 42.2831C2.84712 42.2831 1.96667 41.4027 1.96667 40.3164V35.3998ZM19.6667 57.0331H16.7167V52.1164H19.6667V57.0331ZM23.6 57.0331H21.6333V51.1331C21.6335 50.5902 21.1934 50.1499 20.6505 50.1498C20.6504 50.1498 20.6501 50.1498 20.65 50.1498H15.7333C15.1904 50.1496 14.7501 50.5897 14.75 51.1326C14.75 51.1327 14.75 51.133 14.75 51.1331V57.0331H1.96667V43.7027C3.58364 44.6705 5.66351 44.327 6.88333 42.8906C8.2761 44.5198 10.726 44.7114 12.3552 43.3187C12.5089 43.1873 12.6521 43.0442 12.7833 42.8906C14.1761 44.5198 16.626 44.7114 18.2552 43.3187C18.4089 43.1873 18.5521 43.0442 18.6833 42.8906C19.9032 44.327 21.983 44.6705 23.6 43.7027V57.0331ZM23.6 40.3164C23.6 41.4027 22.7195 42.2831 21.6333 42.2831C20.5471 42.2831 19.6667 41.4027 19.6667 40.3164V35.3998H23.6V40.3164Z" fill="black"/>
</g>
<defs>
<clipPath id="clip0">
<rect width="59" height="59" fill="white"/>
</clipPath>
</defs>
</svg>
