<svg width="50" height="36" viewBox="0 0 50 36" fill="none" xmlns="http://www.w3.org/2000/svg">
<path d="M49.0585 10.3139C48.9204 10.2539 45.5535 8.79534 25.6197 0.157096C25.2232 -0.014788 24.774 -0.014788 24.3775 0.157096L0.938727 10.3139C-0.318957 10.8578 -0.306847 12.643 0.938727 13.1812C5.49209 15.1541 12.9359 18.3801 24.3775 23.338C24.7716 23.5089 25.2209 23.511 25.6197 23.338C26.7062 22.8672 41.5103 16.452 42.187 16.1589V32.7986C42.187 33.6402 42.8341 34.3642 43.6749 34.4032C44.5722 34.445 45.3122 33.7305 45.3122 32.8424V15.5922C45.3122 15.3467 45.1303 15.1393 44.8867 15.108C41.9539 14.73 28.1222 12.9448 24.7984 12.5161C23.837 12.396 23.2379 11.4225 23.4907 10.5561C23.6889 9.8243 24.3837 9.35817 25.0875 9.40661C25.1576 9.41071 47.4256 12.2843 47.4096 12.2822C47.8257 12.3358 48.1677 12.6022 48.3319 12.9634C48.4468 13.216 48.7392 13.3317 48.9904 13.2139C49.4108 13.0169 49.7755 12.7575 49.9413 12.1704C50.1548 11.4097 49.769 10.6211 49.0585 10.3139V10.3139Z" fill="#212121" fill-opacity="0.6"/>
<path d="M23.1345 26.2051L10.0555 20.5377C9.73303 20.3979 9.37305 20.6343 9.37305 20.9857V26.5919C9.37305 31.849 16.2367 35.9674 24.9989 35.9674C33.761 35.9674 40.6247 31.849 40.6247 26.5919V20.9857C40.6247 20.6343 40.2647 20.398 39.9422 20.5377L26.8622 26.2051C25.6747 26.7214 24.3232 26.721 23.1345 26.2051Z" fill="#212121" fill-opacity="0.6"/>
</svg>
