<svg width="50" height="50" viewBox="0 0 50 50" fill="none" xmlns="http://www.w3.org/2000/svg">
<path d="M21.0205 39.0699C24.7306 39.0699 28.158 37.9383 31.0201 36.0287L41.373 46.39C42.1861 47.2033 43.5288 47.2033 44.3764 46.39L46.3905 44.3743C47.2032 43.561 47.2032 42.2172 46.3905 41.3685L36.0022 31.0426C37.9099 28.1782 39.041 24.748 39.041 21.0349C39.041 11.098 30.9494 2.99998 21.0205 2.99998C11.0915 2.99998 3 11.098 3 21.0349C3 30.9715 11.0562 39.0699 21.0205 39.0699ZM21.0205 10.0725C27.0626 10.0725 31.9741 14.9879 31.9741 21.0349C31.9741 27.082 27.0626 31.9974 21.0205 31.9974C14.9783 31.9974 10.0669 27.082 10.0669 21.0349C10.0669 14.9879 14.9783 10.0725 21.0205 10.0725Z" fill="#212121" fill-opacity="0.6"/>
</svg>
