<svg width="50" height="50" viewBox="0 0 50 50" fill="none" xmlns="http://www.w3.org/2000/svg">
<path d="M44.4562 9.61517C44.4562 13.0325 41.6862 15.8028 38.2689 15.8028C34.8515 15.8028 32.0815 13.0325 32.0815 9.61517C32.0815 6.19819 34.8515 3.42786 38.2689 3.42786C41.6862 3.42786 44.4562 6.19819 44.4562 9.61517Z" fill="#212121" fill-opacity="0.6"/>
<path d="M38.269 17.2307C34.069 17.2307 30.6538 13.8151 30.6538 9.61518C30.6538 5.41559 34.069 2 38.269 2C42.4689 2 45.8842 5.41559 45.8842 9.61518C45.8842 13.8151 42.4689 17.2307 38.269 17.2307ZM38.269 4.85574C35.6437 4.85574 33.5095 6.99196 33.5095 9.61518C33.5095 12.2387 35.6437 14.375 38.269 14.375C40.8943 14.375 43.0284 12.2387 43.0284 9.61518C43.0284 6.99196 40.8943 4.85574 38.269 4.85574Z" fill="#212121" fill-opacity="0.6"/>
<path d="M44.4562 40.0766C44.4562 43.4936 41.6862 46.2639 38.2689 46.2639C34.8515 46.2639 32.0815 43.4936 32.0815 40.0766C32.0815 36.6592 34.8515 33.8889 38.2689 33.8889C41.6862 33.8889 44.4562 36.6592 44.4562 40.0766Z" fill="#212121" fill-opacity="0.6"/>
<path d="M38.269 47.6918C34.069 47.6918 30.6538 44.2762 30.6538 40.0766C30.6538 35.8766 34.069 32.4611 38.269 32.4611C42.4689 32.4611 45.8842 35.8766 45.8842 40.0766C45.8842 44.2762 42.4689 47.6918 38.269 47.6918ZM38.269 35.3168C35.6437 35.3168 33.5095 37.453 33.5095 40.0766C33.5095 42.6998 35.6437 44.836 38.269 44.836C40.8943 44.836 43.0284 42.6998 43.0284 40.0766C43.0284 37.453 40.8943 35.3168 38.269 35.3168Z" fill="#212121" fill-opacity="0.6"/>
<path d="M17.8027 24.8459C17.8027 28.2632 15.0324 31.0332 11.615 31.0332C8.19806 31.0332 5.42773 28.2632 5.42773 24.8459C5.42773 21.4286 8.19806 18.6586 11.615 18.6586C15.0324 18.6586 17.8027 21.4286 17.8027 24.8459Z" fill="#212121" fill-opacity="0.6"/>
<path d="M11.6152 32.4611C7.41559 32.4611 4 29.0458 4 24.8459C4 20.646 7.41559 17.2307 11.6152 17.2307C15.8151 17.2307 19.2307 20.646 19.2307 24.8459C19.2307 29.0458 15.8151 32.4611 11.6152 32.4611ZM11.6152 20.0864C8.98987 20.0864 6.85574 22.2223 6.85574 24.8459C6.85574 27.4695 8.98987 29.6053 11.6152 29.6053C14.2408 29.6053 16.375 27.4695 16.375 24.8459C16.375 22.2223 14.2408 20.0864 11.6152 20.0864Z" fill="#212121" fill-opacity="0.6"/>
<path d="M16.1103 23.9321C15.4476 23.9321 14.8041 23.5874 14.4538 22.9707C13.934 22.0588 14.254 20.8955 15.166 20.3736L32.8313 10.3026C33.7432 9.77895 34.9065 10.099 35.4284 11.0144C35.9481 11.9263 35.6281 13.0896 34.7162 13.6115L17.0505 23.6825C16.7535 23.852 16.43 23.9321 16.1103 23.9321Z" fill="#212121" fill-opacity="0.6"/>
<path d="M33.7738 39.6388C33.4538 39.6388 33.1303 39.5586 32.8333 39.3892L15.1676 29.3181C14.2557 28.7983 13.936 27.6351 14.4558 26.721C14.9735 25.8073 16.1385 25.4856 17.0525 26.0092L34.7182 36.0803C35.6301 36.6 35.9498 37.7633 35.43 38.6773C35.078 39.294 34.4344 39.6388 33.7738 39.6388Z" fill="#212121" fill-opacity="0.6"/>
</svg>
