<svg width="45" height="45" viewBox="0 0 45 45" fill="none" xmlns="http://www.w3.org/2000/svg">
<path d="M20.2471 29.388C20.5901 29.0444 20.5901 28.4879 20.2471 28.1442C19.9034 27.8015 19.3472 27.8015 19.0036 28.1442C18.6606 28.4879 18.6606 29.0444 19.0036 29.388C19.3472 29.7307 19.9034 29.7307 20.2471 29.388Z" fill="#FECC2F"/>
<path d="M20.567 8.70154V10.4593C20.567 13.3728 22.927 15.7328 25.8404 15.7328C28.7484 15.7328 31.1142 13.3673 31.1142 10.4593V8.70154C31.5997 8.70154 31.9931 8.30809 31.9931 7.82263C31.9931 7.33717 31.5997 6.94373 31.1142 6.94373H29.3564C28.871 6.94373 28.4775 7.33717 28.4775 7.82263C28.4775 8.30809 28.871 8.70154 29.3564 8.70154V10.4593C29.3564 12.3977 27.7792 13.975 25.8404 13.975C23.899 13.975 22.3248 12.4015 22.3248 10.4593V8.70154C22.8103 8.70154 23.2037 8.30809 23.2037 7.82263C23.2037 7.33717 22.8103 6.94373 22.3248 6.94373H20.567C20.0816 6.94373 19.6881 7.33717 19.6881 7.82263C19.6881 8.30809 20.0816 8.70154 20.567 8.70154Z" fill="#FECC2F"/>
<path d="M10.2145 43.1492C10.3862 43.3205 10.6107 43.406 10.8356 43.406C11.0605 43.406 11.2854 43.3201 11.457 43.1488L14.1559 40.4499C15.0351 39.5714 15.4584 38.368 15.3362 37.152L16.304 36.2175C17.0721 35.4773 18.0818 35.0694 19.1467 35.0694H30.7188C32.7918 35.0694 34.7511 34.2732 36.2356 32.8275C36.2576 32.8062 36.2782 32.7839 36.2978 32.7602L44.1715 23.3051C45.4226 21.8247 45.2355 19.602 43.7537 18.3496C42.2815 17.1088 40.0753 17.2873 38.8205 18.743L37.9701 19.6226V2.46094C37.9701 1.97548 37.5763 1.58203 37.0912 1.58203H14.5023C14.0172 1.58203 13.6234 1.97548 13.6234 2.46094V22.1529C10.2197 22.8674 7.52014 24.9802 6.06616 28.0687C4.91947 28.0093 3.80127 28.4309 2.97146 29.2617L0.258866 31.9609C0.0933846 32.1257 0.000344269 32.3496 9.46793e-07 32.583C-0.000342376 32.8169 0.092698 33.0407 0.257836 33.2058L10.2145 43.1492ZM36.2123 3.33984V21.4402L33.6686 24.07C33.0139 23.2656 32.0162 22.7644 30.9385 22.7644H20.748C20.6917 22.7644 20.6306 22.7513 20.5691 22.7266C19.2 22.1684 17.7501 21.8855 16.2604 21.8855C15.9662 21.8855 15.673 21.8961 15.3815 21.9153V3.33984H36.2123ZM14.6283 23.759C16.4064 23.5018 18.1844 23.6529 19.9089 24.3557C20.1829 24.4662 20.4655 24.5225 20.748 24.5225H30.9385C31.8916 24.5225 32.6963 25.2998 32.6963 26.2803C32.6963 27.2495 31.9077 28.0381 30.9385 28.0381H23.2917C22.8066 28.0381 22.4128 28.4316 22.4128 28.917C22.4128 29.4025 22.8066 29.796 23.2917 29.796H30.9385C32.8772 29.796 34.4541 28.2187 34.4541 26.2803C34.4541 26.1251 34.4428 25.971 34.4229 25.8189C34.6062 25.6311 39.9188 20.1366 40.1028 19.946C40.1162 19.9319 40.1296 19.9175 40.1419 19.9028C40.7682 19.1632 41.8802 19.0699 42.62 19.6933C43.3606 20.3192 43.4543 21.4306 42.8247 22.1756L34.9773 31.5991C33.8269 32.7039 32.3163 33.3116 30.7188 33.3116H19.1467C17.6241 33.3116 16.1815 33.8939 15.0835 34.9523L14.6959 35.3265C14.5407 35.0879 14.3601 34.8651 14.1562 34.6615L8.75781 29.2631C8.46942 28.9747 8.14224 28.7351 7.78827 28.5459C9.131 25.8975 11.5295 24.2094 14.6283 23.759ZM4.21325 30.5059C5.13679 29.581 6.61273 29.6037 7.51464 30.5063L12.9137 35.905C13.8187 36.8083 13.8349 38.286 12.9134 39.2064L10.8349 41.2846L2.12379 32.5851L4.21325 30.5059Z" fill="#FECC2F"/>
</svg>
