<svg width="35" height="35" viewBox="0 0 35 35" fill="none" xmlns="http://www.w3.org/2000/svg">
<g>
<path d="M28.223 18.6938V5.84048C28.223 4.06045 26.7719 2.60927 24.9918 2.60927H3.23121C1.45118 2.60927 0 4.06045 0 5.84048V18.6938C0 20.4739 1.45118 21.925 3.23121 21.925H4.15339V25.7996C4.15339 26.5145 4.73244 27.0935 5.45445 27.0935C5.82619 27.0935 6.18362 26.9291 6.43382 26.6432L10.5157 21.9179H24.999C26.7719 21.925 28.223 20.4739 28.223 18.6938ZM10.1083 20.1736C9.8509 20.1736 9.61499 20.2808 9.44342 20.4739L5.89767 24.5701V21.0457C5.89767 20.5596 5.50449 20.1665 5.01838 20.1665H3.23121C2.41626 20.1665 1.75143 19.5016 1.75143 18.6867V5.84048C1.75143 5.02553 2.41626 4.3607 3.23121 4.3607H24.9918C25.8068 4.3607 26.4716 5.02553 26.4716 5.84048V18.6938C26.4716 19.5088 25.8068 20.1736 24.9918 20.1736H10.1083Z" fill="black"/>
<path d="M28.5734 31.9403C28.8236 32.2334 29.181 32.3907 29.5456 32.3907C29.6957 32.3907 29.853 32.3621 30.0031 32.3049C30.5178 32.1119 30.8467 31.6401 30.8467 31.0897V27.2151H31.7689C33.5489 27.2151 35.0001 25.7639 35.0001 23.9839V11.1305C35.0001 9.35048 33.5489 7.89929 31.7689 7.89929C31.2827 7.89929 30.8896 8.29247 30.8896 8.77143C30.8896 9.25754 31.2827 9.65072 31.7689 9.65072C32.5838 9.65072 33.2486 10.3156 33.2486 11.1305V23.9839C33.2486 24.7988 32.5838 25.4636 31.7689 25.4636H29.9745C29.4884 25.4636 29.0953 25.8568 29.0953 26.3429V29.8672L25.5495 25.771C25.3851 25.578 25.142 25.4708 24.8847 25.4708H11.7311C11.245 25.4708 10.8518 25.864 10.8518 26.3501C10.8518 26.8362 11.245 27.2294 11.7311 27.2294H24.4843L28.5734 31.9403Z" fill="black"/>
<path d="M14.1116 13.6183C14.688 13.6183 15.1553 13.151 15.1553 12.5745C15.1553 11.9981 14.688 11.5308 14.1116 11.5308C13.5352 11.5308 13.0679 11.9981 13.0679 12.5745C13.0679 13.151 13.5352 13.6183 14.1116 13.6183Z" fill="black"/>
<path d="M17.6072 13.6183C18.1836 13.6183 18.6509 13.151 18.6509 12.5745C18.6509 11.9981 18.1836 11.5308 17.6072 11.5308C17.0308 11.5308 16.5635 11.9981 16.5635 12.5745C16.5635 13.151 17.0308 13.6183 17.6072 13.6183Z" fill="black"/>
<path d="M10.6157 13.6183C11.1922 13.6183 11.6594 13.151 11.6594 12.5745C11.6594 11.9981 11.1922 11.5308 10.6157 11.5308C10.0393 11.5308 9.57202 11.9981 9.57202 12.5745C9.57202 13.151 10.0393 13.6183 10.6157 13.6183Z" fill="black"/>
</g>
</svg>
