<svg width="96" height="165" viewBox="0 0 96 165" fill="none" xmlns="http://www.w3.org/2000/svg">
<path d="M2.87939 153.463L73.9473 99.4402L19.924 28.3723L-51.1439 82.3956L2.87939 153.463ZM15.6706 59.5253L42.7785 95.1879L7.11588 122.296L-19.992 86.6331L15.6706 59.5253Z" fill="#FCDD2B" stroke="black" stroke-miterlimit="10" stroke-linecap="round" stroke-linejoin="round"/>
<path d="M77.4166 83.8935L73.9392 99.4305L19.9159 28.3626L23.3933 12.8256L77.4166 83.8935Z" fill="white" stroke="black" stroke-miterlimit="10" stroke-linecap="round" stroke-linejoin="round"/>
<path d="M23.3931 12.8255L19.9158 28.3625L-51.1521 82.3858L-47.6747 66.8487L23.3931 12.8255Z" fill="#050C26" stroke="black" stroke-miterlimit="10" stroke-linecap="round" stroke-linejoin="round"/>
<path d="M10.926 106.852L7.12455 122.3L-19.9918 86.63L-10.1075 79.1271L10.926 106.852Z" fill="#050C26" stroke="black" stroke-miterlimit="10" stroke-linecap="round" stroke-linejoin="round"/>
<path d="M10.9258 106.851L36.7167 87.1979L42.7784 95.184L7.1243 122.299L10.9258 106.851Z" fill="black" stroke="black" stroke-miterlimit="10" stroke-linecap="round" stroke-linejoin="round"/>
</svg>
