<svg width="93" height="95" viewBox="0 0 93 95" fill="none" xmlns="http://www.w3.org/2000/svg">
<path d="M40.23 86.6717L80.1582 56.3197L49.8062 16.3915L9.87806 46.7435L40.23 86.6717ZM47.4165 33.8943L62.6466 53.9306L42.6102 69.1607L27.3802 49.1243L47.4165 33.8943Z" fill="#FCDD2B" stroke="black" stroke-miterlimit="10" stroke-linecap="round" stroke-linejoin="round"/>
<path d="M82.1072 47.5855L80.1536 56.3147L49.8016 16.3865L51.7553 7.65729L82.1072 47.5855Z" fill="white" stroke="black" stroke-miterlimit="10" stroke-linecap="round" stroke-linejoin="round"/>
<path d="M51.7551 7.65727L49.8014 16.3865L9.87323 46.7384L11.8269 38.0092L51.7551 7.65727Z" fill="#050C26" stroke="black" stroke-miterlimit="10" stroke-linecap="round" stroke-linejoin="round"/>
<path d="M44.751 60.4843L42.6152 69.1633L27.3804 49.1228L32.9337 44.9074L44.751 60.4843Z" fill="#050C26" stroke="black" stroke-miterlimit="10" stroke-linecap="round" stroke-linejoin="round"/>
<path d="M44.7509 60.4838L59.2411 49.4418L62.6467 53.9287L42.6151 69.1628L44.7509 60.4838Z" fill="black" stroke="black" stroke-miterlimit="10" stroke-linecap="round" stroke-linejoin="round"/>
</svg>
