<svg width="50" height="50" viewBox="0 0 50 50" fill="none" xmlns="http://www.w3.org/2000/svg">
<g clip-path="url(#clip0_811_2381)">
<path d="M47.657 18.0635C48.4803 15.6942 47.2226 13.0967 44.8533 12.2733L21.4709 4.14776C18.9634 3.27637 16.2144 4.60747 15.3431 7.115L7.21746 30.4974L2.92055 29.0041L2.54725 30.0784C1.51805 33.04 3.09022 36.2868 6.05187 37.316L27.5364 44.7821C29.3134 45.3996 31.2615 44.4564 31.879 42.6793L39.7184 20.1206L46.1638 22.3604L47.657 18.0635ZM6.79847 35.1676C5.39797 34.6809 4.51527 33.3677 4.50645 31.9632L25.807 39.3653L25.4336 40.4395C25.3028 40.816 25.242 41.2002 25.2444 41.5777L6.79847 35.1676ZM29.7306 41.9327C29.5247 42.5251 28.8754 42.8395 28.283 42.6337C27.6906 42.4278 27.3762 41.7785 27.5821 41.1861L28.702 37.9634L9.36592 31.244L17.4915 7.86161C17.9512 6.53873 19.4015 5.8365 20.7243 6.29621L40.3879 13.1295C39.8012 13.6345 39.3351 14.2946 39.0632 15.077L29.7306 41.9327ZM44.7619 19.4653L40.465 17.9721C40.7261 17.2207 40.9505 16.575 41.2116 15.8237C41.6233 14.639 42.922 14.0101 44.1067 14.4218C45.2913 14.8335 45.9202 16.1322 45.5085 17.3169L44.7619 19.4653Z" fill="#212121"/>
<path d="M33.692 13.2104C30.1597 11.9829 27.4839 16.5869 30.3673 19.0356C29.2877 20.8571 27.0369 21.7333 24.9611 21.0119C21.7165 19.8844 18.1871 21.359 16.6574 24.3285C15.226 24.307 13.8759 25.1948 13.3809 26.6193C12.7633 28.3964 13.7067 30.3444 15.4836 30.9619C17.2606 31.5794 19.2087 30.6362 19.8262 28.8591C20.3017 27.4911 19.8513 26.0224 18.8084 25.1367C19.8879 23.3152 22.1387 22.439 24.2145 23.1604C27.4592 24.2879 30.9886 22.8133 32.5182 19.8438C33.9497 19.8652 35.2998 18.9775 35.7948 17.553C36.4123 15.776 35.469 13.8279 33.692 13.2104ZM16.2303 28.8134C15.6379 28.6076 15.3235 27.9583 15.5293 27.3659C15.7352 26.7736 16.3845 26.4591 16.9769 26.665C17.5692 26.8708 17.8836 27.5202 17.6778 28.1125C17.4719 28.7049 16.8226 29.0193 16.2303 28.8134ZM32.1988 17.5073C31.6064 17.3014 31.292 16.6521 31.4979 16.0598C31.7037 15.4674 32.353 15.153 32.9454 15.3588C33.5377 15.5647 33.8522 16.214 33.6463 16.8064C33.4405 17.3987 32.7911 17.7131 32.1988 17.5073Z" fill="#F7D033"/>
<path d="M30.3393 27.7576L28.2922 28.7489L27.3009 26.7018L25.2538 27.693L26.2451 29.7401L24.1979 30.7314L25.1892 32.7785L27.2363 31.7873L28.2275 33.8344L30.2746 32.8431L29.2834 30.796L31.3305 29.8047L30.3393 27.7576Z" fill="#F7D033"/>
<path d="M19.78 16.7433L21.8271 15.752L22.8184 17.7992L24.8655 16.8079L23.8742 14.7608L25.9213 13.7695L24.9302 11.7225L22.883 12.7137L21.8917 10.6666L19.8447 11.6578L20.8359 13.7049L18.7888 14.6962L19.78 16.7433Z" fill="#F7D033"/>
</g>
<defs>
<clipPath id="clip0_811_2381">
<rect width="38.6663" height="38.6663" fill="white" transform="translate(13) rotate(19.1628)"/>
</clipPath>
</defs>
</svg>
