<svg width="40" height="40" viewBox="0 0 40 40" fill="none" xmlns="http://www.w3.org/2000/svg">
<g clip-path="url(#clip0)">
<path d="M32.9429 0.0175781C32.8899 0.00625 32.8351 0 32.7787 0H7.34375C5.18984 0 3.4375 1.75234 3.4375 3.90625V8.61977C3.4375 9.05117 3.78734 9.40102 4.21875 9.40102C4.65016 9.40102 5 9.05117 5 8.61977V3.90625C5 2.61391 6.05141 1.5625 7.34375 1.5625H29.3771C28.8855 2.21586 28.5938 3.02758 28.5938 3.90625V9.75984C28.5938 10.1912 28.9436 10.5411 29.375 10.5411C29.8064 10.5411 30.1562 10.1912 30.1562 9.75984V3.90625C30.1562 2.61391 31.2077 1.5625 32.5 1.5625H32.5781C33.8705 1.5625 34.9219 2.61391 34.9219 3.90625V7.1875H32.5391C32.1077 7.1875 31.7578 7.53734 31.7578 7.96875C31.7578 8.40016 32.1077 8.75 32.5391 8.75H35.7031C36.1345 8.75 36.4844 8.40016 36.4844 7.96875V3.90625C36.4844 1.87539 34.9263 0.202187 32.9429 0.0175781Z" fill="black" stroke="black" stroke-width="0.25"/>
<path d="M4.77102 11.0985C4.62578 10.9524 4.42422 10.8696 4.21875 10.8696C4.01328 10.8696 3.81172 10.9524 3.66641 11.0985C3.52109 11.2438 3.4375 11.4447 3.4375 11.6509C3.4375 11.8563 3.52102 12.0579 3.66641 12.2032C3.81172 12.3485 4.01328 12.4321 4.21875 12.4321C4.42422 12.4321 4.62578 12.3485 4.77102 12.2032C4.91633 12.0571 5 11.8563 5 11.6509C5 11.4454 4.91641 11.2438 4.77102 11.0985Z" fill="black" stroke="black" stroke-width="0.25"/>
<path d="M37.341 34.6158V21.9791C37.341 17.6053 33.9647 14.0053 29.6814 13.6488C29.3337 12.0611 27.9163 10.8691 26.2259 10.8691H25.506C25.0746 10.8691 24.7248 11.219 24.7248 11.6504V15.0529L18.9847 22.5369C18.7463 22.8477 18.7748 23.287 19.0516 23.5642L21.6526 26.17C21.9125 26.4305 22.319 26.4742 22.6282 26.2751L24.6556 24.9705H26.1559V26.8995C26.1559 28.4587 25.384 29.91 24.0912 30.7816C23.8757 30.9268 23.7466 31.1696 23.7466 31.4294V34.5491C22.0371 34.7477 20.7055 36.2036 20.7055 37.9655V38.4374H5C3.3732 38.4374 2.00672 37.3015 1.65203 35.7811H18.4987C18.9301 35.7811 19.2799 35.4313 19.2799 34.9998C19.2799 34.5684 18.9301 34.2186 18.4987 34.2186H5V14.4009C5 13.9695 4.65016 13.6196 4.21875 13.6196C3.78734 13.6196 3.4375 13.9695 3.4375 14.4009V34.2186H0.78125C0.349844 34.2186 0 34.5684 0 34.9998C0 37.7569 2.24297 39.9999 5 39.9999H39.2188C39.6502 39.9999 40 39.65 40 39.2186V37.9655C40 36.3373 38.8627 34.9706 37.341 34.6158ZM25.3092 31.8276C26.8251 30.6488 27.7184 28.8364 27.7184 26.8994V24.8554C28.0113 24.7804 28.2949 24.6695 28.5613 24.5245C29.7398 23.8827 30.472 22.6505 30.472 21.3084V20.911C30.472 20.4796 30.1221 20.1298 29.6907 20.1298C29.2593 20.1298 28.9095 20.4796 28.9095 20.911V21.3084C28.9095 22.0778 28.4897 22.7843 27.8141 23.1523C27.507 23.3195 27.1598 23.4078 26.8101 23.4078H24.426C24.2761 23.4078 24.1293 23.4509 24.0033 23.5321L22.313 24.6198L20.6409 22.9447L26.1259 15.7934C26.2305 15.657 26.2872 15.4898 26.2872 15.318V12.4325C27.3477 12.4651 28.2005 13.338 28.2005 14.4063C28.2005 14.8377 28.5503 15.1876 28.9817 15.1876C29.0109 15.1876 29.0397 15.1859 29.068 15.1828C32.7762 15.2292 35.7784 18.2602 35.7784 21.979V34.5252H34.2188V30.1561C34.2188 29.7247 33.8689 29.3748 33.4375 29.3748C33.0061 29.3748 32.6562 29.7247 32.6562 30.1561V34.5252H25.3092V31.8276ZM25.3125 38.4374H22.2681V37.9655C22.2681 36.9301 23.1105 36.0877 24.1459 36.0877H36.5597C37.5951 36.0877 38.4374 36.9301 38.4374 37.9655V38.4374H25.3125Z" fill="black" stroke="black" stroke-width="0.25"/>
<path d="M27.4898 18.4079C27.3445 18.2626 27.143 18.179 26.9375 18.179C26.7312 18.179 26.5297 18.2625 26.3852 18.4079C26.2399 18.5532 26.1562 18.7547 26.1562 18.9602C26.1562 19.1665 26.2398 19.3672 26.3852 19.5125C26.5305 19.6579 26.7313 19.7415 26.9375 19.7415C27.143 19.7415 27.3445 19.6579 27.4898 19.5125C27.6351 19.3672 27.7188 19.1657 27.7188 18.9602C27.7188 18.7547 27.6352 18.5532 27.4898 18.4079Z" fill="black" stroke="black" stroke-width="0.25"/>
<path d="M11.7188 4.21875H7.96875C7.53734 4.21875 7.1875 4.56859 7.1875 5V8.75C7.1875 9.18141 7.53734 9.53125 7.96875 9.53125H11.7188C12.1502 9.53125 12.5 9.18141 12.5 8.75V5C12.5 4.56859 12.1502 4.21875 11.7188 4.21875ZM10.9375 7.96875H8.75V5.78125H10.9375V7.96875Z" fill="black" stroke="black" stroke-width="0.25"/>
<path d="M21.2754 6.09375H14.8691C14.4377 6.09375 14.0879 6.44359 14.0879 6.875C14.0879 7.30641 14.4377 7.65625 14.8691 7.65625H21.2754C21.7068 7.65625 22.0566 7.30641 22.0566 6.875C22.0566 6.44359 21.7068 6.09375 21.2754 6.09375Z" fill="black" stroke="black" stroke-width="0.25"/>
<path d="M11.7188 11.7188H7.96875C7.53734 11.7188 7.1875 12.0686 7.1875 12.5V16.25C7.1875 16.6814 7.53734 17.0312 7.96875 17.0312H11.7188C12.1502 17.0312 12.5 16.6814 12.5 16.25V12.5C12.5 12.0686 12.1502 11.7188 11.7188 11.7188ZM10.9375 15.4688H8.75V13.2812H10.9375V15.4688Z" fill="black" stroke="black" stroke-width="0.25"/>
<path d="M21.2754 13.5938H14.8691C14.4377 13.5938 14.0879 13.9436 14.0879 14.375C14.0879 14.8064 14.4377 15.1562 14.8691 15.1562H21.2754C21.7068 15.1562 22.0566 14.8064 22.0566 14.375C22.0566 13.9436 21.7068 13.5938 21.2754 13.5938Z" fill="black" stroke="black" stroke-width="0.25"/>
<path d="M11.7188 19.2188H7.96875C7.53734 19.2188 7.1875 19.5686 7.1875 20V23.75C7.1875 24.1814 7.53734 24.5312 7.96875 24.5312H11.7188C12.1502 24.5312 12.5 24.1814 12.5 23.75V20C12.5 19.5686 12.1502 19.2188 11.7188 19.2188ZM10.9375 22.9688H8.75V20.7812H10.9375V22.9688Z" fill="black" stroke="black" stroke-width="0.25"/>
<path d="M16.2234 21.0938H14.8691C14.4377 21.0938 14.0879 21.4436 14.0879 21.875C14.0879 22.3064 14.4377 22.6562 14.8691 22.6562H16.2234C16.6548 22.6562 17.0046 22.3064 17.0046 21.875C17.0046 21.4436 16.6548 21.0938 16.2234 21.0938Z" fill="black" stroke="black" stroke-width="0.25"/>
<path d="M11.7188 26.7119H7.96875C7.53734 26.7119 7.1875 27.0618 7.1875 27.4932V31.2432C7.1875 31.6746 7.53734 32.0244 7.96875 32.0244H11.7188C12.1502 32.0244 12.5 31.6746 12.5 31.2432V27.4932C12.5 27.0618 12.1502 26.7119 11.7188 26.7119ZM10.9375 30.4619H8.75V28.2744H10.9375V30.4619Z" fill="black" stroke="black" stroke-width="0.25"/>
<path d="M20.0093 28.5869H14.8691C14.4377 28.5869 14.0879 28.9368 14.0879 29.3682C14.0879 29.7996 14.4377 30.1494 14.8691 30.1494H20.0093C20.4407 30.1494 20.7905 29.7996 20.7905 29.3682C20.7905 28.9368 20.4407 28.5869 20.0093 28.5869Z" fill="black" stroke="black" stroke-width="0.25"/>
<path d="M33.9898 26.6352C33.8445 26.4898 33.643 26.4062 33.4375 26.4062C33.232 26.4062 33.0305 26.4898 32.8852 26.6352C32.7398 26.7805 32.6562 26.982 32.6562 27.1875C32.6562 27.393 32.7398 27.5945 32.8852 27.7398C33.0305 27.8852 33.232 27.9688 33.4375 27.9688C33.643 27.9688 33.8445 27.8852 33.9898 27.7398C34.1352 27.5945 34.2188 27.393 34.2188 27.1875C34.2188 26.982 34.1352 26.7805 33.9898 26.6352Z" fill="black" stroke="black" stroke-width="0.25"/>
</g>
<defs>
<clipPath id="clip0">
<rect width="40" height="40" fill="white"/>
</clipPath>
</defs>
</svg>
