<svg width="41" height="41" viewBox="0 0 41 41" fill="none" xmlns="http://www.w3.org/2000/svg">
<g clip-path="url(#clip0)">
<path d="M33.5699 10.5806V1.98387H12.3146C12.0188 0.845664 10.992 0 9.76341 0C8.30457 0 7.11825 1.18632 7.11825 2.64516C7.11825 3.87443 7.96456 4.90091 9.10212 5.19636V8.2713L0.0820312 15.2097L9.10212 22.1481V25.129H4.47309V31.7419H9.10212V35.8036C7.96456 36.0991 7.11825 37.1256 7.11825 38.3548C7.11825 39.8137 8.30457 41 9.76341 41C11.2223 41 12.4086 39.8137 12.4086 38.3548C12.4086 37.1256 11.5619 36.0991 10.4247 35.8036V31.7419H15.0537V25.129H10.4247V22.1481L18.5849 15.871H24.9731V19.8387H40.8441V10.5806H33.5699ZM11.086 38.3548C11.086 39.0843 10.4928 39.6774 9.76341 39.6774C9.03399 39.6774 8.44083 39.0843 8.44083 38.3548C8.44083 37.6254 9.03399 37.0323 9.76341 37.0323C10.4928 37.0323 11.086 37.6254 11.086 38.3548ZM13.7312 30.4194H5.79567V26.4516H13.7312V30.4194ZM8.44083 2.64516C8.44083 1.91574 9.03399 1.32258 9.76341 1.32258C10.4928 1.32258 11.086 1.91574 11.086 2.64516C11.086 3.37458 10.4928 3.96774 9.76341 3.96774C9.03399 3.96774 8.44083 3.37458 8.44083 2.64516ZM9.76341 20.9879L2.25092 15.2097L9.76341 9.43146L17.2756 15.2097L9.76341 20.9879ZM18.5849 14.5484L10.4247 8.2713V5.19636C11.3498 4.9558 12.0737 4.23155 12.3146 3.30645H32.2473V10.5806H24.9731V14.5484H18.5849ZM39.5215 18.5161H26.2957V11.9032H39.5215V18.5161Z" fill="black" stroke="black" stroke-width="0.25"/>
<path d="M27.6191 13.2258H38.1998V14.5484H27.6191V13.2258Z" fill="black" stroke="black" stroke-width="0.25"/>
<path d="M27.6191 15.8708H36.8772V17.1934H27.6191V15.8708Z" fill="black" stroke="black" stroke-width="0.25"/>
<path d="M17.6992 36.371H38.8605V24.4678H17.6992V36.371ZM19.0218 25.7904H37.5379V35.0484H19.0218V25.7904Z" fill="black" stroke="black" stroke-width="0.25"/>
<path d="M20.3438 27.1128H21.6663V28.4354H20.3438V27.1128Z" fill="black" stroke="black" stroke-width="0.25"/>
<path d="M22.9902 27.1128H36.216V28.4354H22.9902V27.1128Z" fill="black" stroke="black" stroke-width="0.25"/>
<path d="M22.9902 29.7581H36.216V31.0806H22.9902V29.7581Z" fill="black" stroke="black" stroke-width="0.25"/>
<path d="M20.3438 29.7581H21.6663V31.0806H20.3438V29.7581Z" fill="black" stroke="black" stroke-width="0.25"/>
<path d="M20.3438 32.4033H21.6663V33.7259H20.3438V32.4033Z" fill="black" stroke="black" stroke-width="0.25"/>
<path d="M22.9902 32.4033H36.216V33.7259H22.9902V32.4033Z" fill="black" stroke="black" stroke-width="0.25"/>
</g>
<defs>
<clipPath id="clip0">
<rect width="41" height="41" fill="white"/>
</clipPath>
</defs>
</svg>
