<svg width="83" height="83" viewBox="0 0 83 83" fill="none" xmlns="http://www.w3.org/2000/svg">
<rect y="3" width="4" height="77" fill="black"/>
<rect x="7" width="2" height="83" fill="black"/>
<path d="M14 5L21.5 12" stroke="black" stroke-width="2"/>
<path d="M13 22L20.5 29" stroke="black" stroke-width="2"/>
<path d="M13 39L20.5 46" stroke="black" stroke-width="2"/>
<path d="M13 56L20.5 63" stroke="black" stroke-width="2"/>
<path d="M13 73L20.5 80" stroke="black" stroke-width="2"/>
<path fill-rule="evenodd" clip-rule="evenodd" d="M72 37C76.9706 37 81 32.9706 81 28C81 23.0294 76.9706 19 72 19C67.0294 19 63 23.0294 63 28C63 28.6874 63.0771 29.3568 63.223 30H62.2C62.0689 29.3538 62 28.6849 62 28C62 22.4772 66.4772 18 72 18C77.5228 18 82 22.4772 82 28C82 33.5228 77.5228 38 72 38H29V37H72Z" fill="black"/>
<path d="M63.223 30V30.5H63.8492L63.7106 29.8894L63.223 30ZM62.2 30L61.71 30.0995L61.7913 30.5H62.2V30ZM29 38H28.5V38.5H29V38ZM29 37V36.5H28.5V37H29ZM80.5 28C80.5 32.6944 76.6944 36.5 72 36.5V37.5C77.2467 37.5 81.5 33.2467 81.5 28H80.5ZM72 19.5C76.6944 19.5 80.5 23.3056 80.5 28H81.5C81.5 22.7533 77.2467 18.5 72 18.5V19.5ZM63.5 28C63.5 23.3056 67.3056 19.5 72 19.5V18.5C66.7533 18.5 62.5 22.7533 62.5 28H63.5ZM63.7106 29.8894C63.5728 29.2822 63.5 28.6499 63.5 28H62.5C62.5 28.7249 62.5813 29.4314 62.7354 30.1106L63.7106 29.8894ZM62.2 30.5H63.223V29.5H62.2V30.5ZM61.5 28C61.5 28.7185 61.5722 29.4207 61.71 30.0995L62.69 29.9005C62.5655 29.2869 62.5 28.6513 62.5 28H61.5ZM72 17.5C66.201 17.5 61.5 22.201 61.5 28H62.5C62.5 22.7533 66.7533 18.5 72 18.5V17.5ZM82.5 28C82.5 22.201 77.799 17.5 72 17.5V18.5C77.2467 18.5 81.5 22.7533 81.5 28H82.5ZM72 38.5C77.799 38.5 82.5 33.799 82.5 28H81.5C81.5 33.2467 77.2467 37.5 72 37.5V38.5ZM72 37.5H29V38.5H72V37.5ZM29.5 38V37H28.5V38H29.5ZM29 37.5H72V36.5H29V37.5Z" fill="black"/>
<path fill-rule="evenodd" clip-rule="evenodd" d="M48.5 31C53.4706 31 57.5 26.9706 57.5 22C57.5 17.0294 53.4706 13 48.5 13C43.5294 13 39.5 17.0294 39.5 22C39.5 22.6874 39.5771 23.3568 39.723 24H38.7C38.5689 23.3538 38.5 22.6849 38.5 22C38.5 16.4772 42.9772 12 48.5 12C54.0228 12 58.5 16.4772 58.5 22C58.5 27.3552 54.2906 31.7272 49 31.9877V32H48.5H29V31H48.5Z" fill="black"/>
<path d="M39.723 24V24.5H40.3492L40.2106 23.8894L39.723 24ZM38.7 24L38.21 24.0995L38.2913 24.5H38.7V24ZM49 31.9877L48.9754 31.4883L48.5 31.5117V31.9877H49ZM49 32V32.5H49.5V32H49ZM29 32H28.5V32.5H29V32ZM29 31V30.5H28.5V31H29ZM57 22C57 26.6944 53.1944 30.5 48.5 30.5V31.5C53.7467 31.5 58 27.2467 58 22H57ZM48.5 13.5C53.1944 13.5 57 17.3056 57 22H58C58 16.7533 53.7467 12.5 48.5 12.5V13.5ZM40 22C40 17.3056 43.8056 13.5 48.5 13.5V12.5C43.2533 12.5 39 16.7533 39 22H40ZM40.2106 23.8894C40.0728 23.2822 40 22.6499 40 22H39C39 22.7249 39.0813 23.4314 39.2354 24.1106L40.2106 23.8894ZM38.7 24.5H39.723V23.5H38.7V24.5ZM38 22C38 22.7185 38.0722 23.4207 38.21 24.0995L39.19 23.9005C39.0655 23.2869 39 22.6513 39 22H38ZM48.5 11.5C42.701 11.5 38 16.201 38 22H39C39 16.7533 43.2533 12.5 48.5 12.5V11.5ZM59 22C59 16.201 54.299 11.5 48.5 11.5V12.5C53.7467 12.5 58 16.7533 58 22H59ZM49.0246 32.4871C54.5801 32.2136 59 27.6231 59 22H58C58 27.0873 54.001 31.2409 48.9754 31.4883L49.0246 32.4871ZM48.5 31.9877V32H49.5V31.9877H48.5ZM49 31.5H48.5V32.5H49V31.5ZM48.5 31.5H29V32.5H48.5V31.5ZM29.5 32V31H28.5V32H29.5ZM29 31.5H48.5V30.5H29V31.5Z" fill="black"/>
<path fill-rule="evenodd" clip-rule="evenodd" d="M72 45C76.9706 45 81 49.0294 81 54C81 58.9706 76.9706 63 72 63C67.0294 63 63 58.9706 63 54C63 53.3126 63.0771 52.6432 63.223 52H62.2C62.0689 52.6462 62 53.3151 62 54C62 59.5228 66.4772 64 72 64C77.5228 64 82 59.5228 82 54C82 48.4772 77.5228 44 72 44H29V45H72Z" fill="black"/>
<path d="M63.223 52V51.5H63.8492L63.7106 52.1106L63.223 52ZM62.2 52L61.71 51.9005L61.7913 51.5H62.2V52ZM29 44H28.5V43.5H29V44ZM29 45V45.5H28.5V45H29ZM80.5 54C80.5 49.3056 76.6944 45.5 72 45.5V44.5C77.2467 44.5 81.5 48.7533 81.5 54H80.5ZM72 62.5C76.6944 62.5 80.5 58.6944 80.5 54H81.5C81.5 59.2467 77.2467 63.5 72 63.5V62.5ZM63.5 54C63.5 58.6944 67.3056 62.5 72 62.5V63.5C66.7533 63.5 62.5 59.2467 62.5 54H63.5ZM63.7106 52.1106C63.5728 52.7178 63.5 53.3501 63.5 54H62.5C62.5 53.2751 62.5813 52.5686 62.7354 51.8894L63.7106 52.1106ZM62.2 51.5H63.223V52.5H62.2V51.5ZM61.5 54C61.5 53.2815 61.5722 52.5793 61.71 51.9005L62.69 52.0995C62.5655 52.7131 62.5 53.3487 62.5 54H61.5ZM72 64.5C66.201 64.5 61.5 59.799 61.5 54H62.5C62.5 59.2467 66.7533 63.5 72 63.5V64.5ZM82.5 54C82.5 59.799 77.799 64.5 72 64.5V63.5C77.2467 63.5 81.5 59.2467 81.5 54H82.5ZM72 43.5C77.799 43.5 82.5 48.201 82.5 54H81.5C81.5 48.7533 77.2467 44.5 72 44.5V43.5ZM72 44.5H29V43.5H72V44.5ZM29.5 44V45H28.5V44H29.5ZM29 44.5H72V45.5H29V44.5Z" fill="black"/>
<path fill-rule="evenodd" clip-rule="evenodd" d="M48.5 51C53.4706 51 57.5 55.0294 57.5 60C57.5 64.9706 53.4706 69 48.5 69C43.5294 69 39.5 64.9706 39.5 60C39.5 59.3126 39.5771 58.6432 39.723 58H38.7C38.5689 58.6462 38.5 59.3151 38.5 60C38.5 65.5228 42.9772 70 48.5 70C54.0228 70 58.5 65.5228 58.5 60C58.5 54.6448 54.2906 50.2728 49 50.0123V50H48.5H29V51H48.5Z" fill="black"/>
<path d="M39.723 58V57.5H40.3492L40.2106 58.1106L39.723 58ZM38.7 58L38.21 57.9005L38.2913 57.5H38.7V58ZM49 50.0123L48.9754 50.5117L48.5 50.4883V50.0123H49ZM49 50V49.5H49.5V50H49ZM29 50H28.5V49.5H29V50ZM29 51V51.5H28.5V51H29ZM57 60C57 55.3056 53.1944 51.5 48.5 51.5V50.5C53.7467 50.5 58 54.7533 58 60H57ZM48.5 68.5C53.1944 68.5 57 64.6944 57 60H58C58 65.2467 53.7467 69.5 48.5 69.5V68.5ZM40 60C40 64.6944 43.8056 68.5 48.5 68.5V69.5C43.2533 69.5 39 65.2467 39 60H40ZM40.2106 58.1106C40.0728 58.7178 40 59.3501 40 60H39C39 59.2751 39.0813 58.5686 39.2354 57.8894L40.2106 58.1106ZM38.7 57.5H39.723V58.5H38.7V57.5ZM38 60C38 59.2815 38.0722 58.5793 38.21 57.9005L39.19 58.0995C39.0655 58.7131 39 59.3487 39 60H38ZM48.5 70.5C42.701 70.5 38 65.799 38 60H39C39 65.2467 43.2533 69.5 48.5 69.5V70.5ZM59 60C59 65.799 54.299 70.5 48.5 70.5V69.5C53.7467 69.5 58 65.2467 58 60H59ZM49.0246 49.5129C54.5801 49.7864 59 54.3769 59 60H58C58 54.9127 54.001 50.7591 48.9754 50.5117L49.0246 49.5129ZM48.5 50.0123V50H49.5V50.0123H48.5ZM49 50.5H48.5V49.5H49V50.5ZM48.5 50.5H29V49.5H48.5V50.5ZM29.5 50V51H28.5V50H29.5ZM29 50.5H48.5V51.5H29V50.5Z" fill="black"/>
</svg>
