<svg width="38" height="22" viewBox="0 0 38 22" fill="none" xmlns="http://www.w3.org/2000/svg">
<path fill-rule="evenodd" clip-rule="evenodd" d="M18.5919 21.9079H20.8633C20.8633 21.9079 21.5494 21.8315 21.8997 21.4482C22.2221 21.0964 22.2118 20.4357 22.2118 20.4357C22.2118 20.4357 22.1674 17.3427 23.582 16.8872C24.9764 16.4386 26.767 19.8766 28.6649 21.1985C30.1001 22.199 31.1906 21.9796 31.1906 21.9796L36.2653 21.9079C36.2653 21.9079 38.92 21.7419 37.6613 19.6237C37.5581 19.4504 36.9282 18.0568 33.8882 15.1931C30.7062 12.1959 31.1323 12.6807 34.9653 7.49618C37.2996 4.33877 38.2329 2.41114 37.9414 1.58553C37.6633 0.799193 35.9465 1.00703 35.9465 1.00703L30.2327 1.04316C30.2327 1.04316 29.8091 0.984522 29.495 1.17509C29.188 1.36199 28.9904 1.79756 28.9904 1.79756C28.9904 1.79756 28.0861 4.24087 26.88 6.31876C24.3357 10.7033 23.3184 10.9347 22.9026 10.6625C21.9353 10.028 22.1767 8.11342 22.1767 6.75329C22.1767 2.50433 22.8118 0.732706 20.9402 0.274094C20.3191 0.121747 19.862 0.0212298 18.2736 0.00500036C16.2349 -0.0164643 14.5093 0.011282 13.5322 0.497117C12.8822 0.820135 12.3808 1.53999 12.6862 1.58135C13.0638 1.63265 13.9191 1.81536 14.3726 2.44203C14.9581 3.25036 14.9374 5.06596 14.9374 5.06596C14.9374 5.06596 15.2738 10.0678 14.1518 10.6892C13.3816 11.1153 12.325 10.2452 10.0567 6.26746C8.89446 4.22988 8.01696 1.97766 8.01696 1.97766C8.01696 1.97766 7.84775 1.55674 7.54596 1.33162C7.17969 1.05886 6.66794 0.971959 6.66794 0.971959L1.23834 1.00808C1.23834 1.00808 0.42326 1.03112 0.124052 1.39078C-0.14214 1.71066 0.102901 2.3724 0.102901 2.3724C0.102901 2.3724 4.35372 12.465 9.16685 17.5511C13.5802 22.2142 18.5919 21.9079 18.5919 21.9079Z" fill="white"/>
</svg>
