<svg width="49" height="49" viewBox="0 0 49 49" fill="none" xmlns="http://www.w3.org/2000/svg">
<g>
<path d="M45.1575 0.0290527H9.6527C7.53389 0.0290527 5.81021 1.75273 5.81021 3.87144V18.868L2.71069 23.0687C2.47571 23.3872 2.54337 23.8359 2.86186 24.0709C2.99001 24.1654 3.13898 24.2109 3.28681 24.2109C3.50659 24.2109 3.72351 24.1101 3.86408 23.9196L5.81012 21.2821V29.7965C5.81012 31.011 6.38767 32.1399 7.33112 32.8574L6.65495 33.8087C6.4257 34.1314 6.50139 34.5788 6.82399 34.8081C7.14669 35.0374 7.594 34.9618 7.82334 34.6391L14.3912 25.398C14.5974 25.108 14.9045 24.9182 15.2561 24.8636C15.6084 24.809 15.9581 24.8967 16.2426 25.1105C16.7377 25.4828 16.9035 26.1588 16.6369 26.7179L13.6806 32.9205C13.6213 33.0449 13.5991 33.1837 13.6167 33.3204L13.7934 34.694C14.0254 36.4987 13.71 38.3089 12.8812 39.9287C12.8252 40.0381 12.7984 40.1601 12.8032 40.283L13.1141 48.2818C13.1291 48.6678 13.4467 48.9707 13.8297 48.9706C13.8391 48.9706 13.8486 48.9704 13.858 48.97C14.2536 48.9546 14.5617 48.6216 14.5463 48.226L14.2425 40.4111C15.1397 38.5766 15.4759 36.5409 15.215 34.5112L15.1029 33.6388H45.1574C47.2762 33.6388 48.9999 31.9151 48.9999 29.7964V3.87144C49 1.75273 47.2763 0.0290527 45.1575 0.0290527V0.0290527ZM47.5666 29.7966C47.5666 31.1249 46.4859 32.2056 45.1575 32.2056H15.6094L16.2927 30.7722H41.3215C41.8595 30.7722 42.2973 30.3344 42.2973 29.7966V3.87144C42.2973 3.33345 41.8595 2.8957 41.3215 2.8957H18.6979C18.302 2.8957 17.9813 3.21658 17.9813 3.61239C17.9813 4.00819 18.302 4.32907 18.6979 4.32907H40.8639V29.3388H16.9758L17.931 27.3348C18.4897 26.1626 18.142 24.7454 17.104 23.9649C16.5078 23.5166 15.7733 23.3325 15.0362 23.4473C14.299 23.5618 13.6552 23.9597 13.2229 24.5678L10.1103 28.9472V4.32917H15.6435C16.0394 4.32917 16.3602 4.00828 16.3602 3.61248C16.3602 3.21668 16.0394 2.8958 15.6435 2.8958H9.6527C9.11471 2.8958 8.67696 3.33355 8.67696 3.87144V29.7965C8.67696 30.0812 8.80042 30.3371 8.99555 30.5156L8.16247 31.6877C7.59189 31.2367 7.24349 30.5427 7.24349 29.7966V3.87144C7.24349 2.54309 8.32425 1.46242 9.65261 1.46242H45.1574C46.4858 1.46242 47.5665 2.54319 47.5665 3.87144V29.7966H47.5666Z" fill="#FECC2F"/>
<path d="M44.9091 16.1172C44.5132 16.1172 44.1924 16.4381 44.1924 16.8339V18.9495C44.1924 19.3453 44.5132 19.6662 44.9091 19.6662C45.305 19.6662 45.6258 19.3453 45.6258 18.9495V16.8339C45.6258 16.4381 45.305 16.1172 44.9091 16.1172Z" fill="#FECC2F"/>
<path d="M2.8093 36.9812C1.13236 33.7164 0.981564 29.9009 2.39554 26.5129C2.54795 26.1476 2.37537 25.7279 2.01015 25.5755C1.64493 25.423 1.22524 25.5956 1.07263 25.9609C-0.504269 29.7395 -0.335991 33.9949 1.53418 37.6362L2.47944 39.4765L2.22076 48.233C2.2091 48.6286 2.52043 48.9589 2.91595 48.9705C2.92321 48.9707 2.93028 48.9708 2.93754 48.9708C3.3236 48.9708 3.64209 48.6637 3.65356 48.2753L3.91768 39.3344C3.92122 39.2133 3.89408 39.0935 3.83885 38.9858L2.8093 36.9812Z" fill="#FECC2F"/>
<path d="M25.718 26.4286C28.1332 26.4286 30.4198 25.504 32.1563 23.8249C32.441 23.5498 32.4486 23.0961 32.1734 22.8115C31.8984 22.5271 31.4446 22.5193 31.1601 22.7944C29.6923 24.2137 27.7596 24.9952 25.7181 24.9952C21.4003 24.9952 17.8876 21.4824 17.8876 17.1646C17.8876 12.8467 21.4004 9.33401 25.7181 9.33401C30.036 9.33401 33.5487 12.8468 33.5487 17.1646C33.5487 18.3344 33.2968 19.4598 32.8 20.5095C32.6308 20.8673 32.7835 21.2946 33.1412 21.464C33.4989 21.6331 33.9263 21.4805 34.0956 21.1227C34.6837 19.8799 34.982 18.5482 34.982 17.1646C34.982 12.0564 30.8261 7.90063 25.718 7.90063C20.6098 7.90063 16.4541 12.0565 16.4541 17.1646C16.4541 22.2728 20.6098 26.4286 25.718 26.4286V26.4286Z" fill="#FECC2F"/>
<path d="M25.1979 12.0546C24.5987 11.6413 23.8262 11.5944 23.1818 11.9327C22.5374 12.271 22.137 12.9332 22.137 13.6611V20.6681C22.137 21.396 22.5373 22.0582 23.1819 22.3965C23.468 22.5467 23.7793 22.621 24.0895 22.621C24.478 22.621 24.8648 22.5044 25.1979 22.2746L30.2733 18.771C30.8011 18.4067 31.1163 17.8061 31.1163 17.1646C31.1163 16.5231 30.8011 15.9226 30.2733 15.5582L25.1979 12.0546ZM29.459 17.5913L24.3836 21.0948C24.1508 21.2555 23.9314 21.1711 23.8481 21.1272C23.7646 21.0834 23.5705 20.951 23.5705 20.6681V13.661C23.5705 13.378 23.7646 13.2456 23.848 13.2018C23.8947 13.1774 23.9838 13.1401 24.0939 13.1401C24.1809 13.1401 24.2809 13.1633 24.3836 13.2342L29.459 16.7377C29.6611 16.8773 29.683 17.0826 29.683 17.1645C29.683 17.2464 29.6611 17.4518 29.459 17.5913Z" fill="#FECC2F"/>
</g>
</svg>
