<svg width="49" height="49" viewBox="0 0 49 49" fill="none" xmlns="http://www.w3.org/2000/svg">
<path d="M33.2465 44.4093L32.6264 42.2615C32.0529 40.283 31.7626 38.2333 31.7642 36.1734V34.0331C31.7657 32.0646 31.3625 30.1169 30.5796 28.3108C29.7967 26.5047 28.6509 24.8788 27.2134 23.5342C25.7758 22.1895 24.0771 21.1547 22.2228 20.4941C20.3685 19.8334 18.3982 19.5611 16.4342 19.6938C12.7543 19.9911 9.32407 21.673 6.83552 24.4002C4.34696 27.1273 2.98531 30.6968 3.02525 34.3885V36.1355C3.02526 38.1634 2.74531 40.1816 2.19334 42.1329L1.54293 44.4169C1.50949 44.5283 1.50302 44.6461 1.52406 44.7605C1.5451 44.8749 1.59305 44.9826 1.66394 45.0749C1.73494 45.1682 1.82641 45.244 1.93129 45.2964C2.03618 45.3489 2.1517 45.3766 2.26897 45.3774H12.3881C13.8715 46.3638 15.6133 46.89 17.3947 46.89C19.1762 46.89 20.9179 46.3638 22.4014 45.3774H32.5205C32.6378 45.3766 32.7533 45.3489 32.8582 45.2964C32.9631 45.244 33.0545 45.1682 33.1255 45.0749C33.1965 44.9812 33.2444 44.8721 33.2654 44.7565C33.2864 44.6409 33.2799 44.522 33.2465 44.4093V44.4093ZM17.3947 45.3774C15.3899 45.3742 13.4681 44.5764 12.0505 43.1587C10.6329 41.7411 9.83505 39.8193 9.83185 37.8145V29.934L14.4755 27.2794L24.9576 30.0777V37.8145C24.9544 39.8193 24.1566 41.7411 22.739 43.1587C21.3213 44.5764 19.3995 45.3742 17.3947 45.3774V45.3774ZM24.1408 43.8648C25.4644 42.3991 26.2695 40.539 26.4324 38.5708H27.2265C27.8277 38.569 28.4037 38.3294 28.8288 37.9043C29.2539 37.4792 29.4935 36.9031 29.4953 36.3019V34.7894C29.4935 34.1882 29.2539 33.6121 28.8288 33.187C28.4037 32.7619 27.8277 32.5223 27.2265 32.5205H26.4702V29.4953C26.4709 29.3284 26.4164 29.166 26.3152 29.0333C26.214 28.9006 26.0717 28.8051 25.9105 28.7617L14.5662 25.7366C14.3719 25.6888 14.1668 25.7158 13.9914 25.8122L8.69742 28.8374C8.582 28.904 8.48625 28.9999 8.41984 29.1155C8.35344 29.231 8.31874 29.3621 8.31927 29.4953V32.5205H7.56298C6.9618 32.5223 6.38574 32.7619 5.96064 33.187C5.53553 33.6121 5.29591 34.1882 5.29412 34.7894V36.3019C5.29591 36.9031 5.53553 37.4792 5.96064 37.9043C6.38574 38.3294 6.9618 38.569 7.56298 38.5708H8.35709C8.51992 40.539 9.32508 42.3991 10.6486 43.8648H3.26727L3.64541 42.5413C4.23598 40.4572 4.53628 38.3017 4.53783 36.1355V34.3885C4.49849 31.0814 5.71428 27.8824 7.94015 25.4362C10.166 22.99 13.2364 21.4785 16.5326 21.2064C18.2895 21.0883 20.052 21.3324 21.7107 21.9236C23.3694 22.5147 24.8891 23.4402 26.1753 24.6429C27.4616 25.8455 28.4872 27.2995 29.1883 28.9148C29.8895 30.5301 30.2514 32.2722 30.2516 34.0331V36.1734C30.2516 38.3765 30.5622 40.5686 31.1743 42.685L31.5146 43.8648H24.1408ZM26.4702 37.0582V34.0331H27.2265C27.4271 34.0331 27.6194 34.1127 27.7613 34.2546C27.9031 34.3964 27.9828 34.5888 27.9828 34.7894V36.3019C27.9828 36.5025 27.9031 36.6949 27.7613 36.8367C27.6194 36.9785 27.4271 37.0582 27.2265 37.0582H26.4702ZM8.31927 34.0331V37.0582H7.56298C7.3624 37.0582 7.17004 36.9785 7.02821 36.8367C6.88638 36.6949 6.8067 36.5025 6.8067 36.3019V34.7894C6.8067 34.5888 6.88638 34.3964 7.02821 34.2546C7.17004 34.1127 7.3624 34.0331 7.56298 34.0331H8.31927Z" fill="white"/>
<path d="M46.89 8.31929C46.89 4.25046 42.98 1.5127 39.3271 1.5127C35.6743 1.5127 31.7643 4.25046 31.7643 8.31929C31.7145 9.39375 31.9648 10.4609 32.487 11.4012C33.0093 12.3415 33.7829 13.1179 34.7213 13.6436C34.8575 13.7343 35.0087 13.8402 35.1449 13.9461C34.8557 14.1145 34.608 14.3456 34.42 14.6224C34.232 14.8992 34.1084 15.2146 34.0583 15.5455C34.0082 15.8763 34.033 16.2142 34.1307 16.5342C34.2284 16.8543 34.3967 17.1483 34.623 17.3947C34.2449 17.8079 34.0346 18.3473 34.0331 18.9073C34.0355 19.3752 34.182 19.8309 34.4527 20.2125C34.7233 20.5941 35.105 20.8831 35.5457 21.0401V21.9325C35.5475 22.5337 35.7871 23.1097 36.2122 23.5348C36.6373 23.9599 37.2134 24.1995 37.8146 24.2013H40.8397C41.4409 24.1995 42.017 23.9599 42.4421 23.5348C42.8672 23.1097 43.1068 22.5337 43.1086 21.9325V21.0401C43.5493 20.8831 43.931 20.5941 44.2016 20.2125C44.4723 19.8309 44.6188 19.3752 44.6212 18.9073C44.6197 18.3473 44.4094 17.8079 44.0313 17.3947C44.2576 17.1483 44.4258 16.8543 44.5236 16.5342C44.6213 16.2142 44.6461 15.8763 44.596 15.5455C44.5459 15.2146 44.4223 14.8992 44.2343 14.6224C44.0463 14.3456 43.7986 14.1145 43.5094 13.9461C43.6455 13.8402 43.7968 13.7343 43.9329 13.6436C44.8714 13.1179 45.645 12.3415 46.1673 11.4012C46.6895 10.4609 46.9398 9.39375 46.89 8.31929V8.31929ZM41.596 21.9325C41.596 22.1331 41.5163 22.3254 41.3745 22.4673C41.2327 22.6091 41.0403 22.6888 40.8397 22.6888H37.8146C37.614 22.6888 37.4216 22.6091 37.2798 22.4673C37.138 22.3254 37.0583 22.1331 37.0583 21.9325V21.1762H41.596V21.9325ZM42.3523 19.6636H36.302C36.1014 19.6636 35.909 19.5839 35.7672 19.4421C35.6254 19.3003 35.5457 19.1079 35.5457 18.9073C35.5457 18.7067 35.6254 18.5144 35.7672 18.3725C35.909 18.2307 36.1014 18.151 36.302 18.151H42.3523C42.5529 18.151 42.7452 18.2307 42.8871 18.3725C43.0289 18.5144 43.1086 18.7067 43.1086 18.9073C43.1086 19.1079 43.0289 19.3003 42.8871 19.4421C42.7452 19.5839 42.5529 19.6636 42.3523 19.6636ZM42.3523 16.6385H36.302C36.1014 16.6385 35.909 16.5588 35.7672 16.4169C35.6254 16.2751 35.5457 16.0827 35.5457 15.8822C35.5457 15.6816 35.6254 15.4892 35.7672 15.3474C35.909 15.2056 36.1014 15.1259 36.302 15.1259H42.3523C42.5529 15.1259 42.7452 15.2056 42.8871 15.3474C43.0289 15.4892 43.1086 15.6816 43.1086 15.8822C43.1086 16.0827 43.0289 16.2751 42.8871 16.4169C42.7452 16.5588 42.5529 16.6385 42.3523 16.6385ZM43.0708 12.3957C42.5546 12.6977 42.1147 13.1143 41.7851 13.6133H40.0834V9.07558H41.596V7.563H37.0583V9.07558H38.5709V13.6133H36.8692C36.5396 13.1143 36.0997 12.6977 35.5835 12.3957C34.502 11.647 33.2768 10.7999 33.2768 8.31929C33.2768 5.20338 36.4684 3.02527 39.3271 3.02527C42.1859 3.02527 45.3775 5.20338 45.3775 8.31929C45.3775 10.7999 44.1523 11.647 43.0708 12.3957Z" fill="white"/>
<path d="M38.5708 25.7139H40.0834V27.2264H38.5708V25.7139Z" fill="white"/>
<path d="M40.0834 28.739V35.5456C40.0834 35.7462 40.0038 35.9386 39.8619 36.0804C39.7201 36.2222 39.5277 36.3019 39.3272 36.3019H33.2769V34.7893H38.5709V28.739H40.0834Z" fill="white"/>
<path d="M8.31934 11.3445C8.91766 11.3445 9.50254 11.1671 10 10.8347C10.4975 10.5023 10.8853 10.0298 11.1142 9.47702C11.3432 8.92424 11.4031 8.31599 11.2864 7.72917C11.1696 7.14234 10.8815 6.60331 10.4584 6.18024C10.0354 5.75716 9.49634 5.46904 8.90952 5.35232C8.3227 5.23559 7.71444 5.2955 7.16167 5.52447C6.60889 5.75343 6.13643 6.14118 5.80402 6.63866C5.47161 7.13614 5.29419 7.72102 5.29419 8.31934C5.29419 9.12166 5.61291 9.89112 6.18024 10.4584C6.74756 11.0258 7.51702 11.3445 8.31934 11.3445ZM8.31934 6.80677C8.6185 6.80677 8.91094 6.89548 9.15968 7.06168C9.40843 7.22789 9.6023 7.46412 9.71678 7.74051C9.83126 8.01689 9.86122 8.32102 9.80285 8.61443C9.74449 8.90784 9.60043 9.17736 9.38889 9.3889C9.17736 9.60043 8.90784 9.74449 8.61443 9.80286C8.32102 9.86122 8.01689 9.83127 7.7405 9.71678C7.46412 9.6023 7.22788 9.40843 7.06168 9.15969C6.89548 8.91094 6.80677 8.6185 6.80677 8.31934C6.80677 7.91818 6.96613 7.53345 7.24979 7.24979C7.53345 6.96613 7.91818 6.80677 8.31934 6.80677V6.80677Z" fill="white"/>
<path d="M14.5511 6.07311L14.0444 5.94454L14.3167 5.49833C14.4032 5.35386 14.439 5.18465 14.4184 5.01751C14.3979 4.85037 14.3221 4.69488 14.2032 4.57566L12.0629 2.43537C11.9428 2.31804 11.7874 2.2434 11.6207 2.2229C11.454 2.20241 11.2852 2.2372 11.1402 2.32192L10.694 2.59419L10.5655 2.08747C10.5249 1.92351 10.4307 1.77783 10.2977 1.67366C10.1648 1.56949 10.0008 1.51283 9.83186 1.5127H6.80671C6.63781 1.51283 6.47381 1.56949 6.34086 1.67366C6.20791 1.77783 6.11365 1.92351 6.07311 2.08747L5.94454 2.59419L5.49833 2.32192C5.35334 2.2372 5.18453 2.20241 5.01785 2.2229C4.85117 2.2434 4.69582 2.31804 4.57566 2.43537L2.43537 4.57566C2.31644 4.69488 2.24069 4.85037 2.22014 5.01751C2.19959 5.18465 2.23541 5.35386 2.32192 5.49833L2.59419 5.94454L2.08747 6.07311C1.92351 6.11365 1.77783 6.20791 1.67366 6.34086C1.56949 6.47381 1.51283 6.63781 1.5127 6.80671V9.83186C1.51283 10.0008 1.56949 10.1648 1.67366 10.2977C1.77783 10.4307 1.92351 10.5249 2.08747 10.5655L2.59419 10.694L2.32192 11.1402C2.23541 11.2847 2.19959 11.4539 2.22014 11.6211C2.24069 11.7882 2.31644 11.9437 2.43537 12.0629L4.57566 14.2032C4.69582 14.3205 4.85117 14.3952 5.01785 14.4157C5.18453 14.4362 5.35334 14.4014 5.49833 14.3167L5.94454 14.0444L6.07311 14.5511C6.11365 14.7151 6.20791 14.8607 6.34086 14.9649C6.47381 15.0691 6.63781 15.1258 6.80671 15.1259H9.83186C10.0008 15.1258 10.1648 15.0691 10.2977 14.9649C10.4307 14.8607 10.5249 14.7151 10.5655 14.5511L10.694 14.0444L11.1402 14.3167C11.2852 14.4014 11.454 14.4362 11.6207 14.4157C11.7874 14.3952 11.9428 14.3205 12.0629 14.2032L14.2032 12.0629C14.3221 11.9437 14.3979 11.7882 14.4184 11.6211C14.439 11.4539 14.4032 11.2847 14.3167 11.1402L14.0444 10.694L14.5511 10.5655C14.7151 10.5249 14.8607 10.4307 14.9649 10.2977C15.0691 10.1648 15.1258 10.0008 15.1259 9.83186V6.80671C15.1258 6.63781 15.0691 6.47381 14.9649 6.34086C14.8607 6.20791 14.7151 6.11365 14.5511 6.07311V6.07311ZM13.6133 9.24196L12.6906 9.46885C12.5762 9.49822 12.4701 9.55383 12.3809 9.63128C12.2916 9.70873 12.2216 9.80588 12.1764 9.91506C12.1305 10.0246 12.1114 10.1434 12.1206 10.2618C12.1298 10.3801 12.1671 10.4946 12.2293 10.5957L12.7133 11.4125L11.4125 12.7133L10.5957 12.2217C10.4934 12.1624 10.3787 12.1275 10.2607 12.1196C10.1426 12.1118 10.0244 12.1312 9.91506 12.1764C9.80588 12.2216 9.70873 12.2916 9.63128 12.3809C9.55383 12.4701 9.49822 12.5762 9.46885 12.6906L9.24196 13.6133H7.39662L7.16973 12.6906C7.14035 12.5762 7.08474 12.4701 7.0073 12.3809C6.92985 12.2916 6.8327 12.2216 6.72352 12.1764C6.61419 12.1312 6.49593 12.1118 6.3779 12.1196C6.25986 12.1275 6.14522 12.1624 6.04286 12.2217L5.22607 12.7133L3.92525 11.4125L4.40928 10.5957C4.47149 10.4946 4.50873 10.3801 4.51794 10.2618C4.52714 10.1434 4.50804 10.0246 4.46222 9.91506C4.41699 9.80588 4.34698 9.70873 4.25772 9.63128C4.16846 9.55383 4.06241 9.49822 3.94794 9.46885L3.02527 9.24196V7.39662L3.94794 7.16973C4.06241 7.14035 4.16846 7.08474 4.25772 7.0073C4.34698 6.92985 4.41699 6.8327 4.46222 6.72352C4.50804 6.61401 4.52714 6.49516 4.51794 6.3768C4.50873 6.25844 4.47149 6.14397 4.40928 6.04286L3.92525 5.22607L5.22607 3.92525L6.04286 4.40928C6.14397 4.47149 6.25844 4.50873 6.3768 4.51794C6.49516 4.52714 6.61401 4.50804 6.72352 4.46222C6.8327 4.41699 6.92985 4.34698 7.0073 4.25772C7.08474 4.16846 7.14035 4.06241 7.16973 3.94794L7.39662 3.02527H9.24196L9.46885 3.94794C9.49822 4.06241 9.55383 4.16846 9.63128 4.25772C9.70873 4.34698 9.80588 4.41699 9.91506 4.46222C10.0246 4.50804 10.1434 4.52714 10.2618 4.51794C10.3801 4.50873 10.4946 4.47149 10.5957 4.40928L11.4125 3.92525L12.7133 5.22607L12.2293 6.04286C12.1671 6.14397 12.1298 6.25844 12.1206 6.3768C12.1114 6.49516 12.1305 6.61401 12.1764 6.72352C12.2216 6.8327 12.2916 6.92985 12.3809 7.0073C12.4701 7.08474 12.5762 7.14035 12.6906 7.16973L13.6133 7.39662V9.24196Z" fill="white"/>
<path d="M16.6384 7.56299H18.151V9.07556H16.6384V7.56299Z" fill="white"/>
<path d="M19.6636 7.56299H30.2516V9.07556H19.6636V7.56299Z" fill="white"/>
<path d="M7.56299 16.6384H9.07556V21.1762H7.56299V16.6384Z" fill="white"/>
</svg>
