<svg width="49" height="49" viewBox="0 0 49 49" fill="none" xmlns="http://www.w3.org/2000/svg">
<path d="M33.2464 44.4093L32.6263 42.2615C32.0528 40.283 31.7625 38.2333 31.7641 36.1734V34.0331C31.7656 32.0646 31.3624 30.1169 30.5795 28.3108C29.7967 26.5047 28.6508 24.8788 27.2133 23.5342C25.7757 22.1895 24.077 21.1547 22.2227 20.4941C20.3684 19.8334 18.3981 19.5611 16.4342 19.6938C12.7542 19.9911 9.32398 21.673 6.83542 24.4002C4.34687 27.1273 2.98522 30.6968 3.02516 34.3885V36.1355C3.02516 38.1634 2.74522 40.1816 2.19325 42.1329L1.54284 44.4169C1.5094 44.5283 1.50293 44.6461 1.52397 44.7605C1.54501 44.8749 1.59295 44.9826 1.66384 45.0749C1.73485 45.1682 1.82631 45.244 1.9312 45.2964C2.03609 45.3489 2.15161 45.3766 2.26887 45.3774H12.388C13.8714 46.3638 15.6132 46.89 17.3946 46.89C19.1761 46.89 20.9178 46.3638 22.4013 45.3774H32.5204C32.6377 45.3766 32.7532 45.3489 32.8581 45.2964C32.963 45.244 33.0544 45.1682 33.1254 45.0749C33.1964 44.9812 33.2443 44.8721 33.2653 44.7565C33.2863 44.6409 33.2798 44.522 33.2464 44.4093V44.4093ZM17.3946 45.3774C15.3898 45.3742 13.468 44.5764 12.0504 43.1587C10.6328 41.7411 9.83496 39.8193 9.83176 37.8145V29.934L14.4754 27.2794L24.9575 30.0777V37.8145C24.9543 39.8193 24.1565 41.7411 22.7389 43.1587C21.3212 44.5764 19.3995 45.3742 17.3946 45.3774V45.3774ZM24.1407 43.8648C25.4643 42.3991 26.2694 40.539 26.4323 38.5708H27.2264C27.8276 38.569 28.4036 38.3294 28.8287 37.9043C29.2538 37.4792 29.4935 36.9031 29.4952 36.3019V34.7894C29.4935 34.1882 29.2538 33.6121 28.8287 33.187C28.4036 32.7619 27.8276 32.5223 27.2264 32.5205H26.4701V29.4953C26.4708 29.3284 26.4163 29.166 26.3151 29.0333C26.2139 28.9006 26.0716 28.8051 25.9104 28.7617L14.5661 25.7366C14.3718 25.6888 14.1667 25.7158 13.9913 25.8122L8.69732 28.8374C8.58191 28.904 8.48615 28.9999 8.41975 29.1155C8.35335 29.231 8.31865 29.3621 8.31918 29.4953V32.5205H7.56289C6.9617 32.5223 6.38565 32.7619 5.96055 33.187C5.53544 33.6121 5.29582 34.1882 5.29403 34.7894V36.3019C5.29582 36.9031 5.53544 37.4792 5.96055 37.9043C6.38565 38.3294 6.9617 38.569 7.56289 38.5708H8.35699C8.51983 40.539 9.32499 42.3991 10.6485 43.8648H3.26718L3.64532 42.5413C4.23588 40.4572 4.53619 38.3017 4.53774 36.1355V34.3885C4.4984 31.0814 5.71419 27.8824 7.94006 25.4362C10.1659 22.99 13.2364 21.4785 16.5325 21.2064C18.2894 21.0883 20.0519 21.3324 21.7106 21.9236C23.3693 22.5147 24.889 23.4402 26.1752 24.6429C27.4615 25.8455 28.4871 27.2995 29.1883 28.9148C29.8894 30.5301 30.2514 32.2722 30.2515 34.0331V36.1734C30.2515 38.3765 30.5621 40.5686 31.1742 42.685L31.5145 43.8648H24.1407ZM26.4701 37.0582V34.0331H27.2264C27.427 34.0331 27.6193 34.1127 27.7612 34.2546C27.903 34.3964 27.9827 34.5888 27.9827 34.7894V36.3019C27.9827 36.5025 27.903 36.6949 27.7612 36.8367C27.6193 36.9785 27.427 37.0582 27.2264 37.0582H26.4701ZM8.31918 34.0331V37.0582H7.56289C7.36231 37.0582 7.16995 36.9785 7.02812 36.8367C6.88628 36.6949 6.8066 36.5025 6.8066 36.3019V34.7894C6.8066 34.5888 6.88628 34.3964 7.02812 34.2546C7.16995 34.1127 7.36231 34.0331 7.56289 34.0331H8.31918Z" fill="#FECC2F"/>
<path d="M46.8899 8.31929C46.8899 4.25046 42.9799 1.5127 39.327 1.5127C35.6741 1.5127 31.7641 4.25046 31.7641 8.31929C31.7144 9.39375 31.9647 10.4609 32.4869 11.4012C33.0092 12.3415 33.7828 13.1179 34.7212 13.6436C34.8573 13.7343 35.0086 13.8402 35.1447 13.9461C34.8556 14.1145 34.6079 14.3456 34.4199 14.6224C34.2318 14.8992 34.1082 15.2146 34.0582 15.5455C34.0081 15.8763 34.0328 16.2142 34.1306 16.5342C34.2283 16.8543 34.3965 17.1483 34.6229 17.3947C34.2448 17.8079 34.0345 18.3473 34.033 18.9073C34.0354 19.3752 34.1819 19.8309 34.4525 20.2125C34.7232 20.5941 35.1048 20.8831 35.5456 21.0401V21.9325C35.5474 22.5337 35.787 23.1097 36.2121 23.5348C36.6372 23.9599 37.2132 24.1995 37.8144 24.2013H40.8396C41.4408 24.1995 42.0168 23.9599 42.4419 23.5348C42.867 23.1097 43.1067 22.5337 43.1085 21.9325V21.0401C43.5492 20.8831 43.9308 20.5941 44.2015 20.2125C44.4721 19.8309 44.6186 19.3752 44.621 18.9073C44.6196 18.3473 44.4092 17.8079 44.0311 17.3947C44.2575 17.1483 44.4257 16.8543 44.5235 16.5342C44.6212 16.2142 44.6459 15.8763 44.5959 15.5455C44.5458 15.2146 44.4222 14.8992 44.2342 14.6224C44.0461 14.3456 43.7984 14.1145 43.5093 13.9461C43.6454 13.8402 43.7967 13.7343 43.9328 13.6436C44.8712 13.1179 45.6449 12.3415 46.1671 11.4012C46.6894 10.4609 46.9396 9.39375 46.8899 8.31929V8.31929ZM41.5959 21.9325C41.5959 22.1331 41.5162 22.3254 41.3744 22.4673C41.2325 22.6091 41.0402 22.6888 40.8396 22.6888H37.8144C37.6139 22.6888 37.4215 22.6091 37.2797 22.4673C37.1378 22.3254 37.0581 22.1331 37.0581 21.9325V21.1762H41.5959V21.9325ZM42.3522 19.6636H36.3019C36.1013 19.6636 35.9089 19.5839 35.7671 19.4421C35.6252 19.3003 35.5456 19.1079 35.5456 18.9073C35.5456 18.7067 35.6252 18.5144 35.7671 18.3725C35.9089 18.2307 36.1013 18.151 36.3019 18.151H42.3522C42.5527 18.151 42.7451 18.2307 42.8869 18.3725C43.0288 18.5144 43.1085 18.7067 43.1085 18.9073C43.1085 19.1079 43.0288 19.3003 42.8869 19.4421C42.7451 19.5839 42.5527 19.6636 42.3522 19.6636ZM42.3522 16.6385H36.3019C36.1013 16.6385 35.9089 16.5588 35.7671 16.4169C35.6252 16.2751 35.5456 16.0827 35.5456 15.8822C35.5456 15.6816 35.6252 15.4892 35.7671 15.3474C35.9089 15.2056 36.1013 15.1259 36.3019 15.1259H42.3522C42.5527 15.1259 42.7451 15.2056 42.8869 15.3474C43.0288 15.4892 43.1085 15.6816 43.1085 15.8822C43.1085 16.0827 43.0288 16.2751 42.8869 16.4169C42.7451 16.5588 42.5527 16.6385 42.3522 16.6385ZM43.0706 12.3957C42.5545 12.6977 42.1146 13.1143 41.785 13.6133H40.0833V9.07558H41.5959V7.563H37.0581V9.07558H38.5707V13.6133H36.8691C36.5394 13.1143 36.0996 12.6977 35.5834 12.3957C34.5019 11.647 33.2767 10.7999 33.2767 8.31929C33.2767 5.20338 36.4682 3.02527 39.327 3.02527C42.1858 3.02527 45.3773 5.20338 45.3773 8.31929C45.3773 10.7999 44.1521 11.647 43.0706 12.3957Z" fill="#FECC2F"/>
<path d="M38.5707 25.7139H40.0833V27.2264H38.5707V25.7139Z" fill="#FECC2F"/>
<path d="M40.0833 28.739V35.5456C40.0833 35.7462 40.0036 35.9386 39.8618 36.0804C39.7199 36.2222 39.5276 36.3019 39.327 36.3019H33.2767V34.7893H38.5707V28.739H40.0833Z" fill="#FECC2F"/>
<path d="M8.31917 11.3445C8.91749 11.3445 9.50237 11.1671 9.99986 10.8347C10.4973 10.5023 10.8851 10.0298 11.1141 9.47702C11.343 8.92424 11.4029 8.31599 11.2862 7.72917C11.1695 7.14234 10.8814 6.60331 10.4583 6.18024C10.0352 5.75716 9.49617 5.46904 8.90935 5.35232C8.32253 5.23559 7.71427 5.2955 7.1615 5.52447C6.60872 5.75343 6.13626 6.14118 5.80385 6.63866C5.47144 7.13614 5.29402 7.72102 5.29402 8.31934C5.29402 9.12166 5.61274 9.89112 6.18007 10.4584C6.74739 11.0258 7.51685 11.3445 8.31917 11.3445ZM8.31917 6.80677C8.61833 6.80677 8.91077 6.89548 9.15952 7.06168C9.40826 7.22789 9.60213 7.46412 9.71661 7.74051C9.8311 8.01689 9.86105 8.32102 9.80269 8.61443C9.74432 8.90784 9.60026 9.17736 9.38873 9.3889C9.17719 9.60043 8.90767 9.74449 8.61426 9.80286C8.32085 9.86122 8.01672 9.83127 7.74034 9.71678C7.46395 9.6023 7.22772 9.40843 7.06151 9.15969C6.89531 8.91094 6.8066 8.6185 6.8066 8.31934C6.8066 7.91818 6.96596 7.53345 7.24962 7.24979C7.53328 6.96613 7.91801 6.80677 8.31917 6.80677V6.80677Z" fill="#FECC2F"/>
<path d="M14.551 6.07311L14.0443 5.94454L14.3165 5.49833C14.403 5.35386 14.4389 5.18465 14.4183 5.01751C14.3978 4.85037 14.322 4.69488 14.2031 4.57566L12.0628 2.43537C11.9426 2.31804 11.7873 2.2434 11.6206 2.2229C11.4539 2.20241 11.2851 2.2372 11.1401 2.32192L10.6939 2.59419L10.5653 2.08747C10.5248 1.92351 10.4306 1.77783 10.2976 1.67366C10.1646 1.56949 10.0007 1.51283 9.83175 1.5127H6.8066C6.6377 1.51283 6.4737 1.56949 6.34074 1.67366C6.20779 1.77783 6.11353 1.92351 6.073 2.08747L5.94443 2.59419L5.49822 2.32192C5.35322 2.2372 5.18442 2.20241 5.01773 2.2229C4.85105 2.2434 4.6957 2.31804 4.57555 2.43537L2.43525 4.57566C2.31632 4.69488 2.24058 4.85037 2.22003 5.01751C2.19948 5.18465 2.2353 5.35386 2.32181 5.49833L2.59407 5.94454L2.08736 6.07311C1.92339 6.11365 1.77772 6.20791 1.67355 6.34086C1.56938 6.47381 1.51271 6.63781 1.51258 6.80671V9.83186C1.51271 10.0008 1.56938 10.1648 1.67355 10.2977C1.77772 10.4307 1.92339 10.5249 2.08736 10.5655L2.59407 10.694L2.32181 11.1402C2.2353 11.2847 2.19948 11.4539 2.22003 11.6211C2.24058 11.7882 2.31632 11.9437 2.43525 12.0629L4.57555 14.2032C4.6957 14.3205 4.85105 14.3952 5.01773 14.4157C5.18442 14.4362 5.35322 14.4014 5.49822 14.3167L5.94443 14.0444L6.073 14.5511C6.11353 14.7151 6.20779 14.8607 6.34074 14.9649C6.4737 15.0691 6.6377 15.1258 6.8066 15.1259H9.83175C10.0007 15.1258 10.1646 15.0691 10.2976 14.9649C10.4306 14.8607 10.5248 14.7151 10.5653 14.5511L10.6939 14.0444L11.1401 14.3167C11.2851 14.4014 11.4539 14.4362 11.6206 14.4157C11.7873 14.3952 11.9426 14.3205 12.0628 14.2032L14.2031 12.0629C14.322 11.9437 14.3978 11.7882 14.4183 11.6211C14.4389 11.4539 14.403 11.2847 14.3165 11.1402L14.0443 10.694L14.551 10.5655C14.715 10.5249 14.8606 10.4307 14.9648 10.2977C15.069 10.1648 15.1256 10.0008 15.1258 9.83186V6.80671C15.1256 6.63781 15.069 6.47381 14.9648 6.34086C14.8606 6.20791 14.715 6.11365 14.551 6.07311V6.07311ZM13.6132 9.24196L12.6905 9.46885C12.5761 9.49822 12.47 9.55383 12.3807 9.63128C12.2915 9.70873 12.2215 9.80588 12.1762 9.91506C12.1304 10.0246 12.1113 10.1434 12.1205 10.2618C12.1297 10.3801 12.167 10.4946 12.2292 10.5957L12.7132 11.4125L11.4124 12.7133L10.5956 12.2217C10.4932 12.1624 10.3786 12.1275 10.2606 12.1196C10.1425 12.1118 10.0243 12.1312 9.91494 12.1764C9.80576 12.2216 9.70861 12.2916 9.63117 12.3809C9.55372 12.4701 9.49811 12.5762 9.46873 12.6906L9.24185 13.6133H7.3965L7.16962 12.6906C7.14024 12.5762 7.08463 12.4701 7.00718 12.3809C6.92974 12.2916 6.83258 12.2216 6.72341 12.1764C6.61408 12.1312 6.49582 12.1118 6.37778 12.1196C6.25975 12.1275 6.14511 12.1624 6.04275 12.2217L5.22596 12.7133L3.92514 11.4125L4.40916 10.5957C4.47137 10.4946 4.50862 10.3801 4.51782 10.2618C4.52703 10.1434 4.50793 10.0246 4.4621 9.91506C4.41688 9.80588 4.34687 9.70873 4.25761 9.63128C4.16835 9.55383 4.06229 9.49822 3.94783 9.46885L3.02516 9.24196V7.39662L3.94783 7.16973C4.06229 7.14035 4.16835 7.08474 4.25761 7.0073C4.34687 6.92985 4.41688 6.8327 4.4621 6.72352C4.50793 6.61401 4.52703 6.49516 4.51782 6.3768C4.50862 6.25844 4.47137 6.14397 4.40916 6.04286L3.92514 5.22607L5.22596 3.92525L6.04275 4.40928C6.14386 4.47149 6.25833 4.50873 6.37668 4.51794C6.49504 4.52714 6.61389 4.50804 6.72341 4.46222C6.83258 4.41699 6.92974 4.34698 7.00718 4.25772C7.08463 4.16846 7.14024 4.06241 7.16962 3.94794L7.3965 3.02527H9.24185L9.46873 3.94794C9.49811 4.06241 9.55372 4.16846 9.63117 4.25772C9.70861 4.34698 9.80576 4.41699 9.91494 4.46222C10.0245 4.50804 10.1433 4.52714 10.2617 4.51794C10.38 4.50873 10.4945 4.47149 10.5956 4.40928L11.4124 3.92525L12.7132 5.22607L12.2292 6.04286C12.167 6.14397 12.1297 6.25844 12.1205 6.3768C12.1113 6.49516 12.1304 6.61401 12.1762 6.72352C12.2215 6.8327 12.2915 6.92985 12.3807 7.0073C12.47 7.08474 12.5761 7.14035 12.6905 7.16973L13.6132 7.39662V9.24196Z" fill="#FECC2F"/>
<path d="M16.6383 7.56299H18.1509V9.07556H16.6383V7.56299Z" fill="#FECC2F"/>
<path d="M19.6635 7.56299H30.2515V9.07556H19.6635V7.56299Z" fill="#FECC2F"/>
<path d="M7.56288 16.6384H9.07546V21.1762H7.56288V16.6384Z" fill="#FECC2F"/>
</svg>
