<svg xmlns="http://www.w3.org/2000/svg" width="97" height="82" fill="none"><path stroke="#000" stroke-width="2" d="M87.5 45.5l.46 4.88c.6 6.27-3.77 11.92-9.97 12.96l-3.54.58M25.7 63.92H9.5v9.23h20.8L38.5 63l-7.9-5.27-4.9 6.2zM1 56.36h8.54v24.36H1zm79.4-3.64L25.37 18.06"/><path stroke="#000" stroke-width="2" d="M28.26 55.96c-1.35-.92-1.72-2.75-.83-4.12l4.43-6.82 18.2 11.75-5.1 7c-.94 1.32-2.76 1.64-4.1.73l-12.6-8.54zm52.02-3.66L70.8 70.4 19.55 36.9c-2.76-1.8-3.55-5.5-1.76-8.28l14.3-22.2c1.8-2.78 5.5-3.58 8.3-1.8L94.6 39.6 80.5 52l-.14.14-.08.16z"/><path d="M69.4 46.05l2.63-.2.2 2.63-2.63.2z"/></svg>