<svg width="18" height="11" viewBox="0 0 18 11" fill="none" xmlns="http://www.w3.org/2000/svg">
<path fill-rule="evenodd" clip-rule="evenodd" d="M8.80669 10.2257H9.88262C9.88262 10.2257 10.2076 10.1901 10.3735 10.0112C10.5263 9.84697 10.5214 9.53858 10.5214 9.53858C10.5214 9.53858 10.5004 8.09489 11.1704 7.88229C11.8309 7.67287 12.6791 9.2776 13.5781 9.89462C14.2579 10.3616 14.7745 10.2592 14.7745 10.2592L17.1783 10.2257C17.1783 10.2257 18.4358 10.1483 17.8396 9.15957C17.7907 9.07869 17.4923 8.4282 16.0523 7.09153C14.5451 5.69256 14.7469 5.91884 16.5625 3.49892C17.6683 2.02517 18.1103 1.12542 17.9722 0.740064C17.8405 0.373031 17.0273 0.470043 17.0273 0.470043L14.3207 0.486904C14.3207 0.486904 14.1201 0.459535 13.9713 0.548483C13.8259 0.635721 13.7323 0.839031 13.7323 0.839031C13.7323 0.839031 13.3039 1.97947 12.7326 2.94935C11.5274 4.99588 11.0455 5.10389 10.8486 4.97682C10.3904 4.68065 10.5048 3.78702 10.5048 3.15217C10.5048 1.16892 10.8056 0.341998 9.91903 0.127936C9.62482 0.0568268 9.40831 0.00990921 8.65592 0.00233397C7.6902 -0.00768489 6.87281 0.005266 6.40999 0.232034C6.10209 0.382806 5.86457 0.718804 6.00923 0.738109C6.1881 0.762057 6.59326 0.847339 6.80805 1.13984C7.0854 1.51714 7.07563 2.36459 7.07563 2.36459C7.07563 2.36459 7.23495 4.69923 6.70346 4.98928C6.33863 5.18819 5.83818 4.78206 4.76372 2.9254C4.21317 1.97434 3.79751 0.923091 3.79751 0.923091C3.79751 0.923091 3.71736 0.726624 3.5744 0.621548C3.40091 0.494235 3.1585 0.453672 3.1585 0.453672L0.586584 0.470532C0.586584 0.470532 0.200492 0.481284 0.0587613 0.649161C-0.0673297 0.798467 0.0487424 1.10734 0.0487424 1.10734C0.0487424 1.10734 2.06229 5.81816 4.34219 8.19214C6.43271 10.3687 8.80669 10.2257 8.80669 10.2257Z" fill="black"/>
</svg>
