<svg width="49" height="49" fill="none" xmlns="http://www.w3.org/2000/svg"><path d="M45.733.816H3.267A3.271 3.271 0 0 0 0 4.084v26.949c0 .45.366.817.817.817h47.366a.817.817 0 0 0 .817-.817V4.083A3.271 3.271 0 0 0 45.733.817zm1.634 29.4H1.633V4.084c0-.902.734-1.634 1.635-1.634h42.465c.9 0 1.634.732 1.634 1.634v26.132z" fill="#FECC2F"/><path d="M48.183 30.217H.817a.817.817 0 0 0-.817.816v4.083a3.271 3.271 0 0 0 3.268 3.267h42.465A3.271 3.271 0 0 0 49 35.116v-4.083a.817.817 0 0 0-.817-.816zm-.816 4.899c0 .902-.734 1.634-1.634 1.634H3.267a1.636 1.636 0 0 1-1.635-1.634V31.85h45.734v3.266z" fill="#FECC2F"/><path d="M26.951 33.483h-4.9a.817.817 0 0 0 0 1.634h4.9a.817.817 0 0 0 0-1.634zm17.965-29.4H4.081a.817.817 0 0 0-.816.817v26.133c0 .451.365.817.816.817h40.834c.45 0 .816-.366.816-.817V4.9a.817.817 0 0 0-.816-.817zm-.817 26.134h-39.2v-24.5h39.2v24.5zm-8.982 13.066H13.884c-1.351 0-2.45 1.1-2.45 2.45a2.453 2.453 0 0 0 2.45 2.45h21.233c1.35 0 2.45-1.099 2.45-2.45 0-1.35-1.1-2.45-2.45-2.45zm0 3.267H13.884a.817.817 0 0 1 0-1.633h21.233a.817.817 0 0 1 0 1.633z" fill="#FECC2F"/><path d="M33.483 43.283c-2.71 0-4.084-1.923-4.084-5.716a.817.817 0 0 0-.817-.817h-8.166a.817.817 0 0 0-.817.817c0 3.793-1.373 5.716-4.083 5.716a.817.817 0 0 0 0 1.633h17.966a.817.817 0 0 0 0-1.633zm-13.99 0c1.006-1.114 1.598-2.772 1.717-4.9h6.579c.118 2.128.71 3.786 1.716 4.9H19.494zm19.532-18.404l-1.972-1.972 1.097-1.096a.818.818 0 0 0-.342-1.36L29.64 18a.816.816 0 0 0-1.016 1.017l2.45 8.166a.816.816 0 0 0 1.36.343l1.154-1.155 1.971 1.972a.815.815 0 0 0 1.155 0l2.31-2.31a.816.816 0 0 0 0-1.155zm-2.887 1.733l-1.795-1.796a1.065 1.065 0 0 0-1.508 0l-.59.589L30.626 20l5.403 1.62-.632.633a.92.92 0 0 0-.27.653c0 .248.097.481.272.654l1.894 1.895-1.154 1.156zM34.3 7.35H11.434a.817.817 0 0 0-.817.817v4.083c0 .45.366.817.817.817H34.3c.45 0 .816-.366.816-.817V8.167a.817.817 0 0 0-.816-.817zm-.816 4.084H12.25v-2.45h21.233v2.45zm-12.251 4.9h-6.534a.817.817 0 0 0-.816.816v3.267c0 .45.366.816.816.816h6.534c.45 0 .816-.366.816-.816V17.15a.817.817 0 0 0-.816-.816zm-.817 3.266h-4.9v-1.633h4.9V19.6z" fill="#FECC2F"/><path d="M34.3 7.35H11.434a.817.817 0 0 0-.817.817v15.516c0 .451.366.817.817.817h19.441a.817.817 0 0 0 .782-1.052l-1.033-3.447 3.442 1.033a.814.814 0 0 0 1.051-.782V8.167a.817.817 0 0 0-.816-.817zm-.816 11.804l-3.844-1.153a.815.815 0 0 0-1.017 1.018l1.155 3.848H12.25V8.983h21.233v10.171z" fill="#FECC2F"/></svg>