<svg width="1920" height="554" viewBox="0 0 1920 554" fill="none" xmlns="http://www.w3.org/2000/svg">
<path d="M1922.31 1.07612L1797.56 38.8889L1613.56 158.675L1436.65 246.761L1194.07 202.927L977.217 255.599L718.48 212.075L471.273 327.688L204.16 288.945L65.7128 335.489L-41.7155 313.69" stroke="#FECC2F"/>
<path d="M1924.64 41.8334L1798.15 69.6714L1614.15 189.458L1437.24 277.544L1194.66 233.709L977.809 286.381L719.072 242.857L471.865 358.471L204.752 319.727L66.3048 366.271L-41.1235 344.473" stroke="#FECC2F"/>
<path d="M1927.08 88.7471L1798.74 100.454L1614.74 220.24L1437.83 308.326L1195.26 264.492L978.401 317.164L719.665 273.64L472.457 389.253L205.344 350.51L66.897 397.054L-40.5313 375.255" stroke="#FECC2F"/>
<path d="M1927.85 128.765L1799.33 131.237L1615.33 251.023L1438.42 339.109L1195.85 295.275L978.993 347.946L720.257 304.423L473.05 420.036L205.937 381.292L67.4892 427.837L-39.9391 406.038" stroke="#FECC2F"/>
<path d="M1927.18 174.198L1799.92 162.019L1615.93 281.805L1439.01 369.892L1196.44 326.057L979.585 378.729L720.849 335.205L473.641 450.818L206.528 412.075L68.081 458.619L-39.3472 436.82" stroke="#FECC2F"/>
<path d="M1929.52 215.725L1800.52 192.802L1616.52 312.588L1439.61 400.674L1197.03 356.84L980.177 409.511L721.441 365.988L474.233 481.601L207.121 442.857L68.6732 489.402L-38.7551 467.603" stroke="#FECC2F"/>
<path d="M1930.96 250.341L1801.11 223.584L1617.11 343.371L1440.2 431.457L1197.62 387.622L980.769 440.294L722.033 396.77L474.826 512.384L207.713 473.64L69.2653 520.184L-38.163 498.385" stroke="#FECC2F"/>
<path d="M1929.46 292.711L1801.7 254.367L1617.7 374.153L1440.79 462.239L1198.22 418.405L981.361 471.076L722.625 427.553L475.418 543.166L208.305 504.422L69.8574 550.967L-37.5709 529.168" stroke="#FECC2F"/>
<g filter="url(#filter0_d)">
<ellipse cx="1435.03" cy="242.943" rx="16.9335" ry="16.9335" transform="rotate(-1.10194 1435.03 242.943)" fill="#FECC2F"/>
</g>
<g filter="url(#filter1_d)">
<ellipse cx="1339.85" cy="417.22" rx="16.9335" ry="16.9336" transform="rotate(-1.10194 1339.85 417.22)" fill="#FECC2F"/>
</g>
<g filter="url(#filter2_d)">
<ellipse cx="1198.72" cy="204.377" rx="16.9336" ry="16.9335" transform="rotate(-1.10194 1198.72 204.377)" fill="#FECC2F"/>
</g>
<g filter="url(#filter3_d)">
<circle cx="980.103" cy="285.567" r="16.9335" transform="rotate(-1.10194 980.103 285.567)" fill="#FECC2F"/>
</g>
<g filter="url(#filter4_d)">
<ellipse cx="1106.1" cy="352.43" rx="16.9336" ry="16.9335" transform="rotate(-1.10194 1106.1 352.43)" fill="#FECC2F"/>
</g>
<g filter="url(#filter5_d)">
<ellipse cx="1568.02" cy="272.719" rx="16.9335" ry="16.9335" transform="rotate(-1.10194 1568.02 272.719)" fill="#FECC2F"/>
</g>
<g filter="url(#filter6_d)">
<ellipse cx="1864.92" cy="19.1167" rx="16.9335" ry="16.9335" transform="rotate(-1.10194 1864.92 19.1167)" fill="#FECC2F"/>
</g>
<g filter="url(#filter7_d)">
<ellipse cx="574.365" cy="404.23" rx="16.9336" ry="16.9335" transform="rotate(-1.10194 574.365 404.23)" fill="#FECC2F"/>
</g>
<g filter="url(#filter8_d)">
<circle cx="480.36" cy="319.815" r="16.9335" transform="rotate(-1.10194 480.36 319.815)" fill="#FECC2F"/>
</g>
<g filter="url(#filter9_d)">
<ellipse cx="61.8651" cy="335.563" rx="16.9335" ry="16.9335" transform="rotate(-1.10194 61.8651 335.563)" fill="#FECC2F"/>
</g>
<g filter="url(#filter10_d)">
<ellipse cx="216.281" cy="438.832" rx="16.9335" ry="16.9335" transform="rotate(-1.10194 216.281 438.832)" fill="#FECC2F"/>
</g>
<defs>
<filter id="filter0_d" x="1415.1" y="224.01" width="39.8671" height="39.8672" filterUnits="userSpaceOnUse" color-interpolation-filters="sRGB">
<feFlood flood-opacity="0" result="BackgroundImageFix"/>
<feColorMatrix in="SourceAlpha" type="matrix" values="0 0 0 0 0 0 0 0 0 0 0 0 0 0 0 0 0 0 127 0"/>
<feOffset dy="1"/>
<feGaussianBlur stdDeviation="1.5"/>
<feColorMatrix type="matrix" values="0 0 0 0 0.154167 0 0 0 0 0.143568 0 0 0 0 0.0481771 0 0 0 0.25 0"/>
<feBlend mode="normal" in2="BackgroundImageFix" result="effect1_dropShadow"/>
<feBlend mode="normal" in="SourceGraphic" in2="effect1_dropShadow" result="shape"/>
</filter>
<filter id="filter1_d" x="1319.91" y="398.287" width="39.8671" height="39.8673" filterUnits="userSpaceOnUse" color-interpolation-filters="sRGB">
<feFlood flood-opacity="0" result="BackgroundImageFix"/>
<feColorMatrix in="SourceAlpha" type="matrix" values="0 0 0 0 0 0 0 0 0 0 0 0 0 0 0 0 0 0 127 0"/>
<feOffset dy="1"/>
<feGaussianBlur stdDeviation="1.5"/>
<feColorMatrix type="matrix" values="0 0 0 0 0.154167 0 0 0 0 0.143568 0 0 0 0 0.0481771 0 0 0 0.25 0"/>
<feBlend mode="normal" in2="BackgroundImageFix" result="effect1_dropShadow"/>
<feBlend mode="normal" in="SourceGraphic" in2="effect1_dropShadow" result="shape"/>
</filter>
<filter id="filter2_d" x="1178.78" y="185.444" width="39.8673" height="39.8672" filterUnits="userSpaceOnUse" color-interpolation-filters="sRGB">
<feFlood flood-opacity="0" result="BackgroundImageFix"/>
<feColorMatrix in="SourceAlpha" type="matrix" values="0 0 0 0 0 0 0 0 0 0 0 0 0 0 0 0 0 0 127 0"/>
<feOffset dy="1"/>
<feGaussianBlur stdDeviation="1.5"/>
<feColorMatrix type="matrix" values="0 0 0 0 0.154167 0 0 0 0 0.143568 0 0 0 0 0.0481771 0 0 0 0.25 0"/>
<feBlend mode="normal" in2="BackgroundImageFix" result="effect1_dropShadow"/>
<feBlend mode="normal" in="SourceGraphic" in2="effect1_dropShadow" result="shape"/>
</filter>
<filter id="filter3_d" x="960.169" y="266.633" width="39.8672" height="39.8672" filterUnits="userSpaceOnUse" color-interpolation-filters="sRGB">
<feFlood flood-opacity="0" result="BackgroundImageFix"/>
<feColorMatrix in="SourceAlpha" type="matrix" values="0 0 0 0 0 0 0 0 0 0 0 0 0 0 0 0 0 0 127 0"/>
<feOffset dy="1"/>
<feGaussianBlur stdDeviation="1.5"/>
<feColorMatrix type="matrix" values="0 0 0 0 0.154167 0 0 0 0 0.143568 0 0 0 0 0.0481771 0 0 0 0.25 0"/>
<feBlend mode="normal" in2="BackgroundImageFix" result="effect1_dropShadow"/>
<feBlend mode="normal" in="SourceGraphic" in2="effect1_dropShadow" result="shape"/>
</filter>
<filter id="filter4_d" x="1086.17" y="333.496" width="39.8673" height="39.8672" filterUnits="userSpaceOnUse" color-interpolation-filters="sRGB">
<feFlood flood-opacity="0" result="BackgroundImageFix"/>
<feColorMatrix in="SourceAlpha" type="matrix" values="0 0 0 0 0 0 0 0 0 0 0 0 0 0 0 0 0 0 127 0"/>
<feOffset dy="1"/>
<feGaussianBlur stdDeviation="1.5"/>
<feColorMatrix type="matrix" values="0 0 0 0 0.154167 0 0 0 0 0.143568 0 0 0 0 0.0481771 0 0 0 0.25 0"/>
<feBlend mode="normal" in2="BackgroundImageFix" result="effect1_dropShadow"/>
<feBlend mode="normal" in="SourceGraphic" in2="effect1_dropShadow" result="shape"/>
</filter>
<filter id="filter5_d" x="1548.09" y="253.785" width="39.8672" height="39.8672" filterUnits="userSpaceOnUse" color-interpolation-filters="sRGB">
<feFlood flood-opacity="0" result="BackgroundImageFix"/>
<feColorMatrix in="SourceAlpha" type="matrix" values="0 0 0 0 0 0 0 0 0 0 0 0 0 0 0 0 0 0 127 0"/>
<feOffset dy="1"/>
<feGaussianBlur stdDeviation="1.5"/>
<feColorMatrix type="matrix" values="0 0 0 0 0.154167 0 0 0 0 0.143568 0 0 0 0 0.0481771 0 0 0 0.25 0"/>
<feBlend mode="normal" in2="BackgroundImageFix" result="effect1_dropShadow"/>
<feBlend mode="normal" in="SourceGraphic" in2="effect1_dropShadow" result="shape"/>
</filter>
<filter id="filter6_d" x="1844.99" y="0.183105" width="39.8672" height="39.8672" filterUnits="userSpaceOnUse" color-interpolation-filters="sRGB">
<feFlood flood-opacity="0" result="BackgroundImageFix"/>
<feColorMatrix in="SourceAlpha" type="matrix" values="0 0 0 0 0 0 0 0 0 0 0 0 0 0 0 0 0 0 127 0"/>
<feOffset dy="1"/>
<feGaussianBlur stdDeviation="1.5"/>
<feColorMatrix type="matrix" values="0 0 0 0 0.154167 0 0 0 0 0.143568 0 0 0 0 0.0481771 0 0 0 0.25 0"/>
<feBlend mode="normal" in2="BackgroundImageFix" result="effect1_dropShadow"/>
<feBlend mode="normal" in="SourceGraphic" in2="effect1_dropShadow" result="shape"/>
</filter>
<filter id="filter7_d" x="554.432" y="385.296" width="39.8673" height="39.8672" filterUnits="userSpaceOnUse" color-interpolation-filters="sRGB">
<feFlood flood-opacity="0" result="BackgroundImageFix"/>
<feColorMatrix in="SourceAlpha" type="matrix" values="0 0 0 0 0 0 0 0 0 0 0 0 0 0 0 0 0 0 127 0"/>
<feOffset dy="1"/>
<feGaussianBlur stdDeviation="1.5"/>
<feColorMatrix type="matrix" values="0 0 0 0 0.154167 0 0 0 0 0.143568 0 0 0 0 0.0481771 0 0 0 0.25 0"/>
<feBlend mode="normal" in2="BackgroundImageFix" result="effect1_dropShadow"/>
<feBlend mode="normal" in="SourceGraphic" in2="effect1_dropShadow" result="shape"/>
</filter>
<filter id="filter8_d" x="460.426" y="300.881" width="39.8672" height="39.8672" filterUnits="userSpaceOnUse" color-interpolation-filters="sRGB">
<feFlood flood-opacity="0" result="BackgroundImageFix"/>
<feColorMatrix in="SourceAlpha" type="matrix" values="0 0 0 0 0 0 0 0 0 0 0 0 0 0 0 0 0 0 127 0"/>
<feOffset dy="1"/>
<feGaussianBlur stdDeviation="1.5"/>
<feColorMatrix type="matrix" values="0 0 0 0 0.154167 0 0 0 0 0.143568 0 0 0 0 0.0481771 0 0 0 0.25 0"/>
<feBlend mode="normal" in2="BackgroundImageFix" result="effect1_dropShadow"/>
<feBlend mode="normal" in="SourceGraphic" in2="effect1_dropShadow" result="shape"/>
</filter>
<filter id="filter9_d" x="41.9315" y="316.629" width="39.8672" height="39.8672" filterUnits="userSpaceOnUse" color-interpolation-filters="sRGB">
<feFlood flood-opacity="0" result="BackgroundImageFix"/>
<feColorMatrix in="SourceAlpha" type="matrix" values="0 0 0 0 0 0 0 0 0 0 0 0 0 0 0 0 0 0 127 0"/>
<feOffset dy="1"/>
<feGaussianBlur stdDeviation="1.5"/>
<feColorMatrix type="matrix" values="0 0 0 0 0.154167 0 0 0 0 0.143568 0 0 0 0 0.0481771 0 0 0 0.25 0"/>
<feBlend mode="normal" in2="BackgroundImageFix" result="effect1_dropShadow"/>
<feBlend mode="normal" in="SourceGraphic" in2="effect1_dropShadow" result="shape"/>
</filter>
<filter id="filter10_d" x="196.348" y="419.898" width="39.8672" height="39.8672" filterUnits="userSpaceOnUse" color-interpolation-filters="sRGB">
<feFlood flood-opacity="0" result="BackgroundImageFix"/>
<feColorMatrix in="SourceAlpha" type="matrix" values="0 0 0 0 0 0 0 0 0 0 0 0 0 0 0 0 0 0 127 0"/>
<feOffset dy="1"/>
<feGaussianBlur stdDeviation="1.5"/>
<feColorMatrix type="matrix" values="0 0 0 0 0.154167 0 0 0 0 0.143568 0 0 0 0 0.0481771 0 0 0 0.25 0"/>
<feBlend mode="normal" in2="BackgroundImageFix" result="effect1_dropShadow"/>
<feBlend mode="normal" in="SourceGraphic" in2="effect1_dropShadow" result="shape"/>
</filter>
</defs>
</svg>
