<svg width="954" height="339" viewBox="0 0 954 339" fill="none" xmlns="http://www.w3.org/2000/svg">
<line x1="0.5" y1="0.5" x2="953.5" y2="0.5" stroke="#FECC2F" stroke-linecap="square" stroke-linejoin="round"/>
<line x1="1" y1="14.4116" x2="953" y2="14.4116" stroke="#FECC2F" stroke-width="2" stroke-linecap="square" stroke-linejoin="round"/>
<line x1="1.5" y1="28.3232" x2="952.5" y2="28.3232" stroke="#FECC2F" stroke-width="3" stroke-linecap="square" stroke-linejoin="round"/>
<line x1="2" y1="42.2349" x2="952" y2="42.2349" stroke="#FECC2F" stroke-width="4" stroke-linecap="square" stroke-linejoin="round"/>
<line x1="2.5" y1="56.1465" x2="951.5" y2="56.1465" stroke="#FECC2F" stroke-width="5" stroke-linecap="square" stroke-linejoin="round"/>
<line x1="3" y1="70.0581" x2="951" y2="70.0581" stroke="#FECC2F" stroke-width="6" stroke-linecap="square" stroke-linejoin="round"/>
<line x1="3.5" y1="83.9697" x2="950.5" y2="83.9697" stroke="#FECC2F" stroke-width="7" stroke-linecap="square" stroke-linejoin="round"/>
<line x1="4" y1="97.8813" x2="950" y2="97.8813" stroke="#FECC2F" stroke-width="8" stroke-linecap="square" stroke-linejoin="round"/>
<line x1="4.5" y1="111.793" x2="949.5" y2="111.793" stroke="#FECC2F" stroke-width="9" stroke-linecap="square" stroke-linejoin="round"/>
<line x1="5" y1="125.705" x2="949" y2="125.705" stroke="#FECC2F" stroke-width="10" stroke-linecap="square" stroke-linejoin="round"/>
<line x1="5.5" y1="139.616" x2="948.5" y2="139.616" stroke="#FECC2F" stroke-width="11" stroke-linecap="square" stroke-linejoin="round"/>
<line x1="6" y1="153.528" x2="948" y2="153.528" stroke="#FECC2F" stroke-width="12" stroke-linecap="square" stroke-linejoin="round"/>
<line x1="6.5" y1="167.439" x2="947.5" y2="167.439" stroke="#FECC2F" stroke-width="13" stroke-linecap="square" stroke-linejoin="round"/>
<line x1="953.5" y1="338.379" x2="0.500183" y2="338.379" stroke="#FECC2F" stroke-linecap="square" stroke-linejoin="round"/>
<line x1="953" y1="324.467" x2="1.00018" y2="324.467" stroke="#FECC2F" stroke-width="2" stroke-linecap="square" stroke-linejoin="round"/>
<line x1="952.5" y1="310.556" x2="1.50018" y2="310.556" stroke="#FECC2F" stroke-width="3" stroke-linecap="square" stroke-linejoin="round"/>
<line x1="952" y1="296.644" x2="2.00018" y2="296.644" stroke="#FECC2F" stroke-width="4" stroke-linecap="square" stroke-linejoin="round"/>
<line x1="951.5" y1="282.732" x2="2.50018" y2="282.732" stroke="#FECC2F" stroke-width="5" stroke-linecap="square" stroke-linejoin="round"/>
<line x1="951" y1="268.821" x2="3.00018" y2="268.821" stroke="#FECC2F" stroke-width="6" stroke-linecap="square" stroke-linejoin="round"/>
<line x1="950.5" y1="254.909" x2="3.50018" y2="254.909" stroke="#FECC2F" stroke-width="7" stroke-linecap="square" stroke-linejoin="round"/>
<line x1="950" y1="240.998" x2="4.00018" y2="240.998" stroke="#FECC2F" stroke-width="8" stroke-linecap="square" stroke-linejoin="round"/>
<line x1="949.5" y1="227.086" x2="4.50018" y2="227.086" stroke="#FECC2F" stroke-width="9" stroke-linecap="square" stroke-linejoin="round"/>
<line x1="949" y1="213.174" x2="5.00018" y2="213.174" stroke="#FECC2F" stroke-width="10" stroke-linecap="square" stroke-linejoin="round"/>
<line x1="948.5" y1="199.263" x2="5.50018" y2="199.263" stroke="#FECC2F" stroke-width="11" stroke-linecap="square" stroke-linejoin="round"/>
<line x1="948" y1="185.351" x2="6.00018" y2="185.351" stroke="#FECC2F" stroke-width="12" stroke-linecap="square" stroke-linejoin="round"/>
<line x1="947.5" y1="171.439" x2="6.50018" y2="171.439" stroke="#FECC2F" stroke-width="13" stroke-linecap="square" stroke-linejoin="round"/>
</svg>
