<svg width="954" height="307" viewBox="0 0 954 307" fill="none" xmlns="http://www.w3.org/2000/svg">
<line x1="238.943" y1="306" x2="238.943" y2="1.00006" stroke="#FECC2F" stroke-linecap="square" stroke-linejoin="round"/>
<line x1="258.268" y1="305.5" x2="258.268" y2="1.50006" stroke="#FECC2F" stroke-width="2" stroke-linecap="square" stroke-linejoin="round"/>
<line x1="277.593" y1="305" x2="277.593" y2="2.00006" stroke="#FECC2F" stroke-width="3" stroke-linecap="square" stroke-linejoin="round"/>
<line x1="296.918" y1="304.5" x2="296.918" y2="2.50006" stroke="#FECC2F" stroke-width="4" stroke-linecap="square" stroke-linejoin="round"/>
<line x1="316.243" y1="304" x2="316.243" y2="3.00006" stroke="#FECC2F" stroke-width="5" stroke-linecap="square" stroke-linejoin="round"/>
<line x1="335.568" y1="303.5" x2="335.568" y2="3.50006" stroke="#FECC2F" stroke-width="6" stroke-linecap="square" stroke-linejoin="round"/>
<line x1="354.893" y1="303" x2="354.893" y2="4.00006" stroke="#FECC2F" stroke-width="7" stroke-linecap="square" stroke-linejoin="round"/>
<line x1="374.219" y1="302.5" x2="374.218" y2="4.50006" stroke="#FECC2F" stroke-width="8" stroke-linecap="square" stroke-linejoin="round"/>
<line x1="393.544" y1="302" x2="393.544" y2="5.00006" stroke="#FECC2F" stroke-width="9" stroke-linecap="square" stroke-linejoin="round"/>
<line x1="412.869" y1="301.5" x2="412.869" y2="5.50006" stroke="#FECC2F" stroke-width="10" stroke-linecap="square" stroke-linejoin="round"/>
<line x1="432.194" y1="301" x2="432.194" y2="6.00006" stroke="#FECC2F" stroke-width="11" stroke-linecap="square" stroke-linejoin="round"/>
<line x1="451.519" y1="300.5" x2="451.519" y2="6.50006" stroke="#FECC2F" stroke-width="12" stroke-linecap="square" stroke-linejoin="round"/>
<line x1="470.844" y1="300" x2="470.844" y2="7.00006" stroke="#FECC2F" stroke-width="13" stroke-linecap="square" stroke-linejoin="round"/>
<line x1="238.401" y1="1" x2="238.401" y2="306" stroke="#FECC2F" stroke-linecap="square" stroke-linejoin="round"/>
<line x1="219.076" y1="1.5" x2="219.076" y2="305.5" stroke="#FECC2F" stroke-width="2" stroke-linecap="square" stroke-linejoin="round"/>
<line x1="199.751" y1="2" x2="199.751" y2="305" stroke="#FECC2F" stroke-width="3" stroke-linecap="square" stroke-linejoin="round"/>
<line x1="180.426" y1="2.5" x2="180.426" y2="304.5" stroke="#FECC2F" stroke-width="4" stroke-linecap="square" stroke-linejoin="round"/>
<line x1="161.101" y1="3" x2="161.101" y2="304" stroke="#FECC2F" stroke-width="5" stroke-linecap="square" stroke-linejoin="round"/>
<line x1="141.776" y1="3.5" x2="141.776" y2="303.5" stroke="#FECC2F" stroke-width="6" stroke-linecap="square" stroke-linejoin="round"/>
<line x1="122.451" y1="4" x2="122.451" y2="303" stroke="#FECC2F" stroke-width="7" stroke-linecap="square" stroke-linejoin="round"/>
<line x1="103.125" y1="4.5" x2="103.125" y2="302.5" stroke="#FECC2F" stroke-width="8" stroke-linecap="square" stroke-linejoin="round"/>
<line x1="83.8003" y1="5" x2="83.8003" y2="302" stroke="#FECC2F" stroke-width="9" stroke-linecap="square" stroke-linejoin="round"/>
<line x1="64.4753" y1="5.5" x2="64.4753" y2="301.5" stroke="#FECC2F" stroke-width="10" stroke-linecap="square" stroke-linejoin="round"/>
<line x1="45.1501" y1="6" x2="45.1501" y2="301" stroke="#FECC2F" stroke-width="11" stroke-linecap="square" stroke-linejoin="round"/>
<line x1="25.8252" y1="6.5" x2="25.8252" y2="300.5" stroke="#FECC2F" stroke-width="12" stroke-linecap="square" stroke-linejoin="round"/>
<line x1="6.5" y1="7" x2="6.49998" y2="300" stroke="#FECC2F" stroke-width="13" stroke-linecap="square" stroke-linejoin="round"/>
<line x1="715.599" y1="306" x2="715.599" y2="1.00006" stroke="#FECC2F" stroke-linecap="square" stroke-linejoin="round"/>
<line x1="734.924" y1="305.5" x2="734.924" y2="1.50006" stroke="#FECC2F" stroke-width="2" stroke-linecap="square" stroke-linejoin="round"/>
<line x1="754.25" y1="305" x2="754.25" y2="2.00006" stroke="#FECC2F" stroke-width="3" stroke-linecap="square" stroke-linejoin="round"/>
<line x1="773.574" y1="304.5" x2="773.574" y2="2.50006" stroke="#FECC2F" stroke-width="4" stroke-linecap="square" stroke-linejoin="round"/>
<line x1="792.899" y1="304" x2="792.899" y2="3.00006" stroke="#FECC2F" stroke-width="5" stroke-linecap="square" stroke-linejoin="round"/>
<line x1="812.225" y1="303.5" x2="812.225" y2="3.50006" stroke="#FECC2F" stroke-width="6" stroke-linecap="square" stroke-linejoin="round"/>
<line x1="831.55" y1="303" x2="831.55" y2="4.00006" stroke="#FECC2F" stroke-width="7" stroke-linecap="square" stroke-linejoin="round"/>
<line x1="850.875" y1="302.5" x2="850.875" y2="4.50006" stroke="#FECC2F" stroke-width="8" stroke-linecap="square" stroke-linejoin="round"/>
<line x1="870.2" y1="302" x2="870.2" y2="5.00006" stroke="#FECC2F" stroke-width="9" stroke-linecap="square" stroke-linejoin="round"/>
<line x1="889.525" y1="301.5" x2="889.525" y2="5.50006" stroke="#FECC2F" stroke-width="10" stroke-linecap="square" stroke-linejoin="round"/>
<line x1="908.85" y1="301" x2="908.85" y2="6.00006" stroke="#FECC2F" stroke-width="11" stroke-linecap="square" stroke-linejoin="round"/>
<line x1="928.175" y1="300.5" x2="928.175" y2="6.50006" stroke="#FECC2F" stroke-width="12" stroke-linecap="square" stroke-linejoin="round"/>
<line x1="947.5" y1="300" x2="947.5" y2="7.00006" stroke="#FECC2F" stroke-width="13" stroke-linecap="square" stroke-linejoin="round"/>
<line x1="715.057" y1="1" x2="715.057" y2="306" stroke="#FECC2F" stroke-linecap="square" stroke-linejoin="round"/>
<line x1="695.732" y1="1.5" x2="695.732" y2="305.5" stroke="#FECC2F" stroke-width="2" stroke-linecap="square" stroke-linejoin="round"/>
<line x1="676.407" y1="2" x2="676.407" y2="305" stroke="#FECC2F" stroke-width="3" stroke-linecap="square" stroke-linejoin="round"/>
<line x1="657.082" y1="2.5" x2="657.082" y2="304.5" stroke="#FECC2F" stroke-width="4" stroke-linecap="square" stroke-linejoin="round"/>
<line x1="637.757" y1="3" x2="637.757" y2="304" stroke="#FECC2F" stroke-width="5" stroke-linecap="square" stroke-linejoin="round"/>
<line x1="618.432" y1="3.5" x2="618.432" y2="303.5" stroke="#FECC2F" stroke-width="6" stroke-linecap="square" stroke-linejoin="round"/>
<line x1="599.107" y1="4" x2="599.107" y2="303" stroke="#FECC2F" stroke-width="7" stroke-linecap="square" stroke-linejoin="round"/>
<line x1="579.782" y1="4.5" x2="579.782" y2="302.5" stroke="#FECC2F" stroke-width="8" stroke-linecap="square" stroke-linejoin="round"/>
<line x1="560.457" y1="5" x2="560.457" y2="302" stroke="#FECC2F" stroke-width="9" stroke-linecap="square" stroke-linejoin="round"/>
<line x1="541.132" y1="5.5" x2="541.132" y2="301.5" stroke="#FECC2F" stroke-width="10" stroke-linecap="square" stroke-linejoin="round"/>
<line x1="521.806" y1="6" x2="521.806" y2="301" stroke="#FECC2F" stroke-width="11" stroke-linecap="square" stroke-linejoin="round"/>
<line x1="502.481" y1="6.5" x2="502.481" y2="300.5" stroke="#FECC2F" stroke-width="12" stroke-linecap="square" stroke-linejoin="round"/>
<line x1="483.156" y1="7" x2="483.156" y2="300" stroke="#FECC2F" stroke-width="13" stroke-linecap="square" stroke-linejoin="round"/>
</svg>
