<svg width="954" height="347" viewBox="0 0 954 347" fill="none" xmlns="http://www.w3.org/2000/svg">
<line x1="0.5" y1="173.561" x2="953.5" y2="173.561" stroke="#FECC2F" stroke-linecap="square" stroke-linejoin="round"/>
<line x1="1" y1="187.472" x2="953" y2="187.472" stroke="#FECC2F" stroke-width="2" stroke-linecap="square" stroke-linejoin="round"/>
<line x1="1.5" y1="201.384" x2="952.5" y2="201.384" stroke="#FECC2F" stroke-width="3" stroke-linecap="square" stroke-linejoin="round"/>
<line x1="2" y1="215.295" x2="952" y2="215.295" stroke="#FECC2F" stroke-width="4" stroke-linecap="square" stroke-linejoin="round"/>
<line x1="2.5" y1="229.207" x2="951.5" y2="229.207" stroke="#FECC2F" stroke-width="5" stroke-linecap="square" stroke-linejoin="round"/>
<line x1="3" y1="243.119" x2="951" y2="243.119" stroke="#FECC2F" stroke-width="6" stroke-linecap="square" stroke-linejoin="round"/>
<line x1="3.5" y1="257.03" x2="950.5" y2="257.03" stroke="#FECC2F" stroke-width="7" stroke-linecap="square" stroke-linejoin="round"/>
<line x1="4" y1="270.942" x2="950" y2="270.942" stroke="#FECC2F" stroke-width="8" stroke-linecap="square" stroke-linejoin="round"/>
<line x1="4.5" y1="284.854" x2="949.5" y2="284.854" stroke="#FECC2F" stroke-width="9" stroke-linecap="square" stroke-linejoin="round"/>
<line x1="5" y1="298.765" x2="949" y2="298.765" stroke="#FECC2F" stroke-width="10" stroke-linecap="square" stroke-linejoin="round"/>
<line x1="5.5" y1="312.677" x2="948.5" y2="312.677" stroke="#FECC2F" stroke-width="11" stroke-linecap="square" stroke-linejoin="round"/>
<line x1="6" y1="326.588" x2="948" y2="326.588" stroke="#FECC2F" stroke-width="12" stroke-linecap="square" stroke-linejoin="round"/>
<line x1="6.5" y1="340.5" x2="947.5" y2="340.5" stroke="#FECC2F" stroke-width="13" stroke-linecap="square" stroke-linejoin="round"/>
<line x1="953.5" y1="173.439" x2="0.500183" y2="173.439" stroke="#FECC2F" stroke-linecap="square" stroke-linejoin="round"/>
<line x1="953" y1="159.528" x2="1.00018" y2="159.528" stroke="#FECC2F" stroke-width="2" stroke-linecap="square" stroke-linejoin="round"/>
<line x1="952.5" y1="145.616" x2="1.50018" y2="145.616" stroke="#FECC2F" stroke-width="3" stroke-linecap="square" stroke-linejoin="round"/>
<line x1="952" y1="131.705" x2="2.00018" y2="131.705" stroke="#FECC2F" stroke-width="4" stroke-linecap="square" stroke-linejoin="round"/>
<line x1="951.5" y1="117.793" x2="2.50018" y2="117.793" stroke="#FECC2F" stroke-width="5" stroke-linecap="square" stroke-linejoin="round"/>
<line x1="951" y1="103.881" x2="3.00018" y2="103.881" stroke="#FECC2F" stroke-width="6" stroke-linecap="square" stroke-linejoin="round"/>
<line x1="950.5" y1="89.9697" x2="3.50018" y2="89.9697" stroke="#FECC2F" stroke-width="7" stroke-linecap="square" stroke-linejoin="round"/>
<line x1="950" y1="76.0581" x2="4.00018" y2="76.0581" stroke="#FECC2F" stroke-width="8" stroke-linecap="square" stroke-linejoin="round"/>
<line x1="949.5" y1="62.1465" x2="4.50018" y2="62.1465" stroke="#FECC2F" stroke-width="9" stroke-linecap="square" stroke-linejoin="round"/>
<line x1="949" y1="48.2349" x2="5.00018" y2="48.2348" stroke="#FECC2F" stroke-width="10" stroke-linecap="square" stroke-linejoin="round"/>
<line x1="948.5" y1="34.3232" x2="5.50018" y2="34.3232" stroke="#FECC2F" stroke-width="11" stroke-linecap="square" stroke-linejoin="round"/>
<line x1="948" y1="20.4116" x2="6.00018" y2="20.4116" stroke="#FECC2F" stroke-width="12" stroke-linecap="square" stroke-linejoin="round"/>
<line x1="947.5" y1="6.5" x2="6.50018" y2="6.49997" stroke="#FECC2F" stroke-width="13" stroke-linecap="square" stroke-linejoin="round"/>
</svg>
