<svg width="40" height="41" viewBox="0 0 40 41" fill="none" xmlns="http://www.w3.org/2000/svg">
<g>
<path d="M34.0003 0.00219727H0.667631C0.299471 0.00219727 0.000976562 0.303442 0.000976562 0.674994V39.6972C0.000976562 40.0687 0.299471 40.37 0.667631 40.37H34.0003C34.3685 40.37 34.667 40.0687 34.667 39.6972V0.674994C34.667 0.303358 34.3685 0.00219727 34.0003 0.00219727ZM33.3337 39.0244H1.33428V1.34779H33.3337V39.0244Z" fill="white"/>
<path d="M39.9526 3.78794L38.6193 0.423962C38.483 0.078733 38.0953 -0.0895501 37.7532 0.0479526C37.5831 0.116326 37.4484 0.252315 37.3806 0.423962L36.0473 3.78794C36.016 3.86733 35.9999 3.95211 36 4.03755V38.3502C36 39.4649 36.8954 40.3686 38 40.3686C39.1045 40.3686 39.9999 39.4649 39.9999 38.3502V4.03755C40 3.95211 39.9839 3.86742 39.9526 3.78794ZM38.6666 38.3503C38.6666 38.7218 38.3681 39.023 38 39.023C37.6318 39.023 37.3333 38.7218 37.3333 38.3503V37.0047H38.6666V38.3503ZM38.6666 35.6591H37.3333V6.72882H38.6666V35.6591ZM38.6666 5.38323H37.3333V4.16681L38 2.48482L38.6666 4.16681V5.38323Z" fill="white"/>
<path d="M10.0003 6.72876C5.95033 6.72876 2.66714 10.0422 2.66714 14.1295C2.64164 18.1911 5.8835 21.5046 9.90809 21.5303C9.93884 21.5305 9.96959 21.5305 10.0003 21.5303C14.0503 21.5303 17.3335 18.2168 17.3335 14.1295C17.3335 10.0422 14.0503 6.72876 10.0003 6.72876ZM10.667 8.11136C11.794 8.23473 12.8623 8.68138 13.7456 9.39842L10.667 12.5054V8.11136ZM5.31301 17.9089C3.2448 15.2961 3.66704 11.4859 6.25599 9.39858C7.14097 8.68508 8.20795 8.23902 9.3336 8.11195V14.1294C9.33493 14.2077 9.34985 14.2851 9.3776 14.3582C9.38093 14.3669 9.3776 14.3764 9.38427 14.3851C9.39093 14.3938 9.4016 14.4093 9.40827 14.4228C9.43393 14.4761 9.46668 14.5257 9.5056 14.5701C9.51493 14.5809 9.51893 14.595 9.52893 14.6051L13.7455 18.8605C11.1566 20.9478 7.38122 20.5218 5.31301 17.9089ZM14.6889 17.9092L10.943 14.1294L14.6889 10.3497C16.4374 12.5606 16.4374 15.6983 14.6889 17.9092Z" fill="white"/>
<path d="M31.9996 10.7656H29.333V12.1112H31.9996V10.7656Z" fill="white"/>
<path d="M28.0005 10.7656H21.334V12.1112H28.0005V10.7656Z" fill="white"/>
<path d="M31.9999 16.1479H28V17.4935H31.9999V16.1479Z" fill="white"/>
<path d="M26.6672 16.1479H21.334V17.4935H26.6672V16.1479Z" fill="white"/>
<path d="M31.9995 13.4568H25.333V14.8024H31.9995V13.4568Z" fill="white"/>
<path d="M24.0006 13.4568H21.334V14.8024H24.0006V13.4568Z" fill="white"/>
<path d="M19.806 10.9607C19.5404 10.7074 19.125 10.7074 18.8594 10.9607C18.7375 11.0896 18.6685 11.2602 18.666 11.4384C18.6643 11.6173 18.734 11.7895 18.8594 11.916C18.9257 11.9752 18.9997 12.025 19.0794 12.0641C19.16 12.0963 19.246 12.1122 19.3327 12.1111C19.6972 12.1148 19.9957 11.8197 19.9994 11.4519C19.9994 11.4474 19.9994 11.4429 19.9994 11.4384C19.9969 11.2601 19.9279 11.0896 19.806 10.9607Z" fill="white"/>
<path d="M19.946 13.8738C19.9122 13.7923 19.8649 13.7172 19.806 13.6518C19.5387 13.4029 19.1267 13.4029 18.8594 13.6518C18.7991 13.7161 18.7516 13.7915 18.7194 13.8738C18.6131 14.1242 18.6686 14.4146 18.8594 14.6072C19.1186 14.871 19.5408 14.8727 19.8022 14.6111C19.9294 14.4839 20.0005 14.3103 19.9994 14.1295C20.0016 14.0412 19.9834 13.9536 19.946 13.8738Z" fill="white"/>
<path d="M19.3327 16.1479C18.9645 16.1479 18.666 16.4492 18.666 16.8207C18.6643 16.9997 18.734 17.1719 18.8594 17.2984C19.1186 17.5623 19.5408 17.564 19.8022 17.3024C19.9294 17.1751 20.0004 17.0016 19.9994 16.8207C19.9994 16.4491 19.7009 16.1479 19.3327 16.1479Z" fill="white"/>
<path d="M24.0006 3.36499H21.334V4.71058H24.0006V3.36499Z" fill="white"/>
<path d="M20.0002 3.36499H10.667V4.71058H20.0002V3.36499Z" fill="white"/>
<path d="M26.6665 36.3319H4.0003V23.5488C4.0003 23.1772 3.70181 22.876 3.33365 22.876C2.96549 22.876 2.66699 23.1772 2.66699 23.5488V37.0047C2.66699 37.3762 2.96549 37.6775 3.33365 37.6775H26.6665C27.0347 37.6775 27.3332 37.3762 27.3332 37.0047C27.3332 36.6331 27.0347 36.3319 26.6665 36.3319Z" fill="white"/>
<path d="M25.0987 31.109C25.0911 31.1028 25.0834 31.0967 25.0755 31.0908L23.8089 30.0965L25.2215 27.9583C25.4258 27.6492 25.3432 27.2314 25.0368 27.0251C24.7305 26.8189 24.3165 26.9024 24.1122 27.2115L22.7536 29.2676L19.0763 26.3806C18.8428 26.1963 18.5169 26.1898 18.2763 26.3645L13.9364 29.4923L11.6284 28.3277C11.4409 28.2331 11.22 28.2331 11.0324 28.3277L8.49916 29.606L6.43719 27.7558C6.1622 27.5087 5.74071 27.5334 5.49588 27.811C5.25105 28.0885 5.27555 28.5139 5.55054 28.761L7.21718 30.2539L5.69788 31.0202C5.36996 31.1879 5.23847 31.5918 5.40388 31.9231C5.56821 32.2556 5.96854 32.3906 6.29803 32.2248C6.2982 32.2247 6.29836 32.2246 6.29853 32.2245L8.29849 31.2153L11.5604 34.142C11.7388 34.3017 11.9883 34.353 12.2144 34.2765L16.019 32.9982L20.4856 34.2866C20.5446 34.3036 20.6056 34.3127 20.6669 34.3135C20.8898 34.3135 21.0979 34.2013 21.2216 34.0141L23.0669 31.2187L24.2569 32.1525C24.5424 32.3871 24.9623 32.3437 25.1948 32.0556C25.4273 31.7674 25.3843 31.3436 25.0987 31.109ZM20.3823 32.8622L16.1824 31.6512C16.0532 31.6142 15.9159 31.6175 15.7884 31.6606L12.1538 32.8824L9.57855 30.572L11.3339 29.6833L13.7025 30.8822C13.9234 30.9933 14.187 30.972 14.3878 30.827L18.6504 27.755L22.0123 30.3944L20.3823 32.8622Z" fill="white"/>
<path d="M31.3333 26.9126H28.6667C28.2985 26.9126 28 27.2138 28 27.5854C28 27.9569 28.2985 28.2582 28.6667 28.2582H31.3333C31.7014 28.2582 31.9999 27.9569 31.9999 27.5854C31.9999 27.2138 31.7014 26.9126 31.3333 26.9126Z" fill="white"/>
<path d="M31.3333 30.9495H28.6667C28.2985 30.9495 28 31.2507 28 31.6223C28 31.9938 28.2985 32.295 28.6667 32.295H31.3333C31.7014 32.295 31.9999 31.9938 31.9999 31.6223C31.9999 31.2507 31.7014 30.9495 31.3333 30.9495Z" fill="white"/>
</g>
</svg>
