<svg width="15" height="15" viewBox="0 0 15 15" fill="none" xmlns="http://www.w3.org/2000/svg">
<path d="M12.9991 6.70344C13.2889 7.08258 13.2889 7.59442 12.9991 7.97294C12.0861 9.16478 9.89563 11.6188 7.3383 11.6188C4.78096 11.6188 2.59052 9.16478 1.67754 7.97294C1.53651 7.7914 1.45996 7.56807 1.45996 7.33819C1.45996 7.10832 1.53651 6.88498 1.67754 6.70344C2.59052 5.51161 4.78096 3.05762 7.3383 3.05762C9.89563 3.05762 12.0861 5.51161 12.9991 6.70344V6.70344Z" stroke="#212121" stroke-linecap="round" stroke-linejoin="round"/>
<path d="M7.33844 9.17273C8.35162 9.17273 9.17297 8.35138 9.17297 7.33819C9.17297 6.32501 8.35162 5.50366 7.33844 5.50366C6.32525 5.50366 5.50391 6.32501 5.50391 7.33819C5.50391 8.35138 6.32525 9.17273 7.33844 9.17273Z" stroke="#212121" stroke-linecap="round" stroke-linejoin="round"/>
</svg>
