<svg width="74" height="74" viewBox="0 0 74 74" fill="none" xmlns="http://www.w3.org/2000/svg">
<g>
<path d="M41.8457 13.8454C38.3051 10.305 33.598 8.35498 28.5909 8.35498C23.5839 8.35498 18.8765 10.3049 15.3359 13.8454C8.02736 21.1541 8.02736 33.0463 15.3359 40.3551C18.8765 43.8956 23.5837 45.8456 28.5909 45.8456C33.5979 45.8456 38.3051 43.8957 41.8457 40.3551C45.3862 36.8147 47.336 32.1073 47.336 27.1003C47.336 22.0933 45.3862 17.386 41.8457 13.8454ZM16.8455 15.3551C19.9827 12.2179 24.154 10.49 28.5907 10.49C33.0274 10.49 37.1986 12.2179 40.3358 15.3551C42.8119 17.831 44.4091 20.9515 44.9726 24.3379L39.154 30.0279C38.6029 29.7169 37.9675 29.5387 37.2909 29.5387C35.9738 29.5387 34.8112 30.2118 34.1283 31.2317L25.5759 28.5482C25.5764 28.5235 25.5778 28.4988 25.5778 28.4739C25.5778 26.3763 23.8713 24.6697 21.7736 24.6697C19.676 24.6697 17.9694 26.3763 17.9694 28.4739C17.9694 29.1596 18.1527 29.803 18.4715 30.3593L13.9842 35.0108C10.5794 28.7151 11.5323 20.6683 16.8455 15.3551ZM38.9604 33.3428C38.9604 34.2631 38.2115 35.0121 37.2911 35.0121C36.3707 35.0121 35.6218 34.2631 35.6218 33.3428C35.6218 32.4224 36.3707 31.6734 37.2911 31.6734C38.2115 31.6734 38.9604 32.4222 38.9604 33.3428ZM23.4431 28.4736C23.4431 29.394 22.6941 30.143 21.7738 30.143C20.8532 30.143 20.1043 29.394 20.1043 28.4736C20.1043 27.5533 20.8532 26.8043 21.7738 26.8043C22.6941 26.8044 23.4431 27.5533 23.4431 28.4736ZM40.3359 38.8456C37.1987 41.9828 33.0276 43.7107 28.5909 43.7107C24.1542 43.7107 19.9829 41.983 16.8457 38.8456C16.2226 38.2226 15.6599 37.5615 15.1567 36.8703L20.0079 31.8416C20.536 32.1197 21.1367 32.2778 21.7738 32.2778C23.0909 32.2778 24.2535 31.6048 24.9364 30.5848L33.4888 33.2683C33.4883 33.293 33.4869 33.3177 33.4869 33.3426C33.4869 35.4402 35.1934 37.1468 37.2911 37.1468C39.3887 37.1468 41.0953 35.4402 41.0953 33.3426C41.0953 32.6963 40.9327 32.0874 40.6473 31.5537L45.2012 27.1006C45.201 31.5373 43.4731 35.7084 40.3359 38.8456Z" fill="black"/>
<path d="M19.1382 16.2106L20.5387 17.8219C23.849 14.9445 28.4902 14.0574 32.6519 15.5069L33.3541 13.4908C28.4722 11.7903 23.0249 12.8325 19.1382 16.2106Z" fill="black"/>
<path d="M36.094 14.7842L34.9834 16.6074C35.5484 16.9516 36.0907 17.3461 36.5951 17.78L37.9874 16.1614C37.3951 15.6521 36.758 15.1887 36.094 14.7842Z" fill="black"/>
<path d="M31.1446 39.1128C28.7426 39.6191 26.2742 39.406 24.0053 38.4971L23.2114 40.4787C24.9318 41.168 26.7493 41.5163 28.5802 41.5163C29.5825 41.5163 30.5887 41.4118 31.585 41.2018L31.1446 39.1128Z" fill="black"/>
<path d="M55.3316 44.2504L53.7816 45.8004L49.9362 41.69C54.4875 35.0371 55.5832 26.7141 53.2222 19.257L56.2731 16.2734C56.8097 16.5634 57.4234 16.7281 58.0751 16.7281C60.1727 16.7281 61.8793 15.0215 61.8793 12.9239C61.8793 12.3027 61.7287 11.7164 61.4635 11.1978L68.0131 4.79315V8.1035H70.1479V1.18896H63.2336V3.32384H66.4621L59.999 9.64391C59.4341 9.31135 58.7768 9.11955 58.0752 9.11955C55.9776 9.11955 54.271 10.8262 54.271 12.9238C54.271 13.595 54.4465 14.2257 54.7529 14.7738L52.4147 17.0603C51.1559 14.0627 49.3098 11.2553 46.8727 8.81821C36.792 -1.26243 20.3899 -1.26215 10.3093 8.81821C1.3294 17.7981 0.349044 31.7941 7.36735 41.8694L5.56996 43.7325C5.04184 43.4545 4.44117 43.2963 3.80407 43.2963C1.70648 43.2962 0 45.0028 0 47.1004C0 49.198 1.70648 50.9046 3.80421 50.9046C5.90195 50.9046 7.60843 49.198 7.60843 47.1004C7.60843 46.4146 7.42516 45.7713 7.10618 45.215L8.67652 43.5871C9.18816 44.2043 9.73131 44.8037 10.3091 45.3817C15.3495 50.4219 21.9702 52.9419 28.5909 52.9419C33.6732 52.9419 38.755 51.455 43.1224 48.4849L46.9769 52.605L45.3741 54.2079L64.0424 72.811L74.0002 62.8535L55.3316 44.2504ZM58.0752 11.2546C58.9956 11.2546 59.7446 12.0035 59.7446 12.9239C59.7446 13.8443 58.9956 14.5933 58.0752 14.5933C57.1547 14.5933 56.4059 13.8443 56.4059 12.9239C56.4059 12.0035 57.1547 11.2546 58.0752 11.2546ZM3.80421 48.7696C2.88384 48.7696 2.13488 48.0207 2.13488 47.1003C2.13488 46.1799 2.88384 45.4309 3.80421 45.4309C4.72474 45.4309 5.47355 46.1799 5.47355 47.1003C5.47341 48.0208 4.72459 48.7696 3.80421 48.7696ZM11.8188 43.8722C2.57064 34.624 2.57064 19.5763 11.8188 10.3278C16.4428 5.7037 22.5167 3.39191 28.5908 3.39191C34.6649 3.39191 40.739 5.70399 45.363 10.3278C54.6111 19.576 54.6111 34.6239 45.363 43.8722C36.1151 53.1202 21.0666 53.1202 11.8188 43.8722ZM44.8479 47.2042C45.5467 46.6384 46.2229 46.0313 46.8727 45.3817C47.5006 44.7538 48.0891 44.1014 48.6386 43.4277L52.2714 47.3106L48.4874 51.0946L44.8479 47.2042ZM64.0399 69.7945L48.3961 54.2052L55.3345 47.2668L70.9783 62.8559L64.0399 69.7945Z" fill="black"/>
<path d="M55.3331 50.3662L52.2783 53.4209L53.7881 54.9305L55.3331 53.3853L61.2251 59.2773L62.7346 57.7678L55.3331 50.3662Z" fill="black"/>
<path d="M64.5647 59.5944L63.0552 61.104L64.6373 62.6861L66.1469 61.1766L64.5647 59.5944Z" fill="black"/>
<path d="M13.7013 54.0356H11.5664V56.3616H13.7013V54.0356Z" fill="black"/>
<path d="M13.7013 67.0723H11.5664V69.3982H13.7013V67.0723Z" fill="black"/>
<path d="M31.2843 58.5215H29.1494V60.8473H31.2843V58.5215Z" fill="black"/>
<path d="M61.8795 39.3208H59.7446V41.6467H61.8795V39.3208Z" fill="black"/>
<path d="M64.3014 20.7964H62.1665V23.1223H64.3014V20.7964Z" fill="black"/>
<path d="M71.3766 30.605H69.2417V32.9309H71.3766V30.605Z" fill="black"/>
</g>
</svg>
