<svg width="49" height="49" viewBox="0 0 49 49" fill="none" xmlns="http://www.w3.org/2000/svg">
<g clip-path="url(#clip0)">
<path d="M48.3708 3.33321C48.2475 3.18688 48.0711 3.09548 47.8805 3.07921L37.2165 2.1684L37.0232 0.631602C36.9734 0.236253 36.6118 -0.0439658 36.2174 0.00570411L26.3248 1.24946C26.2859 1.23932 26.246 1.23166 26.2044 1.22812L12.6073 0.066667C12.2158 0.0322139 11.8603 0.333296 11.827 0.724052L11.6243 3.09749L1.0923 4.42164C0.702597 4.47064 0.417497 4.83747 0.466401 5.22746L5.84243 47.9884C5.86683 48.1834 5.82501 48.3708 5.90473 48.5594C6.01651 48.8237 6.28257 49 6.56958 49H41.971C42.3696 49 42.6925 48.6771 42.6925 48.2785V47.3388L44.0899 47.4582C44.4814 47.4922 44.8369 47.1917 44.8702 46.8008L48.5378 3.85967C48.5542 3.66893 48.4942 3.47963 48.3708 3.33321ZM5.84808 36.465L1.98827 5.7633L5.84808 5.27808V36.465ZM13.2034 1.56586L19.5179 2.10514L13.0884 2.91355L13.2034 1.56586ZM35.6815 1.52748L36.0502 4.45954H12.3588L35.6815 1.52748ZM43.4939 45.959L42.6925 45.8906V24.8057C42.6925 24.4072 42.3696 24.0842 41.971 24.0842C41.5724 24.0842 41.2495 24.4071 41.2495 24.8057V47.5569H7.29109V5.90255H41.2496V21.4388C41.2496 21.8374 41.5725 22.1603 41.9711 22.1603C42.3697 22.1603 42.6926 21.8374 42.6926 21.4388V5.18104C42.6926 4.78253 42.3697 4.45954 41.9711 4.45954H37.5046L37.4005 3.63237L47.0387 4.45561L43.4939 45.959Z" fill="#FECC2F"/>
<path d="M38.121 8.30762H34.273C34.0317 8.30762 33.8064 8.42811 33.6727 8.62889L32.0396 11.0785C30.2819 9.81934 28.1298 9.07717 25.8074 9.07717C25.4089 9.07717 25.0859 9.40007 25.0859 9.79867V19.8035C25.0859 20.202 25.4088 20.525 25.8074 20.525H35.8123C36.2109 20.525 36.5338 20.2021 36.5338 19.8035C36.5338 16.7317 35.2354 13.9578 33.1593 12.0005L34.6592 9.75063H38.1211C38.5196 9.75063 38.8426 9.42773 38.8426 9.02912C38.8426 8.63052 38.5195 8.30762 38.121 8.30762ZM35.063 19.082H26.5289V10.5479C28.2787 10.6831 29.8929 11.307 31.2381 12.2808L30.5943 13.2466C30.3933 13.548 30.4522 13.9656 30.7299 14.1988C31.0551 14.472 31.5596 14.3999 31.7949 14.047L32.3459 13.2205C33.8799 14.7443 34.8865 16.7985 35.063 19.082Z" fill="#FECC2F"/>
<path d="M38.1222 32.1653H31.5958L30.4458 30.3254C32.3087 28.3951 33.4565 25.7701 33.4565 22.8821C33.4565 22.4835 33.1336 22.1606 32.735 22.1606H23.4517V12.8773C23.4517 12.4788 23.1287 12.1558 22.7302 12.1558C16.8158 12.1558 12.0039 16.9676 12.0039 22.8821C12.0039 28.7965 16.8158 33.6084 22.7302 33.6084C25.2303 33.6084 27.5331 32.7486 29.359 31.3093L30.584 33.2693C30.7159 33.4802 30.9471 33.6084 31.1958 33.6084H38.1222C38.5208 33.6084 38.8438 33.2855 38.8438 32.8869C38.8438 32.4883 38.5208 32.1653 38.1222 32.1653ZM27.9598 26.3477C27.7487 26.0096 27.3034 25.907 26.9656 26.1182C26.6276 26.3293 26.5248 26.7745 26.7361 27.1124L28.5893 30.0775C26.9902 31.382 24.9501 32.1655 22.7303 32.1655C17.6115 32.1655 13.447 28.001 13.447 22.8822C13.447 18.0061 17.2259 13.996 22.0088 13.6266V22.8822C22.0088 23.2807 22.3318 23.6037 22.7303 23.6037H31.9859C31.8247 25.6901 30.9706 27.5853 29.6543 29.0591L27.9598 26.3477Z" fill="#FECC2F"/>
<path d="M16.5736 36.0132H10.4168C10.0184 36.0132 9.69531 36.3361 9.69531 36.7347C9.69531 37.1333 10.0183 37.4562 10.4168 37.4562H16.5736C16.9721 37.4562 17.2951 37.1333 17.2951 36.7347C17.2951 36.3361 16.9721 36.0132 16.5736 36.0132Z" fill="#FECC2F"/>
<path d="M25.808 36.0132H19.6512C19.2527 36.0132 18.9297 36.3361 18.9297 36.7347C18.9297 37.1333 19.2527 37.4562 19.6512 37.4562H25.808C26.2065 37.4562 26.5295 37.1333 26.5295 36.7347C26.5295 36.3361 26.2065 36.0132 25.808 36.0132Z" fill="#FECC2F"/>
<path d="M20.4216 39.8613H10.4168C10.0184 39.8613 9.69531 40.1842 9.69531 40.5828C9.69531 40.9814 10.0183 41.3043 10.4168 41.3043H20.4216C20.8201 41.3043 21.1431 40.9814 21.1431 40.5828C21.1431 40.1842 20.82 39.8613 20.4216 39.8613Z" fill="#FECC2F"/>
<path d="M25.8077 39.8613H23.4989C23.1004 39.8613 22.7773 40.1842 22.7773 40.5828C22.7773 40.9814 23.1003 41.3043 23.4989 41.3043H25.8077C26.2062 41.3043 26.5292 40.9814 26.5292 40.5828C26.5291 40.1842 26.2062 39.8613 25.8077 39.8613Z" fill="#FECC2F"/>
<path d="M13.4952 43.709H10.4168C10.0184 43.709 9.69531 44.0319 9.69531 44.4305C9.69531 44.8291 10.0183 45.152 10.4168 45.152H13.4952C13.8937 45.152 14.2167 44.8291 14.2167 44.4305C14.2167 44.0319 13.8937 43.709 13.4952 43.709Z" fill="#FECC2F"/>
<path d="M25.8082 43.709H16.5731C16.1747 43.709 15.8516 44.0319 15.8516 44.4305C15.8516 44.8291 16.1746 45.152 16.5731 45.152H25.8082C26.2067 45.152 26.5297 44.8291 26.5297 44.4305C26.5297 44.0319 26.2067 43.709 25.8082 43.709Z" fill="#FECC2F"/>
</g>
<defs>
<clipPath id="clip0">
<rect width="49" height="49" fill="white"/>
</clipPath>
</defs>
</svg>
