<svg width="52" height="52" viewBox="0 0 52 52" fill="none" xmlns="http://www.w3.org/2000/svg">
<path d="M21.6775 3.47681C11.6297 3.47681 3.48438 11.6221 3.48438 21.6699C3.48438 31.7177 11.6297 39.863 21.6775 39.863C31.7253 39.863 39.8706 31.7177 39.8706 21.6699C39.8596 11.6267 31.7207 3.48774 21.6775 3.47681ZM21.6775 5.20948C27.0289 5.21371 32.0435 7.82182 35.1196 12.2008L32.9537 14.3667C32.4267 14.0478 31.8233 13.8771 31.2072 13.8729C29.2934 13.8729 27.7418 15.4244 27.7418 17.3382C27.7449 17.9549 27.9146 18.5593 28.2331 19.0874L22.5603 24.7601C21.4861 24.1052 20.1362 24.1052 19.062 24.7601L15.1219 20.82C15.4404 20.292 15.6101 19.6876 15.6131 19.0709C15.6155 17.1608 14.0691 15.6105 12.159 15.6081C10.5794 15.6062 9.19918 16.6747 8.80542 18.2046H5.59131C7.23161 10.6298 13.9272 5.22085 21.6775 5.20948ZM32.9399 17.3382C32.9399 18.2952 32.1642 19.0709 31.2072 19.0709C30.2502 19.0709 29.4745 18.2952 29.4745 17.3382C29.4745 16.3812 30.2502 15.6055 31.2072 15.6055C32.1642 15.6055 32.9399 16.3812 32.9399 17.3382ZM22.5438 27.7343C22.5438 28.6913 21.7681 29.467 20.8111 29.467C19.8542 29.467 19.0785 28.6913 19.0785 27.7343C19.0785 26.7773 19.8542 26.0016 20.8111 26.0016C21.7681 26.0016 22.5438 26.7773 22.5438 27.7343ZM13.8804 19.0709C13.8804 20.0279 13.1047 20.8036 12.1478 20.8036C11.1908 20.8036 10.4151 20.0279 10.4151 19.0709C10.4151 18.1139 11.1908 17.3382 12.1478 17.3382C13.1047 17.3382 13.8804 18.1139 13.8804 19.0709ZM29.6753 36.0626C27.2288 37.421 24.476 38.1327 21.6775 38.1302C12.5928 38.1364 5.22322 30.777 5.21705 21.6923C5.21662 21.106 5.24759 20.5201 5.30975 19.9371H8.80542C9.19928 21.4624 10.5724 22.5302 12.1478 22.5361C12.7645 22.5331 13.3689 22.3634 13.8969 22.0449L17.837 25.985C17.5185 26.5131 17.3488 27.1174 17.3458 27.7342C17.3458 29.648 18.8973 31.1995 20.8111 31.1995C22.725 31.1995 24.2765 29.648 24.2765 27.7342C24.2735 27.1174 24.1038 26.5131 23.7853 25.985L29.4581 20.3122C29.9861 20.6307 30.5905 20.8004 31.2072 20.8035C33.121 20.8035 34.6726 19.252 34.6726 17.3381C34.6695 16.7214 34.4998 16.117 34.1813 15.589L36.07 13.7012C40.4791 21.6421 37.616 31.6536 29.6753 36.0626Z" fill="#FECC2F"/>
<path d="M43.3366 8.67471C44.9119 8.66875 46.2851 7.6011 46.6789 6.0757H52V4.34302H46.6789C46.2851 2.81761 44.9119 1.74996 43.3366 1.744C41.4227 1.744 39.8712 3.29551 39.8712 5.20936C39.8743 5.82608 40.044 6.43046 40.3624 6.95849L38.8403 8.48065C31.5571 -1.00803 17.9608 -2.79593 8.4721 4.48726C-1.01657 11.7705 -2.80448 25.3669 4.47872 34.8556C11.3535 43.8121 23.9556 45.9848 33.4326 39.8473L36.0472 42.4619L37.2722 43.6869L44.2462 50.6609C46.02 52.4347 48.8955 52.4347 50.6693 50.6609C52.443 48.8872 52.443 46.0116 50.6693 44.2379L43.6952 37.2639L42.4702 36.0389L39.8556 33.4243C44.4969 26.2752 44.4969 17.0644 39.8556 9.91531L41.5883 8.18263C42.116 8.50123 42.7202 8.67125 43.3366 8.67471ZM43.3366 3.47668C44.2936 3.47668 45.0693 4.25238 45.0693 5.20936C45.0693 6.16634 44.2936 6.94203 43.3366 6.94203C42.3796 6.94203 41.6039 6.16634 41.6039 5.20936C41.6039 4.25238 42.3797 3.47668 43.3366 3.47668ZM49.4443 45.4629C50.5538 46.5476 50.5741 48.3264 49.4894 49.4359C48.4048 50.5455 46.626 50.5657 45.5164 49.4811C45.5011 49.4663 45.4862 49.4512 45.4712 49.4359L38.4972 42.4619L42.4702 38.4889L49.4443 45.4629ZM41.2452 37.2639L37.2722 41.2369L34.8742 38.8389C34.9963 38.7453 35.1107 38.6422 35.2311 38.5461C35.3515 38.4499 35.491 38.3347 35.6201 38.2264C35.8098 38.067 35.997 37.9058 36.1806 37.7404C36.2751 37.6537 36.3652 37.5671 36.4579 37.4805C36.8131 37.1478 37.157 36.8039 37.4897 36.4487C37.5763 36.356 37.6629 36.2659 37.7496 36.1714C37.915 35.9878 38.0762 35.8006 38.2356 35.6109C38.3442 35.4827 38.4508 35.3531 38.5553 35.2219C38.6506 35.1024 38.7537 34.988 38.8472 34.8659L41.2452 37.2639ZM37.8856 33.2397C37.6127 33.6209 37.3311 33.9943 37.034 34.3538C36.9473 34.4587 36.8546 34.56 36.7654 34.6631C36.5003 34.9715 36.2265 35.2708 35.9441 35.5607C35.8211 35.6877 35.696 35.8128 35.569 35.9358C35.2802 36.2182 34.9811 36.492 34.6715 36.7571C34.5684 36.8437 34.467 36.9381 34.3622 37.0256C34.0027 37.3228 33.6293 37.6043 33.2481 37.8772C24.2797 44.2844 11.8154 42.2081 5.4083 33.2397C-0.998813 24.2714 1.07747 11.8071 10.0458 5.39995C19.0141 -1.00716 31.4785 1.06902 37.8856 10.0375C42.8433 16.977 42.8433 26.3001 37.8856 33.2397Z" fill="#FECC2F"/>
</svg>
