<svg width="49" height="49" viewBox="0 0 49 49" fill="none" xmlns="http://www.w3.org/2000/svg">
<g>
<path d="M48.0442 9.44352C48.5723 9.44285 49 9.01457 49 8.48648V4.57452C49 4.04596 48.5715 3.61749 48.043 3.61749H36.907C35.201 3.61749 33.7331 4.07132 32.6622 4.92997C31.771 5.64458 30.7088 7.01486 30.7088 9.48486V12.2118H30.4695C29.9409 12.2118 29.5125 12.6403 29.5125 13.1689V17.2496H27.7127V16.9886C27.7127 15.9836 26.8979 15.1689 25.893 15.1689H23.248C22.243 15.1689 21.4283 15.9836 21.4283 16.9886V17.2495H18.953V15.9414C18.953 14.1661 17.5075 12.7217 15.7309 12.7217H13.3355C11.5587 12.7217 10.1132 14.1661 10.1132 15.9414V17.2907C4.45613 17.7737 0 22.5319 0 28.3121C0 34.0909 4.45192 38.8485 10.1051 39.3354V43.4694H0.989857C0.480143 43.4694 0.035123 43.8541 0.00210547 44.3626C-0.0340703 44.92 0.407408 45.3835 0.957031 45.3835H11.0621H17.2528H48.0101C48.5199 45.3835 48.965 44.9989 48.9979 44.4902C49.0341 43.9328 48.5926 43.4694 48.043 43.4694H18.2098V39.3773H21.4283V39.6383C21.4283 40.6433 22.243 41.458 23.248 41.458H25.8931C26.898 41.458 27.7128 40.6433 27.7128 39.6383V39.3773H41.1172C41.6458 39.3773 42.0743 38.9488 42.0743 38.4202V34.4479H48.043C48.5715 34.4479 49 34.0194 49 33.4908V23.1359C49 22.6073 48.5715 22.1788 48.043 22.1788H42.0743V18.2066C42.0743 17.678 41.6458 17.2495 41.1172 17.2495H38.0919V13.1688C38.0919 12.6402 37.6635 12.2117 37.1349 12.2117H36.8956C36.8956 12.2117 36.8947 9.75905 36.8971 9.70105C36.9021 9.57721 36.9955 9.45931 37.1194 9.45854C37.3666 9.45711 48.0442 9.44352 48.0442 9.44352V9.44352ZM12.0273 15.9414C12.0273 15.2215 12.6141 14.6358 13.3355 14.6358H15.7309C16.4522 14.6358 17.039 15.2214 17.039 15.9414V17.2495H12.0273V15.9414ZM16.2958 43.4694H12.0192V39.3773H16.2958V43.4694ZM11.0621 37.4632C6.01781 37.4632 1.91406 33.358 1.91406 28.3121C1.91406 23.2675 6.01791 19.1636 11.0621 19.1636H11.0703H17.996H21.4283V37.4632H11.0621ZM47.0859 24.0929V32.5338H42.0743V24.0929H47.0859ZM40.1602 33.4908V37.4632H27.7127V32.6065C27.7127 32.0781 27.2841 31.6495 26.7556 31.6495C26.2272 31.6495 25.7986 32.0781 25.7986 32.6065V39.5439H23.3424V38.4202V18.2066V17.0829H25.7986V24.0121C25.7986 24.5406 26.2272 24.9691 26.7556 24.9691C27.2841 24.9691 27.7127 24.5406 27.7127 24.0121V19.1636H40.1601V33.4908H40.1602ZM31.4265 17.2495V14.1258H31.6659H35.9385H36.1779V17.2495H31.4265ZM35.5324 8.14186C35.0296 8.65397 34.971 9.33633 34.9814 9.93821V12.2118H32.6228V9.48486C32.6228 6.21736 34.9525 5.53156 36.9069 5.53156H47.0859V7.5307L37.3655 7.54304C36.7857 7.54304 36.0535 7.61099 35.5324 8.14186V8.14186Z" fill="#FECC2F"/>
<path d="M18.0503 27.355H15.5328C15.0042 27.355 14.5758 27.7835 14.5758 28.312C14.5758 28.8405 15.0042 29.269 15.5328 29.269H18.0503C18.5788 29.269 19.0073 28.8405 19.0073 28.312C19.0073 27.7835 18.5788 27.355 18.0503 27.355Z" fill="#FECC2F"/>
<path d="M18.0503 22.5723H15.5328C15.0042 22.5723 14.5758 23.0008 14.5758 23.5293C14.5758 24.0578 15.0042 24.4863 15.5328 24.4863H18.0503C18.5788 24.4863 19.0073 24.0578 19.0073 23.5293C19.0073 23.0008 18.5788 22.5723 18.0503 22.5723Z" fill="#FECC2F"/>
<path d="M18.0503 32.1406H15.5328C15.0042 32.1406 14.5758 32.5691 14.5758 33.0976C14.5758 33.6261 15.0042 34.0546 15.5328 34.0546H18.0503C18.5788 34.0546 19.0073 33.6261 19.0073 33.0976C19.0073 32.5691 18.5788 32.1406 18.0503 32.1406Z" fill="#FECC2F"/>
<path d="M26.7556 27.3524C26.2271 27.3524 25.7986 27.7809 25.7986 28.3094V28.3121C25.7986 28.8405 26.2271 29.2678 26.7556 29.2678C27.2841 29.2678 27.7126 28.8379 27.7126 28.3093C27.7126 27.7807 27.2842 27.3524 26.7556 27.3524Z" fill="#FECC2F"/>
</g>
</svg>
