<svg width="49" height="49" viewBox="0 0 49 49" fill="none" xmlns="http://www.w3.org/2000/svg">
<path d="M6.89062 26.0317H8.47461L9.75215 43.9139C9.82423 44.8783 10.2574 45.7801 10.9653 46.4392C11.6731 47.0983 12.6035 47.4661 13.5707 47.4692H33.898C34.8652 47.4661 35.7956 47.0983 36.5034 46.4392C37.2113 45.7801 37.6445 44.8783 37.7166 43.9139L38.9941 26.0317H40.5781C40.7812 26.0317 40.9759 25.9511 41.1195 25.8075C41.2631 25.6639 41.3437 25.4692 41.3437 25.2661V22.2036C41.343 21.5947 41.1008 21.0109 40.6702 20.5803C40.2396 20.1497 39.6558 19.9074 39.0469 19.9067H37.5104L42.8286 6.10118C42.8647 6.00735 42.882 5.90733 42.8795 5.80681C42.877 5.7063 42.8547 5.60727 42.8139 5.51537C42.7731 5.42347 42.7146 5.3405 42.6418 5.27121C42.5689 5.20192 42.4831 5.14765 42.3893 5.11151L37.34 3.16673C37.1505 3.09377 36.9398 3.09906 36.7543 3.18144C36.5687 3.26382 36.4234 3.41654 36.3504 3.60601L32.9219 12.5064V2.29736C32.9219 2.09431 32.8412 1.89957 32.6976 1.75598C32.554 1.6124 32.3593 1.53174 32.1562 1.53174H27.5625C27.3594 1.53174 27.1647 1.6124 27.0211 1.75598C26.8775 1.89957 26.7969 2.09431 26.7969 2.29736V8.42236H19.9062V2.29736C19.9062 2.09431 19.8256 1.89957 19.682 1.75598C19.5384 1.6124 19.3437 1.53174 19.1406 1.53174H14.5469C14.3438 1.53174 14.1491 1.6124 14.0055 1.75598C13.8619 1.89957 13.7812 2.09431 13.7812 2.29736V7.65674H12.25C12.0469 7.65674 11.8522 7.7374 11.7086 7.88098C11.565 8.02457 11.4844 8.21931 11.4844 8.42236V11.0398C10.8022 11.3382 10.2218 11.8289 9.81387 12.4517C9.40598 13.0746 9.18833 13.8028 9.1875 14.5474V19.9067H8.42187C7.81292 19.9074 7.22912 20.1497 6.79852 20.5803C6.36793 21.0109 6.12571 21.5947 6.125 22.2036V25.2661C6.125 25.4692 6.20566 25.6639 6.34925 25.8075C6.49283 25.9511 6.68757 26.0317 6.89062 26.0317ZM36.1896 43.8048C36.1463 44.3835 35.8863 44.9246 35.4615 45.3201C35.0367 45.7155 34.4784 45.9362 33.898 45.938H13.5707C12.9904 45.9361 12.4322 45.7154 12.0075 45.32C11.5828 44.9245 11.3228 44.3834 11.2796 43.8048L10.0098 26.0317H37.459L36.1896 43.8048ZM37.5041 4.87082L41.1245 6.26521L35.8695 19.9067H31.7117L37.5041 4.87082ZM15.3125 3.06299H18.375V9.18799C18.375 9.39104 18.4557 9.58578 18.5992 9.72937C18.7428 9.87295 18.9376 9.95361 19.1406 9.95361H27.5625C27.7656 9.95361 27.9603 9.87295 28.1039 9.72937C28.2475 9.58578 28.3281 9.39104 28.3281 9.18799V3.06299H31.3906V16.4806L30.0708 19.9067H29.0937V17.6099C29.0931 17.0009 28.8509 16.4171 28.4203 15.9865C27.9897 15.5559 27.4058 15.3137 26.7969 15.313V12.2505C26.7969 12.0474 26.7162 11.8527 26.5726 11.7091C26.429 11.5655 26.2343 11.4849 26.0312 11.4849H22.9687C22.7657 11.4849 22.571 11.5655 22.4274 11.7091C22.2838 11.8527 22.2031 12.0474 22.2031 12.2505V15.313C21.5942 15.3137 21.0103 15.5559 20.5797 15.9865C20.1491 16.4171 19.9069 17.0009 19.9062 17.6099V19.9067H18.375V14.5474C18.3742 13.8028 18.1565 13.0746 17.7486 12.4517C17.3407 11.8289 16.7603 11.3382 16.0781 11.0398V8.42236C16.0781 8.21931 15.9975 8.02457 15.8539 7.88098C15.7103 7.7374 15.5156 7.65674 15.3125 7.65674V3.06299ZM26.0312 16.8442H26.7969C26.9999 16.8445 27.1945 16.9252 27.338 17.0687C27.4815 17.2123 27.5623 17.4069 27.5625 17.6099V19.9067H21.4375V17.6099C21.4377 17.4069 21.5185 17.2123 21.662 17.0687C21.8055 16.9252 22.0001 16.8445 22.2031 16.8442H22.9687C23.1718 16.8442 23.3665 16.7636 23.5101 16.62C23.6537 16.4764 23.7344 16.2817 23.7344 16.0786V13.0161H25.2656V16.0786C25.2656 16.2817 25.3463 16.4764 25.4899 16.62C25.6335 16.7636 25.8282 16.8442 26.0312 16.8442ZM16.8437 15.313V16.8442H10.7187V15.313H16.8437ZM13.0156 9.18799H14.5469V10.7192H13.0156V9.18799ZM13.0156 12.2505H14.5469C15.0217 12.2511 15.4846 12.3986 15.8723 12.6727C16.2599 12.9469 16.5533 13.3343 16.7121 13.7817H10.8504C11.0092 13.3343 11.3025 12.9469 11.6902 12.6727C12.0779 12.3986 12.5408 12.2511 13.0156 12.2505V12.2505ZM10.7187 18.3755H16.8437V19.9067H10.7187V18.3755ZM7.65625 22.2036C7.65648 22.0006 7.73722 21.806 7.88075 21.6625C8.02428 21.519 8.21889 21.4382 8.42187 21.438H39.0469C39.2499 21.4382 39.4445 21.519 39.588 21.6625C39.7315 21.806 39.8123 22.0006 39.8125 22.2036V24.5005H7.65625V22.2036Z" fill="#FECC2F"/>
<path d="M16.8437 42.1099H20.6719C20.8749 42.1099 21.0697 42.0292 21.2132 41.8856C21.3568 41.7421 21.4375 41.5473 21.4375 41.3443C21.4375 41.1412 21.3568 40.9465 21.2132 40.8029C21.0697 40.6593 20.8749 40.5786 20.6719 40.5786H18.1698L20.0279 37.3603L20.11 37.6666C20.136 37.7637 20.1809 37.8547 20.2421 37.9345C20.3033 38.0143 20.3796 38.0812 20.4667 38.1315C20.5538 38.1818 20.6499 38.2144 20.7496 38.2275C20.8493 38.2406 20.9506 38.234 21.0477 38.208C21.1448 38.182 21.2358 38.1371 21.3156 38.0758C21.3954 38.0146 21.4623 37.9383 21.5126 37.8513C21.5629 37.7642 21.5955 37.6681 21.6086 37.5684C21.6217 37.4687 21.6151 37.3674 21.5891 37.2703L21.0286 35.1785C21.0026 35.0814 20.9577 34.9903 20.8965 34.9105C20.8353 34.8307 20.7589 34.7638 20.6718 34.7135C20.5848 34.6632 20.4886 34.6306 20.3889 34.6175C20.2892 34.6044 20.1879 34.611 20.0907 34.6371L17.999 35.1976C17.8028 35.2502 17.6356 35.3785 17.5341 35.5544C17.4325 35.7302 17.405 35.9392 17.4576 36.1353C17.5101 36.3315 17.6384 36.4987 17.8143 36.6002C17.9901 36.7018 18.1991 36.7293 18.3953 36.6767L18.7015 36.5946L16.1807 40.9615C16.1135 41.0778 16.0781 41.2099 16.0781 41.3443C16.0781 41.4787 16.1135 41.6107 16.1807 41.7271C16.2479 41.8435 16.3445 41.9401 16.4609 42.0073C16.5773 42.0745 16.7093 42.1099 16.8437 42.1099Z" fill="#FECC2F"/>
<path d="M21.4375 33.0725C21.6134 33.174 21.8223 33.2016 22.0185 33.149C22.2146 33.0965 22.3818 32.9681 22.4834 32.7923L23.7344 30.6255C24.1065 31.27 24.6873 32.2759 25.5925 33.8438L25.2862 33.7617C25.1891 33.7357 25.0878 33.729 24.9881 33.7421C24.8884 33.7553 24.7923 33.7879 24.7052 33.8382C24.6182 33.8884 24.5418 33.9554 24.4806 34.0351C24.4194 34.1149 24.3745 34.206 24.3485 34.3031C24.3225 34.4002 24.3158 34.5015 24.329 34.6012C24.3421 34.7008 24.3747 34.797 24.425 34.884C24.4753 34.9711 24.5422 35.0474 24.622 35.1086C24.7017 35.1699 24.7928 35.2147 24.8899 35.2408L26.9817 35.8013C27.0788 35.8274 27.1801 35.8342 27.2799 35.8211C27.3796 35.808 27.4758 35.7754 27.5629 35.7251C27.65 35.6748 27.7264 35.6078 27.7876 35.528C27.8488 35.4482 27.8936 35.3571 27.9196 35.2599L28.48 33.1681C28.506 33.071 28.5127 32.9697 28.4995 32.87C28.4864 32.7703 28.4538 32.6742 28.4035 32.5872C28.3532 32.5001 28.2863 32.4238 28.2065 32.3626C28.1268 32.3013 28.0357 32.2564 27.9386 32.2304C27.8415 32.2044 27.7402 32.1978 27.6405 32.2109C27.5408 32.224 27.4447 32.2566 27.3576 32.3069C27.2706 32.3572 27.1942 32.4241 27.133 32.5039C27.0718 32.5837 27.0269 32.6747 27.0009 32.7718L26.9188 33.0781C25.903 31.3188 24.4114 28.7356 24.3981 28.7118C24.3309 28.5953 24.2341 28.4985 24.1176 28.4312C24.0011 28.3639 23.8689 28.3285 23.7344 28.3286C23.6 28.3286 23.468 28.364 23.3516 28.4312C23.2352 28.4984 23.1385 28.595 23.0714 28.7114L21.1573 32.0267C21.0558 32.2025 21.0283 32.4115 21.0808 32.6076C21.1334 32.8038 21.2617 32.971 21.4375 33.0725Z" fill="#FECC2F"/>
<path d="M28.0478 38.4118L29.2989 40.5786H25.5827L25.807 40.3544C25.9505 40.2108 26.0312 40.0161 26.0312 39.813C26.0312 39.6099 25.9505 39.4152 25.807 39.2716C25.6634 39.128 25.4686 39.0473 25.2656 39.0473C25.0625 39.0473 24.8678 39.128 24.7242 39.2716L23.1929 40.8028C23.1218 40.8739 23.0654 40.9584 23.0269 41.0512C22.9885 41.1441 22.9687 41.2437 22.9687 41.3442C22.9687 41.4448 22.9885 41.5444 23.0269 41.6372C23.0654 41.7301 23.1218 41.8145 23.1929 41.8856L24.7242 43.4169C24.8678 43.5605 25.0625 43.6411 25.2656 43.6411C25.4686 43.6411 25.6634 43.5605 25.807 43.4169C25.9505 43.2733 26.0312 43.0786 26.0312 42.8755C26.0312 42.6724 25.9505 42.4777 25.807 42.3341L25.5827 42.1099H30.6249C30.7593 42.1099 30.8914 42.0745 31.0078 42.0073C31.1241 41.9401 31.2208 41.8434 31.288 41.727C31.3552 41.6107 31.3905 41.4786 31.3905 41.3442C31.3905 41.2098 31.3552 41.0778 31.288 40.9614L29.3739 37.6462C29.324 37.5584 29.2572 37.4814 29.1774 37.4195C29.0976 37.3576 29.0064 37.3122 28.9089 37.2857C28.8115 37.2593 28.7098 37.2523 28.6097 37.2654C28.5095 37.2784 28.413 37.3111 28.3255 37.3615C28.2381 37.412 28.1615 37.4793 28.1001 37.5595C28.0388 37.6397 27.994 37.7313 27.9681 37.8289C27.9423 37.9265 27.9361 38.0283 27.9498 38.1283C27.9635 38.2284 27.9968 38.3247 28.0478 38.4118Z" fill="#FECC2F"/>
</svg>
