<svg width="49" height="49" viewBox="0 0 49 49" fill="none" xmlns="http://www.w3.org/2000/svg">
<g>
<path d="M20.3645 36.0845C20.48 36.2144 20.6449 36.2892 20.8192 36.2906L21.7034 36.2957L21.1066 40.2636C21.0678 40.5238 21.1996 40.7799 21.4333 40.9C21.522 40.9449 21.6174 40.9673 21.7127 40.9673C21.8688 40.9673 22.023 40.9075 22.1403 40.793L28.4521 34.6363C28.6302 34.4625 28.6853 34.1985 28.5918 33.9681C28.4988 33.7372 28.275 33.5858 28.0259 33.5854L25.9894 33.5798L27.4502 30.1409C27.5311 29.9516 27.511 29.7348 27.3974 29.5633C27.2839 29.3923 27.0923 29.289 26.8867 29.289H21.4828C21.1716 29.289 20.9099 29.5227 20.8748 29.8315L20.2145 35.6083C20.1944 35.7812 20.2491 35.9546 20.3645 36.0845V36.0845ZM22.0295 30.5138H25.9609L24.5011 33.9503C24.4207 34.1391 24.4403 34.3559 24.5534 34.527C24.6665 34.6985 24.8576 34.8017 25.0628 34.8022L26.5236 34.8064L22.5889 38.6444L23.0197 35.7784C23.0459 35.6032 22.9945 35.4242 22.8791 35.2891C22.7637 35.1546 22.595 35.0761 22.4174 35.0751L21.509 35.0695L22.0295 30.5138Z" fill="#FECC2F"/>
<path d="M48.3876 21.2556H44.0188V18.7103H45.8693C46.0665 18.7103 46.252 18.6154 46.3669 18.4546C46.4824 18.2944 46.5127 18.0883 46.4497 17.9014L45.3062 14.5298H45.8693C46.0665 14.5298 46.252 14.4349 46.3669 14.2742C46.4824 14.1139 46.5127 13.9078 46.4497 13.7209L45.3062 10.3498H45.8693C46.0665 10.3498 46.252 10.2545 46.3669 10.0937C46.4824 9.93343 46.5127 9.72735 46.4497 9.54043L45.0319 5.35996C44.9478 5.11135 44.7141 4.94406 44.4515 4.94406H42.7089L42.1206 0.531809C42.0799 0.227596 41.8206 0.000488281 41.5136 0.000488281H39.4626C39.1556 0.000488281 38.8962 0.227596 38.8556 0.531809L38.2677 4.94406H36.5247C36.262 4.94406 36.0289 5.11135 35.9443 5.35996L34.5265 9.54043C34.4634 9.72735 34.4938 9.93343 34.6092 10.0937C34.7242 10.2545 34.9097 10.3498 35.1069 10.3498H35.67L34.5265 13.7209C34.4634 13.9078 34.4938 14.1139 34.6092 14.2742C34.7242 14.4349 34.9097 14.5298 35.1069 14.5298H35.67L34.5265 17.9014C34.4634 18.0883 34.4938 18.2944 34.6092 18.4546C34.7242 18.6154 34.9097 18.7103 35.1069 18.7103H36.9574V21.2556H28.031V18.7103H29.8815C30.0787 18.7103 30.2642 18.6154 30.3792 18.4546C30.4946 18.2944 30.525 18.0883 30.4619 17.9014L29.3184 14.5298H29.8815C30.0787 14.5298 30.2642 14.4349 30.3792 14.2742C30.4946 14.1139 30.525 13.9078 30.4619 13.7209L29.3184 10.3498H29.8815C30.0787 10.3498 30.2642 10.2545 30.3792 10.0937C30.4946 9.93343 30.525 9.72735 30.4619 9.54043L29.0441 5.35996C28.9595 5.11135 28.7264 4.94406 28.4637 4.94406H26.7207L26.1328 0.531809C26.0922 0.227596 25.8328 0.000488281 25.5258 0.000488281H23.4744C23.1674 0.000488281 22.9075 0.227596 22.8669 0.531809L22.279 4.94406H20.536C20.2734 4.94406 20.0402 5.11135 19.9561 5.35996L18.5383 9.54043C18.4747 9.72735 18.5056 9.93343 18.621 10.0937C18.7355 10.2545 18.921 10.3498 19.1187 10.3498H19.6813L18.5383 13.7209C18.4747 13.9078 18.5056 14.1139 18.621 14.2742C18.7355 14.4349 18.921 14.5298 19.1187 14.5298H19.6813L18.5383 17.9014C18.4747 18.0883 18.5056 18.2944 18.621 18.4546C18.7355 18.6154 18.921 18.7103 19.1187 18.7103H20.9692V21.2556H12.0423V18.7103H13.8933C14.0905 18.7103 14.276 18.6154 14.391 18.4546C14.5064 18.2944 14.5368 18.0883 14.4732 17.9014L13.3302 14.5298H13.8933C14.0905 14.5298 14.276 14.4349 14.391 14.2742C14.5064 14.1139 14.5368 13.9078 14.4732 13.7209L13.3302 10.3498H13.8933C14.0905 10.3498 14.276 10.2545 14.391 10.0937C14.5064 9.93343 14.5368 9.72735 14.4732 9.54043L13.0559 5.35996C12.9713 5.11135 12.7381 4.94406 12.4755 4.94406H10.7325L10.1446 0.531809C10.104 0.227596 9.84415 0.000488281 9.5376 0.000488281H7.48615C7.1796 0.000488281 6.91978 0.227596 6.87913 0.531809L6.29127 4.94406H4.54823C4.28561 4.94406 4.05243 5.11135 3.96832 5.35996L2.55053 9.54043C2.48697 9.72735 2.51781 9.93343 2.63324 10.0937C2.74773 10.2545 2.93324 10.3498 3.13091 10.3498H3.69354L2.55053 13.7209C2.48697 13.9078 2.51781 14.1139 2.63324 14.2742C2.74773 14.4349 2.93324 14.5298 3.13091 14.5298H3.69354L2.55053 17.9014C2.48697 18.0883 2.51781 18.2944 2.63324 18.4546C2.74773 18.6154 2.93324 18.7103 3.13091 18.7103H4.98142V21.2556H0.612631C0.273838 21.2556 0 21.53 0 21.8683V26.5894C0 26.9273 0.273838 27.2016 0.612631 27.2016H1.24115V43.0543H0.612631C0.273838 43.0543 0 43.3286 0 43.6669V48.388C0 48.7264 0.273838 49.0007 0.612631 49.0007H48.3876C48.7259 49.0007 49.0002 48.7264 49.0002 48.388V43.6669C49.0002 43.3286 48.7259 43.0543 48.3876 43.0543H47.759V27.2016H48.3876C48.7259 27.2016 49.0002 26.9273 49.0002 26.5894V21.8683C49.0002 21.53 48.7259 21.2556 48.3876 21.2556V21.2556ZM39.999 1.22528H40.9771L41.4729 4.94406H39.5032L39.999 1.22528ZM36.9635 6.16932H44.0127L45.0146 9.12453H35.9616L36.9635 6.16932ZM44.0127 10.3498L45.0146 13.305H35.9616L36.9635 10.3498H44.0127ZM36.9635 14.5298H44.0127L45.0146 17.4855H35.9616L36.9635 14.5298ZM38.1826 18.7103H42.7935V21.2556H38.1826V18.7103ZM24.0108 1.22528H24.9894L25.4852 4.94406H23.515L24.0108 1.22528ZM20.9752 6.16932H28.0249L29.0268 9.12453H19.9734L20.9752 6.16932ZM28.0249 10.3498L29.0268 13.305H19.9734L20.9752 10.3498H28.0249ZM20.9752 14.5298H28.0249L29.0268 17.4855H19.9734L20.9752 14.5298ZM22.194 18.7103H26.8058V21.2556H22.194V18.7103ZM8.02308 1.22528H9.00067L9.49648 4.94406H7.52728L8.02308 1.22528ZM4.9875 6.16932H12.0363L13.0381 9.12453H3.98561L4.9875 6.16932ZM12.0363 10.3498L13.0381 13.305H3.98561L4.9875 10.3498H12.0363ZM4.9875 14.5298H12.0363L13.0381 17.4855H3.98561L4.9875 14.5298ZM6.20622 18.7103H10.8175V21.2556H6.20622V18.7103ZM47.7749 47.7754H1.22479V44.2795H47.7749V47.7754ZM46.5338 43.0543H2.46594V27.2016H46.5338V43.0543ZM47.7749 25.9768H1.22479V22.4804H47.7749V25.9768Z" fill="#FECC2F"/>
</g>
</svg>
