<svg width="49" height="49" viewBox="0 0 49 49" fill="none" xmlns="http://www.w3.org/2000/svg">
<g>
<path d="M46.5886 31.937L47.6097 24.222C48.4732 23.2702 49 22.0077 49 20.6245C49 18.3852 47.6191 16.4634 45.6646 15.6632L41.9851 7.15104C41.7072 4.45499 39.4226 2.34521 36.6543 2.34521C34.1937 2.34521 32.1164 4.01265 31.4897 6.27651L23.7817 13.9844H21.5811C21.5791 13.9844 21.5773 13.9847 21.5755 13.9847H19.1885C17.7373 13.9847 16.5566 15.1654 16.5566 16.6166V24.8623H12.646V23.3792C12.646 22.6141 12.0235 21.9915 11.2583 21.9915H6.07294C5.30779 21.9915 4.68524 22.6141 4.68524 23.3792V24.8958C3.43191 25.0966 2.47105 26.1852 2.47105 27.4942V35.7632C0.974258 36.8613 0 38.6319 0 40.6265C0 43.951 2.70476 46.6558 6.0293 46.6558H24.0215C27.346 46.6558 30.0508 43.951 30.0508 40.6265C30.0508 38.6319 29.0765 36.8613 27.5797 35.7631V18.3073L33.7085 12.1786C34.5544 12.7375 35.5667 13.064 36.6543 13.064C37.1871 13.064 37.7016 12.9847 38.1877 12.8393L39.8973 16.7941C38.9012 17.7679 38.2812 19.1248 38.2812 20.6245C38.2812 22.8477 39.6421 24.7586 41.5743 25.5691L40.4478 32.6271L37.1744 35.9005L32.5883 36.222C32.1527 36.2525 31.7872 36.5257 31.6344 36.9346C31.4814 37.3435 31.5783 37.7894 31.887 38.0981L35.4017 41.6128C36.8474 43.0584 38.7464 43.7812 40.6453 43.7812C42.5443 43.7812 44.4433 43.0584 45.889 41.6128C46.5321 40.9697 47.0451 40.2261 47.414 39.4029C47.576 39.0411 47.4142 38.6164 47.0524 38.4544C46.6908 38.2924 46.2661 38.4541 46.1039 38.816C45.8069 39.4792 45.3929 40.0786 44.8739 40.5976C43.7444 41.7271 42.2427 42.3491 40.6454 42.3491C39.0481 42.3491 37.5463 41.7271 36.4169 40.5976L35.4621 39.6429L43.4362 31.6688C43.7024 31.4025 44.136 31.4026 44.4021 31.6687C45.4856 32.7522 46.4705 34.2944 46.6036 35.8578C46.6373 36.2528 46.9841 36.5453 47.3797 36.512C47.7746 36.4783 48.0676 36.1309 48.0339 35.7359C47.9163 34.3555 47.4102 33.0393 46.5886 31.937V31.937ZM34.447 38.6279L33.4217 37.6026L35.6269 37.4481L34.447 38.6279ZM22.2988 15.4202H24.9479C25.2363 15.4202 25.5012 15.5228 25.7081 15.6934C25.974 15.913 26.1438 16.2451 26.1438 16.6162V24.8625H23.4951C22.8354 24.8625 22.2988 24.3259 22.2988 23.6662V15.4202ZM6.12079 23.427H11.2105V24.8622H6.12079V23.427ZM28.6152 40.6265C28.6152 43.1594 26.5545 45.2202 24.0215 45.2202H6.0293C3.49632 45.2202 1.43555 43.1594 1.43555 40.6265C1.43555 38.0935 3.49632 36.0327 6.0293 36.0327H9.15199C9.54849 36.0327 9.86977 35.7114 9.86977 35.3149C9.86977 34.9184 9.54849 34.5972 9.15199 34.5972H6.0293C5.28243 34.5972 4.56734 34.7347 3.9066 34.984V27.4941C3.9066 26.8344 4.44321 26.2978 5.10289 26.2978H16.7002C17.4126 26.2978 17.9922 25.7182 17.9922 25.0058V16.6165C17.9922 15.9568 18.5288 15.4202 19.1885 15.4202H20.8633V23.6662C20.8633 25.1174 22.044 26.2981 23.4951 26.2981H26.1442V34.984C25.4835 34.7347 24.7684 34.5972 24.0215 34.5972H12.5016C12.1051 34.5972 11.7838 34.9184 11.7838 35.3149C11.7838 35.7114 12.1051 36.0327 12.5016 36.0327H24.0215C26.5545 36.0327 28.6152 38.0935 28.6152 40.6265ZM27.5596 16.297C27.4708 15.5671 27.0828 14.9281 26.5213 14.508C26.2773 14.3253 26.0003 14.1845 25.7015 14.095L31.3478 8.44868C31.4953 9.50611 31.9525 10.4652 32.6246 11.2321L27.5596 16.297ZM36.6543 11.6284C34.4907 11.6284 32.7305 9.86815 32.7305 7.70459C32.7305 5.54103 34.4907 3.78076 36.6543 3.78076C38.8179 3.78076 40.5781 5.54103 40.5781 7.70459C40.5781 9.86815 38.8179 11.6284 36.6543 11.6284ZM39.4951 12.246C40.4119 11.6704 41.143 10.8259 41.5762 9.82327L43.932 15.2734C43.8355 15.2682 43.7384 15.2651 43.6405 15.2651C42.7145 15.2651 41.8427 15.5013 41.0818 15.9165L39.4951 12.246ZM45.3217 30.5675C44.3561 29.7104 42.9776 29.9396 42.1776 30.8973L42.9688 25.9403C43.1891 25.968 43.4129 25.984 43.6406 25.984C44.4874 25.984 45.2884 25.7859 46.0011 25.4346L45.3217 30.5675ZM43.6406 24.5483C41.4771 24.5483 39.7168 22.7881 39.7168 20.6245C39.7168 18.461 41.4771 16.7007 43.6406 16.7007C45.8042 16.7007 47.5645 18.461 47.5645 20.6245C47.5645 22.7881 45.8042 24.5483 43.6406 24.5483ZM36.6543 5.21631C35.2822 5.21631 34.166 6.33249 34.166 7.70459C34.166 9.07669 35.2822 10.1929 36.6543 10.1929C38.0264 10.1929 39.1426 9.07669 39.1426 7.70459C39.1426 6.33249 38.0264 5.21631 36.6543 5.21631ZM36.6543 8.75732C36.0739 8.75732 35.6016 8.28503 35.6016 7.70459C35.6016 7.12415 36.0739 6.65186 36.6543 6.65186C37.2347 6.65186 37.707 7.12415 37.707 7.70459C37.707 8.28503 37.2347 8.75732 36.6543 8.75732ZM43.6406 18.1362C42.2685 18.1362 41.1523 19.2524 41.1523 20.6245C41.1523 21.9966 42.2685 23.1128 43.6406 23.1128C45.0127 23.1128 46.1289 21.9966 46.1289 20.6245C46.1289 19.2524 45.0127 18.1362 43.6406 18.1362ZM43.6406 21.6772C43.0602 21.6772 42.5879 21.205 42.5879 20.6245C42.5879 20.0441 43.0602 19.5718 43.6406 19.5718C44.2211 19.5718 44.6934 20.0441 44.6934 20.6245C44.6934 21.205 44.2211 21.6772 43.6406 21.6772ZM15.0254 37.6597C13.3894 37.6597 12.0586 38.9905 12.0586 40.6265C12.0586 42.2624 13.3894 43.5933 15.0254 43.5933C16.6613 43.5933 17.9922 42.2624 17.9922 40.6265C17.9922 38.9905 16.6613 37.6597 15.0254 37.6597ZM15.0254 42.1577C14.1811 42.1577 13.4941 41.4708 13.4941 40.6265C13.4941 39.7822 14.1811 39.0952 15.0254 39.0952C15.8697 39.0952 16.5566 39.7822 16.5566 40.6265C16.5566 41.4708 15.8697 42.1577 15.0254 42.1577ZM23.8301 37.6597C22.1941 37.6597 20.8633 38.9905 20.8633 40.6265C20.8633 42.2624 22.1941 43.5933 23.8301 43.5933C25.466 43.5933 26.7969 42.2624 26.7969 40.6265C26.7969 38.9905 25.466 37.6597 23.8301 37.6597ZM23.8301 42.1577C22.9858 42.1577 22.2988 41.4708 22.2988 40.6265C22.2988 39.7822 22.9858 39.0952 23.8301 39.0952C24.6744 39.0952 25.3613 39.7822 25.3613 40.6265C25.3613 41.4708 24.6744 42.1577 23.8301 42.1577ZM6.2207 37.6597C4.58475 37.6597 3.25391 38.9905 3.25391 40.6265C3.25391 42.2624 4.58475 43.5933 6.2207 43.5933C7.85665 43.5933 9.1875 42.2624 9.1875 40.6265C9.1875 38.9905 7.85665 37.6597 6.2207 37.6597ZM6.2207 42.1577C5.37641 42.1577 4.68945 41.4708 4.68945 40.6265C4.68945 39.7822 5.37641 39.0952 6.2207 39.0952C7.065 39.0952 7.75195 39.7822 7.75195 40.6265C7.75195 41.4708 7.065 42.1577 6.2207 42.1577ZM24.7082 31.7739V29.1213C24.7082 28.3562 24.0857 27.7336 23.3206 27.7336H6.73023C5.96508 27.7336 5.34253 28.3562 5.34253 29.1213V31.7739C5.34253 32.5391 5.96508 33.1616 6.73023 33.1616H23.3206C24.0857 33.1616 24.7082 32.5391 24.7082 31.7739ZM23.2727 31.7261H6.77808V29.1692H23.2727V31.7261Z" fill="#FECC2F"/>
</g>
</svg>
