<svg width="49" height="49" viewBox="0 0 49 49" fill="none" xmlns="http://www.w3.org/2000/svg">
<path d="M46.7031 16.8442H41.65C39.8457 16.8462 38.0749 16.3567 36.5276 15.4284C34.9804 14.5001 33.7152 13.1679 32.8679 11.575L31.9311 9.81847C30.9863 8.0429 29.4364 6.66482 27.5625 5.93427V4.59424C27.5625 3.78201 27.2398 3.00305 26.6655 2.42872C26.0912 1.85439 25.3122 1.53174 24.5 1.53174C23.6878 1.53174 22.9088 1.85439 22.3345 2.42872C21.7602 3.00305 21.4375 3.78201 21.4375 4.59424V5.93427C19.5636 6.66483 18.0137 8.04291 17.0689 9.81847L16.1322 11.575C15.2848 13.1679 14.0196 14.5001 12.4724 15.4284C10.9251 16.3567 9.15433 16.8462 7.34998 16.8442H2.29688C2.09382 16.8442 1.89908 16.9249 1.7555 17.0685C1.61192 17.2121 1.53125 17.4068 1.53125 17.6099V20.6724C1.53125 20.8754 1.61192 21.0702 1.7555 21.2137C1.89908 21.3573 2.09382 21.438 2.29688 21.438H7.32877L4.82308 28.3286H3.82812C3.62507 28.3286 3.43033 28.4093 3.28675 28.5529C3.14317 28.6964 3.0625 28.8912 3.0625 29.0942C3.0625 30.7187 3.70781 32.2766 4.85647 33.4253C6.00513 34.5739 7.56305 35.2192 9.1875 35.2192C10.812 35.2192 12.3699 34.5739 13.5185 33.4253C14.6672 32.2766 15.3125 30.7187 15.3125 29.0942C15.3125 28.8912 15.2318 28.6964 15.0883 28.5529C14.9447 28.4093 14.7499 28.3286 14.5469 28.3286H13.5519L11.0462 21.438H12.9138C15.1392 21.4383 17.2891 20.6305 18.9638 19.1648L20.9787 17.4016C21.125 17.2742 21.2782 17.1548 21.4375 17.044V37.3354L20.1987 39.813H18.375C18.2561 39.813 18.1389 39.8407 18.0326 39.8938C17.9263 39.947 17.8338 40.0242 17.7625 40.1193L15.6953 42.8755H12.25C12.0469 42.8755 11.8522 42.9562 11.7086 43.0997C11.565 43.2433 11.4844 43.4381 11.4844 43.6411V46.7036C11.4844 46.9067 11.565 47.1014 11.7086 47.245C11.8522 47.3886 12.0469 47.4692 12.25 47.4692H36.75C36.9531 47.4692 37.1478 47.3886 37.2914 47.245C37.435 47.1014 37.5156 46.9067 37.5156 46.7036V43.6411C37.5156 43.4381 37.435 43.2433 37.2914 43.0997C37.1478 42.9562 36.9531 42.8755 36.75 42.8755H33.3047L31.2375 40.1193C31.1662 40.0242 31.0737 39.947 30.9674 39.8938C30.8611 39.8407 30.7439 39.813 30.625 39.813H28.8013L27.5625 37.3354V17.044C27.7218 17.1548 27.875 17.2742 28.0213 17.4016H28.0213L30.0363 19.1648C31.7109 20.6305 33.8608 21.4383 36.0862 21.438H37.9538L35.4481 28.3286H34.4531C34.2501 28.3286 34.0553 28.4093 33.9117 28.5529C33.7682 28.6964 33.6875 28.8912 33.6875 29.0942C33.6875 30.7187 34.3328 32.2766 35.4815 33.4253C36.6301 34.5739 38.188 35.2192 39.8125 35.2192C41.437 35.2192 42.9949 34.5739 44.1435 33.4253C45.2922 32.2766 45.9375 30.7187 45.9375 29.0942C45.9375 28.8912 45.8568 28.6964 45.7133 28.5529C45.5697 28.4093 45.3749 28.3286 45.1719 28.3286H44.1769L41.6712 21.438H46.7031C46.9062 21.438 47.1009 21.3573 47.2445 21.2137C47.3881 21.0702 47.4687 20.8754 47.4688 20.6724V17.6099C47.4687 17.4068 47.3881 17.2121 47.2445 17.0685C47.1009 16.9249 46.9062 16.8442 46.7031 16.8442V16.8442ZM22.9688 4.59424C22.9688 4.18813 23.1301 3.79865 23.4172 3.51148C23.7044 3.22432 24.0939 3.06299 24.5 3.06299C24.9061 3.06299 25.2956 3.22432 25.5828 3.51148C25.8699 3.79865 26.0312 4.18813 26.0312 4.59424V5.50033C25.019 5.31304 23.981 5.31304 22.9688 5.50033V4.59424ZM9.1875 33.688C8.10223 33.6866 7.05238 33.3016 6.22346 32.6011C5.39454 31.9007 4.83989 30.9297 4.65754 29.8599H13.7175C13.5351 30.9297 12.9805 31.9007 12.1515 32.6011C11.3226 33.3016 10.2728 33.6866 9.1875 33.688V33.688ZM11.9225 28.3286H6.45248L8.95817 21.438H9.41683L11.9225 28.3286ZM35.9844 45.938H13.0156V44.4067H35.9844V45.938ZM31.3906 42.8755H17.6094L18.7578 41.3442H30.2422L31.3906 42.8755ZM26.1121 37.8586L27.0893 39.813H21.9107L22.8879 37.8586C22.9411 37.7522 22.9688 37.635 22.9688 37.5161V16.3039C23.9675 16.0035 25.0325 16.0035 26.0312 16.3039V37.5161C26.0312 37.635 26.0589 37.7522 26.1121 37.8586V37.8586ZM39.8125 33.688C38.7272 33.6866 37.6774 33.3016 36.8485 32.6011C36.0195 31.9007 35.4649 30.9297 35.2825 29.8599H44.3425C44.1601 30.9297 43.6055 31.9007 42.7765 32.6011C41.9476 33.3016 40.8978 33.6866 39.8125 33.688V33.688ZM42.5475 28.3286H37.0775L39.5832 21.438H40.0418L42.5475 28.3286ZM45.9375 19.9067H36.0862C34.2317 19.907 32.4401 19.2338 31.0446 18.0124L29.0296 16.2493H29.0296C27.7757 15.1521 26.1661 14.5474 24.5 14.5474C22.8338 14.5474 21.2243 15.1521 19.9704 16.2493L17.9554 18.0124C16.5599 19.2338 14.7683 19.907 12.9138 19.9067H3.0625V18.3755H7.34998C9.43193 18.3778 11.4752 17.813 13.2604 16.7419C15.0457 15.6707 16.5055 14.1336 17.4833 12.2955L18.42 10.539C19.0077 9.4371 19.8839 8.5156 20.9548 7.87306C22.0257 7.23053 23.2511 6.89111 24.5 6.89111C25.7489 6.89111 26.9743 7.23053 28.0452 7.87306C29.1161 8.5156 29.9922 9.4371 30.58 10.539L31.5167 12.2955C32.4945 14.1336 33.9543 15.6707 35.7396 16.7419C37.5248 17.813 39.5681 18.3778 41.65 18.3755H45.9375V19.9067Z" fill="#FECC2F"/>
<path d="M24.5 8.42236C24.0457 8.42236 23.6016 8.55707 23.2239 8.80946C22.8462 9.06184 22.5518 9.42056 22.378 9.84026C22.2041 10.26 22.1586 10.7218 22.2473 11.1673C22.3359 11.6129 22.5546 12.0221 22.8759 12.3434C23.1971 12.6646 23.6064 12.8834 24.0519 12.972C24.4975 13.0606 24.9593 13.0151 25.379 12.8413C25.7987 12.6674 26.1574 12.373 26.4098 11.9953C26.6622 11.6176 26.7969 11.1735 26.7969 10.7192C26.7962 10.1103 26.554 9.52646 26.1234 9.09586C25.6928 8.66526 25.109 8.42305 24.5 8.42236V8.42236ZM24.5 11.4849C24.3486 11.4849 24.2006 11.44 24.0746 11.3558C23.9487 11.2717 23.8506 11.1521 23.7927 11.0122C23.7347 10.8723 23.7195 10.7184 23.7491 10.5699C23.7786 10.4214 23.8515 10.2849 23.9586 10.1779C24.0657 10.0708 24.2021 9.99787 24.3506 9.96832C24.4992 9.93878 24.6531 9.95394 24.793 10.0119C24.9329 10.0698 25.0525 10.168 25.1366 10.2939C25.2207 10.4198 25.2656 10.5678 25.2656 10.7192C25.2654 10.9222 25.1847 11.1168 25.0411 11.2604C24.8976 11.4039 24.703 11.4846 24.5 11.4849V11.4849Z" fill="#FECC2F"/>
</svg>
