<svg width="49" height="49" viewBox="0 0 49 49" fill="none" xmlns="http://www.w3.org/2000/svg">
<g>
<path d="M24.4999 4.90044C24.9509 4.90044 25.3165 4.53478 25.3165 4.08378V0.817147C25.3165 0.366147 24.9509 0.000488281 24.4999 0.000488281C24.0489 0.000488281 23.6832 0.366147 23.6832 0.817147V4.08378C23.6832 4.53478 24.0488 4.90044 24.4999 4.90044Z" fill="#FECC2F"/>
<path d="M14.4011 3.74241L16.0344 6.5705C16.2574 6.9626 16.7559 7.09969 17.148 6.87674C17.5401 6.6538 17.6772 6.15523 17.4543 5.76313C17.4526 5.75996 17.4507 5.7569 17.4489 5.75374L15.8156 2.92565C15.5926 2.53355 15.0941 2.39646 14.702 2.6194C14.3099 2.84235 14.1728 3.34092 14.3957 3.73302C14.3974 3.73618 14.3993 3.73935 14.4011 3.74241Z" fill="#FECC2F"/>
<path d="M7.81602 10.9106C7.81909 10.9124 7.82225 10.9141 7.82541 10.916L10.6535 12.5493C11.0426 12.7773 11.5429 12.6469 11.771 12.2577C11.999 11.8686 11.8686 11.3683 11.4795 11.1403C11.4764 11.1384 11.4732 11.1367 11.4701 11.1348L8.64197 9.50153C8.25283 9.27348 7.75253 9.40394 7.52448 9.79307C7.29642 10.1821 7.42689 10.6825 7.81602 10.9106Z" fill="#FECC2F"/>
<path d="M9.8001 19.6003C9.8001 19.1493 9.43444 18.7836 8.98344 18.7836H5.7168C5.26581 18.7836 4.90015 19.1493 4.90015 19.6003C4.90015 20.0513 5.26581 20.417 5.7168 20.417H8.98344C9.43444 20.417 9.8001 20.0513 9.8001 19.6003Z" fill="#FECC2F"/>
<path d="M10.6631 26.6457C10.6599 26.6476 10.6567 26.6494 10.6536 26.6512L7.82548 28.2846C7.43338 28.5074 7.29618 29.006 7.51903 29.3981C7.74187 29.7902 8.24044 29.9274 8.63254 29.7045C8.6357 29.7027 8.63887 29.7009 8.64203 29.699L11.4701 28.0657C11.8622 27.8429 11.9994 27.3443 11.7766 26.9522C11.5537 26.5601 11.0552 26.4229 10.6631 26.6457Z" fill="#FECC2F"/>
<path d="M41.1839 28.2902C41.1808 28.2883 41.1776 28.2865 41.1745 28.2846L38.3464 26.6513C37.9573 26.4232 37.4569 26.5536 37.2288 26.9427C37.0006 27.3317 37.1311 27.8321 37.5201 28.0603C37.5233 28.0621 37.5264 28.0639 37.5296 28.0658L40.3577 29.6991C40.7467 29.9272 41.2471 29.7968 41.4753 29.4077C41.7034 29.0186 41.573 28.5183 41.1839 28.2902Z" fill="#FECC2F"/>
<path d="M43.2831 18.7836H40.0165C39.5655 18.7836 39.1998 19.1493 39.1998 19.6003C39.1998 20.0513 39.5655 20.417 40.0165 20.417H43.2831C43.7341 20.417 44.0998 20.0513 44.0998 19.6003C44.0998 19.1493 43.7341 18.7836 43.2831 18.7836Z" fill="#FECC2F"/>
<path d="M37.9389 12.6587C38.0823 12.6587 38.2231 12.6209 38.3473 12.5492L41.1754 10.9159C41.5675 10.693 41.7046 10.1944 41.4816 9.8023C41.2587 9.4102 40.7601 9.2731 40.368 9.49605C40.3648 9.49779 40.3618 9.49962 40.3586 9.50146L37.5305 11.1348C37.1399 11.3603 37.0061 11.8598 37.2316 12.2503C37.3776 12.503 37.6472 12.6587 37.9389 12.6587Z" fill="#FECC2F"/>
<path d="M31.8489 6.86972C31.8492 6.86992 31.8495 6.87013 31.8498 6.87023C32.2405 7.09553 32.74 6.96149 32.9653 6.57072C32.9653 6.57062 32.9654 6.57052 32.9654 6.57052L34.5987 3.74243C34.8268 3.35339 34.6964 2.85299 34.3073 2.62483C33.9183 2.39668 33.4179 2.52714 33.1897 2.91618C33.1879 2.91934 33.1861 2.92251 33.1842 2.92567L31.5509 5.75376C31.3251 6.14422 31.4585 6.64381 31.8489 6.86972Z" fill="#FECC2F"/>
<path d="M26.1333 32.6668C26.5843 32.6668 26.9499 32.3011 26.9499 31.8501V22.8669H28.5832C30.3873 22.8669 31.8499 21.4044 31.8499 19.6003C31.8499 17.7962 30.3873 16.3336 28.5832 16.3336C26.7791 16.3336 25.3166 17.7962 25.3166 19.6003V21.2336H23.6833V19.6003C23.6833 17.7962 22.2208 16.3336 20.4167 16.3336C18.6126 16.3336 17.15 17.7962 17.15 19.6003C17.15 21.4044 18.6126 22.8669 20.4167 22.8669H22.05V31.8501C22.05 32.3011 22.4156 32.6668 22.8666 32.6668C23.3176 32.6668 23.6833 32.3011 23.6833 31.8501V22.8669H25.3166V31.8501C25.3166 32.3011 25.6822 32.6668 26.1333 32.6668ZM26.9499 19.6003C26.9499 18.6981 27.6811 17.9669 28.5832 17.9669C29.4853 17.9669 30.2165 18.6981 30.2165 19.6003C30.2165 20.5024 29.4853 21.2336 28.5832 21.2336H26.9499V19.6003ZM22.05 21.2336H20.4167C19.5146 21.2336 18.7833 20.5024 18.7833 19.6003C18.7833 18.6981 19.5146 17.9669 20.4167 17.9669C21.3188 17.9669 22.05 18.6981 22.05 19.6003V21.2336Z" fill="#FECC2F"/>
<path d="M25.1345 6.54926C17.9264 6.203 11.8023 11.7656 11.456 18.9737C11.2577 23.1011 13.0234 27.079 16.2174 29.7007C16.7931 30.1516 17.1356 30.8374 17.1501 31.5684V33.4835C17.1543 34.518 17.808 35.4383 18.7834 35.7832V36.7501C18.7855 37.3547 19.0125 37.937 19.4204 38.3834C18.571 39.3066 18.571 40.7268 19.4204 41.65C18.5124 42.6453 18.5833 44.1882 19.5786 45.0961C20.0307 45.5085 20.6214 45.736 21.2333 45.7333C21.6729 45.7449 22.0387 45.3978 22.0501 44.9582C22.0546 44.7867 22.0036 44.6183 21.9046 44.4781C21.8788 44.4282 21.8482 44.3808 21.8132 44.3368C21.746 44.2754 21.6693 44.2252 21.5861 44.1882C21.5625 44.176 21.5388 44.1662 21.5143 44.1564C21.4316 44.1262 21.3449 44.1089 21.257 44.1049C21.2489 44.1049 21.2415 44.1 21.2333 44.1C20.7823 44.1 20.4167 43.7344 20.4167 43.2834C20.4167 42.8324 20.7823 42.4667 21.2333 42.4667H24.5C24.951 42.4667 25.3166 42.101 25.3166 41.65C25.3166 41.199 24.951 40.8334 24.5 40.8334H21.2333C20.7823 40.8334 20.4167 40.4677 20.4167 40.0167C20.4167 39.5657 20.7823 39.2001 21.2333 39.2001H24.5C24.951 39.2001 25.3166 38.8344 25.3166 38.3834C25.3166 37.9324 24.951 37.5667 24.5 37.5667H21.2333C20.7823 37.5667 20.4167 37.2011 20.4167 36.7501V35.9334H24.5C24.951 35.9334 25.3166 35.5678 25.3166 35.1168C25.3166 34.6658 24.951 34.3001 24.5 34.3001H19.6C19.149 34.3001 18.7834 33.9345 18.7834 33.4835V31.5684C18.77 30.3473 18.2076 29.197 17.2521 28.4365C12.3738 24.4273 11.6694 17.2226 15.6785 12.3443C17.9719 9.55375 21.449 8.01108 25.0569 8.1834C31.0907 8.54232 35.8303 13.4873 35.9332 19.5309C35.9625 23.007 34.3995 26.3053 31.6907 28.4839C30.7423 29.265 30.2 30.4346 30.2166 31.6631V33.4835C30.2166 33.9345 29.8509 34.3001 29.3999 34.3001H26.95C26.499 34.3001 26.1333 34.6658 26.1333 35.1168C26.1333 35.5678 26.499 35.9334 26.95 35.9334H28.5833V36.7501C28.5833 37.2011 28.2176 37.5667 27.7666 37.5667H26.95C26.499 37.5667 26.1333 37.9324 26.1333 38.3834C26.1333 38.8344 26.499 39.2001 26.95 39.2001H27.7666C28.2176 39.2001 28.5833 39.5657 28.5833 40.0167C28.5833 40.4677 28.2176 40.8334 27.7666 40.8334H26.95C26.499 40.8334 26.1333 41.199 26.1333 41.65C26.1333 42.101 26.499 42.4667 26.95 42.4667H27.7666C28.2176 42.4667 28.5833 42.8324 28.5833 43.2834C28.5833 43.7344 28.2176 44.1 27.7666 44.1H23.6833C23.2323 44.1 22.8667 44.4657 22.8667 44.9167C22.8667 45.3677 23.2323 45.7333 23.6833 45.7333H26.8103C26.3594 47.009 24.9597 47.6777 23.6839 47.2268C23.2934 47.0888 22.9442 46.8539 22.669 46.5443C22.3691 46.2074 21.8528 46.1774 21.5159 46.4773C21.179 46.7772 21.149 47.2936 21.4489 47.6304C22.9425 49.3135 25.5176 49.4671 27.2007 47.9736C27.8958 47.3567 28.3592 46.5208 28.5139 45.6043C29.7928 45.2045 30.5056 43.8437 30.1059 42.5647C29.9998 42.2249 29.82 41.9126 29.5796 41.65C30.4289 40.7268 30.4289 39.3066 29.5796 38.3834C29.9874 37.937 30.2144 37.3547 30.2166 36.7501V35.7832C31.192 35.4383 31.8456 34.518 31.8499 33.4835V31.6631C31.839 30.9295 32.1569 30.2293 32.7164 29.7546C35.814 27.2643 37.601 23.493 37.5665 19.5186C37.4485 12.6109 32.031 6.95933 25.1345 6.54926Z" fill="#FECC2F"/>
</g>
</svg>
