<svg width="82" height="82" viewBox="0 0 82 82" fill="none" xmlns="http://www.w3.org/2000/svg">
<g>
<path d="M71.8737 47.6226H64.1862C63.5227 47.6226 62.985 48.1604 62.985 48.8238C62.985 49.4872 63.5227 50.025 64.1862 50.025H71.8737C72.5372 50.025 73.0749 49.4872 73.0749 48.8238C73.0749 48.1604 72.5372 47.6226 71.8737 47.6226Z" fill="#FECC2F"/>
<path d="M71.8737 52.5603H64.1862C63.5227 52.5603 62.985 53.0981 62.985 53.7615C62.985 54.4248 63.5227 54.9626 64.1862 54.9626H71.8737C72.5372 54.9626 73.0749 54.4248 73.0749 53.7615C73.0749 53.0981 72.5372 52.5603 71.8737 52.5603Z" fill="#FECC2F"/>
<path d="M71.8737 42.6854H64.1862C63.5227 42.6854 62.985 43.2232 62.985 43.8866C62.985 44.55 63.5227 45.0878 64.1862 45.0878H71.8737C72.5372 45.0878 73.0749 44.55 73.0749 43.8866C73.0749 43.2232 72.5372 42.6854 71.8737 42.6854Z" fill="#FECC2F"/>
<path d="M54.302 41.1232C53.2307 41.1232 52.3591 41.9947 52.3591 43.066V44.2043H49.5407C48.4695 44.2043 47.598 45.0758 47.598 46.1469V47.1742H44.7719C43.7007 47.1742 42.8292 48.0458 42.8292 49.1169V54.7422C42.8292 55.7253 43.6288 56.5249 44.6117 56.5249H57.7479C58.7308 56.5249 59.5304 55.7253 59.5304 54.7422V43.066C59.5304 41.9947 58.659 41.1232 57.5877 41.1232H54.302ZM47.598 54.1226H45.2315V49.5765H47.598V54.1226ZM52.3591 54.1226H50.0003C50.0003 52.6608 50.0003 48.0969 50.0003 46.6066H52.3591V54.1226ZM57.1279 54.1226H54.7691C54.7691 46.3536 54.7613 43.8836 54.7613 43.5255H57.1278V54.1226H57.1279Z" fill="#FECC2F"/>
<path d="M2.95407 76.3255H23.2493C23.9128 76.3255 24.4505 75.7877 24.4505 75.1243C24.4505 74.461 23.9128 73.9232 23.2493 73.9232H10.9069V57.7864C10.9069 57.123 10.3693 56.5852 9.70575 56.5852C9.04223 56.5852 8.50458 57.123 8.50458 57.7864V73.9232H2.95407C2.64994 73.9232 2.40233 73.6757 2.40233 73.3714V56.3698C2.40233 52.5687 5.09423 50.077 6.90959 49.3254L14.7201 46.275L19.3686 50.9234C21.073 52.6282 23.4495 53.6931 26.052 53.693C28.5609 53.6928 30.9605 52.6979 32.7356 50.9235L37.3187 46.3404V62.2376C37.3187 63.9373 38.7014 65.3201 40.401 65.3201H41.1972V73.9235H28.8548C28.1912 73.9235 27.6536 74.4613 27.6536 75.1247C27.6536 75.788 28.1912 76.3258 28.8548 76.3258H49.15C50.7789 76.3258 52.1041 75.0007 52.1041 73.3718V65.3201H57.0897V69.0035C55.604 69.5059 54.5307 70.9124 54.5307 72.5657C54.5307 74.6391 56.2175 76.3258 58.2909 76.3258C60.3643 76.3258 62.051 74.6391 62.051 72.5657C62.051 70.9124 60.978 69.5059 59.492 69.0035V65.3201H76.1806C77.8802 65.3201 79.2629 63.9373 79.2629 62.2376V51.6269C79.2629 50.9636 78.7253 50.4258 78.0618 50.4258C77.3982 50.4258 76.8606 50.9636 76.8606 51.6269V62.2376C76.8606 62.6127 76.5555 62.9178 76.1806 62.9178H50.9029H40.4012C40.0263 62.9178 39.7212 62.6127 39.7212 62.2376C39.7212 61.4808 39.7212 34.9113 39.7212 34.1546H76.8606V46.0215C76.8606 46.6849 77.3982 47.2227 78.0618 47.2227C78.7253 47.2227 79.2629 46.6849 79.2629 46.0215V34.1546H79.2637C80.7726 34.1546 82 32.927 82 31.4182V29.103C82 27.5942 80.7726 26.3667 79.2637 26.3667H41.3996C41.1536 25.057 40.4125 23.8893 39.3598 23.125C39.4747 22.8053 39.5405 22.4625 39.5405 22.1037V14.345C39.5405 11.8039 37.3388 9.9386 35.0675 10.113C34.7848 10.135 34.4669 9.99017 34.4046 9.67211C33.8785 6.98229 32.1886 5.67462 29.2383 5.67462H19.0444C14.6467 5.67462 11.069 9.25234 11.069 13.6501V21.0846C11.069 22.1263 11.4643 23.0773 12.1122 23.7961C11.1784 24.7426 10.6126 26.0165 10.6126 27.3281C10.6126 29.7771 12.524 31.9563 15.2223 32.2605C15.6083 35.0193 17.0878 37.6857 19.4668 39.4604V41.8419C18.1155 42.3698 7.4554 46.533 6.02425 47.092C6.01753 47.0947 6.0108 47.0974 6.00407 47.1002C3.11246 48.2903 0 51.6987 0 56.3698V73.3716C0 75.0004 1.32513 76.3255 2.95407 76.3255ZM58.2909 71.2077C59.0396 71.2077 59.6487 71.8168 59.6487 72.5655C59.6487 73.3143 59.0396 73.9233 58.2909 73.9233C57.5422 73.9233 56.9331 73.3143 56.9331 72.5655C56.9331 71.8168 57.5422 71.2077 58.2909 71.2077ZM43.5995 65.3199H49.7017V73.3716C49.7017 73.6757 49.4541 73.9233 49.15 73.9233H43.5996V65.3199H43.5995ZM22.9163 50.5541C24.3494 49.1112 23.8289 49.6353 25.2665 48.1881C25.2681 48.1865 25.2694 48.1847 25.2708 48.1831C25.3767 48.0758 25.4769 47.9411 25.5383 47.8418H26.5453C26.6097 47.9471 26.713 48.083 26.8174 48.1881L29.1741 50.5606C27.2055 51.5363 24.8829 51.5337 22.9163 50.5541ZM21.8675 42.1288C21.8686 42.0983 21.8693 42.0677 21.8693 42.0368V40.8035C24.3472 41.7923 27.4364 41.9528 30.2279 40.8224L30.2291 42.046C30.2291 42.0689 30.2295 42.0918 30.2303 42.1147C28.837 43.4981 28.234 44.0968 26.8816 45.4395H25.2024C24.3569 44.6004 22.5473 42.8038 21.8675 42.1288ZM31.1354 49.1263C30.9048 48.8942 29.1382 47.1157 28.8727 46.8482L31.658 44.0828C33.3513 44.7387 33.2587 44.7028 34.9166 45.3448L31.1354 49.1263ZM37.3188 43.6989L32.6314 41.8837L32.6293 39.4729C34.4363 38.1255 35.8092 36.2269 36.4961 34.0279C36.7557 34.1099 37.0317 34.1546 37.318 34.1546H37.3188V43.6989ZM79.2637 28.7687C79.4478 28.7687 79.5977 28.9186 79.5977 29.1027V31.4179C79.5977 31.6021 79.4478 31.752 79.2637 31.752C77.2453 31.752 39.3759 31.752 37.318 31.752C37.134 31.752 36.9841 31.6021 36.9841 31.4179C36.9841 30.0977 36.9841 30.3833 36.9841 29.1027C36.9841 28.9185 37.134 28.7686 37.318 28.7686C39.794 28.7687 76.8196 28.7687 79.2637 28.7687ZM37.6843 24.8997C38.2474 25.2123 38.6896 25.745 38.9181 26.3662H37.318C37.2091 26.3662 37.0574 26.3775 36.9841 26.3864V25.1001C37.2221 25.0624 37.4928 24.9809 37.6843 24.8997ZM15.1201 29.8101C13.9236 29.525 13.0149 28.5312 13.0149 27.328C13.0149 26.4492 13.5453 25.5647 14.3419 25.0619C14.5312 25.0989 14.725 25.1234 14.9225 25.133C14.9883 25.1364 15.0541 25.138 15.12 25.1382V29.8101H15.1201ZM15.1225 22.7357C14.2324 22.7357 13.4713 22.0099 13.4713 21.0845V13.6501C13.4713 10.577 15.9714 8.07696 19.0444 8.07696H29.2383C31.4637 8.07696 31.8269 9.00826 32.047 10.1332C32.3349 11.6057 33.7147 12.6263 35.2517 12.5083C36.1415 12.4404 37.138 13.2192 37.138 14.345V22.1032C37.138 22.4488 36.8396 22.7357 36.5056 22.7357C35.2264 22.7357 34.2086 21.6791 34.2086 20.4387C34.2086 19.0016 32.2802 18.5286 31.6088 19.7856C30.636 21.6051 28.7519 22.7355 26.6923 22.7355C25.0141 22.7357 16.8035 22.7357 15.1225 22.7357ZM17.5225 30.8158V25.138H26.6923C28.8463 25.138 30.907 24.2676 32.4035 22.7296C32.895 23.6063 33.6604 24.3086 34.5818 24.7239V30.8157C34.5818 35.4966 30.7564 39.2064 26.1909 39.2064C20.9586 39.2066 17.5225 35.1405 17.5225 30.8158ZM20.3997 44.0567C22.2253 45.8694 21.5305 45.1796 23.2114 46.8484C21.9919 48.076 22.4335 47.6315 20.9588 49.1162L17.1634 45.3208L20.3997 44.0567Z" fill="#FECC2F"/>
</g>
</svg>
