<svg width="49" height="49" viewBox="0 0 49 49" fill="none" xmlns="http://www.w3.org/2000/svg">
<g>
<path d="M31.6002 23.7008C31.6002 22.4125 30.5534 21.3644 29.2667 21.3644H26.1553C24.8672 21.3644 23.819 22.4125 23.819 23.7008C23.819 24.9875 24.8671 26.0344 26.1553 26.0344H29.2667C30.5534 26.0344 31.6002 24.9875 31.6002 23.7008ZM25.2547 23.7008C25.2547 23.2041 25.6587 22.7999 26.1554 22.7999H29.2667C29.7619 22.7999 30.1647 23.2041 30.1647 23.7008C30.1647 24.196 29.7619 24.5989 29.2667 24.5989H26.1554C25.6587 24.5989 25.2547 24.196 25.2547 23.7008Z" fill="#FECC2F"/>
<path d="M46.8505 24.2V22.2248C47.6662 22.1212 48.2995 21.4232 48.2995 20.5785V18.5307C48.2995 17.6148 47.5556 16.8697 46.6413 16.8697H40.4778C40.1474 15.6294 39.7717 14.5675 39.3551 13.6972C40.0441 13.4801 40.6209 13.0213 40.9898 12.3929C41.3842 11.7212 41.493 10.9379 41.2965 10.189C41.1015 9.43883 40.6247 8.80862 39.9539 8.41452C39.4429 8.1142 38.8669 7.97954 38.2899 8.0183C37.4635 6.42303 35.833 5.30005 33.9353 5.03198C32.9752 3.19525 30.9249 1.98824 28.6954 1.98824C28.0762 1.98824 27.4739 2.07581 26.8983 2.24894C25.8139 0.849279 24.0525 0.000488281 22.1665 0.000488281C20.2797 0.000488281 18.5191 0.849279 17.4371 2.24865C16.8615 2.07562 16.2595 1.98815 15.6405 1.98815C13.374 1.98815 11.3639 3.16951 10.3996 5.03198C8.50185 5.30024 6.87193 6.42341 6.04573 8.01869C4.68186 7.92844 3.39657 8.81685 3.03663 10.1889C2.71086 11.4421 3.25962 12.722 4.30231 13.3816C3.05175 15.9102 2.17272 20.1065 1.80685 25.3486C1.77928 25.7441 2.07749 26.087 2.47294 26.1146C2.48998 26.1158 2.50682 26.1164 2.52366 26.1164C2.89729 26.1164 3.21253 25.827 3.23895 25.4485C3.59515 20.3435 4.47093 16.1799 5.66177 13.8739C11.212 15.2727 16.6896 15.9743 22.1676 15.9743C27.4009 15.9743 32.6348 15.3345 37.9316 14.0577C38.318 14.8045 38.6722 15.7458 38.9896 16.8696H38.1823C37.2664 16.8696 36.5213 17.6147 36.5213 18.5306V20.5784C36.5213 21.4223 37.1544 22.1197 37.9704 22.2243V24.0985H34.7663V20.8574C34.7663 19.3912 33.5736 18.1983 32.1074 18.1983H23.3149C21.8473 18.1983 20.6532 19.3912 20.6532 20.8574V39.6444H3.44586C3.12085 36.0014 2.99347 32.3744 3.07635 28.9484C3.08601 28.5521 2.77249 28.2231 2.37618 28.2135C1.98103 28.204 1.65095 28.5174 1.64128 28.9137C1.55218 32.5974 1.70196 36.5085 2.07615 40.4241C2.07682 40.4314 2.07749 40.4388 2.07836 40.446C2.19846 41.7003 2.34125 42.9548 2.50701 44.2025C1.26019 44.2679 0.26593 45.3041 0.26593 46.5684C0.26593 47.8747 1.32747 48.9375 2.63229 48.9375H22.6981C22.8812 48.9785 23.0679 49.0004 23.2548 49.0004H46.1327C47.5672 49.0004 48.7342 47.8334 48.7342 46.3988V44.6244V26.7C48.7341 25.5146 47.9368 24.5125 46.8505 24.2V24.2ZM10.9295 6.41834C11.1995 6.39891 11.4357 6.22913 11.5401 5.97935C12.1792 4.45078 13.8271 3.42369 15.6405 3.42369C16.2726 3.42369 16.8791 3.54093 17.4436 3.77205C17.77 3.90575 18.1452 3.78248 18.3286 3.48121C19.097 2.21975 20.5677 1.43604 22.1665 1.43604C23.7647 1.43604 25.2365 2.22004 26.0077 3.48207C26.1914 3.78277 26.5662 3.90556 26.8922 3.77205C27.4566 3.54083 28.0633 3.42369 28.6952 3.42369C30.5087 3.42369 32.1565 4.45068 32.7956 5.97935C32.9 6.22913 33.1362 6.39891 33.4063 6.41834C34.8407 6.5217 36.1027 7.25191 36.8163 8.34092C26.9699 10.7539 17.3658 10.7539 7.51937 8.34092C8.23302 7.25191 9.49506 6.5217 10.9295 6.41834ZM38.8518 12.3487C27.6253 15.2672 16.7105 15.2673 5.485 12.349C4.69679 12.1427 4.22172 11.3358 4.42547 10.5516C4.59946 9.88834 5.2 9.44734 5.8549 9.44734C5.97701 9.44734 6.10105 9.46266 6.2245 9.49481H6.22441C11.5892 10.8904 16.8776 11.588 22.168 11.5878C27.457 11.5877 32.7479 10.89 38.1113 9.49481C38.4905 9.39624 38.8864 9.45213 39.2267 9.65205C39.567 9.85198 39.8086 10.171 39.9076 10.5516C40.0068 10.9301 39.9515 11.3258 39.7519 11.6659C39.5517 12.0067 39.2317 12.2493 38.8518 12.3487V12.3487ZM37.9568 20.5785V18.5307C37.9568 18.4085 38.06 18.3052 38.1822 18.3052H39.9182C39.919 18.3052 39.9197 18.3054 39.9204 18.3054C39.9215 18.3054 39.9225 18.3052 39.9235 18.3052H46.6411C46.7618 18.3052 46.8638 18.4085 46.8638 18.5307V20.5785C46.8638 20.7007 46.7618 20.804 46.6411 20.804H46.1326H38.688H38.1822C38.06 20.804 37.9568 20.7007 37.9568 20.5785ZM45.4149 22.2395V24.0985H39.4057V22.2395H45.4149ZM1.70138 46.5685C1.70138 46.0537 2.11893 45.6349 2.63219 45.6349H3.32939C3.53725 45.6349 3.73488 45.5448 3.87126 45.3878C4.00754 45.2308 4.06917 45.0226 4.04008 44.8167C3.86504 43.5771 3.71373 42.329 3.58453 41.0799H20.6532V44.6246V46.399C20.6532 46.79 20.7428 47.1643 20.902 47.5021H2.63219C2.11893 47.5021 1.70138 47.0833 1.70138 46.5685V46.5685ZM46.1327 47.5649H23.2547C23.1561 47.5649 23.0613 47.5524 22.9624 47.5259C22.448 47.3899 22.0887 46.9265 22.0887 46.399V45.3423H33.1517C33.5481 45.3423 33.8695 45.021 33.8695 44.6246C33.8695 44.2282 33.5481 43.9068 33.1517 43.9068H22.0887V20.8574C22.0887 20.1827 22.6387 19.6339 23.3149 19.6339H32.1074C32.7819 19.6339 33.3308 20.1827 33.3308 20.8574V24.8163C33.3308 25.2127 33.6522 25.5341 34.0486 25.5341H38.6882H46.1328C46.7757 25.5341 47.2987 26.0571 47.2987 26.7V43.9068H36.49C36.0936 43.9068 35.7723 44.2282 35.7723 44.6246C35.7723 45.021 36.0936 45.3423 36.49 45.3423H47.2987V46.399C47.2986 47.0419 46.7755 47.5649 46.1327 47.5649Z" fill="#FECC2F"/>
<path d="M41.9413 31.9124C41.7752 31.5071 41.5775 31.0978 41.1527 30.936C40.7417 30.7793 40.3964 30.9478 40.1188 31.0831C39.6787 31.2978 38.9421 31.6571 37.1202 31.2922C36.8795 31.2438 36.6354 31.2212 36.3905 31.2186C35.3864 29.3425 33.3144 28.247 31.3785 28.6346C31.3784 28.6346 31.3783 28.6346 31.3782 28.6347C29.5544 29.001 28.8173 28.6421 28.3768 28.4278C28.0993 28.2926 27.7539 28.1246 27.343 28.2812C26.9184 28.4433 26.7208 28.8525 26.5543 29.2587C26.0134 30.5844 26.3326 32.4454 27.408 34.2368C28.3308 35.7738 29.9721 37.4756 31.9192 37.8834C32.0412 38.1577 32.1911 38.4262 32.3699 38.6859C31.933 39.3742 31.5488 40.1811 31.2372 41.1651C31.1175 41.543 31.3269 41.9464 31.7047 42.0661C31.7768 42.089 31.8498 42.0998 31.9217 42.0998C32.2263 42.0998 32.5089 41.9044 32.6057 41.5986C32.8281 40.8967 33.088 40.3038 33.3819 39.7853C34.0861 40.3502 34.8817 40.6375 35.7274 40.6374C36.5074 40.6374 37.3296 40.3942 38.1607 39.9028C40.7301 38.3832 42.9896 34.4804 41.9413 31.9124V31.9124ZM32.0101 32.0597C31.7011 31.8114 31.2492 31.8606 31.001 32.1697C30.7527 32.4787 30.8019 32.9305 31.1109 33.1788C31.4334 33.4378 31.7602 33.686 32.0778 33.9267C31.681 34.679 31.501 35.4714 31.5332 36.2545C30.4823 35.7912 29.4165 34.7934 28.6386 33.4978C27.8074 32.1131 27.518 30.6965 27.883 29.8019C27.8851 29.7966 27.8873 29.7914 27.8894 29.7864C28.4834 30.0666 29.5407 30.4677 31.6604 30.0422C32.8149 29.8109 34.0941 30.4166 34.8609 31.4748C34.7855 31.5018 34.7131 31.5335 34.6423 31.5675C34.0067 31.832 33.413 32.2377 32.9153 32.7601C32.615 32.5325 32.3072 32.2985 32.0101 32.0597V32.0597ZM34.2045 38.6041C34.904 37.7747 35.7291 37.132 36.6558 36.4109C36.8951 36.2247 37.1389 36.035 37.386 35.8378C37.6958 35.5905 37.7465 35.1388 37.4992 34.829C37.2519 34.5192 36.8004 34.4684 36.4904 34.7157C36.248 34.9093 36.0089 35.0952 35.7742 35.2779C34.9047 35.9544 34.0584 36.6134 33.3033 37.4564C32.6125 36.1002 33.1556 34.8989 33.4586 34.3988C34.113 33.3185 35.2411 32.6499 36.332 32.6499C36.5021 32.6499 36.6713 32.6662 36.8375 32.6997C36.8377 32.6997 36.838 32.6998 36.8382 32.6998C38.9559 33.124 40.0129 32.7222 40.6066 32.4416C40.6085 32.4463 40.6105 32.451 40.6125 32.4558C41.3043 34.1505 39.6683 37.3433 37.4297 38.6672C36.1922 39.3992 35.1101 39.3768 34.2045 38.6041V38.6041Z" fill="#FECC2F"/>
</g>
</svg>
