<svg width="49" height="49" viewBox="0 0 49 49" fill="none" xmlns="http://www.w3.org/2000/svg">
<g>
<path d="M40.9373 17.6423H30.379V9.77561H31.8326V12.9893C31.8326 14.6332 33.17 15.9706 34.8138 15.9706H34.8142C36.4581 15.9706 37.7954 14.6331 37.7954 12.9893V9.77561H39.3523C39.7488 9.77561 40.0701 9.45433 40.0701 9.05783C40.0701 8.66133 39.7488 8.34006 39.3523 8.34006H37.7954V4.11448C38.3505 3.98997 38.7667 3.49404 38.7667 2.90202V1.24386C38.7667 0.558246 38.209 0.000488281 37.5233 0.000488281H32.1046C31.419 0.000488281 30.8613 0.558246 30.8613 1.24386V2.90192C30.8613 3.49394 31.2775 3.98978 31.8325 4.11438V8.34006H27.4813V4.11438C28.0363 3.98978 28.4525 3.49394 28.4525 2.90192V1.24386C28.4526 0.558246 27.8948 0.000488281 27.2092 0.000488281H21.7905C21.1049 0.000488281 20.5471 0.558246 20.5471 1.24386V2.90192C20.5471 3.49394 20.9634 3.98978 21.5183 4.11438V8.34006H17.1672V4.11438C17.7222 3.98978 18.1385 3.49394 18.1385 2.90192V1.24386C18.1385 0.558246 17.5806 0.000488281 16.895 0.000488281H15.8041C15.4076 0.000488281 15.0863 0.321764 15.0863 0.718262C15.0863 1.11476 15.4076 1.43604 15.8041 1.43604H16.703V2.70984H11.6686V1.43604H12.5671C12.9636 1.43604 13.2849 1.11476 13.2849 0.718262C13.2849 0.321764 12.9636 0.000488281 12.5671 0.000488281H11.4765C10.7909 0.000488281 10.233 0.558246 10.233 1.24386V2.90192C10.233 3.49394 10.6493 3.98978 11.2043 4.11438V8.34006H9.64771C9.25121 8.34006 8.92993 8.66133 8.92993 9.05783C8.92993 9.45433 9.25121 9.77561 9.64771 9.77561H11.2043V12.9893C11.2043 14.6332 12.5418 15.9706 14.1856 15.9706H14.1859C15.8298 15.9706 17.1672 14.6331 17.1672 12.9893V9.77561H18.6209V17.6423H8.06267C7.13703 17.6423 6.38394 18.3954 6.38394 19.321V43.1338C6.38394 44.0195 7.07396 44.7453 7.94438 44.8065V47.3217C7.94438 48.2473 8.69747 49.0004 9.62311 49.0004H39.3768C40.3025 49.0004 41.0556 48.2473 41.0556 47.3217V44.8065C41.926 44.7453 42.616 44.0194 42.616 43.1338V19.321C42.616 18.3954 41.8629 17.6423 40.9373 17.6423V17.6423ZM36.3599 12.9893C36.3599 13.8416 35.6665 14.535 34.8142 14.535H34.8138C33.9615 14.535 33.2681 13.8416 33.2681 12.9893V9.77561H36.36V12.9893H36.3599ZM33.268 4.14539H36.3599V6.12779H33.268V4.14539ZM32.2968 1.43604H37.3312V2.70984H32.2968V1.43604ZM33.268 7.56324H36.3599V8.33996H33.268V7.56324ZM12.6398 4.14539H15.7316V6.12779H12.6398V4.14539ZM12.6398 7.56324H15.7316V8.33996H12.6398V7.56324ZM15.7316 12.9893C15.7316 13.8416 15.0383 14.535 14.1859 14.535H14.1856C13.3332 14.535 12.6399 13.8416 12.6399 12.9893V9.77561H15.7317V12.9893H15.7316ZM22.9539 4.14539H26.0459V6.12779H22.9539V4.14539ZM21.9826 1.43604H27.017V2.70984H21.9826V1.43604ZM22.9539 7.56324H26.0459V8.33996H22.9539V7.56324ZM22.9539 9.77561H26.0459V12.9893C26.0459 13.8416 25.3525 14.535 24.5002 14.535H24.4997C23.6473 14.535 22.954 13.8416 22.954 12.9893V9.77561H22.9539ZM39.3768 47.5649H9.62311C9.48903 47.5649 9.37993 47.4558 9.37993 47.3218V44.8125H39.6201V47.3218C39.62 47.4558 39.511 47.5649 39.3768 47.5649ZM41.1805 43.1338C41.1805 43.2679 41.0714 43.377 40.9373 43.377H8.06267C7.92859 43.377 7.81949 43.2679 7.81949 43.1338V19.321C7.81949 19.187 7.92859 19.0779 8.06267 19.0779H21.2283C21.6248 19.0779 21.946 18.7566 21.946 18.3601C21.946 17.9636 21.6248 17.6423 21.2283 17.6423H20.0565V9.77561H21.5182V12.9893C21.5182 14.6332 22.8557 15.9706 24.4995 15.9706H24.5C26.1439 15.9706 27.4812 14.6331 27.4812 12.9893V9.77561H28.9433V17.6423H24.4652C24.0687 17.6423 23.7475 17.9636 23.7475 18.3601C23.7475 18.7566 24.0687 19.0779 24.4652 19.0779H40.9371C41.0712 19.0779 41.1803 19.187 41.1803 19.321V43.1338H41.1805Z" fill="#FECC2F"/>
<path d="M39.0154 20.5251H9.98444C9.58794 20.5251 9.26666 20.8464 9.26666 21.2429V41.2119C9.26666 41.6084 9.58794 41.9297 9.98444 41.9297H39.0154C39.4119 41.9297 39.7332 41.6084 39.7332 41.2119V38.179C39.7332 37.7825 39.4119 37.4612 39.0154 37.4612C38.6189 37.4612 38.2976 37.7825 38.2976 38.179V40.4941H10.7022V21.9606H38.2976V34.9419C38.2976 35.3384 38.6189 35.6597 39.0154 35.6597C39.4119 35.6597 39.7332 35.3384 39.7332 34.9419V21.2429C39.7332 20.8464 39.4118 20.5251 39.0154 20.5251V20.5251Z" fill="#FECC2F"/>
<path d="M14.1808 33.4276C13.2551 33.4276 12.502 34.1806 12.502 35.1063V37.4099C12.502 38.3356 13.2551 39.0887 14.1808 39.0887H16.4844C17.4101 39.0887 18.1632 38.3356 18.1632 37.4099V35.1063C18.1632 34.1806 17.4101 33.4276 16.4844 33.4276H14.1808ZM16.7276 35.1063V37.4099C16.7276 37.544 16.6185 37.6531 16.4844 37.6531H14.1808C14.0467 37.6531 13.9376 37.544 13.9376 37.4099V35.1063C13.9376 34.9722 14.0467 34.8631 14.1808 34.8631H16.4844C16.6185 34.8631 16.7276 34.9722 16.7276 35.1063Z" fill="#FECC2F"/>
<path d="M21.208 39.0888H23.5117C24.4373 39.0888 25.1904 38.3357 25.1904 37.41V35.1063C25.1904 34.1806 24.4373 33.4276 23.5117 33.4276H21.208C20.2824 33.4276 19.5293 34.1806 19.5293 35.1063V37.41C19.5293 38.3356 20.2824 39.0888 21.208 39.0888ZM20.9648 35.1063C20.9648 34.9722 21.0739 34.8631 21.208 34.8631H23.5117C23.6457 34.8631 23.7548 34.9722 23.7548 35.1063V37.41C23.7548 37.544 23.6457 37.6531 23.5117 37.6531H21.208C21.0739 37.6531 20.9648 37.544 20.9648 37.41V35.1063Z" fill="#FECC2F"/>
<path d="M25.1902 29.6783V25.4133C25.1902 24.4877 24.4371 23.7346 23.5114 23.7346H14.1808C13.2551 23.7346 12.502 24.4877 12.502 25.4133V29.6783C12.502 30.6039 13.2551 31.357 14.1808 31.357H23.5114C24.4371 31.357 25.1902 30.6038 25.1902 29.6783ZM13.9376 29.6783V25.4133C13.9376 25.2793 14.0467 25.1702 14.1808 25.1702H23.5114C23.6455 25.1702 23.7546 25.2793 23.7546 25.4133V29.6783C23.7546 29.8123 23.6455 29.9214 23.5114 29.9214H14.1808C14.0466 29.9214 13.9376 29.8123 13.9376 29.6783V29.6783Z" fill="#FECC2F"/>
<path d="M34.853 36.1663C34.4565 36.1663 34.1352 36.4876 34.1352 36.8841C34.1352 37.2806 34.4565 37.6019 34.853 37.6019H34.8629C35.2594 37.6019 35.5807 37.2806 35.5807 36.8841C35.5807 36.4876 35.2594 36.1663 34.8629 36.1663H34.853Z" fill="#FECC2F"/>
<path d="M32.3188 36.1663C31.9223 36.1663 31.601 36.4876 31.601 36.8841C31.601 37.2806 31.9223 37.6019 32.3188 37.6019H32.3287C32.7252 37.6019 33.0465 37.2806 33.0465 36.8841C33.0465 36.4876 32.7252 36.1663 32.3287 36.1663H32.3188Z" fill="#FECC2F"/>
</g>
</svg>
