<svg width="49" height="49" viewBox="0 0 49 49" fill="none" xmlns="http://www.w3.org/2000/svg">
<g>
<path d="M37.6066 38.0971C38.0031 38.0971 38.3243 37.7312 38.3243 37.2797V33.319C38.3243 32.8674 38.0031 32.5015 37.6066 32.5015H12.9898C12.5933 32.5015 12.272 32.8674 12.272 33.319V37.2797C12.272 37.7312 12.5933 38.0971 12.9898 38.0971H37.6066ZM28.6591 36.4622H26.0161V34.1365H28.6591V36.4622ZM30.0946 34.1365H32.7378V36.4622H30.0946V34.1365ZM24.5805 36.4622H21.9374V34.1365H24.5805V36.4622ZM20.5018 36.4622H17.8588V34.1365H20.5018V36.4622ZM36.8888 36.4622H34.1733V34.1365H36.8888V36.4622ZM13.7076 34.1365H16.4232V36.4622H13.7076V34.1365Z" fill="#FECC2F"/>
<path d="M48.2822 47.144H46.2139V16.0783H46.5155C46.912 16.0783 47.2333 15.7124 47.2333 15.2609C47.2333 14.8093 46.912 14.4434 46.5155 14.4434H46.2139V11.5503H46.5155C46.912 11.5503 47.2333 11.1844 47.2333 10.7328C47.2333 10.2812 46.912 9.91532 46.5155 9.91532C45.3363 9.91532 38.7397 9.91532 37.4004 9.91532C37.0039 9.91532 36.6826 10.2812 36.6826 10.7328C36.6826 11.1844 37.0039 11.5503 37.4004 11.5503H37.7021V14.4434H37.4004C37.0039 14.4434 36.6826 14.8093 36.6826 15.2609C36.6826 15.7124 37.0039 16.0783 37.4004 16.0783H37.7021V19.6375L32.7618 14.011C32.3099 13.4963 31.7091 13.2129 31.0699 13.2129H27.9149V6.68307H28.3317C28.7282 6.68307 29.0494 6.31717 29.0494 5.8656C29.0494 5.41404 28.7282 5.04814 28.3317 5.04814H27.9149V1.88041H28.3317C28.7282 1.88041 29.0494 1.51451 29.0494 1.06295C29.0494 0.61138 28.7282 0.245483 28.3317 0.245483C26.5175 0.245483 16.7866 0.245483 14.7664 0.245483C14.3699 0.245483 14.0486 0.61138 14.0486 1.06295C14.0486 1.51451 14.3699 1.88041 14.7664 1.88041H15.1833V5.04803H14.7664C14.3699 5.04803 14.0486 5.41393 14.0486 5.86549C14.0486 6.31706 14.3699 6.68296 14.7664 6.68296H15.1833V10.3508C15.1833 10.8023 15.5046 11.1682 15.9011 11.1682C16.2976 11.1682 16.6188 10.8023 16.6188 10.3508V6.68307H26.4792V28.829H16.6189V13.6193C16.6189 13.1677 16.2977 12.8018 15.9012 12.8018C15.5047 12.8018 15.1834 13.1677 15.1834 13.6193V28.829H12.4319V25.1331H12.7777C13.1742 25.1331 13.4955 24.7672 13.4955 24.3157C13.4955 23.8641 13.1742 23.4982 12.7777 23.4982H12.4319V23.22C12.4319 22.7685 12.1107 22.4026 11.7142 22.4026C11.3177 22.4026 10.9964 22.7685 10.9964 23.22V23.4982H10.6507C10.2542 23.4982 9.93293 23.8641 9.93293 24.3157C9.93293 24.7672 10.2542 25.1331 10.6507 25.1331H10.9964V28.829H9.44446C8.73128 28.829 8.15094 29.4899 8.15094 30.3022V35.6551H6.73271C5.26233 35.6551 3.87512 36.3939 2.92679 37.6822C2.67213 38.0281 2.71194 38.5437 3.0157 38.8337C3.31946 39.1239 3.77214 39.0784 4.0268 38.7325C4.7017 37.8158 5.68783 37.29 6.73262 37.29H8.15084V39.4699H6.73271C5.84153 39.4699 5.11638 40.2957 5.11638 41.3107V47.1441H3.20232V41.3289C3.20232 40.8774 2.88105 40.5115 2.48455 40.5115C2.08805 40.5115 1.76678 40.8774 1.76678 41.3289V47.1441H0.717773C0.321275 47.1441 0 47.51 0 47.9615C0 48.4131 0.321275 48.779 0.717773 48.779H48.2822C48.6787 48.779 49 48.4131 49 47.9615C49 47.51 48.6787 47.144 48.2822 47.144V47.144ZM16.6189 5.04814V1.88041H26.4793V5.04803H16.6189V5.04814ZM39.1376 11.5503H44.7782V14.4434H39.1376V11.5503ZM31.0699 14.8478C31.3255 14.8478 31.5659 14.9611 31.7465 15.1671L37.7021 21.9498V25.0325L30.8838 17.2672C30.7491 17.1139 30.5666 17.0278 30.3762 17.0278H27.9149V14.8479H31.0699V14.8478ZM6.55193 41.3106C6.55193 41.1972 6.63309 41.1047 6.73271 41.1047H8.15094V47.1438H6.55193V41.3106ZM9.58649 30.4639H31.359C31.7555 30.4639 32.0768 30.098 32.0768 29.6464C32.0768 29.1948 31.7555 28.8289 31.359 28.8289H27.915V18.6626H30.0789L37.7021 27.3446V28.8289H34.2289C33.8324 28.8289 33.5111 29.1948 33.5111 29.6464C33.5111 30.098 33.8324 30.4639 34.2289 30.4639H41.0101V47.144H31.3091V41.4694C31.3091 41.0179 30.9878 40.652 30.5913 40.652H20.0052C19.6087 40.652 19.2874 41.0179 19.2874 41.4694V47.144H9.58649C9.58649 46.4252 9.58649 31.1929 9.58649 30.4639V30.4639ZM20.723 47.144V42.2869H29.8735V47.144H20.723ZM42.4458 47.144V30.3021C42.4458 29.4899 41.8655 28.8289 41.1522 28.8289H39.1376C39.1376 26.2866 39.1376 18.7236 39.1376 16.0783H44.7782V47.144H42.4458Z" fill="#FECC2F"/>
</g>
</svg>
