<svg width="49" height="49" viewBox="0 0 49 49" fill="none" xmlns="http://www.w3.org/2000/svg">
<g>
<path d="M39.9094 41.8151H35.631L34.3666 40.6439C37.0661 39.4401 39.3858 37.5448 41.1212 35.1103C43.1262 32.2975 44.1859 28.9838 44.1859 25.5274C44.1859 21.5031 42.7269 17.6429 40.0712 14.6189C40.0827 14.488 40.0897 14.3559 40.0897 14.2222C40.0897 12.4784 39.0955 10.9632 37.6445 10.2102L38.8536 9.00163L41.0805 7.88898C41.4542 7.70227 41.7172 7.34472 41.7841 6.93243C41.851 6.52023 41.7146 6.09789 41.4192 5.80264L35.9946 0.381701C35.6993 0.0866461 35.2769 -0.0494445 34.8647 0.0171652C34.4526 0.0840621 34.095 0.346864 33.9082 0.720204L32.7943 2.94646L24.3699 11.3646C23.83 11.03 23.1106 11.0954 22.6424 11.5632L20.5489 13.6553H15.8118C15.0935 13.6553 14.5093 14.2396 14.5093 14.9578V17.3945C14.5093 18.1126 15.0935 18.697 15.8118 18.697H19.5248L17.7357 20.4848C17.2315 20.9828 17.2305 21.8278 17.7357 22.3278L19.4599 24.0507C19.9676 24.5583 20.7938 24.5583 21.3015 24.0507L23.092 22.2616V25.9713C23.092 26.6901 23.6767 27.2748 24.3954 27.2748H26.834C27.5521 27.2748 28.1365 26.6901 28.1365 25.9713V21.2388L30.2299 19.1468C30.4945 18.8824 30.6403 18.5308 30.6403 18.1567C30.6403 17.8921 30.566 17.6395 30.4297 17.4202L31.5542 16.2966C32.3076 17.7468 33.8237 18.7406 35.5687 18.7406C35.8842 18.7406 36.1923 18.7079 36.4898 18.6461C38.0145 20.607 38.8496 23.0329 38.8496 25.5273C38.8496 25.9238 39.171 26.245 39.5674 26.245C39.9638 26.245 40.2851 25.9238 40.2851 25.5273C40.2851 22.8561 39.4356 20.2544 37.8778 18.1047C38.6039 17.6717 39.1984 17.041 39.5876 16.2877C41.6346 18.9293 42.7505 22.1655 42.7505 25.5273C42.7505 31.7029 38.935 37.2927 33.2119 39.5742L31.1652 37.6784C35.2829 36.474 38.5942 33.2001 39.7942 29.0271C39.9038 28.6462 39.6836 28.2485 39.3026 28.139C38.9216 28.0295 38.524 28.2495 38.4145 28.6306C37.2687 32.6155 33.9512 35.6755 29.908 36.5139L29.4342 36.075C28.4171 35.1328 26.8238 35.1328 25.8068 36.075L25.3328 36.514C23.2513 36.0834 21.3464 35.0723 19.8239 33.6026H25.1338C25.8522 33.6026 26.4365 33.0183 26.4365 32.2999V30.0673C26.4365 29.349 25.8522 28.7646 25.1338 28.7646H12.2335C11.8371 28.7646 11.5157 29.0859 11.5157 29.4824C11.5157 29.8789 11.8371 30.2002 12.2335 30.2002H25.0011V32.1672H6.24936V30.2002H8.88389C9.2803 30.2002 9.60167 29.8789 9.60167 29.4824C9.60167 29.0859 9.2803 28.7646 8.88389 28.7646H6.11652C5.39827 28.7646 4.8138 29.349 4.8138 30.0673V32.2999C4.8138 33.0183 5.39817 33.6026 6.11652 33.6026H13.1635C14.9186 36.7309 17.6177 39.1918 20.8731 40.6451L19.61 41.8151H15.3316C13.3232 41.8151 11.6892 43.449 11.6892 45.4576V47.8043C11.6892 48.464 12.2258 49.0006 12.8855 49.0006H42.3556C43.0153 49.0006 43.5519 48.464 43.5519 47.8043V45.4576C43.5519 43.449 41.9179 41.8151 39.9094 41.8151V41.8151ZM35.1097 1.52689L40.2736 6.68723L38.5705 7.53823L34.2582 3.22888L35.1097 1.52689ZM15.9448 17.2613V15.0908H19.8827C19.9214 15.3975 20.0584 15.6814 20.2807 15.9035L21.3004 16.9225L20.9614 17.2613H15.9448ZM23.3124 20.012C23.3059 20.0182 23.2994 20.0246 23.2932 20.0311L20.3809 22.9414L18.8446 21.4062L22.3159 17.9372L23.8521 19.4725L23.3124 20.012ZM26.701 25.8393H24.5275V20.827L24.8676 20.4872L25.888 21.507C26.1159 21.7347 26.4036 21.866 26.701 21.9036V25.8393ZM26.8781 20.4669L21.3208 14.9134L23.6326 12.6033L29.1899 18.1567L26.8781 20.4669ZM31.0474 14.2221C31.0474 14.3982 31.0586 14.5717 31.0783 14.7426L29.4411 16.3785L25.4122 12.3523L33.3848 4.38565L37.4134 8.41133L36.0897 9.73444C35.9186 9.71472 35.7449 9.70353 35.5687 9.70353C33.0757 9.70353 31.0474 11.7306 31.0474 14.2221V14.2221ZM35.5687 17.3051C34.0847 17.3051 32.8423 16.2528 32.5489 14.8559C32.5486 14.8544 32.5482 14.8529 32.5479 14.8513C32.5055 14.6481 32.4831 14.4377 32.4831 14.2221C32.4831 12.5221 33.8672 11.1391 35.5688 11.1391C37.2702 11.1391 38.6543 12.5221 38.6543 14.2221C38.6543 15.9221 37.2701 17.3051 35.5687 17.3051V17.3051ZM26.7823 37.1281C27.2523 36.6928 27.9886 36.6928 28.4586 37.1281L32.5592 40.9265C32.5602 40.9274 32.5613 40.9285 32.5624 40.9294L33.5186 41.8151H21.7224L26.7823 37.1281ZM14.8352 33.6026H17.8695C19.4961 35.5626 21.6555 36.9762 24.0745 37.6796L22.029 39.5744C19.0539 38.389 16.5451 36.301 14.8352 33.6026V33.6026ZM42.1163 47.5649H13.1247V45.4575C13.1247 44.2406 14.1148 43.2505 15.3316 43.2505H39.9095C41.1264 43.2505 42.1164 44.2406 42.1164 45.4575V47.5649H42.1163Z" fill="#FECC2F"/>
</g>
</svg>
