<svg width="49" height="49" viewBox="0 0 49 49" fill="none" xmlns="http://www.w3.org/2000/svg">
<g>
<path d="M37.543 32.3701C37.9291 32.28 38.169 31.894 38.079 31.508C37.9889 31.1219 37.6028 30.8822 37.2169 30.9722C36.0546 31.2434 35.0178 31.9078 34.2858 32.846C33.2683 32.408 32.1416 32.3058 31.0425 32.5623C30.6564 32.6523 30.4165 33.0384 30.5066 33.4244C30.5966 33.8104 30.9829 34.0503 31.3686 33.9602C32.3539 33.7302 33.3694 33.8973 34.2282 34.4307C35.0868 34.9638 35.6858 35.7992 35.9152 36.7831C35.9724 37.0283 36.0052 37.2789 36.0129 37.5277C36.0249 37.9164 36.3438 38.2233 36.7299 38.2233C36.7374 38.2233 36.745 38.2232 36.7525 38.223C37.1487 38.2108 37.4601 37.8796 37.4477 37.4834C37.4372 37.1399 37.3918 36.7947 37.3132 36.4573C37.0475 35.3171 36.4206 34.3224 35.5252 33.597C36.0477 32.9864 36.7555 32.5538 37.543 32.3701Z" fill="black"/>
<path d="M15.7252 33.3188C15.7506 32.5043 15.9506 31.6863 16.3349 30.9198C16.85 29.8919 17.6501 29.0523 18.6486 28.4918C18.9943 28.2978 19.1172 27.8603 18.9232 27.5146C18.7292 27.1689 18.2917 27.0461 17.9459 27.24C16.6965 27.9414 15.6957 28.9913 15.0515 30.2765C14.6414 31.0948 14.4001 31.9598 14.3181 32.8291C12.6948 33.5094 11.3541 34.7773 10.597 36.3709C10.4269 36.7289 10.5792 37.1571 10.9373 37.3273C11.0367 37.3745 11.1416 37.3969 11.2449 37.3969C11.5134 37.3969 11.7708 37.2456 11.8937 36.987C12.4152 35.8894 13.2833 34.9851 14.3436 34.4071C14.5447 35.9735 15.2653 37.4682 16.4621 38.6329C16.6016 38.7686 16.7822 38.8363 16.9625 38.8363C17.1495 38.8363 17.3363 38.7637 17.477 38.6192C17.7535 38.335 17.7473 37.8806 17.4631 37.6041C16.2887 36.4611 15.6878 34.9208 15.7241 33.3646C15.7248 33.3493 15.7254 33.3341 15.7252 33.3188Z" fill="black"/>
<path d="M28.8783 12.8113C28.4968 12.7039 28.1003 12.9262 27.9928 13.3077C27.8854 13.6893 28.1077 14.0857 28.4893 14.1931C30.0671 14.6372 31.3302 15.7044 32.0408 17.0896C32.0473 17.103 32.0538 17.1164 32.0613 17.1295C32.4276 17.8577 32.6422 18.6719 32.6702 19.529C32.7079 20.6781 32.4053 21.7978 31.7953 22.7667C31.5841 23.1022 31.6849 23.5454 32.0203 23.7566C32.1391 23.8314 32.2713 23.867 32.4021 23.867C32.6405 23.867 32.8737 23.7483 33.0101 23.5316C33.7735 22.319 34.1521 20.9187 34.1049 19.482C34.075 18.5672 33.8742 17.6918 33.5315 16.8889C34.6335 15.5166 35.2068 13.7624 35.1118 12.0008C35.0905 11.605 34.7499 11.3019 34.3564 11.3227C33.9605 11.344 33.6569 11.6822 33.6783 12.078C33.7436 13.2915 33.4121 14.5005 32.7562 15.5144C31.8323 14.2335 30.4858 13.2638 28.8783 12.8113Z" fill="black"/>
<path d="M47.8765 29.491C47.6825 27.891 46.7519 26.4823 45.4076 25.6596C46.7131 24.3266 47.4674 22.5153 47.4674 20.6269C47.4674 18.8213 46.7952 17.0956 45.5746 15.7678C44.5609 14.6652 43.2441 13.9156 41.8008 13.6068C41.9336 13.0566 42.0006 12.4921 42.0006 11.9201C42.0006 7.96078 38.7826 4.7396 34.8271 4.7396C34.7261 4.7396 34.625 4.74247 34.5239 4.74678C34.5018 4.74774 34.4796 4.74888 34.4575 4.75003C34.3605 4.75501 34.2638 4.76161 34.1673 4.77042C34.1656 4.77061 34.1638 4.77061 34.162 4.7708C33.9324 2.10154 31.6886 0 28.9634 0C27.0738 0 25.4156 1.01072 24.4999 2.52025C23.5843 1.01072 21.9261 0 20.0364 0C17.3113 0 15.0675 2.10164 14.8379 4.77071C13.4205 4.63796 11.9893 4.93417 10.7526 5.60667C10.4043 5.79607 10.2756 6.2319 10.4649 6.58016C10.6543 6.92833 11.0897 7.05715 11.4384 6.86785C12.6291 6.22022 14.0499 6.0136 15.4007 6.30827C15.4066 6.30961 15.4126 6.30999 15.4186 6.31105C16.1212 6.46676 16.7812 6.75052 17.38 7.15553C17.5033 7.23889 17.6431 7.27889 17.7815 7.27889C18.0118 7.27889 18.238 7.16826 18.3768 6.96317C18.5988 6.63481 18.5127 6.18855 18.1842 5.96652C17.5874 5.56284 16.9412 5.25669 16.2585 5.04958C16.3493 3.04135 18.0089 1.43555 20.0364 1.43555C21.9304 1.43555 23.5035 2.83674 23.7766 4.65825C23.7566 4.84382 23.7456 15.6706 23.7456 15.6706C21.592 16.6047 19.092 16.1421 17.4116 14.4615C16.5985 13.6484 16.054 12.6245 15.837 11.5003C15.762 11.1111 15.3861 10.8563 14.9961 10.9316C14.6069 11.0067 14.3523 11.3832 14.4275 11.7724C14.6991 13.1792 15.38 14.4602 16.3965 15.4766C17.7796 16.8597 19.6067 17.5834 21.4619 17.5834C22.2281 17.5834 22.9992 17.4597 23.7457 17.2083C23.7457 17.2083 23.7563 43.5654 23.7767 43.7635C23.4821 45.9074 21.6417 47.5645 19.4207 47.5645C17.4947 47.5645 15.8043 46.3011 15.231 44.4995C16.0188 43.9711 16.7103 43.2904 17.2578 42.4791C17.4795 42.1505 17.3929 41.7044 17.0644 41.4826C16.7358 41.2608 16.2897 41.3475 16.0679 41.676C15.5902 42.3839 14.9776 42.9697 14.2775 43.4098C14.2875 43.4258 14.2964 43.4427 14.3057 43.4592C14.2167 43.4715 14.1296 43.4999 14.0493 43.5456C13.1471 44.0596 12.1205 44.3313 11.0802 44.3313C7.76357 44.3313 5.06532 41.6298 5.06532 38.3093C5.06532 37.2441 5.34286 36.2118 5.87018 35.2991C5.87037 35.2996 5.87066 35.3 5.87085 35.3004C6.22323 34.6895 6.68299 34.137 7.24055 33.6736C7.54537 33.4202 7.587 32.9676 7.33367 32.6628C7.08025 32.358 6.62786 32.3162 6.32276 32.5697C5.89995 32.9212 5.52268 33.3143 5.1928 33.7394C3.46526 33.2105 2.32553 31.5015 2.54833 29.6639C2.72404 28.2146 3.73313 26.9818 5.1191 26.5232C5.12035 26.5228 5.12159 26.522 5.12284 26.5216C5.64308 26.3499 6.19873 26.2925 6.75869 26.3607C7.00876 26.3911 7.25539 26.446 7.49187 26.5241C7.86837 26.6485 8.27424 26.4439 8.39847 26.0674C8.52269 25.6909 8.31827 25.2851 7.94187 25.1608C7.61571 25.0532 7.27597 24.9774 6.93191 24.9355C6.29118 24.8577 5.65418 24.8988 5.0458 25.0498C3.73868 23.9628 2.96779 22.3343 2.96779 20.6269C2.96779 19.1821 3.50555 17.8015 4.48191 16.7392C5.33482 15.8115 6.45569 15.1966 7.67955 14.9753C8.32545 16.3473 9.40057 17.4933 10.7354 18.2239C10.8448 18.2838 10.9629 18.3121 11.0794 18.3121C11.3332 18.3121 11.5793 18.1772 11.7097 17.9389C11.9 17.5911 11.7724 17.155 11.4246 16.9646C10.2813 16.3388 9.37579 15.3326 8.87497 14.1314C8.86177 14.0998 8.43455 12.6136 8.43455 11.92C8.43455 10.7685 8.77334 9.65788 9.41426 8.70812C9.636 8.37957 9.54939 7.93341 9.22084 7.71166C8.8922 7.48992 8.44613 7.57653 8.22438 7.90508C7.42277 9.09295 6.999 10.4813 6.999 11.92C6.999 12.492 7.06599 13.0566 7.19883 13.6067C5.75553 13.9155 4.43865 14.6651 3.42497 15.7677C2.20437 17.0955 1.53215 18.8212 1.53215 20.6268C1.53215 22.5153 2.28658 24.3266 3.59207 25.6595C2.24772 26.4822 1.31711 27.8909 1.12321 29.4909C0.831796 31.894 2.23021 34.1387 4.40832 34.9867C3.89669 36.0136 3.62958 37.1458 3.62958 38.3092C3.62958 42.4214 6.97182 45.7668 11.08 45.7668C12.067 45.7668 13.0442 45.5693 13.9499 45.1908C14.785 47.4436 16.9583 49 19.4207 49C21.5969 49 23.4974 47.8002 24.4999 46.0275C25.5024 47.8002 27.4029 49 29.5791 49C32.0417 49 34.215 47.4437 35.0497 45.1909C35.9554 45.5694 36.9327 45.7669 37.9197 45.7669C38.9268 45.7669 39.9039 45.5689 40.8242 45.1788C41.1892 45.0239 41.3595 44.6026 41.2047 44.2377C41.05 43.8728 40.6288 43.7024 40.2637 43.8572C39.5218 44.1719 38.7333 44.3314 37.9198 44.3314C36.8794 44.3314 35.8527 44.0597 34.9506 43.5457C34.9457 43.5428 34.9403 43.5408 34.9352 43.5381C34.1373 43.0816 33.4528 42.4478 32.9321 41.6761C32.7103 41.3475 32.2641 41.2609 31.9356 41.4827C31.607 41.7045 31.5203 42.1505 31.7422 42.4792C32.2855 43.2844 32.9737 43.9678 33.7683 44.5015C33.1944 46.3019 31.5045 47.5645 29.5791 47.5645C27.3583 47.5645 25.5177 45.9074 25.2234 43.7633C25.2437 43.5652 25.2434 4.84373 25.2234 4.65816C25.4964 2.83674 27.0695 1.43555 28.9634 1.43555C30.991 1.43555 32.6507 3.04145 32.7414 5.04968C32.059 5.25764 31.4066 5.56667 30.8156 5.96642C30.4872 6.18855 30.4011 6.63472 30.6232 6.96307C30.7619 7.16816 30.9881 7.2788 31.2184 7.2788C31.3567 7.2788 31.4966 7.23889 31.6199 7.15544C32.2284 6.74372 32.9188 6.45355 33.6364 6.30109C34.1121 6.18185 34.7326 6.17486 34.8271 6.17486C37.991 6.17486 40.5651 8.75205 40.5651 11.9198C40.5651 12.6133 40.4422 13.2926 40.1998 13.939C40.1981 13.9432 40.1973 13.9477 40.1957 13.9519C39.711 15.2349 38.781 16.3045 37.5751 16.9645C37.2274 17.1549 37.0998 17.5911 37.2901 17.9388C37.4205 18.1772 37.6666 18.312 37.9204 18.312C38.0369 18.312 38.155 18.2836 38.2644 18.2238C39.6061 17.4894 40.6737 16.3485 41.3194 14.9751C42.5436 15.1962 43.6646 15.8111 44.5177 16.7391C45.4941 17.8013 46.0318 19.1819 46.0318 20.6267C46.0318 22.3344 45.2605 23.9633 43.953 25.0503C43.3419 24.8984 42.7054 24.858 42.0676 24.9354C41.7235 24.9773 41.3838 25.053 41.0576 25.1606C40.6811 25.2849 40.4768 25.6907 40.601 26.0672C40.7253 26.4437 41.1309 26.6481 41.5076 26.5239C41.744 26.4459 41.9907 26.3909 42.2408 26.3605C42.7978 26.2928 43.3535 26.3488 43.8769 26.5214C43.8781 26.5218 43.8792 26.5225 43.8805 26.523C45.2664 26.9816 46.2755 28.2144 46.4513 29.6638C46.6741 31.5014 45.5344 33.2101 43.8071 33.7391C43.4751 33.3109 43.0975 32.9194 42.6768 32.5696C42.372 32.3162 41.9194 32.3578 41.6661 32.6626C41.4127 32.9674 41.4542 33.42 41.7591 33.6734C42.2234 34.0594 42.6225 34.5084 42.951 35.01C42.9735 35.0444 42.996 35.0786 43.0177 35.1134C43.0428 35.1535 43.0671 35.1942 43.0912 35.2349C43.6432 36.1632 43.9343 37.2188 43.9343 38.3093C43.9343 39.7689 43.4062 41.1767 42.4474 42.2735C42.1865 42.572 42.217 43.0254 42.5154 43.2863C42.8138 43.5472 43.2672 43.5168 43.5282 43.2184C44.7158 41.86 45.3698 40.1166 45.3698 38.3094C45.3698 37.1459 45.1028 36.0138 44.5912 34.9869C46.7694 34.1388 48.1679 31.8941 47.8765 29.491Z" fill="black"/>
</g>
</svg>
