<svg width="45" height="45" viewBox="0 0 45 45" fill="none" xmlns="http://www.w3.org/2000/svg">
<path d="M6.51337 45.3602H40.5258C42.1153 45.3583 43.4034 44.0489 43.4056 42.433V32.5848H44.2346C44.432 32.5915 44.6244 32.5174 44.768 32.3796C44.9119 32.2415 44.9954 32.0508 44.9998 31.8497V27.7494C44.9998 26.1353 43.6931 24.8624 42.1055 24.8624H40.0342C40.3317 24.2904 40.4984 23.7518 40.4984 23.1318V23.1269C40.4863 21.358 39.0781 19.9271 37.338 19.916C36.1225 19.916 35.0129 20.4042 34.0652 21.3423L33.1659 13.4102C33.1208 13.0292 32.7981 12.7454 32.4207 12.7544H27.5566V9.31884C27.5566 4.3791 23.3815 0.360352 18.2723 0.360352C13.1634 0.360352 8.98794 4.3791 8.98794 9.31884V12.7544H3.61129C3.2336 12.7454 2.91123 13.0292 2.8658 13.4102L0.0399154 38.3737C-0.159003 40.1095 0.391961 41.8483 1.54957 43.1406C2.81781 44.5651 4.62346 45.3725 6.51337 45.3602ZM24.5614 43.8348C23.8013 43.8348 23.1489 43.2054 23.1489 42.433V32.5848H29.1509V43.8348H24.5614ZM30.6514 43.8348V32.5848H34.4964V43.8348H30.6514ZM41.9051 42.433C41.904 43.2069 41.2867 43.8337 40.5258 43.8348H35.9969V32.5848H41.9051V42.433ZM43.4993 27.7497V31.0594H21.5546V27.7494C21.5546 26.9766 22.1924 26.3878 22.9533 26.3878H42.1055C42.8656 26.3878 43.4993 26.9766 43.4993 27.7494V27.7497ZM26.0843 23.1545C26.0945 22.2264 26.8342 21.4782 27.7471 21.4719C29.7813 21.4719 30.9569 23.528 31.4833 24.8628H27.7178C26.8023 24.8624 26.085 24.1008 26.0843 23.1541V23.1545ZM37.3369 21.4421C38.2568 21.4604 38.9957 22.219 39.0041 23.1545C39.0023 24.1008 38.2853 24.8624 37.3695 24.8624H33.6025C33.7839 24.4099 34.0011 23.9734 34.2528 23.5574C35.1118 22.1668 36.1507 21.4417 37.3362 21.4417L37.3369 21.4421ZM10.4884 9.31884C10.4884 5.22002 13.9906 1.88577 18.2723 1.88577C22.5539 1.88577 26.0561 5.22002 26.0561 9.31884V12.7544H10.4884V9.31884ZM1.53052 38.5576L4.28021 14.2798H8.98794V17.2066C8.98794 17.6278 9.32387 17.9693 9.73819 17.9693C10.1525 17.9693 10.4884 17.6278 10.4884 17.2066V14.2798H26.0561V17.2066C26.0561 17.6278 26.392 17.9693 26.8063 17.9693C27.2207 17.9693 27.5566 17.6278 27.5566 17.2066V14.2798H31.7518L32.7559 23.1321C32.6801 23.2688 32.6094 23.3947 32.5435 23.5269C32.4163 23.2707 32.2705 22.9988 32.1053 22.7311C30.9697 20.8928 29.4487 19.9186 27.7284 19.9186C25.9967 19.929 24.5556 21.3673 24.5556 23.1269V23.1318C24.5556 23.7515 24.7556 24.29 25.0527 24.862H22.9533C21.3656 24.8624 20.0541 26.1353 20.0541 27.7494V31.8497C20.06 32.0512 20.1442 32.2422 20.2889 32.38C20.4333 32.5178 20.6259 32.5915 20.8241 32.5848H21.6484V42.433C21.6594 42.9257 21.7923 43.408 22.0345 43.8348H6.51337C5.0517 43.8493 3.65305 43.2289 2.66908 42.1299C1.79868 41.1631 1.38326 39.8596 1.53052 38.5576Z" fill="white"/>
</svg>
