<svg width="14" height="14" viewBox="0 0 14 14" fill="none" xmlns="http://www.w3.org/2000/svg">
<g>
<path d="M11.7264 1.53628C11.9411 1.53628 12.147 1.62155 12.2987 1.77333C12.4505 1.92512 12.5358 2.13098 12.5358 2.34563V8.82045C12.5358 9.03511 12.4505 9.24097 12.2987 9.39275C12.147 9.54453 11.9411 9.62981 11.7264 9.62981H9.70306C9.45177 9.62981 9.20392 9.68831 8.97915 9.8007C8.75439 9.91308 8.55888 10.0763 8.4081 10.2773L6.87033 12.3274L5.33256 10.2773C5.18178 10.0763 4.98627 9.91308 4.7615 9.8007C4.53674 9.68831 4.28889 9.62981 4.03759 9.62981H2.01421C1.79956 9.62981 1.5937 9.54453 1.44191 9.39275C1.29013 9.24097 1.20486 9.03511 1.20486 8.82045V2.34563C1.20486 2.13098 1.29013 1.92512 1.44191 1.77333C1.5937 1.62155 1.79956 1.53628 2.01421 1.53628H11.7264ZM2.01421 0.726929C1.58491 0.726929 1.17318 0.89747 0.869616 1.20104C0.566049 1.5046 0.395508 1.91633 0.395508 2.34563L0.395508 8.82045C0.395508 9.24976 0.566049 9.66148 0.869616 9.96505C1.17318 10.2686 1.58491 10.4392 2.01421 10.4392H4.03759C4.16324 10.4392 4.28716 10.4684 4.39955 10.5246C4.51193 10.5808 4.60969 10.6624 4.68508 10.7629L6.22285 12.813C6.29823 12.9135 6.39599 12.9951 6.50837 13.0513C6.62076 13.1075 6.74468 13.1367 6.87033 13.1367C6.99598 13.1367 7.1199 13.1075 7.23228 13.0513C7.34466 12.9951 7.44242 12.9135 7.51781 12.813L9.05558 10.7629C9.13097 10.6624 9.22873 10.5808 9.34111 10.5246C9.45349 10.4684 9.57741 10.4392 9.70306 10.4392H11.7264C12.1558 10.4392 12.5675 10.2686 12.871 9.96505C13.1746 9.66148 13.3451 9.24976 13.3451 8.82045V2.34563C13.3451 1.91633 13.1746 1.5046 12.871 1.20104C12.5675 0.89747 12.1558 0.726929 11.7264 0.726929H2.01421Z" fill="#212121"/>
<path d="M6.1143 4.5794C5.95665 4.33388 5.72356 4.14617 5.45008 4.04447C5.1766 3.94277 4.8775 3.93258 4.59773 4.01543C4.31796 4.09829 4.07264 4.26971 3.89864 4.50393C3.72464 4.73815 3.63137 5.02252 3.63283 5.31429C3.63297 5.55591 3.698 5.79306 3.82112 6.00096C3.94424 6.20886 4.12092 6.37988 4.33272 6.49616C4.54452 6.61244 4.78366 6.66971 5.02516 6.66198C5.26666 6.65426 5.50165 6.58182 5.70558 6.45224C5.59956 6.76708 5.40207 7.10296 5.07671 7.43965C5.01446 7.50405 4.98035 7.59054 4.98186 7.68009C4.98338 7.76964 5.02041 7.85492 5.08481 7.91717C5.1492 7.97942 5.23569 8.01354 5.32524 8.01202C5.4148 8.0105 5.50008 7.97347 5.56233 7.90908C6.76502 6.66267 6.60882 5.30782 6.1143 4.58102V4.5794ZM9.35171 4.5794C9.19406 4.33388 8.96097 4.14617 8.68749 4.04447C8.41401 3.94277 8.11491 3.93258 7.83514 4.01543C7.55537 4.09829 7.31005 4.26971 7.13605 4.50393C6.96205 4.73815 6.86878 5.02252 6.87024 5.31429C6.87038 5.55591 6.93541 5.79306 7.05853 6.00096C7.18165 6.20886 7.35833 6.37988 7.57013 6.49616C7.78193 6.61244 8.02107 6.66971 8.26257 6.66198C8.50407 6.65426 8.73906 6.58182 8.94299 6.45224C8.83697 6.76708 8.63948 7.10296 8.31412 7.43965C8.25187 7.50405 8.21776 7.59054 8.21927 7.68009C8.22079 7.76964 8.25782 7.85492 8.32222 7.91717C8.38661 7.97942 8.4731 8.01354 8.56265 8.01202C8.6522 8.0105 8.73749 7.97347 8.79974 7.90908C10.0024 6.66267 9.84623 5.30782 9.35171 4.58102V4.5794Z" fill="#212121"/>
</g>
</svg>
