<svg width="14" height="13" viewBox="0 0 14 13" fill="none" xmlns="http://www.w3.org/2000/svg">
<g>
<path d="M9.30272 2.75164C9.30266 2.30855 9.45841 1.87955 9.74271 1.53969C10.027 1.19984 10.4218 0.970769 10.8579 0.892565C11.294 0.814362 11.7438 0.892003 12.1284 1.11191C12.5131 1.33181 12.8082 1.67997 12.9621 2.09547C13.116 2.51098 13.1189 2.96737 12.9703 3.38479C12.8217 3.80222 12.531 4.1541 12.1492 4.37887C11.7674 4.60364 11.3186 4.68699 10.8815 4.61434C10.4444 4.54168 10.0468 4.31764 9.75822 3.98143L4.68347 6.33826C4.80014 6.70798 4.80014 7.10465 4.68347 7.47438L9.75822 9.83121C10.0633 9.47642 10.4892 9.24752 10.9534 9.18886C11.4176 9.1302 11.8871 9.24596 12.2708 9.51371C12.6545 9.78146 12.9252 10.1821 13.0303 10.6381C13.1355 11.094 13.0676 11.5727 12.8399 11.9815C12.6122 12.3903 12.2409 12.6999 11.7978 12.8505C11.3548 13.0011 10.8717 12.9818 10.4421 12.7964C10.0124 12.6111 9.66692 12.2729 9.47247 11.8473C9.27801 11.4217 9.24848 10.9391 9.38959 10.4929L4.31484 8.1361C4.06362 8.42887 3.72877 8.63768 3.35532 8.73444C2.98187 8.8312 2.58775 8.81127 2.22597 8.67733C1.86419 8.54339 1.55211 8.30186 1.33171 7.98524C1.11131 7.66862 0.993164 7.2921 0.993164 6.90632C0.993164 6.52054 1.11131 6.14402 1.33171 5.8274C1.55211 5.51078 1.86419 5.26925 2.22597 5.13531C2.58775 5.00137 2.98187 4.98144 3.35532 5.0782C3.72877 5.17496 4.06362 5.38376 4.31484 5.67653L9.38959 3.3197C9.33182 3.13589 9.30253 2.94432 9.30272 2.75164Z" fill="#212121"/>
</g>
</svg>
