<svg width="18" height="18" viewBox="0 0 18 18" fill="none" xmlns="http://www.w3.org/2000/svg">
<g>
<path d="M16.3928 16.0714C16.7974 16.0714 17.148 15.9378 17.446 15.674L12.3463 10.5741C12.224 10.6617 12.1054 10.7469 11.9933 10.828C11.6117 11.1091 11.302 11.3285 11.0641 11.4858C10.8263 11.6434 10.5099 11.804 10.1149 11.968C9.7197 12.1321 9.35149 12.214 9.00992 12.214H8.99992H8.98992C8.64832 12.214 8.28011 12.1322 7.88491 11.968C7.48971 11.804 7.1733 11.6434 6.93572 11.4858C6.69791 11.3285 6.38833 11.1092 6.00649 10.828C5.90009 10.7499 5.78208 10.6644 5.6545 10.5728L0.553833 15.674C0.851842 15.9378 1.20266 16.0714 1.60724 16.0714H16.3928Z" fill="black"/>
<path d="M1.01462 7.36276C0.633012 7.10835 0.29461 6.81698 0 6.48877V14.2478L4.49484 9.75298C3.59562 9.1252 2.43701 8.32937 1.01462 7.36276Z" fill="black"/>
<path d="M16.9956 7.36276C15.6274 8.28879 14.4646 9.08598 13.507 9.75478L18 14.248V6.48877C17.7119 6.81037 17.3772 7.10155 16.9956 7.36276Z" fill="black"/>
<path d="M16.393 1.92871H1.60753C1.09171 1.92871 0.695135 2.1029 0.417322 2.45091C0.13928 2.79908 0.000488281 3.23451 0.000488281 3.7567C0.000488281 4.1785 0.184673 4.63553 0.552879 5.12792C0.921084 5.62012 1.31289 6.00672 1.72808 6.28793C1.9557 6.44875 2.64211 6.92595 3.78732 7.71935C4.40553 8.14775 4.94315 8.52116 5.40514 8.84338C5.79894 9.11776 6.13855 9.35538 6.41894 9.55257C6.45113 9.57515 6.50175 9.61136 6.56894 9.6594C6.64133 9.7114 6.73293 9.77738 6.84594 9.85898C7.06356 10.0164 7.24434 10.1436 7.38833 10.2408C7.53212 10.338 7.70634 10.4466 7.91072 10.5672C8.11494 10.6876 8.30755 10.7782 8.48834 10.8384C8.66916 10.8986 8.83654 10.9288 8.99053 10.9288H9.00053H9.01053C9.16449 10.9288 9.33191 10.8986 9.51276 10.8384C9.69351 10.7782 9.88596 10.6878 10.0903 10.5672C10.2945 10.4466 10.4685 10.3378 10.6128 10.2408C10.7568 10.1436 10.9375 10.0164 11.1552 9.85898C11.268 9.77738 11.3596 9.71136 11.432 9.65957C11.4992 9.61133 11.5498 9.57535 11.5822 9.55257C11.8006 9.40058 12.141 9.16394 12.5986 8.84616C13.4314 8.26756 14.6578 7.41595 16.283 6.28793C16.7718 5.94653 17.1802 5.53453 17.5084 5.05253C17.836 4.57053 18.0003 4.06494 18.0003 3.53592C18.0003 3.09392 17.841 2.71571 17.5232 2.40071C17.205 2.0861 16.8283 1.92871 16.393 1.92871Z" fill="black"/>
</g>
</svg>
