<svg width="48" height="48" viewBox="0 0 48 48" fill="none" xmlns="http://www.w3.org/2000/svg">
<path d="M16.4491 9.54943C14.985 10.1025 13.9361 11.5068 13.9361 13.1618C13.9361 13.7991 14.1058 14.3922 14.3798 14.9233C13.2186 15.3698 12.3877 16.4894 12.3877 17.8068C12.3877 19.1246 13.2186 20.2439 14.3798 20.6907C14.1058 21.2218 13.9361 21.8149 13.9361 22.4519C13.9361 24.1072 14.985 25.5116 16.4491 26.0642C16.3331 26.3886 16.2586 26.7333 16.2586 27.097C16.2586 28.8049 17.6474 30.1937 19.3553 30.1937C19.7409 30.1937 20.1064 30.1139 20.447 29.9854C20.9486 31.0208 22.0007 31.7421 23.2262 31.7421C24.9341 31.7421 26.3229 30.3532 26.3229 28.6453V6.96833C26.3229 5.26083 24.9341 3.87161 23.2262 3.87161C22.0007 3.87161 20.9486 4.59325 20.447 5.62826C20.1064 5.49973 19.7409 5.41997 19.3553 5.41997C17.6474 5.41997 16.2586 6.80918 16.2586 8.51669C16.2586 8.88072 16.3331 9.22509 16.4491 9.54943ZM19.3553 6.96833C20.2092 6.96833 20.9037 7.66275 20.9037 8.51669H22.452C22.452 7.77275 22.1772 7.09761 21.7383 6.56347C21.9179 5.90723 22.5133 5.41997 23.2262 5.41997C24.0801 5.41997 24.7746 6.11439 24.7746 6.96833V28.6453C24.7746 29.4993 24.0801 30.1937 23.2262 30.1937C22.5133 30.1937 21.9179 29.7068 21.7383 29.0502C22.1772 28.5161 22.452 27.8413 22.452 27.097H20.9037C20.9037 27.9509 20.2092 28.6453 19.3553 28.6453C18.5014 28.6453 17.8069 27.9509 17.8069 27.097C17.8069 26.243 18.5014 25.5486 19.3553 25.5486V24.0003C18.6012 24.0003 17.9185 24.2823 17.3813 24.7313C16.3036 24.5306 15.4844 23.5871 15.4844 22.4519C15.4844 21.1716 16.5266 20.1294 17.8069 20.1294C19.0877 20.1294 20.1295 21.1716 20.1295 22.4519H21.6778C21.6778 20.3176 19.9416 18.581 17.8069 18.581C16.9322 18.581 16.1331 18.8838 15.4844 19.3756V19.3552C14.6305 19.3552 13.9361 18.6608 13.9361 17.8068C13.9361 16.9529 14.6305 16.2585 15.4844 16.2585V16.2384C16.1331 16.7302 16.9322 17.0327 17.8069 17.0327C19.9416 17.0327 21.6778 15.2964 21.6778 13.1618H20.1295C20.1295 14.4425 19.0877 15.4843 17.8069 15.4843C16.5266 15.4843 15.4844 14.4425 15.4844 13.1618C15.4844 12.027 16.3036 11.0834 17.3813 10.8827C17.9185 11.3318 18.6012 11.6134 19.3553 11.6134V10.065C18.5014 10.065 17.8069 9.37063 17.8069 8.51669C17.8069 7.66275 18.5014 6.96833 19.3553 6.96833Z" fill="white"/>
<path d="M34.8377 5.41997C34.4521 5.41997 34.087 5.49973 33.7464 5.62826C33.2444 4.59325 32.1924 3.87161 30.9668 3.87161C29.259 3.87161 27.8701 5.26083 27.8701 6.96833V28.6453C27.8701 30.3532 29.259 31.7421 30.9668 31.7421C32.1924 31.7421 33.2444 31.0208 33.7464 29.9854C34.087 30.1139 34.4521 30.1937 34.8377 30.1937C36.5456 30.1937 37.9344 28.8049 37.9344 27.097C37.9344 26.7333 37.8604 26.3886 37.7439 26.0642C39.208 25.5116 40.257 24.1072 40.257 22.4519C40.257 21.8149 40.0876 21.2218 39.8136 20.6907C40.9748 20.2439 41.8053 19.1246 41.8053 17.8068C41.8053 16.4894 40.9748 15.3698 39.8136 14.9233C40.0876 14.3922 40.257 13.7991 40.257 13.1618C40.257 11.5068 39.208 10.1025 37.7439 9.54943C37.8604 9.22509 37.9344 8.88072 37.9344 8.51669C37.9344 6.80918 36.5456 5.41997 34.8377 5.41997ZM38.7086 13.1618C38.7086 14.4425 37.6668 15.4843 36.3861 15.4843C35.1057 15.4843 34.0635 14.4425 34.0635 13.1618H32.5152C32.5152 15.2964 34.2518 17.0327 36.3861 17.0327C37.2608 17.0327 38.0599 16.7302 38.7086 16.2384V16.2585C39.5626 16.2585 40.257 16.9529 40.257 17.8068C40.257 18.6608 39.5626 19.3552 38.7086 19.3552V19.3756C38.0599 18.8838 37.2608 18.581 36.3861 18.581C34.2518 18.581 32.5152 20.3176 32.5152 22.4519H34.0635C34.0635 21.1716 35.1057 20.1294 36.3861 20.1294C37.6668 20.1294 38.7086 21.1716 38.7086 22.4519C38.7086 23.5871 37.8895 24.5306 36.8121 24.7313C36.2746 24.2823 35.5919 24.0003 34.8377 24.0003V25.5486C35.6917 25.5486 36.3861 26.243 36.3861 27.097C36.3861 27.9509 35.6917 28.6453 34.8377 28.6453C33.9838 28.6453 33.2894 27.9509 33.2894 27.097H31.741C31.741 27.8413 32.0158 28.5161 32.4547 29.0502C32.2751 29.7068 31.6798 30.1937 30.9668 30.1937C30.1129 30.1937 29.4185 29.4993 29.4185 28.6453V6.96833C29.4185 6.11439 30.1129 5.41997 30.9668 5.41997C31.6798 5.41997 32.2751 5.90723 32.4547 6.56347C32.0158 7.09761 31.741 7.77275 31.741 8.51669H33.2894C33.2894 7.66275 33.9838 6.96833 34.8377 6.96833C35.6917 6.96833 36.3861 7.66275 36.3861 8.51669C36.3861 9.37063 35.6917 10.065 34.8377 10.065V11.6134C35.5919 11.6134 36.2746 11.3318 36.8121 10.8827C37.8895 11.0834 38.7086 12.027 38.7086 13.1618Z" fill="white"/>
<path d="M39.2876 4.82875C35.67 1.42848 30.9319 -0.276372 25.9595 0.0366257L26.0555 1.58158C30.5989 1.2992 34.9234 2.85285 38.2276 5.95675C41.5334 9.0633 43.3543 13.2725 43.3543 17.8068C43.3543 23.2711 40.6307 28.338 36.0684 31.3614C34.4947 32.4047 33.304 33.893 32.5702 35.6129H21.5907C20.8468 33.8805 19.6515 32.3817 18.0752 31.3289C13.3734 28.1864 10.6717 22.9384 10.8475 17.2882L9.29989 17.2402C9.1071 23.4276 12.0666 29.1757 17.2152 32.6157C18.3523 33.3758 19.2603 34.4109 19.8931 35.6129H17.8064V37.1613H20.5107C20.6608 37.6629 20.781 38.177 20.8419 38.7097H19.3548V40.258H20.9031V42.5806C20.9031 43.0089 21.2501 43.3547 21.6773 43.3547H22.4515C22.4515 45.9166 24.5347 47.9998 27.0966 47.9998C29.6584 47.9998 31.7416 45.9166 31.7416 43.3547H32.5158C32.9433 43.3547 33.29 43.0089 33.29 42.5806V40.258H34.8383V38.7097H33.3444C33.3992 38.1778 33.5085 37.6622 33.6555 37.1613H36.3867V35.6129H34.2664C34.8901 34.4241 35.7928 33.4019 36.9242 32.6527C41.9197 29.3398 44.9027 23.7905 44.9027 17.8068C44.9027 12.9126 42.8557 8.18176 39.2876 4.82875ZM27.0966 46.4515C25.3887 46.4515 23.9998 45.0626 23.9998 43.3547H30.1933C30.1933 45.0626 28.8044 46.4515 27.0966 46.4515ZM31.7416 41.8064H22.4515V40.258H31.7416V41.8064ZM31.7968 38.7097H22.3895C22.3377 38.1827 22.2542 37.6648 22.1271 37.1613H32.0376C31.9144 37.6641 31.8429 38.1842 31.7968 38.7097Z" fill="white"/>
<path d="M8.51637 5.42002C10.2242 5.42002 11.6131 6.80923 11.6131 8.51673C11.6131 8.94503 11.9601 9.29091 12.3873 9.29091C12.8148 9.29091 13.1614 8.94503 13.1614 8.51673C13.1614 6.80923 14.5503 5.42002 16.2582 5.42002C16.6857 5.42002 17.0323 5.07413 17.0323 4.64584C17.0323 4.21792 16.6857 3.87166 16.2582 3.87166C14.5503 3.87166 13.1614 2.48282 13.1614 0.774942C13.1614 0.347027 12.8148 0.000762939 12.3873 0.000762939C11.9601 0.000762939 11.6131 0.347027 11.6131 0.774942C11.6131 2.48282 10.2242 3.87166 8.51637 3.87166C8.08921 3.87166 7.74219 4.21792 7.74219 4.64584C7.74219 5.07413 8.08921 5.42002 8.51637 5.42002ZM12.3873 3.33979C12.7313 3.85692 13.1762 4.30222 13.6933 4.64584C13.1762 4.98983 12.7313 5.43476 12.3873 5.95189C12.0436 5.43476 11.5983 4.98983 11.0812 4.64584C11.5983 4.30222 12.0436 3.85692 12.3873 3.33979Z" fill="white"/>
<path d="M11.6136 13.1617C12.0412 13.1617 12.3878 12.8159 12.3878 12.3876C12.3878 11.9597 12.0412 11.6134 11.6136 11.6134C9.90575 11.6134 8.51691 10.2246 8.51691 8.51667C8.51691 8.08876 8.17027 7.74249 7.74273 7.74249C7.31557 7.74249 6.96855 8.08876 6.96855 8.51667C6.96855 10.2246 5.57972 11.6134 3.87184 11.6134C3.44468 11.6134 3.09766 11.9597 3.09766 12.3876C3.09766 12.8159 3.44468 13.1617 3.87184 13.1617C5.57972 13.1617 6.96855 14.551 6.96855 16.2585C6.96855 16.6868 7.31557 17.0326 7.74273 17.0326C8.17027 17.0326 8.51691 16.6868 8.51691 16.2585C8.51691 14.551 9.90575 13.1617 11.6136 13.1617ZM7.74273 13.6936C7.39912 13.1765 6.95381 12.7316 6.43668 12.3876C6.95381 12.044 7.39836 11.5986 7.74273 11.0815C8.08673 11.5986 8.53166 12.0432 9.04878 12.3876C8.53166 12.7316 8.08673 13.1765 7.74273 13.6936Z" fill="white"/>
</svg>
