<svg width="45" height="37" viewBox="0 0 45 37" fill="none" xmlns="http://www.w3.org/2000/svg">
<path d="M44.2488 28.1427H42.9796V5.28292C42.9796 2.81876 41.0062 0.775391 38.5424 0.775391H6.45763C3.99382 0.775391 2.02041 2.81876 2.02041 5.28292V28.1427H0.751196C0.345464 28.1427 0 28.4401 0 28.8459V31.7168C0 34.181 2.02113 36.2244 4.48529 36.2244H40.5147C42.9789 36.2244 45 34.181 45 31.7168V28.8459C45 28.4401 44.6545 28.1427 44.2488 28.1427ZM3.4898 5.28292C3.4898 3.62915 4.80385 2.24478 6.45763 2.24478H38.5424C40.1961 2.24478 41.5102 3.62915 41.5102 5.28292V28.1427H39.3061V5.49781C39.3061 5.09172 38.9972 4.72437 38.5915 4.72437H6.40848C6.00275 4.72437 5.69388 5.09172 5.69388 5.49781V28.1427H3.4898V5.28292ZM34.6207 25.4038C34.612 24.4018 33.7959 23.5947 32.794 23.5968L32.3628 23.5957C32.2724 23.5975 32.1823 23.6061 32.0934 23.6212C32.0352 22.7534 31.3135 22.0801 30.4439 22.0815H29.6324C29.4685 22.0815 29.3056 22.1056 29.1488 22.1536C28.8403 21.7063 28.3316 21.4387 27.7881 21.4387H26.9691C26.9082 21.4405 26.8475 21.4458 26.7873 21.4544C26.7887 20.9519 26.7901 20.4285 26.7912 19.9693H32.9041C33.3098 19.9693 33.6122 19.6173 33.6122 19.2116V8.5973C33.6187 8.40358 33.5477 8.21524 33.4146 8.07426C33.2815 7.93328 33.0978 7.85148 32.9041 7.84682H12.0288C11.6202 7.85435 11.2938 8.1887 11.2959 8.5973V19.2116C11.2934 19.6217 11.6191 19.9581 12.0288 19.9693H22.7368C22.7357 21.3468 22.736 22.9715 22.7368 24.5163C21.7398 23.6374 20.2507 23.6166 19.2294 24.4668L18.8527 24.753C18.5636 24.9798 18.4811 25.383 18.6583 25.7051L21.1339 30.1631H20.5255C19.6861 30.1571 18.8872 29.8023 18.32 29.1834L17.5623 28.3702C17.4221 28.222 17.2262 28.1395 17.0221 28.1427H7.16327V6.19376H37.8367V28.1427H34.6232C34.6232 28.0509 34.6232 28.0233 34.6232 27.9763C34.625 27.1469 34.625 27.097 34.6207 25.4038ZM26.7959 17.6988C26.7948 16.6997 25.9919 15.9285 24.9688 15.9285H24.5663C24.2557 15.9195 23.9475 15.9884 23.6702 16.129C23.9263 15.8348 24.0609 15.4047 24.0609 14.8917V11.5798C24.0609 11.328 23.8212 11.159 23.4639 11.159C23.1016 11.159 22.867 11.3244 22.867 11.5798V14.8917C22.867 14.9208 22.8663 14.9487 22.8645 14.976C22.8638 14.9911 22.862 15.0051 22.8605 15.0194C22.8591 15.0305 22.8584 15.0424 22.8569 15.0531C22.8103 15.399 22.6022 15.5672 22.2241 15.5672C21.7919 15.5672 21.5813 15.3462 21.5813 14.8913V11.5798C21.5813 11.328 21.3416 11.159 20.9843 11.159C20.622 11.159 20.3874 11.3244 20.3874 11.5798V14.8917C20.3874 16.0253 21.0396 16.6499 22.2241 16.6499C22.5707 16.6592 22.9143 16.5885 23.2286 16.4429C22.9136 16.7747 22.7386 17.2149 22.7393 17.6726C22.7389 17.9184 22.7382 18.2244 22.7378 18.4999H12.7653V9.31621H32.1429V18.4999H26.7944C26.7955 18.0407 26.7959 17.7896 26.7959 17.6988ZM23.7301 27.1196C24.0171 27.012 24.2069 26.7376 24.2065 26.4308C24.2044 23.5014 24.204 19.683 24.209 17.6873C24.209 17.4725 24.3948 17.3975 24.5667 17.3975H24.9688C25.141 17.3975 25.3261 17.4728 25.3268 17.6884C25.3268 17.8222 25.3258 18.4138 25.324 19.2123C25.324 19.2159 25.3233 19.2134 25.3233 19.217C25.3233 19.2206 25.3236 19.2206 25.3236 19.2238C25.319 21.2672 25.3254 24.5665 25.3254 24.6128C25.3254 24.6468 25.3473 24.6788 25.3473 24.7114V25.0544C25.3473 25.4601 25.6763 25.7891 26.082 25.7891C26.4877 25.7891 26.8167 25.4601 26.8167 25.0544V23.0799C26.8167 22.9787 26.8683 22.9077 26.9695 22.9077H27.7885C27.8897 22.9077 28.0106 22.9787 28.0106 23.0799V25.6972C28.0106 26.103 28.3395 26.4319 28.7453 26.4319C29.151 26.4319 29.4799 26.103 29.4799 25.6972V23.7227C29.4799 23.6216 29.5316 23.5505 29.6328 23.5505H30.4439C30.545 23.5505 30.5816 23.6216 30.5816 23.7227V25.6972C30.5816 26.103 30.9106 26.4319 31.3163 26.4319C31.7221 26.4319 32.051 26.103 32.051 25.6972V25.4002C32.1429 25.2836 32.1073 25.1839 32.1647 25.1261C32.2168 25.0824 32.2835 25.0601 32.3513 25.0648L32.7882 25.0659C32.8815 25.063 32.9719 25.0974 33.0397 25.1613C33.1071 25.2255 33.1462 25.3141 33.1484 25.4074C33.1527 27.0963 33.1541 27.13 33.1523 27.9573C33.1516 28.3989 33.1509 29.0894 33.1498 30.354C33.148 31.908 31.8882 33.1938 30.3402 33.1938H26.1405C25.1166 33.1819 24.1789 32.6194 23.686 31.7222L20.2486 25.539C20.7555 25.1753 21.4554 25.2528 21.8701 25.7184L22.9183 26.9177C23.1199 27.1476 23.4438 27.2283 23.7301 27.1196ZM43.5306 31.7168C43.5306 33.371 42.1688 34.755 40.5147 34.755H4.48529C2.83115 34.755 1.46939 33.371 1.46939 31.7168V29.6121H16.7003L17.2398 30.1951C18.0872 31.1109 19.2778 31.6318 20.5255 31.6325H21.9522L22.4021 32.4505C23.1561 33.8101 24.5857 34.6563 26.1405 34.6631H30.3402C32.7043 34.6542 34.6171 32.7364 34.6196 30.3723C34.6196 30.0928 34.6203 29.7958 34.6207 29.6121H43.5306V31.7168Z" fill="white"/>
</svg>
