<svg width="20" height="20" viewBox="0 0 20 20" fill="none" xmlns="http://www.w3.org/2000/svg">
<path d="M19.1653 12.6815L11.2245 12.6734V13.4897C11.2234 13.8792 10.9079 14.1947 10.5184 14.1958H9.48367C9.09684 14.197 8.78112 13.8867 8.77551 13.4999V12.6836H0.842857C0.538674 12.6824 0.24301 12.5829 0 12.3999V17.0938C0.0022449 17.6169 0.425816 18.0405 0.94898 18.0427H19.0347C19.561 18.0495 19.9932 17.6284 20 17.1021C20 17.102 20 17.102 20 17.1019V12.4081C19.758 12.5858 19.4656 12.6816 19.1653 12.6815Z" fill="white"/>
<path d="M19.0429 4.61424H13.8776V3.17138C13.877 2.84959 13.7485 2.54123 13.5204 2.31424C13.2934 2.08612 12.9851 1.95765 12.6633 1.95709H7.32857C6.6523 1.95709 6.10408 2.50531 6.10408 3.18158V4.62444H0.957143C0.434745 4.62214 0.00780612 5.04087 0 5.56322V11.2551C0.00112245 11.7156 0.374184 12.0886 0.834694 12.0897H8.77551V11.2734C8.77663 10.8839 9.09214 10.5684 9.48163 10.5673H10.5143C10.9019 10.565 11.2189 10.8756 11.2245 11.2632V12.0795H19.1592C19.6182 12.0818 19.9933 11.714 20 11.2551V5.56322C19.9978 5.03689 19.5692 4.61199 19.0429 4.61424ZM12.6367 4.61424H7.36327V3.20607H12.6367V4.61424Z" fill="white"/>
</svg>
