<svg width="84" height="77" viewBox="0 0 84 77" fill="none" xmlns="http://www.w3.org/2000/svg">
<rect x="6.38477" y="43" width="71.2308" height="6.61539" stroke="black" stroke-width="2"/>
<path d="M25.7695 6.00001C25.7695 3.23858 28.0081 1 30.7695 1H53.2311C55.9925 1 58.2311 3.23858 58.2311 6V43.1538H25.7695V6.00001Z" stroke="black" stroke-width="2"/>
<path d="M0 43.0769H84" stroke="black" stroke-width="2"/>
<path d="M31.2305 15.0769H52.7689" stroke="black" stroke-width="2"/>
<path d="M24.7695 57.0769H59.2311" stroke="black" stroke-width="2"/>
<path d="M32.3076 66.7692H51.6922" stroke="black" stroke-width="2"/>
<path d="M10.7695 75.3846H19.3849" stroke="black" stroke-width="2"/>
<path d="M64.6152 75.3846H73.2306" stroke="black" stroke-width="2"/>
<path d="M41.4619 57.0769V76.4615" stroke="black" stroke-width="2"/>
<path d="M72.1543 48.4615V76.4615" stroke="black" stroke-width="2"/>
<path d="M11.8457 48.4615V76.4615" stroke="black" stroke-width="2"/>
<path d="M50.6152 65.6923V76.4616" stroke="black" stroke-width="2"/>
<path d="M32.3076 65.6923V76.4616" stroke="black" stroke-width="2"/>
<path d="M57.6152 27.4615H62.5391C64.0375 27.4615 65.3062 28.5672 65.5109 30.0516L67.3075 43.0769" stroke="black" stroke-width="2"/>
<path d="M26.3848 27.4615H21.4609C19.9625 27.4615 18.6938 28.5672 18.4891 30.0516L16.6925 43.0769" stroke="black" stroke-width="2"/>
</svg>
