<svg width="22" height="22" viewBox="0 0 22 22" fill="none" xmlns="http://www.w3.org/2000/svg">
<path d="M18.7062 14.9844C17.7243 13.9205 16.5326 13.0714 15.2064 12.4906C13.8801 11.9099 12.4479 11.6101 11.0001 11.6101C9.55228 11.6101 8.12013 11.9099 6.79387 12.4906C5.4676 13.0714 4.27596 13.9205 3.294 14.9844C3.14239 15.152 3.05758 15.3695 3.05566 15.5955V19.2622C3.05888 19.5032 3.15687 19.7332 3.32843 19.9025C3.49999 20.0717 3.73132 20.1666 3.97233 20.1666H18.0279C18.271 20.1666 18.5042 20.07 18.6761 19.8981C18.848 19.7262 18.9446 19.4931 18.9446 19.2499V15.5833C18.9397 15.3615 18.8551 15.1489 18.7062 14.9844Z" fill="#F7D033"/>
<path d="M11.0004 10.3889C13.363 10.3889 15.2782 8.4737 15.2782 6.11115C15.2782 3.7486 13.363 1.83337 11.0004 1.83337C8.63788 1.83337 6.72266 3.7486 6.72266 6.11115C6.72266 8.4737 8.63788 10.3889 11.0004 10.3889Z" fill="#F7D033"/>
</svg>
