<svg width="51" height="51" viewBox="0 0 51 51" fill="none" xmlns="http://www.w3.org/2000/svg">
<path d="M43.871 2.68701H7.12903C3.68516 2.68701 0 4.5625 0 9.81604V34.4496C0 39.7031 3.68516 41.5786 7.12903 41.5786H20.729V46.1193H18.4697C17.864 46.1193 17.3729 46.6103 17.3729 47.216C17.3729 47.8217 17.864 48.3128 18.4697 48.3128H32.9471C33.5528 48.3128 34.0439 47.8217 34.0439 47.216C34.0439 46.6103 33.5528 46.1193 32.9471 46.1193H30.271V41.5786H43.871C49.1245 41.5786 51 37.8935 51 34.4496V9.81604C51 4.5625 47.3148 2.68701 43.871 2.68701ZM28.0774 46.1193H22.9226V41.5786H28.0774V46.1193ZM48.8065 34.4496C48.8065 35.9302 48.3239 39.3851 43.871 39.3851H7.12903C5.64839 39.3851 2.19355 38.9025 2.19355 34.4496V32.8812H48.8065V34.4496ZM48.8065 30.6986H2.19355V9.85991C2.19355 5.40701 5.64839 4.92443 7.12903 4.92443H43.871C45.3516 4.92443 48.8065 5.40701 48.8065 9.85991V30.6986Z" fill="#FECC2F"/>
<path d="M43.2825 7.86379C42.7983 7.49993 42.1107 7.59755 41.7469 8.08177C41.7465 8.08232 41.7461 8.08273 41.7458 8.08328H41.8006L33.6187 19.051L29.78 14.0607C29.5801 13.8006 29.2742 13.6437 28.9464 13.633C28.62 13.6236 28.3063 13.7605 28.0909 14.0059L21.8392 21.113L17.2547 13.282C17.0592 12.9523 16.7057 12.7485 16.3224 12.7446C15.9375 12.7424 15.5794 12.9421 15.3792 13.271L7.81146 25.5001C7.42196 25.964 7.48242 26.6558 7.94636 27.0453C8.41029 27.4348 9.10208 27.3743 9.49158 26.9104C9.57013 26.8169 9.63237 26.7109 9.67597 26.5968L16.2566 15.8704L20.6437 23.4272C20.9496 23.95 21.6214 24.1258 22.1442 23.8199C22.2435 23.7618 22.333 23.6885 22.4095 23.6026L28.7927 16.4626L32.7082 21.5517C32.9322 21.8053 33.248 21.9591 33.5856 21.9794C33.927 21.976 34.2473 21.8138 34.4521 21.5407L43.5005 9.39941C43.8643 8.91518 43.7667 8.22764 43.2825 7.86379Z" fill="#FECC2F"/>
</svg>
