<svg width="95" height="33" viewBox="0 0 95 33" fill="none" xmlns="http://www.w3.org/2000/svg">
<path d="M1.6588 0L0 2.73164V30.9292H45.8636L47.9259 33L50.2124 30.9292H93.386L95 28.3298V0H1.6588ZM48.4639 28.8144L47.9707 28.3298L46.8948 27.1842H3.13827V1.45394H93.5205V27.1842H49.9882L48.4639 28.8144Z" fill="#FEDD00"/>
<path d="M14.2961 7.84281C14.1006 7.6087 13.8268 7.37458 13.5531 7.23411C13.2793 7.09365 12.9665 7 12.6536 7H10.3464C10.0335 7 9.72067 7.09365 9.44693 7.23411C9.17318 7.37458 8.93855 7.56187 8.70391 7.84281C8.50838 8.07692 8.31285 8.40468 8.19553 8.73244C8.07821 9.0602 8 9.43478 8 9.80936V18.1906C8 18.5652 8.07821 18.9398 8.19553 19.2676C8.31285 19.5953 8.46927 19.8763 8.70391 20.1572C8.89944 20.3913 9.17318 20.6254 9.44693 20.7659C9.72067 20.9064 10.0335 21 10.3464 21H12.6536C12.9665 21 13.2793 20.9064 13.5531 20.7659C13.8268 20.6254 14.0615 20.4381 14.2961 20.1572C14.4916 19.9231 14.6872 19.5953 14.8045 19.2676C14.9218 18.9398 15 18.5652 15 18.1906V16.786H12.6536V18.1906H10.3464V9.80936H12.6536V11.214H15V9.80936C15 9.43478 14.9218 9.0602 14.8045 8.73244C14.6872 8.40468 14.5307 8.07692 14.2961 7.84281Z" fill="black"/>
<path d="M25.1955 7.84281C24.9721 7.6087 24.6592 7.37458 24.3464 7.23411C24.0335 7.09365 23.676 7 23.3184 7H20.6816C20.324 7 19.9665 7.09365 19.6536 7.23411C19.3408 7.37458 19.0726 7.56187 18.8045 7.84281C18.581 8.07692 18.3575 8.40468 18.2235 8.73244C18.0894 9.0602 18 9.43478 18 9.80936V18.1906C18 18.5652 18.0894 18.9398 18.2235 19.2676C18.3575 19.5953 18.5363 19.8763 18.8045 20.1572C19.0279 20.3913 19.3408 20.6254 19.6536 20.7659C19.9665 20.9064 20.324 21 20.6816 21H23.3184C23.676 21 24.0335 20.9064 24.3464 20.7659C24.6592 20.6254 24.9274 20.4381 25.1955 20.1572C25.419 19.9231 25.6425 19.5953 25.7765 19.2676C25.9106 18.9398 26 18.5652 26 18.1906V9.80936C26 9.43478 25.9106 9.0602 25.7765 8.73244C25.6425 8.40468 25.4637 8.07692 25.1955 7.84281ZM23.3184 18.1438H20.6816V9.80936H23.3184V18.1438Z" fill="black"/>
<path d="M34.5 15.6443L31.958 7H29V21H31.7731V16.0671L33.2059 21H35.7941L37.2731 16.0671V21H40V7H37.042L34.5 15.6443Z" fill="black"/>
<path d="M49.191 7.84848C48.9663 7.61279 48.6517 7.3771 48.3371 7.23569C48.0225 7.09428 47.6629 7 47.3034 7H42V21H44.6517V16.8047H47.3034C47.6629 16.8047 48.0225 16.7104 48.3371 16.569C48.6517 16.4276 48.9213 16.2391 49.191 15.9562C49.4157 15.7205 49.6404 15.3906 49.7753 15.0606C49.9101 14.7306 50 14.3535 50 13.9764V9.78114C50 9.40404 49.9101 9.02694 49.7753 8.69697C49.6404 8.41414 49.4607 8.08417 49.191 7.84848ZM47.3034 14.0236H44.6517V9.82828H47.3034V14.0236Z" fill="black"/>
<path d="M54.7905 7H52V21H59V18.1812H54.7905V7Z" fill="black"/>
<path d="M62 21H68V18.1812H64.4161V15.4094H67.396V12.5906H64.4161V9.81879H68V7H62V21Z" fill="black"/>
<path d="M71 9.81879H73.6816V21H76.3184V9.81879H79V7H71V9.81879Z" fill="black"/>
<path d="M89.7765 8.73244C89.6425 8.40468 89.419 8.12375 89.1955 7.84281C88.9721 7.6087 88.6592 7.37458 88.3464 7.23411C88.0335 7.09365 87.676 7 87.3184 7H84.6816C84.324 7 83.9665 7.09365 83.6536 7.23411C83.3408 7.37458 83.0726 7.56187 82.8045 7.84281C82.581 8.07692 82.3575 8.40468 82.2235 8.73244C82.0894 9.0602 82 9.43478 82 9.80936V18.1906C82 18.5652 82.0894 18.9398 82.2235 19.2676C82.3575 19.5953 82.5363 19.8763 82.8045 20.1572C83.0279 20.3913 83.3408 20.6254 83.6536 20.7659C83.9665 20.9064 84.324 21 84.6816 21H87.3184C87.676 21 88.0335 20.9064 88.3464 20.7659C88.6592 20.6254 88.9274 20.4381 89.1955 20.1572C89.419 19.9231 89.6425 19.5953 89.7765 19.2676C89.9106 18.9398 90 18.5652 90 18.1906V9.80936C90 9.43478 89.9106 9.0602 89.7765 8.73244ZM87.3184 18.1438H84.6816V9.80936H87.3184V18.1438Z" fill="black"/>
</svg>
