<svg width="82" height="83" viewBox="0 0 82 83" fill="none" xmlns="http://www.w3.org/2000/svg">
<g>
<path d="M67.8629 10.5651C67.8629 8.22283 65.9638 6.32371 63.6215 6.32371H59.3801C59.3801 3.98139 57.4809 2.08228 55.1386 2.08228C52.7963 2.08228 50.8972 3.98139 50.8972 6.32371H45.242C45.242 3.98139 43.3428 2.08228 41.0005 2.08228C38.6582 2.08228 36.7591 3.98139 36.7591 6.32371H31.1038C31.1038 3.98139 29.2047 2.08228 26.8624 2.08228C24.5201 2.08228 22.621 3.98139 22.621 6.32371H16.9657C16.9657 3.98139 15.0666 2.08228 12.7243 2.08228C10.382 2.08228 8.48287 3.98139 8.48287 6.32371H4.24143C1.89912 6.32371 0 8.22283 0 10.5651V69.9452C0 70.726 0.633039 71.359 1.41381 71.359H5.65524V75.6005C5.65524 76.3812 6.28828 77.0143 7.06905 77.0143H44.299C44.3176 77.0143 44.3314 77.0046 44.3487 77.0046C51.8367 82.169 61.6002 82.6599 69.5687 78.2714C77.5373 73.8836 82.3421 65.3697 81.981 56.2807C81.62 47.191 76.1546 39.0858 67.8629 35.3434V10.5651ZM53.7248 6.32371C53.7248 5.54294 54.3579 4.9099 55.1386 4.9099C55.9194 4.9099 56.5524 5.54294 56.5524 6.32371V10.5651H53.7248V6.32371ZM39.5867 6.32371C39.5867 5.54294 40.2197 4.9099 41.0005 4.9099C41.7813 4.9099 42.4143 5.54294 42.4143 6.32371V10.5651H39.5867V6.32371ZM25.4486 6.32371C25.4486 5.54294 26.0816 4.9099 26.8624 4.9099C27.6432 4.9099 28.2762 5.54294 28.2762 6.32371V10.5651H25.4486V6.32371ZM11.3105 6.32371C11.3105 5.54294 11.9435 4.9099 12.7243 4.9099C13.5051 4.9099 14.1381 5.54294 14.1381 6.32371V10.5651H11.3105V6.32371ZM2.82762 10.5651C2.82762 9.78437 3.46066 9.15133 4.24143 9.15133H8.48287V11.979C8.48287 12.7597 9.1159 13.3928 9.89668 13.3928H15.5519C16.3327 13.3928 16.9657 12.7597 16.9657 11.979V9.15133H22.621V11.979C22.621 12.7597 23.254 13.3928 24.0348 13.3928H29.69C30.4708 13.3928 31.1038 12.7597 31.1038 11.979V9.15133H36.7591V11.979C36.7591 12.7597 37.3921 13.3928 38.1729 13.3928H43.8281C44.6089 13.3928 45.242 12.7597 45.242 11.979V9.15133H50.8972V11.979C50.8972 12.7597 51.5302 13.3928 52.311 13.3928H57.9663C58.747 13.3928 59.3801 12.7597 59.3801 11.979V9.15133H63.6215C64.4023 9.15133 65.0353 9.78437 65.0353 10.5651V17.6342H2.82762V10.5651ZM8.48287 71.359H38.5733C39.2947 72.3614 40.0927 73.3065 40.9598 74.1867H8.48287V71.359ZM79.1734 57.2209C79.1734 68.9332 69.6785 78.4281 57.9663 78.4281C46.254 78.4281 36.7591 68.9332 36.7591 57.2209C36.7591 45.5087 46.254 36.0137 57.9663 36.0137C69.673 36.0269 79.1603 45.5142 79.1734 57.2209ZM57.9663 33.1861C49.5214 33.1806 41.6943 37.6098 37.3514 44.8521C33.0085 52.0938 32.7876 61.0854 36.7701 68.5314H2.82762V20.4618H65.0353V34.2506C62.7455 33.5444 60.3624 33.1854 57.9663 33.1861Z" fill="black"/>
<path d="M12.7243 26.1169C10.382 26.1169 8.48285 28.0161 8.48285 30.3584C8.48285 32.7007 10.382 34.5998 12.7243 34.5998C15.0666 34.5998 16.9657 32.7007 16.9657 30.3584C16.9657 28.0161 15.0666 26.1169 12.7243 26.1169ZM12.7243 31.7722C11.9435 31.7722 11.3105 31.1391 11.3105 30.3584C11.3105 29.5776 11.9435 28.9446 12.7243 28.9446C13.5051 28.9446 14.1381 29.5776 14.1381 30.3584C14.1381 31.1391 13.5051 31.7722 12.7243 31.7722Z" fill="black"/>
<path d="M26.8624 26.1169C24.5201 26.1169 22.6209 28.0161 22.6209 30.3584C22.6209 32.7007 24.5201 34.5998 26.8624 34.5998C29.2047 34.5998 31.1038 32.7007 31.1038 30.3584C31.1038 28.0161 29.2047 26.1169 26.8624 26.1169ZM26.8624 31.7722C26.0816 31.7722 25.4486 31.1391 25.4486 30.3584C25.4486 29.5776 26.0816 28.9446 26.8624 28.9446C27.6432 28.9446 28.2762 29.5776 28.2762 30.3584C28.2762 31.1391 27.6432 31.7722 26.8624 31.7722Z" fill="black"/>
<path d="M41.0005 26.1169C38.6582 26.1169 36.7591 28.0161 36.7591 30.3584C36.7591 32.7007 38.6582 34.5998 41.0005 34.5998C43.3428 34.5998 45.2419 32.7007 45.2419 30.3584C45.2419 28.0161 43.3428 26.1169 41.0005 26.1169ZM41.0005 31.7722C40.2197 31.7722 39.5867 31.1391 39.5867 30.3584C39.5867 29.5776 40.2197 28.9446 41.0005 28.9446C41.7813 28.9446 42.4143 29.5776 42.4143 30.3584C42.4143 31.1391 41.7813 31.7722 41.0005 31.7722Z" fill="black"/>
<path d="M12.7243 37.4275C10.382 37.4275 8.48285 39.3266 8.48285 41.6689C8.48285 44.0112 10.382 45.9103 12.7243 45.9103C15.0666 45.9103 16.9657 44.0112 16.9657 41.6689C16.9657 39.3266 15.0666 37.4275 12.7243 37.4275ZM12.7243 43.0827C11.9435 43.0827 11.3105 42.4497 11.3105 41.6689C11.3105 40.8881 11.9435 40.2551 12.7243 40.2551C13.5051 40.2551 14.1381 40.8881 14.1381 41.6689C14.1381 42.4497 13.5051 43.0827 12.7243 43.0827Z" fill="black"/>
<path d="M26.8624 37.4275C24.5201 37.4275 22.6209 39.3266 22.6209 41.6689C22.6209 44.0112 24.5201 45.9103 26.8624 45.9103C29.2047 45.9103 31.1038 44.0112 31.1038 41.6689C31.1038 39.3266 29.2047 37.4275 26.8624 37.4275ZM26.8624 43.0827C26.0816 43.0827 25.4486 42.4497 25.4486 41.6689C25.4486 40.8881 26.0816 40.2551 26.8624 40.2551C27.6432 40.2551 28.2762 40.8881 28.2762 41.6689C28.2762 42.4497 27.6432 43.0827 26.8624 43.0827Z" fill="black"/>
<path d="M12.7243 48.738C10.382 48.738 8.48285 50.6372 8.48285 52.9795C8.48285 55.3218 10.382 57.2209 12.7243 57.2209C15.0666 57.2209 16.9657 55.3218 16.9657 52.9795C16.9657 50.6372 15.0666 48.738 12.7243 48.738ZM12.7243 54.3933C11.9435 54.3933 11.3105 53.7602 11.3105 52.9795C11.3105 52.1987 11.9435 51.5657 12.7243 51.5657C13.5051 51.5657 14.1381 52.1987 14.1381 52.9795C14.1381 53.7602 13.5051 54.3933 12.7243 54.3933Z" fill="black"/>
<path d="M26.8624 48.738C24.5201 48.738 22.6209 50.6372 22.6209 52.9795C22.6209 55.3218 24.5201 57.2209 26.8624 57.2209C29.2047 57.2209 31.1038 55.3218 31.1038 52.9795C31.1038 50.6372 29.2047 48.738 26.8624 48.738ZM26.8624 54.3933C26.0816 54.3933 25.4486 53.7602 25.4486 52.9795C25.4486 52.1987 26.0816 51.5657 26.8624 51.5657C27.6432 51.5657 28.2762 52.1987 28.2762 52.9795C28.2762 53.7602 27.6432 54.3933 26.8624 54.3933Z" fill="black"/>
<path d="M39.5868 57.2209C39.5868 67.3716 47.8156 75.6004 57.9664 75.6004C68.1171 75.6004 76.3459 67.3716 76.3459 57.2209C76.3459 47.0701 68.1171 38.8413 57.9664 38.8413C47.8205 38.853 39.5986 47.075 39.5868 57.2209ZM73.5183 57.2209H70.6907C69.9099 57.2209 69.2769 57.8539 69.2769 58.6347C69.2769 59.4154 69.9099 60.0485 70.6907 60.0485H73.2484C71.9733 66.8918 66.3112 72.0576 59.3802 72.701V69.9452C59.3802 69.1644 58.7471 68.5313 57.9664 68.5313C57.1856 68.5313 56.5526 69.1644 56.5526 69.9452V72.701C49.6216 72.0576 43.9594 66.8918 42.6844 60.0485H45.2421C46.0228 60.0485 46.6559 59.4154 46.6559 58.6347C46.6559 57.8539 46.0228 57.2209 45.2421 57.2209H42.4144C42.4248 49.1853 48.5509 42.478 56.5526 41.7414V44.4966C56.5526 45.2773 57.1856 45.9104 57.9664 45.9104C58.7471 45.9104 59.3802 45.2773 59.3802 44.4966V41.7414C67.3819 42.478 73.5079 49.1853 73.5183 57.2209Z" fill="black"/>
<path d="M58.27 56.5422L56.315 53.609C55.8814 52.9594 55.0033 52.784 54.3537 53.2169C53.7041 53.6504 53.5287 54.5285 53.9623 55.1781L56.7899 59.4195C57.0129 59.7523 57.3663 59.9753 57.7626 60.0333C57.8302 60.0436 57.8979 60.0491 57.9662 60.0484C58.2969 60.0491 58.6172 59.9332 58.8713 59.7219L67.3541 52.6528C67.9547 52.153 68.0362 51.2611 67.5364 50.6612C67.0366 50.0606 66.1447 49.9785 65.5441 50.4783L58.27 56.5422Z" fill="black"/>
</g>
</svg>
