<svg width="105" height="83" viewBox="0 0 105 83" fill="none" xmlns="http://www.w3.org/2000/svg">
<path d="M52.5001 60.9315C54.3939 60.9315 56.2453 60.3699 57.82 59.3177C59.3947 58.2655 60.622 56.77 61.3468 55.0203C62.0715 53.2706 62.2612 51.3453 61.8917 49.4878C61.5222 47.6303 60.6102 45.9241 59.271 44.5849C57.9319 43.2457 56.2257 42.3337 54.3682 41.9643C52.5107 41.5948 50.5854 41.7844 48.8356 42.5092C47.0859 43.2339 45.5904 44.4613 44.5383 46.036C43.4861 47.6107 42.9245 49.462 42.9245 51.3559C42.9274 53.8946 43.9372 56.3285 45.7323 58.1236C47.5275 59.9188 49.9614 60.9286 52.5001 60.9315ZM52.5001 44.335C53.8887 44.335 55.2461 44.7467 56.4007 45.5182C57.5553 46.2897 58.4552 47.3862 58.9866 48.6691C59.518 49.952 59.657 51.3637 59.3861 52.7256C59.1152 54.0875 58.4465 55.3385 57.4646 56.3204C56.4827 57.3023 55.2317 57.971 53.8698 58.2419C52.5079 58.5128 51.0962 58.3738 49.8133 57.8424C48.5304 57.311 47.4339 56.4111 46.6624 55.2565C45.8909 54.1019 45.4792 52.7445 45.4792 51.3559C45.4813 49.4945 46.2217 47.7099 47.5379 46.3937C48.8541 45.0775 50.6387 44.3371 52.5001 44.335Z" fill="black"/>
<path d="M49.7649 38.6546C49.7649 39.1956 49.9253 39.7244 50.2258 40.1742C50.5264 40.624 50.9536 40.9746 51.4534 41.1817C51.9532 41.3887 52.5031 41.4428 53.0337 41.3373C53.5643 41.2318 54.0517 40.9713 54.4342 40.5887C54.8167 40.2062 55.0772 39.7188 55.1828 39.1883C55.2883 38.6577 55.2341 38.1077 55.0271 37.6079C54.8201 37.1081 54.4695 36.6809 54.0197 36.3804C53.5699 36.0798 53.0411 35.9194 52.5001 35.9194C51.7749 35.9203 51.0797 36.2087 50.5669 36.7215C50.0542 37.2343 49.7657 37.9295 49.7649 38.6546ZM52.6815 38.6546C52.6815 38.6903 52.6709 38.7253 52.6511 38.7549C52.6312 38.7846 52.603 38.8078 52.57 38.8214C52.537 38.8351 52.5007 38.8387 52.4657 38.8317C52.4307 38.8247 52.3985 38.8075 52.3733 38.7823C52.348 38.757 52.3309 38.7249 52.3239 38.6899C52.3169 38.6548 52.3205 38.6185 52.3342 38.5856C52.3478 38.5526 52.371 38.5244 52.4007 38.5045C52.4303 38.4847 52.4652 38.4741 52.5009 38.4741C52.5487 38.4744 52.5943 38.4935 52.628 38.5273C52.6616 38.5612 52.6806 38.6069 52.6806 38.6546H52.6815Z" fill="black"/>
<path d="M52.5001 61.4639C51.9591 61.4639 51.4303 61.6243 50.9805 61.9248C50.5307 62.2254 50.1801 62.6526 49.9731 63.1524C49.7661 63.6522 49.7119 64.2021 49.8174 64.7327C49.923 65.2633 50.1835 65.7506 50.566 66.1332C50.9485 66.5157 51.4359 66.7762 51.9665 66.8817C52.4971 66.9873 53.047 66.9331 53.5468 66.7261C54.0466 66.5191 54.4738 66.1685 54.7743 65.7187C55.0749 65.2689 55.2353 64.7401 55.2353 64.1991C55.2345 63.4739 54.946 62.7787 54.4332 62.2659C53.9205 61.7532 53.2253 61.4647 52.5001 61.4639ZM52.5001 64.3805C52.4644 64.3805 52.4295 64.3699 52.3998 64.35C52.3701 64.3302 52.347 64.302 52.3333 64.269C52.3196 64.236 52.3161 64.1997 52.323 64.1647C52.33 64.1297 52.3472 64.0975 52.3724 64.0723C52.3977 64.047 52.4299 64.0298 52.4649 64.0229C52.4999 64.0159 52.5362 64.0195 52.5692 64.0332C52.6022 64.0468 52.6304 64.07 52.6502 64.0996C52.67 64.1293 52.6806 64.1642 52.6806 64.1999C52.6804 64.2477 52.6613 64.2934 52.6274 64.327C52.5936 64.3607 52.5478 64.3796 52.5001 64.3796V64.3805Z" fill="black"/>
<path d="M62.537 51.4271C62.5371 51.968 62.6975 52.4968 62.9981 52.9466C63.2987 53.3964 63.7259 53.7469 64.2257 53.9539C64.7255 54.1609 65.2754 54.2151 65.806 54.1095C66.3366 54.0039 66.8239 53.7434 67.2064 53.3609C67.5889 52.9783 67.8494 52.491 67.9549 51.9604C68.0604 51.4298 68.0063 50.8799 67.7992 50.3801C67.5922 49.8803 67.2416 49.4531 66.7918 49.1526C66.342 48.8521 65.8132 48.6917 65.2722 48.6917C64.547 48.6925 63.8518 48.981 63.339 49.4938C62.8262 50.0066 62.5378 50.7019 62.537 51.4271ZM65.2722 51.2463C65.308 51.2463 65.343 51.2569 65.3727 51.2767C65.4025 51.2965 65.4257 51.3247 65.4394 51.3578C65.4531 51.3908 65.4567 51.4271 65.4498 51.4622C65.4428 51.4973 65.4256 51.5295 65.4003 51.5548C65.3751 51.5801 65.3429 51.5973 65.3078 51.6043C65.2727 51.6113 65.2364 51.6078 65.2033 51.5941C65.1703 51.5804 65.1421 51.5572 65.1222 51.5275C65.1023 51.4978 65.0917 51.4628 65.0917 51.4271C65.0917 51.3792 65.1107 51.3332 65.1446 51.2993C65.1784 51.2655 65.2243 51.2464 65.2722 51.2463Z" fill="black"/>
<path d="M42.4632 51.4269C42.4632 50.8859 42.3028 50.3571 42.0022 49.9073C41.7017 49.4575 41.2745 49.1069 40.7747 48.8999C40.2749 48.6928 39.7249 48.6387 39.1943 48.7442C38.6638 48.8497 38.1764 49.1103 37.7939 49.4928C37.4113 49.8753 37.1508 50.3627 37.0453 50.8933C36.9398 51.4238 36.9939 51.9738 37.2009 52.4736C37.408 52.9734 37.7585 53.4006 38.2083 53.7011C38.6582 54.0017 39.187 54.1621 39.728 54.1621C40.4531 54.1612 41.1483 53.8728 41.6611 53.36C42.1739 52.8472 42.4623 52.152 42.4632 51.4269ZM39.728 51.6074C39.6922 51.6074 39.6572 51.5969 39.6275 51.577C39.5977 51.5572 39.5745 51.529 39.5608 51.4959C39.5471 51.4629 39.5435 51.4265 39.5505 51.3914C39.5574 51.3564 39.5746 51.3241 39.5999 51.2988C39.6252 51.2736 39.6575 51.2563 39.6925 51.2494C39.7276 51.2424 39.764 51.246 39.797 51.2597C39.83 51.2734 39.8583 51.2966 39.8781 51.3264C39.898 51.3561 39.9085 51.3911 39.9085 51.4269C39.9085 51.4506 39.9038 51.474 39.8947 51.4959C39.8857 51.5179 39.8724 51.5378 39.8556 51.5545C39.8388 51.5713 39.8189 51.5846 39.797 51.5936C39.7751 51.6027 39.7517 51.6074 39.728 51.6074Z" fill="black"/>
<path d="M61.5313 45.1296C61.8905 45.1303 62.2462 45.06 62.5781 44.9227C62.91 44.7855 63.2116 44.5841 63.4654 44.33C63.9141 43.8824 64.1936 43.2931 64.2564 42.6625C64.3192 42.0319 64.1613 41.399 63.8097 40.8718C63.4581 40.3445 62.9345 39.9555 62.3282 39.7711C61.7219 39.5867 61.0704 39.6183 60.4848 39.8604C59.8991 40.1026 59.4156 40.5403 59.1166 41.0991C58.8176 41.6579 58.7216 42.303 58.8451 42.9246C58.9685 43.5462 59.3037 44.1058 59.7935 44.5079C60.2833 44.91 60.8974 45.1298 61.5311 45.1299L61.5313 45.1296ZM61.4036 42.2682C61.4288 42.2429 61.461 42.2258 61.496 42.2188C61.531 42.2119 61.5673 42.2155 61.6003 42.2291C61.6333 42.2428 61.6615 42.2659 61.6813 42.2956C61.7011 42.3253 61.7117 42.3602 61.7117 42.3959C61.7117 42.4316 61.7011 42.4665 61.6813 42.4962C61.6615 42.5259 61.6333 42.549 61.6003 42.5627C61.5673 42.5763 61.531 42.5799 61.496 42.573C61.461 42.566 61.4288 42.5489 61.4036 42.5236C61.3867 42.5069 61.3732 42.4871 61.3641 42.4651C61.3549 42.4432 61.3502 42.4196 61.3502 42.3959C61.3502 42.3721 61.355 42.3485 61.3642 42.3266C61.3734 42.3047 61.3868 42.2848 61.4038 42.2682H61.4036Z" fill="black"/>
<path d="M43.4688 57.7234C43.0193 57.7236 42.5767 57.8347 42.1803 58.0468C41.7839 58.2589 41.446 58.5655 41.1963 58.9393C40.9466 59.3132 40.793 59.7428 40.749 60.1902C40.705 60.6376 40.7719 61.089 40.9439 61.5043C41.116 61.9197 41.3877 62.2862 41.7352 62.5715C42.0826 62.8567 42.4951 63.0519 42.9359 63.1398C43.3768 63.2277 43.8326 63.2055 44.2628 63.0752C44.6931 62.9449 45.0846 62.7106 45.4027 62.3929C45.7852 62.0104 46.0456 61.523 46.1511 60.9924C46.2565 60.4619 46.2024 59.912 45.9954 59.4122C45.7883 58.9125 45.4378 58.4853 44.9881 58.1847C44.5383 57.8842 44.0096 57.7237 43.4686 57.7236L43.4688 57.7234ZM43.5966 60.5863C43.5798 60.6031 43.5599 60.6164 43.538 60.6255C43.5161 60.6346 43.4926 60.6393 43.4688 60.6393C43.4451 60.6393 43.4216 60.6346 43.3997 60.6255C43.3778 60.6164 43.3579 60.6031 43.3411 60.5863C43.3158 60.5611 43.2986 60.5289 43.2916 60.4938C43.2846 60.4587 43.2882 60.4224 43.3018 60.3893C43.3155 60.3563 43.3387 60.3281 43.3684 60.3082C43.3981 60.2883 43.4331 60.2777 43.4688 60.2777C43.5046 60.2777 43.5395 60.2883 43.5693 60.3082C43.599 60.3281 43.6222 60.3563 43.6358 60.3893C43.6495 60.4224 43.6531 60.4587 43.6461 60.4938C43.6391 60.5289 43.6219 60.5611 43.5966 60.5863Z" fill="black"/>
<path d="M61.5311 57.7231C60.9901 57.7231 60.4613 57.8835 60.0115 58.1841C59.5617 58.4846 59.2111 58.9118 59.0041 59.4116C58.797 59.9114 58.7429 60.4614 58.8484 60.992C58.954 61.5225 59.2145 62.0099 59.597 62.3924C59.9151 62.7104 60.3067 62.9451 60.7371 63.0756C61.1676 63.2062 61.6236 63.2285 62.0647 63.1407C62.5059 63.0529 62.9185 62.8577 63.2662 62.5723C63.6139 62.287 63.8858 61.9203 64.0579 61.5047C64.23 61.0891 64.297 60.6375 64.2529 60.1899C64.2088 59.7423 64.055 59.3125 63.8051 58.9385C63.5552 58.5645 63.2169 58.2579 62.8202 58.0459C62.4235 57.8338 61.9807 57.7229 61.5309 57.7229L61.5311 57.7231ZM61.6588 60.5858C61.6421 60.6027 61.6222 60.6161 61.6003 60.6252C61.5784 60.6344 61.5549 60.6391 61.5311 60.6391C61.5074 60.6391 61.4838 60.6344 61.4619 60.6252C61.44 60.6161 61.4201 60.6027 61.4034 60.5858C61.3781 60.5606 61.361 60.5284 61.354 60.4934C61.3471 60.4584 61.3507 60.4221 61.3643 60.3891C61.378 60.3562 61.4012 60.328 61.4308 60.3081C61.4605 60.2883 61.4954 60.2777 61.5311 60.2777C61.5668 60.2777 61.6017 60.2883 61.6314 60.3081C61.6611 60.328 61.6842 60.3562 61.6979 60.3891C61.7115 60.4221 61.7151 60.4584 61.7082 60.4934C61.7012 60.5284 61.6841 60.5606 61.6588 60.5858Z" fill="black"/>
<path d="M41.5348 44.3301C41.9174 44.7126 42.4047 44.9731 42.9353 45.0786C43.4659 45.1841 44.0158 45.1299 44.5156 44.9229C45.0154 44.7158 45.4425 44.3652 45.7431 43.9154C46.0436 43.4656 46.204 42.9368 46.204 42.3959C46.204 41.8549 46.0436 41.3261 45.7431 40.8763C45.4425 40.4265 45.0154 40.0759 44.5156 39.8689C44.0158 39.6619 43.4659 39.6077 42.9353 39.7132C42.4047 39.8187 41.9174 40.0792 41.5348 40.4616C41.2798 40.7151 41.0774 41.0164 40.9392 41.3484C40.8011 41.6803 40.73 42.0363 40.73 42.3959C40.73 42.7554 40.8011 43.1114 40.9392 43.4434C41.0774 43.7753 41.2798 44.0767 41.5348 44.3301ZM43.3412 42.2682C43.3664 42.243 43.3986 42.2258 43.4336 42.2189C43.4686 42.2119 43.5049 42.2155 43.5379 42.2292C43.5709 42.2429 43.5991 42.266 43.6189 42.2957C43.6387 42.3254 43.6493 42.3603 43.6493 42.396C43.6493 42.4317 43.6387 42.4666 43.6189 42.4962C43.5991 42.5259 43.5709 42.5491 43.5379 42.5627C43.5049 42.5764 43.4686 42.58 43.4336 42.5731C43.3986 42.5661 43.3664 42.5489 43.3412 42.5237C43.3244 42.5069 43.3111 42.487 43.302 42.4651C43.2929 42.4432 43.2882 42.4197 43.2882 42.396C43.2882 42.3722 43.2929 42.3488 43.302 42.3268C43.3111 42.3049 43.3244 42.285 43.3412 42.2682Z" fill="black"/>
<path d="M100.025 4.44923H96.0575V4.03579C96.0575 2.98622 95.6405 1.97963 94.8984 1.23747C94.1562 0.49531 93.1496 0.0783691 92.1 0.0783691C91.0505 0.0783691 90.0439 0.49531 89.3017 1.23747C88.5595 1.97963 88.1426 2.98622 88.1426 4.03579V4.44923H77.5785C77.4075 4.08226 77.1354 3.77166 76.7941 3.55386C76.4529 3.33607 76.0565 3.2201 75.6517 3.21957H29.3482C28.9433 3.22014 28.5471 3.33612 28.2058 3.55392C27.8646 3.77171 27.5925 4.08229 27.4215 4.44923H17.497V4.03579C17.497 2.98622 17.08 1.97963 16.3379 1.23747C15.5957 0.49531 14.5891 0.0783691 13.5396 0.0783691C12.49 0.0783691 11.4834 0.49531 10.7412 1.23747C9.99907 1.97963 9.58213 2.98622 9.58213 4.03579V4.44923H4.97518C4.33991 4.44923 3.71086 4.57435 3.12394 4.81746C2.53703 5.06057 2.00374 5.4169 1.55454 5.8661C1.10534 6.31531 0.749007 6.84859 0.505899 7.4355C0.262791 8.02242 0.137665 8.65147 0.137665 9.28674C0.137665 9.92201 0.262791 10.5511 0.505899 11.138C0.749007 11.7249 1.10534 12.2582 1.55454 12.7074C2.00374 13.1566 2.53703 13.5129 3.12394 13.756C3.71086 13.9991 4.33991 14.1243 4.97518 14.1243H9.58128V14.5402C9.58305 15.3645 9.84231 16.1677 10.3228 16.8374C10.8033 17.5072 11.4811 18.0101 12.2614 18.2758V19.2764H9.49719C9.15842 19.2764 8.83352 19.411 8.59397 19.6505C8.35442 19.8901 8.21984 20.215 8.21984 20.5538C8.21984 20.8925 8.35442 21.2174 8.59397 21.457C8.83352 21.6965 9.15842 21.8311 9.49719 21.8311H10.4328V26.3929C10.4328 28.9902 11.8098 31.762 14.0262 33.6287C15.5865 34.9428 18.135 36.3305 21.9413 36.3305C22.5745 36.328 23.207 36.2903 23.836 36.2174C24.0919 36.6618 24.4602 37.031 24.904 37.2879C25.3477 37.5448 25.8513 37.6804 26.3641 37.681H26.8844C27.659 37.68 28.4016 37.3718 28.9493 36.824C29.497 36.2762 29.805 35.5335 29.8059 34.7589V26.4319C29.805 25.6572 29.4969 24.9145 28.9492 24.3666C28.4014 23.8188 27.6587 23.5107 26.884 23.5098H26.3637C25.7476 23.5107 25.1475 23.7061 24.649 24.0681C24.1504 24.4301 23.7789 24.9403 23.5874 25.5258C21.4131 25.6874 19.7257 25.2723 18.5631 24.287C17.8223 23.6347 17.2865 22.7815 17.0207 21.8309H17.1025C17.4413 21.8309 17.7662 21.6963 18.0057 21.4568C18.2453 21.2172 18.3798 20.8923 18.3798 20.5536C18.3798 20.2148 18.2453 19.8899 18.0057 19.6503C17.7662 19.4108 17.4413 19.2762 17.1025 19.2762H14.8169V18.2756C15.5971 18.0099 16.2749 17.507 16.7554 16.8373C17.2359 16.1676 17.4952 15.3645 17.497 14.5402V14.1255H27.4215C27.5925 14.4925 27.8646 14.8031 28.2059 15.0209C28.5472 15.2387 28.9435 15.3547 29.3484 15.3552H35.8094V21.2608C35.81 21.8252 36.0345 22.3663 36.4336 22.7655C36.8327 23.1646 37.3739 23.3891 37.9383 23.3897H47.7647C47.9861 24.1499 48.3878 24.8455 48.9356 25.4173L46.1966 33.6987C42.1399 35.1571 38.7057 37.9619 36.4664 41.6455C30.2361 44.1274 24.5341 48.5389 20.3748 54.1166C16.1937 59.7233 13.8604 65.9959 13.5821 72.3305H11.7102C10.4759 72.3305 9.29222 72.8208 8.41946 73.6935C7.54671 74.5663 7.0564 75.75 7.0564 76.9843V81.4092C7.0564 81.748 7.19097 82.0729 7.43052 82.3124C7.67007 82.552 7.99497 82.6865 8.33374 82.6865H96.6672C97.0059 82.6865 97.3308 82.552 97.5704 82.3124C97.8099 82.0729 97.9445 81.748 97.9445 81.4092V76.9843C97.9445 75.75 97.4542 74.5663 96.5815 73.6935C95.7087 72.8208 94.525 72.3305 93.2907 72.3305H91.4192C90.8608 58.5375 81.322 45.6606 68.2644 41.2178C66.0214 37.7406 62.6965 35.0983 58.8027 33.6985L56.0636 25.417C56.6118 24.8454 57.0139 24.1498 57.2356 23.3895H67.0618C67.6262 23.3888 68.1673 23.1644 68.5664 22.7652C68.9655 22.3661 69.19 21.825 69.1907 21.2606V15.355H75.6519C76.0567 15.3544 76.4531 15.2385 76.7943 15.0207C77.1356 14.8029 77.4077 14.4923 77.5788 14.1253H88.1418V14.5402C88.1436 15.355 88.3971 16.1494 88.8676 16.8147C89.338 17.4799 90.0025 17.9836 90.7701 18.2569V19.8655H88.9505C87.5118 19.8657 86.1318 20.4366 85.1134 21.4529C84.095 22.4692 83.5214 23.848 83.5182 25.2867V28.2868C82.9075 28.4847 82.375 28.8707 81.9971 29.3896C81.6192 29.9085 81.4151 30.5338 81.4142 31.1757V31.7224C81.4152 32.5276 81.7354 33.2996 82.3048 33.8689C82.8742 34.4383 83.6461 34.7586 84.4513 34.7595H99.8358C100.641 34.7586 101.413 34.4383 101.982 33.8689C102.552 33.2996 102.872 32.5276 102.873 31.7224V31.1757C102.872 30.5232 102.661 29.8883 102.272 29.3648C101.882 28.8413 101.335 28.4568 100.71 28.2683V25.2878C100.707 23.849 100.134 22.4701 99.1152 21.4536C98.0969 20.4372 96.7169 19.8662 95.2781 19.8659H93.3246V18.2952C94.1177 18.0373 94.8091 17.5352 95.2999 16.8609C95.7907 16.1865 96.0558 15.3743 96.0575 14.5402V14.1255H100.026C100.661 14.1255 101.29 14.0004 101.877 13.7573C102.464 13.5142 102.997 13.1579 103.446 12.7087C103.896 12.2595 104.252 11.7262 104.495 11.1393C104.738 10.5523 104.863 9.92329 104.863 9.28802C104.863 8.65275 104.738 8.0237 104.495 7.43678C104.252 6.84987 103.896 6.31658 103.446 5.86738C102.997 5.41817 102.464 5.06185 101.877 4.81874C101.29 4.57563 100.661 4.4505 100.026 4.4505L100.025 4.44923ZM9.58128 11.5702H4.97518C4.36974 11.5702 3.78909 11.3297 3.36098 10.9016C2.93286 10.4735 2.69235 9.89282 2.69235 9.28738C2.69235 8.68194 2.93286 8.10129 3.36098 7.67318C3.78909 7.24506 4.36974 7.00455 4.97518 7.00455H9.58128V11.5702ZM25.9951 26.4319C25.9952 26.3345 26.0339 26.2411 26.1028 26.1722C26.1716 26.1033 26.265 26.0646 26.3624 26.0644H26.8827C26.9801 26.0646 27.0735 26.1033 27.1423 26.1722C27.2112 26.2411 27.2499 26.3345 27.2499 26.4319V34.7589C27.2498 34.8563 27.2111 34.9496 27.1422 35.0184C27.0734 35.0873 26.9801 35.126 26.8827 35.1261H26.3624C26.265 35.126 26.1717 35.0873 26.1028 35.0184C26.034 34.9496 25.9953 34.8563 25.9951 34.7589V26.4319ZM16.8792 26.2086C18.3575 27.477 20.3084 28.1146 22.6983 28.1146C22.941 28.1146 23.1897 28.1056 23.4413 28.0933V33.6936C19.5277 34.1036 17.0733 32.8557 15.6708 31.6752C13.6909 30.0085 12.9865 27.854 12.9865 26.3936V21.8309H14.3862C14.7131 23.5246 15.5893 25.0633 16.8792 26.2086ZM14.9419 14.5396C14.9419 14.9116 14.7941 15.2684 14.531 15.5315C14.2679 15.7946 13.9112 15.9423 13.5391 15.9423C13.1671 15.9423 12.8103 15.7946 12.5472 15.5315C12.2842 15.2684 12.1364 14.9116 12.1364 14.5396V4.03579C12.1364 3.66376 12.2842 3.30697 12.5472 3.04391C12.8103 2.78084 13.1671 2.63306 13.5391 2.63306C13.9112 2.63306 14.2679 2.78084 14.531 3.04391C14.7941 3.30697 14.9419 3.66376 14.9419 4.03579V14.5396ZM27.2188 11.5702H17.497V7.00391H27.2193L27.2188 11.5702ZM88.863 72.3305H29.3675C29.0288 72.3305 28.7039 72.465 28.4643 72.7046C28.2248 72.9441 28.0902 73.269 28.0902 73.6078C28.0902 73.9466 28.2248 74.2715 28.4643 74.511C28.7039 74.7506 29.0288 74.8852 29.3675 74.8852H93.2899C93.5655 74.8852 93.8385 74.9395 94.0932 75.0449C94.3478 75.1504 94.5792 75.3051 94.7742 75.5C94.9691 75.6949 95.1237 75.9263 95.2292 76.181C95.3347 76.4356 95.389 76.7086 95.389 76.9843V80.1319H9.61023V76.9843C9.61029 76.4276 9.83146 75.8937 10.2251 75.5C10.6188 75.1064 11.1526 74.8852 11.7093 74.8852H20.4261C20.7649 74.8852 21.0898 74.7506 21.3294 74.511C21.5689 74.2715 21.7035 73.9466 21.7035 73.6078C21.7035 73.269 21.5689 72.9441 21.3294 72.7046C21.0898 72.465 20.7649 72.3305 20.4261 72.3305H16.1417C16.6886 61.3502 24.2135 50.5105 34.7939 45.1907C33.8017 48.0395 33.5115 51.0857 33.948 54.0705C34.3845 57.0554 35.5348 59.8909 37.3012 62.3363C39.0676 64.7817 41.398 66.7647 44.0945 68.1171C46.791 69.4694 49.774 70.1512 52.7903 70.1045C55.8065 70.0577 58.767 69.2839 61.4203 67.8486C64.0736 66.4133 66.3414 64.359 68.0312 61.8601C69.721 59.3612 70.7829 56.4914 71.1267 53.4944C71.4705 50.4975 71.086 47.4618 70.006 44.6451C80.7261 49.4571 88.3466 60.5246 88.863 72.3305ZM68.6942 51.3561C68.6942 54.559 67.7445 57.69 65.9651 60.3531C64.1857 63.0163 61.6565 65.0919 58.6974 66.3177C55.7383 67.5434 52.4822 67.8641 49.3408 67.2393C46.1995 66.6145 43.3139 65.0721 41.0491 62.8074C38.7843 60.5426 37.2419 57.657 36.617 54.5157C35.9922 51.3743 36.3129 48.1182 37.5386 45.1591C38.7642 42.2 40.8399 39.6708 43.503 37.8913C46.1661 36.1119 49.2971 35.1621 52.5 35.1621C56.7935 35.167 60.9097 36.8746 63.9456 39.9105C66.9815 42.9464 68.6893 47.0626 68.6942 51.3561ZM51.1822 26.7621C52.0444 27.0019 52.9557 27.0019 53.8178 26.7621L55.8503 32.9076C53.6347 32.5074 51.3653 32.5074 49.1498 32.9076L51.1822 26.7621ZM50.1233 22.0195C50.1215 21.5491 50.2594 21.0887 50.5195 20.6967C50.7796 20.3046 51.1502 19.9986 51.5843 19.8174C52.0184 19.6361 52.4966 19.5878 52.9582 19.6784C53.4198 19.7691 53.8442 19.9948 54.1774 20.3268C54.5107 20.6589 54.738 21.0823 54.8304 21.5436C54.9228 22.0049 54.8763 22.4832 54.6967 22.918C54.517 23.3528 54.2124 23.7246 53.8214 23.9861C53.4303 24.2477 52.9705 24.3873 52.5 24.3873C51.8711 24.3878 51.2676 24.1388 50.822 23.6949C50.3765 23.251 50.1252 22.6485 50.1233 22.0195ZM66.6362 20.8344H57.2858C57.0191 19.7669 56.4032 18.8193 55.5361 18.1421C54.6689 17.465 53.6003 17.0972 52.5 17.0972C51.3998 17.0972 50.3311 17.465 49.464 18.1421C48.5968 18.8193 47.9809 19.7669 47.7142 20.8344H38.3641V15.3546H66.636L66.6362 20.8344ZM75.2261 12.7999H29.774V5.77447H75.2261V12.7999ZM88.1418 11.5702H77.7808V7.00391H88.1418V11.5702ZM99.8361 30.6933C99.9639 30.6935 100.087 30.7444 100.177 30.8348C100.267 30.9252 100.318 31.0478 100.318 31.1757V31.7224C100.318 31.8503 100.267 31.9729 100.177 32.0634C100.087 32.1538 99.9639 32.2047 99.8361 32.2048H84.4515C84.3236 32.2047 84.201 32.1538 84.1106 32.0634C84.0201 31.9729 83.9693 31.8503 83.9691 31.7224V31.1757C83.9693 31.0478 84.0201 30.9252 84.1106 30.8348C84.201 30.7444 84.3236 30.6935 84.4515 30.6933H99.8361ZM95.2783 22.4195C96.0398 22.419 96.7704 22.7206 97.3099 23.2581C97.8493 23.7957 98.1535 24.5252 98.1557 25.2867V28.1395H86.0729V25.2867C86.0751 24.5252 86.3793 23.7957 86.9187 23.2581C87.4582 22.7206 88.1888 22.419 88.9503 22.4195H95.2783ZM93.5028 14.5402C93.5028 14.9123 93.355 15.2691 93.0919 15.5321C92.8288 15.7952 92.4721 15.943 92.1 15.943C91.728 15.943 91.3712 15.7952 91.1081 15.5321C90.8451 15.2691 90.6973 14.9123 90.6973 14.5402V4.03579C90.6973 3.66376 90.8451 3.30697 91.1081 3.04391C91.3712 2.78084 91.728 2.63306 92.1 2.63306C92.4721 2.63306 92.8288 2.78084 93.0919 3.04391C93.355 3.30697 93.5028 3.66376 93.5028 4.03579V14.5402ZM100.026 11.5708H96.0575V7.00391H100.026C100.326 7.00391 100.622 7.06296 100.899 7.17768C101.176 7.29241 101.428 7.46056 101.64 7.67254C101.852 7.88452 102.02 8.13618 102.135 8.41314C102.25 8.69011 102.309 8.98696 102.309 9.28674C102.309 9.58653 102.25 9.88338 102.135 10.1603C102.02 10.4373 101.852 10.689 101.64 10.9009C101.428 11.1129 101.176 11.2811 100.899 11.3958C100.622 11.5105 100.326 11.5696 100.026 11.5696V11.5708Z" fill="black"/>
</svg>
