<svg width="82" height="83" viewBox="0 0 82 83" fill="none" xmlns="http://www.w3.org/2000/svg">
<g>
<path fill-rule="evenodd" clip-rule="evenodd" d="M79.1854 35.1123C78.8088 34.8083 78.3152 34.6907 77.8428 34.792L53.4002 40.0215L50.6588 39.4353L57.8921 24.9468C57.904 24.923 57.9153 24.8992 57.9259 24.8755C58.8968 22.6652 59.3892 20.3135 59.3892 17.8849C59.3892 8.29491 51.5878 0.49292 41.9978 0.49292C32.4079 0.49292 24.6059 8.29491 24.6059 17.8849C24.6059 20.3135 25.0982 22.6652 26.0698 24.8755C26.0804 24.8992 26.0911 24.923 26.103 24.9468L31.2655 35.2856L28.957 34.792C28.9357 34.787 28.9138 34.7851 28.8919 34.782C28.8607 34.7764 28.83 34.7707 28.7987 34.767C28.7699 34.7639 28.7418 34.7632 28.7136 34.7614C28.6824 34.7595 28.6517 34.757 28.621 34.757C28.5916 34.757 28.5629 34.7595 28.5335 34.7607C28.5034 34.7626 28.4734 34.7639 28.444 34.767C28.4133 34.7707 28.3833 34.7764 28.3533 34.7814C28.3308 34.7851 28.3089 34.787 28.2863 34.7914L3.50842 40.0934C2.7702 40.2511 2.24219 40.9042 2.24219 41.6593V54.8691C2.24219 55.7537 2.95914 56.4707 3.84375 56.4707C4.72836 56.4707 5.44531 55.7537 5.44531 54.8691V42.9543L27.0201 38.3386V74.2949L5.44531 78.9107V67.6816C5.44531 66.797 4.72836 66.08 3.84375 66.08C2.95914 66.08 2.24219 66.797 2.24219 67.6816V80.8914C2.24219 81.375 2.46053 81.8329 2.83652 82.1363C3.1243 82.369 3.48027 82.4929 3.84375 82.4929C3.95511 82.4929 4.06772 82.481 4.17908 82.4573L28.6217 77.2278L53.0649 82.4573C53.0737 82.4591 53.0824 82.4604 53.0912 82.4616C53.1268 82.4685 53.1625 82.4742 53.1982 82.4785C53.2144 82.4804 53.2301 82.4829 53.2463 82.4848C53.297 82.4898 53.3483 82.4929 53.4002 82.4929C53.4515 82.4929 53.5028 82.4898 53.5535 82.4848C53.5698 82.4829 53.586 82.4804 53.6017 82.4785C53.6373 82.4742 53.673 82.4685 53.708 82.4616C53.7168 82.4598 53.7262 82.4591 53.7349 82.4573L78.5128 77.1558C79.2517 76.9976 79.7797 76.345 79.7797 75.5899V62.3802C79.7797 61.4956 79.0628 60.7786 78.1781 60.7786C77.2935 60.7786 76.5766 61.4956 76.5766 62.3802V74.2943L55.0018 78.9107V42.9543L76.5766 38.3386V49.5677C76.5766 50.4523 77.2935 51.1692 78.1781 51.1692C79.0628 51.1692 79.7797 50.4523 79.7797 49.5677V36.3579C79.7797 35.8743 79.5614 35.417 79.1854 35.1123ZM27.809 17.8849C27.809 10.061 34.174 3.69604 41.9978 3.69604C49.8217 3.69604 56.1867 10.061 56.1867 17.8849C56.1867 19.8543 55.7901 21.7605 55.0087 23.5517L41.9978 49.6115L28.987 23.5517C28.205 21.7605 27.809 19.8543 27.809 17.8849ZM30.2232 38.3386L33.096 38.9529L40.5652 53.9119C40.8361 54.4549 41.391 54.7984 41.9978 54.7984C42.6047 54.7984 43.1596 54.4549 43.4311 53.9119L49.1811 42.3944L51.7987 42.9543V78.9107L30.2239 74.2943V38.3386H30.2232Z" fill="black"/>
<path fill-rule="evenodd" clip-rule="evenodd" d="M52.296 17.885C52.296 12.2063 47.6765 7.58618 41.9978 7.58618C36.3192 7.58618 31.699 12.2063 31.699 17.885C31.699 23.5636 36.3192 28.1832 41.9978 28.1832C47.6765 28.1832 52.296 23.5636 52.296 17.885ZM34.9022 17.885C34.9022 13.9724 38.0853 10.7893 41.9978 10.7893C45.9104 10.7893 49.0935 13.9724 49.0935 17.885C49.0935 21.7969 45.9104 24.98 41.9978 24.98C38.0853 24.98 34.9022 21.7969 34.9022 17.885Z" fill="black"/>
<path fill-rule="evenodd" clip-rule="evenodd" d="M3.84375 62.877C4.72586 62.877 5.44531 62.1575 5.44531 61.2754C5.44531 60.3933 4.72586 59.6738 3.84375 59.6738C2.96164 59.6738 2.24219 60.3933 2.24219 61.2754C2.24219 62.1575 2.96164 62.877 3.84375 62.877Z" fill="black"/>
<path fill-rule="evenodd" clip-rule="evenodd" d="M78.1782 54.3723C77.2961 54.3723 76.5766 55.0918 76.5766 55.9739C76.5766 56.856 77.2961 57.5754 78.1782 57.5754C79.0603 57.5754 79.7797 56.856 79.7797 55.9739C79.7797 55.0918 79.0603 54.3723 78.1782 54.3723Z" fill="black"/>
</g>
</svg>
