<svg width="82" height="83" viewBox="0 0 82 83" fill="none" xmlns="http://www.w3.org/2000/svg">
<g>
<path d="M81.192 0.703414C80.6925 0.418336 80.0781 0.42314 79.5832 0.715906L50.234 18.0711C49.4726 18.5213 49.2203 19.5034 49.6705 20.2647C50.1206 21.026 51.1026 21.2782 51.8642 20.8282L72.9219 8.37618L33.6986 49.074L14.1903 43.1056L39.6495 28.0509C40.4109 27.6005 40.6632 26.6185 40.213 25.8571C39.7629 25.0959 38.7807 24.8433 38.0193 25.2936L9.43477 42.1964C8.88864 42.5194 8.5845 43.1343 8.65962 43.7645C8.73473 44.3947 9.17468 44.921 9.78135 45.1066L33.0791 52.2342L43.3575 70.9425C43.3682 70.9619 43.3793 70.9782 43.3906 70.9928C43.5622 71.2788 43.8192 71.5125 44.1399 71.6473C44.3405 71.7318 44.5514 71.7729 44.7609 71.7729C45.1714 71.7729 45.5755 71.615 45.8806 71.3166L57.6992 59.7662L79.9298 66.5674C80.0836 66.6143 80.2413 66.6375 80.3983 66.6375C80.7372 66.6375 81.0719 66.5299 81.3509 66.3234C81.7591 66.0214 82 65.5436 82 65.0359V2.09453C82 1.51941 81.6915 0.988332 81.192 0.703414ZM43.4448 53.2212C43.2593 53.4892 43.1599 53.8072 43.1599 54.1331V63.9301L36.1413 51.1552L67.199 18.9302L43.4448 53.2212ZM46.363 66.3667V56.2981L54.209 58.6986L46.363 66.3667ZM78.7969 62.8711L47.3263 53.2432L78.7969 7.81275V62.8711Z" fill="black"/>
<path d="M26.3334 56.1595C25.7078 55.5341 24.694 55.5341 24.0683 56.1595L9.11737 71.1104C8.49196 71.7358 8.49196 72.7499 9.11737 73.3755C9.43031 73.6881 9.84015 73.8444 10.25 73.8444C10.6598 73.8444 11.0697 73.6881 11.3825 73.3753L26.3334 58.4244C26.9588 57.7992 26.9588 56.7851 26.3334 56.1595Z" fill="black"/>
<path d="M6.41763 76.0752C5.79206 75.4502 4.77827 75.4502 4.1527 76.0754L0.469103 79.759C-0.156307 80.3844 -0.156307 81.3985 0.469103 82.0241C0.781889 82.3367 1.19173 82.493 1.60157 82.493C2.01141 82.493 2.42125 82.3366 2.73403 82.0239L6.41763 78.3403C7.04304 77.7149 7.04304 76.7008 6.41763 76.0752Z" fill="black"/>
<path d="M22.8462 79.6646C22.5484 79.3667 22.1352 79.1953 21.714 79.1953C21.291 79.1953 20.8796 79.3667 20.5817 79.6646C20.2838 79.9625 20.1125 80.3741 20.1125 80.7969C20.1125 81.2181 20.2837 81.6313 20.5817 81.9292C20.8796 82.2271 21.2928 82.3984 21.714 82.3984C22.1352 82.3984 22.5484 82.2271 22.8462 81.9292C23.1441 81.6313 23.3156 81.2181 23.3156 80.7969C23.3156 80.3741 23.1442 79.9625 22.8462 79.6646Z" fill="black"/>
<path d="M34.7621 67.7481C34.137 67.1227 33.1232 67.1227 32.4972 67.7481L24.5781 75.667C23.9527 76.2925 23.9527 77.3066 24.5781 77.932C24.8909 78.2448 25.3007 78.4011 25.7106 78.4011C26.1204 78.4011 26.5303 78.2446 26.843 77.932L34.7621 70.013C35.3875 69.3876 35.3875 68.3735 34.7621 67.7481Z" fill="black"/>
<path d="M62.0932 67.1401C61.4677 66.5148 60.4539 66.5148 59.8283 67.1401L51.8878 75.0806C51.2623 75.706 51.2623 76.7201 51.8878 77.3457C52.2005 77.6583 52.6104 77.8148 53.0202 77.8148C53.4301 77.8148 53.8399 77.6583 54.1527 77.3457L62.0932 69.4052C62.7186 68.7798 62.7186 67.7656 62.0932 67.1401Z" fill="black"/>
<path d="M45.4043 22.3237C45.1065 22.0259 44.6933 21.8545 44.272 21.8545C43.8508 21.8545 43.4376 22.0259 43.1397 22.3237C42.842 22.6216 42.6705 23.0348 42.6705 23.4577C42.6705 23.8789 42.8418 24.2905 43.1397 24.5884C43.4376 24.8879 43.8508 25.0576 44.272 25.0576C44.6933 25.0576 45.1065 24.8879 45.4043 24.5884C45.7021 24.2905 45.8736 23.8789 45.8736 23.4577C45.8736 23.0348 45.7022 22.6216 45.4043 22.3237Z" fill="black"/>
</g>
</svg>
