<svg width="48" height="48" viewBox="0 0 48 48" fill="none" xmlns="http://www.w3.org/2000/svg">
<path d="M47.2 0H0.8C0.358203 0 0 0.358203 0 0.8V47.2C0 47.6418 0.358203 48 0.8 48H47.2C47.6418 48 48 47.6418 48 47.2V0.8C48 0.358203 47.6418 0 47.2 0ZM46.4 46.4H1.6V1.6H46.4V46.4Z" fill="#FECC2F"/>
<path d="M7.19922 11.1992C9.4082 11.1992 11.1992 9.4082 11.1992 7.19922C11.1992 4.99023 9.4082 3.19922 7.19922 3.19922C4.99023 3.19922 3.19922 4.99023 3.19922 7.19922C3.20195 9.40742 4.99102 11.1965 7.19922 11.1992ZM7.19922 4.79922C8.52461 4.79922 9.59922 5.87383 9.59922 7.19922C9.59922 8.52461 8.52461 9.59922 7.19922 9.59922C5.87383 9.59922 4.79922 8.52461 4.79922 7.19922C4.79922 5.87383 5.87383 4.79922 7.19922 4.79922Z" fill="#FECC2F"/>
<path d="M7.19922 44.8008C9.4082 44.8008 11.1992 43.0098 11.1992 40.8008C11.1992 38.5918 9.4082 36.8008 7.19922 36.8008C4.99023 36.8008 3.19922 38.5918 3.19922 40.8008C3.20195 43.009 4.99102 44.798 7.19922 44.8008ZM7.19922 38.4008C8.52461 38.4008 9.59922 39.4754 9.59922 40.8008C9.59922 42.1262 8.52461 43.2008 7.19922 43.2008C5.87383 43.2008 4.79922 42.1262 4.79922 40.8008C4.79922 39.4754 5.87383 38.4008 7.19922 38.4008Z" fill="#FECC2F"/>
<path d="M40.8008 36.8008C38.5918 36.8008 36.8008 38.5918 36.8008 40.8008C36.8008 43.0098 38.5918 44.8008 40.8008 44.8008C43.0098 44.8008 44.8008 43.0098 44.8008 40.8008C44.798 38.5926 43.009 36.8035 40.8008 36.8008ZM40.8008 43.2008C39.4754 43.2008 38.4008 42.1262 38.4008 40.8008C38.4008 39.4754 39.4754 38.4008 40.8008 38.4008C42.1262 38.4008 43.2008 39.4754 43.2008 40.8008C43.2008 42.1262 42.1262 43.2008 40.8008 43.2008Z" fill="#FECC2F"/>
<path d="M40.7992 11.1996C42.9043 11.1992 44.6485 9.5676 44.7895 7.46721C44.9305 5.36721 43.4195 3.51721 41.3336 3.23557C39.2477 2.95393 37.3004 4.33713 36.8793 6.39964H19.1992V7.99964H36.8793C37.2621 9.86096 38.8992 11.1973 40.7992 11.1996ZM40.7992 4.79963C42.1246 4.79963 43.1992 5.87424 43.1992 7.19964C43.1992 8.52503 42.1246 9.59964 40.7992 9.59964C39.4738 9.59964 38.3992 8.52503 38.3992 7.19964C38.3992 5.87424 39.4738 4.79963 40.7992 4.79963Z" fill="#FECC2F"/>
<path d="M31.9992 38.4004H15.9992C15.5574 38.4004 15.1992 38.7586 15.1992 39.2004V44.0004C15.1992 44.4422 15.5574 44.8004 15.9992 44.8004H31.9992C32.441 44.8004 32.7992 44.4422 32.7992 44.0004V39.2004C32.7992 38.7586 32.441 38.4004 31.9992 38.4004ZM18.3992 43.2004H16.7992V40.0004H18.3992V43.2004ZM21.5992 43.2004H19.9992V40.0004H21.5992V43.2004ZM24.7992 43.2004H23.1992V40.0004H24.7992V43.2004ZM27.9992 43.2004H26.3992V40.0004H27.9992V43.2004ZM31.1992 43.2004H29.5992V40.0004H31.1992V43.2004Z" fill="#FECC2F"/>
<path d="M10.3984 16H12.7984V17.6H10.3984V19.2H12.7984V20.8H10.3984V22.4H12.7984V24H10.3984V25.6H12.7984V27.2H10.3984V28.8H12.7984V30.4H10.3984V32H12.7984V34.4H14.3984V32H15.9984V34.4H17.5984V32H19.1984V34.4H20.7984V32H22.3984V34.4H23.9984V32H25.5984V34.4H27.1984V32H28.7984V34.4H30.3984V32H31.9984V30.4H30.3984V28.8H31.9984V27.2H30.3984V25.6H31.9984V24H30.3984V22.4H31.9984V20.8H30.3984V19.2H31.9984V17.6H30.3984V16H31.9984V14.4H30.3984V12H28.7984V14.4H27.1984V12H25.5984V14.4H23.9984V12H22.3984V14.4H20.7984V12H19.1984V14.4H17.5984V12H15.9984V14.4H14.3984V12H12.7984V14.4H10.3984V16ZM14.3984 16H28.7984V30.4H14.3984V16Z" fill="#FECC2F"/>
<path d="M13.6008 9.60078H16.8008C17.2426 9.60078 17.6008 9.24258 17.6008 8.80078V5.60078C17.6008 5.15898 17.2426 4.80078 16.8008 4.80078H13.6008C13.159 4.80078 12.8008 5.15898 12.8008 5.60078V8.80078C12.8008 9.24258 13.159 9.60078 13.6008 9.60078ZM14.4008 6.40078H16.0008V8.00078H14.4008V6.40078Z" fill="#FECC2F"/>
<path d="M37.6008 35.2008C37.6008 33.8754 36.5262 32.8008 35.2008 32.8008C33.8754 32.8008 32.8008 33.8754 32.8008 35.2008C32.8008 36.5262 33.8754 37.6008 35.2008 37.6008C36.5262 37.6008 37.6008 36.5262 37.6008 35.2008ZM35.2008 36.0008C34.759 36.0008 34.4008 35.6426 34.4008 35.2008C34.4008 34.759 34.759 34.4008 35.2008 34.4008C35.6426 34.4008 36.0008 34.759 36.0008 35.2008C36.0008 35.6426 35.6426 36.0008 35.2008 36.0008Z" fill="#FECC2F"/>
<path d="M41.5984 35.2008C42.9238 35.2008 43.9984 34.1262 43.9984 32.8008V15.2008C43.9984 13.8754 42.9238 12.8008 41.5984 12.8008H36.7984C35.473 12.8008 34.3984 13.8754 34.3984 15.2008C34.3984 16.5262 35.473 17.6008 36.7984 17.6008H39.1984V32.8008C39.1984 34.1262 40.273 35.2008 41.5984 35.2008ZM36.7984 16.0008C36.3566 16.0008 35.9984 15.6426 35.9984 15.2008C35.9984 14.759 36.3566 14.4008 36.7984 14.4008H41.5984C42.0402 14.4008 42.3984 14.759 42.3984 15.2008V32.8008C42.3984 33.2426 42.0402 33.6008 41.5984 33.6008C41.1566 33.6008 40.7984 33.2426 40.7984 32.8008V16.8008C40.7984 16.359 40.4402 16.0008 39.9984 16.0008H36.7984Z" fill="#FECC2F"/>
<path d="M4 15.2008V32.8008C4 34.1262 5.07461 35.2008 6.4 35.2008C7.72539 35.2008 8.8 34.1262 8.8 32.8008V15.2008C8.8 13.8754 7.72539 12.8008 6.4 12.8008C5.07461 12.8008 4 13.8754 4 15.2008ZM7.2 15.2008V32.8008C7.2 33.2426 6.8418 33.6008 6.4 33.6008C5.9582 33.6008 5.6 33.2426 5.6 32.8008V15.2008C5.6 14.759 5.9582 14.4008 6.4 14.4008C6.8418 14.4008 7.2 14.759 7.2 15.2008Z" fill="#FECC2F"/>
<path d="M34.3984 31.1992H37.5984V29.5992H35.9984V20.7992H37.5984V19.1992H34.3984V31.1992Z" fill="#FECC2F"/>
</svg>
