<svg width="66" height="66" viewBox="0 0 66 66" fill="none" xmlns="http://www.w3.org/2000/svg">
<path d="M54.6062 47.4691H10.3844L5.78476 27.7986C2.57391 27.6697 0 25.0139 0 21.7726C0 18.4445 2.70504 15.7419 6.03295 15.7419C9.36086 15.7419 12.0659 18.4445 12.0659 21.7726C12.0659 23.3722 11.4172 24.8897 10.307 26.0046C17.6399 33.9299 23.6823 33.3163 29.2913 23.8898C27.8463 22.7632 26.968 21.0184 26.968 19.1401C26.968 15.8145 29.673 13.1072 33.0009 13.1072C36.3288 13.1072 39.0339 15.8122 39.0339 19.1401C39.0339 21.1425 38.0197 22.9927 36.4085 24.0982C41.2307 33.3608 47.4042 33.8338 55.4653 26.0163C54.4888 24.9249 53.936 23.5103 53.936 22.0091C53.936 18.6834 56.641 15.9808 59.9667 15.9808C63.2923 15.9808 65.9996 18.6834 65.9996 22.0091C65.9996 25.3231 63.3157 28.0187 60.0087 28.042L54.6062 47.4691ZM12.5298 44.7688H52.5523L57.1801 28.1148C47.3835 37.4921 38.985 35.9534 33.3853 24.0959L32.8771 23.021L32.2987 24.0725C25.7528 35.9652 17.4598 37.4454 8.65146 28.1921L12.5298 44.7688ZM58.707 25.1521L59.2785 25.2692C61.377 25.7118 63.2927 24.0748 63.2927 22.0115C63.2927 20.1776 61.8009 18.6834 59.9647 18.6834C58.1284 18.6834 56.6366 20.1776 56.6366 22.0115C56.6366 23.1427 57.2104 24.1896 58.1753 24.8078L58.707 25.1521ZM6.03295 18.4423C4.19685 18.4423 2.70491 19.9365 2.70491 21.7703C2.70491 23.6064 4.19672 25.1006 6.03295 25.1006C6.22965 25.1006 6.41705 25.0725 6.60446 25.0397L7.15009 24.9437L7.66771 24.6487C8.7287 24.0444 9.361 22.9671 9.361 21.7703C9.361 19.9365 7.86679 18.4423 6.03295 18.4423ZM32.9965 15.8098C31.1605 15.8098 29.6685 17.304 29.6685 19.1401C29.6685 20.454 30.4508 21.6485 31.6592 22.1824L32.8701 22.7164L34.1394 22.248C35.4462 21.7679 36.3245 20.5195 36.3245 19.1401C36.3245 17.304 34.8326 15.8098 32.9965 15.8098Z" fill="black"/>
<path d="M53.0499 52.8932H11.9408C11.1913 52.8932 10.5801 52.2819 10.5801 51.5326C10.5801 50.7831 11.1914 50.1719 11.9408 50.1719H53.0499C53.7994 50.1719 54.4106 50.7832 54.4106 51.5326C54.4106 52.2797 53.7994 52.8932 53.0499 52.8932Z" fill="black"/>
</svg>
