<svg width="51" height="43" viewBox="0 0 51 43" fill="none" xmlns="http://www.w3.org/2000/svg">
<path d="M47.7856 0.482422H42.9904C42.5733 0.482422 42.2347 0.820938 42.2347 1.23805C42.2347 1.65556 42.5733 1.99407 42.9904 1.99407H47.7856C48.7245 1.99407 49.4883 2.75787 49.4883 3.69677V15.232C49.4883 16.1709 48.7245 16.9347 47.7856 16.9347H30.1131C29.9128 16.9347 29.7205 17.0145 29.5785 17.1561L25.2257 21.5089V17.6907C25.2257 17.2732 24.8875 16.9347 24.47 16.9347H23.0308C22.0919 16.9347 21.3281 16.1709 21.3281 15.232V3.69677C21.3281 2.75787 22.0919 1.99407 23.0308 1.99407H40.471C40.8885 1.99407 41.227 1.65556 41.227 1.23805C41.227 0.820938 40.8885 0.482422 40.471 0.482422H23.0308C21.2584 0.482422 19.8164 1.92442 19.8164 3.69677V15.232C19.8164 17.0043 21.2584 18.4464 23.0308 18.4464H23.7144V23.3334C23.7144 23.6393 23.8984 23.9147 24.1809 24.0319C24.2743 24.0704 24.3724 24.0895 24.47 24.0895C24.6665 24.0895 24.8599 24.0124 25.0047 23.8681L30.426 18.4464H47.7856C49.558 18.4464 51 17.0043 51 15.232V3.69677C51 1.92442 49.558 0.482422 47.7856 0.482422Z" fill="black"/>
<path d="M27.3208 10.1775C28.2169 9.56429 29.3325 8.80049 29.3325 7.49467C29.3325 6.87523 29.0815 6.34722 28.6072 5.96785C28.1877 5.63206 27.6095 5.43945 27.0208 5.43945C25.9337 5.43945 24.7784 6.10793 24.7784 7.34643C24.7784 7.89272 25.0084 8.15848 25.4815 8.15848C26.0154 8.15848 26.3033 7.86198 26.3033 7.58339C26.3033 7.12114 26.5683 6.85577 27.0305 6.85577C27.5749 6.85577 27.7679 7.22659 27.7679 7.5437C27.7679 8.13085 27.0757 8.63902 26.3426 9.17714C25.5154 9.78413 24.6602 10.4121 24.6602 11.2339V12.1911C24.6602 12.488 25.0648 12.6775 25.3434 12.6775H28.8562C29.1099 12.6775 29.3325 12.3534 29.3325 11.9837C29.3325 11.625 29.1099 11.3102 28.8562 11.3102H26.2835V11.2339C26.2835 10.8876 26.7644 10.5588 27.3208 10.1775Z" fill="black"/>
<path d="M33.5144 12.6771C34.0517 12.6771 34.2965 12.4253 34.2965 12.1911V11.1577H34.7081C34.9537 11.1577 35.1945 10.7997 35.1945 10.4347C35.1945 9.93783 34.9424 9.71176 34.7081 9.71176H34.2965V9.03356C34.2965 8.81411 34.0918 8.5573 33.5144 8.5573C32.937 8.5573 32.7323 8.81372 32.7323 9.03356V9.71176H31.9167L33.6541 6.2266C33.6805 6.16551 33.7047 6.10014 33.7047 6.034C33.7047 5.87291 33.6015 5.71844 33.414 5.59898C33.2611 5.5021 33.0685 5.43945 32.9226 5.43945C32.6354 5.43945 32.4039 5.58186 32.27 5.841L29.9907 10.3102C29.9207 10.4386 29.9102 10.5546 29.9102 10.6121C29.9102 10.9386 30.1218 11.1577 30.4362 11.1577H32.7323V12.1907C32.7323 12.4253 32.977 12.6771 33.5144 12.6771Z" fill="black"/>
<path d="M39.4124 5.28924L35.9494 12.4027C35.9171 12.4673 35.8984 12.5374 35.8984 12.5957C35.8984 12.8545 36.1257 13.1315 36.4638 13.1315C36.6622 13.1315 36.8494 13.0269 36.919 12.8778L40.3921 5.76394C40.426 5.69624 40.433 5.62153 40.433 5.57095C40.433 5.25033 40.1256 5.03516 39.8381 5.03516C39.6435 5.03516 39.4883 5.12776 39.4124 5.28924Z" fill="black"/>
<path d="M42.0575 7.94136C42.4871 7.94136 42.8497 7.7188 42.8497 7.45499V6.80636H44.5906V7.48106L42.1649 11.6818C42.1163 11.7697 42.0945 11.8506 42.0945 11.9444C42.0945 12.4109 42.6159 12.7362 43.084 12.7362C43.3065 12.7362 43.4524 12.6666 43.5291 12.5222L45.838 8.10206C45.9123 7.96276 46.1551 7.48222 46.1551 7.15888V5.92544C46.1551 5.71338 45.8236 5.43945 45.4715 5.43945H41.9688C41.6241 5.43945 41.2852 5.68031 41.2852 5.92544V7.45499C41.2852 7.72308 41.6318 7.94136 42.0575 7.94136Z" fill="black"/>
<path d="M31.2545 26.7231C30.8615 26.3301 30.3385 26.1138 29.7825 26.1138C29.2265 26.1138 28.7035 26.3301 28.3105 26.7231L23.6908 31.3429C21.8511 30.3814 20.2508 29.4647 18.4625 27.9566C18.1434 27.6877 17.6668 27.7282 17.3975 28.0472C17.1286 28.3663 17.1691 28.8429 17.4882 29.1122C19.5535 30.8534 21.3511 31.8363 23.4865 32.9401C23.7787 33.0911 24.1351 33.0359 24.3678 32.8032L26.8534 30.318L35.0474 38.512C32.4007 40.784 28.6525 41.575 24.397 40.7384C19.6111 39.7972 14.5466 36.8506 10.1365 32.4405C5.7265 28.0305 2.77947 22.9656 1.83824 18.1797C1.00168 13.9238 1.79272 10.1756 4.06427 7.52932L12.2595 15.7241L9.77312 18.2101C9.54044 18.4427 9.48519 18.7995 9.63655 19.0918C11.1416 22.0018 12.356 24.1372 15.3979 27.1795C15.6932 27.4745 16.1718 27.4745 16.4668 27.1795C16.7621 26.8842 16.7621 26.4056 16.4668 26.1107C13.7396 23.3835 12.5968 21.4948 11.2338 18.8875L15.8539 14.2669C16.2473 13.874 16.4637 13.351 16.4637 12.795C16.4637 12.239 16.2473 11.716 15.8539 11.323L8.44474 3.91382C8.05175 3.52044 7.5288 3.30371 6.97278 3.30371C6.41676 3.30371 5.89381 3.52044 5.50082 3.91343L3.50903 5.90522C0.477957 8.9363 -0.642256 13.3993 0.355002 18.4711C1.35343 23.5485 4.44754 28.8892 9.06769 33.5094C13.6874 38.1292 19.0282 41.2233 24.1056 42.2213C25.3141 42.459 26.4876 42.5765 27.616 42.5762C31.2225 42.5762 34.3626 41.3762 36.6715 39.0673L38.6629 37.0759C39.0563 36.6825 39.2726 36.1599 39.2726 35.6039C39.2726 35.0479 39.0563 34.5249 38.6629 34.132L31.2545 26.7231ZM6.56968 4.98228C6.67707 4.87489 6.82026 4.81536 6.97278 4.81536C7.12531 4.81536 7.2685 4.8745 7.37589 4.98228L14.7855 12.3919C14.8929 12.4993 14.9524 12.6425 14.9524 12.795C14.9524 12.9475 14.8929 13.0907 14.7855 13.1981L13.3283 14.6553L5.1125 6.43945L6.56968 4.98228ZM37.5944 36.007L36.1369 37.4642L27.9222 29.2492L29.3794 27.792C29.4868 27.6842 29.6304 27.6251 29.7825 27.6251C29.9346 27.6251 30.0778 27.6842 30.1856 27.792L37.5944 35.2004C37.8166 35.423 37.8166 35.7848 37.5944 36.007Z" fill="black"/>
</svg>
