<svg width="82" height="82" viewBox="0 0 82 82" fill="none" xmlns="http://www.w3.org/2000/svg">
<g>
<path d="M80.7813 47.0379L79.1598 42.4982C78.9378 41.8768 78.2538 41.5532 77.6327 41.775C77.0113 41.9969 76.6876 42.6806 76.9096 43.3021L78.5312 47.8417C80.5624 53.5284 79.6939 59.8672 76.2076 64.7981C75.1503 66.2936 73.4933 67.1551 71.6616 67.1615C69.8281 67.1671 68.1668 66.3183 67.099 64.8299L58.5328 52.8925C57.2493 51.1039 55.1688 50.0362 52.9675 50.0362H29.0405C26.839 50.0362 24.7584 51.1039 23.475 52.8925L14.9088 64.8299C13.845 66.3125 12.1904 67.1615 10.3669 67.1615C10.36 67.1615 10.3533 67.1615 10.3464 67.1615C8.51468 67.1551 6.85771 66.2936 5.80035 64.7981C5.59439 64.5068 5.39452 64.2061 5.20617 63.9044C4.85671 63.3445 4.11967 63.1738 3.56009 63.5231C3.00018 63.8724 2.82962 64.6093 3.17876 65.1692C3.39128 65.5096 3.61662 65.849 3.84917 66.1777C5.35848 68.3124 7.72367 69.5419 10.3379 69.551H10.3674C12.9701 69.551 15.3317 68.3391 16.8502 66.2231L25.4165 54.2857C26.2521 53.1211 27.6069 52.4258 29.0405 52.4258H52.9675C54.4009 52.4258 55.7557 53.1211 56.5914 54.2857L65.1576 66.2231C66.6762 68.3393 69.0377 69.5512 71.6404 69.551H71.6701C74.2845 69.5419 76.6495 68.3124 78.1588 66.1777C82.0938 60.6117 83.0743 53.4568 80.7813 47.0379Z" fill="#333333"/>
<path d="M3.10703 59.1745C2.03878 55.4283 2.16659 51.5094 3.47683 47.8415L12.1019 23.6962C13.9944 18.3982 19.0456 14.8387 24.6714 14.8387H57.3366C62.9622 14.8387 68.0135 18.3982 69.9063 23.6962L75.0873 38.2004C75.3093 38.822 75.9929 39.1457 76.6144 38.9237C77.2358 38.7017 77.5595 38.018 77.3375 37.3966L72.1565 22.8924C69.9252 16.6461 63.9694 12.4492 57.3367 12.4492H24.6713C18.0382 12.4492 12.0828 16.646 9.85169 22.8924L1.22663 47.0377C-0.25241 51.1779 -0.396711 55.6014 0.808945 59.8298C1.22103 61.3327 3.5521 60.6542 3.10703 59.1745Z" fill="#333333"/>
<path d="M21.0995 34.5272H24.417C25.6103 34.5272 26.5813 33.5563 26.5813 32.3628V30.157H28.7873C29.9806 30.157 30.9517 29.1861 30.9517 27.9926V24.6752C30.9517 23.4818 29.9808 22.5108 28.7873 22.5108H26.5813V20.305C26.5813 19.1117 25.6104 18.1406 24.417 18.1406H21.0995C19.9062 18.1406 18.9351 19.1115 18.9351 20.305V22.5108H16.7293C15.536 22.5108 14.5649 23.4817 14.5649 24.6752V27.9926C14.5649 29.186 15.5358 30.157 16.7293 30.157H18.9351V32.3628C18.9351 33.5563 19.906 34.5272 21.0995 34.5272ZM16.9546 27.7675V24.9005H19.8069C20.6438 24.9005 21.3248 24.2195 21.3248 23.3825V20.5303H24.1918V23.3825C24.1918 24.2195 24.8728 24.9005 25.7097 24.9005H28.5621V27.7675H25.7097C24.8728 27.7675 24.1918 28.4484 24.1918 29.2854V32.1376H21.3248V29.2854C21.3248 28.4484 20.6438 27.7675 19.8069 27.7675H16.9546Z" fill="#333333"/>
<path d="M59.1829 20.0249C58.0987 20.0249 57.2197 20.9038 57.2197 21.9881C57.2197 23.0724 58.0987 23.9513 59.1829 23.9513C60.2672 23.9513 61.1461 23.0724 61.1461 21.9881C61.1461 20.9038 60.2672 20.0249 59.1829 20.0249Z" fill="#333333"/>
<path d="M59.1829 32.6764C60.2672 32.6764 61.1461 31.7975 61.1461 30.7132C61.1461 29.6289 60.2672 28.75 59.1829 28.75C58.0987 28.75 57.2197 29.6289 57.2197 30.7132C57.2197 31.7975 58.0987 32.6764 59.1829 32.6764Z" fill="#333333"/>
<path d="M63.5452 28.3136C64.6295 28.3136 65.5084 27.4346 65.5084 26.3504C65.5084 25.2662 64.6295 24.3872 63.5452 24.3872C62.461 24.3872 61.582 25.2662 61.582 26.3504C61.582 27.4346 62.461 28.3136 63.5452 28.3136Z" fill="#333333"/>
<path d="M56.7833 26.3504C56.7833 25.2661 55.9044 24.3872 54.8201 24.3872C53.7359 24.3872 52.8569 25.2661 52.8569 26.3504C52.8569 27.4347 53.7359 28.3136 54.8201 28.3136C55.9044 28.3136 56.7833 27.4347 56.7833 26.3504Z" fill="#333333"/>
<path d="M50.7061 47.6241C54.6076 47.6241 57.7818 44.4499 57.7818 40.5484C57.7818 36.6468 54.6076 33.4727 50.7061 33.4727C46.8045 33.4727 43.6304 36.6468 43.6304 40.5484C43.6304 44.4499 46.8045 47.6241 50.7061 47.6241ZM50.7061 35.8622C53.29 35.8622 55.3922 37.9644 55.3922 40.5484C55.3922 43.1323 53.29 45.2345 50.7061 45.2345C48.1221 45.2345 46.0199 43.1323 46.0199 40.5484C46.0199 37.9644 48.1221 35.8622 50.7061 35.8622Z" fill="black"/>
<path d="M32.7132 45.2344C32.01 45.2344 31.3346 45.0828 30.7055 44.784C30.1099 44.5012 29.397 44.7545 29.1137 45.3505C28.8306 45.9466 29.0841 46.6593 29.6804 46.9423C30.6322 47.3944 31.6527 47.6237 32.7134 47.6237C36.615 47.6237 39.7891 44.4496 39.7891 40.548C39.7891 36.6465 36.6148 33.4722 32.7134 33.4722C28.812 33.4722 25.6377 36.6465 25.6377 40.548C25.6377 40.8973 25.6635 41.2487 25.7144 41.5921C25.811 42.2449 26.4202 42.6952 27.0713 42.599C27.7241 42.5022 28.1749 41.8948 28.0782 41.2421C28.0444 41.0141 28.0272 40.7806 28.0272 40.548C28.0272 37.9641 30.1294 35.8617 32.7134 35.8617C35.2974 35.8617 37.3996 37.9639 37.3996 40.548C37.3996 43.1321 35.2972 45.2344 32.7132 45.2344Z" fill="black"/>
<path d="M41.0299 29.6003C38.4392 29.6003 36.3315 27.4926 36.3315 24.902C36.3315 22.3113 38.4392 20.2036 41.0299 20.2036C43.6206 20.2036 45.7282 22.3113 45.7282 24.902C45.7282 27.4926 43.6204 29.6003 41.0299 29.6003ZM41.0299 22.606C39.7639 22.606 38.7339 23.6359 38.7339 24.902C38.7339 26.168 39.7639 27.198 41.0299 27.198C42.2959 27.198 43.3259 26.168 43.3259 24.902C43.3259 23.6359 42.2959 22.606 41.0299 22.606Z" fill="black"/>
</g>
</svg>
