<svg width="82" height="82" viewBox="0 0 82 82" fill="none" xmlns="http://www.w3.org/2000/svg">
<g>
<path d="M80.7701 32.8066L71.0667 31.843C70.4761 29.9004 69.698 28.0199 68.7431 26.2275L74.9178 18.6781C75.3629 18.1349 75.3235 17.3435 74.8277 16.847L65.1602 7.17623C64.6631 6.67908 63.871 6.63971 63.3271 7.08481L55.7791 13.2568C53.9867 12.3026 52.1062 11.5245 50.1636 10.9332L49.1933 1.22976C49.1233 0.531746 48.5354 -0.000106477 47.8333 -0.000106477H34.1667C33.462 -0.00344306 32.8707 0.529076 32.8 1.22976L31.8431 10.9332C29.8985 11.5245 28.0153 12.3026 26.2209 13.2568L18.6729 7.08481C18.129 6.63971 17.3369 6.67908 16.8398 7.17623L7.17633 16.8397C6.68052 17.3368 6.64181 18.1282 7.08625 18.6714L13.2569 26.2208C12.302 28.0152 11.5239 29.8984 10.9333 31.843L1.22987 32.8139C0.534521 32.8833 0.00333658 33.4672 0 34.1666V47.8332C0 48.5352 0.531852 49.1232 1.22987 49.1932L10.9333 50.1635C11.5232 52.1061 12.3013 53.9872 13.2569 55.779L7.08625 63.3284C6.64181 63.8715 6.68052 64.663 7.17633 65.1601L16.8398 74.8236C17.3369 75.3207 18.129 75.3601 18.6729 74.915L25.4708 69.3529L23.7405 67.2402L17.9035 72.0235L9.98507 64.0964L15.9629 56.7893C16.3213 56.3509 16.3726 55.7363 16.091 55.2445C14.8805 53.1357 13.9449 50.8809 13.307 48.5346C13.1595 47.9874 12.689 47.5883 12.1252 47.5309L2.73333 46.6034V35.4104L12.1252 34.4715C12.689 34.4141 13.1595 34.0151 13.307 33.4679C13.9456 31.1223 14.8812 28.8667 16.091 26.758C16.3726 26.2662 16.3213 25.6523 15.9629 25.2138L9.98507 17.9034L17.9035 9.98363L25.2106 15.9641C25.6497 16.3218 26.2643 16.3719 26.7554 16.0896C28.8655 14.8811 31.121 13.9455 33.4667 13.3055C34.0139 13.1574 34.4122 12.6869 34.469 12.1237L35.4032 2.73323H46.6035L47.5424 12.1237C47.5991 12.6869 47.9975 13.1574 48.544 13.3055C50.8903 13.9455 53.1452 14.8811 55.2559 16.0896C55.7471 16.3719 56.361 16.3218 56.8001 15.9641L64.0965 9.98363L72.0149 17.9034L66.0371 25.2065C65.6787 25.6449 65.6274 26.2595 65.909 26.7513C67.1188 28.8601 68.0544 31.1149 68.693 33.4612C68.8405 34.0084 69.311 34.4075 69.8748 34.4642L79.2667 35.4031V46.6034L69.8748 47.5423C69.311 47.599 68.8405 47.9981 68.693 48.5453C68.0551 50.8915 67.1195 53.1464 65.909 55.2558C65.6274 55.747 65.6787 56.3616 66.0371 56.8L72.0149 64.0964L64.0965 72.0235L58.2488 67.2402L56.5171 69.3569L63.3231 74.925C63.867 75.3701 64.6591 75.3301 65.1556 74.8329L74.8197 65.1695C75.3155 64.673 75.3542 63.8809 74.9098 63.3384L68.7431 55.779C69.6987 53.9872 70.4768 52.1061 71.0667 50.1635L80.7701 49.1932C81.4681 49.1232 82 48.5352 82 47.8332V34.1666C82 33.4645 81.4681 32.8766 80.7701 32.8066Z" fill="white"/>
<path d="M39.6333 13.6666H42.3666V16.4H39.6333V13.6666Z" fill="white"/>
<path d="M20.7063 22.6381L22.6395 20.7062L24.5714 22.6394L22.6382 24.572L20.7063 22.6381Z" fill="white"/>
<path d="M13.6667 39.6333H16.4001V42.3666H13.6667V39.6333Z" fill="white"/>
<path d="M20.7068 59.3619L22.6387 57.4287L24.5719 59.3606L22.64 61.2945L20.7068 59.3619Z" fill="white"/>
<path d="M57.428 59.3613L59.3612 57.4287L61.2937 59.3626L59.3599 61.2945L57.428 59.3613Z" fill="white"/>
<path d="M65.6001 39.6333H68.3334V42.3666H65.6001V39.6333Z" fill="white"/>
<path d="M57.4287 22.6401L59.3606 20.7062L61.2945 22.6387L59.3619 24.572L57.4287 22.6401Z" fill="white"/>
<path d="M62.8666 41.0001C62.8633 35.023 60.4135 29.3074 56.088 25.1827C51.7624 21.0573 45.9374 18.8819 39.9669 19.1621C30.2722 19.6146 22.0375 26.4052 19.7472 35.8364C17.4563 45.2669 21.6598 55.0785 30.0666 59.9272V63.1184C28.429 63.6889 27.332 65.2331 27.332 66.9668C27.332 68.7005 28.429 70.2446 30.0666 70.8152V72.4334C30.0726 77.7146 34.3521 81.9941 39.6333 82.0001H42.3666C47.6478 81.9941 51.9273 77.7146 51.9333 72.4334V70.8152C53.5709 70.2446 54.6679 68.7005 54.6679 66.9668C54.6679 65.2331 53.5709 63.6889 51.9333 63.1184V59.9286C58.7039 56.0321 62.8739 48.8124 62.8666 41.0001ZM21.8786 40.2073C22.3357 30.327 30.2141 22.4046 40.0924 21.8941C49.0471 21.4624 57.1003 27.3088 59.4633 35.9572C61.8256 44.6056 57.8631 53.7345 49.9327 57.9153C49.4836 58.1508 49.2013 58.6153 49.1999 59.1225V62.8668H32.7999V59.1225C32.7999 58.6153 32.5197 58.1508 32.0712 57.914C25.5656 54.4486 21.6084 47.5739 21.8786 40.2073ZM42.3666 79.2668H39.6333C35.8609 79.2621 32.8046 76.2058 32.7999 72.4334V71.0668H49.1999V72.4334C49.1953 76.2058 46.139 79.2621 42.3666 79.2668ZM50.5666 68.3335H31.4333C30.6785 68.3335 30.0666 67.7215 30.0666 66.9668C30.0666 66.212 30.6785 65.6001 31.4333 65.6001H50.5666C51.3213 65.6001 51.9333 66.212 51.9333 66.9668C51.9333 67.7215 51.3213 68.3335 50.5666 68.3335Z" fill="white"/>
<path d="M35.7521 46.1209L40.9999 41.4617L46.2451 46.1223C46.7629 46.5827 47.5437 46.5827 48.0615 46.1223L54.2115 40.6556L52.3964 38.6056L47.1499 43.2715L41.9035 38.6109C41.3856 38.1512 40.6062 38.1512 40.0884 38.6109L34.8499 43.2715L29.6142 38.6123L27.7964 40.6543L33.9464 46.1209C34.4629 46.5747 35.2356 46.5747 35.7521 46.1209Z" fill="white"/>
</g>
</svg>
