<svg width="82" height="82" viewBox="0 0 82 82" fill="none" xmlns="http://www.w3.org/2000/svg">
<g>
<path d="M81.817 56.3409C81.2482 54.268 79.5101 52.7254 77.3842 52.4066V21.247H80.0994C80.8492 21.247 81.4571 20.6391 81.4571 19.8894V6.31318C81.4571 5.56278 80.8492 4.95557 80.0994 4.95557H20.3643C19.6145 4.95557 19.0066 5.56278 19.0066 6.31318V19.8894C19.0066 20.6391 19.6145 21.247 20.3643 21.247H23.0795V48.3993H21.7219C18.3524 48.3914 15.0518 49.3572 12.2186 51.1809V44.3265C12.2186 43.5761 11.6107 42.9689 10.8609 42.9689H1.35762C0.607879 42.9689 0 43.5761 0 44.3265V75.5517C0 76.3014 0.607879 76.9093 1.35762 76.9093H10.8609C11.6107 76.9093 12.2186 76.3014 12.2186 75.5517V68.698C15.0525 70.5203 18.3524 71.4861 21.7219 71.4788H44.0139C45.5584 71.4762 47.0957 71.2733 48.5879 70.8756L77.9815 63.0017C80.8737 62.2135 82.5873 59.2384 81.817 56.3409ZM21.7219 7.6708H78.7418V18.5317H21.7219V7.6708ZM25.7947 21.247H74.669V52.6399L58.9125 56.8652C58.2635 55.318 56.9397 54.156 55.3216 53.7125L37.0289 48.8064C35.9987 48.5352 34.9381 48.398 33.8728 48.3993H25.7947V21.247ZM9.50332 74.1941H2.71524V45.6841H9.50332V74.1941ZM77.2768 60.3786L47.8885 68.2525C46.6244 68.5899 45.3224 68.7616 44.0139 68.7636H21.7219C18.4896 68.7709 15.3428 67.7222 12.7615 65.7766L12.2186 65.3696V54.5086L12.7615 54.1009C15.3428 52.1553 18.4896 51.106 21.7219 51.1146H33.8728C34.7021 51.1139 35.5287 51.2213 36.3315 51.4334L54.6183 56.3356C55.6988 56.6332 56.4896 57.5593 56.6129 58.6736C56.6275 58.7293 56.6454 58.7843 56.6673 58.838C56.6514 58.8963 56.6394 58.9553 56.6315 59.0157C56.6328 59.2364 56.603 59.4565 56.542 59.6686C56.2225 60.8519 55.1506 61.6746 53.9249 61.6765C53.6856 61.6785 53.4482 61.648 53.2175 61.5871L41.6778 58.4926C41.2045 58.3521 40.6921 58.4794 40.3394 58.8254C39.9874 59.1714 39.8502 59.6812 39.9821 60.1572C40.114 60.6325 40.4939 60.9997 40.9745 61.1144L52.5142 64.2101C52.9749 64.3315 53.4502 64.3924 53.9275 64.3918C56.3683 64.3905 58.5075 62.7577 59.1525 60.4031C59.2281 60.1307 59.2791 59.8522 59.3063 59.5712L75.8569 55.1331C75.9749 55.1032 76.1028 55.0727 76.2235 55.0529C77.5751 54.8785 78.8459 55.733 79.1952 57.0495C79.2562 57.2789 79.2867 57.5155 79.2847 57.7528C79.2867 58.9819 78.4634 60.0584 77.2768 60.3786Z" fill="#333333"/>
<path d="M43.4438 26.6772H57.02C57.7697 26.6772 58.3776 26.0693 58.3776 25.3195C58.3776 24.5691 57.7697 23.9619 57.02 23.9619H43.4438C42.6941 23.9619 42.0862 24.5691 42.0862 25.3195C42.0862 26.0693 42.6941 26.6772 43.4438 26.6772Z" fill="#333333"/>
</g>
</svg>
