<svg width="82" height="82" viewBox="0 0 82 82" fill="none" xmlns="http://www.w3.org/2000/svg">
<path d="M75.875 11.75H6.125C5.50288 11.75 5 12.254 5 12.875V21.875V69.125C5 69.746 5.50288 70.25 6.125 70.25H75.875C76.4971 70.25 77 69.746 77 69.125V21.875V12.875C77 12.254 76.4971 11.75 75.875 11.75ZM74.75 68H7.25V23H74.75V68ZM74.75 20.75H7.25V14H74.75V20.75Z" fill="#FECC2F"/>
<path d="M14 16.25H11.75V18.5H14V16.25Z" fill="#FECC2F"/>
<path d="M18.5 16.25H16.25V18.5H18.5V16.25Z" fill="#FECC2F"/>
<path d="M23 16.25H20.75V18.5H23V16.25Z" fill="#FECC2F"/>
<path d="M70.25 16.25H63.5V18.5H70.25V16.25Z" fill="#FECC2F"/>
<path d="M61.061 55.0007L54.311 44.8757C53.8936 44.2491 52.8564 44.2491 52.439 44.8757L45.689 55.0007C45.5664 55.1852 45.5 55.4035 45.5 55.6251V56.7501C45.5 57.3711 46.0029 57.8751 46.625 57.8751H48.875V62.3751C48.875 62.9961 49.3779 63.5001 50 63.5001H56.75C57.3721 63.5001 57.875 62.9961 57.875 62.3751V57.8751H60.125C60.7471 57.8751 61.25 57.3711 61.25 56.7501V55.6251C61.25 55.4035 61.1836 55.1852 61.061 55.0007ZM56.75 55.6251C56.1279 55.6251 55.625 56.1291 55.625 56.7501V61.2501H51.125V56.7501C51.125 56.1291 50.6221 55.6251 50 55.6251H47.9772L53.375 47.5285L58.7728 55.6251H56.75Z" fill="#FECC2F"/>
<path d="M68 27.5H14C12.7591 27.5 11.75 28.5091 11.75 29.75V50C11.75 51.2409 12.7591 52.25 14 52.25H45.5V50H14V29.75H68V50H61.25V52.25H68C69.2409 52.25 70.25 51.2409 70.25 50V29.75C70.25 28.5091 69.2409 27.5 68 27.5Z" fill="#FECC2F"/>
<path d="M14 54.5H11.75V56.75H14V54.5Z" fill="#FECC2F"/>
<path d="M14 59H11.75V61.25H14V59Z" fill="#FECC2F"/>
<path d="M34.25 54.5H16.25V56.75H34.25V54.5Z" fill="#FECC2F"/>
<path d="M18.5 59H16.25V61.25H18.5V59Z" fill="#FECC2F"/>
<path d="M43.25 59H20.75V61.25H43.25V59Z" fill="#FECC2F"/>
<path d="M38.75 54.5H36.5V56.75H38.75V54.5Z" fill="#FECC2F"/>
<path d="M43.25 54.5H41V56.75H43.25V54.5Z" fill="#FECC2F"/>
<path d="M59 32H52.25V34.25H59V32Z" fill="#FECC2F"/>
<path d="M65.75 32H61.25V34.25H65.75V32Z" fill="#FECC2F"/>
</svg>
