<svg width="81" height="81" viewBox="0 0 81 81" fill="none" xmlns="http://www.w3.org/2000/svg">
<path d="M51.6727 21.0509C53.8535 21.0509 55.6277 19.2767 55.6277 17.0959C55.6277 14.915 53.8535 13.1406 51.6727 13.1406C49.4918 13.1406 47.7176 14.915 47.7176 17.0959C47.7176 17.9865 48.0137 18.8092 48.5126 19.4711L42.0142 28.5521C41.6264 28.4248 41.2127 28.3549 40.7828 28.3549C39.7435 28.3549 38.7971 28.7584 38.0906 29.4162L33.7592 26.9584C33.8169 26.6901 33.8479 26.412 33.8479 26.1267C33.8479 23.9459 32.0737 22.1716 29.8928 22.1716C27.712 22.1716 25.9378 23.9459 25.9378 26.1267C25.9378 26.412 25.9688 26.6901 26.0265 26.9584L21.6951 29.4162C20.9885 28.7584 20.0422 28.355 19.0029 28.355C16.8221 28.355 15.0479 30.1294 15.0479 32.3103C15.0479 34.4911 16.8221 36.2655 19.0029 36.2655C21.1838 36.2655 22.958 34.4911 22.958 32.3103C22.958 32.025 22.927 31.7469 22.8693 31.4786L27.2007 29.0207C27.9072 29.6785 28.8536 30.0821 29.8928 30.0821C30.9321 30.0821 31.8783 29.6785 32.585 29.0209L36.9164 31.4787C36.8587 31.7471 36.8277 32.0252 36.8277 32.3104C36.8277 34.4912 38.6019 36.2656 40.7828 36.2656C42.9637 36.2656 44.738 34.4912 44.738 32.3104C44.738 31.4196 44.4417 30.5968 43.9429 29.9348L50.4412 20.8538C50.8288 20.981 51.2427 21.0509 51.6727 21.0509ZM51.6727 15.5137C52.545 15.5137 53.2547 16.2234 53.2547 17.0959C53.2547 17.9682 52.545 18.6779 51.6727 18.6779C50.8003 18.6779 50.0906 17.9682 50.0906 17.0959C50.0905 16.2234 50.8002 15.5137 51.6727 15.5137ZM19.0025 33.8921C18.1301 33.8921 17.4204 33.1824 17.4204 32.3099C17.4204 31.4374 18.1301 30.7277 19.0025 30.7277C19.8748 30.7277 20.5845 31.4374 20.5845 32.3099C20.5845 33.1824 19.8748 33.8921 19.0025 33.8921ZM29.8925 27.7088C29.0202 27.7088 28.3105 26.9991 28.3105 26.1266C28.3105 25.2542 29.0202 24.5445 29.8925 24.5445C30.7649 24.5445 31.4746 25.2542 31.4746 26.1266C31.4747 26.9991 30.7649 27.7088 29.8925 27.7088ZM40.7826 33.8921C39.9103 33.8921 39.2006 33.1824 39.2006 32.3099C39.2006 31.4374 39.9103 30.7277 40.7826 30.7277C41.6551 30.7277 42.3648 31.4374 42.3648 32.3099C42.3648 33.1824 41.6549 33.8921 40.7826 33.8921Z" fill="black"/>
<path d="M66.2548 59.6372H57.9514H12.724H3.35628C2.81412 59.6372 2.37305 59.1962 2.37305 58.654V9.70296C2.37305 9.1608 2.81412 8.71973 3.35628 8.71973H8.94971C9.60499 8.71973 10.1362 8.18864 10.1362 7.5332C10.1362 6.87777 9.60499 6.34668 8.94971 6.34668H3.35628C1.50562 6.34668 0 7.8523 0 9.70296V58.654C0 60.5047 1.50562 62.0103 3.35628 62.0103H11.5374V64.6216C11.5374 66.1092 12.7477 67.3194 14.2353 67.3194H26.1122L20.5213 78.2351C20.2226 78.8184 20.4531 79.5333 21.0364 79.8322C21.2095 79.9209 21.3943 79.9629 21.5764 79.9629C22.0075 79.9629 22.4234 79.7271 22.6333 79.3169L28.7784 67.3194H41.8969L48.042 79.3169C48.2521 79.7271 48.6679 79.9629 49.099 79.9629C49.2811 79.9629 49.4658 79.9206 49.6389 79.8322C50.2222 79.5333 50.4529 78.8184 50.154 78.2351L44.5631 67.3194H56.4401C57.9277 67.3194 59.1379 66.1093 59.1379 64.6216V62.0103H66.2548C66.9101 62.0103 67.4414 61.4792 67.4414 60.8238C67.4414 60.1683 66.9101 59.6372 66.2548 59.6372ZM56.7649 64.6216C56.7649 64.8007 56.6192 64.9464 56.4401 64.9464H14.2353C14.0562 64.9464 13.9105 64.8007 13.9105 64.6216V62.0103H56.7649V64.6216Z" fill="black"/>
<path d="M13.6958 8.71963H29.9388H40.7363H67.3189C67.8611 8.71963 68.3021 9.1607 68.3021 9.70286V20.9845C68.3021 21.6399 68.8334 22.171 69.4887 22.171C70.1439 22.171 70.6752 21.6399 70.6752 20.9845V9.70286C70.6752 7.8522 69.1696 6.34658 67.3189 6.34658H41.923V4.01435C41.923 2.37299 40.5876 1.0376 38.9461 1.0376H31.7292C30.0879 1.0376 28.7523 2.37299 28.7523 4.01435V6.34658H13.6958C13.0405 6.34658 12.5093 6.87767 12.5093 7.5331C12.5093 8.18854 13.0405 8.71963 13.6958 8.71963ZM31.1254 4.01435C31.1254 3.68149 31.3962 3.41064 31.7292 3.41064H38.9461C39.279 3.41064 39.55 3.68149 39.55 4.01435V6.34658H31.1255V4.01435H31.1254Z" fill="black"/>
<path d="M16.5957 42.3315C15.9404 42.3315 15.4092 42.8626 15.4092 43.5181V54.0025C15.4092 54.6579 15.9404 55.189 16.5957 55.189H21.4093C22.0646 55.189 22.5959 54.6579 22.5959 54.0025V43.5181C22.5959 42.8626 22.0646 42.3315 21.4093 42.3315H16.5957ZM20.2228 52.8161H17.7822V44.7047H20.2228V52.8161Z" fill="black"/>
<path d="M27.4858 36.2681C26.8306 36.2681 26.2993 36.7992 26.2993 37.4546V54.0028C26.2993 54.6582 26.8306 55.1893 27.4858 55.1893H32.2995C32.9548 55.1893 33.486 54.6582 33.486 54.0028V37.4546C33.486 36.7992 32.9548 36.2681 32.2995 36.2681H27.4858ZM31.1131 52.8163H28.6725V38.6411H31.1131V52.8163Z" fill="black"/>
<path d="M38.376 42.3315C37.7207 42.3315 37.1895 42.8626 37.1895 43.5181V54.0025C37.1895 54.6579 37.7207 55.189 38.376 55.189H43.1896C43.8449 55.189 44.3761 54.6579 44.3761 54.0025V43.5181C44.3761 42.8626 43.8449 42.3315 43.1896 42.3315H38.376ZM42.0031 52.8161H39.5625V44.7047H42.0031V52.8161Z" fill="black"/>
<path d="M49.2661 49.333C48.6108 49.333 48.0796 49.8641 48.0796 50.5195V54.0027C48.0796 54.6581 48.6108 55.1892 49.2661 55.1892H54.0798C54.735 55.1892 55.2663 54.6581 55.2663 54.0027C55.2663 53.3473 54.735 52.8162 54.0798 52.8162H50.4526V50.5195C50.4526 49.8641 49.9214 49.333 49.2661 49.333Z" fill="black"/>
<path d="M80.395 60.7532L73.588 48.9629C75.3126 47.1248 76.5684 44.8788 77.2392 42.3754C78.3113 38.3742 77.7611 34.195 75.6899 30.6076C71.4143 23.2016 61.9109 20.6556 54.5054 24.9311C47.0998 29.2065 44.5535 38.7099 48.8291 46.1156C50.9003 49.703 54.2445 52.2691 58.2456 53.3414C59.5818 53.6994 60.9375 53.8764 62.2846 53.8764C63.4619 53.8764 64.6325 53.741 65.7772 53.473L72.5828 65.2635C73.417 66.709 74.9361 67.5179 76.4963 67.5178C77.2609 67.5178 78.0354 67.3233 78.744 66.9146C80.1356 66.1114 81.0002 64.6136 81.0002 63.006C81.0002 62.2183 80.791 61.4395 80.395 60.7532ZM58.8598 51.0492C55.4709 50.1411 52.6383 47.9675 50.884 44.9291C47.2627 38.6566 49.4195 30.6076 55.6918 26.9861C57.7552 25.7949 60.0101 25.2291 62.2373 25.2291C66.7801 25.2291 71.2047 27.5853 73.6347 31.7941C75.3888 34.8325 75.8549 38.3722 74.9468 41.7612C74.0387 45.1502 71.8652 47.9825 68.8267 49.7369C65.7885 51.4912 62.2488 51.9569 58.8598 51.0492ZM77.558 64.8592C76.5371 65.4486 75.2272 65.0978 74.6382 64.0773L68.0905 52.7335C68.7467 52.4657 69.3893 52.1525 70.0136 51.7921C70.6383 51.4314 71.23 51.0299 71.7902 50.5951L78.3398 61.9394C78.5278 62.2654 78.6271 62.6344 78.6271 63.0061C78.6271 63.7684 78.2174 64.4785 77.558 64.8592Z" fill="black"/>
<path d="M73.0173 41.7044C73.855 39.0061 73.6555 36.1173 72.4555 33.5703C72.1761 32.9773 71.4693 32.7232 70.8765 33.0025C70.2835 33.2819 70.0294 33.9887 70.3088 34.5815C71.2554 36.5907 71.4125 38.8702 70.751 41.0006C70.0859 43.1427 68.6491 44.9403 66.7053 46.0626C64.6483 47.2504 62.2517 47.5655 59.9576 46.9509C57.6634 46.3361 55.7456 44.8647 54.5581 42.8077C52.1065 38.5614 53.5667 33.1123 57.813 30.6606C60.9177 28.8683 64.7708 29.1078 67.6297 31.2708C68.1524 31.6663 68.8964 31.5633 69.2918 31.0406C69.6871 30.5181 69.5841 29.7739 69.0614 29.3785C65.44 26.6383 60.5588 26.335 56.6263 28.6054C54.0204 30.1099 52.1563 32.5393 51.3775 35.4458C50.5986 38.3523 50.9984 41.3882 52.5029 43.9941C54.0074 46.6002 56.4368 48.4641 59.3433 49.2431C60.3139 49.5032 61.2989 49.6318 62.2773 49.6318C64.2293 49.6318 66.156 49.1199 67.8917 48.1177C70.3544 46.6961 72.1747 44.4186 73.0173 41.7044Z" fill="black"/>
</svg>
