<svg width="81" height="72" viewBox="0 0 81 72" fill="none" xmlns="http://www.w3.org/2000/svg">
<path d="M32.1262 35.9634C31.5092 35.3449 30.5062 35.3449 29.8892 35.9634C29.2706 36.5804 29.2706 37.5834 29.8892 38.2004C30.5062 38.819 31.5092 38.819 32.1262 38.2004C32.7448 37.5834 32.7448 36.5804 32.1262 35.9634Z" fill="black"/>
<path d="M40.5 38.6641C37.883 38.6641 35.7539 40.7932 35.7539 43.4102C35.7539 46.0272 37.883 48.1562 40.5 48.1562C43.117 48.1562 45.2461 46.0272 45.2461 43.4102C45.2461 40.7932 43.117 38.6641 40.5 38.6641ZM40.5 44.9922C39.6277 44.9922 38.918 44.2825 38.918 43.4102C38.918 42.5378 39.6277 41.8281 40.5 41.8281C41.3723 41.8281 42.082 42.5378 42.082 43.4102C42.082 44.2825 41.3723 44.9922 40.5 44.9922Z" fill="black"/>
<path d="M40.5 30.7539C38.7316 30.7539 37.0216 31.1113 35.4179 31.8162C34.618 32.1679 34.2546 33.1013 34.6061 33.9012C34.9577 34.7011 35.8912 35.0643 36.6911 34.7129C37.8911 34.1855 39.1727 33.918 40.5 33.918C45.734 33.918 49.9922 38.1762 49.9922 43.4102C49.9922 48.6441 45.734 52.9023 40.5 52.9023C35.266 52.9023 31.0078 48.6441 31.0078 43.4102C31.0078 43.3561 31.0077 43.3032 31.0089 43.2491C31.0292 42.3757 30.3375 41.6511 29.4641 41.6308C28.5892 41.609 27.8661 42.3021 27.8458 43.1757C27.8439 43.2545 27.8438 43.3314 27.8438 43.4102C27.8438 50.3888 33.5213 56.0664 40.5 56.0664C47.4787 56.0664 53.1562 50.3888 53.1562 43.4102C53.1562 36.4315 47.4787 30.7539 40.5 30.7539Z" fill="black"/>
<path d="M40.5 7.02344C39.6262 7.02344 38.918 7.73171 38.918 8.60547V18.0977C38.918 18.9714 39.6262 19.6797 40.5 19.6797C41.3738 19.6797 42.082 18.9714 42.082 18.0977V8.60547C42.082 7.73171 41.3738 7.02344 40.5 7.02344Z" fill="black"/>
<path d="M22.8256 18.7524L16.1146 12.0415C15.4968 11.4237 14.4951 11.4237 13.8772 12.0415C13.2594 12.6592 13.2594 13.661 13.8772 14.2789L20.5881 20.9899C21.2059 21.6077 22.2078 21.6078 22.8256 20.9899C23.4434 20.3721 23.4434 19.3704 22.8256 18.7524Z" fill="black"/>
<path d="M67.1227 12.0415C66.5049 11.4237 65.5032 11.4237 64.8853 12.0415L58.1743 18.7524C57.5565 19.3702 57.5565 20.372 58.1743 20.9899C58.7919 21.6077 59.7938 21.6078 60.4117 20.9899L67.1227 14.2789C67.7405 13.6611 67.7405 12.6594 67.1227 12.0415Z" fill="black"/>
<path d="M80.6037 43.6807C70.5538 32.3029 55.6315 22.8438 40.5 22.8438C25.3664 22.8438 10.4442 32.3052 0.396285 43.6807C-0.182106 44.3356 -0.12009 45.3353 0.534713 45.9137C1.18967 46.4921 2.18952 46.4301 2.76775 45.7753C3.10488 45.3936 3.45024 45.0132 3.80003 44.6353C11.6176 56.4474 25.7892 63.9766 40.5 63.9766C55.2108 63.9766 69.3823 56.4474 77.2 44.6353C77.5497 45.0134 77.8951 45.3937 78.2322 45.7753C78.8087 46.428 79.8084 46.4939 80.4653 45.9137C81.1201 45.3353 81.1821 44.3355 80.6037 43.6807ZM40.5 60.8125C26.5916 60.8125 13.2145 53.5859 6.06091 42.3059C11.6974 36.7829 24.721 26.0078 40.5 26.0078C56.2792 26.0078 69.3026 36.7829 74.9391 42.3057C67.7854 53.5859 54.4084 60.8125 40.5 60.8125Z" fill="black"/>
</svg>
