<svg width="48" height="49" viewBox="0 0 48 49" fill="none" xmlns="http://www.w3.org/2000/svg">
<g>
<path d="M46.4765 21.5749L25.1183 0.953412C24.4961 0.34691 23.5037 0.34691 22.8815 0.953412L1.52407 21.5741C1.20965 21.8775 1.0321 22.2957 1.0321 22.7327C1.0321 23.6221 1.75314 24.3431 2.64246 24.3431H5.48072V46.8881C5.48072 47.7775 6.20166 48.4985 7.09108 48.4985H18.3636C19.253 48.4985 19.974 47.7775 19.974 46.8881V34.0052H28.0258V46.8881C28.0258 47.7775 28.7467 48.4985 29.6361 48.4985H40.9086C41.7981 48.4985 42.519 47.7775 42.519 46.8881V24.3431H45.3573C45.7939 24.3431 46.2117 24.1658 46.5151 23.8519C47.1332 23.2124 47.1159 22.193 46.4765 21.5749ZM42.519 22.7327C41.6296 22.7327 40.9086 23.4537 40.9086 24.3431V46.8881H29.6361V34.0052C29.6361 33.1158 28.9152 32.3949 28.0258 32.3949H19.974C19.0845 32.3949 18.3636 33.1158 18.3636 34.0052V46.8881H7.09108V24.3431C7.09108 23.4537 6.37015 22.7327 5.48072 22.7327H2.64246L23.9999 2.11207L45.3653 22.7327H42.519V22.7327Z" fill="#FECC2F"/>
</g>
</svg>
