<svg width="82" height="82" viewBox="0 0 82 82" fill="none" xmlns="http://www.w3.org/2000/svg">
<path d="M20.147 46.4C18.9657 45.8296 17.6473 45.5 16.25 45.5C11.2876 45.5 7.25 49.5376 7.25 54.5C7.25 59.4624 11.2876 63.5 16.25 63.5C19.364 63.5 22.1124 61.9093 23.729 59.4984L32.2306 63.7543C32.0844 64.3966 32 65.0638 32 65.75C32 70.7124 36.0376 74.75 41 74.75C45.9624 74.75 50 70.7124 50 65.75C50 63.8848 49.4296 62.1511 48.4531 60.7122L60.3995 48.2214C61.898 49.3329 63.7453 50 65.75 50C70.7124 50 74.75 45.9624 74.75 41C74.75 36.0376 70.7124 32 65.75 32C63.6732 32 61.7653 32.7132 60.2397 33.899L48.101 21.7603C49.2868 20.2347 50 18.3267 50 16.25C50 11.2876 45.9624 7.25 41 7.25C36.0376 7.25 32 11.2876 32 16.25C32 16.934 32.0833 17.5989 32.2295 18.2401L24.251 21.1471C22.7547 18.2435 19.7341 16.25 16.25 16.25C11.2876 16.25 7.25 20.2876 7.25 25.25C7.25 30.2124 11.2876 34.25 16.25 34.25C17.5302 34.25 18.7464 33.9777 19.85 33.4929L23.9911 40.4622L20.147 46.4ZM16.25 61.25C12.5274 61.25 9.5 58.2226 9.5 54.5C9.5 50.7774 12.5274 47.75 16.25 47.75C19.9726 47.75 23 50.7774 23 54.5C23 58.2226 19.9726 61.25 16.25 61.25ZM24.7314 57.4824C25.061 56.5475 25.25 55.5462 25.25 54.5C25.25 51.7404 23.999 49.2699 22.0381 47.6184L25.2736 42.6211L35.0285 59.036C34.2072 59.7673 33.5199 60.6425 33.0103 61.6269L24.7314 57.4824ZM41 25.25C43.0768 25.25 44.9847 24.5368 46.5103 23.351L58.6501 35.4909C57.9222 36.4269 57.3778 37.508 57.0639 38.6847L49.9966 37.7127C49.9955 37.6835 50 37.6542 50 37.625C50 32.6626 45.9624 28.625 41 28.625C37.886 28.625 35.1365 30.2157 33.521 32.6266L32.1789 31.9561L37.1041 24.35C38.2843 24.9204 39.6027 25.25 41 25.25ZM42.125 56.8276V46.5462C45.7812 46.0872 48.7557 43.43 49.6872 39.9403L56.7545 40.9123C56.7545 40.9415 56.75 40.9707 56.75 41C56.75 43.1488 57.5082 45.1209 58.7694 46.67L46.9569 59.0214C45.6327 57.848 43.9666 57.0594 42.125 56.8276ZM41 30.875C44.7226 30.875 47.75 33.9024 47.75 37.625C47.75 41.3476 44.7226 44.375 41 44.375C37.2774 44.375 34.25 41.3476 34.25 37.625C34.25 33.9024 37.2774 30.875 41 30.875ZM32.5186 34.6426C32.189 35.5775 32 36.5788 32 37.625C32 42.206 35.4425 45.9905 39.875 46.5474V56.8288C38.8085 56.9626 37.8016 57.2821 36.8847 57.7558L26.6382 40.5129L30.9481 33.8574L32.5186 34.6426ZM41 72.5C37.2774 72.5 34.25 69.4726 34.25 65.75C34.25 62.0274 37.2774 59 41 59C44.7226 59 47.75 62.0274 47.75 65.75C47.75 69.4726 44.7226 72.5 41 72.5ZM65.75 34.25C69.4726 34.25 72.5 37.2774 72.5 41C72.5 44.7226 69.4726 47.75 65.75 47.75C62.0274 47.75 59 44.7226 59 41C59 37.2774 62.0274 34.25 65.75 34.25ZM41 9.5C44.7226 9.5 47.75 12.5274 47.75 16.25C47.75 19.9726 44.7226 23 41 23C37.2774 23 34.25 19.9726 34.25 16.25C34.25 12.5274 37.2774 9.5 41 9.5ZM32.999 20.3529C33.5491 21.4205 34.3018 22.3644 35.2119 23.1316L30.1539 30.9436L24.7314 28.2324C25.061 27.2975 25.25 26.2962 25.25 25.25C25.25 24.566 25.1667 23.9011 25.0205 23.2599L32.999 20.3529ZM9.5 25.25C9.5 21.5274 12.5274 18.5 16.25 18.5C19.9726 18.5 23 21.5274 23 25.25C23 28.9726 19.9726 32 16.25 32C12.5274 32 9.5 28.9726 9.5 25.25ZM21.7794 32.3364C22.5331 31.7469 23.1946 31.0449 23.729 30.2484L28.9231 32.8449L25.3557 38.354L21.7794 32.3364Z" fill="#FECC2F"/>
</svg>
