<svg width="48" height="49" viewBox="0 0 48 49" fill="none" xmlns="http://www.w3.org/2000/svg">
<g>
<path d="M42.3614 9.04545L40.7614 4.24549C40.6228 3.82599 40.1703 3.59829 39.7508 3.73689C39.7133 3.74929 39.6767 3.76449 39.6414 3.78229L34.8415 6.18227C34.4461 6.37977 34.2856 6.86046 34.4831 7.25586C34.6806 7.65126 35.1613 7.81176 35.5567 7.61426L38.171 6.30707C31.2911 18.8894 18.744 26.8981 5.6001 26.8981V28.4981C19.5024 28.4981 32.7503 19.951 39.847 6.57027L40.8414 9.55104C40.981 9.97074 41.4345 10.1978 41.8542 10.0582C42.2739 9.91864 42.501 9.46514 42.3614 9.04545Z" fill="#FECC2F"/>
<path d="M47.2006 0.498535H0.80097C0.359174 0.498535 0.000976562 0.856732 0.000976562 1.29853V37.2982C0.000976562 37.74 0.359174 38.0982 0.80097 38.0982H14.9177L12.0377 47.4629C11.9078 47.8853 12.1449 48.333 12.5673 48.4629C12.9897 48.5928 13.4374 48.3557 13.5673 47.9333L15.1153 42.8982H32.8863L34.4359 47.9333C34.5658 48.3557 35.0135 48.5928 35.4359 48.4629C35.8583 48.333 36.0954 47.8853 35.9655 47.4629L33.0839 38.0982H47.2006C47.6424 38.0982 48.0006 37.74 48.0006 37.2982V1.29853C48.0006 0.856732 47.6424 0.498535 47.2006 0.498535ZM15.6072 41.2982L16.592 38.0982H31.4095L32.3943 41.2982H15.6072ZM46.4006 36.4982H1.60096V2.09852H46.4006V36.4982Z" fill="#FECC2F"/>
<path d="M9.60006 30.0981H6.40009C5.95829 30.0981 5.6001 30.4563 5.6001 30.8981V34.0981C5.6001 34.5399 5.95829 34.8981 6.40009 34.8981H9.60006C10.0419 34.8981 10.4001 34.5399 10.4001 34.0981V30.8981C10.4001 30.4563 10.0419 30.0981 9.60006 30.0981ZM8.80007 33.2981H7.20008V31.6981H8.80007V33.2981Z" fill="#FECC2F"/>
<path d="M17.6001 28.4985H14.4001C13.9583 28.4985 13.6001 28.8567 13.6001 29.2985V34.0985C13.6001 34.5403 13.9583 34.8985 14.4001 34.8985H17.6001C18.0419 34.8985 18.4001 34.5403 18.4001 34.0985V29.2985C18.4001 28.8567 18.0419 28.4985 17.6001 28.4985ZM16.8001 33.2985H15.2001V30.0985H16.8001V33.2985Z" fill="#FECC2F"/>
<path d="M25.6001 25.2983H22.4001C21.9583 25.2983 21.6001 25.6565 21.6001 26.0983V34.0983C21.6001 34.5401 21.9583 34.8983 22.4001 34.8983H25.6001C26.0418 34.8983 26.4 34.5401 26.4 34.0983V26.0983C26.4 25.6565 26.0418 25.2983 25.6001 25.2983ZM24.8001 33.2983H23.2001V26.8983H24.8001V33.2983Z" fill="#FECC2F"/>
<path d="M33.6001 20.4985H30.4001C29.9583 20.4985 29.6001 20.8567 29.6001 21.2985V34.0984C29.6001 34.5402 29.9583 34.8984 30.4001 34.8984H33.6001C34.0419 34.8984 34.4001 34.5402 34.4001 34.0984V21.2985C34.4001 20.8567 34.0419 20.4985 33.6001 20.4985ZM32.8001 33.2984H31.2001V22.0985H32.8001V33.2984Z" fill="#FECC2F"/>
<path d="M41.5998 11.6982H38.3998C37.9581 11.6982 37.5999 12.0564 37.5999 12.4982V34.0981C37.5999 34.5399 37.9581 34.898 38.3998 34.898H41.5998C42.0416 34.898 42.3998 34.5399 42.3998 34.0981V12.4982C42.3998 12.0564 42.0416 11.6982 41.5998 11.6982ZM40.7998 33.2981H39.1998V13.2982H40.7998V33.2981Z" fill="#FECC2F"/>
</g>
</svg>
