<svg width="82" height="82" viewBox="0 0 82 82" fill="none" xmlns="http://www.w3.org/2000/svg">
<path d="M37.5195 61.1633C37.7518 61.3978 38.0569 61.5156 38.3619 61.5156C38.6669 61.5156 38.9719 61.3978 39.2042 61.1633C39.6702 60.6932 39.6702 59.9331 39.2042 59.463L27.2895 47.4385C26.8235 46.9684 26.0705 46.9684 25.6047 47.4385C25.1389 47.9087 25.1389 48.6687 25.6047 49.1388L37.5195 61.1633Z" fill="#FECC2F"/>
<path d="M55.3912 55.1507L56.9318 56.7056L55.3912 58.2602C54.9253 58.7305 54.9253 59.4904 55.3912 59.9605C55.6235 60.195 55.9286 60.3128 56.2336 60.3128C56.5387 60.3128 56.8436 60.195 57.0759 59.9605L58.6166 58.4058L60.1572 59.9606C60.3895 60.1951 60.6946 60.3129 60.9996 60.3129C61.3047 60.3129 61.6096 60.1951 61.8419 59.9606C62.3079 59.4906 62.3079 58.7305 61.8419 58.2604L60.3013 56.7056L61.8419 55.1507C62.3079 54.6805 62.3079 53.9206 61.8419 53.4505C61.3762 52.9802 60.623 52.9802 60.1572 53.4505L58.6166 55.0052L57.0759 53.4503C56.61 52.9801 55.857 52.9801 55.3912 53.4503C54.9254 53.9206 54.9254 54.6805 55.3912 55.1507Z" fill="#FECC2F"/>
<path d="M45.51 42.2763C45.51 44.2652 47.1138 45.8837 49.0845 45.8837C51.0551 45.8837 52.6589 44.2652 52.6589 42.2763C52.6589 40.2875 51.0551 38.6689 49.0845 38.6689C47.1138 38.6689 45.51 40.2875 45.51 42.2763ZM50.276 42.2763C50.276 42.9389 49.7411 43.4787 49.0846 43.4787C48.4281 43.4787 47.8932 42.9389 47.8932 42.2763C47.8932 41.6137 48.4281 41.0739 49.0846 41.0739C49.7411 41.0739 50.276 41.6137 50.276 42.2763Z" fill="#FECC2F"/>
<path d="M49.9278 24.5915C49.8169 24.4809 49.6847 24.3931 49.5393 24.3318C49.2486 24.2104 48.9198 24.2104 48.6291 24.3318C48.4838 24.3931 48.3515 24.4809 48.2419 24.5915L43.4761 29.4013C43.0103 29.8715 43.0103 30.6315 43.4761 31.1016C43.942 31.5717 44.695 31.5717 45.1608 31.1016L47.8929 28.3443V35.0612C47.8929 35.7249 48.4267 36.2636 49.0843 36.2636C49.7419 36.2636 50.2757 35.7249 50.2757 35.0612V28.3443L53.0078 31.1016C53.2402 31.336 53.5452 31.4539 53.8502 31.4539C54.1553 31.4539 54.4602 31.336 54.6925 31.1016C55.1585 30.6313 55.1585 29.8714 54.6925 29.4013L49.9278 24.5915Z" fill="#FECC2F"/>
<path d="M22.872 38.6689C20.9014 38.6689 19.2976 40.2875 19.2976 42.2763C19.2976 44.2652 20.9014 45.8837 22.872 45.8837C24.8427 45.8837 26.4465 44.2652 26.4465 42.2763C26.4465 40.2875 24.8427 38.6689 22.872 38.6689ZM22.872 43.4789C22.2155 43.4789 21.6806 42.939 21.6806 42.2765C21.6806 41.6139 22.2155 41.074 22.872 41.074C23.5286 41.074 24.0635 41.6139 24.0635 42.2765C24.0635 42.9389 23.5286 43.4789 22.872 43.4789Z" fill="#FECC2F"/>
<path d="M24.4127 28.697L25.9533 30.2518L24.4127 31.8066C23.9469 32.2769 23.9469 33.0368 24.4127 33.5069C24.645 33.7414 24.9501 33.8592 25.2551 33.8592C25.5601 33.8592 25.8651 33.7414 26.0974 33.5069L27.6381 31.9521L29.1787 33.5069C29.411 33.7414 29.7161 33.8592 30.0211 33.8592C30.3261 33.8592 30.6311 33.7414 30.8634 33.5069C31.3292 33.0367 31.3292 32.2767 30.8634 31.8066L29.3226 30.2518L30.8633 28.697C31.3291 28.2267 31.3291 27.4668 30.8633 26.9967C30.3974 26.5265 29.6443 26.5265 29.1786 26.9967L27.6379 28.5515L26.0974 26.9967C25.6315 26.5265 24.8785 26.5265 24.4127 26.9967C23.9467 27.4669 23.9467 28.2269 24.4127 28.697Z" fill="#FECC2F"/>
<path d="M27.6382 19.4295H53.8507C54.5084 19.4295 55.0422 18.8908 55.0422 18.2271V11.0123C55.0422 10.3486 54.5084 9.80993 53.8507 9.80993H47.4859C46.4899 6.97208 43.7959 5 40.7445 5C37.6931 5 34.9992 6.97208 34.0031 9.80979H27.6382C26.9806 9.80979 26.4468 10.3485 26.4468 11.0122V18.2269C26.4468 18.8908 26.9806 19.4295 27.6382 19.4295ZM28.8298 12.2147H34.9076C35.4735 12.2147 35.9621 11.8119 36.0753 11.2516C36.5245 9.02222 38.488 7.40496 40.7447 7.40496C43.0026 7.40496 44.9662 9.02222 45.4141 11.2516C45.5273 11.812 46.0157 12.2147 46.5818 12.2147H52.6596V17.0245H28.8298V12.2147Z" fill="#FECC2F"/>
<path d="M65.7655 9.80957H58.6166C57.959 9.80957 57.4252 10.3483 57.4252 11.012C57.4252 11.6757 57.959 12.2144 58.6166 12.2144H65.7655C67.5027 12.2144 69.3399 14.0685 69.3399 15.8218V71.1348C69.3399 72.888 67.5027 74.7422 65.7655 74.7422H15.7233C13.9861 74.7422 12.1489 72.888 12.1489 71.1348V15.8219C12.1489 14.0687 13.9861 12.2145 15.7233 12.2145H22.8722C23.5298 12.2145 24.0636 11.6758 24.0636 11.0121C24.0636 10.3484 23.5298 9.80971 22.8722 9.80971H15.7233C12.6612 9.80971 9.76587 12.7317 9.76587 15.822V71.1351C9.76587 74.2253 12.6612 77.1473 15.7233 77.1473H65.7655C68.8276 77.1473 71.7229 74.2253 71.7229 71.1349V15.8219C71.7229 12.7315 68.8276 9.80957 65.7655 9.80957Z" fill="#FECC2F"/>
<path d="M41.9358 69.9325C43.9065 69.9325 45.5102 68.314 45.5102 66.3251C45.5102 64.3363 43.9065 62.7178 41.9358 62.7178C39.9651 62.7178 38.3613 64.3363 38.3613 66.3251C38.3613 68.314 39.9651 69.9325 41.9358 69.9325ZM41.9358 65.1227C42.5923 65.1227 43.1272 65.6626 43.1272 66.3251C43.1272 66.9877 42.5923 67.5276 41.9358 67.5276C41.2792 67.5276 40.7443 66.9877 40.7443 66.3251C40.7443 65.6626 41.2794 65.1227 41.9358 65.1227Z" fill="#FECC2F"/>
<path d="M41.936 43.4785C42.5937 43.4785 43.1275 42.9398 43.1275 42.2761C43.1275 41.6124 42.5937 41.0737 41.936 41.0737H30.0213C29.3636 41.0737 28.8298 41.6124 28.8298 42.2761C28.8298 42.9398 29.3636 43.4785 30.0213 43.4785H41.936Z" fill="#FECC2F"/>
<path d="M40.7443 9.80957C39.4302 9.80957 38.3613 10.8881 38.3613 12.2145C38.3613 13.5408 39.43 14.6195 40.7443 14.6195C42.0585 14.6195 43.1273 13.5409 43.1273 12.2145C43.1273 10.8883 42.0585 9.80957 40.7443 9.80957Z" fill="#FECC2F"/>
</svg>
