<svg width="48" height="49" viewBox="0 0 48 49" fill="none" xmlns="http://www.w3.org/2000/svg">
<g>
<path d="M34.3125 37.6235C33.795 37.6235 33.375 38.0435 33.375 38.561C33.375 39.0785 33.795 39.4985 34.3125 39.4985C34.83 39.4985 35.25 39.0785 35.25 38.561C35.25 38.0435 34.83 37.6235 34.3125 37.6235Z" fill="#FECC2F"/>
<path d="M36.6208 34.5919L32.1649 33.1069L30.5652 29.9075C32.0063 28.4407 33.0069 26.4999 33.3443 24.4756L33.5438 23.2798H35.25C36.8008 23.2798 38.0625 22.0181 38.0625 20.4673V14.561C38.0625 6.80697 31.7541 0.498535 24 0.498535C16.2261 0.498535 9.9375 6.78888 9.9375 14.561V20.4673C9.9375 21.6894 10.7213 22.7315 11.8125 23.1185V24.2173C11.8125 25.7681 13.0742 27.0298 14.625 27.0298H15.4483C15.8547 27.9126 16.3807 28.7303 17.0209 29.4648C17.1536 29.6175 17.2921 29.7654 17.4339 29.9093L15.8351 33.1069L11.3791 34.592C6.198 36.3197 2.4375 41.7739 2.4375 47.561C2.4375 48.0788 2.85722 48.4985 3.375 48.4985H44.625C45.1427 48.4985 45.5625 48.0788 45.5625 47.561C45.5625 41.7739 41.8021 36.3197 36.6208 34.5919ZM36.1875 20.4673C36.1875 20.9842 35.7669 21.4048 35.25 21.4048H33.8192C34.0575 19.5588 34.2163 17.5945 34.2802 15.6598C34.282 15.6052 34.2835 15.5522 34.2852 15.4985H36.1875V20.4673ZM12.75 21.4048C12.2331 21.4048 11.8125 20.9842 11.8125 20.4673V15.4985H13.7154C13.7185 15.5963 13.7218 15.6946 13.7255 15.7935C13.7256 15.7968 13.7257 15.8001 13.7258 15.8035C13.7258 15.8038 13.7258 15.8041 13.7258 15.8043C13.7915 17.6861 13.9482 19.5994 14.1811 21.4047H12.75V21.4048ZM14.625 25.1548C14.1081 25.1548 13.6875 24.7342 13.6875 24.2173V23.2798H14.4561L14.6556 24.4759C14.6936 24.7033 14.7404 24.9298 14.7945 25.1548H14.625ZM13.6891 13.6235H11.8481C12.323 7.34032 17.5666 2.37354 24 2.37354C30.4048 2.37354 35.6715 7.33966 36.1518 13.6235H34.311C34.2435 8.446 30.0273 4.24854 24.8392 4.24854H23.161C17.973 4.24854 13.7565 8.446 13.6891 13.6235ZM23.1609 6.12354H24.8391C29.0399 6.12354 32.4399 9.55957 32.4375 13.7557C32.4375 14.0508 32.4352 14.3076 32.4302 14.5413C32.4302 14.5443 32.4301 14.5474 32.4301 14.5505L31.2575 14.383C28.0718 13.9281 25.064 12.4242 22.7879 10.1481C22.612 9.97235 22.3736 9.87354 22.125 9.87354C19.6072 9.87354 17.1971 11.0207 15.6039 12.9587C15.9966 9.14125 19.2237 6.12354 23.1609 6.12354ZM16.7381 25.1548C16.2688 23.5936 15.7318 18.9998 15.6131 16.0561L16.8749 14.3736C18.0337 12.829 19.8367 11.8693 21.7545 11.7591C24.278 14.1606 27.5425 15.7465 30.9923 16.2391L32.3725 16.4363C32.2803 18.3943 32.0917 20.3591 31.8217 22.1661C31.8216 22.1667 31.8215 22.1673 31.8214 22.168C31.7355 22.749 31.6678 23.1228 31.4949 24.1671C30.9984 27.1451 28.7764 29.8381 25.843 30.5715C24.6358 30.8729 23.364 30.8728 22.1574 30.5715C20.3258 30.1136 18.6464 28.8463 17.5626 27.0298H19.4738C19.8608 28.1209 20.9028 28.9048 22.125 28.9048H24C25.5539 28.9048 26.8125 27.6463 26.8125 26.0923C26.8125 24.5415 25.5508 23.2798 24 23.2798H22.125C20.8756 23.2798 19.8489 24.0868 19.4722 25.1548H16.7381ZM22.0462 32.4688C22.6892 32.6043 23.3448 32.6735 24 32.6735C24.5129 32.6735 25.0259 32.6306 25.5331 32.5473L23.8765 34.2993L22.0462 32.4688ZM22.5877 35.6622L19.6141 38.8068C18.7955 37.2398 18.0921 35.609 17.5151 33.9395L18.6318 31.7062L22.5877 35.6622ZM29.2093 31.3886L30.4847 33.9394C29.9068 35.6118 29.2032 37.2431 28.3854 38.8082L25.2028 35.6255L29.2093 31.3886ZM21.1875 26.0923C21.1875 25.5747 21.6073 25.1548 22.125 25.1548H24C24.5169 25.1548 24.9375 25.5753 24.9375 26.0923C24.9375 26.61 24.5176 27.0298 24 27.0298H22.125C21.6081 27.0298 21.1875 26.6092 21.1875 26.0923ZM4.35 46.6235C4.72153 41.9793 7.81238 37.7579 11.9721 36.3708L15.9184 35.0556C16.6414 37.0548 17.5371 38.998 18.5868 40.8438C18.5886 40.8469 18.5903 40.8501 18.592 40.8532C18.592 40.8533 18.5921 40.8533 18.5921 40.8534C19.3591 42.2024 20.2223 43.5206 21.1583 44.7721L22.3116 46.6235H4.35ZM24 45.7878L22.7286 43.7466C22.7143 43.7238 22.6991 43.7015 22.683 43.68C21.9238 42.6673 21.2156 41.6082 20.5706 40.5242L23.914 36.9885L27.437 40.5114C26.7877 41.6033 26.077 42.6668 25.3172 43.6798C25.2712 43.741 25.3364 43.6445 24 45.7878ZM25.6884 46.6235L26.8417 44.7722C27.7817 43.5159 28.6511 42.1871 29.4258 40.8223C29.4305 40.814 29.4349 40.8056 29.4396 40.7973C29.4401 40.7963 29.4407 40.7954 29.4413 40.7943C30.4777 38.9662 31.364 37.0399 32.0816 35.0556L36.0278 36.3708C40.1876 37.7579 43.2785 41.9793 43.65 46.6235H25.6884Z" fill="#FECC2F"/>
<path d="M40.8326 42.8296C40.206 41.5755 39.2883 40.4614 38.1786 39.6077C37.7682 39.2918 37.1796 39.3686 36.8639 39.779C36.5482 40.1895 36.625 40.778 37.0353 41.0938C37.9216 41.7756 38.6546 42.6656 39.1551 43.6675C39.387 44.1315 39.9504 44.3182 40.4128 44.0872C40.8759 43.8559 41.0639 43.2928 40.8326 42.8296Z" fill="#FECC2F"/>
</g>
</svg>
