<svg width="81" height="73" viewBox="0 0 81 73" fill="none" xmlns="http://www.w3.org/2000/svg">
<g>
<path d="M45.2723 4.19815H32.7435C31.4992 4.19815 30.3823 4.75164 29.6279 5.62506C29.0518 5.15935 28.3214 4.8819 27.5259 4.8819H23.3246C21.6641 4.8819 20.3137 6.23231 20.3137 7.89278V22.9525C20.3137 24.613 21.6641 25.9648 23.3246 25.9648H27.5259C28.4233 25.9648 29.2373 25.6109 29.8403 25.0362C30.5849 25.7766 31.6111 26.2338 32.7435 26.2338H35.3537L41.7023 33.896C42.5941 34.9803 43.9006 35.5522 45.21 35.5522C48.9407 35.5522 50.9472 31.1744 48.5959 28.3161L46.8634 26.2141C50.1602 25.9521 52.7633 23.1848 52.7633 19.8216V11.689C52.7633 7.55859 49.4029 4.19815 45.2723 4.19815ZM28.6173 22.6085C28.6173 23.2101 28.1275 23.6998 27.526 23.6998H23.3247C22.9142 23.6998 22.5788 23.3643 22.5788 22.9524V7.89264C22.5788 7.48069 22.9142 7.14665 23.3247 7.14665H27.526C28.1276 7.14665 28.6173 7.63494 28.6173 8.23655C28.6173 12.7503 28.6173 18.0077 28.6173 22.6085ZM50.4984 19.8213C50.4984 22.1088 48.637 23.9688 46.3509 23.9688C45.5695 23.9688 44.8731 24.4061 44.5348 25.111C44.1539 25.9046 44.3694 26.8368 44.7881 27.2555L46.8477 29.7554C47.2285 30.2183 47.3998 30.8284 47.3176 31.43C47.0567 33.3263 44.6833 33.955 43.4476 32.4534L37.0282 24.7035C36.6432 24.2363 36.077 23.9688 35.4726 23.9688H32.7434C31.7171 23.9688 30.8819 23.1336 30.8819 22.1073V8.32433C30.8819 7.29808 31.7171 6.46291 32.7434 6.46291H45.2722C48.1542 6.46291 50.4983 8.80698 50.4983 11.689V19.8213H50.4984Z" fill="black"/>
<path d="M37.7135 37.4009H27.0489C26.6285 37.4009 26.2478 37.6472 26.0779 38.0309L20.3152 51.0226C19.7462 52.3036 18.6322 52.4423 18.1791 52.4423C17.0057 52.4423 15.7572 51.6058 15.7572 50.0558V36.2742C15.7572 35.885 15.5434 35.5254 15.2009 35.34C9.60107 32.3121 6.12307 26.5042 6.12307 20.1854C6.12307 12.465 11.3351 5.63661 18.7977 3.58269C19.3639 3.42703 19.6951 2.84235 19.5394 2.27758C19.3838 1.71139 18.7991 1.38017 18.2343 1.53583C9.85326 3.84307 4 11.5124 4 20.1854C4 27.0733 7.67473 33.4177 13.6341 36.8956V50.0557C13.6341 54.8686 20.27 56.3609 22.2561 51.8831L27.7385 39.5241H37.7137C38.2998 39.5241 38.7753 39.0486 38.7753 38.4625C38.7752 37.8751 38.2996 37.4009 37.7135 37.4009Z" fill="black"/>
<path d="M62.4596 34.738C66.5137 31.1908 69.0772 25.9816 69.0772 20.1851C69.0772 9.52187 60.4029 0.847548 49.7397 0.847548C21.8213 0.851923 23.3457 0.837246 22.6663 0.858838C22.0802 0.878596 21.6217 1.37126 21.6415 1.95735C21.6627 2.54343 22.1553 3.00054 22.74 2.98078C23.2519 2.96257 21.8151 2.97386 49.7397 2.9709C59.2323 2.9709 66.9539 10.694 66.9539 20.1851C66.9539 25.9137 64.1413 30.9968 59.8253 34.128C54.7691 33.3197 49.6885 34.5759 45.6389 37.4006H41.96C41.3739 37.4006 40.8983 37.8748 40.8983 38.4623C40.8983 39.0484 41.3739 39.524 41.96 39.524H43.0881C41.8283 40.7669 40.7284 42.1922 39.8352 43.7734C34.5106 53.1748 37.8954 65.0486 47.1917 70.3074C47.7027 70.5961 48.3496 70.4163 48.6384 69.9067C48.9271 69.3957 48.7473 68.7488 48.2377 68.4586C42.8049 65.3855 39.4303 59.5932 39.4303 53.3451C39.4303 43.857 47.1014 36.1661 56.5072 36.0134C66.2868 35.8694 74.1319 43.7796 74.1319 53.3776C74.1319 64.8446 63.0229 73.2763 51.9151 70.0171C51.3518 69.8514 50.7614 70.1741 50.5973 70.7375C50.4316 71.2994 50.7544 71.8898 51.3177 72.0539C63.7758 75.7048 76.2554 66.2783 76.2554 53.3777C76.2554 44.9127 70.7456 37.2663 62.4596 34.738Z" fill="black"/>
<path d="M52.7494 47.4158C53.7225 47.4158 54.5115 46.6269 54.5115 45.6537C54.5115 44.6806 53.7225 43.8917 52.7494 43.8917C51.7762 43.8917 50.9873 44.6806 50.9873 45.6537C50.9873 46.6269 51.7762 47.4158 52.7494 47.4158Z" fill="black"/>
<path d="M60.8121 47.4158C61.7853 47.4158 62.5742 46.6269 62.5742 45.6537C62.5742 44.6806 61.7853 43.8917 60.8121 43.8917C59.839 43.8917 59.05 44.6806 59.05 45.6537C59.05 46.6269 59.839 47.4158 60.8121 47.4158Z" fill="black"/>
<path d="M56.7809 48.4574C50.9594 48.4574 46.2233 53.1935 46.2233 59.0149C46.2233 59.6013 46.6984 60.0766 47.2849 60.0766C47.8715 60.0766 48.3466 59.6013 48.3466 59.0149C48.3466 54.3641 52.1302 50.5806 56.781 50.5806C61.4319 50.5806 65.2154 54.3641 65.2154 59.0149C65.2154 59.6013 65.6906 60.0766 66.2771 60.0766C66.8636 60.0766 67.3388 59.6013 67.3388 59.0149C67.3387 53.1935 62.6024 48.4574 56.7809 48.4574Z" fill="black"/>
</g>
</svg>
