<svg width="81" height="73" viewBox="0 0 81 73" fill="none" xmlns="http://www.w3.org/2000/svg">
<g>
<path d="M7.71913 45.7159C8.10301 45.9895 8.50802 46.2303 8.93009 46.4359C9.43523 46.7011 10.2799 47.1451 10.3394 47.4571C10.4136 47.8668 10.366 48.2901 10.2029 48.6715C10.029 49.0555 9.84589 49.3855 9.68956 49.6711C9.26141 50.4463 8.54743 51.7459 9.62539 52.6531C9.87738 52.8931 10.3125 53.2399 10.7104 53.5531C10.418 54.0782 10.2855 54.6814 10.33 55.2847C10.3913 55.757 10.639 56.1823 11.0148 56.4607C11.2773 56.6527 11.5585 56.8207 11.8315 56.9827C12.5175 57.3847 12.7858 57.5719 12.8814 57.9427C12.9442 58.4309 12.9003 58.9274 12.7531 59.3959C12.6843 59.7079 12.6178 60.0187 12.5746 60.3379C12.459 61.4324 12.594 62.5396 12.9689 63.5707C13.4925 65.4816 15.1725 66.8131 17.1023 66.8467C17.4226 66.8455 17.7419 66.8109 18.0554 66.7435C21.3882 65.9311 24.6724 64.9202 27.8912 63.7159C30.5184 65.3023 32.1797 70.1263 32.6125 71.9371C32.7422 72.472 33.2094 72.8471 33.7453 72.8467L63.0276 72.7627C63.3987 72.762 63.7473 72.5797 63.9665 72.2717C64.1858 71.9638 64.2495 71.5669 64.1382 71.2027C63.8497 70.3897 63.4519 69.6223 62.9564 68.9227C62.6762 68.5088 62.4236 68.0759 62.2004 67.6267C61.6729 66.5262 61.2324 65.3837 60.8833 64.2103C60.2179 61.8911 59.756 59.5152 59.5032 57.1111C59.0937 53.521 59.6229 49.8835 61.0361 46.5739C61.8986 44.7385 62.9616 43.0101 64.2047 41.4223C64.9047 40.4503 65.6315 39.4435 66.2836 38.3863C67.4049 36.5947 68.2179 34.6178 68.6869 32.5423C68.8211 31.9017 68.4308 31.2687 67.8101 31.1206C67.1894 30.9725 66.568 31.3639 66.4143 31.9999C66.0041 33.8113 65.2938 35.5365 64.3144 37.0999C63.7089 38.0851 63.0089 39.0547 62.3311 39.9931C60.9812 41.7258 59.8292 43.6121 58.8977 45.6151C57.3178 49.3165 56.7274 53.3846 57.1875 57.3991C57.4565 59.9488 57.9488 62.4682 58.6586 64.9267C59.0418 66.2177 59.526 67.4745 60.1063 68.6851C60.3723 69.226 60.6744 69.7472 61.0105 70.2451L61.0886 70.3651L34.6273 70.4467C33.8519 67.6003 32.4459 64.9773 30.5196 62.7835L31.5696 62.4079C32.3535 62.1259 32.945 61.9135 33.2507 61.8079C38.2462 60.1699 40.7451 57.8299 40.6762 54.8479C40.673 54.5294 40.5446 54.2258 40.3202 54.0063C40.0958 53.7868 39.7945 53.6701 39.4851 53.6827C38.8412 53.6985 38.3315 54.248 38.3465 54.9103C38.3745 56.1379 37.391 57.9355 32.5414 59.5243C32.2241 59.6287 31.6081 59.8483 30.8019 60.1399C29.9351 60.4507 28.8362 60.8467 27.6229 61.2703H27.6147C24.3338 62.5078 20.9863 63.5495 17.5888 64.3903C16.5021 64.6005 15.4458 63.8985 15.1855 62.7931C14.9346 62.1158 14.8361 61.3888 14.8974 60.6667C14.9312 60.4267 14.986 60.1747 15.0397 59.9299C15.288 59.0923 15.3281 58.204 15.1564 57.3463C14.8175 56.2475 14.0318 55.3539 13.0028 54.8971L12.7519 54.7495C12.8777 54.4868 13.0285 54.2376 13.2023 54.0055C13.3977 53.7502 13.4841 53.4241 13.4417 53.1021C13.3992 52.78 13.2316 52.4894 12.9771 52.2967C12.6983 52.0855 12.0438 51.5767 11.5538 51.1759C11.6098 51.0715 11.6705 50.9563 11.73 50.8531C11.9131 50.5219 12.1231 50.1331 12.3261 49.6927C12.6958 48.8522 12.8042 47.9147 12.6364 47.0083C12.3576 45.5443 10.9938 44.8267 9.99871 44.3035C9.66345 44.1395 9.34192 43.9472 9.03742 43.7287C8.78741 43.5565 8.55312 43.3613 8.33744 43.1455C8.33744 42.9631 8.5276 42.5227 9.4154 41.4103C11.503 38.6437 13.2926 35.6521 14.7527 32.4883C15.0268 31.9924 15.1812 31.436 15.203 30.8659C15.0808 29.6585 14.4567 28.5645 13.4916 27.8659C13.0191 27.4195 12.5723 26.9995 12.5221 26.6455C12.5328 26.3515 12.5969 26.0621 12.7111 25.7923C12.9013 25.2787 13.1218 24.7747 13.3411 24.2695C13.833 23.2272 14.2238 22.1376 14.5077 21.0163C14.775 19.6715 15.1257 18.3456 15.5577 17.0467C16.4772 14.4358 17.9011 12.0433 19.7435 10.0135C21.9741 7.58354 25.4856 5.86514 30.1988 4.90274C33.804 4.08859 37.4621 3.54635 41.1441 3.28034C42.3829 3.21467 43.6248 3.24194 44.8597 3.36194C45.2757 3.40181 45.6807 3.21039 45.9223 2.85979C46.1638 2.50918 46.2052 2.05266 46.0308 1.66219C45.8564 1.27171 45.4927 1.00661 45.0767 0.966737C43.7287 0.839683 42.3735 0.812012 41.0216 0.883937C37.2259 1.15484 33.4546 1.71153 29.738 2.54954C24.4777 3.62954 20.6546 5.52674 18.0461 8.36354C15.9862 10.6286 14.394 13.2995 13.3656 16.2151C12.8928 17.634 12.509 19.0826 12.2165 20.5519C11.9671 21.4943 11.632 22.4103 11.2155 23.2879C10.9822 23.8339 10.7419 24.3799 10.5319 24.9475C10.2664 25.582 10.1574 26.2741 10.2145 26.9623C10.4559 28.0335 11.0611 28.9808 11.9213 29.6335C12.493 30.1723 12.8698 30.5515 12.8744 30.8827C12.832 31.0649 12.7652 31.2402 12.6761 31.4035C11.2794 34.4294 9.56764 37.2906 7.57097 39.9367C6.72634 40.9963 5.8397 42.2311 6.0252 43.4671C6.27362 44.4202 6.88401 45.2305 7.71913 45.7159Z" fill="black"/>
<path d="M19.9294 18.7133C20.632 16.7099 21.7208 14.8732 23.1306 13.3133C24.6857 11.6201 27.3748 10.3733 31.1243 9.60655C31.7564 9.47764 32.1672 8.8461 32.0419 8.19595C31.9166 7.5458 31.3026 7.12324 30.6705 7.25215C26.4369 8.11855 23.3301 9.60175 21.4355 11.6609C19.8076 13.4582 18.5504 15.576 17.7397 17.8865C17.3469 19.0853 17.0271 20.3081 16.7819 21.5477L19.0603 22.0673C19.2839 20.9323 19.5741 19.8123 19.9294 18.7133Z" fill="black"/>
<path d="M44.3368 7.56669L43.6368 11.1571C42.9621 11.385 42.3053 11.6658 41.6723 11.9971L38.7102 9.95709C37.7847 9.33365 36.5608 9.46446 35.7796 10.2703L33.843 12.2611C33.0442 13.0678 32.915 14.3444 33.5351 15.3031L35.509 18.3355C35.1869 18.9866 34.9139 19.6622 34.6923 20.3563L31.2065 21.0763C30.1172 21.3026 29.3343 22.2877 29.3352 23.4307V26.2627C29.3344 27.4038 30.1149 28.3877 31.2018 28.6159L34.6923 29.3359C34.9139 30.03 35.1869 30.7056 35.509 31.3567L33.5257 34.4035C32.9196 35.3555 33.0468 36.6144 33.8302 37.4179L35.7668 39.4099C36.5525 40.2278 37.7908 40.36 38.723 39.7255L41.6711 37.6951C42.3041 38.0263 42.9609 38.3072 43.6357 38.5351L44.3357 42.1207C44.5552 43.2416 45.513 44.0475 46.6246 44.0467H49.3778C50.4872 44.0475 51.4437 43.2447 51.6655 42.1267L52.3655 38.5363C53.0403 38.3084 53.6971 38.0275 54.3301 37.6963L57.2922 39.7363C58.2177 40.3597 59.4416 40.2289 60.2227 39.4231L62.1582 37.4323C62.957 36.6256 63.0862 35.349 62.4661 34.3903L60.4922 31.3579C60.8143 30.7068 61.0873 30.0312 61.3089 29.3371L64.7947 28.6171C65.4871 28.4731 66.0783 28.013 66.4012 27.3667L68.1593 28.5787C68.4985 28.7985 68.8911 28.9154 69.2921 28.9159C69.8513 28.916 70.3876 28.6867 70.7818 28.2787L72.3334 26.6827C73.0391 25.9532 73.1524 24.8154 72.6053 23.9539L71.1003 21.6379C71.3186 21.1866 71.5073 20.7207 71.665 20.2435L74.305 19.7023C75.2928 19.5027 76.0039 18.6101 76.0001 17.5747V15.3187C76.0037 14.2871 75.2976 13.3969 74.3144 13.1935L71.6626 12.6499C71.5062 12.1725 71.3183 11.7066 71.1003 11.2555L72.6286 8.91189C73.1582 8.05354 73.0369 6.932 72.3369 6.21429L70.7853 4.61829C70.0763 3.89205 68.9699 3.77544 68.1324 4.33869L65.8809 5.88669C65.4421 5.66215 64.9892 5.46812 64.5252 5.30589L63.9979 2.59029C63.804 1.57471 62.9369 0.84338 61.9307 0.846693H59.7374C58.7345 0.843053 57.8691 1.56937 57.6713 2.58069L57.1428 5.30829C56.6786 5.47042 56.2257 5.66487 55.7872 5.89029L53.5088 4.31829C52.6741 3.77451 51.5844 3.89917 50.8862 4.61829L49.8363 5.69829C49.6854 5.66593 49.5319 5.64865 49.3778 5.64669H46.6246C45.5152 5.64589 44.5587 6.44865 44.3368 7.56669ZM62.1722 12.2707L61.6273 11.7103C63.6495 11.9887 65.2578 13.5926 65.5911 15.6629C65.9244 17.7332 64.9044 19.7847 63.0775 20.7187L61.3065 20.3587C61.0849 19.6646 60.8119 18.989 60.4899 18.3379L62.4731 15.2911C63.0814 14.3394 62.9557 13.079 62.1722 12.2743V12.2707ZM52.4075 6.44349L55.0744 8.28669C55.4484 8.54465 55.9333 8.5582 56.3204 8.32149C56.9882 7.91721 57.7064 7.60837 58.4553 7.40349C58.8832 7.28463 59.2087 6.92661 59.2953 6.47949L59.9217 3.24669H61.7463L62.3728 6.48669C62.4594 6.93381 62.7849 7.29183 63.2128 7.41069C63.9616 7.61557 64.6799 7.92441 65.3477 8.32869C65.7361 8.56325 66.221 8.5469 66.5937 8.28669L69.2606 6.44589L70.5555 7.77789L68.7671 10.5223C68.5163 10.907 68.5031 11.4058 68.7332 11.8039C69.1263 12.4908 69.4265 13.2296 69.6257 13.9999C69.7413 14.44 70.0893 14.7748 70.524 14.8639L73.6739 15.5083V17.3851L70.5298 18.0295C70.0952 18.1186 69.7471 18.4534 69.6315 18.8935C69.4324 19.6638 69.1321 20.4026 68.7391 21.0895C68.509 21.4876 68.5221 21.9864 68.7729 22.3711L70.5625 25.1143L69.2676 26.4463L66.6672 24.6571V23.4307C66.6673 22.7281 66.369 22.0605 65.8505 21.6031C67.9044 19.5679 68.5488 16.4526 67.4783 13.7336C66.4078 11.0146 63.8376 9.23835 60.9857 9.24669C60.2803 9.25125 59.58 9.36949 58.9103 9.59709C58.3403 9.51167 57.7595 9.64309 57.277 9.96669L54.3313 11.9971C53.6983 11.6658 53.0415 11.385 52.3667 11.1571L51.6667 7.57149C51.6461 7.47535 51.6192 7.38073 51.5862 7.28829L52.4075 6.44349ZM45.7846 12.3391L46.6246 8.04669H49.3778L50.2166 12.3427C50.3038 12.7886 50.6286 13.1454 51.0554 13.2643C52.0193 13.5316 52.9452 13.9269 53.8098 14.4403C54.1951 14.6702 54.674 14.6543 55.0441 14.3995L58.5743 11.9707L60.5295 13.9711L58.1613 17.6059C57.9136 17.9866 57.8982 18.4792 58.1216 18.8755C58.6208 19.7648 59.0051 20.7172 59.2649 21.7087C59.3805 22.1477 59.7274 22.4818 60.1609 22.5715L64.3339 23.4295V26.2627L60.1574 27.1255C59.7239 27.2152 59.377 27.5493 59.2614 27.9883C59.0016 28.9798 58.6173 29.9322 58.1181 30.8215C57.8947 31.2178 57.9101 31.7104 58.1578 32.0911L60.5191 35.7223L58.5743 37.7335L55.0406 35.2975C54.6705 35.0427 54.1916 35.0268 53.8063 35.2567C52.9417 35.7701 52.0158 36.1654 51.0519 36.4327C50.6251 36.5516 50.3003 36.9084 50.2131 37.3543L49.3778 41.6467H46.6246L45.7858 37.3507C45.6986 36.9048 45.3738 36.548 44.947 36.4291C43.9831 36.1618 43.0571 35.7665 42.1926 35.2531C41.8073 35.0232 41.3284 35.0391 40.9583 35.2939L37.4281 37.7227L35.4728 35.7223L37.8411 32.0875C38.0888 31.7068 38.1042 31.2142 37.8807 30.8179C37.3816 29.9286 36.9973 28.9762 36.7374 27.9847C36.6219 27.5457 36.275 27.2116 35.8415 27.1219L31.6685 26.2627V23.4307L35.845 22.5679C36.2785 22.4782 36.6254 22.1441 36.7409 21.7051C37.0008 20.7136 37.3851 19.7612 37.8842 18.8719C38.1077 18.4756 38.0923 17.983 37.8446 17.6023L35.4833 13.9711L37.4281 11.9599L40.9618 14.3959C41.3319 14.6507 41.8108 14.6666 42.1961 14.4367C43.0606 13.9233 43.9866 13.528 44.9505 13.2607C45.3755 13.1403 45.6982 12.7837 45.7846 12.3391Z" fill="black"/>
<path d="M48.001 33.2468C52.5112 33.2468 56.1674 29.486 56.1674 24.8468C56.1674 20.2076 52.5112 16.4468 48.001 16.4468C43.4908 16.4468 39.8346 20.2076 39.8346 24.8468C39.8398 29.4838 43.493 33.2415 48.001 33.2468ZM48.001 18.8468C51.2225 18.8468 53.8341 21.5331 53.8341 24.8468C53.8341 28.1605 51.2225 30.8468 48.001 30.8468C44.7795 30.8468 42.1679 28.1605 42.1679 24.8468C42.1717 21.5347 44.7811 18.8507 48.001 18.8468Z" fill="black"/>
<path d="M48.0011 26.0467C48.6454 26.0467 49.1677 25.5095 49.1677 24.8467C49.1677 24.184 48.6454 23.6467 48.0011 23.6467C47.3568 23.6467 46.8345 24.184 46.8345 24.8467C46.8345 25.5095 47.3568 26.0467 48.0011 26.0467Z" fill="black"/>
<path d="M16.5031 27.2467C17.1474 27.2467 17.6697 26.7094 17.6697 26.0467C17.6697 25.3839 17.1474 24.8467 16.5031 24.8467C15.8588 24.8467 15.3365 25.3839 15.3365 26.0467C15.3365 26.7094 15.8588 27.2467 16.5031 27.2467Z" fill="black"/>
</g>
</svg>
