<svg width="82" height="82" viewBox="0 0 82 82" fill="none" xmlns="http://www.w3.org/2000/svg">
<g>
<path d="M19.8286 16.8164H57.3933C60.7799 16.8164 63.5351 19.5825 63.5351 22.9824V39.4074C63.5351 40.0709 64.0729 40.6086 64.7363 40.6086C65.3996 40.6086 65.9374 40.0709 65.9374 39.4074V22.9824C65.9374 18.2578 62.1046 14.4141 57.3933 14.4141H19.8286C19.1652 14.4141 18.6274 14.9517 18.6274 15.6152C18.6274 16.2788 19.1652 16.8164 19.8286 16.8164Z" fill="#333333"/>
<path d="M49.0651 53.9016H26.4141C26.0616 53.9016 25.7269 54.0564 25.4986 54.3252L18.6925 62.3363L11.8865 54.325C11.6583 54.0563 11.3235 53.9014 10.971 53.9014H8.54418C5.15751 53.9014 2.40234 51.1353 2.40234 47.7354V22.9824C2.40234 19.5825 5.15751 16.8164 8.54418 16.8164H14.2584C14.9218 16.8164 15.4596 16.2788 15.4596 15.6152C15.4596 14.9517 14.9218 14.4141 14.2584 14.4141H8.54418C3.83286 14.4141 0 18.2578 0 22.9824V47.7355C0 52.4601 3.83286 56.3039 8.54418 56.3039H10.4154L17.7772 64.9692C18.0054 65.2379 18.3401 65.3928 18.6926 65.3928C19.0451 65.3928 19.3799 65.2379 19.6081 64.9692L26.9698 56.3039H49.0651C49.7285 56.3039 50.2663 55.7663 50.2663 55.1027C50.2663 54.4392 49.7285 53.9016 49.0651 53.9016Z" fill="black"/>
<path d="M35.4471 71.6425H24.527C23.8636 71.6425 23.3258 72.1801 23.3258 72.8437C23.3258 73.5072 23.8636 74.0448 24.527 74.0448H35.4471C36.973 74.0448 38.2146 75.2902 38.2146 76.8211C38.2146 78.3521 36.973 79.5976 35.4471 79.5976H5.16984C3.64387 79.5976 2.40234 78.3521 2.40234 76.8211C2.40234 75.2902 3.64387 74.0448 5.16984 74.0448H6.23248C6.61782 74.0448 6.97977 73.86 7.20559 73.5479L9.29291 70.6636L11.3802 73.5479C11.606 73.8599 11.968 74.0448 12.3533 74.0448H18.9729C19.6363 74.0448 20.1741 73.5072 20.1741 72.8437C20.1741 72.1801 19.6363 71.6425 18.9729 71.6425H12.9667L10.266 67.9105C10.0402 67.5986 9.67824 67.4136 9.29291 67.4136C8.90757 67.4136 8.54562 67.5984 8.3198 67.9105L5.61908 71.6425H5.16984C2.31922 71.6425 0 73.9657 0 76.8211C0 79.6767 2.31922 82 5.16984 82H35.4471C38.2977 82 40.6169 79.6767 40.6169 76.8211C40.6169 73.9657 38.2977 71.6425 35.4471 71.6425Z" fill="black"/>
<path d="M46.5507 10.3575H51.0692C51.7326 10.3575 52.2704 9.81982 52.2704 9.15629C52.2704 8.49277 51.7326 7.95512 51.0692 7.95512H46.5507C45.0247 7.95512 43.7832 6.70975 43.7832 5.17881C43.7832 3.64788 45.0247 2.40234 46.5507 2.40234H76.8279C78.3539 2.40234 79.5954 3.64772 79.5954 5.17865C79.5954 6.70959 78.3539 7.95512 76.8279 7.95512H75.7653C75.3799 7.95512 75.018 8.13994 74.7922 8.45209L72.7049 11.3363L70.6175 8.45193C70.3917 8.13994 70.0298 7.95496 69.6444 7.95496H56.6234C55.96 7.95496 55.4222 8.49261 55.4222 9.15613C55.4222 9.81966 55.96 10.3573 56.6234 10.3573H69.031L71.7317 14.0893C71.9576 14.4012 72.3195 14.5862 72.7049 14.5862C73.0902 14.5862 73.4521 14.4014 73.678 14.0893L76.3787 10.3573H76.8279C79.6785 10.3573 81.9978 8.03408 81.9978 5.17849C81.9978 2.32323 79.6785 0 76.8279 0H46.5507C43.7001 0 41.3809 2.32323 41.3809 5.17881C41.3809 8.03424 43.7001 10.3575 46.5507 10.3575Z" fill="black"/>
<path d="M17.5938 40.6694C16.9304 40.6694 16.3926 41.2071 16.3926 41.8706C16.3926 42.5341 16.9304 43.0718 17.5938 43.0718H23.9998C24.6632 43.0718 25.201 42.5341 25.201 41.8706V35.4644C25.201 34.8008 24.6632 34.2632 23.9998 34.2632H18.7949V30.2593H23.9998C24.6632 30.2593 25.201 29.7216 25.201 29.0581C25.201 28.3946 24.6632 27.8569 23.9998 27.8569H17.5938C16.9304 27.8569 16.3926 28.3946 16.3926 29.0581V35.4644C16.3926 36.1279 16.9304 36.6655 17.5938 36.6655H22.7987V40.6694H17.5938Z" fill="black"/>
<path d="M36.0116 30.2593C36.6749 30.2593 37.2127 29.7216 37.2127 29.0581C37.2127 28.3946 36.6749 27.8569 36.0116 27.8569H29.6055C28.9421 27.8569 28.4043 28.3946 28.4043 29.0581V41.8706C28.4043 42.5341 28.9421 43.0718 29.6055 43.0718H36.0116C36.6749 43.0718 37.2127 42.5341 37.2127 41.8706C37.2127 41.2071 36.6749 40.6694 36.0116 40.6694H30.8066V36.6655H36.0116C36.6749 36.6655 37.2127 36.1279 37.2127 35.4644C37.2127 34.8008 36.6749 34.2632 36.0116 34.2632H30.8066V30.2593H36.0116Z" fill="black"/>
<path d="M41.6167 27.8569C40.9533 27.8569 40.4155 28.3946 40.4155 29.0581V41.8706C40.4155 42.5341 40.9533 43.0718 41.6167 43.0718H48.0228C48.6861 43.0718 49.224 42.5341 49.224 41.8706V29.0581C49.224 28.3946 48.6861 27.8569 48.0228 27.8569H41.6167ZM46.8216 40.6694H42.8179V30.2593H46.8216V40.6694Z" fill="black"/>
<path d="M81.9979 55.2925C81.9977 54.7019 81.5681 54.1991 80.9849 54.1067L79.3276 53.8437L78.5366 51.9348L79.5222 50.5753C79.8687 50.0972 79.8164 49.4382 79.3988 49.0208L76.0064 45.6287C75.5884 45.2108 74.9287 45.1588 74.4508 45.5065L73.0941 46.4927L71.186 45.7025L70.9222 44.0446C70.8295 43.4613 70.3265 43.0322 69.736 43.0322H69.7355L64.9396 43.0341C64.349 43.0343 63.8459 43.4642 63.7536 44.0476L63.4912 45.7064L61.5848 46.4974L60.2268 45.5118C59.7485 45.1645 59.0888 45.2168 58.6714 45.6351L55.2814 49.0296C54.8642 49.4473 54.8124 50.1065 55.1593 50.5841L56.1454 51.9422L55.3554 53.8527L53.6992 54.1166C53.1159 54.2095 52.6869 54.7127 52.687 55.3032L52.6889 60.1023C52.6891 60.693 53.1188 61.1957 53.7021 61.2881L55.3592 61.5509L56.1502 63.4598L55.1646 64.8194C54.8181 65.2975 54.8704 65.9565 55.2878 66.3739L58.6801 69.7662C59.0977 70.1837 59.7574 70.2361 60.2357 69.8884L61.5923 68.9021L63.5003 69.6923L63.7641 71.3503C63.857 71.9335 64.3598 72.3626 64.9503 72.3626H64.9508L69.7467 72.3605C70.3374 72.3602 70.8402 71.9305 70.9325 71.3472L71.1952 69.6883L73.1017 68.8973L74.4596 69.8831C74.9378 70.2303 75.5975 70.1779 76.0151 69.7597L79.4051 66.3652C79.8223 65.9475 79.874 65.2885 79.5273 64.8108L78.5412 63.4525L79.3313 61.542L80.9874 61.2782C81.5707 61.1853 81.9999 60.6821 81.9996 60.0916L81.9979 55.2925ZM78.2896 59.2754C77.877 59.3411 77.5282 59.6166 77.3685 60.0025L76.0647 63.1554C75.9052 63.5412 75.9574 63.9823 76.2026 64.32L76.9814 65.3928L75.0407 67.3363L73.9686 66.5581C73.6302 66.3125 73.1886 66.2605 72.8026 66.4206L69.6538 67.7272C69.268 67.8874 68.9932 68.2363 68.9278 68.6489L68.7204 69.959L65.9757 69.9601L65.7673 68.6511C65.7016 68.2387 65.4265 67.8899 65.0405 67.7301L61.8899 66.4255C61.7419 66.3641 61.5859 66.3342 61.4304 66.3342C61.1804 66.3342 60.9327 66.4122 60.724 66.5638L59.6532 67.3422L57.7113 65.4003L58.4898 64.3263C58.7348 63.9882 58.7867 63.5471 58.6269 63.1615L57.3215 60.0104C57.1615 59.6244 56.8125 59.3493 56.3999 59.2839L55.0913 59.0764L55.0902 56.3281L56.3978 56.1196C56.8104 56.0539 57.1592 55.7784 57.3187 55.3924L58.6226 52.2396C58.7822 51.8538 58.7299 51.4127 58.4845 51.075L57.7057 50.0022L59.6464 48.0589L60.7185 48.8369C61.0569 49.0828 61.4987 49.1345 61.8845 48.9743L65.0333 47.6678C65.4191 47.5076 65.6939 47.1585 65.7593 46.7459L65.9665 45.436L68.7113 45.435L68.9195 46.744C68.9852 47.1564 69.2603 47.5052 69.6463 47.6651L72.797 48.9697C73.1833 49.1295 73.6247 49.0772 73.9628 48.8315L75.0336 48.0531L76.9757 49.995L76.1972 51.0689C75.9521 51.407 75.9002 51.848 76.0601 52.2337L77.3658 55.3846C77.5258 55.7706 77.8748 56.0457 78.2874 56.1111L79.5961 56.3186L79.5973 59.0671L78.2896 59.2754Z" fill="black"/>
<path d="M72.4435 56.4965C71.7802 56.4965 71.2424 57.0341 71.2424 57.6977C71.2424 59.8474 69.4935 61.5964 67.3438 61.5964C65.1942 61.5964 63.4453 59.8474 63.4453 57.6977C63.4453 55.5479 65.1942 53.799 67.3438 53.799C67.9068 53.799 68.4496 53.9161 68.9568 54.147C69.5607 54.4222 70.2729 54.1552 70.5478 53.5514C70.8226 52.9474 70.5559 52.2352 69.9521 51.9604C69.1302 51.5863 68.2527 51.3965 67.3438 51.3965C63.8696 51.3965 61.043 54.2231 61.043 57.6975C61.043 61.1719 63.8696 63.9985 67.3438 63.9985C70.8181 63.9985 73.6447 61.1719 73.6447 57.6975C73.6447 57.0341 73.1069 56.4965 72.4435 56.4965Z" fill="black"/>
</g>
</svg>
