<svg width="81" height="72" viewBox="0 0 81 72" fill="none" xmlns="http://www.w3.org/2000/svg">
<path d="M47.9439 8.74273C47.4461 9.24105 47.4461 10.048 47.9439 10.5448C48.4412 11.0431 49.2492 11.0431 49.746 10.5448C50.2443 10.048 50.2443 9.24105 49.746 8.74273C49.2492 8.24591 48.4412 8.24591 47.9439 8.74273Z" fill="black"/>
<path d="M14.6023 9.64361C14.1039 10.1419 14.1039 10.9489 14.6023 11.4457C15.0996 11.944 15.9075 11.944 16.4044 11.4457C16.9027 10.9489 16.9027 10.1419 16.4044 9.64361C15.9075 9.14679 15.0996 9.14679 14.6023 9.64361Z" fill="black"/>
<path d="M79.6089 15.2626L66.1858 1.83939C64.3312 -0.0151662 61.3297 -0.0157842 59.4745 1.83939L52.0519 9.26196C48.3051 7.92527 44.0917 8.7101 41.0704 11.3322C37.1858 9.46281 32.6566 9.45724 28.7689 11.3174L21.5255 4.05424C19.671 2.19968 16.6694 2.19906 14.8142 4.05424L1.39108 17.4774C-0.46534 19.3344 -0.461632 22.336 1.38984 24.1874C1.56102 24.3592 8.94527 31.7633 9.17825 31.9969C8.83157 34.441 9.64792 36.945 11.4141 38.7112L9.17764 40.9483C6.70633 43.419 6.70509 47.4254 9.17825 49.8985C10.4575 51.1765 12.2138 51.8476 14.0504 51.7333C13.9349 53.5792 14.6054 55.3238 15.8895 56.6079C17.1422 57.8618 18.8731 58.5657 20.7623 58.4489C20.6474 60.3097 21.329 62.0474 22.6008 63.3211C23.8677 64.5879 25.6036 65.2764 27.473 65.1614C27.3586 67.0228 28.0409 68.7612 29.3139 70.0342C31.7809 72.4993 35.7953 72.4993 38.2635 70.033L40.5 67.7959L42.7371 70.0342C45.2047 72.4993 49.2185 72.4987 51.6861 70.0336C53.0197 68.7 53.6309 66.914 53.5233 65.1645C55.5417 65.2974 57.4549 64.4619 58.7502 62.9385C59.8175 61.6853 60.2748 60.0594 60.1469 58.4421C62.0379 58.5855 63.8139 57.9051 65.1092 56.6092C66.3915 55.3275 67.0645 53.5829 66.9496 51.7327C68.7862 51.847 70.5438 51.1747 71.8224 49.8973C74.2875 47.4297 74.2875 43.4153 71.8217 40.9477L70.6229 39.7494C72.834 36.7905 73.4322 32.8905 72.1864 29.3964L79.6083 21.9738C81.4635 20.1187 81.4641 17.1177 79.6089 15.2626ZM11.4153 47.6608C10.1806 46.4255 10.1794 44.4214 11.4153 43.1854C13.8168 40.7833 15.7245 38.8756 18.1272 36.4729C19.3607 35.24 21.3673 35.2394 22.6008 36.4729C23.8275 37.6996 23.8479 39.7018 22.6027 40.9465C22.602 40.9471 22.602 40.9471 22.6014 40.9477L22.6008 40.9483L15.8908 47.6602C14.6567 48.8931 12.6488 48.8931 11.4153 47.6608ZM18.1279 54.3715C16.8907 53.1343 16.89 51.1363 18.1272 49.8985C18.1272 49.8979 18.1272 49.8979 18.1279 49.8979L24.8379 43.186C26.072 41.9531 28.0798 41.9531 29.3139 43.1854C30.5536 44.4251 30.5487 46.4261 29.3139 47.6602L22.6008 54.3721C21.3655 55.6087 19.3644 55.6087 18.1279 54.3715ZM24.8391 61.0846C23.6019 59.8449 23.605 57.8458 24.8379 56.6092C24.8385 56.6092 24.8385 56.6092 24.8385 56.6086L31.551 49.8979L31.5516 49.8973C32.7857 48.6638 34.7929 48.6644 36.0252 49.8967C37.2624 51.1357 37.2605 53.1343 36.0264 54.3709C36.0264 54.3709 36.0264 54.3709 36.0258 54.3715C36.0258 54.3715 36.0258 54.3715 36.0252 54.3721L29.3133 61.084C28.0755 62.3218 26.0745 62.3193 24.8391 61.0846ZM36.0264 67.7959C34.7923 69.0287 32.7845 69.0287 31.551 67.7965C30.3144 66.5599 30.3132 64.5595 31.5504 63.3217L31.551 63.3211L38.2617 56.6098C38.2623 56.6098 38.2629 56.6092 38.2635 56.6086C39.4989 55.3732 41.5011 55.3726 42.7371 56.6086C43.9737 57.8451 43.9743 59.8462 42.7371 61.084C40.4722 63.3495 38.5194 65.3023 36.0264 67.7959ZM49.4496 67.7959C48.2155 69.0287 46.2077 69.0287 44.9748 67.7965L42.7377 65.5582L44.9742 63.3211C45.7726 62.5226 46.33 61.5481 46.6131 60.4852L49.449 63.3211C50.6831 64.5552 50.6831 66.5624 49.4496 67.7959ZM69.5859 47.6602C68.3512 48.8931 66.3433 48.8931 65.1105 47.6608L58.3992 40.9483C57.7818 40.3303 56.7801 40.3309 56.1621 40.9477C55.5441 41.5657 55.5441 42.5674 56.1615 43.1854L62.8734 49.8985C64.1069 51.1308 64.1131 53.1318 62.8721 54.3721C61.6405 55.6043 59.6413 55.6142 58.3936 54.3659L58.2416 54.2151L51.6867 47.6608C51.0687 47.0428 50.067 47.0428 49.449 47.6608C48.831 48.2782 48.831 49.2799 49.449 49.8979L55.9946 56.4429C57.2121 57.7364 57.3653 59.6849 56.3407 60.8881C55.4842 61.8954 54.1271 62.2674 52.8819 61.8361C51.6997 61.4257 51.8437 61.1038 44.9742 54.3715C43.7234 53.1207 41.9937 52.4156 40.102 52.5324C40.2163 50.6722 39.5347 48.9345 38.2629 47.6608C36.9287 46.326 35.1409 45.7148 33.3907 45.8242C33.5057 43.9777 32.8358 42.2331 31.5504 40.9477C30.2156 39.6141 28.4284 39.0035 26.6782 39.1129C26.7932 37.2664 26.1233 35.5206 24.8385 34.2358C22.3715 31.7688 18.3571 31.7688 15.8901 34.2358L13.6518 36.4741C12.4573 35.2796 11.987 33.522 12.4245 31.8869C12.5697 31.3424 12.4146 30.7609 12.016 30.3611L8.06589 26.4004L15.8908 18.5756C16.5081 17.9582 16.5081 16.9564 15.8908 16.3385C15.2728 15.7205 14.271 15.7205 13.6537 16.3385L5.83189 24.1602L3.62878 21.9516C3.01019 21.333 3.01019 20.3331 3.62878 19.7145L17.0519 6.29133C17.6736 5.66964 18.6741 5.67706 19.2872 6.29009L27.3568 14.3819C27.8666 14.893 28.6595 14.9944 29.2818 14.6267C32.1393 12.9383 35.5679 12.6423 38.6269 13.7355L30.4319 21.9312C27.9667 24.3982 27.9667 28.4126 30.4325 30.8808C32.9001 33.3459 36.9139 33.3459 39.3821 30.8802L42.7377 27.5245C45.8282 24.4328 50.8314 24.4315 53.9232 27.5252L69.5847 43.1848C70.8175 44.4189 70.8175 46.4273 69.5859 47.6602ZM77.3718 19.7367L74.0588 23.0491L66.2284 15.2199C65.6104 14.6019 64.6087 14.6026 63.9907 15.2199C63.3733 15.8379 63.3733 16.8396 63.9907 17.4576L71.8217 25.2868L69.2021 27.9058C68.7281 28.3804 68.6045 29.1022 68.8938 29.7072C70.1044 32.2397 69.8609 35.1949 68.353 37.479L56.1609 25.2881C51.8338 20.9591 44.8277 20.9579 40.5 25.2881L37.145 28.6431C35.9109 29.8759 33.9024 29.8759 32.6696 28.6437C31.4367 27.4096 31.4367 25.4018 32.6696 24.1683C34.8226 22.0152 39.2449 17.593 42.7371 14.1001C45.1046 11.7326 48.7229 11.1122 51.7411 12.5546C52.3461 12.8438 53.0679 12.7202 53.5425 12.2462L61.7116 4.07648C62.3296 3.4585 63.3301 3.45789 63.9487 4.07648L77.3718 17.5003C77.9886 18.117 77.9911 19.1169 77.3718 19.7367Z" fill="black"/>
</svg>
