<svg width="82" height="82" viewBox="0 0 82 82" fill="none" xmlns="http://www.w3.org/2000/svg">
<g>
<path d="M47.4961 43.3097V44.5873C47.4961 45.2507 48.0338 45.7886 48.6974 45.7886C49.361 45.7886 49.8987 45.2507 49.8987 44.5873V43.3097C49.8987 42.6463 49.361 42.1084 48.6974 42.1084C48.0339 42.1084 47.4961 42.6461 47.4961 43.3097ZM6.60532 42.7026C6.69598 42.7026 6.78808 42.6922 6.88018 42.6708C7.52617 42.5196 7.92726 41.8732 7.77605 41.2272C7.66312 40.745 7.42831 39.7414 7.75827 39.3099C7.99341 39.0024 8.6181 38.8158 9.51701 38.7842C13.0866 38.659 14.1812 37.0095 15.2396 35.4143C15.8068 34.5596 16.3932 33.6759 17.4611 32.8482C18.5127 32.0334 18.9634 32.0182 19.0365 32.0224C19.1028 32.0928 19.5724 32.6948 19.399 35.3424C19.3078 36.7311 19.576 37.7516 20.2186 38.4616C21.1177 39.4552 22.4273 39.4999 23.4795 39.5359C23.953 39.5521 24.4002 39.5675 24.7244 39.6578C25.7461 39.9423 26.6426 39.8525 27.3628 39.7802C27.8066 39.7357 28.2656 39.6897 28.3629 39.7962C28.8428 40.3197 29.3908 40.5737 29.9921 40.5603C31.1257 40.529 31.8937 39.5926 33.0564 38.1752C33.1628 38.0457 33.2732 37.9113 33.3879 37.7722C33.4508 37.696 33.4963 37.6556 33.5219 37.6358C33.6879 37.6729 34.0563 37.8969 34.3057 38.0485C35.1938 38.5883 36.5361 39.4043 38.2079 38.688C40.0478 37.8996 40.5237 37.3151 41.4249 36.0681C41.751 35.6169 42.1569 35.0552 42.7749 34.3187C43.8629 33.0212 45.4375 32.644 46.0873 32.9445C46.1901 32.9921 46.5031 33.1369 46.3551 34.0036C46.1435 35.2424 46.3824 36.1748 47.0647 36.7745C48.2471 37.8136 50.0906 37.2475 51.4367 36.8341C51.7446 36.7396 52.0936 36.6324 52.2461 36.6095C52.3627 36.5991 52.713 36.6845 52.9454 36.7418C54.1101 37.0295 56.5336 37.6271 57.7362 34.1907C58.5478 31.8718 59.1419 31.7845 60.9059 31.5255C61.0932 31.4979 61.2871 31.4694 61.4883 31.4372C65.4005 30.8113 66.1314 28.2497 66.7186 26.1913C66.8853 25.6068 67.0428 25.0548 67.2619 24.5495C67.6194 23.7241 68.2801 23.3004 69.1164 22.7641C70.1906 22.0752 71.5276 21.218 72.0908 19.3026C72.361 18.3841 73.1346 17.8576 73.5504 17.7221C73.5383 17.9564 73.4606 18.3742 73.2037 19.0046C72.2999 21.2226 72.1141 22.4472 72.5407 23.3725C72.9314 24.2198 73.7132 24.479 74.1804 24.6337C74.3606 24.6935 74.5309 24.7499 74.6132 24.8066C74.6132 24.8066 74.6206 24.813 74.634 24.8279C75.0748 25.3236 75.8342 25.3678 76.3302 24.9267C76.8257 24.4857 76.8699 23.7263 76.4288 23.2307C76.2922 23.0771 76.1443 22.9448 75.9886 22.8369C75.6145 22.5779 75.2382 22.4532 74.9361 22.3531C74.8708 22.3315 74.7916 22.3052 74.7261 22.2812C74.7298 22.0443 74.8197 21.4058 75.4285 19.9112C76.1306 18.1884 76.1285 16.8847 75.4229 16.0366C74.9007 15.4088 74.0765 15.1577 73.1617 15.3467C71.8854 15.6105 70.316 16.8214 69.7856 18.6247C69.4752 19.6796 68.7809 20.1252 67.8193 20.7417C66.8288 21.377 65.7061 22.097 65.0572 23.5943C64.7755 24.2443 64.5887 24.8991 64.408 25.5323C63.8671 27.4283 63.5099 28.6809 61.1087 29.065C60.9181 29.0956 60.7342 29.1225 60.5567 29.1485C58.6045 29.4352 56.7602 29.7059 55.4682 33.3972C54.9874 34.7715 54.6473 34.6875 53.521 34.4093C53.0002 34.2809 52.4619 34.1481 51.8926 34.2331C51.5598 34.2831 51.1757 34.4008 50.7313 34.5373C50.279 34.6762 49.1272 35.0292 48.6897 34.9607C48.6787 34.8716 48.6735 34.6994 48.7233 34.4079C49.0099 32.7302 48.4016 31.368 47.0964 30.7639C45.2887 29.9269 42.5814 30.8101 40.9339 32.7746C40.2606 33.5775 39.8265 34.178 39.4778 34.6606C38.7424 35.6779 38.5678 35.9196 37.2616 36.4794C36.7754 36.6878 36.3875 36.5022 35.5539 35.9954C34.7295 35.4942 33.0145 34.4514 31.5357 36.2417C31.4191 36.3829 31.307 36.5195 31.199 36.6512C30.7909 37.1487 30.3038 37.7426 29.9929 38.0288C29.105 37.1905 28.0112 37.3004 27.1232 37.3893C26.5227 37.4495 25.9558 37.5063 25.3691 37.343C24.7687 37.1757 24.1551 37.1548 23.5616 37.1344C22.9312 37.1129 22.2166 37.0884 22.0001 36.8491C21.9182 36.7586 21.7343 36.446 21.7965 35.4993C21.9253 33.5354 21.896 30.8178 20.1617 29.8962C18.493 29.0096 16.6085 30.4691 15.9894 30.9489C14.6095 32.0184 13.849 33.1646 13.2378 34.0856C12.2898 35.5141 11.7678 36.3009 9.43276 36.3827C7.75491 36.4416 6.54957 36.9353 5.84976 37.8501C4.83008 39.1834 5.23981 40.9335 5.43667 41.7747C5.56625 42.3288 6.05991 42.7026 6.60532 42.7026ZM42.1247 43.8545C41.841 44.1801 41.4316 44.3669 41.0014 44.3669C40.5711 44.3669 40.1617 44.1803 39.8781 43.8546C39.4421 43.3544 38.6833 43.3023 38.1832 43.7382C37.683 44.174 37.6309 44.9328 38.0668 45.4332C38.807 46.2826 39.8765 46.7697 41.0014 46.7697C42.1261 46.7697 43.1958 46.2826 43.936 45.4333C44.372 44.9331 44.3198 44.1743 43.8195 43.7383C43.3196 43.3022 42.5607 43.3542 42.1247 43.8545ZM79.6176 35.1809C79.2795 34.7622 78.9479 34.3847 78.6274 34.0195C77.1722 32.3618 76.7373 31.739 77.1587 30.7044C77.2547 30.4696 77.3393 30.2178 77.4102 29.9564C77.584 29.3162 77.206 28.6561 76.5658 28.4821C75.926 28.3087 75.2654 28.6862 75.0917 29.3266C75.0462 29.494 74.9932 29.6522 74.9341 29.7973C73.9165 32.2947 75.3934 33.9773 76.8217 35.6044C77.1262 35.9513 77.4413 36.3101 77.7484 36.6904C78.8052 37.9987 79.5081 40.1382 79.601 41.1577C77.1158 40.5117 75.7284 39.3594 75.4742 37.728L75.4077 37.2947C75.1149 35.3697 74.812 33.3792 73.1245 32.9575C72.0643 32.6927 70.6969 33.0446 69.7985 33.8138C69.0091 34.4899 68.6263 35.4337 68.7206 36.4708C68.7499 36.794 68.7934 37.1331 68.8393 37.4921C69 38.745 69.2426 40.6383 68.5438 41.1162C66.8153 42.299 66.6298 44.1383 66.4333 46.0856C66.3909 46.507 66.347 46.9427 66.2867 47.3936C66.1155 48.679 66.577 49.3612 66.9944 49.7072C68.046 50.5785 69.5537 50.0802 70.765 49.6795C71.0345 49.5904 71.2889 49.5061 71.4765 49.4592C71.9117 49.3505 72.5258 50.1188 73.4063 51.8795C73.6637 52.3946 73.9498 52.8364 74.202 53.2263C75.0353 54.5136 75.6933 55.5302 74.9536 59.0014C74.631 60.5149 74.1625 61.0101 74.0122 61.0909C73.8979 61.0165 73.69 60.6745 73.8162 60.2643C74.3496 58.531 74.3368 57.1863 73.7779 56.2674C73.4138 55.669 72.8477 55.2849 72.1407 55.1565C71.427 55.0271 70.9774 55.1258 70.4821 55.521C70.3568 55.6207 70.024 55.8863 68.3461 56.1727C66.4628 56.4943 66.0985 56.1955 65.2176 55.4735C64.8174 55.1457 64.3195 54.7374 63.6286 54.339C62.4582 53.664 61.6093 53.8469 61.1028 54.1194C59.6199 54.9176 59.4108 57.1886 59.1925 60.8278C59.1618 61.34 59.0519 61.6972 58.883 61.8337C58.5009 62.1428 57.2835 61.9573 56.3052 61.8085C55.144 61.6315 53.828 61.4313 52.6264 61.706C50.9918 62.0797 49.8113 61.6544 48.8624 61.3126C48.2986 61.1095 47.8116 60.9343 47.2914 60.9343C46.0362 60.9343 45.6893 62.1532 45.5411 62.6738C45.4895 62.8551 45.3958 63.1845 45.3172 63.2895C45.2579 63.2987 45.038 63.3128 44.5589 63.1443C42.1281 62.2902 40.6759 63.2011 39.715 63.8037C39.1973 64.1285 38.8882 64.3123 38.558 64.3123C37.4762 64.3123 34.8853 64.0376 34.1975 61.4925C33.5078 58.9406 31.5197 58.7464 30.4516 58.642C30.3346 58.6306 30.1934 58.6169 30.0754 58.6007C29.6464 56.1002 27.0455 55.9789 23.7835 55.8272C21.6291 55.7269 20.6366 56.3073 20.357 57.8304C20.3472 57.8829 20.3352 57.9491 20.3243 57.995C20.2827 58.0162 20.2008 58.0506 20.0581 58.0862C18.5427 58.4648 16.9843 56.5496 16.7962 55.9685C16.4762 54.9792 15.3609 53.4225 11.4875 54.1143C9.33105 54.4993 9.19137 56.607 9.11641 57.7392C9.10536 57.9058 9.0911 58.1214 9.07076 58.2999C7.61091 58.4269 6.93608 59.9535 6.47974 61.0461C6.15746 59.9428 5.51147 58.4623 3.54642 57.3761C3.0393 57.0958 2.42854 56.6337 2.39923 56.0236C2.38353 55.6931 2.53426 55.41 2.65007 55.2708C3.53553 55.2932 6.15442 55.2125 7.24554 53.5596C7.70333 52.866 8.04386 51.6668 7.06598 49.8914C6.57745 49.0045 6.41278 48.0916 6.56255 47.1006C6.6617 46.4445 6.21016 45.8323 5.55424 45.7332C4.89863 45.6347 4.28612 46.0856 4.18697 46.7415C3.95855 48.2529 4.21916 49.7027 4.96158 51.0506C5.26383 51.5993 5.36811 52.0424 5.24061 52.2357C4.90232 52.7481 3.31 52.937 2.59064 52.8654C1.4638 52.7531 0.494729 53.849 0.155154 54.9377C-0.0513143 55.5999 -0.50077 57.8845 2.38434 59.4791C3.81423 60.2692 4.06475 61.262 4.3071 62.2221C4.49963 62.9847 4.79051 64.1372 6.02532 64.3843C7.56398 64.692 8.22326 63.1089 8.65958 62.0613C8.83049 61.6514 9.13964 60.9096 9.35924 60.7011C10.0033 60.7403 10.4404 60.4951 10.6961 60.2776C11.3956 59.6827 11.4584 58.7346 11.5138 57.898C11.5916 56.7236 11.6943 56.5179 11.9099 56.4795C13.6501 56.1687 14.4285 56.4549 14.5104 56.7082C15.043 58.354 17.6902 61.1544 20.6408 60.4169C22.406 59.9758 22.618 58.8195 22.7201 58.2638C22.7206 58.2614 22.7209 58.259 22.7214 58.2566C22.8724 58.2302 23.161 58.2033 23.6717 58.227C25.1934 58.2978 26.5108 58.375 27.2225 58.6034C27.6857 58.752 27.6966 58.8608 27.7229 59.1238C27.8911 60.8058 29.4627 60.9593 30.2181 61.033C31.2165 61.1304 31.6315 61.2064 31.8782 62.119C33.0307 66.3832 37.2824 66.7146 38.558 66.7146C39.5955 66.7146 40.3696 66.2289 40.9918 65.8387C41.854 65.2978 42.4236 64.9405 43.7623 65.4109C44.8416 65.7899 45.7146 65.7941 46.4311 65.4231C47.3192 64.9632 47.6311 64.0879 47.8073 63.487C47.8904 63.5162 47.9731 63.546 48.0482 63.573C49.1601 63.9735 50.8406 64.5783 53.1617 64.0481C53.9185 63.8753 54.9478 64.032 55.9436 64.1836C57.5385 64.4263 59.1872 64.6771 60.3935 63.702C61.1141 63.1194 61.517 62.2007 61.5907 60.9716C61.6752 59.5609 61.8282 57.0112 62.2136 56.3127C62.2665 56.3343 62.3373 56.368 62.4278 56.4202C62.9483 56.7205 63.3276 57.0313 63.6946 57.3321C64.9589 58.3681 65.9931 59.0117 68.7504 58.5413C70.5378 58.2361 71.2871 57.8897 71.7513 57.5699C71.8252 57.7679 71.8844 58.3716 71.5196 59.5579C71.1731 60.6839 71.4629 61.9328 72.2581 62.7396C72.9149 63.4057 73.8126 63.6555 74.6616 63.4077C75.5418 63.1508 76.7142 62.2646 77.3029 59.5025C78.2497 55.0595 77.2172 53.464 76.2185 51.9211C75.979 51.551 75.7527 51.2013 75.5547 50.8053C74.75 49.1956 73.4023 46.502 70.8933 47.1286C70.619 47.1972 70.3232 47.2951 70.0099 47.3985C69.6729 47.51 69.0528 47.7151 68.6602 47.7734C68.6623 47.7538 68.6647 47.7332 68.6678 47.7112C68.733 47.2222 68.7788 46.767 68.8233 46.3266C69.0056 44.5198 69.1273 43.6278 69.9 43.0992C71.8119 41.7911 71.471 39.1299 71.2219 37.1866C71.1787 36.8501 71.1382 36.5323 71.1125 36.2531C71.0888 35.9915 71.163 35.8077 71.3607 35.6384C71.7052 35.3433 72.237 35.2523 72.4793 35.278C72.7191 35.603 72.906 36.8315 73.0315 37.6559L73.0992 38.0977C73.4021 40.0416 74.7819 42.5803 79.6354 43.6352C80.4739 43.818 81.2277 43.5163 81.6515 42.8295C82.7654 41.0257 80.9674 36.8522 79.6176 35.1809ZM33.3055 42.1084C32.6421 42.1084 32.1042 42.6463 32.1042 43.3097V44.5873C32.1042 45.2507 32.6421 45.7886 33.3055 45.7886C33.969 45.7886 34.5068 45.2507 34.5068 44.5873V43.3097C34.5068 42.6461 33.969 42.1084 33.3055 42.1084Z" fill="black"/>
</g>
</svg>
