<svg width="48" height="49" viewBox="0 0 48 49" fill="none" xmlns="http://www.w3.org/2000/svg">
<path d="M16.7063 18.4985H30.7688C30.918 18.4985 31.0611 18.4393 31.1666 18.3338C31.272 18.2283 31.3313 18.0852 31.3313 17.936C31.3313 17.7869 31.272 17.6438 31.1666 17.5383C31.0611 17.4328 30.918 17.3735 30.7688 17.3735H16.7063C16.5571 17.3735 16.414 17.4328 16.3086 17.5383C16.2031 17.6438 16.1438 17.7869 16.1438 17.936C16.1438 18.0852 16.2031 18.2283 16.3086 18.3338C16.414 18.4393 16.5571 18.4985 16.7063 18.4985V18.4985Z" fill="#FECC2F"/>
<path d="M11.0262 17.8316L9.77645 19.0265L9.26954 18.5196C9.21757 18.4662 9.15551 18.4236 9.08696 18.3944C9.01842 18.3652 8.94475 18.3499 8.87024 18.3494C8.79573 18.3489 8.72186 18.3632 8.65293 18.3915C8.584 18.4198 8.52137 18.4615 8.46868 18.5142C8.416 18.5669 8.37431 18.6295 8.34603 18.6984C8.31776 18.7674 8.30346 18.8412 8.30397 18.9158C8.30448 18.9903 8.31979 19.0639 8.349 19.1325C8.37822 19.201 8.42077 19.2631 8.47417 19.315L9.36995 20.2109C9.47389 20.3149 9.6144 20.374 9.76138 20.3756C9.90837 20.3773 10.0502 20.3213 10.1564 20.2197L11.8037 18.6447C11.8576 18.5938 11.9009 18.5327 11.9311 18.465C11.9613 18.3973 11.9778 18.3243 11.9797 18.2501C11.9816 18.176 11.9688 18.1022 11.9421 18.0331C11.9154 17.9639 11.8752 17.9007 11.824 17.8471C11.7727 17.7935 11.7114 17.7506 11.6435 17.7208C11.5756 17.691 11.5025 17.6749 11.4283 17.6734C11.3542 17.672 11.2805 17.6852 11.2115 17.7124C11.1425 17.7395 11.0795 17.7801 11.0262 17.8316V17.8316Z" fill="#FECC2F"/>
<path d="M10.1439 15.208C9.38879 15.208 8.65068 15.4319 8.02286 15.8514C7.39504 16.2709 6.90572 16.8672 6.61677 17.5648C6.32782 18.2623 6.25222 19.03 6.39954 19.7705C6.54685 20.5111 6.91046 21.1913 7.44438 21.7252C7.9783 22.2591 8.65856 22.6227 9.39912 22.77C10.1397 22.9173 10.9073 22.8417 11.6049 22.5528C12.3025 22.2638 12.8987 21.7744 13.3182 21.1466C13.7377 20.5188 13.9616 19.7807 13.9615 19.0256C13.9604 18.0134 13.5578 17.0431 12.8421 16.3274C12.1264 15.6117 11.156 15.2091 10.1439 15.208V15.208ZM10.1439 21.7183C9.6113 21.7183 9.09069 21.5604 8.64788 21.2645C8.20507 20.9686 7.85995 20.5481 7.65614 20.056C7.45234 19.564 7.39901 19.0226 7.50291 18.5003C7.60681 17.978 7.86326 17.4982 8.23984 17.1216C8.61642 16.745 9.09621 16.4886 9.61854 16.3847C10.1409 16.2808 10.6823 16.3341 11.1743 16.5379C11.6663 16.7417 12.0869 17.0868 12.3827 17.5296C12.6786 17.9724 12.8365 18.493 12.8365 19.0256C12.8359 19.7396 12.5519 20.4241 12.0471 20.929C11.5423 21.4339 10.8578 21.7179 10.1439 21.7187V21.7183Z" fill="#FECC2F"/>
<path d="M16.7063 27.8735H30.7688C30.918 27.8735 31.0611 27.8143 31.1666 27.7088C31.272 27.6033 31.3313 27.4602 31.3313 27.311C31.3313 27.1619 31.272 27.0188 31.1666 26.9133C31.0611 26.8078 30.918 26.7485 30.7688 26.7485H16.7063C16.5571 26.7485 16.414 26.8078 16.3086 26.9133C16.2031 27.0188 16.1438 27.1619 16.1438 27.311C16.1438 27.4602 16.2031 27.6033 16.3086 27.7088C16.414 27.8143 16.5571 27.8735 16.7063 27.8735V27.8735Z" fill="#FECC2F"/>
<path d="M11.0262 27.2066L9.77645 28.4015L9.26954 27.8946C9.21757 27.8412 9.15551 27.7986 9.08696 27.7694C9.01842 27.7402 8.94475 27.7249 8.87024 27.7244C8.79573 27.7239 8.72186 27.7382 8.65293 27.7665C8.584 27.7948 8.52137 27.8365 8.46868 27.8892C8.416 27.9419 8.37431 28.0045 8.34603 28.0734C8.31776 28.1424 8.30346 28.2163 8.30397 28.2908C8.30448 28.3653 8.31979 28.4389 8.349 28.5075C8.37822 28.576 8.42077 28.6381 8.47417 28.69L9.36995 29.5859C9.47389 29.6899 9.6144 29.749 9.76138 29.7506C9.90837 29.7523 10.0502 29.6963 10.1564 29.5947L11.8037 28.0197C11.8576 27.9688 11.9009 27.9077 11.9311 27.84C11.9613 27.7723 11.9778 27.6993 11.9797 27.6251C11.9816 27.551 11.9688 27.4772 11.9421 27.4081C11.9154 27.3389 11.8752 27.2757 11.824 27.2221C11.7727 27.1685 11.7114 27.1256 11.6435 27.0958C11.5756 27.066 11.5025 27.0499 11.4283 27.0484C11.3542 27.047 11.2805 27.0602 11.2115 27.0874C11.1425 27.1145 11.0795 27.1551 11.0262 27.2066V27.2066Z" fill="#FECC2F"/>
<path d="M10.1439 24.583C9.38879 24.583 8.65068 24.8069 8.02286 25.2264C7.39504 25.6459 6.90572 26.2422 6.61677 26.9398C6.32782 27.6374 6.25222 28.405 6.39954 29.1455C6.54685 29.8861 6.91046 30.5663 7.44438 31.1002C7.9783 31.6342 8.65856 31.9977 9.39912 32.145C10.1397 32.2923 10.9073 32.2167 11.6049 31.9278C12.3025 31.6388 12.8987 31.1495 13.3182 30.5216C13.7377 29.8938 13.9616 29.1557 13.9615 28.4006C13.9604 27.3884 13.5578 26.4181 12.8421 25.7024C12.1264 24.9867 11.156 24.5841 10.1439 24.583V24.583ZM10.1439 31.0933C9.6113 31.0933 9.09069 30.9354 8.64788 30.6395C8.20507 30.3436 7.85995 29.9231 7.65614 29.431C7.45234 28.939 7.39901 28.3976 7.50291 27.8753C7.60681 27.353 7.86326 26.8732 8.23984 26.4966C8.61642 26.12 9.09621 25.8636 9.61854 25.7597C10.1409 25.6558 10.6823 25.7091 11.1743 25.9129C11.6663 26.1167 12.0869 26.4618 12.3827 26.9046C12.6786 27.3474 12.8365 27.868 12.8365 28.4006C12.8359 29.1146 12.5519 29.7991 12.0471 30.304C11.5423 30.8089 10.8578 31.0929 10.1439 31.0937V31.0933Z" fill="#FECC2F"/>
<path d="M11.0262 36.5816L9.77645 37.7765L9.26954 37.2696C9.21757 37.2162 9.15551 37.1736 9.08696 37.1444C9.01842 37.1152 8.94475 37.0999 8.87024 37.0994C8.79573 37.0989 8.72186 37.1132 8.65293 37.1415C8.584 37.1698 8.52137 37.2115 8.46868 37.2642C8.416 37.3169 8.37431 37.3795 8.34603 37.4484C8.31776 37.5174 8.30346 37.5913 8.30397 37.6658C8.30448 37.7403 8.31979 37.8139 8.349 37.8825C8.37822 37.951 8.42077 38.0131 8.47417 38.065L9.36995 38.9609C9.47389 39.0649 9.6144 39.124 9.76138 39.1256C9.90837 39.1273 10.0502 39.0713 10.1564 38.9697L11.8037 37.3947C11.8576 37.3438 11.9009 37.2827 11.9311 37.215C11.9613 37.1473 11.9778 37.0743 11.9797 37.0001C11.9816 36.926 11.9688 36.8522 11.9421 36.7831C11.9154 36.7139 11.8752 36.6507 11.824 36.5971C11.7727 36.5435 11.7114 36.5006 11.6435 36.4708C11.5756 36.441 11.5025 36.4249 11.4283 36.4234C11.3542 36.422 11.2805 36.4352 11.2115 36.4624C11.1425 36.4895 11.0795 36.5301 11.0262 36.5816V36.5816Z" fill="#FECC2F"/>
<path d="M10.1439 33.958C9.38879 33.958 8.65068 34.1819 8.02286 34.6014C7.39504 35.0209 6.90572 35.6172 6.61677 36.3148C6.32782 37.0123 6.25222 37.78 6.39954 38.5205C6.54685 39.2611 6.91046 39.9413 7.44438 40.4752C7.9783 41.0092 8.65856 41.3727 9.39912 41.52C10.1397 41.6673 10.9073 41.5917 11.6049 41.3028C12.3025 41.0138 12.8987 40.5244 13.3182 39.8966C13.7377 39.2688 13.9616 38.5307 13.9615 37.7756C13.9604 36.7634 13.5578 35.7931 12.8421 35.0774C12.1264 34.3617 11.156 33.9591 10.1439 33.958V33.958ZM10.1439 40.4683C9.6113 40.4683 9.09069 40.3104 8.64788 40.0145C8.20507 39.7186 7.85995 39.2981 7.65614 38.806C7.45234 38.314 7.39901 37.7726 7.50291 37.2503C7.60681 36.728 7.86326 36.2482 8.23984 35.8716C8.61642 35.495 9.09621 35.2386 9.61854 35.1347C10.1409 35.0308 10.6823 35.0841 11.1743 35.2879C11.6663 35.4917 12.0869 35.8368 12.3827 36.2796C12.6786 36.7224 12.8365 37.243 12.8365 37.7756C12.8359 38.4896 12.5519 39.1741 12.0471 39.679C11.5423 40.1839 10.8578 40.4679 10.1439 40.4687V40.4683Z" fill="#FECC2F"/>
<path d="M16.7063 20.3735H24.2063C24.3555 20.3735 24.4986 20.3143 24.6041 20.2088C24.7095 20.1033 24.7688 19.9602 24.7688 19.811C24.7688 19.6619 24.7095 19.5188 24.6041 19.4133C24.4986 19.3078 24.3555 19.2485 24.2063 19.2485H16.7063C16.5571 19.2485 16.414 19.3078 16.3086 19.4133C16.2031 19.5188 16.1438 19.6619 16.1438 19.811C16.1438 19.9602 16.2031 20.1033 16.3086 20.2088C16.414 20.3143 16.5571 20.3735 16.7063 20.3735V20.3735Z" fill="#FECC2F"/>
<path d="M16.7063 29.7485H24.2063C24.3555 29.7485 24.4986 29.6893 24.6041 29.5838C24.7095 29.4783 24.7688 29.3352 24.7688 29.186C24.7688 29.0369 24.7095 28.8938 24.6041 28.7883C24.4986 28.6828 24.3555 28.6235 24.2063 28.6235H16.7063C16.5571 28.6235 16.414 28.6828 16.3086 28.7883C16.2031 28.8938 16.1438 29.0369 16.1438 29.186C16.1438 29.3352 16.2031 29.4783 16.3086 29.5838C16.414 29.6893 16.5571 29.7485 16.7063 29.7485V29.7485Z" fill="#FECC2F"/>
<path d="M5.53125 9.32031C5.38207 9.32031 5.23899 9.37958 5.1335 9.48507C5.02801 9.59055 4.96875 9.73363 4.96875 9.88281V10.4734C4.96875 10.6226 5.02801 10.7657 5.1335 10.8712C5.23899 10.9767 5.38207 11.0359 5.53125 11.0359C5.68043 11.0359 5.82351 10.9767 5.929 10.8712C6.03449 10.7657 6.09375 10.6226 6.09375 10.4734V9.88281C6.09375 9.73363 6.03449 9.59055 5.929 9.48507C5.82351 9.37958 5.68043 9.32031 5.53125 9.32031V9.32031Z" fill="#FECC2F"/>
<path d="M5.53125 11.6914C5.38207 11.6914 5.23899 11.7507 5.1335 11.8562C5.02801 11.9616 4.96875 12.1047 4.96875 12.2539V17.6914C4.96875 17.8406 5.02801 17.9837 5.1335 18.0892C5.23899 18.1946 5.38207 18.2539 5.53125 18.2539C5.68043 18.2539 5.82351 18.1946 5.929 18.0892C6.03449 17.9837 6.09375 17.8406 6.09375 17.6914V12.2539C6.09375 12.18 6.0792 12.1069 6.05093 12.0386C6.02266 11.9704 5.98123 11.9084 5.929 11.8562C5.87676 11.8039 5.81476 11.7625 5.74651 11.7342C5.67826 11.706 5.60512 11.6914 5.53125 11.6914V11.6914Z" fill="#FECC2F"/>
<path d="M42.8692 25.5954C42.4928 25.5165 42.1046 25.5129 41.7269 25.585C41.3492 25.6571 40.9895 25.8034 40.6687 26.0154L34.875 29.8203V8.71338C34.875 6.85244 33.3457 5.37354 31.4846 5.37354H27.9375V3.62744C27.9375 3.47826 27.8782 3.33518 27.7727 3.22969C27.6673 3.1242 27.5242 3.06494 27.375 3.06494C27.2258 3.06494 27.0827 3.1242 26.9773 3.22969C26.8718 3.33518 26.8125 3.47826 26.8125 3.62744V5.37354H22.0313V3.62744C22.0313 3.47826 21.972 3.33518 21.8665 3.22969C21.761 3.1242 21.6179 3.06494 21.4688 3.06494C21.3196 3.06494 21.1765 3.1242 21.071 3.22969C20.9655 3.33518 20.9063 3.47826 20.9063 3.62744V5.37354H16.2188V3.62744C16.2188 3.47826 16.1595 3.33518 16.054 3.22969C15.9485 3.1242 15.8054 3.06494 15.6563 3.06494C15.5071 3.06494 15.364 3.1242 15.2585 3.22969C15.153 3.33518 15.0938 3.47826 15.0938 3.62744V5.37354H10.3125V3.62744C10.3125 3.47826 10.2532 3.33518 10.1477 3.22969C10.0423 3.1242 9.89919 3.06494 9.75 3.06494C9.60082 3.06494 9.45774 3.1242 9.35226 3.22969C9.24677 3.33518 9.1875 3.47826 9.1875 3.62744V5.37354H6.17213C5.73172 5.37039 5.29506 5.45449 4.88732 5.62097C4.47958 5.78746 4.10885 6.03303 3.79651 6.34353C3.48417 6.65403 3.23641 7.02331 3.06752 7.43005C2.89863 7.8368 2.81196 8.27296 2.8125 8.71338V42.5571C2.8125 44.4182 4.3111 45.9673 6.17213 45.9673H31.4846C33.3457 45.9673 34.875 44.4182 34.875 42.5571V36.8229L43.8831 30.9073C44.3669 30.5895 44.7455 30.1353 44.9712 29.6022C45.1969 29.0692 45.2594 28.4812 45.1509 27.9126C45.0423 27.344 44.7676 26.8204 44.3615 26.4079C43.9553 25.9955 43.436 25.7127 42.8692 25.5954ZM27.3432 8.8961C27.54 8.8961 27.7323 8.95443 27.8958 9.06373C28.0594 9.17303 28.1869 9.32838 28.2622 9.51013C28.3375 9.69189 28.3572 9.89189 28.3188 10.0848C28.2804 10.2778 28.1857 10.455 28.0466 10.5941C27.9075 10.7332 27.7302 10.828 27.5373 10.8664C27.3443 10.9047 27.1443 10.885 26.9626 10.8098C26.7808 10.7345 26.6255 10.607 26.5162 10.4434C26.4069 10.2798 26.3485 10.0875 26.3485 9.89078C26.3488 9.62706 26.4537 9.37422 26.6402 9.18774C26.8267 9.00126 27.0795 8.89637 27.3432 8.8961V8.8961ZM21.4817 8.8961C21.6784 8.89612 21.8707 8.95447 22.0343 9.06378C22.1978 9.17309 22.3253 9.32844 22.4006 9.5102C22.4759 9.69196 22.4955 9.89195 22.4572 10.0849C22.4188 10.2778 22.324 10.4551 22.1849 10.5942C22.0458 10.7333 21.8686 10.828 21.6756 10.8664C21.4827 10.9047 21.2827 10.885 21.1009 10.8097C20.9192 10.7345 20.7638 10.607 20.6545 10.4434C20.5452 10.2798 20.4869 10.0875 20.4869 9.89078C20.4872 9.62705 20.5921 9.37421 20.7786 9.18773C20.9651 9.00125 21.218 8.89637 21.4817 8.8961V8.8961ZM15.62 8.8961C15.8167 8.89615 16.009 8.95454 16.1725 9.06387C16.3361 9.1732 16.4635 9.32857 16.5387 9.51033C16.614 9.69209 16.6336 9.89208 16.5952 10.085C16.5568 10.2779 16.4621 10.4552 16.3229 10.5942C16.1838 10.7333 16.0066 10.828 15.8136 10.8664C15.6207 10.9047 15.4207 10.885 15.239 10.8097C15.0572 10.7344 14.9019 10.6069 14.7926 10.4434C14.6833 10.2798 14.625 10.0875 14.625 9.89078C14.6253 9.62702 14.7302 9.37415 14.9168 9.18766C15.1033 9.00118 15.3562 8.89632 15.62 8.8961ZM9.75844 8.8961C9.95517 8.89612 10.1475 8.95447 10.311 9.06378C10.4746 9.17309 10.6021 9.32844 10.6773 9.5102C10.7526 9.69196 10.7723 9.89195 10.7339 10.0849C10.6955 10.2778 10.6008 10.4551 10.4617 10.5942C10.3225 10.7333 10.1453 10.828 9.95237 10.8664C9.75942 10.9047 9.55942 10.885 9.37767 10.8097C9.19592 10.7345 9.04058 10.607 8.93129 10.4434C8.82199 10.2798 8.76366 10.0875 8.76366 9.89078C8.76396 9.62705 8.86886 9.37421 9.05536 9.18773C9.24185 9.00125 9.49471 8.89637 9.75844 8.8961V8.8961ZM33.75 42.5571C33.7472 43.1589 33.5083 43.7355 33.0846 44.1629C32.6609 44.5903 32.0864 44.8343 31.4846 44.8423H6.17213C4.93125 44.8423 3.9375 43.7978 3.9375 42.5571V8.71338C3.9368 8.42065 3.99427 8.13071 4.10657 7.86038C4.21886 7.59005 4.38375 7.34473 4.59166 7.13867C4.79957 6.9326 5.04634 6.7699 5.31766 6.66001C5.58898 6.55012 5.87942 6.49523 6.17213 6.49854H9.1875V7.84741C8.34375 8.09454 7.63453 8.91672 7.63453 9.89116C7.63453 10.1695 7.68935 10.445 7.79585 10.7022C7.90235 10.9593 8.05845 11.1929 8.25524 11.3897C8.45203 11.5865 8.68565 11.7426 8.94276 11.8491C9.19988 11.9556 9.47545 12.0104 9.75375 12.0104C10.0321 12.0104 10.3076 11.9556 10.5647 11.8491C10.8219 11.7426 11.0555 11.5865 11.2523 11.3897C11.4491 11.1929 11.6052 10.9593 11.7117 10.7022C11.8182 10.445 11.873 10.1695 11.873 9.89116C11.8796 9.42488 11.7294 8.96988 11.4464 8.59924C11.1634 8.2286 10.7641 7.96381 10.3125 7.84741V6.49854H15.0938V7.84741C14.6406 7.96312 14.2393 8.22726 13.9538 8.5977C13.6684 8.96813 13.5152 9.42351 13.5188 9.89116C13.5188 10.4539 13.7423 10.9937 14.1403 11.3916C14.5382 11.7895 15.0779 12.0131 15.6407 12.0131C16.2035 12.0131 16.7432 11.7895 17.1411 11.3916C17.5391 10.9937 17.7626 10.4539 17.7626 9.89116C17.7546 9.43097 17.6009 8.98518 17.3234 8.61792C17.046 8.25067 16.6592 7.9809 16.2188 7.84741V6.49854H20.9063V7.84741C20.0625 8.09454 19.3555 8.91672 19.3555 9.89116C19.3555 10.4531 19.5788 10.992 19.9761 11.3893C20.3734 11.7867 20.9124 12.0099 21.4743 12.0099C22.0362 12.0099 22.5751 11.7867 22.9725 11.3893C23.3698 10.992 23.593 10.4531 23.593 9.89116C23.5994 9.42476 23.4489 8.96975 23.1657 8.59914C22.8824 8.22852 22.4829 7.96379 22.0313 7.84741V6.49854H26.8125V7.84741C26.3595 7.96314 25.9584 8.22735 25.6733 8.59783C25.3881 8.9683 25.2354 9.42367 25.2395 9.89116C25.2395 10.4539 25.463 10.9935 25.8609 11.3914C26.2588 11.7893 26.7984 12.0128 27.3611 12.0128C27.9238 12.0128 28.4635 11.7893 28.8614 11.3914C29.2592 10.9935 29.4828 10.4539 29.4828 9.89116C29.4828 8.9171 28.7813 8.09491 27.9375 7.84741V6.49854H31.4846C32.7252 6.49854 33.75 7.47279 33.75 8.71338V30.5591L31.6372 31.9466C31.5723 31.9893 31.5169 32.0449 31.4746 32.11C31.4322 32.1751 31.4038 32.2483 31.3911 32.3249C31.3785 32.4015 31.3818 32.4799 31.4009 32.5552C31.42 32.6304 31.4545 32.7009 31.5022 32.7622V32.7622C31.5891 32.8737 31.7147 32.9484 31.8542 32.9714C31.9936 32.9945 32.1366 32.9642 32.2547 32.8866L40.6189 27.3939L41.2992 28.4295L27.1283 37.736L26.4477 36.7004L29.1102 34.9522C29.172 34.9117 29.2251 34.8594 29.2667 34.7983C29.3082 34.7372 29.3373 34.6685 29.3523 34.5962C29.3673 34.5238 29.3679 34.4493 29.354 34.3767C29.3402 34.3041 29.3122 34.235 29.2717 34.1733C29.2311 34.1115 29.1788 34.0583 29.1177 34.0168C29.0566 33.9753 28.9879 33.9462 28.9156 33.9312C28.8433 33.9162 28.7687 33.9156 28.6961 33.9294C28.6236 33.9433 28.5544 33.9713 28.4927 34.0118L25.3625 36.0673C25.3568 36.0711 25.3515 36.0759 25.3457 36.0799C25.3314 36.0901 25.3176 36.1002 25.3039 36.1116C25.2994 36.1154 25.2954 36.1197 25.2912 36.1236H16.7063C16.5571 36.1236 16.414 36.1829 16.3085 36.2884C16.203 36.3939 16.1438 36.5369 16.1438 36.6861C16.1438 36.8353 16.203 36.9784 16.3085 37.0839C16.414 37.1894 16.5571 37.2486 16.7063 37.2486H24.6572L24.2588 38.0013C24.2415 37.9997 24.2241 37.9986 24.2063 37.9986H16.7063C16.5571 37.9986 16.414 38.0579 16.3085 38.1634C16.203 38.2689 16.1438 38.4119 16.1438 38.5611C16.1438 38.7103 16.203 38.8534 16.3085 38.9589C16.414 39.0644 16.5571 39.1236 16.7063 39.1236H23.6648L23.0145 40.3522C22.9691 40.4379 22.9467 40.5339 22.9494 40.6308C22.952 40.7277 22.9797 40.8223 23.0297 40.9054C23.0797 40.9885 23.1503 41.0572 23.2347 41.105C23.3191 41.1527 23.4144 41.1778 23.5114 41.1779C23.5163 41.1779 23.5213 41.1779 23.5262 41.1779L28.28 41.0533C28.2915 41.0533 28.3028 41.051 28.3143 41.0501C28.3257 41.0492 28.3388 41.0485 28.3509 41.0466C28.3658 41.0444 28.3803 41.0405 28.3947 41.0373C28.4054 41.0347 28.4162 41.0329 28.4269 41.0298C28.4514 41.0224 28.4755 41.0133 28.4988 41.0027C28.5045 41.0001 28.5098 40.9966 28.5155 40.9933C28.5337 40.9844 28.5514 40.9746 28.5685 40.9638C28.5704 40.9626 28.5724 40.962 28.5741 40.9608L33.75 37.5618V42.5571ZM27.2401 39.9549L24.4588 40.0278L25.7209 37.6429L27.2401 39.9549ZM28.4265 39.7118L28.3833 39.6462L27.7458 38.6764L41.9167 29.3703L42.5972 30.4058L28.4265 39.7118ZM43.5215 29.7631L41.5756 26.8016C41.8153 26.7008 42.074 26.6526 42.3339 26.6605C42.5939 26.6683 42.8492 26.7319 43.0824 26.847C43.2175 26.912 43.3429 26.9956 43.4549 27.0953C43.6445 27.26 43.7976 27.4623 43.9046 27.6894C44.0117 27.9166 44.0702 28.1635 44.0764 28.4145C44.0827 28.6655 44.0366 28.9151 43.941 29.1473C43.8455 29.3794 43.7026 29.5892 43.5215 29.7631V29.7631Z" fill="#FECC2F"/>
</svg>
