<svg width="73" height="73" viewBox="0 0 73 73" fill="none" xmlns="http://www.w3.org/2000/svg">
<path d="M8.4 6.03545C8.4 6.69815 7.8627 7.23545 7.2 7.23545C6.53731 7.23545 6 6.69815 6 6.03545C6 5.37275 6.53731 4.83545 7.2 4.83545C7.8627 4.83545 8.4 5.37275 8.4 6.03545Z" fill="#333333"/>
<path d="M13.2003 6.03545C13.2003 6.69815 12.663 7.23545 12.0003 7.23545C11.3376 7.23545 10.8003 6.69815 10.8003 6.03545C10.8003 5.37275 11.3376 4.83545 12.0003 4.83545C12.663 4.83545 13.2003 5.37275 13.2003 6.03545Z" fill="#333333"/>
<path d="M18.0001 6.03545C18.0001 6.69815 17.4628 7.23545 16.8001 7.23545C16.1374 7.23545 15.6001 6.69815 15.6001 6.03545C15.6001 5.37275 16.1374 4.83545 16.8001 4.83545C17.4628 4.83545 18.0001 5.37275 18.0001 6.03545Z" fill="#333333"/>
<path d="M25.2 4.83545C24.5373 4.83545 24 5.37275 24 6.03545C24 6.69815 24.5373 7.23545 25.2 7.23545H55.2C55.8627 7.23545 56.4001 6.69815 56.4001 6.03545C56.4001 5.37275 55.8627 4.83545 55.2 4.83545H25.2Z" fill="#231F20"/>
<path d="M17.3039 58.8357H2.4V12.0357H55.2001C55.8628 12.0357 56.4001 11.4984 56.4001 10.8357C56.4001 10.173 55.8628 9.63566 55.2001 9.63566H2.4V2.43565H58.8001V17.3396C58.8001 18.0023 59.3374 18.5396 60.0001 18.5396C60.6628 18.5396 61.2001 18.0023 61.2001 17.3396V1.23565C61.2001 0.57295 60.6628 0.0356445 60.0001 0.0356445H1.2C0.537305 0.0356445 0 0.57295 0 1.23565V60.0357C0 60.6984 0.537305 61.2357 1.2 61.2357H17.3039C17.9666 61.2357 18.5039 60.6984 18.5039 60.0357C18.5039 59.373 17.9666 58.8357 17.3039 58.8357Z" fill="#231F20"/>
<path d="M71.6522 66.5874L65.0522 60.0354L68.9165 57.4555C69.3143 57.1954 69.5218 56.7249 69.4444 56.2555C69.3641 55.788 69.0161 55.4118 68.5561 55.2952L52.4405 51.0114C52.028 50.9042 51.5903 51.0231 51.2891 51.3243C50.988 51.6255 50.869 52.0631 50.9762 52.4756L55.2003 68.5913C55.3169 69.0513 55.693 69.3993 56.16 69.4796C56.6294 69.5569 57.1005 69.3495 57.36 68.9516L60.0003 65.0874L66.6003 71.6874C66.8265 71.9118 67.1335 72.0372 67.4522 72.0354C67.771 72.0372 68.078 71.9118 68.3042 71.6874L71.7003 68.2913C71.9212 68.0599 72.0407 67.7493 72.0313 67.4294C72.0226 67.1095 71.886 66.8065 71.6522 66.5874ZM67.4042 69.1433L60.612 62.3516C60.3887 62.1296 60.087 62.0048 59.7723 62.0036H59.6522C59.296 62.0399 58.9749 62.2333 58.7762 62.5315L56.8561 65.3997L53.8204 53.8555L65.3645 56.8913L62.4964 58.8354C62.1981 59.0341 62.0048 59.3552 61.9684 59.7114C61.9356 60.0671 62.0634 60.4192 62.3165 60.6712L69.1081 67.4634L67.4042 69.1433Z" fill="#231F20"/>
<path d="M49.872 63.0473C47.3689 64.0868 44.7064 64.6915 41.9999 64.8356V54.0356C43.7742 54.0772 45.5449 54.2172 47.3039 54.4557C47.9666 54.5483 48.5794 54.0866 48.672 53.4239C48.7646 52.7606 48.3029 52.1483 47.6402 52.0557C45.7693 51.8108 43.8861 51.6707 41.9999 51.6356V42.0356H54C53.939 43.9176 53.755 45.7938 53.448 47.6518C53.3384 48.3145 53.7873 48.9403 54.45 49.0498C55.1127 49.1588 55.7384 48.7106 55.848 48.0473C56.1668 46.058 56.3513 44.0494 56.4 42.0356H64.8C64.6752 44.7385 64.091 47.4004 63.072 49.9077C62.8236 50.517 63.1125 51.2137 63.7201 51.4674C63.8642 51.529 64.0189 51.5618 64.1759 51.5635C64.6676 51.5641 65.1099 51.2647 65.2922 50.8077C66.5736 47.6401 67.2217 44.2522 67.2 40.8356C67.2029 34.641 65.0185 28.6445 61.0318 23.9037C56.0214 17.9096 48.6128 14.4426 40.7999 14.4355H39.9357C34.1085 14.6266 28.5064 16.7359 23.9999 20.4356C23.4861 20.8563 23.411 21.6139 23.8318 22.1277C24.253 22.641 25.0101 22.7166 25.5239 22.2953C27.6087 20.5803 29.9648 19.2256 32.496 18.2875C30.4945 20.4654 28.923 23.002 27.8642 25.7635C25.8181 25.1828 23.8136 24.4656 21.8642 23.6154C21.3884 23.4145 20.837 23.5399 20.496 23.9277C20.496 23.9277 20.4357 23.9277 20.4116 23.9998C16.5292 28.7371 14.4087 34.6744 14.4116 40.7998C14.4122 46.937 16.5603 52.8801 20.4837 57.5999L20.5681 57.6954C25.5585 63.7247 32.973 67.221 40.7999 67.2356C44.2206 67.238 47.6085 66.5694 50.772 65.2674C51.1951 65.1256 51.5044 64.7606 51.5748 64.32C51.6457 63.8794 51.4658 63.4358 51.1084 63.1686C50.7509 62.9014 50.2746 62.8551 49.872 63.0473ZM39.5999 64.7278C35.772 64.1155 32.3999 60.5278 30.2279 55.2473C33.3023 54.5243 36.4429 54.1176 39.5999 54.0356V64.7278ZM39.5999 51.6356C36.1593 51.7065 32.7357 52.1448 29.3882 52.9434C28.2825 49.4096 27.6802 45.7375 27.5999 42.0356H39.5999V51.6356ZM16.8597 42.0356H25.1999C25.2749 45.9608 25.9054 49.8549 27.072 53.6038C25.2937 54.1229 23.547 54.744 21.8401 55.4635C18.8425 51.604 17.104 46.9164 16.8597 42.0356ZM51.3 26.4356C48.2484 27.1492 45.1324 27.5512 41.9999 27.6356V16.9557C45.7921 17.5914 49.1279 21.1914 51.3 26.4356ZM39.5999 39.6356H27.5999C27.6749 35.9201 28.2814 32.2352 29.3999 28.6914C32.7421 29.5018 36.1617 29.9524 39.5999 30.0356V39.6356ZM41.9999 30.0356C45.4124 29.9623 48.8074 29.5276 52.1279 28.7395C53.2423 32.2674 53.8482 35.9366 53.9279 39.6356H41.9999V30.0356ZM64.8 39.6356H56.4C56.3285 35.7151 55.7021 31.8244 54.5402 28.0797C56.3437 27.5617 58.115 26.9365 59.8441 26.2076C62.833 30.0701 64.5627 34.7576 64.8 39.6356ZM58.2 24.2875C56.7357 24.8764 55.2416 25.3891 53.724 25.8238C52.6716 23.0424 51.0908 20.4912 49.0681 18.3115C52.507 19.5883 55.6095 21.632 58.1402 24.2875H58.2ZM39.5999 16.9434V27.6356C36.4429 27.557 33.3029 27.1551 30.2279 26.4356C32.3999 21.1434 35.772 17.5557 39.5999 16.9434ZM25.1999 39.6356H16.7999C17.0478 34.7594 18.7769 30.0754 21.7558 26.2076C23.4667 26.9272 25.2181 27.5483 26.9999 28.0674C25.8556 31.8192 25.2497 35.7139 25.1999 39.6356ZM23.4597 57.3836C24.9011 56.8047 26.3712 56.3002 27.8642 55.8713C28.9195 58.6188 30.4827 61.143 32.472 63.3116C29.0554 62.0483 25.9728 60.0204 23.4597 57.3836Z" fill="#231F20"/>
<path d="M68.4961 29.2915C68.6801 29.7397 69.1155 30.0333 69.6 30.0356C69.7576 30.0397 69.9135 30.0069 70.0559 29.9395C70.6635 29.6852 70.9524 28.9891 70.7039 28.3797C69.4688 25.3938 67.7854 22.6141 65.7117 20.1356C65.2717 19.7418 64.6102 19.7272 64.1526 20.1004C63.6955 20.4743 63.5778 21.1258 63.876 21.6356C65.7938 23.9395 67.3518 26.5211 68.4961 29.2915Z" fill="#231F20"/>
<path d="M15.8759 20.1361C11.0448 25.9527 8.40049 33.2752 8.3999 40.8361C8.3999 41.4988 8.93721 42.0361 9.5999 42.0361C10.2626 42.0361 10.7999 41.4988 10.7999 40.8361C10.7929 33.8236 13.2427 27.0302 17.7239 21.6361C18.1482 21.1257 18.0784 20.3681 17.5681 19.9439C17.0577 19.5197 16.3001 19.59 15.8759 20.1003V20.1361Z" fill="#231F20"/>
</svg>
