<svg width="82" height="82" viewBox="0 0 82 82" fill="none" xmlns="http://www.w3.org/2000/svg">
<path d="M76.6075 10.9561H5.39246C2.41916 10.9561 0 13.3752 0 16.3485V65.6512C0 68.6246 2.41916 71.0436 5.39246 71.0436H76.6075C79.581 71.0436 82 68.6245 82 65.6512V16.3485C82 13.3752 79.5808 10.9561 76.6075 10.9561ZM19.1733 68.4759H5.39246C3.83494 68.4759 2.56779 67.2087 2.56779 65.6512V16.3485C2.56779 14.791 3.83494 13.5238 5.39246 13.5238H19.1733V68.4759ZM79.4322 65.6513C79.4322 67.2089 78.1651 68.476 76.6075 68.476H21.7412V13.524H76.6075C78.1651 13.524 79.4322 14.7912 79.4322 16.3487V65.6513Z" fill="black"/>
<path d="M31.4135 16.4341H25.9353C25.2263 16.4341 24.6514 17.0089 24.6514 17.7181C24.6514 18.4272 25.2262 19.002 25.9353 19.002H31.4135C32.1225 19.002 32.6975 18.4272 32.6975 17.7181C32.6975 17.0089 32.1225 16.4341 31.4135 16.4341Z" fill="black"/>
<path d="M14.9791 16.4341H6.762C6.05299 16.4341 5.47803 17.0089 5.47803 17.7181C5.47803 18.4272 6.05283 19.002 6.762 19.002H14.9791C15.6881 19.002 16.2631 18.4272 16.2631 17.7181C16.2631 17.0089 15.6883 16.4341 14.9791 16.4341Z" fill="black"/>
<path d="M14.9791 30.1294H6.762C6.05299 30.1294 5.47803 30.7042 5.47803 31.4134C5.47803 32.1225 6.05283 32.6973 6.762 32.6973H14.9791C15.6881 32.6973 16.2631 32.1225 16.2631 31.4134C16.2631 30.7042 15.6883 30.1294 14.9791 30.1294Z" fill="black"/>
<path d="M14.9791 41.0854H6.762C6.05299 41.0854 5.47803 41.6602 5.47803 42.3694C5.47803 43.0786 6.05283 43.6534 6.762 43.6534H14.9791C15.6881 43.6534 16.2631 43.0786 16.2631 42.3694C16.2631 41.6602 15.6883 41.0854 14.9791 41.0854Z" fill="black"/>
<path d="M14.9791 52.0415H6.762C6.05299 52.0415 5.47803 52.6163 5.47803 53.3255C5.47803 54.0346 6.05283 54.6094 6.762 54.6094H14.9791C15.6881 54.6094 16.2631 54.0346 16.2631 53.3255C16.2631 52.6163 15.6883 52.0415 14.9791 52.0415Z" fill="black"/>
<path d="M14.9791 35.6074H6.762C6.05299 35.6074 5.47803 36.1822 5.47803 36.8914C5.47803 37.6006 6.05283 38.1754 6.762 38.1754H14.9791C15.6881 38.1754 16.2631 37.6006 16.2631 36.8914C16.2631 36.1822 15.6883 35.6074 14.9791 35.6074Z" fill="black"/>
<path d="M14.9791 46.5635H6.762C6.05299 46.5635 5.47803 47.1383 5.47803 47.8474C5.47803 48.5566 6.05283 49.1314 6.762 49.1314H14.9791C15.6881 49.1314 16.2631 48.5566 16.2631 47.8474C16.2631 47.1383 15.6883 46.5635 14.9791 46.5635Z" fill="black"/>
<path d="M12.2401 60.2588H6.762C6.05299 60.2588 5.47803 60.8336 5.47803 61.5428C5.47803 62.2518 6.05283 62.8267 6.762 62.8267H12.2401C12.9492 62.8267 13.5241 62.2519 13.5241 61.5428C13.5241 60.8336 12.9492 60.2588 12.2401 60.2588Z" fill="black"/>
<path d="M12.2401 21.9121H6.762C6.05299 21.9121 5.47803 22.4869 5.47803 23.1961C5.47803 23.9053 6.05283 24.4801 6.762 24.4801H12.2401C12.9492 24.4801 13.5241 23.9053 13.5241 23.1961C13.5241 22.4869 12.9492 21.9121 12.2401 21.9121Z" fill="black"/>
<path d="M42.3695 16.4341H36.8914C36.1824 16.4341 35.6074 17.0089 35.6074 17.7181C35.6074 18.4272 36.1822 19.002 36.8914 19.002H42.3695C43.0785 19.002 43.6535 18.4272 43.6535 17.7181C43.6535 17.0089 43.0787 16.4341 42.3695 16.4341Z" fill="black"/>
<path d="M53.3256 16.4341H47.8474C47.1384 16.4341 46.5635 17.0089 46.5635 17.7181C46.5635 18.4272 47.1383 19.002 47.8474 19.002H53.3256C54.0346 19.002 54.6096 18.4272 54.6096 17.7181C54.6096 17.0089 54.0348 16.4341 53.3256 16.4341Z" fill="black"/>
<path d="M64.2821 16.4341H58.804C58.095 16.4341 57.52 17.0089 57.52 17.7181C57.52 18.4272 58.0948 19.002 58.804 19.002H64.2821C64.9911 19.002 65.5661 18.4272 65.5661 17.7181C65.5661 17.0089 64.9911 16.4341 64.2821 16.4341Z" fill="black"/>
<path d="M75.2377 16.4341H69.7596C69.0505 16.4341 68.4756 17.0089 68.4756 17.7181C68.4756 18.4272 69.0504 19.002 69.7596 19.002H75.2377C75.9467 19.002 76.5217 18.4272 76.5217 17.7181C76.5217 17.0089 75.9467 16.4341 75.2377 16.4341Z" fill="black"/>
<path d="M40.4017 45.4519C39.8348 45.0261 39.0298 45.1404 38.6042 45.7074C37.5414 47.122 35.9186 47.9334 34.1521 47.9334C31.0843 47.9334 28.5885 45.4375 28.5885 42.3697C28.5885 39.3019 31.0843 36.8061 34.1521 36.8061C35.9199 36.8061 37.5436 37.6185 38.6061 39.035C39.0316 39.6021 39.8364 39.7172 40.4035 39.2915C40.9706 38.8658 41.0855 38.0612 40.6601 37.4941C39.1077 35.4249 36.7358 34.2383 34.152 34.2383C29.6684 34.2383 26.0205 37.8862 26.0205 42.3697C26.0205 46.8533 29.6684 50.5012 34.152 50.5012C36.7337 50.5012 39.1046 49.316 40.657 47.2495C41.0832 46.6826 40.9689 45.8778 40.4017 45.4519Z" fill="black"/>
<path d="M53.0678 44.9071C55.5097 44.3931 57.3488 42.2229 57.3488 39.6303C57.3488 36.6568 54.9296 34.2378 51.9563 34.2378H45.1087C44.3997 34.2378 43.8247 34.8126 43.8247 35.5218V49.2169C43.8247 49.9259 44.3995 50.5009 45.1087 50.5009C45.8179 50.5009 46.3927 49.9261 46.3927 49.2169V45.0227H49.9449L53.6682 49.9872C53.9206 50.3236 54.3061 50.5009 54.6964 50.5009C54.9645 50.5009 55.2349 50.4171 55.4658 50.2441C56.0329 49.8188 56.1481 49.0138 55.7226 48.4467L53.0678 44.9071ZM46.3925 42.4551V36.8059H51.9562C53.5137 36.8059 54.7808 38.0731 54.7808 39.6306C54.7808 41.1881 53.5137 42.4553 51.9562 42.4553H46.3925V42.4551Z" fill="black"/>
<path d="M75.146 49.089L73.7765 35.3941C73.7176 34.8055 73.2643 34.3334 72.6786 34.2506C72.0936 34.1676 71.5265 34.4957 71.3069 35.0451L67.0208 45.76L62.7347 35.0451C62.515 34.4959 61.9487 34.1684 61.363 34.2506C60.7773 34.3334 60.324 34.8055 60.2651 35.3941L58.8956 49.0892C58.8251 49.7948 59.3399 50.4239 60.0455 50.4945C60.7504 50.565 61.3801 50.0503 61.4509 49.3446L62.2986 40.868L65.8289 49.6938C66.024 50.1811 66.4958 50.5008 67.021 50.5008C67.5461 50.5008 68.0181 50.1811 68.213 49.6938L71.7433 40.868L72.591 49.3446C72.6573 50.0067 73.2153 50.5008 73.8672 50.5008C73.9099 50.5008 73.953 50.4987 73.9964 50.4942C74.7017 50.4239 75.2165 49.7947 75.146 49.089Z" fill="black"/>
</svg>
