<svg width="73" height="73" viewBox="0 0 73 73" fill="none" xmlns="http://www.w3.org/2000/svg">
<path d="M57.6049 72.8379H54.5501C54.2773 72.8379 54.0156 72.7295 53.8227 72.5366C53.6299 72.3437 53.5215 72.0821 53.5215 71.8093C53.5215 71.5365 53.6299 71.2749 53.8227 71.082C54.0156 70.8891 54.2773 70.7808 54.5501 70.7808H57.6049C57.8777 70.7808 58.1393 70.8891 58.3322 71.082C58.5251 71.2749 58.6335 71.5365 58.6335 71.8093C58.6335 72.0821 58.5251 72.3437 58.3322 72.5366C58.1393 72.7295 57.8777 72.8379 57.6049 72.8379Z" fill="black"/>
<path d="M69.7522 72.8379H64.8048C64.532 72.8379 64.2703 72.7295 64.0774 72.5366C63.8845 72.3437 63.7762 72.0821 63.7762 71.8093C63.7762 71.5365 63.8845 71.2749 64.0774 71.082C64.2703 70.8891 64.532 70.7808 64.8048 70.7808H69.7522C70.025 70.7808 70.2866 70.6724 70.4795 70.4795C70.6724 70.2866 70.7808 70.025 70.7808 69.7522V3.9236C70.7808 3.65081 70.6724 3.38919 70.4795 3.1963C70.2866 3.0034 70.025 2.89503 69.7522 2.89503H3.9236C3.65081 2.89503 3.38919 3.0034 3.1963 3.1963C3.0034 3.38919 2.89503 3.65081 2.89503 3.9236V69.7522C2.89503 70.025 3.0034 70.2866 3.1963 70.4795C3.38919 70.6724 3.65081 70.7808 3.9236 70.7808H37.167C37.4398 70.7808 37.7015 70.8891 37.8943 71.082C38.0872 71.2749 38.1956 71.5365 38.1956 71.8093C38.1956 72.0821 38.0872 72.3437 37.8943 72.5366C37.7015 72.7295 37.4398 72.8379 37.167 72.8379H3.9236C3.10522 72.8379 2.32036 72.5128 1.74168 71.9341C1.16299 71.3554 0.837891 70.5706 0.837891 69.7522V3.9236C0.837891 3.10522 1.16299 2.32036 1.74168 1.74168C2.32036 1.16299 3.10522 0.837891 3.9236 0.837891H69.7522C70.5706 0.837891 71.3554 1.16299 71.9341 1.74168C72.5128 2.32036 72.8379 3.10522 72.8379 3.9236V69.7522C72.8379 70.5706 72.5128 71.3554 71.9341 71.9341C71.3554 72.5128 70.5706 72.8379 69.7522 72.8379Z" fill="black"/>
<path d="M47.3503 72.8379H44.3674C44.0946 72.8379 43.833 72.7295 43.6401 72.5366C43.4472 72.3437 43.3389 72.0821 43.3389 71.8093C43.3389 71.5365 43.4472 71.2749 43.6401 71.082C43.833 70.8891 44.0946 70.7808 44.3674 70.7808H47.3503C47.6231 70.7808 47.8847 70.8891 48.0776 71.082C48.2705 71.2749 48.3789 71.5365 48.3789 71.8093C48.3789 72.0821 48.2705 72.3437 48.0776 72.5366C47.8847 72.7295 47.6231 72.8379 47.3503 72.8379Z" fill="black"/>
<path d="M71.8093 19.3623H1.86646C1.59367 19.3623 1.33205 19.254 1.13915 19.0611C0.946258 18.8682 0.837891 18.6065 0.837891 18.3337C0.837891 18.061 0.946258 17.7993 1.13915 17.6064C1.33205 17.4135 1.59367 17.3052 1.86646 17.3052H71.8093C72.0821 17.3052 72.3437 17.4135 72.5366 17.6064C72.7295 17.7993 72.8379 18.061 72.8379 18.3337C72.8379 18.6065 72.7295 18.8682 72.5366 19.0611C72.3437 19.254 72.0821 19.3623 71.8093 19.3623Z" fill="black"/>
<path d="M63.7193 13.9304C62.9607 13.9302 62.2193 13.705 61.5886 13.2835C60.958 12.8619 60.4666 12.2628 60.1764 11.5619C59.8863 10.861 59.8105 10.0899 59.9586 9.34591C60.1067 8.60196 60.4721 7.91863 61.0085 7.38232C61.545 6.84601 62.2284 6.48081 62.9724 6.3329C63.7164 6.18499 64.4875 6.26101 65.1883 6.55134C65.8891 6.84167 66.4881 7.33329 66.9095 7.96402C67.3309 8.59474 67.5558 9.33627 67.5558 10.0948C67.5548 11.1119 67.1502 12.087 66.4309 12.8061C65.7116 13.5252 64.7364 13.9295 63.7193 13.9304ZM63.7193 8.31642C63.3676 8.31662 63.0239 8.4211 62.7315 8.61664C62.4392 8.81217 62.2114 9.08999 62.077 9.41497C61.9425 9.73995 61.9075 10.0975 61.9762 10.4424C62.0449 10.7873 62.2144 11.1041 62.4632 11.3527C62.7119 11.6013 63.0288 11.7706 63.3737 11.8391C63.7187 11.9077 64.0762 11.8724 64.4011 11.7378C64.726 11.6031 65.0037 11.3752 65.1991 11.0827C65.3944 10.7903 65.4987 10.4465 65.4987 10.0948C65.4982 9.62315 65.3105 9.17097 64.9769 8.83754C64.6432 8.50412 64.191 8.31669 63.7193 8.31642Z" fill="black"/>
<path d="M53.1559 13.9304C52.3973 13.9304 51.6557 13.7054 51.0249 13.284C50.3942 12.8625 49.9026 12.2635 49.6123 11.5626C49.322 10.8618 49.246 10.0906 49.394 9.34654C49.542 8.60252 49.9073 7.91909 50.4437 7.38268C50.9801 6.84627 51.6636 6.48097 52.4076 6.33298C53.1516 6.18498 53.9228 6.26094 54.6237 6.55124C55.3245 6.84155 55.9235 7.33316 56.345 7.96391C56.7664 8.59466 56.9914 9.33622 56.9914 10.0948C56.99 11.1117 56.5855 12.0864 55.8665 12.8055C55.1475 13.5245 54.1727 13.929 53.1559 13.9304ZM53.1559 8.31642C52.8041 8.31642 52.4603 8.42072 52.1678 8.61614C51.8754 8.81155 51.6474 9.0893 51.5128 9.41426C51.3782 9.73922 51.343 10.0968 51.4116 10.4418C51.4802 10.7867 51.6496 11.1036 51.8983 11.3523C52.1471 11.6011 52.4639 11.7704 52.8089 11.8391C53.1539 11.9077 53.5115 11.8725 53.8364 11.7378C54.1614 11.6032 54.4391 11.3753 54.6345 11.0828C54.83 10.7904 54.9343 10.4466 54.9343 10.0948C54.9337 9.62333 54.7462 9.1713 54.4128 8.8379C54.0794 8.50451 53.6274 8.31697 53.1559 8.31642Z" fill="black"/>
<path d="M42.5914 13.9304C41.8328 13.9304 41.0912 13.7054 40.4605 13.284C39.8297 12.8625 39.3381 12.2635 39.0478 11.5626C38.7575 10.8618 38.6816 10.0906 38.8296 9.34654C38.9776 8.60252 39.3429 7.91909 39.8793 7.38268C40.4157 6.84627 41.0991 6.48097 41.8431 6.33298C42.5871 6.18498 43.3583 6.26094 44.0592 6.55124C44.7601 6.84155 45.3591 7.33316 45.7805 7.96391C46.202 8.59466 46.4269 9.33622 46.4269 10.0948C46.4259 11.1117 46.0214 12.0867 45.3023 12.8058C44.5833 13.5248 43.6083 13.9293 42.5914 13.9304ZM42.5914 8.31642C42.2397 8.31642 41.8958 8.42072 41.6034 8.61614C41.3109 8.81155 41.083 9.0893 40.9484 9.41426C40.8138 9.73922 40.7786 10.0968 40.8472 10.4418C40.9158 10.7867 41.0852 11.1036 41.3339 11.3523C41.5826 11.6011 41.8995 11.7704 42.2445 11.8391C42.5894 11.9077 42.947 11.8725 43.272 11.7378C43.5969 11.6032 43.8747 11.3753 44.0701 11.0828C44.2655 10.7904 44.3698 10.4466 44.3698 10.0948C44.3695 9.62324 44.1821 9.17106 43.8486 8.8376C43.5152 8.50415 43.063 8.31669 42.5914 8.31642Z" fill="black"/>
<path d="M32.9489 11.1235H9.20533C8.93254 11.1235 8.67091 11.0152 8.47802 10.8223C8.28513 10.6294 8.17676 10.3678 8.17676 10.095C8.17676 9.82218 8.28513 9.56056 8.47802 9.36767C8.67091 9.17477 8.93254 9.06641 9.20533 9.06641H32.9489C33.2217 9.06641 33.4833 9.17477 33.6762 9.36767C33.8691 9.56056 33.9774 9.82218 33.9774 10.095C33.9774 10.3678 33.8691 10.6294 33.6762 10.8223C33.4833 11.0152 33.2217 11.1235 32.9489 11.1235Z" fill="black"/>
<path d="M38.998 64.8621H34.6914C34.1245 64.8613 33.5811 64.6358 33.1802 64.2349C32.7794 63.8341 32.5538 63.2906 32.553 62.7237V61.1593C31.111 60.7787 29.7271 60.2051 28.4387 59.4539L27.332 60.5596C26.925 60.9488 26.3836 61.1661 25.8205 61.1661C25.2574 61.1661 24.7159 60.9488 24.309 60.5596L21.2665 57.5171C21.0678 57.3187 20.9103 57.0831 20.8028 56.8237C20.6952 56.5644 20.6399 56.2864 20.6399 56.0056C20.6399 55.7249 20.6952 55.4469 20.8028 55.1875C20.9103 54.9282 21.0678 54.6925 21.2665 54.4941L22.3732 53.3874C21.6209 52.0995 21.0469 50.7154 20.6668 49.2731H19.0993C18.5325 49.2723 17.9892 49.0467 17.5885 48.6458C17.1878 48.2449 16.9625 47.7015 16.9619 47.1347V42.8291C16.9625 42.2624 17.1878 41.7191 17.5885 41.3183C17.9893 40.9176 18.5326 40.6923 19.0993 40.6917H20.6637C21.044 39.2496 21.6176 37.8656 22.3691 36.5774L21.2634 35.4707C20.8633 35.0696 20.6386 34.5262 20.6386 33.9597C20.6386 33.3932 20.8633 32.8498 21.2634 32.4488L24.3059 29.4052C24.7131 29.0164 25.2544 28.7995 25.8174 28.7995C26.3804 28.7995 26.9217 29.0164 27.3289 29.4052L28.4356 30.512C29.7234 29.7596 31.1075 29.1858 32.5499 28.8066V27.237C32.5507 26.6702 32.7763 26.1269 33.1772 25.7262C33.5781 25.3255 34.1215 25.1002 34.6883 25.0996H38.998C39.5647 25.1002 40.1081 25.3255 40.5088 25.7262C40.9095 26.1269 41.1349 26.6703 41.1354 27.237V28.8025C42.5778 29.1819 43.9619 29.7556 45.2497 30.5078L46.3564 29.4011C46.7635 29.0121 47.3049 28.795 47.8679 28.795C48.431 28.795 48.9723 29.0121 49.3794 29.4011L52.4219 32.4446C52.8218 32.8458 53.0463 33.3892 53.0463 33.9556C53.0463 34.522 52.8218 35.0654 52.4219 35.4666L51.3152 36.5733C52.0665 37.8616 52.6401 39.2456 53.0205 40.6876H54.585C55.1517 40.6882 55.695 40.9135 56.0957 41.3142C56.4965 41.715 56.7218 42.2583 56.7224 42.825V47.1275C56.7218 47.6943 56.4965 48.2377 56.0958 48.6386C55.6951 49.0395 55.1518 49.2651 54.585 49.2659H53.0216C52.641 50.7079 52.0674 52.0918 51.3162 53.3802L52.4219 54.4869C52.6206 54.6853 52.7781 54.921 52.8856 55.1803C52.9932 55.4397 53.0485 55.7177 53.0485 55.9984C53.0485 56.2792 52.9932 56.5572 52.8856 56.8165C52.7781 57.0759 52.6206 57.3115 52.4219 57.5099L49.3794 60.5524C48.9726 60.9419 48.4311 61.1593 47.8679 61.1593C47.3047 61.1593 46.7633 60.9419 46.3564 60.5524L45.2497 59.4467C43.9613 60.1979 42.5774 60.7715 41.1354 61.1521V62.7165C41.1361 62.9978 41.0813 63.2764 40.9742 63.5365C40.8672 63.7966 40.7099 64.033 40.5114 64.2323C40.3129 64.4316 40.0771 64.5898 39.8174 64.6978C39.5577 64.8059 39.2793 64.8617 38.998 64.8621ZM28.2834 57.1232C28.4828 57.1231 28.6779 57.181 28.845 57.2898C30.3531 58.2747 32.0316 58.9699 33.7945 59.3397C34.0251 59.3885 34.232 59.5151 34.3805 59.6982C34.529 59.8813 34.6101 60.1099 34.6101 60.3457V62.7237C34.6104 62.7452 34.6191 62.7657 34.6342 62.7809C34.6494 62.7961 34.6699 62.8047 34.6914 62.805H38.998C39.0194 62.8047 39.0398 62.796 39.0548 62.7808C39.0698 62.7656 39.0783 62.7451 39.0783 62.7237V60.3457C39.0783 60.1099 39.1594 59.8813 39.3079 59.6982C39.4564 59.5151 39.6633 59.3885 39.8939 59.3397C41.6568 58.9699 43.3353 58.2747 44.8434 57.2898C45.0411 57.161 45.277 57.1042 45.5117 57.1287C45.7463 57.1532 45.9654 57.2577 46.1322 57.4245L47.8139 59.1052C47.8291 59.1202 47.8496 59.1286 47.871 59.1286C47.8924 59.1286 47.9129 59.1202 47.9281 59.1052L50.9706 56.0627C50.9782 56.0552 50.9842 56.0463 50.9883 56.0365C50.9923 56.0267 50.9945 56.0162 50.9945 56.0056C50.9945 55.995 50.9923 55.9845 50.9883 55.9747C50.9842 55.9649 50.9782 55.956 50.9706 55.9485L49.2837 54.2668C49.1169 54.1 49.0124 53.8809 48.9879 53.6463C48.9634 53.4117 49.0202 53.1757 49.149 52.978C50.1339 51.4699 50.8291 49.7914 51.1989 48.0285C51.2477 47.7979 51.3743 47.591 51.5574 47.4425C51.7406 47.294 51.9691 47.2129 52.2049 47.2129H54.5829C54.5936 47.2129 54.6041 47.2108 54.6139 47.2067C54.6237 47.2026 54.6326 47.1966 54.64 47.189C54.6475 47.1814 54.6534 47.1725 54.6574 47.1626C54.6613 47.1528 54.6633 47.1422 54.6632 47.1316V42.8291C54.6632 42.8078 54.6547 42.7874 54.6397 42.7724C54.6246 42.7573 54.6042 42.7489 54.5829 42.7489H52.208C51.9721 42.7487 51.7434 42.6675 51.5602 42.5188C51.3771 42.3701 51.2506 42.163 51.202 41.9322C50.8322 40.1693 50.137 38.4908 49.1521 36.9827C49.0233 36.785 48.9665 36.5491 48.991 36.3144C49.0155 36.0798 49.12 35.8607 49.2868 35.6939L50.9675 34.0122C50.975 34.0048 50.981 33.996 50.9851 33.9863C50.9892 33.9766 50.9913 33.9661 50.9913 33.9556C50.9913 33.9451 50.9892 33.9346 50.9851 33.9249C50.981 33.9152 50.975 33.9064 50.9675 33.899L47.925 30.8555C47.9098 30.8405 47.8893 30.8321 47.8679 30.8321C47.8465 30.8321 47.826 30.8405 47.8108 30.8555L46.1291 32.5372C45.9621 32.7042 45.7428 32.8086 45.5079 32.8329C45.2731 32.8573 45.037 32.8001 44.8393 32.6709C43.3318 31.6858 41.6535 30.9909 39.8908 30.622C39.66 30.5732 39.453 30.4465 39.3045 30.2631C39.156 30.0798 39.075 29.851 39.0752 29.615V27.237C39.0752 27.2264 39.0731 27.216 39.0691 27.2063C39.065 27.1965 39.0591 27.1877 39.0517 27.1803C39.0442 27.1728 39.0354 27.1669 39.0256 27.1629C39.0159 27.1588 39.0055 27.1568 38.9949 27.1568H34.6914C34.67 27.1568 34.6495 27.1652 34.6343 27.1802C34.6191 27.1952 34.6104 27.2156 34.6101 27.237V29.615C34.6103 29.851 34.5293 30.0798 34.3808 30.2631C34.2323 30.4465 34.0253 30.5732 33.7945 30.622C32.0316 30.9911 30.353 31.686 28.845 32.6709C28.6474 32.7998 28.4115 32.8569 28.1769 32.8325C27.9423 32.8082 27.7231 32.7039 27.5562 32.5372L25.8745 30.8555C25.8592 30.8407 25.8387 30.8325 25.8174 30.8325C25.7961 30.8325 25.7756 30.8407 25.7603 30.8555L22.7178 33.899C22.703 33.9144 22.6948 33.9348 22.6948 33.9561C22.6948 33.9774 22.703 33.9979 22.7178 34.0132L24.3995 35.6939C24.5665 35.8609 24.6709 36.0802 24.6952 36.3151C24.7196 36.55 24.6624 36.786 24.5332 36.9837C23.5482 38.4914 22.853 40.1696 22.4833 41.9322C22.4347 42.163 22.3082 42.3701 22.1251 42.5188C21.9419 42.6675 21.7132 42.7487 21.4773 42.7489H19.0993C19.078 42.7489 19.0576 42.7573 19.0426 42.7724C19.0275 42.7874 19.0191 42.8078 19.0191 42.8291V47.1316C19.0189 47.1422 19.0209 47.1528 19.0249 47.1626C19.0288 47.1725 19.0347 47.1814 19.0422 47.189C19.0497 47.1966 19.0585 47.2026 19.0683 47.2067C19.0781 47.2108 19.0887 47.2129 19.0993 47.2129H21.4773C21.7131 47.2129 21.9417 47.294 22.1248 47.4425C22.3079 47.591 22.4345 47.7979 22.4833 48.0285C22.853 49.7911 23.5482 51.4693 24.5332 52.977C24.6624 53.1747 24.7196 53.4108 24.6952 53.6456C24.6709 53.8805 24.5665 54.0998 24.3995 54.2668L22.7178 55.9485C22.703 55.9639 22.6948 55.9843 22.6948 56.0056C22.6948 56.0269 22.703 56.0474 22.7178 56.0627L25.7603 59.1052C25.7678 59.1128 25.7767 59.1188 25.7865 59.1229C25.7963 59.127 25.8068 59.1291 25.8174 59.1291C25.828 59.1291 25.8385 59.127 25.8483 59.1229C25.8581 59.1188 25.867 59.1128 25.8745 59.1052L27.5562 57.4245C27.6515 57.3287 27.7648 57.2527 27.8896 57.201C28.0144 57.1492 28.1483 57.1228 28.2834 57.1232Z" fill="black"/>
<path d="M36.8383 56.2533C36.4608 56.2533 36.0812 56.2348 35.7017 56.1967C32.7254 55.8927 29.9917 54.4188 28.1021 52.0992C26.2125 49.7797 25.3218 46.8045 25.6258 43.8282C25.9298 40.8518 27.4038 38.1182 29.7233 36.2286C32.0429 34.339 35.0181 33.4483 37.9944 33.7523C40.8778 34.0393 43.5402 35.4252 45.4293 37.6225C47.3184 39.8198 48.2892 42.6599 48.1406 45.5538C47.9919 48.4477 46.735 51.1734 44.6307 53.1655C42.5263 55.1576 39.736 56.2633 36.8383 56.2533ZM36.8609 35.757C34.4623 35.7597 32.1596 36.6994 30.444 38.3758C28.7284 40.0521 27.7356 42.3325 27.6775 44.7304C27.6193 47.1283 28.5003 49.4541 30.1326 51.2117C31.7649 52.9693 34.0193 54.0196 36.415 54.1386C38.8107 54.2575 41.1581 53.4358 42.9565 51.8486C44.7549 50.2615 45.8621 48.0344 46.0418 45.6425C46.2216 43.2506 45.4597 40.8832 43.9186 39.045C42.3776 37.2069 40.1794 36.0436 37.7928 35.8033C37.4801 35.7724 37.1684 35.757 36.8599 35.757H36.8609Z" fill="black"/>
</svg>
