<svg width="81" height="73" viewBox="0 0 81 73" fill="none" xmlns="http://www.w3.org/2000/svg">
<g>
<path d="M32.6677 58.178H14.4917V3.7446H59.4584V8.78561C59.4584 9.09945 59.5831 9.40043 59.805 9.62235C60.0269 9.84427 60.3279 9.96894 60.6417 9.96894C60.9556 9.96894 61.2565 9.84427 61.4785 9.62235C61.7004 9.40043 61.8251 9.09945 61.8251 8.78561V2.56126C61.8251 2.24742 61.7004 1.94644 61.4785 1.72452C61.2565 1.5026 60.9556 1.37793 60.6417 1.37793H13.3083C12.9945 1.37793 12.6935 1.5026 12.4716 1.72452C12.2497 1.94644 12.125 2.24742 12.125 2.56126V59.3613C12.125 59.6752 12.2497 59.9762 12.4716 60.1981C12.6935 60.42 12.9945 60.5447 13.3083 60.5447H32.6677C32.9815 60.5447 33.2825 60.42 33.5044 60.1981C33.7264 59.9762 33.851 59.6752 33.851 59.3613C33.851 59.0475 33.7264 58.7465 33.5044 58.5246C33.2825 58.3027 32.9815 58.178 32.6677 58.178Z" fill="black"/>
<path d="M59.4585 36.5704V38.1324C59.4585 38.4462 59.5832 38.7472 59.8051 38.9691C60.027 39.1911 60.328 39.3157 60.6418 39.3157C60.9557 39.3157 61.2567 39.1911 61.4786 38.9691C61.7005 38.7472 61.8252 38.4462 61.8252 38.1324V36.5704C61.8252 36.2566 61.7005 35.9556 61.4786 35.7336C61.2567 35.5117 60.9557 35.3871 60.6418 35.3871C60.328 35.3871 60.027 35.5117 59.8051 35.7336C59.5832 35.9556 59.4585 36.2566 59.4585 36.5704Z" fill="black"/>
<path d="M52.3585 39.2446C48.8453 39.2427 45.4238 40.3666 42.596 42.4514C42.46 42.5386 42.3433 42.6528 42.253 42.7869C42.1628 42.9209 42.101 43.0721 42.0714 43.2309C42.0419 43.3898 42.0451 43.5531 42.0811 43.7106C42.117 43.8682 42.1848 44.0167 42.2804 44.147C42.3759 44.2774 42.4971 44.3868 42.6365 44.4685C42.776 44.5502 42.9306 44.6025 43.091 44.6221C43.2515 44.6417 43.4142 44.6283 43.5692 44.5826C43.7242 44.537 43.8682 44.46 43.9924 44.3566C46.4152 42.5692 49.3478 41.6069 52.3585 41.6112C55.167 41.6112 57.9125 42.444 60.2477 44.0044C62.5828 45.5647 64.4029 47.7824 65.4777 50.3771C66.5524 52.9718 66.8336 55.827 66.2857 58.5815C65.7378 61.3361 64.3854 63.8663 62.3995 65.8522C60.4136 67.8381 57.8834 69.1905 55.1288 69.7384C52.3743 70.2863 49.5191 70.0051 46.9244 68.9304C44.3297 67.8556 42.112 66.0355 40.5517 63.7004C38.9913 61.3652 38.1585 58.6197 38.1585 55.8112C38.1542 52.8005 39.1165 49.8679 40.9039 47.4451C41.0073 47.3209 41.0843 47.1769 41.1299 47.0219C41.1756 46.8669 41.189 46.7042 41.1694 46.5437C41.1498 46.3833 41.0975 46.2287 41.0158 46.0892C40.9341 45.9498 40.8247 45.8286 40.6943 45.7331C40.564 45.6375 40.4155 45.5697 40.2579 45.5338C40.1004 45.4978 39.9371 45.4946 39.7782 45.5241C39.6194 45.5537 39.4682 45.6155 39.3342 45.7057C39.2001 45.796 39.0859 45.9127 38.9987 46.0487C36.8044 49.0571 35.6877 52.717 35.8285 56.4379C35.9694 60.1588 37.3596 63.7237 39.775 66.5576C42.1904 69.3915 45.49 71.329 49.1416 72.0577C52.7932 72.7863 56.5838 72.2635 59.9018 70.5736C63.2199 68.8837 65.8718 66.1253 67.4299 62.7434C68.988 59.3615 69.3614 55.5533 68.4897 51.9332C67.6181 48.3131 65.5523 45.0922 62.6257 42.7901C59.699 40.488 56.0821 39.239 52.3585 39.2446Z" fill="black"/>
<path d="M46.5008 61.7871C46.307 62.0135 46.2057 62.3047 46.2172 62.6025C46.2287 62.9003 46.3522 63.1828 46.5629 63.3935C46.7736 63.6043 47.0562 63.7277 47.354 63.7393C47.6518 63.7508 47.943 63.6495 48.1693 63.4556C48.719 62.9046 49.3719 62.4674 50.0907 62.1692C50.8095 61.8709 51.5801 61.7173 52.3584 61.7173C53.1366 61.7173 53.9072 61.8709 54.626 62.1692C55.3448 62.4674 55.9977 62.9046 56.5474 63.4556C56.7658 63.6786 57.0636 63.8061 57.3757 63.8106C57.6158 63.8244 57.8544 63.7648 58.0597 63.6396C58.265 63.5144 58.4274 63.3296 58.525 63.1098C58.6227 62.89 58.6511 62.6457 58.6064 62.4094C58.5618 62.1731 58.4462 61.956 58.275 61.7871C57.5058 61.0178 56.5926 60.4076 55.5876 59.9913C54.5826 59.5749 53.5054 59.3607 52.4175 59.3607C51.3297 59.3607 50.2525 59.5749 49.2474 59.9913C48.2424 60.4076 47.3292 61.0178 46.56 61.7871H46.5008Z" fill="black"/>
<path d="M60.5117 49.362C60.3698 49.0833 60.1234 48.872 59.8263 48.7745C59.5292 48.6769 59.2055 48.7009 58.926 48.8413L54.1927 51.208C53.914 51.3498 53.7028 51.5963 53.6052 51.8934C53.5076 52.1905 53.5317 52.5142 53.672 52.7936C53.7704 52.9888 53.9208 53.1529 54.1067 53.2678C54.2926 53.3826 54.5067 53.4438 54.7252 53.4445C54.9108 53.4467 55.094 53.4019 55.2577 53.3143L59.991 50.9476C60.2697 50.8058 60.481 50.5593 60.5785 50.2622C60.6761 49.9651 60.6521 49.6414 60.5117 49.362Z" fill="black"/>
<path d="M58.2751 55.8113C58.9287 55.8113 59.4585 55.2815 59.4585 54.628C59.4585 53.9744 58.9287 53.4446 58.2751 53.4446C57.6216 53.4446 57.0918 53.9744 57.0918 54.628C57.0918 55.2815 57.6216 55.8113 58.2751 55.8113Z" fill="black"/>
<path d="M50.5241 51.2085L45.7908 48.8418C45.6513 48.7579 45.4961 48.7037 45.3348 48.6825C45.1734 48.6613 45.0094 48.6736 44.8531 48.7186C44.6967 48.7637 44.5513 48.8405 44.426 48.9443C44.3006 49.0481 44.1981 49.1766 44.1246 49.3218C44.0512 49.467 44.0085 49.6258 43.9992 49.7883C43.99 49.9507 44.0143 50.1133 44.0707 50.266C44.1271 50.4186 44.2144 50.558 44.3271 50.6753C44.4398 50.7927 44.5755 50.8856 44.7258 50.9481L49.4591 53.3148C49.6228 53.4024 49.8059 53.4472 49.9916 53.445C50.2101 53.4443 50.4242 53.3831 50.6101 53.2683C50.796 53.1534 50.9464 52.9893 51.0448 52.7941C51.1851 52.5147 51.2091 52.191 51.1116 51.8939C51.014 51.5967 50.8028 51.3503 50.5241 51.2085Z" fill="black"/>
<path d="M46.4416 55.8113C47.0952 55.8113 47.625 55.2815 47.625 54.628C47.625 53.9744 47.0952 53.4446 46.4416 53.4446C45.7881 53.4446 45.2583 53.9744 45.2583 54.628C45.2583 55.2815 45.7881 55.8113 46.4416 55.8113Z" fill="black"/>
<path d="M49.9916 13.2113C49.9916 12.8975 49.8669 12.5965 49.645 12.3745C49.4231 12.1526 49.1221 12.028 48.8083 12.028H26.3249V9.66129H48.8083C49.1221 9.66129 49.4231 9.53661 49.645 9.3147C49.8669 9.09278 49.9916 8.79179 49.9916 8.47795C49.9916 8.16411 49.8669 7.86313 49.645 7.64121C49.4231 7.41929 49.1221 7.29462 48.8083 7.29462H25.1416C24.8277 7.29462 24.5268 7.41929 24.3048 7.64121C24.0829 7.86313 23.9583 8.16411 23.9583 8.47795V13.2113C23.9583 13.5251 24.0829 13.8261 24.3048 14.048C24.5268 14.27 24.8277 14.3946 25.1416 14.3946H48.8083C49.1221 14.3946 49.4231 14.27 49.645 14.048C49.8669 13.8261 49.9916 13.5251 49.9916 13.2113Z" fill="black"/>
<path d="M44.075 20.3113C44.3888 20.3113 44.6898 20.1866 44.9117 19.9647C45.1336 19.7428 45.2583 19.4418 45.2583 19.1279C45.2583 18.8141 45.1336 18.5131 44.9117 18.2912C44.6898 18.0693 44.3888 17.9446 44.075 17.9446H28.6916C28.3778 17.9446 28.0768 18.0693 27.8549 18.2912C27.633 18.5131 27.5083 18.8141 27.5083 19.1279C27.5083 19.4418 27.633 19.7428 27.8549 19.9647C28.0768 20.1866 28.3778 20.3113 28.6916 20.3113H44.075Z" fill="black"/>
<path d="M20.4084 25.0446C20.4084 25.3585 20.5331 25.6595 20.755 25.8814C20.977 26.1033 21.2779 26.228 21.5918 26.228H44.0751C44.389 26.228 44.69 26.1033 44.9119 25.8814C45.1338 25.6595 45.2585 25.3585 45.2585 25.0446C45.2585 24.7308 45.1338 24.4298 44.9119 24.2079C44.69 23.986 44.389 23.8613 44.0751 23.8613H21.5918C21.2779 23.8613 20.977 23.986 20.755 24.2079C20.5331 24.4298 20.4084 24.7308 20.4084 25.0446Z" fill="black"/>
<path d="M47.6251 30.9613C47.6251 30.6474 47.5005 30.3465 47.2786 30.1245C47.0566 29.9026 46.7557 29.778 46.4418 29.778H21.5918C21.2779 29.778 20.977 29.9026 20.755 30.1245C20.5331 30.3465 20.4084 30.6474 20.4084 30.9613C20.4084 31.2751 20.5331 31.5761 20.755 31.798C20.977 32.02 21.2779 32.1446 21.5918 32.1446H46.4418C46.7557 32.1446 47.0566 32.02 47.2786 31.798C47.5005 31.5761 47.6251 31.2751 47.6251 30.9613Z" fill="black"/>
<path d="M21.5918 35.6946C21.2779 35.6946 20.977 35.8193 20.755 36.0412C20.5331 36.2631 20.4084 36.5641 20.4084 36.878C20.4084 37.1918 20.5331 37.4928 20.755 37.7147C20.977 37.9366 21.2779 38.0613 21.5918 38.0613H42.8918C43.2056 38.0613 43.5066 37.9366 43.7285 37.7147C43.9505 37.4928 44.0751 37.1918 44.0751 36.878C44.0751 36.5641 43.9505 36.2631 43.7285 36.0412C43.5066 35.8193 43.2056 35.6946 42.8918 35.6946H21.5918Z" fill="black"/>
<path d="M34.6085 41.6113H21.5918C21.2779 41.6113 20.977 41.736 20.755 41.9579C20.5331 42.1798 20.4084 42.4808 20.4084 42.7946C20.4084 43.1085 20.5331 43.4095 20.755 43.6314C20.977 43.8533 21.2779 43.978 21.5918 43.978H34.6085C34.9223 43.978 35.2233 43.8533 35.4452 43.6314C35.6671 43.4095 35.7918 43.1085 35.7918 42.7946C35.7918 42.4808 35.6671 42.1798 35.4452 41.9579C35.2233 41.736 34.9223 41.6113 34.6085 41.6113Z" fill="black"/>
<path d="M32.2418 49.8947C32.5556 49.8947 32.8566 49.77 33.0785 49.5481C33.3005 49.3261 33.4251 49.0252 33.4251 48.7113C33.4251 48.3975 33.3005 48.0965 33.0785 47.8746C32.8566 47.6527 32.5556 47.528 32.2418 47.528H21.5918C21.2779 47.528 20.977 47.6527 20.755 47.8746C20.5331 48.0965 20.4084 48.3975 20.4084 48.7113C20.4084 49.0252 20.5331 49.3261 20.755 49.5481C20.977 49.77 21.2779 49.8947 21.5918 49.8947H32.2418Z" fill="black"/>
<path d="M47.625 22.678C47.625 24.7843 48.2496 26.8434 49.4199 28.5948C50.5901 30.3462 52.2534 31.7112 54.1994 32.5173C56.1455 33.3234 58.2868 33.5343 60.3527 33.1233C62.4186 32.7124 64.3163 31.6981 65.8057 30.2087C67.2951 28.7192 68.3095 26.8216 68.7204 24.7557C69.1313 22.6898 68.9204 20.5484 68.1143 18.6024C67.3083 16.6563 65.9432 14.993 64.1918 13.8228C62.4405 12.6526 60.3814 12.028 58.275 12.028C55.4505 12.028 52.7416 13.15 50.7443 15.1473C48.7471 17.1445 47.625 19.8534 47.625 22.678ZM66.5584 22.678C66.5584 24.3163 66.0725 25.9178 65.1624 27.2799C64.2522 28.6421 62.9585 29.7038 61.4449 30.3308C59.9313 30.9577 58.2658 31.1218 56.659 30.8021C55.0522 30.4825 53.5762 29.6936 52.4178 28.5352C51.2594 27.3767 50.4704 25.9008 50.1508 24.294C49.8312 22.6872 49.9953 21.0217 50.6222 19.5081C51.2491 17.9945 52.3108 16.7008 53.673 15.7906C55.0352 14.8804 56.6367 14.3946 58.275 14.3946C60.4719 14.3946 62.5788 15.2673 64.1322 16.8208C65.6856 18.3742 66.5584 20.4811 66.5584 22.678Z" fill="black"/>
<path d="M55.7665 18.4891C55.5436 18.2662 55.2414 18.1411 54.9263 18.1411C54.6112 18.1411 54.3089 18.2662 54.0861 18.4891C53.8633 18.7119 53.7381 19.0141 53.7381 19.3292C53.7381 19.6444 53.8633 19.9466 54.0861 20.1694L56.6066 22.6781L54.0861 25.1867C53.9752 25.2967 53.8872 25.4276 53.8271 25.5718C53.767 25.716 53.7361 25.8707 53.7361 26.0269C53.7361 26.1831 53.767 26.3378 53.8271 26.482C53.8872 26.6262 53.9752 26.7571 54.0861 26.8671C54.1967 26.9767 54.3278 27.0635 54.472 27.1224C54.6162 27.1813 54.7705 27.2111 54.9263 27.2102C55.082 27.2111 55.2364 27.1813 55.3806 27.1224C55.5247 27.0635 55.6559 26.9767 55.7665 26.8671L58.2751 24.3466L60.7838 26.8671C60.8944 26.9767 61.0255 27.0635 61.1697 27.1224C61.3138 27.1813 61.4682 27.2111 61.624 27.2102C61.7797 27.2111 61.9341 27.1813 62.0782 27.1224C62.2224 27.0635 62.3536 26.9767 62.4641 26.8671C62.575 26.7571 62.6631 26.6262 62.7231 26.482C62.7832 26.3378 62.8142 26.1831 62.8142 26.0269C62.8142 25.8707 62.7832 25.716 62.7231 25.5718C62.6631 25.4276 62.575 25.2967 62.4641 25.1867L59.9436 22.6781L62.4641 20.1694C62.6869 19.9466 62.8121 19.6444 62.8121 19.3292C62.8121 19.0141 62.6869 18.7119 62.4641 18.4891C62.2413 18.2662 61.9391 18.1411 61.624 18.1411C61.3088 18.1411 61.0066 18.2662 60.7838 18.4891L58.2751 21.0096L55.7665 18.4891Z" fill="black"/>
</g>
</svg>
