<svg width="48" height="49" viewBox="0 0 48 49" fill="none" xmlns="http://www.w3.org/2000/svg">
<g>
<path d="M9.67931 36.8591C9.67931 36.4708 9.3645 36.1559 8.97619 36.1559C4.80206 36.1559 1.40625 32.7626 1.40625 28.5916C1.40625 25.6328 3.14841 22.9288 5.84447 21.7028C6.198 21.5421 6.35428 21.1252 6.1935 20.7717C6.03281 20.4181 5.61581 20.2619 5.26237 20.4226C2.06559 21.8763 0 25.0828 0 28.5916C0 33.538 4.02666 37.5622 8.97619 37.5622C9.3645 37.5622 9.67931 37.2474 9.67931 36.8591V36.8591Z" fill="#FECC2F"/>
<path d="M14.7235 22.1705C15.7373 16.5087 20.658 12.3993 26.4238 12.3993C30.833 12.3993 34.8582 14.8188 36.9286 18.7135C37.111 19.0563 37.5366 19.1866 37.8795 19.0043C38.2224 18.8221 38.3526 18.3963 38.1703 18.0534C37.7766 17.3127 37.3196 16.6197 36.808 15.9797V6.607L38.509 4.58013C38.739 4.66638 38.9879 4.71354 39.2478 4.71354C40.411 4.71354 41.3572 3.76816 41.3572 2.60604C41.3572 1.44391 40.4109 0.498535 39.2478 0.498535C38.0847 0.498535 37.1384 1.44391 37.1384 2.60604C37.1384 2.9966 37.2453 3.36269 37.4314 3.67657L35.5662 5.899C35.46 6.02566 35.4017 6.18569 35.4017 6.35097V14.4755C34.1672 13.3453 32.7309 12.4596 31.1688 11.8643V6.95669C31.9872 6.66672 32.5751 5.88541 32.5751 4.96957C32.5751 3.80744 31.6288 2.86207 30.4657 2.86207C29.3025 2.86207 28.3563 3.80744 28.3563 4.96957C28.3563 5.88541 28.9441 6.66672 29.7626 6.95669V11.4164C28.6873 11.1386 27.5671 10.9931 26.4238 10.9931C25.8417 10.9931 25.2672 11.0306 24.7031 11.1034V4.59316C25.5215 4.30319 26.1093 3.52188 26.1093 2.60604C26.1093 1.44391 25.1631 0.498535 23.9999 0.498535C22.8368 0.498535 21.8906 1.44391 21.8906 2.60604C21.8906 3.52188 22.4784 4.30319 23.2968 4.59316V11.3624C21.4322 11.8106 19.7121 12.6518 18.2373 13.8017V6.95669C19.0557 6.66672 19.6436 5.88541 19.6436 4.96957C19.6436 3.80744 18.6973 2.86207 17.5342 2.86207C16.371 2.86207 15.4248 3.80744 15.4248 4.96957C15.4248 5.88541 16.0126 6.66672 16.8311 6.95669V15.0689C15.2986 16.6617 14.1558 18.6454 13.5686 20.8814C13.2402 20.6849 12.9013 20.5107 12.5535 20.3592V6.35107C12.5535 6.18569 12.4952 6.02566 12.389 5.8991L10.5239 3.67666C10.71 3.36269 10.8169 2.9966 10.8169 2.60604C10.8169 1.44391 9.87068 0.498535 8.70752 0.498535C7.54436 0.498535 6.59814 1.44391 6.59814 2.60604C6.59814 3.76816 7.54436 4.71354 8.70752 4.71354C8.9673 4.71354 9.2163 4.66638 9.44627 4.58013L11.1473 6.607V19.8829C10.4453 19.7094 9.71805 19.6209 8.97602 19.6209C8.58771 19.6209 8.2729 19.9357 8.2729 20.324C8.2729 20.7123 8.58771 21.0272 8.97602 21.0272C10.6674 21.0272 12.2667 21.5721 13.6014 22.6031C13.7263 22.6997 13.878 22.7498 14.0313 22.7498C14.1165 22.7498 14.2022 22.7343 14.2841 22.7028C14.5136 22.6143 14.6801 22.4125 14.7235 22.1705V22.1705ZM39.2478 1.90479C39.6356 1.90479 39.9509 2.21932 39.9509 2.60604C39.9509 2.99275 39.6356 3.30729 39.2478 3.30729C38.8601 3.30729 38.5447 2.99275 38.5447 2.60604C38.5447 2.21932 38.8601 1.90479 39.2478 1.90479ZM30.4657 4.26822C30.8534 4.26822 31.1688 4.58285 31.1688 4.96947C31.1688 5.3561 30.8534 5.67072 30.4657 5.67072C30.0779 5.67072 29.7626 5.35619 29.7626 4.96947C29.7626 4.58275 30.0779 4.26822 30.4657 4.26822V4.26822ZM23.9999 1.90479C24.3877 1.90479 24.7031 2.21932 24.7031 2.60604C24.7031 2.99275 24.3877 3.30729 23.9999 3.30729C23.6122 3.30729 23.2968 2.99275 23.2968 2.60604C23.2968 2.21932 23.6122 1.90479 23.9999 1.90479ZM17.5342 4.26822C17.9219 4.26822 18.2373 4.58285 18.2373 4.96947C18.2373 5.3561 17.9219 5.67072 17.5342 5.67072C17.1464 5.67072 16.8311 5.35619 16.8311 4.96947C16.8311 4.58275 17.1464 4.26822 17.5342 4.26822V4.26822ZM8.00439 2.60604C8.00439 2.21932 8.31977 1.90479 8.70752 1.90479C9.09527 1.90479 9.41064 2.21932 9.41064 2.60604C9.41064 2.99275 9.09527 3.30729 8.70752 3.30729C8.31977 3.30729 8.00439 2.99266 8.00439 2.60604Z" fill="#FECC2F"/>
<path d="M41.2283 24.0265C40.7151 24.0265 40.2096 24.0832 39.7166 24.1957C39.7107 23.2166 39.5976 22.2411 39.3804 21.295C39.2935 20.9165 38.9162 20.6801 38.5378 20.767C38.1593 20.8539 37.9229 21.2312 38.0098 21.6096C38.2094 22.479 38.3106 23.3766 38.3106 24.2774C38.3106 24.5522 38.3008 24.8323 38.2816 25.1099C38.2649 25.351 38.3733 25.5839 38.5686 25.7264C38.7638 25.869 39.0187 25.901 39.2432 25.8117C39.8744 25.5604 40.5423 25.4329 41.2282 25.4329C44.1868 25.4329 46.5937 27.8379 46.5937 30.7942C46.5937 33.7505 44.1867 36.1556 41.2282 36.1556H38.9224C38.5341 36.1556 38.2192 36.4704 38.2192 36.8587C38.2192 37.247 38.5341 37.5619 38.9224 37.5619H41.2282C44.9622 37.5619 47.9999 34.526 47.9999 30.7942C48 27.0625 44.9622 24.0265 41.2283 24.0265V24.0265Z" fill="#FECC2F"/>
<path d="M33.3301 36.1558H26.8138C26.4255 36.1558 26.1107 36.4706 26.1107 36.8589C26.1107 37.2472 26.4255 37.562 26.8138 37.562H29.7626V44.404C28.9441 44.694 28.3563 45.4753 28.3563 46.3911C28.3563 47.5532 29.3025 48.4986 30.4657 48.4986C31.6288 48.4986 32.5751 47.5532 32.5751 46.3911C32.5751 45.4752 31.9872 44.6939 31.1688 44.404V37.562H33.3301C33.7184 37.562 34.0332 37.2472 34.0332 36.8589C34.0332 36.4706 33.7184 36.1558 33.3301 36.1558V36.1558ZM30.4657 47.0924C30.0779 47.0924 29.7626 46.7778 29.7626 46.3911C29.7626 46.0044 30.0779 45.6899 30.4657 45.6899C30.8534 45.6899 31.1688 46.0045 31.1688 46.3911C31.1688 46.7777 30.8534 47.0924 30.4657 47.0924Z" fill="#FECC2F"/>
<path d="M21.1839 36.1558H14.7814C14.3931 36.1558 14.0782 36.4706 14.0782 36.8589C14.0782 37.2472 14.3931 37.562 14.7814 37.562H16.8311V44.404C16.0127 44.694 15.4249 45.4753 15.4249 46.3911C15.4249 47.5532 16.3711 48.4986 17.5342 48.4986C18.6974 48.4986 19.6436 47.5532 19.6436 46.3911C19.6436 45.4752 19.0558 44.6939 18.2374 44.404V37.562H21.1839C21.5722 37.562 21.8871 37.2472 21.8871 36.8589C21.8871 36.4706 21.5722 36.1558 21.1839 36.1558V36.1558ZM17.5342 47.0924C17.1465 47.0924 16.8311 46.7778 16.8311 46.3911C16.8311 46.0044 17.1465 45.6899 17.5342 45.6899C17.922 45.6899 18.2374 46.0045 18.2374 46.3911C18.2374 46.7777 17.922 47.0924 17.5342 47.0924Z" fill="#FECC2F"/>
<path d="M11.8952 30.0894C10.732 30.0894 9.78581 31.0347 9.78581 32.1969C9.78581 33.1127 10.3736 33.894 11.1921 34.184V43.7943L8.21362 47.3432C7.96397 47.6407 8.00278 48.0841 8.30025 48.3338C8.43197 48.4443 8.59237 48.4983 8.75184 48.4983C8.95247 48.4983 9.15178 48.4129 9.29081 48.2471L12.4338 44.5021C12.54 44.3755 12.5983 44.2154 12.5983 44.0501V34.1839C13.4167 33.8939 14.0046 33.1126 14.0046 32.1968C14.0046 31.0347 13.0583 30.0894 11.8952 30.0894ZM11.8952 32.8981C11.5074 32.8981 11.1921 32.5836 11.1921 32.1969C11.1921 31.8101 11.5074 31.4956 11.8952 31.4956C12.2829 31.4956 12.5983 31.8102 12.5983 32.1969C12.5983 32.5835 12.2829 32.8981 11.8952 32.8981Z" fill="#FECC2F"/>
<path d="M24 30.0894C22.8368 30.0894 21.8906 31.0347 21.8906 32.1969C21.8906 33.1127 22.4784 33.894 23.2969 34.184V47.7953C23.2969 48.1836 23.6117 48.4984 24 48.4984C24.3883 48.4984 24.7031 48.1836 24.7031 47.7953V34.184C25.5216 33.894 26.1094 33.1127 26.1094 32.1969C26.1094 31.0347 25.1632 30.0894 24 30.0894V30.0894ZM24 32.8981C23.6122 32.8981 23.2969 32.5836 23.2969 32.1969C23.2969 31.8101 23.6122 31.4956 24 31.4956C24.3878 31.4956 24.7031 31.8102 24.7031 32.1969C24.7031 32.5835 24.3878 32.8981 24 32.8981Z" fill="#FECC2F"/>
<path d="M36.8081 43.7943V34.184C37.6265 33.894 38.2144 33.1127 38.2144 32.1969C38.2144 31.0347 37.2681 30.0894 36.105 30.0894C34.9418 30.0894 33.9956 31.0347 33.9956 32.1969C33.9956 33.1127 34.5834 33.894 35.4019 34.184V44.0502C35.4019 44.2156 35.4602 44.3756 35.5664 44.5022L38.7094 48.2472C38.8485 48.413 39.0477 48.4984 39.2483 48.4984C39.4078 48.4984 39.5682 48.4444 39.6999 48.3339C39.9974 48.0842 40.0361 47.6407 39.7865 47.3433L36.8081 43.7943ZM36.105 31.4956C36.4927 31.4956 36.8081 31.8102 36.8081 32.1969C36.8081 32.5835 36.4927 32.8981 36.105 32.8981C35.7172 32.8981 35.4019 32.5836 35.4019 32.1969C35.4019 31.8101 35.7172 31.4956 36.105 31.4956Z" fill="#FECC2F"/>
</g>
</svg>
