<svg width="82" height="82" viewBox="0 0 82 82" fill="none" xmlns="http://www.w3.org/2000/svg">
<path d="M62.3053 37.9587C63.8645 36.8271 65.1593 35.3704 66.1001 33.6892C67.041 32.0079 67.6053 30.1424 67.7542 28.2216C67.903 26.3008 67.6328 24.3706 66.9622 22.5645C66.2916 20.7584 65.2366 19.1196 63.8703 17.7614C62.6799 16.575 61.2637 15.6393 59.7055 15.0096C58.1473 14.3798 56.4787 14.0688 54.7982 14.0949C47.8207 14.1944 42.155 20.0855 42.1685 27.2277C42.1673 29.3241 42.6647 31.3906 43.6196 33.2568C44.5745 35.1231 45.9596 36.7354 47.6606 37.9607C47.7476 38.0265 47.8178 38.112 47.8654 38.2101C47.9129 38.3083 47.9365 38.4164 47.9341 38.5255V40.2359C47.2977 40.6029 46.7798 41.1447 46.4419 41.7971C46.104 42.4494 45.9602 43.185 46.0276 43.9166C46.0951 44.6481 46.3709 45.345 46.8223 45.9246C47.2737 46.5042 47.8819 46.9422 48.5747 47.1867V48.6875C48.5759 49.7066 48.9812 50.6836 49.7018 51.4042C50.4224 52.1248 51.3994 52.5301 52.4185 52.5313H57.5435C58.5625 52.5301 59.5395 52.1248 60.2601 51.4042C60.9807 50.6836 61.386 49.7066 61.3872 48.6875V47.1859C62.08 46.9414 62.6882 46.5034 63.1397 45.9238C63.5911 45.3442 63.8669 44.6473 63.9343 43.9158C64.0017 43.1842 63.858 42.4486 63.5201 41.7963C63.1822 41.1439 62.6643 40.6021 62.0279 40.2351V38.5253C62.0258 38.4156 62.0498 38.307 62.0981 38.2085C62.1463 38.1099 62.2173 38.0243 62.3053 37.9587ZM44.7316 27.2231C44.7207 21.4768 49.2533 16.737 54.8356 16.6574C54.8836 16.6574 54.9329 16.6563 54.9818 16.6563C57.6399 16.6562 60.1896 17.7102 62.0719 19.5871C63.172 20.683 64.0213 22.0044 64.5613 23.4602C65.1013 24.916 65.3192 26.4716 65.1998 28.0198C65.0805 29.5679 64.6268 31.0718 63.8701 32.4276C63.1134 33.7835 62.0716 34.9591 60.8166 35.8734C60.3969 36.1765 60.0555 36.5752 59.8207 37.0364C59.5858 37.4977 59.4642 38.0083 59.466 38.5259V39.7188H50.4972V38.5255C50.4993 38.0083 50.3781 37.4982 50.1436 37.0372C49.9092 36.5763 49.5682 36.1779 49.1491 35.875C47.7795 34.8865 46.6646 33.5863 45.8965 32.082C45.1285 30.5776 44.7292 28.9122 44.7316 27.2231ZM57.5441 49.9688H52.4191C52.0794 49.9684 51.7538 49.8333 51.5136 49.5931C51.2734 49.3529 51.1383 49.0272 51.1379 48.6875V47.4063H58.8254V48.6875C58.825 49.0272 58.6899 49.3529 58.4497 49.5931C58.2095 49.8333 57.8838 49.9684 57.5441 49.9688ZM60.1066 44.8438H49.8566C49.5168 44.8438 49.1909 44.7088 48.9506 44.4685C48.7104 44.2282 48.5754 43.9023 48.5754 43.5625C48.5754 43.2227 48.7104 42.8968 48.9506 42.6566C49.1909 42.4163 49.5168 42.2813 49.8566 42.2813H60.1066C60.4464 42.2813 60.7723 42.4163 61.0126 42.6566C61.2529 42.8968 61.3879 43.2227 61.3879 43.5625C61.3879 43.9023 61.2529 44.2282 61.0126 44.4685C60.7723 44.7088 60.4464 44.8438 60.1066 44.8438Z" fill="white"/>
<path d="M57.0588 22.1887C57.8645 22.5268 58.5832 23.0428 59.1612 23.698C59.7392 24.3532 60.1614 25.1307 60.3963 25.9723C60.4923 26.2948 60.7113 26.5666 61.006 26.7291C61.3008 26.8915 61.6476 26.9314 61.9715 26.8402C62.2954 26.7491 62.5705 26.5341 62.7372 26.2418C62.904 25.9496 62.9491 25.6034 62.8627 25.2781C62.5211 24.0622 61.9087 22.9393 61.0715 21.9935C60.2344 21.0477 59.1941 20.3036 58.0286 19.8168C57.7141 19.6882 57.3613 19.6897 57.048 19.8211C56.7346 19.9526 56.4863 20.2031 56.3576 20.5176C56.2289 20.8321 56.2305 21.1848 56.3619 21.4982C56.4933 21.8116 56.7438 22.0599 57.0584 22.1886L57.0588 22.1887Z" fill="white"/>
<path d="M56.2628 10.25V7.6875C56.2628 7.34769 56.1278 7.0218 55.8875 6.78152C55.6473 6.54124 55.3214 6.40625 54.9816 6.40625C54.6418 6.40625 54.3159 6.54124 54.0756 6.78152C53.8353 7.0218 53.7003 7.34769 53.7003 7.6875V10.25C53.7003 10.5898 53.8353 10.9157 54.0756 11.156C54.3159 11.3963 54.6418 11.5312 54.9816 11.5312C55.3214 11.5312 55.6473 11.3963 55.8875 11.156C56.1278 10.9157 56.2628 10.5898 56.2628 10.25Z" fill="white"/>
<path d="M47.6864 13.0823C47.8998 13.0819 48.1097 13.0283 48.2971 12.9262C48.4845 12.8241 48.6435 12.6769 48.7596 12.4979C48.8757 12.3188 48.9453 12.1136 48.9621 11.9009C48.9788 11.6882 48.9422 11.4746 48.8555 11.2796L47.8132 8.9386C47.675 8.62816 47.4191 8.38534 47.1019 8.26357C46.7846 8.14179 46.432 8.15102 46.1216 8.28924C45.8111 8.42746 45.5683 8.68334 45.4465 9.00058C45.3248 9.31783 45.334 9.67046 45.4722 9.98089L46.5145 12.3219C46.6153 12.5484 46.7797 12.7409 46.9877 12.8759C47.1957 13.0108 47.4384 13.0826 47.6864 13.0823Z" fill="white"/>
<path d="M41.6509 17.4664C41.91 17.4665 42.1631 17.388 42.3768 17.2412C42.5904 17.0945 42.7545 16.8864 42.8474 16.6444C42.9403 16.4025 42.9577 16.138 42.8972 15.886C42.8366 15.634 42.7011 15.4063 42.5085 15.2329L40.6042 13.5182C40.3516 13.2909 40.019 13.1731 39.6796 13.191C39.3403 13.2088 39.0218 13.3608 38.7945 13.6134C38.5671 13.866 38.4494 14.1985 38.4672 14.5379C38.4851 14.8773 38.637 15.1957 38.8896 15.4231L40.7939 17.1368C41.0287 17.3492 41.3342 17.4666 41.6509 17.4664Z" fill="white"/>
<path d="M39.1404 23.0404C39.2454 22.7172 39.2177 22.3656 39.0634 22.0628C38.9091 21.7601 38.6409 21.531 38.3177 21.426L35.8806 20.6343C35.7203 20.5812 35.551 20.5602 35.3826 20.5727C35.2141 20.5852 35.0498 20.6309 34.899 20.7071C34.7483 20.7834 34.6141 20.8887 34.5042 21.0169C34.3943 21.1452 34.3109 21.294 34.2587 21.4546C34.2065 21.6153 34.1866 21.7847 34.2002 21.9531C34.2137 22.1214 34.2604 22.2855 34.3375 22.4357C34.4147 22.586 34.5208 22.7195 34.6498 22.8286C34.7787 22.9377 34.928 23.0202 35.089 23.0714L37.526 23.8634C37.6861 23.9156 37.8548 23.9357 38.0226 23.9226C38.1904 23.9095 38.354 23.8634 38.5039 23.787C38.6539 23.7106 38.7873 23.6053 38.8965 23.4773C39.0057 23.3492 39.0886 23.2008 39.1404 23.0407V23.0404Z" fill="white"/>
<path d="M37.0083 28.7883L34.4599 29.0563C34.2917 29.0728 34.1284 29.1224 33.9795 29.2022C33.8305 29.2821 33.6988 29.3906 33.592 29.5216C33.4852 29.6526 33.4053 29.8034 33.357 29.9653C33.3087 30.1273 33.2929 30.2972 33.3106 30.4653C33.3283 30.6334 33.379 30.7963 33.4599 30.9447C33.5408 31.0931 33.6503 31.224 33.782 31.33C33.9137 31.4359 34.0651 31.5147 34.2274 31.5618C34.3897 31.609 34.5597 31.6235 34.7277 31.6047L37.2763 31.3367C37.6127 31.2993 37.9206 31.1303 38.1328 30.8666C38.345 30.6029 38.4442 30.266 38.4088 29.9294C38.3734 29.5928 38.2063 29.2838 37.9439 29.07C37.6815 28.8563 37.3451 28.755 37.0083 28.7883Z" fill="white"/>
<path d="M72.6868 31.3365L75.2352 31.6045C75.5723 31.6383 75.909 31.5373 76.1718 31.3235C76.4345 31.1097 76.6019 30.8006 76.6373 30.4637C76.6728 30.1268 76.5734 29.7896 76.3609 29.5258C76.1484 29.262 75.84 29.0931 75.5033 29.0561L72.9548 28.7881C72.7869 28.7695 72.617 28.7842 72.4548 28.8314C72.2927 28.8786 72.1414 28.9575 72.0098 29.0633C71.8782 29.1692 71.7689 29.3001 71.6881 29.4484C71.6072 29.5967 71.5565 29.7596 71.5389 29.9275C71.5212 30.0955 71.5369 30.2653 71.5852 30.4272C71.6334 30.5891 71.7131 30.7399 71.8198 30.8708C71.9265 31.0018 72.058 31.1103 72.2068 31.1902C72.3556 31.2702 72.5187 31.3199 72.6868 31.3365Z" fill="white"/>
<path d="M72.0407 23.9262C72.1753 23.9261 72.309 23.9049 72.4369 23.8631L74.874 23.0715C75.034 23.0195 75.1822 22.9365 75.3102 22.8272C75.4381 22.7179 75.5433 22.5845 75.6197 22.4346C75.6961 22.2847 75.7422 22.1212 75.7554 21.9535C75.7686 21.7857 75.7486 21.617 75.6966 21.457C75.6447 21.297 75.5617 21.1488 75.4524 21.0208C75.3431 20.8929 75.2097 20.7877 75.0598 20.7113C74.9099 20.6349 74.7464 20.5888 74.5786 20.5756C74.4109 20.5624 74.2422 20.5824 74.0822 20.6344L71.6453 21.426C71.3548 21.52 71.1076 21.7147 70.9479 21.9748C70.7882 22.235 70.7267 22.5436 70.7744 22.8451C70.8221 23.1466 70.9758 23.4212 71.208 23.6194C71.4401 23.8176 71.7354 23.9264 72.0407 23.9262Z" fill="white"/>
<path d="M69.1692 17.1367L71.0733 15.423C71.3258 15.1956 71.4777 14.8772 71.4955 14.5378C71.5132 14.1985 71.3955 13.8659 71.1681 13.6134C70.9407 13.3609 70.6223 13.209 70.2829 13.1912C69.9435 13.1734 69.611 13.2912 69.3585 13.5186L67.4544 15.2327C67.2065 15.4613 67.0587 15.7784 67.0431 16.1153C67.0275 16.4521 67.1453 16.7815 67.371 17.032C67.5966 17.2826 67.912 17.4341 68.2486 17.4537C68.5852 17.4733 68.916 17.3594 69.1692 17.1367Z" fill="white"/>
<path d="M62.2766 13.0823C62.5245 13.0824 62.767 13.0107 62.9749 12.8757C63.1828 12.7407 63.3471 12.5483 63.4478 12.3219L64.4901 9.98089C64.6283 9.67046 64.6376 9.31783 64.5158 9.00058C64.394 8.68334 64.1512 8.42746 63.8408 8.28924C63.5303 8.15102 63.1777 8.14179 62.8605 8.26357C62.5432 8.38534 62.2873 8.62816 62.1491 8.9386L61.1068 11.2796C61.0202 11.4746 60.9835 11.6882 61.0003 11.9009C61.017 12.1136 61.0866 12.3188 61.2027 12.4979C61.3189 12.6769 61.4778 12.8241 61.6652 12.9262C61.8526 13.0283 62.0626 13.0819 62.276 13.0823H62.2766Z" fill="white"/>
<path d="M75.5938 67.9062H58.9375V66.625C58.9375 64.7014 56.4339 63.3002 55.6668 62.9166C55.601 62.8837 55.5324 62.8564 55.462 62.8352L42.9217 59.073C42.1281 58.372 39.2916 55.9104 35.8236 53.4134C30.2867 49.4273 25.9934 47.4062 23.0625 47.4062H12.8125V46.125C12.8125 45.7852 12.6775 45.4593 12.4372 45.219C12.1969 44.9787 11.8711 44.8438 11.5312 44.8438H3.84375C3.50394 44.8438 3.17805 44.9787 2.93777 45.219C2.69749 45.4593 2.5625 45.7852 2.5625 46.125V74.3125C2.5625 74.6523 2.69749 74.9782 2.93777 75.2185C3.17805 75.4588 3.50394 75.5938 3.84375 75.5938H11.5312C11.8711 75.5938 12.1969 75.4588 12.4372 75.2185C12.6775 74.9782 12.8125 74.6523 12.8125 74.3125V73.0312H16.5965C17.3959 73.1376 23.9344 74.4285 29.7141 75.5696C41.2747 77.852 42.9078 78.1562 43.2683 78.1562H75.5938C76.6128 78.1551 77.5898 77.7497 78.3104 77.0291C79.031 76.3085 79.4363 75.3316 79.4375 74.3125V71.75C79.4363 70.7309 79.031 69.754 78.3104 69.0334C77.5898 68.3128 76.6128 67.9074 75.5938 67.9062ZM10.25 73.0312H5.125V47.4062H10.25V73.0312ZM76.875 74.3125C76.8746 74.6522 76.7395 74.9779 76.4993 75.2181C76.2591 75.4583 75.9334 75.5934 75.5938 75.5938H43.328C42.5287 75.4874 35.9902 74.1965 30.2112 73.0554C18.6499 70.773 17.0168 70.4688 16.6562 70.4688H12.8125V49.9688H23.0625C27.9106 49.9688 37.9607 58.0552 41.4243 61.1712C41.5649 61.2977 41.7318 61.3916 41.913 61.446L54.6134 65.2563C55.4112 65.6737 56.2523 66.3442 56.3742 66.6641V69.1875C56.3738 69.509 56.2528 69.8186 56.035 70.0551C55.8173 70.2916 55.5187 70.4377 55.1983 70.4646L42.7364 67.9719L33.9482 62.9501C33.8021 62.8663 33.6409 62.8122 33.4738 62.7908C33.3068 62.7694 33.1372 62.7811 32.9747 62.8253C32.8122 62.8695 32.66 62.9453 32.5268 63.0484C32.3936 63.1514 32.2821 63.2797 32.1985 63.426C32.115 63.5722 32.0611 63.7334 32.0399 63.9005C32.0187 64.0676 32.0307 64.2372 32.0751 64.3996C32.1195 64.5621 32.1955 64.7141 32.2988 64.8472C32.402 64.9802 32.5305 65.0916 32.6768 65.1749L41.6456 70.2999C41.7651 70.3683 41.8949 70.417 42.03 70.4441L54.8425 73.0066C54.9252 73.023 55.0094 73.0313 55.0938 73.0312C55.8884 73.0303 56.6634 72.7835 57.3122 72.3248C57.9611 71.866 58.4521 71.2177 58.7179 70.4688H75.5938C75.9334 70.4691 76.2591 70.6042 76.4993 70.8444C76.7395 71.0846 76.8746 71.4103 76.875 71.75V74.3125Z" fill="white"/>
</svg>
