<svg width="82" height="82" viewBox="0 0 82 82" fill="none" xmlns="http://www.w3.org/2000/svg">
<path d="M80.7988 64.2569C81.4624 64.2569 82 63.7191 82 63.0558V61.2149C82 57.8942 79.8811 54.965 76.7267 53.9256L69.219 51.4553V48.856C71.8333 47.2876 73.5872 44.4261 73.5872 41.1619V35.9849C73.5872 31.0405 69.5647 27.018 64.6203 27.018C61.708 27.018 59.1166 28.4146 57.4775 30.5721C56.5702 28.8694 55.0316 27.5416 53.1054 26.909L45.5986 24.4374V21.8381C48.2128 20.2697 49.9667 17.4082 49.9667 14.144V8.96683C49.9668 4.02248 45.9443 0 41 0C36.0557 0 32.0332 4.02248 32.0332 8.96683V14.1439C32.0332 17.408 33.787 20.2695 36.4013 21.8379V24.4373L28.8952 26.9087C26.9686 27.5416 25.4298 28.8694 24.5225 30.5721C22.8834 28.4144 20.292 27.018 17.3797 27.018C12.4353 27.018 8.41285 31.0405 8.41285 35.9849V41.1619C8.41285 44.4261 10.1667 47.2876 12.7809 48.856V51.4553L5.27266 53.9257C2.11887 54.965 0 57.8942 0 61.2149V63.0558C0 63.7191 0.537645 64.2569 1.20117 64.2569C1.8647 64.2569 2.40234 63.7191 2.40234 63.0558V61.2149C2.40234 58.9337 3.858 56.9213 6.02396 56.2075L13.0566 53.8934C13.6993 55.6591 15.3944 56.9234 17.3795 56.9234C19.3645 56.9234 21.0596 55.6589 21.7023 53.8934L28.734 56.2072C30.2753 56.7152 31.4696 57.8853 32.022 59.3682L28.8944 60.3975C25.7398 61.4356 23.6203 64.3646 23.6203 67.6854V69.0815H9.19729V66.0761C9.19729 65.4128 8.65965 64.875 7.99612 64.875C7.33259 64.875 6.79495 65.4128 6.79495 66.0761V69.0815H2.40234V68.6667C2.40234 68.0033 1.8647 67.4655 1.20117 67.4655C0.537645 67.4655 0 68.0033 0 68.6667V70.2827C0 70.946 0.537645 71.4838 1.20117 71.4838H23.6203V80.7985C23.6203 81.4619 24.158 81.9997 24.8215 81.9997H57.1783C57.8419 81.9997 58.3795 81.4619 58.3795 80.7985V79.1941C58.3795 78.5307 57.8419 77.9929 57.1783 77.9929C56.5148 77.9929 55.9772 78.5307 55.9772 79.1941V79.5977H51.5847V72.5479C51.5847 71.8845 51.0471 71.3467 50.3836 71.3467C49.72 71.3467 49.1824 71.8845 49.1824 72.5479V79.5977H32.8176V72.5479C32.8176 71.8845 32.28 71.3467 31.6164 71.3467C30.9529 71.3467 30.4153 71.8845 30.4153 72.5479V79.5977H26.0227V67.6857C26.0227 65.4046 27.4785 63.3927 29.6454 62.6797L36.6772 60.3655C37.3201 62.1309 39.015 63.3951 41 63.3951C42.985 63.3951 44.6799 62.131 45.3228 60.3655L52.3546 62.6797C54.5215 63.3929 55.9773 65.4046 55.9773 67.6857V73.5862C55.9773 74.2496 56.515 74.7874 57.1785 74.7874C57.842 74.7874 58.3797 74.2496 58.3797 73.5862V71.4841H80.7988C81.4624 71.4841 82 70.9463 82 70.283V68.667C82 68.0036 81.4624 67.4658 80.7988 67.4658C80.1353 67.4658 79.5977 68.0036 79.5977 68.667V69.0818H75.205V66.0765C75.205 65.4131 74.6674 64.8753 74.0039 64.8753C73.3404 64.8753 72.8027 65.4131 72.8027 66.0765V69.0818H58.3795V67.6857C58.3795 64.3647 56.26 61.4359 53.1054 60.3978L49.9779 59.3685C50.5303 57.8858 51.7244 56.7156 53.2652 56.2076L60.2975 53.8937C60.9403 55.6593 62.6353 56.9237 64.6203 56.9237C66.6055 56.9237 68.3006 55.6593 68.9433 53.8937L75.9752 56.2076C78.142 56.9213 79.5977 58.9337 79.5977 61.2149V63.0558C79.5977 63.7191 80.1353 64.2569 80.7988 64.2569ZM64.6203 29.4202C68.24 29.4202 71.1848 32.365 71.1848 35.9847V41.1618C71.1848 44.7815 68.2399 47.7262 64.6203 47.7262C61.0008 47.7262 58.056 44.7815 58.056 41.1618V35.9847C58.056 32.365 61.0008 29.4202 64.6203 29.4202ZM34.4355 14.1439V8.96683C34.4355 5.34714 37.3803 2.40234 41 2.40234C44.6197 2.40234 47.5645 5.34714 47.5645 8.96683V14.1439C47.5645 17.7636 44.6195 20.7084 41 20.7084C37.3805 20.7084 34.4355 17.7636 34.4355 14.1439ZM41 23.1107C41.7575 23.1107 42.4931 23.0154 43.1964 22.8376V25.2747C43.1961 25.2861 43.1962 25.2973 43.1964 25.3085C43.1954 26.5188 42.2106 27.5032 41.0002 27.5032C39.7897 27.5032 38.8047 26.5188 38.8039 25.3085C38.8039 25.2972 38.8041 25.2859 38.8039 25.2747V22.8376C39.5069 23.0153 40.2425 23.1107 41 23.1107ZM29.6457 29.1907L36.6771 26.8757C37.3198 28.6412 39.0149 29.9055 40.9998 29.9055C42.9848 29.9055 44.6799 28.6412 45.3226 26.8757L52.3548 29.1909C54.3626 29.8504 55.755 31.6088 55.9496 33.6991C55.757 34.4291 55.6533 35.195 55.6533 35.9847V41.1618C55.6533 41.4661 55.6689 41.7668 55.6987 42.0634H49.9566C49.7503 37.3007 45.8124 33.4892 40.9997 33.4892C36.187 33.4892 32.2491 37.3007 32.0428 42.0634H26.3007C26.3305 41.7668 26.346 41.4661 26.346 41.1618V35.9847C26.346 35.195 26.2424 34.4293 26.0497 33.6991C26.2446 31.6089 27.6372 29.8506 29.6457 29.1907ZM41 54.1975C37.3803 54.1975 34.4355 51.2527 34.4355 47.633V42.456C34.4355 38.8363 37.3805 35.8915 41 35.8915C44.6195 35.8915 47.5645 38.8363 47.5645 42.456V47.633C47.5645 51.2527 44.6197 54.1975 41 54.1975ZM10.815 41.1618V35.9847C10.815 32.365 13.76 29.4202 17.3795 29.4202C20.999 29.4202 23.9438 32.365 23.9438 35.9847V41.1618C23.9438 44.7815 20.999 47.7262 17.3795 47.7262C13.76 47.7262 10.815 44.7815 10.815 41.1618ZM19.5757 52.3248C19.5757 53.5359 18.5906 54.521 17.3795 54.521C16.1684 54.521 15.1831 53.5358 15.1831 52.3248V49.8555C15.8862 50.0333 16.6218 50.1286 17.3795 50.1286C18.1371 50.1286 18.8727 50.0333 19.5757 49.8555V52.3248ZM29.4854 53.9256L21.9782 51.4553V48.8558C23.6581 47.848 24.9809 46.3055 25.7129 44.4658H32.0332V47.633C32.0332 50.8972 33.787 53.7587 36.4013 55.3271V57.9269L34.3034 58.6173C33.5143 56.4163 31.7604 54.6754 29.4854 53.9256ZM41 60.9926C39.7889 60.9926 38.8036 60.0073 38.8036 58.7962V58.7817C38.8036 58.7793 38.8036 58.7769 38.8036 58.7746V56.327C39.5067 56.5047 40.2423 56.6 41 56.6C41.7577 56.6 42.4931 56.5047 43.1964 56.327V58.7746V58.7817V58.7962C43.1964 60.0073 42.2111 60.9926 41 60.9926ZM52.5141 53.9257C50.2396 54.6754 48.4857 56.4163 47.6968 58.6175L45.5987 57.9271V55.3273C48.213 53.7589 49.9668 50.8973 49.9668 47.6332V44.4658H56.2871C57.0191 46.3057 58.3419 47.8481 60.0218 48.8558V51.4553L52.5141 53.9257ZM64.6203 54.5212C63.4092 54.5212 62.4241 53.5359 62.4241 52.325V49.8557C63.1272 50.0335 63.8628 50.1287 64.6203 50.1287C65.3779 50.1287 66.1135 50.0335 66.8167 49.8557V52.325C66.8167 53.5359 65.8314 54.5212 64.6203 54.5212Z" fill="black"/>
</svg>
