<svg width="82" height="82" viewBox="0 0 82 82" fill="none" xmlns="http://www.w3.org/2000/svg">
<path d="M79.4375 24.3438C80.146 24.3438 80.7188 23.7698 80.7188 23.0625V2.5625C80.7188 1.85525 80.146 1.28125 79.4375 1.28125H2.5625C1.85397 1.28125 1.28125 1.85525 1.28125 2.5625V23.0625C1.28125 23.7698 1.85397 24.3438 2.5625 24.3438H3.84375V73.0312H2.5625C1.85397 73.0312 1.28125 73.6052 1.28125 74.3125V79.4375C1.28125 80.1448 1.85397 80.7188 2.5625 80.7188H12.8125C13.521 80.7188 14.0938 80.1448 14.0938 79.4375V74.3125C14.0938 73.6052 13.521 73.0312 12.8125 73.0312H11.5312V60.2188H32.0312V76.875C32.0312 78.9942 33.7558 80.7188 35.875 80.7188C37.9942 80.7188 39.7188 78.9942 39.7188 76.875V66.625C39.7188 65.919 40.2928 65.3438 41 65.3438C41.7072 65.3438 42.2812 65.919 42.2812 66.625V76.875C42.2812 78.9942 44.0058 80.7188 46.125 80.7188C48.2442 80.7188 49.9688 78.9942 49.9688 76.875V60.2188H70.4688V73.0312H69.1875C68.479 73.0312 67.9062 73.6052 67.9062 74.3125V79.4375C67.9062 80.1448 68.479 80.7188 69.1875 80.7188H79.4375C80.146 80.7188 80.7188 80.1448 80.7188 79.4375V74.3125C80.7188 73.6052 80.146 73.0312 79.4375 73.0312H78.1562V24.3438H79.4375ZM3.84375 3.84375H78.1562V21.7812H3.84375V3.84375ZM70.4688 52.5312H49.9688V46.6554L57.9215 38.7027C58.5775 38.048 58.9375 37.1768 58.9375 36.2504V35.4996C58.9375 34.5732 58.5775 33.702 57.9215 33.0473C57.2655 32.3926 56.3955 32.0312 55.4692 32.0312H54.7183C53.792 32.0312 52.922 32.3926 52.266 33.0473L48.8425 36.4695C48.2877 37.0256 47.6804 37.5099 47.0385 37.9288C47.2589 37.2805 47.4062 36.5976 47.4062 35.875C47.4062 32.3426 44.5324 29.4688 41 29.4688C37.4676 29.4688 34.5938 32.3426 34.5938 35.875C34.5938 36.5976 34.7411 37.2805 34.9615 37.9288C34.3183 37.5099 33.7122 37.0256 33.1575 36.4695L29.734 33.0473C29.078 32.3926 28.208 32.0312 27.2817 32.0312H26.5308C25.6045 32.0312 24.7345 32.3926 24.0785 33.0473C23.4225 33.702 23.0625 34.5732 23.0625 35.4996V36.2504C23.0625 37.1768 23.4225 38.048 24.0785 38.7027L32.0312 46.6554V52.5312H11.5312V24.3438H70.4688V52.5312ZM34.2183 45.2192L25.8902 36.891C25.7185 36.7193 25.625 36.4926 25.625 36.2504V35.4996C25.625 35.2574 25.7185 35.0307 25.8902 34.859C26.0619 34.6886 26.29 34.5938 26.5308 34.5938H27.2817C27.5225 34.5938 27.7506 34.6886 27.9223 34.859L31.3458 38.2812C33.9249 40.8616 37.3523 42.2812 41 42.2812C44.6477 42.2812 48.0751 40.8616 50.6542 38.2812L54.0777 34.859C54.2494 34.6886 54.4775 34.5938 54.7183 34.5938H55.4692C55.71 34.5938 55.9381 34.6886 56.1098 34.859C56.2815 35.0307 56.375 35.2574 56.375 35.4996V36.2504C56.375 36.4926 56.2815 36.7193 56.1098 36.891L47.7817 45.2192C47.5408 45.4587 47.4062 45.7855 47.4062 46.125V52.5312H34.5938V46.125C34.5938 45.7855 34.4592 45.4587 34.2183 45.2192ZM37.1562 35.875C37.1562 33.7558 38.8808 32.0312 41 32.0312C43.1192 32.0312 44.8438 33.7558 44.8438 35.875C44.8438 37.9942 43.1192 39.7188 41 39.7188C38.8808 39.7188 37.1562 37.9942 37.1562 35.875ZM11.5312 78.1562H3.84375V75.5938H11.5312V78.1562ZM6.40625 73.0312V24.3438H8.96875V73.0312H6.40625ZM47.4062 76.875C47.4062 77.581 46.8322 78.1562 46.125 78.1562C45.4178 78.1562 44.8438 77.581 44.8438 76.875V66.625C44.8438 64.5058 43.1192 62.7812 41 62.7812C38.8808 62.7812 37.1562 64.5058 37.1562 66.625V76.875C37.1562 77.581 36.5822 78.1562 35.875 78.1562C35.1678 78.1562 34.5938 77.581 34.5938 76.875V60.2188H47.4062V76.875ZM11.5312 57.6562V55.0938H70.4688V57.6562H11.5312ZM78.1562 78.1562H70.4688V75.5938H78.1562V78.1562ZM75.5938 73.0312H73.0312V24.3438H75.5938V73.0312Z" fill="white"/>
<path d="M16.6562 7.6875V19.2188H19.2188V14.0938H24.3438V11.5312H19.2188V8.96875H24.3438V6.40625H17.9375C17.229 6.40625 16.6562 6.98025 16.6562 7.6875Z" fill="white"/>
<path d="M26.9062 6.40625H29.4688V19.2188H26.9062V6.40625Z" fill="white"/>
<path d="M37.1562 12.5101L34.4592 7.11478C34.194 6.58306 33.5931 6.30503 33.0191 6.44084C32.44 6.57666 32.0312 7.093 32.0312 7.6875V19.2188H34.5938V13.1149L37.2908 18.5102C37.5112 18.9522 37.9609 19.2188 38.4375 19.2188C38.5349 19.2188 38.6335 19.2072 38.7309 19.1842C39.31 19.0483 39.7188 18.532 39.7188 17.9375V6.40625H37.1562V12.5101Z" fill="white"/>
<path d="M42.2812 6.40625H44.8438V19.2188H42.2812V6.40625Z" fill="white"/>
<path d="M47.4062 10.25C47.4062 12.3692 49.1308 14.0938 51.25 14.0938C51.9573 14.0938 52.5312 14.669 52.5312 15.375C52.5312 16.081 51.9573 16.6562 51.25 16.6562H47.4062V19.2188H51.25C53.3692 19.2188 55.0938 17.4942 55.0938 15.375C55.0938 13.2558 53.3692 11.5312 51.25 11.5312C50.5428 11.5312 49.9688 10.956 49.9688 10.25C49.9688 9.54403 50.5428 8.96875 51.25 8.96875H55.0938V6.40625H51.25C49.1308 6.40625 47.4062 8.13081 47.4062 10.25Z" fill="white"/>
<path d="M62.7812 11.5312H60.2188V6.40625H57.6562V19.2188H60.2188V14.0938H62.7812V19.2188H65.3438V6.40625H62.7812V11.5312Z" fill="white"/>
</svg>
