<svg width="81" height="73" viewBox="0 0 81 73" fill="none" xmlns="http://www.w3.org/2000/svg">
<g>
<path d="M40.4737 72.6933C26.079 72.6933 14.3686 62.2837 14.3686 49.4888V49.1518H13.7979C9.35875 49.1518 5.74731 45.9416 5.74731 41.9957V38.719C5.74731 34.773 9.35875 31.5629 13.7979 31.5629H14.3686V21.0165C14.3686 16.9734 16.4734 13.1301 20.03 10.6247C19.9026 10.0768 19.8358 9.51196 19.8358 8.93856C19.8358 7.46532 20.7184 5.95182 22.1966 4.89029C22.2116 4.87972 22.2265 4.86948 22.2423 4.85959L23.1379 4.29131C23.1694 4.27118 23.2028 4.2531 23.2369 4.23639C23.3762 4.16885 23.534 4.0846 23.7147 3.98806C24.5586 3.5378 25.8337 2.85763 27.9432 2.28593C30.8505 1.43794 33.92 0.941629 37.3124 0.772439C50.3075 0.12297 61.8894 3.52654 65.4671 9.04737C65.9237 9.70366 66.2349 10.2092 66.5381 10.7884C69.4622 16.3788 67.0834 22.2462 66.5788 23.3626V31.5629H67.202C71.6411 31.5629 75.2526 34.773 75.2526 38.719V41.9957C75.2526 45.9416 71.6411 49.1518 67.202 49.1518H66.5788V49.4888C66.5788 62.2837 54.8684 72.6933 40.4737 72.6933ZM16.2873 48.299V49.4888C16.2873 61.3433 27.1373 70.9878 40.4737 70.9878C53.81 70.9878 64.66 61.3433 64.66 49.4888V42.2604H62.9604C62.7041 42.2604 62.4581 42.1693 62.2785 42.0073C62.0981 41.8452 61.9984 41.6259 62.0011 41.398C62.0026 41.2991 62.1173 31.4779 61.262 28.4373C60.4895 25.6893 58.2829 24.5927 58.1897 24.5473C57.961 24.4365 57.7902 24.2465 57.7211 24.023C57.6521 23.7996 57.6858 23.5601 57.8186 23.3609C57.8313 23.3422 59.1356 21.3562 59.1932 19.4525C59.202 19.1523 57.7779 18.4101 55.9118 17.9499C53.8791 17.5747 52.3322 17.6 52.2919 17.5993C52.2838 17.5993 52.2758 17.5996 52.2677 17.5996H32.3129C29.4268 17.5996 26.9332 17.1589 24.9016 16.2894C24.5616 16.1441 24.2347 15.9797 23.9212 15.7986C23.0255 16.7196 21.7507 18.29 21.7541 19.4737C21.7595 21.3586 23.1057 23.3296 23.1199 23.3493C23.2584 23.5499 23.2979 23.7931 23.2281 24.0203C23.1583 24.2475 22.9863 24.4395 22.7523 24.5497C22.664 24.5927 20.4578 25.6897 19.685 28.4376C18.8296 31.4793 18.9443 41.2995 18.9459 41.3984C18.949 41.6262 18.8488 41.8456 18.6684 42.0076C18.4885 42.1696 18.2429 42.2607 17.9865 42.2607H16.2869V48.299H16.2873ZM66.6313 47.4462H67.202C70.5835 47.4462 73.3339 45.0012 73.3339 41.9957V38.719C73.3339 35.7135 70.5832 33.2684 67.202 33.2684H66.6313V47.4462ZM13.7975 33.2681C10.416 33.2681 7.66566 35.7131 7.66566 38.7186V41.9953C7.66566 45.0008 10.4164 47.4459 13.7975 47.4459H14.3682V33.2681H13.7975ZM63.9259 40.5548H64.66V23.4087C63.8246 21.7888 62.5341 20.6198 61.0966 19.7769C60.9814 21.2686 60.3325 22.6975 59.8889 23.5192C60.8583 24.1919 62.4462 25.6126 63.1243 28.0232C63.891 30.751 63.9351 38.031 63.9259 40.5548ZM16.2873 40.5548H17.0214C17.0126 38.0313 17.0567 30.751 17.8234 28.0235C18.4996 25.6211 20.0791 24.2018 21.0488 23.526C20.5607 22.647 19.8404 21.08 19.8358 19.4771C19.8308 17.6668 21.4552 15.7235 22.4368 14.7142C21.6985 14.0443 21.0933 13.2563 20.6532 12.3858C17.899 14.5658 16.2873 17.7149 16.2873 21.0165V40.5548V40.5548ZM52.4393 15.8651C53.7409 15.8651 61.4815 16.0831 65.388 21.0881C65.5238 20.6283 65.6605 20.0938 65.7725 19.503C64.6466 18.5281 60.5801 15.3377 54.5295 14.3154C50.2995 13.6005 45.3035 13.8778 40.4717 14.1452C36.8795 14.3444 33.1641 14.5508 29.8742 14.3281C26.6841 14.1128 24.4726 13.3726 22.9595 12.5451C23.6537 13.4859 24.618 14.2561 25.7773 14.7456C27.5399 15.4899 29.7372 15.8671 32.3091 15.8671H52.2639C52.2888 15.8661 52.3483 15.8651 52.4393 15.8651ZM48.1052 12.1545C50.4557 12.1545 52.7466 12.2777 54.8879 12.6396C60.2051 13.5381 64.0522 15.9159 66.0227 17.3977C66.0569 16.6473 66.0323 15.8532 65.9187 15.0393C63.2444 12.6594 58.5013 11.0002 52.171 10.2331C48.8201 9.82714 44.9973 10.289 40.9507 10.7785C36.8726 11.2714 32.6564 11.7814 28.863 11.3379C24.6549 10.8457 22.7262 9.49866 21.8478 8.2908C21.7871 8.50842 21.7553 8.72537 21.7553 8.93822C21.7553 9.01872 21.7568 9.09854 21.7603 9.1787C22.0723 9.71526 23.8444 12.2098 30.0204 12.627C33.1798 12.8402 36.6642 12.6474 40.3532 12.4424C42.9296 12.2998 45.5525 12.1545 48.1052 12.1545ZM49.3954 8.37505C50.4365 8.37505 51.4519 8.42485 52.4297 8.54322C57.7918 9.19268 62.1273 10.48 65.1754 12.3094C65.063 12.0413 64.9375 11.7738 64.7986 11.5074C64.5273 10.9893 64.2452 10.5322 63.8246 9.92914C63.8158 9.91652 63.8073 9.90355 63.7993 9.89025C60.6142 4.98921 49.5266 1.87115 37.4198 2.47525C34.1971 2.63591 31.2879 3.10562 28.5261 3.91063C28.5146 3.91404 28.5008 3.91779 28.4885 3.92086C26.6039 4.43628 25.4604 5.04618 24.7021 5.45039C24.5179 5.54897 24.354 5.63595 24.207 5.70827L23.3816 6.23221C23.2696 6.31374 23.1621 6.39901 23.0593 6.4877C23.1798 7.15968 23.9795 9.04669 29.1129 9.64704C32.6521 10.0611 36.739 9.56654 40.6916 9.08865C43.605 8.73628 46.5917 8.37505 49.3954 8.37505ZM28.7007 56.2679C28.5027 56.2679 28.3035 56.2137 28.1324 56.1015C26.5375 55.056 25.7428 53.3259 26.0594 51.5869L26.0943 51.3956C26.1799 50.9306 26.6749 50.6158 27.1953 50.6908C27.7183 50.7666 28.0733 51.2045 27.9881 51.6695L27.9532 51.8598C27.9186 52.0481 27.9052 52.2364 27.911 52.4223C36.061 48.8697 47.8312 52.773 48.3412 52.9449C48.8363 53.112 49.0849 53.6046 48.8969 54.0446C48.7089 54.4846 48.154 54.7053 47.6593 54.5392C47.5415 54.4993 35.919 50.6509 28.5265 54.0562C28.7291 54.3093 28.9789 54.5368 29.2706 54.7282C29.6969 55.0079 29.7879 55.5417 29.4732 55.9207C29.2855 56.1479 28.995 56.2679 28.7007 56.2679ZM50.4764 43.0589C47.2533 43.0589 44.6312 40.7281 44.6312 37.8635C44.6312 34.9985 47.2533 32.6677 50.4764 32.6677C53.6991 32.6677 56.3212 34.9985 56.3212 37.8635C56.3212 40.7281 53.6991 43.0589 50.4764 43.0589ZM50.4764 34.3729C48.3109 34.3729 46.5499 35.9386 46.5499 37.8631C46.5499 39.7877 48.3113 41.353 50.4764 41.353C52.6415 41.353 54.4025 39.7873 54.4025 37.8631C54.4025 35.9386 52.6411 34.3729 50.4764 34.3729ZM31.8708 43.0589C28.6481 43.0589 26.026 40.7281 26.026 37.8635C26.026 34.9985 28.6481 32.6677 31.8708 32.6677C35.0939 32.6677 37.7161 34.9985 37.7161 37.8635C37.7164 40.7281 35.0943 43.0589 31.8708 43.0589ZM31.8708 34.3729C29.7057 34.3729 27.9447 35.9386 27.9447 37.8631C27.9447 39.7877 29.7061 41.353 31.8708 41.353C34.0363 41.353 35.7973 39.7873 35.7973 37.8631C35.7977 35.9386 34.0363 34.3729 31.8708 34.3729ZM50.4764 38.8012C49.9464 38.8012 49.517 38.4195 49.517 37.9484V37.8631C49.517 37.3921 49.9464 37.0104 50.4764 37.0104C51.0063 37.0104 51.4358 37.3921 51.4358 37.8631V37.9484C51.4358 38.4191 51.006 38.8012 50.4764 38.8012ZM31.8708 38.8012C31.3409 38.8012 30.9115 38.4195 30.9115 37.9484V37.8631C30.9115 37.3921 31.3409 37.0104 31.8708 37.0104C32.4008 37.0104 32.8302 37.3921 32.8302 37.8631V37.9484C32.8302 38.4191 32.4008 38.8012 31.8708 38.8012ZM45.9854 32.6896C45.6416 32.6896 45.3089 32.5248 45.1369 32.2359C44.889 31.8197 45.0671 31.3036 45.5357 31.0833L52.3844 27.8584C52.8533 27.6381 53.4332 27.7967 53.6811 28.2129C53.929 28.629 53.7509 29.1451 53.2823 29.3655L46.4336 32.5903C46.2905 32.6575 46.137 32.6896 45.9854 32.6896ZM35.7121 28.1897C35.584 28.1897 35.4539 28.1668 35.3292 28.1187L27.6462 25.1432C27.1604 24.9549 26.9382 24.4525 27.15 24.0206C27.3618 23.5885 27.9275 23.3913 28.4129 23.5796L36.0959 26.5551C36.5817 26.7434 36.8039 27.2458 36.5921 27.6777C36.4347 27.998 36.0821 28.1897 35.7121 28.1897Z"/>
<path d="M40.4737 72.6933C26.079 72.6933 14.3686 62.2837 14.3686 49.4888V49.1518H13.7979C9.35875 49.1518 5.74731 45.9416 5.74731 41.9957V38.719C5.74731 34.773 9.35875 31.5629 13.7979 31.5629H14.3686V21.0165C14.3686 16.9734 16.4734 13.1301 20.03 10.6247C19.9026 10.0768 19.8358 9.51196 19.8358 8.93856C19.8358 7.46532 20.7184 5.95182 22.1966 4.89029C22.2116 4.87972 22.2265 4.86948 22.2423 4.85959L23.1379 4.29131C23.1694 4.27118 23.2028 4.2531 23.2369 4.23639C23.3762 4.16885 23.534 4.0846 23.7147 3.98806C24.5586 3.5378 25.8337 2.85763 27.9432 2.28593C30.8505 1.43794 33.92 0.941629 37.3124 0.772439C50.3075 0.12297 61.8894 3.52654 65.4671 9.04737C65.9237 9.70366 66.2349 10.2092 66.5381 10.7884C69.4622 16.3788 67.0834 22.2462 66.5788 23.3626V31.5629H67.202C71.6411 31.5629 75.2526 34.773 75.2526 38.719V41.9957C75.2526 45.9416 71.6411 49.1518 67.202 49.1518H66.5788V49.4888C66.5788 62.2837 54.8684 72.6933 40.4737 72.6933ZM16.2873 48.299V49.4888C16.2873 61.3433 27.1373 70.9878 40.4737 70.9878C53.81 70.9878 64.66 61.3433 64.66 49.4888V42.2604H62.9604C62.7041 42.2604 62.4581 42.1693 62.2785 42.0073C62.0981 41.8452 61.9984 41.6259 62.0011 41.398C62.0026 41.2991 62.1173 31.4779 61.262 28.4373C60.4895 25.6893 58.2829 24.5927 58.1897 24.5473C57.961 24.4365 57.7902 24.2465 57.7211 24.023C57.6521 23.7996 57.6858 23.5601 57.8186 23.3609C57.8313 23.3422 59.1356 21.3562 59.1932 19.4525C59.202 19.1523 57.7779 18.4101 55.9118 17.9499C53.8791 17.5747 52.3322 17.6 52.2919 17.5993C52.2838 17.5993 52.2758 17.5996 52.2677 17.5996H32.3129C29.4268 17.5996 26.9332 17.1589 24.9016 16.2894C24.5616 16.1441 24.2347 15.9797 23.9212 15.7986C23.0255 16.7196 21.7507 18.29 21.7541 19.4737C21.7595 21.3586 23.1057 23.3296 23.1199 23.3493C23.2584 23.5499 23.2979 23.7931 23.2281 24.0203C23.1583 24.2475 22.9863 24.4395 22.7523 24.5497C22.664 24.5927 20.4578 25.6897 19.685 28.4376C18.8296 31.4793 18.9443 41.2995 18.9459 41.3984C18.949 41.6262 18.8488 41.8456 18.6684 42.0076C18.4885 42.1696 18.2429 42.2607 17.9865 42.2607H16.2869V48.299H16.2873ZM66.6313 47.4462H67.202C70.5835 47.4462 73.3339 45.0012 73.3339 41.9957V38.719C73.3339 35.7135 70.5832 33.2684 67.202 33.2684H66.6313V47.4462ZM13.7975 33.2681C10.416 33.2681 7.66566 35.7131 7.66566 38.7186V41.9953C7.66566 45.0008 10.4164 47.4459 13.7975 47.4459H14.3682V33.2681H13.7975ZM63.9259 40.5548H64.66V23.4087C63.8246 21.7888 62.5341 20.6198 61.0966 19.7769C60.9814 21.2686 60.3325 22.6975 59.8889 23.5192C60.8583 24.1919 62.4462 25.6126 63.1243 28.0232C63.891 30.751 63.9351 38.031 63.9259 40.5548ZM16.2873 40.5548H17.0214C17.0126 38.0313 17.0567 30.751 17.8234 28.0235C18.4996 25.6211 20.0791 24.2018 21.0488 23.526C20.5607 22.647 19.8404 21.08 19.8358 19.4771C19.8308 17.6668 21.4552 15.7235 22.4368 14.7142C21.6985 14.0443 21.0933 13.2563 20.6532 12.3858C17.899 14.5658 16.2873 17.7149 16.2873 21.0165V40.5548V40.5548ZM52.4393 15.8651C53.7409 15.8651 61.4815 16.0831 65.388 21.0881C65.5238 20.6283 65.6605 20.0938 65.7725 19.503C64.6466 18.5281 60.5801 15.3377 54.5295 14.3154C50.2995 13.6005 45.3035 13.8778 40.4717 14.1452C36.8795 14.3444 33.1641 14.5508 29.8742 14.3281C26.6841 14.1128 24.4726 13.3726 22.9595 12.5451C23.6537 13.4859 24.618 14.2561 25.7773 14.7456C27.5399 15.4899 29.7372 15.8671 32.3091 15.8671H52.2639C52.2888 15.8661 52.3483 15.8651 52.4393 15.8651ZM48.1052 12.1545C50.4557 12.1545 52.7466 12.2777 54.8879 12.6396C60.2051 13.5381 64.0522 15.9159 66.0227 17.3977C66.0569 16.6473 66.0323 15.8532 65.9187 15.0393C63.2444 12.6594 58.5013 11.0002 52.171 10.2331C48.8201 9.82714 44.9973 10.289 40.9507 10.7785C36.8726 11.2714 32.6564 11.7814 28.863 11.3379C24.6549 10.8457 22.7262 9.49866 21.8478 8.2908C21.7871 8.50842 21.7553 8.72537 21.7553 8.93822C21.7553 9.01872 21.7568 9.09854 21.7603 9.1787C22.0723 9.71526 23.8444 12.2098 30.0204 12.627C33.1798 12.8402 36.6642 12.6474 40.3532 12.4424C42.9296 12.2998 45.5525 12.1545 48.1052 12.1545ZM49.3954 8.37505C50.4365 8.37505 51.4519 8.42485 52.4297 8.54322C57.7918 9.19268 62.1273 10.48 65.1754 12.3094C65.063 12.0413 64.9375 11.7738 64.7986 11.5074C64.5273 10.9893 64.2452 10.5322 63.8246 9.92914C63.8158 9.91652 63.8073 9.90355 63.7993 9.89025C60.6142 4.98921 49.5266 1.87115 37.4198 2.47525C34.1971 2.63591 31.2879 3.10562 28.5261 3.91063C28.5146 3.91404 28.5008 3.91779 28.4885 3.92086C26.6039 4.43628 25.4604 5.04618 24.7021 5.45039C24.5179 5.54897 24.354 5.63595 24.207 5.70827L23.3816 6.23221C23.2696 6.31374 23.1621 6.39901 23.0593 6.4877C23.1798 7.15968 23.9795 9.04669 29.1129 9.64704C32.6521 10.0611 36.739 9.56654 40.6916 9.08865C43.605 8.73628 46.5917 8.37505 49.3954 8.37505ZM28.7007 56.2679C28.5027 56.2679 28.3035 56.2137 28.1324 56.1015C26.5375 55.056 25.7428 53.3259 26.0594 51.5869L26.0943 51.3956C26.1799 50.9306 26.6749 50.6158 27.1953 50.6908C27.7183 50.7666 28.0733 51.2045 27.9881 51.6695L27.9532 51.8598C27.9186 52.0481 27.9052 52.2364 27.911 52.4223C36.061 48.8697 47.8312 52.773 48.3412 52.9449C48.8363 53.112 49.0849 53.6046 48.8969 54.0446C48.7089 54.4846 48.154 54.7053 47.6593 54.5392C47.5415 54.4993 35.919 50.6509 28.5265 54.0562C28.7291 54.3093 28.9789 54.5368 29.2706 54.7282C29.6969 55.0079 29.7879 55.5417 29.4732 55.9207C29.2855 56.1479 28.995 56.2679 28.7007 56.2679ZM50.4764 43.0589C47.2533 43.0589 44.6312 40.7281 44.6312 37.8635C44.6312 34.9985 47.2533 32.6677 50.4764 32.6677C53.6991 32.6677 56.3212 34.9985 56.3212 37.8635C56.3212 40.7281 53.6991 43.0589 50.4764 43.0589ZM50.4764 34.3729C48.3109 34.3729 46.5499 35.9386 46.5499 37.8631C46.5499 39.7877 48.3113 41.353 50.4764 41.353C52.6415 41.353 54.4025 39.7873 54.4025 37.8631C54.4025 35.9386 52.6411 34.3729 50.4764 34.3729ZM31.8708 43.0589C28.6481 43.0589 26.026 40.7281 26.026 37.8635C26.026 34.9985 28.6481 32.6677 31.8708 32.6677C35.0939 32.6677 37.7161 34.9985 37.7161 37.8635C37.7164 40.7281 35.0943 43.0589 31.8708 43.0589ZM31.8708 34.3729C29.7057 34.3729 27.9447 35.9386 27.9447 37.8631C27.9447 39.7877 29.7061 41.353 31.8708 41.353C34.0363 41.353 35.7973 39.7873 35.7973 37.8631C35.7977 35.9386 34.0363 34.3729 31.8708 34.3729ZM50.4764 38.8012C49.9464 38.8012 49.517 38.4195 49.517 37.9484V37.8631C49.517 37.3921 49.9464 37.0104 50.4764 37.0104C51.0063 37.0104 51.4358 37.3921 51.4358 37.8631V37.9484C51.4358 38.4191 51.006 38.8012 50.4764 38.8012ZM31.8708 38.8012C31.3409 38.8012 30.9115 38.4195 30.9115 37.9484V37.8631C30.9115 37.3921 31.3409 37.0104 31.8708 37.0104C32.4008 37.0104 32.8302 37.3921 32.8302 37.8631V37.9484C32.8302 38.4191 32.4008 38.8012 31.8708 38.8012ZM45.9854 32.6896C45.6416 32.6896 45.3089 32.5248 45.1369 32.2359C44.889 31.8197 45.0671 31.3036 45.5357 31.0833L52.3844 27.8584C52.8533 27.6381 53.4332 27.7967 53.6811 28.2129C53.929 28.629 53.7509 29.1451 53.2823 29.3655L46.4336 32.5903C46.2905 32.6575 46.137 32.6896 45.9854 32.6896ZM35.7121 28.1897C35.584 28.1897 35.4539 28.1668 35.3292 28.1187L27.6462 25.1432C27.1604 24.9549 26.9382 24.4525 27.15 24.0206C27.3618 23.5885 27.9275 23.3913 28.4129 23.5796L36.0959 26.5551C36.5817 26.7434 36.8039 27.2458 36.5921 27.6777C36.4347 27.998 36.0821 28.1897 35.7121 28.1897Z" fill="black"/>
<path d="M40.4737 72.6933C26.079 72.6933 14.3686 62.2837 14.3686 49.4888V49.1518H13.7979C9.35875 49.1518 5.74731 45.9416 5.74731 41.9957V38.719C5.74731 34.773 9.35875 31.5629 13.7979 31.5629H14.3686V21.0165C14.3686 16.9734 16.4734 13.1301 20.03 10.6247C19.9026 10.0768 19.8358 9.51196 19.8358 8.93856C19.8358 7.46532 20.7184 5.95182 22.1966 4.89029C22.2116 4.87972 22.2265 4.86948 22.2423 4.85959L23.1379 4.29131C23.1694 4.27118 23.2028 4.2531 23.2369 4.23639C23.3762 4.16885 23.534 4.0846 23.7147 3.98806C24.5586 3.5378 25.8337 2.85763 27.9432 2.28593C30.8505 1.43794 33.92 0.941629 37.3124 0.772439C50.3075 0.12297 61.8894 3.52654 65.4671 9.04737C65.9237 9.70366 66.2349 10.2092 66.5381 10.7884C69.4622 16.3788 67.0834 22.2462 66.5788 23.3626V31.5629H67.202C71.6411 31.5629 75.2526 34.773 75.2526 38.719V41.9957C75.2526 45.9416 71.6411 49.1518 67.202 49.1518H66.5788V49.4888C66.5788 62.2837 54.8684 72.6933 40.4737 72.6933ZM16.2873 48.299V49.4888C16.2873 61.3433 27.1373 70.9878 40.4737 70.9878C53.81 70.9878 64.66 61.3433 64.66 49.4888V42.2604H62.9604C62.7041 42.2604 62.4581 42.1693 62.2785 42.0073C62.0981 41.8452 61.9984 41.6259 62.0011 41.398C62.0026 41.2991 62.1173 31.4779 61.262 28.4373C60.4895 25.6893 58.2829 24.5927 58.1897 24.5473C57.961 24.4365 57.7902 24.2465 57.7211 24.023C57.6521 23.7996 57.6858 23.5601 57.8186 23.3609C57.8313 23.3422 59.1356 21.3562 59.1932 19.4525C59.202 19.1523 57.7779 18.4101 55.9118 17.9499C53.8791 17.5747 52.3322 17.6 52.2919 17.5993C52.2838 17.5993 52.2758 17.5996 52.2677 17.5996H32.3129C29.4268 17.5996 26.9332 17.1589 24.9016 16.2894C24.5616 16.1441 24.2347 15.9797 23.9212 15.7986C23.0255 16.7196 21.7507 18.29 21.7541 19.4737C21.7595 21.3586 23.1057 23.3296 23.1199 23.3493C23.2584 23.5499 23.2979 23.7931 23.2281 24.0203C23.1583 24.2475 22.9863 24.4395 22.7523 24.5497C22.664 24.5927 20.4578 25.6897 19.685 28.4376C18.8296 31.4793 18.9443 41.2995 18.9459 41.3984C18.949 41.6262 18.8488 41.8456 18.6684 42.0076C18.4885 42.1696 18.2429 42.2607 17.9865 42.2607H16.2869V48.299H16.2873ZM66.6313 47.4462H67.202C70.5835 47.4462 73.3339 45.0012 73.3339 41.9957V38.719C73.3339 35.7135 70.5832 33.2684 67.202 33.2684H66.6313V47.4462ZM13.7975 33.2681C10.416 33.2681 7.66566 35.7131 7.66566 38.7186V41.9953C7.66566 45.0008 10.4164 47.4459 13.7975 47.4459H14.3682V33.2681H13.7975ZM63.9259 40.5548H64.66V23.4087C63.8246 21.7888 62.5341 20.6198 61.0966 19.7769C60.9814 21.2686 60.3325 22.6975 59.8889 23.5192C60.8583 24.1919 62.4462 25.6126 63.1243 28.0232C63.891 30.751 63.9351 38.031 63.9259 40.5548ZM16.2873 40.5548H17.0214C17.0126 38.0313 17.0567 30.751 17.8234 28.0235C18.4996 25.6211 20.0791 24.2018 21.0488 23.526C20.5607 22.647 19.8404 21.08 19.8358 19.4771C19.8308 17.6668 21.4552 15.7235 22.4368 14.7142C21.6985 14.0443 21.0933 13.2563 20.6532 12.3858C17.899 14.5658 16.2873 17.7149 16.2873 21.0165V40.5548V40.5548ZM52.4393 15.8651C53.7409 15.8651 61.4815 16.0831 65.388 21.0881C65.5238 20.6283 65.6605 20.0938 65.7725 19.503C64.6466 18.5281 60.5801 15.3377 54.5295 14.3154C50.2995 13.6005 45.3035 13.8778 40.4717 14.1452C36.8795 14.3444 33.1641 14.5508 29.8742 14.3281C26.6841 14.1128 24.4726 13.3726 22.9595 12.5451C23.6537 13.4859 24.618 14.2561 25.7773 14.7456C27.5399 15.4899 29.7372 15.8671 32.3091 15.8671H52.2639C52.2888 15.8661 52.3483 15.8651 52.4393 15.8651ZM48.1052 12.1545C50.4557 12.1545 52.7466 12.2777 54.8879 12.6396C60.2051 13.5381 64.0522 15.9159 66.0227 17.3977C66.0569 16.6473 66.0323 15.8532 65.9187 15.0393C63.2444 12.6594 58.5013 11.0002 52.171 10.2331C48.8201 9.82714 44.9973 10.289 40.9507 10.7785C36.8726 11.2714 32.6564 11.7814 28.863 11.3379C24.6549 10.8457 22.7262 9.49866 21.8478 8.2908C21.7871 8.50842 21.7553 8.72537 21.7553 8.93822C21.7553 9.01872 21.7568 9.09854 21.7603 9.1787C22.0723 9.71526 23.8444 12.2098 30.0204 12.627C33.1798 12.8402 36.6642 12.6474 40.3532 12.4424C42.9296 12.2998 45.5525 12.1545 48.1052 12.1545ZM49.3954 8.37505C50.4365 8.37505 51.4519 8.42485 52.4297 8.54322C57.7918 9.19268 62.1273 10.48 65.1754 12.3094C65.063 12.0413 64.9375 11.7738 64.7986 11.5074C64.5273 10.9893 64.2452 10.5322 63.8246 9.92914C63.8158 9.91652 63.8073 9.90355 63.7993 9.89025C60.6142 4.98921 49.5266 1.87115 37.4198 2.47525C34.1971 2.63591 31.2879 3.10562 28.5261 3.91063C28.5146 3.91404 28.5008 3.91779 28.4885 3.92086C26.6039 4.43628 25.4604 5.04618 24.7021 5.45039C24.5179 5.54897 24.354 5.63595 24.207 5.70827L23.3816 6.23221C23.2696 6.31374 23.1621 6.39901 23.0593 6.4877C23.1798 7.15968 23.9795 9.04669 29.1129 9.64704C32.6521 10.0611 36.739 9.56654 40.6916 9.08865C43.605 8.73628 46.5917 8.37505 49.3954 8.37505ZM28.7007 56.2679C28.5027 56.2679 28.3035 56.2137 28.1324 56.1015C26.5375 55.056 25.7428 53.3259 26.0594 51.5869L26.0943 51.3956C26.1799 50.9306 26.6749 50.6158 27.1953 50.6908C27.7183 50.7666 28.0733 51.2045 27.9881 51.6695L27.9532 51.8598C27.9186 52.0481 27.9052 52.2364 27.911 52.4223C36.061 48.8697 47.8312 52.773 48.3412 52.9449C48.8363 53.112 49.0849 53.6046 48.8969 54.0446C48.7089 54.4846 48.154 54.7053 47.6593 54.5392C47.5415 54.4993 35.919 50.6509 28.5265 54.0562C28.7291 54.3093 28.9789 54.5368 29.2706 54.7282C29.6969 55.0079 29.7879 55.5417 29.4732 55.9207C29.2855 56.1479 28.995 56.2679 28.7007 56.2679ZM50.4764 43.0589C47.2533 43.0589 44.6312 40.7281 44.6312 37.8635C44.6312 34.9985 47.2533 32.6677 50.4764 32.6677C53.6991 32.6677 56.3212 34.9985 56.3212 37.8635C56.3212 40.7281 53.6991 43.0589 50.4764 43.0589ZM50.4764 34.3729C48.3109 34.3729 46.5499 35.9386 46.5499 37.8631C46.5499 39.7877 48.3113 41.353 50.4764 41.353C52.6415 41.353 54.4025 39.7873 54.4025 37.8631C54.4025 35.9386 52.6411 34.3729 50.4764 34.3729ZM31.8708 43.0589C28.6481 43.0589 26.026 40.7281 26.026 37.8635C26.026 34.9985 28.6481 32.6677 31.8708 32.6677C35.0939 32.6677 37.7161 34.9985 37.7161 37.8635C37.7164 40.7281 35.0943 43.0589 31.8708 43.0589ZM31.8708 34.3729C29.7057 34.3729 27.9447 35.9386 27.9447 37.8631C27.9447 39.7877 29.7061 41.353 31.8708 41.353C34.0363 41.353 35.7973 39.7873 35.7973 37.8631C35.7977 35.9386 34.0363 34.3729 31.8708 34.3729ZM50.4764 38.8012C49.9464 38.8012 49.517 38.4195 49.517 37.9484V37.8631C49.517 37.3921 49.9464 37.0104 50.4764 37.0104C51.0063 37.0104 51.4358 37.3921 51.4358 37.8631V37.9484C51.4358 38.4191 51.006 38.8012 50.4764 38.8012ZM31.8708 38.8012C31.3409 38.8012 30.9115 38.4195 30.9115 37.9484V37.8631C30.9115 37.3921 31.3409 37.0104 31.8708 37.0104C32.4008 37.0104 32.8302 37.3921 32.8302 37.8631V37.9484C32.8302 38.4191 32.4008 38.8012 31.8708 38.8012ZM45.9854 32.6896C45.6416 32.6896 45.3089 32.5248 45.1369 32.2359C44.889 31.8197 45.0671 31.3036 45.5357 31.0833L52.3844 27.8584C52.8533 27.6381 53.4332 27.7967 53.6811 28.2129C53.929 28.629 53.7509 29.1451 53.2823 29.3655L46.4336 32.5903C46.2905 32.6575 46.137 32.6896 45.9854 32.6896ZM35.7121 28.1897C35.584 28.1897 35.4539 28.1668 35.3292 28.1187L27.6462 25.1432C27.1604 24.9549 26.9382 24.4525 27.15 24.0206C27.3618 23.5885 27.9275 23.3913 28.4129 23.5796L36.0959 26.5551C36.5817 26.7434 36.8039 27.2458 36.5921 27.6777C36.4347 27.998 36.0821 28.1897 35.7121 28.1897Z" stroke="black" stroke-width="0.6"/>
</g>
</svg>
