<svg width="48" height="49" viewBox="0 0 48 49" fill="none" xmlns="http://www.w3.org/2000/svg">
<g>
<path d="M7.01598 22.2825C6.64512 23.2717 6.93471 24.3876 7.74049 25.0711C9.26713 26.5989 12.4068 32.1138 13.9609 35.9999C15.0215 38.6505 17.3502 41.252 19.117 42.9683C19.8774 43.7166 20.3043 44.7394 20.3021 45.8066V46.0991C20.3021 47.4244 21.3762 48.4986 22.7015 48.4986H35.4974C36.8227 48.4986 37.8968 47.4244 37.8968 46.0991V43.6422C37.8895 43.4391 37.9668 43.2417 38.1103 43.0979C41.0621 40.3986 41.0958 35.8927 41.0958 35.7023V23.0415C41.1255 21.3289 39.8342 19.8809 38.1297 19.7155C37.489 19.6734 36.8505 19.8253 36.2973 20.1511V18.9075C36.3039 17.755 35.6867 16.6893 34.6836 16.1215C33.6808 15.5536 32.4493 15.5727 31.4645 16.1716C31.362 15.0927 30.714 14.1416 29.7478 13.6514C28.7813 13.1612 27.6314 13.1996 26.7 13.7539V12.4293C28.685 11.3029 29.9078 9.1934 29.8994 6.91113C29.8994 3.37754 27.0347 0.513184 23.5011 0.513184C19.9675 0.513184 17.1031 3.37754 17.1031 6.91113C17.0947 9.1934 18.3175 11.3029 20.3021 12.4293V25.3054C20.3248 26.2496 20.1963 27.1908 19.9214 28.0944C19.8357 28.3613 19.6171 28.5648 19.3447 28.6318C19.0885 28.6966 18.8168 28.6252 18.625 28.4429C18.0004 27.8473 17.4454 27.1824 16.9713 26.4612C15.5834 24.3851 12.0912 20.507 9.90524 20.507C8.67734 20.4813 7.54792 21.1755 7.01598 22.2825V22.2825ZM18.7026 6.91113C18.7026 4.26094 20.8509 2.11267 23.5011 2.11267C26.1513 2.11267 28.2995 4.26094 28.2995 6.91113C28.3072 8.27961 27.7244 9.58476 26.7 10.4927V6.91113C26.7 5.14434 25.2679 3.71216 23.5011 3.71216C21.7343 3.71216 20.3021 5.14434 20.3021 6.91113V10.4927C19.2781 9.58476 18.6949 8.27961 18.7026 6.91113ZM15.638 27.349C16.1802 28.1713 16.8143 28.9291 17.5278 29.6082C18.1161 30.1647 18.9483 30.3818 19.7335 30.1833C20.5338 29.9838 21.1763 29.3885 21.437 28.6062C21.768 27.5379 21.925 26.4235 21.9016 25.3054V6.91113C21.9016 6.02774 22.6177 5.31165 23.5011 5.31165C24.3845 5.31165 25.1006 6.02774 25.1006 6.91113V23.7059C25.1006 24.1478 25.4586 24.5059 25.9005 24.5059C26.342 24.5059 26.7 24.1478 26.7 23.7059V16.5084C26.7 15.625 27.4165 14.9089 28.2995 14.9089C29.1829 14.9089 29.8994 15.625 29.8994 16.5084V23.7059C29.8994 24.1478 30.2574 24.5059 30.699 24.5059C31.1408 24.5059 31.4989 24.1478 31.4989 23.7059V18.9075C31.4989 18.0241 32.215 17.308 33.0984 17.308C33.9818 17.308 34.6979 18.0241 34.6979 18.9075V24.5059C34.6979 24.9474 35.0559 25.3054 35.4974 25.3054C35.9393 25.3054 36.2973 24.9474 36.2973 24.5059V22.9064C36.2962 22.4821 36.4654 22.075 36.7667 21.7762C37.0965 21.4493 37.5509 21.2798 38.0144 21.3109C38.8783 21.4237 39.5176 22.1705 39.4963 23.0415V35.7023C39.4963 35.7415 39.4557 39.7012 37.0299 41.9183C36.5558 42.3653 36.29 42.9906 36.2973 43.6422V46.0991C36.2973 46.541 35.9393 46.8991 35.4974 46.8991H22.7015C22.2596 46.8991 21.9016 46.541 21.9016 46.0991V45.8066C21.9027 44.3074 21.3004 42.8709 20.2311 41.8205C18.8761 40.5051 16.4529 37.9208 15.4469 35.405C13.8009 31.2926 10.5444 25.6133 8.87137 23.9402C8.49063 23.5599 8.36323 23.2077 8.49283 22.8943C8.78278 22.392 9.32534 22.0892 9.90524 22.1065C10.9922 22.1065 13.9393 24.8009 15.638 27.349V27.349Z" fill="#FECC2F"/>
<path d="M37.0969 34.9028C37.5388 34.9028 37.8968 34.5448 37.8968 34.1029V29.3044C37.8968 28.8629 37.5388 28.5049 37.0969 28.5049C36.6554 28.5049 36.2974 28.8629 36.2974 29.3044V34.1029C36.2974 34.5448 36.6554 34.9028 37.0969 34.9028V34.9028Z" fill="#FECC2F"/>
<path d="M36.2972 39.7014C36.5092 39.7014 36.7127 39.6172 36.8625 39.4671C37.4709 38.9041 37.8411 38.1294 37.8967 37.302C37.896 36.87 37.5482 36.5189 37.1162 36.5138C36.6794 36.5054 36.3159 36.8473 36.2972 37.2837C36.2372 37.6897 36.0373 38.0621 35.7316 38.3363C35.5031 38.5651 35.4347 38.9088 35.5584 39.2076C35.6822 39.5067 35.9736 39.7014 36.2972 39.7014V39.7014Z" fill="#FECC2F"/>
<path d="M24.3009 45.2997H25.1005C25.5423 45.2997 25.9004 44.9416 25.9004 44.4998C25.9004 44.0582 25.5423 43.7002 25.1005 43.7002H24.3009C23.859 43.7002 23.501 44.0582 23.501 44.4998C23.501 44.9416 23.859 45.2997 24.3009 45.2997Z" fill="#FECC2F"/>
<path d="M28.2996 45.2997H33.8979C34.3398 45.2997 34.6979 44.9416 34.6979 44.4998C34.6979 44.0582 34.3398 43.7002 33.8979 43.7002H28.2996C27.858 43.7002 27.5 44.0582 27.5 44.4998C27.5 44.9416 27.858 45.2997 28.2996 45.2997Z" fill="#FECC2F"/>
<path d="M17.103 13.7403C17.4222 13.7403 17.7107 13.551 17.8373 13.2581C17.964 12.9653 17.9047 12.6251 17.6861 12.3927C14.9151 9.46388 14.7647 4.92827 17.3358 1.82228C17.5258 1.60299 17.5822 1.29803 17.4833 1.02528C17.3841 0.752539 17.1451 0.554845 16.8584 0.508717C16.5717 0.462588 16.2829 0.575347 16.1031 0.803427C13.0191 4.53032 13.1978 9.97202 16.5201 13.4884C16.6713 13.6491 16.8822 13.7403 17.103 13.7403Z" fill="#FECC2F"/>
<path d="M30.9655 11.6217C31.154 11.7183 31.3737 11.7363 31.5754 11.6711C31.7775 11.6059 31.9451 11.4635 32.0418 11.2746C33.7903 7.86988 33.3407 3.75053 30.8988 0.803427C30.7194 0.575347 30.4302 0.462588 30.1436 0.508717C29.8573 0.554845 29.6182 0.752539 29.519 1.02528C29.4198 1.29803 29.4762 1.60299 29.6665 1.82228C31.7013 4.27734 32.0758 7.70916 30.6191 10.5453C30.4174 10.9382 30.5726 11.4199 30.9655 11.6217Z" fill="#FECC2F"/>
</g>
</svg>
