<svg width="82" height="82" viewBox="0 0 82 82" fill="none" xmlns="http://www.w3.org/2000/svg">
<g>
<path d="M48.5798 64.8613H33.4209C32.7575 64.8613 32.2197 65.3991 32.2197 66.0625C32.2197 66.7259 32.7575 67.2637 33.4209 67.2637H48.5798C49.2434 67.2637 49.781 66.7259 49.781 66.0625C49.781 65.3991 49.2432 64.8613 48.5798 64.8613Z" fill="black"/>
<path d="M48.5798 58.9355H33.4209C32.7575 58.9355 32.2197 59.4734 32.2197 60.1367C32.2197 60.8001 32.7575 61.3379 33.4209 61.3379H48.5798C49.2434 61.3379 49.781 60.8001 49.781 60.1367C49.781 59.4734 49.2432 58.9355 48.5798 58.9355Z" fill="black"/>
<path d="M69.9915 12.0087C62.2474 4.2648 51.9515 0 41 0C25.8511 0 11.9933 8.30314 4.83448 21.6688C4.52121 22.2536 4.74143 22.9816 5.32616 23.2947C5.91073 23.6082 6.6388 23.3879 6.95206 22.803C13.6921 10.2194 26.7384 2.40234 41 2.40234C51.3099 2.40234 61.0026 6.41714 68.2927 13.7073C75.5829 20.9976 79.5977 30.6903 79.5977 41C79.5977 51.3097 75.5829 61.0026 68.2925 68.2927C61.0026 75.5829 51.3099 79.5977 41 79.5977C30.6901 79.5977 20.9974 75.5829 13.7073 68.2927C6.41714 61.0026 2.40234 51.3099 2.40234 41C2.40234 36.4376 3.19015 31.9726 4.74415 27.7288C4.97221 27.1058 4.65222 26.416 4.02921 26.1879C3.40588 25.9596 2.71641 26.2799 2.48835 26.9029C0.837137 31.4121 0 36.155 0 41C0 51.9515 4.26464 62.2474 12.0085 69.9915C19.7526 77.7352 30.0485 82 41 82C51.9515 82 62.2474 77.7352 69.9915 69.9915C77.7354 62.2476 82 51.9515 82 41C82 30.0485 77.7354 19.7526 69.9915 12.0087Z" fill="black"/>
<path d="M66.9636 18.9859C68.8541 16.4368 65.6358 13.2156 63.0855 15.1077C57.4183 19.3111 52.0188 23.9685 47.037 28.9506L41.4365 34.551C37.5028 34.2904 34.216 37.5486 34.479 41.5085L32.3566 43.6309C30.6793 45.3082 30.6793 48.0372 32.3566 49.7146C34.0338 51.3917 36.7628 51.3919 38.4402 49.7146L40.5624 47.5923C44.4985 47.8535 47.7829 44.5926 47.5202 40.6347L53.1207 35.0343C58.1025 30.0522 62.76 24.6528 66.9636 18.9859ZM36.7415 48.0158C36.001 48.7563 34.796 48.7563 34.0554 48.0158C33.3148 47.2751 33.3148 46.0702 34.0554 45.3295L35.2349 44.1499C35.8453 45.2883 36.7827 46.2259 37.9211 46.8362L36.7415 48.0158ZM40.9996 45.2062C38.7248 45.2062 36.8652 43.3552 36.8652 41.0716C36.8652 38.7917 38.7199 36.9371 40.9996 36.9371C43.0584 36.9371 44.7702 38.4498 45.0828 40.422C45.083 40.4226 45.083 40.4234 45.0831 40.4241C45.4814 42.9457 43.5235 45.2062 40.9996 45.2062ZM46.7643 37.993C46.1539 36.8547 45.2164 35.9173 44.078 35.3069L48.7358 30.6492C53.6345 25.7504 58.9438 21.1706 64.5165 17.0372C64.8624 16.7811 65.2894 17.2102 65.0339 17.5547C60.9003 23.1272 56.3206 28.4367 51.4218 33.3355L46.7643 37.993Z" fill="black"/>
<path d="M59.2367 12.1831C46.1915 3.90977 28.492 5.24628 16.8479 16.9294C16.8475 16.9297 16.8471 16.93 16.8467 16.9303C3.58692 30.2358 3.57907 51.7673 16.8584 65.0795C16.8685 65.0903 16.8775 65.1016 16.8879 65.112C23.3284 71.5526 31.8915 75.0995 40.9997 75.0995C50.0782 75.0995 58.6214 71.5726 65.0555 65.1681C65.0611 65.1627 65.0656 65.1566 65.0711 65.151C76.7833 53.4767 78.0304 35.8195 69.8828 22.8689C69.5293 22.3072 68.7881 22.1388 68.2263 22.4919C67.6648 22.8452 67.496 23.5867 67.8493 24.1482C70.8221 28.8733 72.481 34.2903 72.6769 39.8794H67.9081C67.754 36.0504 66.8084 32.3803 65.0911 28.9532C64.794 28.3602 64.073 28.1201 63.4791 28.4175C62.886 28.7146 62.6463 29.4364 62.9434 30.0295C67.4944 39.1121 66.0905 50.6422 58.2916 58.3956C57.8206 58.864 57.8192 59.6269 58.2891 60.0967L62.4898 64.2975C56.6195 69.7221 49.0359 72.6974 40.9996 72.6974C32.9604 72.6974 25.3794 69.7229 19.5092 64.2976L23.7101 60.0967C24.1798 59.627 24.179 58.8642 23.7075 58.3956C14.0762 48.8201 14.0715 33.2826 23.6173 23.6948C31.3692 15.9092 42.9166 14.4718 52.0636 19.103C52.2376 19.1911 52.4227 19.2327 52.6053 19.2327C53.0436 19.2327 53.4663 18.9918 53.6779 18.5738C53.9775 17.9821 53.7406 17.2593 53.1487 16.9596C49.7174 15.2222 46.0398 14.2608 42.2006 14.0954V9.32594C47.8019 9.53622 53.2233 11.2145 57.9497 14.212C58.5096 14.5672 59.2519 14.4011 59.6075 13.8409C59.963 13.2805 59.797 12.5384 59.2367 12.1831ZM67.8991 42.2816H72.6684C72.3676 49.8953 69.3934 57.0314 64.1937 62.6038L60.821 59.2311C65.1236 54.5629 67.6039 48.6224 67.8991 42.2816ZM39.7986 9.32754V14.0964C33.4346 14.3736 27.4709 16.8506 22.7831 21.1653L19.4104 17.7926C25.0017 12.5813 32.1615 9.61005 39.7986 9.32754ZM21.1783 59.2311L17.8057 62.6038C12.6061 57.0315 9.63186 49.8954 9.33108 42.2816H14.1004C14.3955 48.6222 16.8759 54.5629 21.1783 59.2311ZM14.0917 39.8793H9.32211C9.58573 32.2537 12.5358 25.0946 17.7164 19.4957L21.0886 22.8679C16.8045 27.5628 14.3504 33.5271 14.0917 39.8793Z" fill="black"/>
</g>
</svg>
