<svg width="82" height="82" viewBox="0 0 82 82" fill="none" xmlns="http://www.w3.org/2000/svg">
<path d="M56.114 5H25.886C22.9724 5 20.6 7.3724 20.6 10.286V71.7128C20.6 74.6276 22.9724 77 25.886 77H56.1128C59.0276 77 61.4 74.6276 61.4 71.714V10.286C61.4 7.3724 59.0276 5 56.114 5ZM23 14.6H59V60.2H23V14.6ZM25.886 7.4H56.1128C57.7052 7.4 59 8.6948 59 10.286V12.2H23V10.286C23 8.6948 24.2948 7.4 25.886 7.4ZM56.114 74.6H25.886C24.2948 74.6 23 73.3052 23 71.714V62.6H59V71.714C59 73.3052 57.7052 74.6 56.114 74.6Z" fill="#FECC2F"/>
<path d="M41.0001 63.7998C38.3529 63.7998 36.2001 65.9526 36.2001 68.5998C36.2001 71.247 38.3529 73.3998 41.0001 73.3998C43.6473 73.3998 45.8001 71.247 45.8001 68.5998C45.8001 65.9526 43.6473 63.7998 41.0001 63.7998ZM41.0001 70.9998C39.6765 70.9998 38.6001 69.9234 38.6001 68.5998C38.6001 67.2762 39.6765 66.1998 41.0001 66.1998C42.3237 66.1998 43.4001 67.2762 43.4001 68.5998C43.4001 69.9234 42.3237 70.9998 41.0001 70.9998Z" fill="#FECC2F"/>
<path d="M36.2 11.0001H41C41.6636 11.0001 42.2 10.4637 42.2 9.8001C42.2 9.1365 41.6636 8.6001 41 8.6001H36.2C35.5364 8.6001 35 9.1365 35 9.8001C35 10.4637 35.5364 11.0001 36.2 11.0001Z" fill="#FECC2F"/>
<path d="M44.6 11.0001H45.8C46.4636 11.0001 47 10.4637 47 9.8001C47 9.1365 46.4636 8.6001 45.8 8.6001H44.6C43.9364 8.6001 43.4 9.1365 43.4 9.8001C43.4 10.4637 43.9364 11.0001 44.6 11.0001Z" fill="#FECC2F"/>
<path d="M72.9344 10.4828C72.4652 10.0136 71.7068 10.0136 71.2376 10.4828C70.7684 10.952 70.7684 11.7104 71.2376 12.1796C75.7208 16.6628 75.7208 23.9576 71.2376 28.442C70.7684 28.9112 70.7684 29.6696 71.2376 30.1388C71.4716 30.3728 71.7788 30.4904 72.086 30.4904C72.3932 30.4904 72.7004 30.3728 72.9344 30.1388C78.3536 24.7208 78.3536 15.902 72.9344 10.4828Z" fill="#FECC2F"/>
<path d="M67.8812 13.2142C67.412 12.745 66.6536 12.745 66.1844 13.2142C65.7152 13.6834 65.7152 14.4418 66.1844 14.911C67.6688 16.3954 68.486 18.373 68.486 20.4778C68.486 22.5826 67.6688 24.559 66.1844 26.0434C65.7152 26.5126 65.7152 27.271 66.1844 27.7402C66.4184 27.9742 66.7256 28.0918 67.0328 28.0918C67.34 28.0918 67.6472 27.9742 67.8812 27.7402C69.8192 25.8034 70.886 23.2234 70.886 20.4778C70.886 17.7322 69.8204 15.151 67.8812 13.2142Z" fill="#FECC2F"/>
<path d="M10.7624 12.1796C11.2316 11.7104 11.2316 10.952 10.7624 10.4828C10.2932 10.0136 9.53482 10.0136 9.06562 10.4828C3.64642 15.902 3.64642 24.7196 9.06562 30.1388C9.29962 30.3728 9.60682 30.4904 9.91402 30.4904C10.2212 30.4904 10.5284 30.3728 10.7624 30.1388C11.2316 29.6696 11.2316 28.9112 10.7624 28.442C6.27802 23.9588 6.27802 16.664 10.7624 12.1796Z" fill="#FECC2F"/>
<path d="M15.8156 12.8827C15.3464 12.4135 14.588 12.4135 14.1188 12.8827C12.1808 14.8195 11.114 17.3995 11.114 20.1451C11.114 22.8907 12.1808 25.4707 14.1188 27.4087C14.3528 27.6427 14.66 27.7603 14.9672 27.7603C15.2744 27.7603 15.5816 27.6427 15.8156 27.4087C16.2848 26.9395 16.2848 26.1811 15.8156 25.7119C14.3312 24.2275 13.514 22.2499 13.514 20.1451C13.514 18.0403 14.33 16.0639 15.8156 14.5795C16.2836 14.1115 16.2836 13.3519 15.8156 12.8827Z" fill="#FECC2F"/>
</svg>
