<svg width="82" height="82" viewBox="0 0 82 82" fill="none" xmlns="http://www.w3.org/2000/svg">
<path d="M73.3376 62.3918H7.66194C6.21095 62.3901 4.81989 61.8129 3.79388 60.7869C2.76788 59.7609 2.1907 58.3698 2.18896 56.9188V8.75667C2.1907 7.30568 2.76788 5.91461 3.79388 4.88861C4.81989 3.8626 6.21095 3.28543 7.66194 3.28369H32.3232C32.6135 3.28369 32.8919 3.39901 33.0972 3.60429C33.3024 3.80957 33.4178 4.08798 33.4178 4.37829C33.4178 4.66859 33.3024 4.947 33.0972 5.15228C32.8919 5.35756 32.6135 5.47288 32.3232 5.47288H7.66194C6.79102 5.47288 5.95578 5.81885 5.33995 6.43468C4.72412 7.05051 4.37815 7.88575 4.37815 8.75667V56.9188C4.37815 57.7897 4.72412 58.625 5.33995 59.2408C5.95578 59.8566 6.79102 60.2026 7.66194 60.2026H73.3376C74.2085 60.2026 75.0438 59.8566 75.6596 59.2408C76.2754 58.625 76.6214 57.7897 76.6214 56.9188V8.75667C76.6214 7.88575 76.2754 7.05051 75.6596 6.43468C75.0438 5.81885 74.2085 5.47288 73.3376 5.47288H61.7349C61.4446 5.47288 61.1662 5.35756 60.9609 5.15228C60.7556 4.947 60.6403 4.66859 60.6403 4.37829C60.6403 4.08798 60.7556 3.80957 60.9609 3.60429C61.1662 3.39901 61.4446 3.28369 61.7349 3.28369H73.3376C74.7886 3.28543 76.1797 3.8626 77.2057 4.88861C78.2317 5.91461 78.8089 7.30568 78.8106 8.75667V56.9188C78.8089 58.3698 78.2317 59.7609 77.2057 60.7869C76.1797 61.8129 74.7886 62.3901 73.3376 62.3918ZM54.0728 5.47288H50.8328C50.5424 5.47288 50.264 5.35756 50.0588 5.15228C49.8535 4.947 49.7382 4.66859 49.7382 4.37829C49.7382 4.08798 49.8535 3.80957 50.0588 3.60429C50.264 3.39901 50.5424 3.28369 50.8328 3.28369H54.0728C54.3631 3.28369 54.6415 3.39901 54.8467 3.60429C55.052 3.80957 55.1674 4.08798 55.1674 4.37829C55.1674 4.66859 55.052 4.947 54.8467 5.15228C54.6415 5.35756 54.3631 5.47288 54.0728 5.47288ZM43.1706 5.47288H39.9853C39.695 5.47288 39.4166 5.35756 39.2113 5.15228C39.0061 4.947 38.8907 4.66859 38.8907 4.37829C38.8907 4.08798 39.0061 3.80957 39.2113 3.60429C39.4166 3.39901 39.695 3.28369 39.9853 3.28369H43.1706C43.4609 3.28369 43.7393 3.39901 43.9446 3.60429C44.1499 3.80957 44.2652 4.08798 44.2652 4.37829C44.2652 4.66859 44.1499 4.947 43.9446 5.15228C43.7393 5.35756 43.4609 5.47288 43.1706 5.47288Z" fill="black"/>
<path d="M77.716 48.1619H3.28356C2.99325 48.1619 2.71484 48.0465 2.50956 47.8413C2.30429 47.636 2.18896 47.3576 2.18896 47.0673C2.18896 46.7769 2.30429 46.4985 2.50956 46.2933C2.71484 46.088 2.99325 45.9727 3.28356 45.9727H77.716C78.0063 45.9727 78.2847 46.088 78.49 46.2933C78.6953 46.4985 78.8106 46.7769 78.8106 47.0673C78.8106 47.3576 78.6953 47.636 78.49 47.8413C78.2847 48.0465 78.0063 48.1619 77.716 48.1619Z" fill="black"/>
<path d="M59.1077 77.7162H21.8915C21.6795 77.7163 21.472 77.6548 21.2942 77.5392C21.1165 77.4236 20.9762 77.2589 20.8903 77.0651C20.8044 76.8712 20.7766 76.6566 20.8103 76.4473C20.8441 76.238 20.9379 76.043 21.0804 75.886C25.4949 71.0172 27.1992 66.3116 26.2896 61.5008C26.2596 61.3427 26.2649 61.1799 26.3051 61.024C26.3453 60.8682 26.4193 60.7231 26.5219 60.5992C26.6246 60.4752 26.7533 60.3754 26.8989 60.3068C27.0446 60.2383 27.2035 60.2027 27.3644 60.2026H52.5401C52.7013 60.2027 52.8605 60.2383 53.0063 60.3069C53.1521 60.3756 53.2809 60.4756 53.3836 60.5998C53.4863 60.7241 53.5603 60.8694 53.6003 61.0256C53.6403 61.1817 53.6453 61.3447 53.615 61.503C52.4438 67.6109 56.9448 73.9869 59.6856 75.6923C59.8876 75.8179 60.043 76.0059 60.1286 76.2278C60.2141 76.4497 60.2251 76.6934 60.1598 76.9221C60.0945 77.1508 59.9565 77.352 59.7667 77.4953C59.5768 77.6385 59.3455 77.7161 59.1077 77.7162ZM24.2427 75.527H56.1687C53.3611 72.4621 50.8796 67.3317 51.2879 62.3918H28.6298C29.083 66.7932 27.6118 71.1978 24.2427 75.527Z" fill="black"/>
<path d="M40.4999 58.0059C39.73 58.0062 38.9773 57.778 38.337 57.3504C37.6968 56.9228 37.1977 56.3149 36.9029 55.6036C36.6082 54.8923 36.531 54.1096 36.6812 53.3545C36.8313 52.5993 37.2021 51.9057 37.7465 51.3612C38.2909 50.8168 38.9846 50.4461 39.7397 50.2959C40.4949 50.1458 41.2776 50.2229 41.9889 50.5177C42.7002 50.8124 43.3081 51.3115 43.7357 51.9518C44.1633 52.592 44.3914 53.3447 44.3912 54.1147C44.39 55.1463 43.9797 56.1354 43.2502 56.8649C42.5207 57.5944 41.5316 58.0048 40.4999 58.0059ZM40.4999 52.4115C40.163 52.4113 39.8336 52.511 39.5534 52.698C39.2731 52.885 39.0547 53.1509 38.9256 53.4621C38.7965 53.7733 38.7626 54.1158 38.8282 54.4463C38.8938 54.7767 39.0559 55.0803 39.2941 55.3186C39.5323 55.5569 39.8357 55.7192 40.1661 55.785C40.4966 55.8509 40.8391 55.8172 41.1504 55.6883C41.4616 55.5594 41.7277 55.3411 41.9149 55.061C42.1021 54.7809 42.202 54.4516 42.202 54.1147C42.2014 53.6633 42.022 53.2306 41.7029 52.9114C41.3839 52.5921 40.9513 52.4123 40.4999 52.4115Z" fill="black"/>
<path d="M51.4459 29.799H46.2554C45.9651 29.799 45.6866 29.6837 45.4814 29.4784C45.2761 29.2731 45.1608 28.9947 45.1608 28.7044C45.1608 28.4141 45.2761 28.1357 45.4814 27.9304C45.6866 27.7251 45.9651 27.6098 46.2554 27.6098H51.4459C51.7845 27.6197 52.1217 27.5617 52.4374 27.439C52.7532 27.3163 53.0411 27.1314 53.2841 26.8955C53.5271 26.6595 53.7203 26.3771 53.8523 26.0651C53.9842 25.7531 54.0522 25.4178 54.0522 25.0791C54.0522 24.7403 53.9842 24.405 53.8523 24.093C53.7203 23.781 53.5271 23.4987 53.2841 23.2627C53.0411 23.0267 52.7532 22.8419 52.4374 22.7192C52.1217 22.5965 51.7845 22.5384 51.4459 22.5484H50.9862C50.8332 22.5484 50.6819 22.5163 50.5421 22.4543C50.4023 22.3922 50.277 22.3015 50.1744 22.1881C50.0718 22.0746 49.9941 21.9409 49.9463 21.7956C49.8986 21.6503 49.8818 21.4965 49.8971 21.3443C50.058 19.7394 49.6566 18.1283 48.7615 16.7865C47.8664 15.4447 46.5331 14.4553 44.9894 13.9875C43.4458 13.5196 41.7875 13.6023 40.2981 14.2214C38.8087 14.8405 37.5804 15.9577 36.8232 17.3819C36.7187 17.5785 36.5566 17.7386 36.3586 17.8406C36.1607 17.9427 35.9364 17.982 35.7155 17.9533C35.5342 17.9277 35.3513 17.9141 35.1682 17.9128C34.1411 17.9152 33.1496 18.2895 32.3771 18.9664C31.6046 19.6433 31.1033 20.5771 30.9661 21.595C30.9313 21.8581 30.8021 22.0996 30.6026 22.2746C30.403 22.4496 30.1467 22.5461 29.8813 22.5462H29.554C28.8826 22.5462 28.2386 22.8129 27.7638 23.2877C27.289 23.7625 27.0222 24.4065 27.0222 25.078C27.0222 25.7495 27.289 26.3934 27.7638 26.8682C28.2386 27.343 28.8826 27.6098 29.554 27.6098H33.4836C33.7739 27.6098 34.0524 27.7251 34.2576 27.9304C34.4629 28.1357 34.5782 28.4141 34.5782 28.7044C34.5782 28.9947 34.4629 29.2731 34.2576 29.4784C34.0524 29.6837 33.7739 29.799 33.4836 29.799H29.554C28.3508 29.7995 27.1927 29.3405 26.3165 28.5159C25.4403 27.6912 24.912 26.5631 24.8396 25.362C24.7672 24.1609 25.1562 22.9775 25.927 22.0536C26.6979 21.1297 27.7924 20.5349 28.987 20.3909C29.3743 19.0317 30.1987 17.8381 31.3327 16.9946C32.4667 16.1511 33.847 15.7047 35.2602 15.7247C36.3135 14.0721 37.8695 12.8013 39.6992 12.0993C41.5289 11.3974 43.5357 11.3014 45.424 11.8255C47.3124 12.3496 48.9826 13.4661 50.1889 15.0106C51.3951 16.5551 52.0736 18.4461 52.1246 20.4052C53.3066 20.5753 54.3803 21.1871 55.1292 22.1173C55.8782 23.0475 56.2467 24.227 56.1607 25.4182C56.0746 26.6093 55.5404 27.7236 54.6655 28.5365C53.7906 29.3494 52.6402 29.8005 51.4459 29.799Z" fill="black"/>
<path d="M40.4999 35.8108C40.2096 35.8108 39.9311 35.6954 39.7259 35.4902C39.5206 35.2849 39.4053 35.0065 39.4053 34.7162V23.1332C39.4053 22.8429 39.5206 22.5644 39.7259 22.3592C39.9311 22.1539 40.2096 22.0386 40.4999 22.0386C40.7902 22.0386 41.0686 22.1539 41.2739 22.3592C41.4791 22.5644 41.5945 22.8429 41.5945 23.1332V34.7162C41.5945 35.0065 41.4791 35.2849 41.2739 35.4902C41.0686 35.6954 40.7902 35.8108 40.4999 35.8108Z" fill="black"/>
<path d="M40.4999 35.8587C40.3561 35.8591 40.2137 35.8309 40.0808 35.7759C39.948 35.7208 39.8274 35.64 39.726 35.538L36.7706 32.5826C36.5713 32.3761 36.4609 32.0996 36.4634 31.8126C36.4659 31.5256 36.581 31.2511 36.784 31.0481C36.9869 30.8452 37.2615 30.7301 37.5485 30.7276C37.8355 30.7251 38.112 30.8354 38.3184 31.0348L40.4999 33.2163L42.6771 31.0392C42.8855 30.8507 43.1584 30.7497 43.4393 30.7569C43.7202 30.7641 43.9875 30.879 44.186 31.0779C44.3845 31.2768 44.4989 31.5444 44.5055 31.8253C44.5121 32.1062 44.4104 32.3789 44.2215 32.5869L41.2661 35.5424C41.0626 35.7449 40.7871 35.8586 40.4999 35.8587Z" fill="black"/>
<path d="M48.4354 39.9526H32.5638C32.2735 39.9526 31.9951 39.8373 31.7898 39.632C31.5846 39.4268 31.4692 39.1484 31.4692 38.858V35.3915C31.4692 35.1012 31.5846 34.8227 31.7898 34.6175C31.9951 34.4122 32.2735 34.2969 32.5638 34.2969C32.8541 34.2969 33.1326 34.4122 33.3378 34.6175C33.5431 34.8227 33.6584 35.1012 33.6584 35.3915V37.7635H47.3409V35.3915C47.3409 35.1012 47.4562 34.8227 47.6615 34.6175C47.8667 34.4122 48.1451 34.2969 48.4354 34.2969C48.7258 34.2969 49.0042 34.4122 49.2094 34.6175C49.4147 34.8227 49.53 35.1012 49.53 35.3915V38.858C49.53 39.1484 49.4147 39.4268 49.2094 39.632C49.0042 39.8373 48.7258 39.9526 48.4354 39.9526Z" fill="black"/>
</svg>
