<svg width="82" height="82" viewBox="0 0 82 82" fill="none" xmlns="http://www.w3.org/2000/svg">
<path d="M55.6369 74.3177L54.599 70.7233C53.6394 67.4124 53.1536 63.9823 53.1562 60.5351V56.9533C53.1587 53.6592 52.4839 50.3997 51.1738 47.3773C49.8637 44.3549 47.9463 41.634 45.5405 39.3837C43.1348 37.1335 40.2921 35.4018 37.189 34.2962C34.0859 33.1907 30.7887 32.7349 27.502 32.9571C21.3438 33.4546 15.6033 36.2692 11.4388 40.833C7.27432 45.3968 4.99564 51.3702 5.06248 57.5482V60.4718C5.06248 63.8654 4.59399 67.2427 3.67029 70.5082L2.58185 74.3304C2.52589 74.5168 2.51507 74.7139 2.55028 74.9053C2.58549 75.0968 2.66572 75.2771 2.78435 75.4315C2.90318 75.5876 3.05624 75.7145 3.23177 75.8023C3.40729 75.89 3.60061 75.9364 3.79685 75.9377H20.7309C23.2134 77.5884 26.1282 78.469 29.1094 78.469C32.0905 78.469 35.0053 77.5884 37.4878 75.9377H54.4219C54.6181 75.9364 54.8114 75.89 54.9869 75.8023C55.1625 75.7145 55.3155 75.5876 55.4343 75.4315C55.553 75.2747 55.6332 75.0922 55.6684 74.8987C55.7036 74.7053 55.6928 74.5062 55.6369 74.3177ZM29.1094 75.9377C25.7544 75.9324 22.5383 74.5972 20.1659 72.2249C17.7936 69.8525 16.4585 66.6365 16.4531 63.2815V50.0937L24.224 45.6513L41.7656 50.3341V63.2815C41.7602 66.6365 40.4251 69.8525 38.0528 72.2249C35.6804 74.5972 32.4644 75.9324 29.1094 75.9377ZM40.3987 73.4065C42.6137 70.9536 43.9611 67.8408 44.2336 64.5471H45.5625C46.5685 64.5441 47.5326 64.1431 48.244 63.4317C48.9554 62.7203 49.3563 61.7563 49.3594 60.7502V58.219C49.3563 57.2129 48.9554 56.2489 48.244 55.5375C47.5326 54.8261 46.5685 54.4251 45.5625 54.4221H44.2969V49.3596C44.2981 49.0803 44.2069 48.8084 44.0375 48.5864C43.8681 48.3643 43.63 48.2045 43.3603 48.1319L24.3759 43.0694C24.0508 42.9895 23.7075 43.0347 23.414 43.196L14.5547 48.2585C14.3615 48.37 14.2013 48.5306 14.0902 48.7239C13.979 48.9173 13.921 49.1366 13.9219 49.3596V54.4221H12.6562C11.6502 54.4251 10.6862 54.8261 9.97475 55.5375C9.26335 56.2489 8.86236 57.2129 8.85935 58.219V60.7502C8.86236 61.7563 9.26335 62.7203 9.97475 63.4317C10.6862 64.1431 11.6502 64.5441 12.6562 64.5471H13.9851C14.2576 67.8408 15.605 70.9536 17.82 73.4065H5.46748L6.10029 71.1916C7.08858 67.704 7.59113 64.0967 7.59373 60.4718V57.5482C7.52789 52.0139 9.56248 46.6604 13.2874 42.5667C17.0123 38.4731 22.1506 35.9437 27.6665 35.4883C30.6067 35.2907 33.5562 35.6992 36.332 36.6884C39.1078 37.6777 41.6509 39.2266 43.8034 41.2391C45.956 43.2516 47.6722 45.6849 48.8456 48.388C50.019 51.0912 50.6247 54.0065 50.625 56.9533V60.5351C50.6249 64.2219 51.1447 67.8904 52.169 71.4321L52.7386 73.4065H40.3987ZM44.2969 62.0158V56.9533H45.5625C45.8981 56.9533 46.2201 57.0867 46.4574 57.324C46.6948 57.5614 46.8281 57.8833 46.8281 58.219V60.7502C46.8281 61.0859 46.6948 61.4078 46.4574 61.6451C46.2201 61.8825 45.8981 62.0158 45.5625 62.0158H44.2969ZM13.9219 56.9533V62.0158H12.6562C12.3206 62.0158 11.9986 61.8825 11.7613 61.6451C11.5239 61.4078 11.3906 61.0859 11.3906 60.7502V58.219C11.3906 57.8833 11.5239 57.5614 11.7613 57.324C11.9986 57.0867 12.3206 56.9533 12.6562 56.9533H13.9219Z" fill="black"/>
<path d="M78.4689 13.9219C78.4689 7.11281 71.9256 2.53125 65.8126 2.53125C59.6997 2.53125 53.1564 7.11281 53.1564 13.9219C53.0731 15.72 53.4919 17.5057 54.3659 19.0793C55.2399 20.6529 56.5345 21.9522 58.105 22.8319C58.3328 22.9838 58.5859 23.1609 58.8137 23.3381C58.3299 23.62 57.9153 24.0068 57.6007 24.47C57.286 24.9332 57.0791 25.461 56.9954 26.0147C56.9116 26.5683 56.953 27.1338 57.1165 27.6693C57.2801 28.2049 57.5616 28.697 57.9404 29.1094C57.3077 29.8008 56.9557 30.7034 56.9532 31.6406C56.9573 32.4235 57.2024 33.1862 57.6554 33.8248C58.1083 34.4634 58.747 34.947 59.4845 35.2097V36.7031C59.4875 37.7092 59.8885 38.6732 60.5999 39.3846C61.3113 40.096 62.2753 40.497 63.2814 40.5H68.3439C69.35 40.497 70.314 40.096 71.0254 39.3846C71.7368 38.6732 72.1378 37.7092 72.1408 36.7031V35.2097C72.8783 34.947 73.517 34.4634 73.9699 33.8248C74.4228 33.1862 74.668 32.4235 74.672 31.6406C74.6696 30.7034 74.3176 29.8008 73.6848 29.1094C74.0636 28.697 74.3452 28.2049 74.5087 27.6693C74.6723 27.1338 74.7137 26.5683 74.6299 26.0147C74.5461 25.461 74.3393 24.9332 74.0246 24.47C73.7099 24.0068 73.2954 23.62 72.8115 23.3381C73.0394 23.1609 73.2925 22.9838 73.5203 22.8319C75.0907 21.9522 76.3854 20.6529 77.2593 19.0793C78.1333 17.5057 78.5521 15.72 78.4689 13.9219ZM69.6095 36.7031C69.6095 37.0388 69.4762 37.3607 69.2388 37.5981C69.0015 37.8354 68.6795 37.9688 68.3439 37.9688H63.2814C62.9457 37.9688 62.6238 37.8354 62.3864 37.5981C62.1491 37.3607 62.0158 37.0388 62.0158 36.7031V35.4375H69.6095V36.7031ZM70.8751 32.9062H60.7501C60.4145 32.9062 60.0925 32.7729 59.8552 32.5356C59.6178 32.2982 59.4845 31.9763 59.4845 31.6406C59.4845 31.305 59.6178 30.983 59.8552 30.7457C60.0925 30.5083 60.4145 30.375 60.7501 30.375H70.8751C71.2108 30.375 71.5327 30.5083 71.7701 30.7457C72.0074 30.983 72.1408 31.305 72.1408 31.6406C72.1408 31.9763 72.0074 32.2982 71.7701 32.5356C71.5327 32.7729 71.2108 32.9062 70.8751 32.9062ZM70.8751 27.8438H60.7501C60.4145 27.8438 60.0925 27.7104 59.8552 27.4731C59.6178 27.2357 59.4845 26.9138 59.4845 26.5781C59.4845 26.2425 59.6178 25.9205 59.8552 25.6832C60.0925 25.4458 60.4145 25.3125 60.7501 25.3125H70.8751C71.2108 25.3125 71.5327 25.4458 71.7701 25.6832C72.0074 25.9205 72.1408 26.2425 72.1408 26.5781C72.1408 26.9138 72.0074 27.2357 71.7701 27.4731C71.5327 27.7104 71.2108 27.8438 70.8751 27.8438ZM72.0775 20.7436C71.2137 21.249 70.4776 21.9462 69.9259 22.7812H67.0783V15.1875H69.6095V12.6562H62.0158V15.1875H64.547V22.7812H61.6993C61.1477 21.9462 60.4116 21.249 59.5478 20.7436C57.7379 19.4906 55.6876 18.0731 55.6876 13.9219C55.6876 8.7075 61.0286 5.0625 65.8126 5.0625C70.5967 5.0625 75.9376 8.7075 75.9376 13.9219C75.9376 18.0731 73.8873 19.4906 72.0775 20.7436Z" fill="black"/>
<path d="M64.5469 43.0312H67.0781V45.5625H64.5469V43.0312Z" fill="black"/>
<path d="M67.0781 48.0938V59.4844C67.0781 59.82 66.9448 60.142 66.7074 60.3793C66.4701 60.6167 66.1482 60.75 65.8125 60.75H55.6875V58.2188H64.5469V48.0938H67.0781Z" fill="black"/>
<path d="M13.9219 18.9844C14.9231 18.9844 15.9019 18.6875 16.7344 18.1312C17.567 17.5749 18.2158 16.7843 18.599 15.8592C18.9822 14.9342 19.0824 13.9163 18.8871 12.9342C18.6918 11.9522 18.2096 11.0502 17.5016 10.3421C16.7936 9.63415 15.8915 9.15199 14.9095 8.95665C13.9275 8.76131 12.9096 8.86157 11.9845 9.24474C11.0595 9.62791 10.2688 10.2768 9.71256 11.1093C9.15629 11.9418 8.85938 12.9206 8.85938 13.9219C8.85938 15.2645 9.39274 16.5522 10.3421 17.5016C11.2915 18.451 12.5792 18.9844 13.9219 18.9844ZM13.9219 11.3906C14.4225 11.3906 14.9119 11.5391 15.3282 11.8172C15.7444 12.0954 16.0689 12.4907 16.2604 12.9532C16.452 13.4157 16.5022 13.9247 16.4045 14.4157C16.3068 14.9067 16.0657 15.3577 15.7117 15.7117C15.3577 16.0657 14.9067 16.3068 14.4157 16.4045C13.9247 16.5022 13.4157 16.452 12.9532 16.2604C12.4907 16.0689 12.0954 15.7444 11.8172 15.3282C11.5391 14.9119 11.3906 14.4225 11.3906 13.9219C11.3906 13.2505 11.6573 12.6067 12.132 12.132C12.6067 11.6573 13.2505 11.3906 13.9219 11.3906Z" fill="black"/>
<path d="M24.3506 10.163L23.5027 9.94781L23.9583 9.20109C24.1031 8.95932 24.163 8.67615 24.1286 8.39645C24.0942 8.11675 23.9675 7.85653 23.7684 7.65703L20.1867 4.07531C19.9856 3.87897 19.7257 3.75405 19.4467 3.71976C19.1678 3.68546 18.8853 3.74368 18.6427 3.88547L17.8959 4.34109L17.6808 3.49312C17.6129 3.21873 17.4552 2.97495 17.2327 2.80062C17.0102 2.6263 16.7358 2.53147 16.4531 2.53125H11.3906C11.108 2.53147 10.8335 2.6263 10.611 2.80062C10.3885 2.97495 10.2308 3.21873 10.163 3.49312L9.94781 4.34109L9.20109 3.88547C8.95844 3.74368 8.67596 3.68546 8.39702 3.71976C8.11808 3.75405 7.85811 3.87897 7.65703 4.07531L4.07531 7.65703C3.87629 7.85653 3.74953 8.11675 3.71514 8.39645C3.68075 8.67615 3.7407 8.95932 3.88547 9.20109L4.34109 9.94781L3.49312 10.163C3.21873 10.2308 2.97495 10.3885 2.80062 10.611C2.6263 10.8335 2.53147 11.108 2.53125 11.3906V16.4531C2.53147 16.7358 2.6263 17.0102 2.80062 17.2327C2.97495 17.4552 3.21873 17.6129 3.49312 17.6808L4.34109 17.8959L3.88547 18.6427C3.7407 18.8844 3.68075 19.1676 3.71514 19.4473C3.74953 19.727 3.87629 19.9872 4.07531 20.1867L7.65703 23.7684C7.85811 23.9648 8.11808 24.0897 8.39702 24.124C8.67596 24.1583 8.95844 24.1001 9.20109 23.9583L9.94781 23.5027L10.163 24.3506C10.2308 24.625 10.3885 24.8688 10.611 25.0431C10.8335 25.2175 11.108 25.3123 11.3906 25.3125H16.4531C16.7358 25.3123 17.0102 25.2175 17.2327 25.0431C17.4552 24.8688 17.6129 24.625 17.6808 24.3506L17.8959 23.5027L18.6427 23.9583C18.8853 24.1001 19.1678 24.1583 19.4467 24.124C19.7257 24.0897 19.9856 23.9648 20.1867 23.7684L23.7684 20.1867C23.9675 19.9872 24.0942 19.727 24.1286 19.4473C24.163 19.1676 24.1031 18.8844 23.9583 18.6427L23.5027 17.8959L24.3506 17.6808C24.625 17.6129 24.8688 17.4552 25.0431 17.2327C25.2175 17.0102 25.3123 16.7358 25.3125 16.4531V11.3906C25.3123 11.108 25.2175 10.8335 25.0431 10.611C24.8688 10.3885 24.625 10.2308 24.3506 10.163ZM22.7812 15.4659L21.2372 15.8456C21.0456 15.8948 20.8682 15.9879 20.7188 16.1175C20.5694 16.2471 20.4522 16.4096 20.3766 16.5923C20.2999 16.7756 20.2679 16.9745 20.2833 17.1726C20.2987 17.3706 20.3611 17.5622 20.4652 17.7314L21.2752 19.0983L19.0983 21.2752L17.7314 20.4525C17.5601 20.3533 17.3683 20.2948 17.1707 20.2816C16.9732 20.2685 16.7753 20.3009 16.5923 20.3766C16.4096 20.4522 16.2471 20.5694 16.1175 20.7188C15.9879 20.8682 15.8948 21.0456 15.8456 21.2372L15.4659 22.7812H12.3778L11.9981 21.2372C11.949 21.0456 11.8559 20.8682 11.7263 20.7188C11.5967 20.5694 11.4341 20.4522 11.2514 20.3766C11.0685 20.3009 10.8705 20.2685 10.673 20.2816C10.4755 20.2948 10.2836 20.3533 10.1123 20.4525L8.74547 21.2752L6.56859 19.0983L7.37859 17.7314C7.4827 17.5622 7.54503 17.3706 7.56043 17.1726C7.57584 16.9745 7.54387 16.7756 7.46719 16.5923C7.3915 16.4096 7.27434 16.2471 7.12497 16.1175C6.9756 15.9879 6.79811 15.8948 6.60656 15.8456L5.0625 15.4659V12.3778L6.60656 11.9981C6.79811 11.949 6.9756 11.8559 7.12497 11.7263C7.27434 11.5967 7.3915 11.4341 7.46719 11.2514C7.54387 11.0681 7.57584 10.8692 7.56043 10.6712C7.54503 10.4731 7.4827 10.2816 7.37859 10.1123L6.56859 8.74547L8.74547 6.56859L10.1123 7.37859C10.2816 7.4827 10.4731 7.54503 10.6712 7.56043C10.8692 7.57584 11.0681 7.54387 11.2514 7.46719C11.4341 7.3915 11.5967 7.27434 11.7263 7.12497C11.8559 6.9756 11.949 6.79811 11.9981 6.60656L12.3778 5.0625H15.4659L15.8456 6.60656C15.8948 6.79811 15.9879 6.9756 16.1175 7.12497C16.2471 7.27434 16.4096 7.3915 16.5923 7.46719C16.7756 7.54387 16.9745 7.57584 17.1726 7.56043C17.3706 7.54503 17.5622 7.4827 17.7314 7.37859L19.0983 6.56859L21.2752 8.74547L20.4652 10.1123C20.3611 10.2816 20.2987 10.4731 20.2833 10.6712C20.2679 10.8692 20.2999 11.0681 20.3766 11.2514C20.4522 11.4341 20.5694 11.5967 20.7188 11.7263C20.8682 11.8559 21.0456 11.949 21.2372 11.9981L22.7812 12.3778V15.4659Z" fill="black"/>
<path d="M27.8438 12.6562H30.375V15.1875H27.8438V12.6562Z" fill="black"/>
<path d="M32.9062 12.6562H50.625V15.1875H32.9062V12.6562Z" fill="black"/>
<path d="M12.6562 27.8438H15.1875V35.4375H12.6562V27.8438Z" fill="black"/>
</svg>
