<svg width="81" height="73" viewBox="0 0 81 73" fill="none" xmlns="http://www.w3.org/2000/svg">
<g>
<path d="M66.8413 38.9016C66.1903 38.9016 65.6625 39.3707 65.6625 39.9494C65.6625 40.683 64.9911 41.2799 64.1657 41.2799C63.3406 41.2799 62.669 40.683 62.669 39.9494C62.669 39.3706 62.1412 38.9016 61.4902 38.9016C60.8392 38.9016 60.3114 39.3707 60.3114 39.9494C60.3114 41.8386 62.0406 43.3755 64.1657 43.3755C66.2909 43.3755 68.02 41.8384 68.02 39.9494C68.02 39.3705 67.4923 38.9016 66.8413 38.9016Z" fill="black"/>
<path d="M77.9062 39.0727L74.5883 38.128C74.1634 38.0069 73.8285 37.7054 73.6926 37.3214C72.9933 35.3452 71.9381 33.4899 70.5562 31.8069C69.9264 31.0398 69.2261 30.3073 68.461 29.6099C68.9505 27.7012 69.2166 25.5411 69.1821 23.6748C69.1327 21.0051 68.5325 19.4392 67.3472 18.8874C66.7089 18.5898 64.7662 17.6859 54.2509 21.9646C54.0019 22.0658 53.7693 22.1905 53.554 22.3334C52.8451 22.1641 52.1205 22.0074 51.3915 21.8668C51.3037 21.8498 51.2132 21.8348 51.1248 21.8182C51.9769 20.1636 52.4744 18.3665 52.5679 16.5114C52.597 15.9332 52.0934 15.4435 51.4429 15.4178C50.7941 15.3891 50.2415 15.8394 50.2126 16.4176C50.059 19.4679 48.6354 22.3379 46.2045 24.4989C44.752 25.79 43.0513 26.7278 41.2388 27.3184C38.0955 26.9264 34.8938 26.9264 31.7504 27.3184C29.9377 26.7278 28.2372 25.79 26.7847 24.4989C24.1912 22.1935 22.7627 19.1283 22.7627 15.8679C22.7627 12.6074 24.1912 9.54231 26.7847 7.2369C29.3783 4.93136 32.8268 3.66165 36.4946 3.66165C40.1624 3.66165 43.6109 4.93136 46.2045 7.2369C47.2467 8.16334 48.108 9.22056 48.7644 10.3789C49.0572 10.8958 49.7661 11.1039 50.3475 10.8435C50.9291 10.5834 51.1631 9.95322 50.8702 9.43642C50.1009 8.07812 49.092 6.83964 47.8718 5.75486C44.8329 3.05359 40.7924 1.56592 36.4948 1.56592C32.1972 1.56592 28.1567 3.05359 25.1178 5.75486C22.0788 8.45626 20.4052 12.0477 20.4052 15.8678C20.4052 19.6878 22.0788 23.2794 25.1178 25.9807C25.9944 26.7599 26.948 27.4299 27.9567 27.9913C27.957 27.9913 27.9573 27.9912 27.9577 27.9912C27.2247 28.1605 26.4973 28.3506 25.7779 28.5644C25.1605 28.7479 24.8273 29.3415 25.0337 29.8905C25.24 30.4393 25.9081 30.7355 26.5254 30.5521C32.9542 28.6417 40.0354 28.6417 46.4641 30.5521C46.5881 30.5889 46.7141 30.6064 46.8379 30.6064C47.3311 30.6064 47.7908 30.3291 47.9558 29.8905C48.1623 29.3416 47.8291 28.7479 47.2116 28.5644C46.4923 28.3506 45.7648 28.1604 45.0319 27.9912C45.0322 27.9912 45.0325 27.9913 45.0328 27.9913C46.0417 27.4299 46.9952 26.7599 47.8718 25.9807C48.6473 25.2913 49.3319 24.5386 49.9262 23.7385C50.2512 23.7947 50.5737 23.8534 50.8916 23.9147C51.3149 23.9964 51.7364 24.0842 52.154 24.1763C52.1409 24.2219 52.1275 24.2673 52.1165 24.3136C51.5416 26.7386 51.579 28.8834 52.2274 30.6881C52.8103 32.3102 53.8622 33.6243 55.3535 34.5942C57.1113 35.7372 59.2335 36.231 61.1558 36.231C62.6026 36.231 63.9364 35.9511 64.916 35.4579C66.024 34.9001 66.9524 33.7246 67.6872 31.9598C68.0269 32.3122 68.3488 32.6732 68.6523 33.0427C69.8826 34.5409 70.8219 36.1922 71.4439 37.9502C71.8092 38.9829 72.716 39.7954 73.8695 40.124L77.1873 41.0687C78.0579 41.3167 78.6428 42.0289 78.6428 42.8415V47.7317C78.6428 48.5442 78.0579 49.2565 77.1873 49.5044L71.8418 51.0264C70.9865 51.2701 70.2628 51.7925 69.8038 52.4976C67.7037 55.7238 64.4018 58.3936 59.9894 60.4328C59.4796 60.6686 59.1265 61.0904 59.0202 61.5902L57.3081 69.6484C57.2608 69.8704 57.042 70.0314 56.7878 70.0314H51.2211C50.9669 70.0314 50.7481 69.8703 50.7008 69.6484L49.7525 65.1949C49.5658 64.3187 48.6413 63.7367 47.6462 63.8707C45.2483 64.193 42.7775 64.3562 40.3027 64.3562C38.4616 64.3562 36.644 64.265 34.9001 64.0848C33.9358 63.9863 33.0376 64.5706 32.8574 65.4168L31.9562 69.6484C31.9089 69.8704 31.6901 70.0314 31.4359 70.0314H25.8692C25.615 70.0314 25.3962 69.8703 25.3483 69.645L23.6998 62.0341C23.5936 61.5437 23.2472 61.1268 22.7487 60.8901C15.2271 57.3209 11.2514 51.3579 11.2514 43.646C11.2514 39.7495 12.2104 36.3041 14.1018 33.405C15.8667 30.6995 18.4444 28.4626 21.7634 26.7561C22.3269 26.4662 22.5194 25.8253 22.1935 25.3242C21.8676 24.8233 21.1465 24.6525 20.5829 24.9419C14.1473 28.2511 10.2658 33.3563 9.19714 39.8405V39.8404C9.08371 39.8312 8.97012 39.8225 8.857 39.8121C8.87757 39.1125 8.73519 38.4066 8.42511 37.7215C7.7412 36.2103 6.33635 35.1196 4.84592 34.9428C3.67142 34.8031 2.55372 35.2463 1.77805 36.1573C0.653379 37.4783 0.836736 38.5237 1.18842 39.1681C1.78216 40.2555 3.30834 41.0247 5.84102 41.5083C5.77141 41.601 5.69484 41.6941 5.61099 41.7876C4.11455 43.4559 2.35153 43.8247 1.20677 43.8594C0.536625 43.8796 0 44.3578 0 44.9539V44.959C0 45.5469 0.521912 46.0265 1.18273 46.0533C1.26737 46.0569 1.3558 46.0587 1.44788 46.0587C2.89638 46.0587 5.22118 45.5838 7.45469 43.0943C7.80732 42.7014 8.09462 42.2868 8.31547 41.8585C8.53791 41.8809 8.75164 41.9 8.95635 41.9169C8.95635 41.9164 8.95635 41.9162 8.95651 41.9157C8.91633 42.4836 8.89402 43.0597 8.89402 43.646C8.89402 48.0093 10.0643 51.8997 12.372 55.2096C14.4998 58.2611 17.5463 60.7598 21.4299 62.6388L23.0325 70.0379C23.2902 71.2484 24.4832 72.127 25.8692 72.127H31.4359C32.8219 72.127 34.0149 71.2484 34.2727 70.0379L35.0874 66.2118C36.7795 66.3711 38.5315 66.4518 40.3026 66.4518C42.7326 66.4518 45.1597 66.3014 47.5252 66.0044L48.3841 70.0382C48.6419 71.2487 49.8349 72.1272 51.2208 72.1272H56.7875C58.1735 72.1272 59.3665 71.2486 59.6244 70.0376L61.2914 62.192C66.0008 59.9785 69.5505 57.0706 71.8442 53.5471C72.0095 53.2931 72.264 53.1068 72.5608 53.0223L77.9062 51.5003C79.7567 50.9731 81 49.4587 81 47.7314V42.8412C81 41.114 79.7567 39.5996 77.9062 39.0727ZM66.6475 26.6194C66.1938 30.0684 64.9767 33.0187 63.7538 33.6343C62.3638 34.3342 59.1547 34.4694 56.7453 32.9027C54.333 31.3341 53.5301 28.5135 54.4231 24.7456C54.4231 24.7454 54.4231 24.7454 54.4231 24.7454C54.5128 24.367 54.8153 24.0396 55.2322 23.87C61.1338 21.4687 64.5363 20.6833 65.8003 20.6833C65.9911 20.6833 66.1332 20.7012 66.2278 20.7341C66.6075 21.0938 67.1055 23.1386 66.6475 26.6194ZM3.30977 38.253C3.18779 38.0294 3.47572 37.6364 3.65829 37.4218C3.94764 37.082 4.21422 37.0126 4.41561 37.0126C4.45816 37.0126 4.49787 37.0157 4.53426 37.02C5.07626 37.0843 5.83564 37.6144 6.23795 38.5033C6.33271 38.7126 6.4558 39.0592 6.48459 39.4915C4.85272 39.191 3.58488 38.7577 3.30977 38.253Z" fill="black"/>
<path d="M33.9296 8.37268C34.4336 8.27668 34.9856 8.20468 35.5856 8.15668C36.1976 8.09668 36.8036 8.06668 37.4036 8.06668C38.0276 8.06668 38.6516 8.12068 39.2756 8.22868C39.9116 8.32468 40.4816 8.52868 40.9856 8.84068C41.4896 9.14068 41.8976 9.56668 42.2096 10.1187C42.5336 10.6587 42.6956 11.3667 42.6956 12.2427C42.6956 13.0347 42.5576 13.7067 42.2816 14.2587C42.0056 14.7987 41.6396 15.2427 41.1836 15.5907C40.7276 15.9387 40.2056 16.1907 39.6176 16.3467C39.0416 16.5027 38.4416 16.5807 37.8176 16.5807C37.7576 16.5807 37.6616 16.5807 37.5296 16.5807C37.3976 16.5807 37.2596 16.5807 37.1156 16.5807C36.9716 16.5687 36.8276 16.5567 36.6836 16.5447C36.5516 16.5327 36.4556 16.5207 36.3956 16.5087V20.8467H33.9296V8.37268ZM37.6016 10.1907C37.3616 10.1907 37.1336 10.2027 36.9176 10.2267C36.7016 10.2387 36.5276 10.2567 36.3956 10.2807V14.3667C36.4436 14.3787 36.5156 14.3907 36.6116 14.4027C36.7076 14.4147 36.8096 14.4267 36.9176 14.4387C37.0256 14.4387 37.1276 14.4387 37.2236 14.4387C37.3316 14.4387 37.4096 14.4387 37.4576 14.4387C37.7816 14.4387 38.0996 14.4087 38.4116 14.3487C38.7356 14.2887 39.0236 14.1807 39.2756 14.0247C39.5276 13.8567 39.7256 13.6287 39.8696 13.3407C40.0256 13.0527 40.1036 12.6747 40.1036 12.2067C40.1036 11.8107 40.0316 11.4867 39.8876 11.2347C39.7436 10.9707 39.5516 10.7607 39.3116 10.6047C39.0836 10.4487 38.8196 10.3407 38.5196 10.2807C38.2196 10.2207 37.9136 10.1907 37.6016 10.1907Z" fill="black"/>
<rect x="31.5" y="17.8467" width="6.75" height="2" fill="black"/>
</g>
</svg>
