<svg width="81" height="72" viewBox="0 0 81 72" fill="none" xmlns="http://www.w3.org/2000/svg">
<path d="M56.2946 20.0098C55.8877 20.3714 55.8877 20.9578 56.2946 21.3194C56.7015 21.681 57.3611 21.681 57.7679 21.3194L61.2295 18.2424C61.9209 17.6279 62.3015 16.811 62.3015 15.9422C62.3015 15.0735 61.9209 14.2566 61.2295 13.6421C59.8028 12.3738 57.4812 12.3739 56.0541 13.6421L48.0257 20.7797L39.9971 13.642C38.5703 12.3738 36.2486 12.3738 34.8218 13.642C33.3951 14.9104 33.3951 16.974 34.8218 18.2422L42.8504 25.3788L34.8223 32.5159C34.1306 33.1298 33.7499 33.9464 33.7499 34.8154C33.7499 35.6842 34.1306 36.501 34.8218 37.1154C35.5132 37.7298 36.4318 38.0682 37.4088 38.0682C38.3867 38.0682 39.3059 37.7299 39.9971 37.1154L48.0257 29.979L56.0543 37.1155C56.7456 37.7299 57.6648 38.0684 58.6426 38.0684C59.6197 38.0684 60.5383 37.73 61.2295 37.1155C61.9209 36.5011 62.3015 35.6843 62.3015 34.8155C62.3015 33.9465 61.9206 33.1298 61.2296 32.5165L53.2011 25.3789L54.8203 23.9395C55.2272 23.5779 55.2272 22.9915 54.8203 22.6298C54.4136 22.2682 53.7539 22.2682 53.3471 22.6298L50.9911 24.724C50.5843 25.0856 50.5843 25.6719 50.9911 26.0335L59.7569 33.8266C60.0543 34.0906 60.218 34.4417 60.218 34.8155C60.218 35.1895 60.054 35.5412 59.7564 35.8058C59.4587 36.0704 59.0632 36.2161 58.6427 36.2161C58.2214 36.2161 57.8254 36.0704 57.5277 35.8058L48.7625 28.0145C48.3556 27.6528 47.6959 27.6528 47.2892 28.0145L38.5239 35.8058C38.2263 36.0704 37.8304 36.2161 37.409 36.2161C36.9886 36.2161 36.5931 36.0704 36.2954 35.8058C35.9977 35.5412 35.8338 35.1895 35.8338 34.8155C35.8338 34.4417 35.9976 34.0905 36.2955 33.8261L45.0608 26.0335C45.4676 25.6719 45.4675 25.0856 45.0608 24.724L36.2955 16.9326C35.6811 16.3865 35.6811 15.4979 36.2955 14.9517C36.9101 14.4056 37.91 14.4056 38.5241 14.9517L47.2893 22.7443C47.4848 22.918 47.7497 23.0156 48.0261 23.0156C48.3025 23.0156 48.5674 22.918 48.7629 22.7443L57.528 14.9517C58.1424 14.4056 59.1422 14.4056 59.7565 14.9517C60.0542 15.2163 60.2181 15.5681 60.2181 15.9421C60.2181 16.3161 60.0542 16.6679 59.7565 16.9326L56.2946 20.0098Z" fill="black"/>
<path d="M71.6277 25.9323C71.4456 20.3386 68.8267 15.0194 64.2535 10.9544C59.6803 6.88918 53.6961 4.56129 47.4033 4.39954C41.0865 4.23754 35.2173 6.27377 30.8741 10.1345C27.1305 13.4622 24.8571 17.9349 24.4728 22.7288C24.15 26.7549 25.1636 30.8566 27.3448 34.4809C23.6809 34.1184 20.1301 36.0594 18.8888 39.1986L17.6733 42.2694C17.4823 42.7518 17.7675 43.2806 18.3102 43.4503C18.4247 43.4861 18.5412 43.5031 18.656 43.5031C19.0856 43.5031 19.488 43.2649 19.6388 42.8841L20.8544 39.813C21.8334 37.3372 24.7538 35.8686 27.6469 36.3963L28.8039 36.6083C29.6839 37.7439 30.6885 38.8179 31.7977 39.8038C32.9265 40.8072 34.1565 41.7125 35.464 42.508L31.2268 46.2743C30.8199 46.636 30.8199 47.2223 31.2268 47.5839C31.6337 47.9456 32.2933 47.9456 32.7001 47.5839L44.6352 36.9749C46.2627 35.5284 48.9106 35.5283 50.5379 36.9749C51.3265 37.6757 51.7608 38.608 51.7608 39.5985C51.7595 40.5903 51.3253 41.5219 50.5379 42.2217L42.0283 49.7871C41.857 49.9393 41.7508 50.14 41.7278 50.3543L41.3903 53.5142C41.1215 56.0348 39.8035 58.3519 37.6789 60.0385C35.5541 61.7253 32.8143 62.6281 29.9671 62.5821L26.6639 62.5278C26.3795 62.5234 26.1081 62.621 25.9079 62.799L23.0107 65.3742L13.1408 56.601L14.624 55.2826C14.7343 55.1846 14.8183 55.0659 14.8701 54.9352L18.2595 46.3709C18.4505 45.8885 18.1652 45.3598 17.6225 45.19C17.0795 45.0202 16.4849 45.2738 16.2939 45.7562L12.983 54.122L10.9308 55.9462C10.5239 56.3079 10.5239 56.8941 10.9308 57.2558L22.274 67.3388C22.4774 67.5197 22.7441 67.6101 23.0107 67.6101C23.2772 67.6101 23.5439 67.5197 23.7473 67.3388L27.0681 64.3871L29.9288 64.4342C33.3017 64.4889 36.5493 63.4188 39.0669 61.4201C41.5843 59.4215 43.1463 56.6761 43.4646 53.6893L43.7668 50.8612L48.8277 46.3619C49.0058 46.3653 49.1837 46.3674 49.3612 46.3674C55.4042 46.3672 60.9888 44.3466 65.1757 40.6248C69.5192 36.7644 71.8105 31.5464 71.6277 25.9323V25.9323ZM63.7026 39.3154C60.2844 42.3537 55.8307 44.1385 50.9662 44.461L52.0115 43.5317C53.1918 42.4825 53.8429 41.0865 53.8447 39.5999C53.8447 38.1135 53.1938 36.7163 52.0115 35.6656C49.5718 33.4968 45.6018 33.4968 43.1621 35.6656L36.9649 41.1739C35.6422 40.3978 34.4019 39.4994 33.2711 38.4943C32.1561 37.5031 31.1548 36.4167 30.295 35.2646C27.5355 31.5712 26.2059 27.166 26.5511 22.8605C26.8997 18.5111 28.9582 14.4566 32.3474 11.4442C36.2808 7.94773 41.6039 6.1035 47.343 6.25093C53.1021 6.39898 58.5844 8.53449 62.7801 12.2641C66.9757 15.9937 69.3782 20.8669 69.5449 25.9861C69.711 31.0851 67.6361 35.8189 63.7026 39.3154Z" fill="black"/>
</svg>
