<svg width="82" height="82" viewBox="0 0 82 82" fill="none" xmlns="http://www.w3.org/2000/svg">
<path d="M76.2597 37.0541L74.1362 28.5602C74.7167 28.4369 75.1524 27.9218 75.1524 27.3047V25.9352C75.1524 22.9618 72.7332 20.5428 69.7599 20.5428H60.0877V17.7179C60.0877 16.2547 58.8975 15.0645 57.4343 15.0645H8.13145C6.66827 15.0645 5.47798 16.2547 5.47798 17.7179V40.9998C5.47798 41.7088 6.05279 42.2838 6.76196 42.2838C7.47097 42.2838 8.04593 41.709 8.04593 40.9998V17.7179C8.04593 17.6707 8.08421 17.6324 8.13145 17.6324H57.4341C57.4814 17.6324 57.5196 17.6707 57.5196 17.7179V41.0002C57.5196 41.7092 58.0944 42.2841 58.8036 42.2841C59.5126 42.2841 60.0876 41.7093 60.0876 41.0002V39.5447H75.2334C75.2347 39.5447 75.2356 39.545 75.2368 39.545C75.238 39.545 75.2392 39.5448 75.2403 39.5448C77.104 39.5461 78.6865 40.7694 79.2301 42.455H75.2377C74.5287 42.455 73.9538 43.0298 73.9538 43.739V46.478C73.9538 48.6963 75.7584 50.5009 77.9767 50.5009H79.4319V56.1501H76.0747C74.9719 52.9657 71.9447 50.672 68.3901 50.672C64.8354 50.672 61.8081 52.9657 60.7055 56.1501H60.0873V46.4778C60.0873 45.7688 59.5125 45.1938 58.8033 45.1938C58.0943 45.1938 57.5193 45.7686 57.5193 46.4778V56.1498H30.8808C29.778 52.9654 26.7509 50.6717 23.1962 50.6717C19.6416 50.6717 16.6143 52.9654 15.5116 56.1498H8.13145C8.08421 56.1498 8.04593 56.1115 8.04593 56.0643V53.2396H13.6096C14.3186 53.2396 14.8936 52.6648 14.8936 51.9556C14.8936 51.2465 14.3188 50.6717 13.6096 50.6717H1.28397C0.574961 50.6717 0 51.2465 0 51.9556C0 52.6648 0.574801 53.2396 1.28397 53.2396H5.47814V56.0643C5.47814 57.5275 6.66843 58.7178 8.13161 58.7178H15.067C15.0667 58.7463 15.0648 58.7746 15.0648 58.8033C15.0648 63.287 18.7127 66.9347 23.1962 66.9347C27.6798 66.9347 31.3277 63.287 31.3277 58.8033C31.3277 58.7745 31.3258 58.7463 31.3254 58.7178H60.2609C60.2606 58.7463 60.2586 58.7746 60.2586 58.8033C60.2586 63.287 63.9065 66.9347 68.3901 66.9347C72.8737 66.9347 76.5215 63.287 76.5215 58.8033C76.5215 58.7745 76.5196 58.7463 76.5193 58.7178H80.7159C81.4249 58.7178 81.9998 58.143 81.9998 57.4338V43.7387C82 40.3575 79.5052 37.5481 76.2597 37.0541ZM60.0877 23.1105H69.7599C71.3174 23.1105 72.5846 24.3777 72.5846 25.9352V26.0207H60.0877V23.1105ZM60.0877 36.9769V28.5885H71.4965L73.5936 36.9769H60.0877ZM23.1962 64.3673C20.1284 64.3673 17.6326 61.8716 17.6326 58.8036C17.6326 55.7357 20.1284 53.2399 23.1962 53.2399C26.264 53.2399 28.7599 55.7357 28.7599 58.8036C28.7599 61.8716 26.264 64.3673 23.1962 64.3673ZM68.3904 64.3673C65.3226 64.3673 62.8267 61.8716 62.8267 58.8036C62.8267 55.7357 65.3226 53.2399 68.3904 53.2399C71.4582 53.2399 73.9541 55.7357 73.9541 58.8036C73.9541 61.8716 71.4582 64.3673 68.3904 64.3673ZM79.4322 47.933H77.977C77.1747 47.933 76.5219 47.2802 76.5219 46.4778V45.0226H79.4321V47.933H79.4322Z" fill="#333333"/>
<path d="M23.196 56.1504C21.7328 56.1504 20.5425 57.3407 20.5425 58.8039C20.5425 60.267 21.7328 61.4573 23.196 61.4573C24.6591 61.4573 25.8494 60.267 25.8494 58.8039C25.8494 57.3407 24.6591 56.1504 23.196 56.1504Z" fill="#333333"/>
<path d="M68.3903 56.1504C66.9271 56.1504 65.7368 57.3407 65.7368 58.8039C65.7368 60.267 66.9271 61.4573 68.3903 61.4573C69.8535 61.4573 71.0438 60.267 71.0438 58.8039C71.0438 57.3407 69.8535 56.1504 68.3903 56.1504Z" fill="#333333"/>
<path d="M53.3254 50.6724H34.1521C33.4431 50.6724 32.8682 51.2472 32.8682 51.9563C32.8682 52.6655 33.443 53.2403 34.1521 53.2403H53.3254C54.0344 53.2403 54.6094 52.6655 54.6094 51.9563C54.6094 51.2472 54.0346 50.6724 53.3254 50.6724Z" fill="#333333"/>
<path d="M20.457 45.1943H4.02274C3.31373 45.1943 2.73877 45.7691 2.73877 46.4783C2.73877 47.1875 3.31357 47.7623 4.02274 47.7623H20.457C21.166 47.7623 21.741 47.1875 21.741 46.4783C21.741 45.7691 21.166 45.1943 20.457 45.1943Z" fill="#333333"/>
<path d="M44.6468 27.7661C44.1455 27.2648 43.3324 27.2648 42.8311 27.7662L31.4132 39.1839L25.4735 33.2442C24.9721 32.7428 24.1591 32.7428 23.6578 33.2442C23.1564 33.7457 23.1564 34.5585 23.6578 35.0599L30.5055 41.9076C30.7561 42.1584 31.0848 42.2836 31.4132 42.2836C31.7417 42.2836 32.0705 42.1584 32.321 41.9076L44.6466 29.5819C45.1481 29.0803 45.1481 28.2675 44.6468 27.7661Z" fill="#333333"/>
</svg>
