<svg width="81" height="72" viewBox="0 0 81 72" fill="none" xmlns="http://www.w3.org/2000/svg">
<path d="M23.8584 63.4715C22.777 63.4715 21.6956 63.129 20.7515 62.4434C18.8613 61.0706 18.1074 58.7485 18.8313 56.5272L24.2303 39.959L10.1059 29.7615C8.21103 28.3933 7.45123 26.0724 8.17011 23.8486C8.88898 21.6248 10.8636 20.1878 13.2008 20.1878H30.6109L35.9226 3.66862C36.6382 1.44295 38.6115 0.00295312 40.9495 0H40.9564C43.2913 0 45.2649 1.43452 45.9853 3.65653L51.3448 20.1878H53.2324C54.0091 20.1878 54.6386 20.8176 54.6386 21.5941C54.6386 22.3706 54.0091 23.0003 53.2324 23.0003H50.3223C49.7128 23.0003 49.1726 22.6076 48.9845 22.0278L43.3098 4.52391C42.9007 3.26194 41.8262 2.8125 40.9558 2.8125C40.9549 2.8125 40.9539 2.8125 40.9529 2.8125C40.082 2.81363 39.0066 3.26517 38.6001 4.52953L32.9747 22.0245C32.7876 22.606 32.2468 23.0003 31.6359 23.0003H13.2008C11.8732 23.0003 11.1139 23.8854 10.8462 24.7137C10.5784 25.5421 10.6759 26.704 11.7522 27.4814L26.7083 38.2793C27.2038 38.637 27.4115 39.2739 27.2221 39.8551L21.5053 57.3988C21.0941 58.6606 21.6999 59.6565 22.4042 60.1677C23.1083 60.679 24.243 60.9467 25.3154 60.1654L40.2285 49.2999C40.7214 48.9406 41.3899 48.94 41.8834 49.2989L56.7439 60.0999C57.8179 60.8804 58.9523 60.6108 59.656 60.0982C60.3596 59.5855 60.964 58.5883 60.5501 57.3268L54.8234 39.871C54.633 39.2902 54.8393 38.6529 55.3342 38.2942L70.2514 27.4781C71.3251 26.6996 71.421 25.5383 71.1527 24.7112C70.8844 23.884 70.1251 23.0002 68.7989 23.0002H65.8888C65.1121 23.0002 64.4825 22.3705 64.4825 21.594C64.4825 20.8174 65.1121 20.1877 65.8888 20.1877H68.7989C71.1335 20.1877 73.1076 21.6226 73.8279 23.8434C74.5483 26.0641 73.7925 28.3846 71.9023 29.755L57.8157 39.9689L63.2225 56.45C63.9511 58.6707 63.2013 60.995 61.3123 62.3713C59.4234 63.7474 56.9812 63.749 55.0905 62.3746L41.0577 52.1754L26.9717 62.4382C26.0264 63.1271 24.9424 63.4715 23.8584 63.4715Z" fill="black"/>
<path d="M41 71.9998C40.2233 71.9998 39.5938 71.3701 39.5938 70.5935V59.2202C39.5938 58.4437 40.2233 57.814 41 57.814C41.7767 57.814 42.4062 58.4437 42.4062 59.2202V70.5935C42.4062 71.3701 41.7767 71.9998 41 71.9998Z" fill="black"/>
<path d="M75.303 47.0776C75.159 47.0776 75.0126 47.0552 74.8682 47.0084L64.0516 43.4939C63.3131 43.2539 62.9088 42.4605 63.1488 41.7219C63.3887 40.9833 64.1821 40.5796 64.9208 40.8189L75.7374 44.3334C76.476 44.5735 76.8803 45.3669 76.6402 46.1055C76.447 46.6997 75.8958 47.0776 75.303 47.0776Z" fill="black"/>
<path d="M55.5141 15.9535C55.2275 15.9535 54.9384 15.8661 54.6886 15.6847C54.0603 15.2283 53.9211 14.3488 54.3776 13.7205L61.0626 4.51924C61.5192 3.89093 62.3984 3.75157 63.0268 4.20818C63.6551 4.66465 63.7944 5.54412 63.3379 6.17243L56.6529 15.3737C56.3778 15.7525 55.9489 15.9535 55.5141 15.9535Z" fill="black"/>
<path d="M26.4861 15.9534C26.0512 15.9534 25.6224 15.7523 25.3472 15.3736L18.6622 6.17249C18.2057 5.54418 18.3451 4.66471 18.9732 4.20824C19.6017 3.75149 20.481 3.89099 20.9375 4.5193L27.6225 13.7205C28.079 14.3488 27.9396 15.2283 27.3115 15.6848C27.062 15.8661 26.7727 15.9534 26.4861 15.9534Z" fill="black"/>
<path d="M6.6969 47.0778C6.10403 47.0778 5.55292 46.7 5.3597 46.1057C5.11979 45.3671 5.52395 44.5737 6.26251 44.3337L17.0791 40.8192C17.8179 40.5793 18.6111 40.9834 18.8511 41.7221C19.0912 42.4607 18.6869 43.2541 17.9483 43.4941L7.13185 47.0087C6.98743 47.0555 6.8409 47.0778 6.6969 47.0778Z" fill="black"/>
<path d="M59.561 23.0005C59.1912 23.0005 58.8284 22.8502 58.5668 22.5885C58.3053 22.3269 58.1548 21.9641 58.1548 21.5942C58.1548 21.2244 58.3053 20.8616 58.5668 20.6002C58.8284 20.3386 59.1898 20.188 59.561 20.188C59.9309 20.188 60.2937 20.3385 60.5553 20.6002C60.8168 20.8616 60.9673 21.2244 60.9673 21.5942C60.9673 21.9641 60.8168 22.3269 60.5553 22.5885C60.2937 22.85 59.9309 23.0005 59.561 23.0005Z" fill="black"/>
</svg>
