<svg width="45" height="45" viewBox="0 0 45 45" fill="none" xmlns="http://www.w3.org/2000/svg">
<g>
<path d="M42.417 3.36548H2.58301C1.173 3.36548 0 4.49679 0 5.90679V32.6304C0.0135216 34.0479 1.16549 35.1905 2.58301 35.1924H15.5886L14.2259 40.0962H11.457C11.0322 40.0962 10.6877 40.4407 10.6877 40.8655C10.6877 41.2903 11.0322 41.6347 11.457 41.6347H33.4461C33.8709 41.6347 34.2154 41.2903 34.2154 40.8655C34.2154 40.4407 33.8709 40.0962 33.4461 40.0962H30.6768L29.3145 35.1924H42.417C43.8345 35.1905 44.9865 34.0479 45 32.6304V5.90679C45 4.49679 43.827 3.36548 42.417 3.36548ZM2.58301 4.90394H42.417C42.9815 4.8953 43.4473 5.34264 43.4615 5.90679V27.6924H1.53846V5.90679C1.55273 5.34264 2.01848 4.8953 2.58301 4.90394ZM29.0813 40.0962H15.8226L17.1849 35.1924H27.719L29.0813 40.0962ZM42.417 33.6539H2.58301C2.01472 33.6532 1.55086 33.1987 1.53846 32.6304V29.2309H43.4615V32.6304C43.4491 33.1987 42.9853 33.6532 42.417 33.6539Z" fill="white"/>
<path d="M18.3144 24.8078H26.6843C27.5144 24.81 28.3062 24.4581 28.8609 23.8406C29.3729 23.2693 29.6174 22.5065 29.5325 21.744L28.5045 12.8017C28.4602 12.4122 28.1315 12.1177 27.7398 12.1155H26.4417V11.4041C26.4417 9.3623 24.7282 7.70215 22.5955 7.70215C20.4629 7.70215 18.7494 9.36268 18.7494 11.4041V12.1155H17.259C16.8676 12.1173 16.539 12.4114 16.4946 12.8006L15.4666 21.7398C15.3821 22.5034 15.6263 23.267 16.1382 23.8398C16.693 24.4573 17.4844 24.8093 18.3144 24.8078ZM20.2878 11.4041C20.2878 10.2108 21.3114 9.24061 22.5955 9.24061C23.8797 9.24061 24.9032 10.2112 24.9032 11.4041V12.1155H20.2878V11.4041ZM16.9946 21.9134L17.9445 13.6539H18.7494V15.5916C18.7494 16.0164 19.0938 16.3609 19.5186 16.3609C19.9434 16.3609 20.2878 16.0164 20.2878 15.5916V13.6539H24.9032V15.5916C24.9032 16.0164 25.2476 16.3609 25.6725 16.3609C26.0973 16.3609 26.4417 16.0164 26.4417 15.5916V13.6539H27.0543L28.0042 21.9134C28.041 22.242 27.9347 22.5699 27.7127 22.8148C27.4502 23.1055 27.0761 23.2708 26.6843 23.2693H18.3144C17.9227 23.2708 17.549 23.1059 17.286 22.8152C17.0641 22.5707 16.9578 22.242 16.9946 21.9134Z" fill="white"/>
<path d="M36.8386 21.2379C39.5932 21.2379 41.8265 19.005 41.8265 16.2499C41.8265 13.4953 39.5936 11.262 36.8386 11.262C34.0839 11.262 31.8506 13.4953 31.8506 16.2499C31.854 19.0035 34.085 21.2349 36.8386 21.2379ZM36.8386 12.8004C38.7436 12.8004 40.2881 14.3449 40.2881 16.2499C40.2881 18.155 38.744 19.6995 36.8386 19.6995C34.9335 19.6995 33.389 18.155 33.389 16.2499C33.3913 14.3456 34.9343 12.8027 36.8386 12.8004Z" fill="white"/>
<path d="M35.5232 18.7436C35.8233 19.0437 36.3105 19.0437 36.611 18.7436L38.5603 16.7938C38.8608 16.4933 38.8608 16.0066 38.5603 15.7061L36.611 13.7563C36.3105 13.4562 35.8233 13.4562 35.5232 13.7563C35.2227 14.0568 35.2227 14.544 35.5232 14.8444L36.9287 16.2499L35.5232 17.6554C35.2227 17.9559 35.2227 18.4431 35.5232 18.7436Z" fill="white"/>
<path d="M8.16083 21.2379C10.9155 21.2379 13.1488 19.0046 13.1488 16.2499C13.1488 13.4953 10.9155 11.262 8.16083 11.262C5.40617 11.262 3.17285 13.4953 3.17285 16.2499C3.17586 19.0035 5.4073 21.2349 8.16083 21.2379ZM8.16083 12.8004C10.0659 12.8004 11.6104 14.3449 11.6104 16.2499C11.6104 18.155 10.0659 19.6995 8.16083 19.6995C6.25578 19.6995 4.71131 18.155 4.71131 16.2499C4.71357 14.3456 6.25654 12.8027 8.16083 12.8004Z" fill="white"/>
<path d="M8.3886 18.7436C8.68908 19.0437 9.17623 19.0437 9.47634 18.7436C9.77682 18.4431 9.77682 17.9559 9.47634 17.6554L8.07084 16.2499L9.47634 14.8444C9.77682 14.544 9.77682 14.0568 9.47634 13.7563C9.17623 13.4562 8.68908 13.4562 8.3886 13.7563L6.43923 15.7061C6.13875 16.0066 6.13875 16.4933 6.43923 16.7938L8.3886 18.7436Z" fill="white"/>
</g>
</svg>
