<svg width="40" height="40" viewBox="0 0 40 40" fill="none" xmlns="http://www.w3.org/2000/svg">
<path d="M19.6383 33.8116C19.493 33.6663 19.2914 33.5827 19.0859 33.5827C18.8805 33.5827 18.6789 33.6663 18.5336 33.8116C18.3883 33.9569 18.3047 34.1584 18.3047 34.3639C18.3047 34.5702 18.3883 34.7709 18.5336 34.9163C18.6789 35.0624 18.8805 35.1452 19.0859 35.1452C19.2914 35.1452 19.493 35.0624 19.6383 34.9163C19.7836 34.7709 19.8672 34.5695 19.8672 34.3639C19.8672 34.1584 19.7835 33.9569 19.6383 33.8116Z" fill="#FECC2F"/>
<path d="M23.3569 26.6046V20.856C23.3569 20.5965 23.228 20.3538 23.013 20.2086C22.7979 20.0634 22.5247 20.0344 22.2838 20.1313L8.8219 25.553H4.48597C2.01191 25.553 -0.000976562 27.5658 -0.000976562 30.0401C-0.000976562 32.5143 2.01191 34.5272 4.48612 34.5272H5.00245V39.2187C5.00245 39.6501 5.35222 40 5.7837 40H8.97307C9.40455 40 9.75432 39.6501 9.75432 39.2187V34.904L22.2842 39.9436C22.3782 39.9814 22.4772 40.0001 22.5756 40.0001C22.7294 40.0001 22.882 39.9547 23.0131 39.8662C23.2281 39.7209 23.3569 39.4783 23.3569 39.2188V33.4703C24.9237 33.1138 26.0969 31.7105 26.0969 30.0375C26.0969 28.3644 24.9237 26.9611 23.3569 26.6046ZM8.19174 38.4375H6.56495V34.5271H8.19182V38.4375H8.19174ZM8.1919 32.9646H4.48612C2.87347 32.9646 1.56152 31.6526 1.56152 30.0401C1.56152 28.4274 2.87347 27.1155 4.48612 27.1155H8.19221L8.1919 32.9646ZM21.7945 38.0624H21.7945L9.75471 33.22V26.8617L18.3037 23.4187V31.1719C18.3037 31.6033 18.6534 31.9531 19.0849 31.9531C19.5164 31.9531 19.8662 31.6033 19.8662 31.1719V22.7894L21.7945 22.0128V38.0624ZM23.3569 31.8331V28.2417C24.0492 28.5441 24.5344 29.235 24.5344 30.0374C24.5344 30.8398 24.0493 31.5308 23.3569 31.8331Z" fill="#FECC2F"/>
<path d="M33.5502 29.2792H29.127C28.6955 29.2792 28.3457 29.6291 28.3457 30.0605C28.3457 30.4919 28.6955 30.8417 29.127 30.8417H33.5502C33.9817 30.8417 34.3315 30.4919 34.3315 30.0605C34.3315 29.6291 33.9817 29.2792 33.5502 29.2792Z" fill="#FECC2F"/>
<path d="M29.923 23.5545C29.6179 23.2495 29.1232 23.2495 28.8181 23.5545L27.2923 25.0803C26.9872 25.3854 26.9872 25.88 27.2923 26.1852C27.4449 26.3377 27.6449 26.414 27.8448 26.414C28.0447 26.414 28.2447 26.3377 28.3972 26.1852L29.923 24.6594C30.2281 24.3544 30.2281 23.8597 29.923 23.5545Z" fill="#FECC2F"/>
<path d="M29.9799 35.3887L28.4031 33.8118C28.098 33.5068 27.6033 33.5068 27.2981 33.8118C26.9931 34.1169 26.9931 34.6116 27.2981 34.9167L28.875 36.4936C29.0276 36.6461 29.2275 36.7224 29.4274 36.7224C29.6274 36.7224 29.8274 36.6461 29.9799 36.4936C30.2849 36.1885 30.2849 35.6938 29.9799 35.3887Z" fill="#FECC2F"/>
<path d="M36.874 0H22.3428C20.6196 0 19.2178 1.40187 19.2178 3.12499V3.43749H6.09277C5.05887 3.43749 4.21777 4.27866 4.21777 5.31249V17.6562C4.21777 18.69 5.05887 19.5312 6.09277 19.5312H6.90004V21.9271C6.90004 22.2431 7.09043 22.5279 7.3823 22.6489C7.47894 22.6889 7.58043 22.7083 7.68113 22.7083C7.88441 22.7083 8.08425 22.6289 8.23371 22.4795L11.182 19.5312H26.7006C27.7345 19.5312 28.5756 18.69 28.5756 17.6562V15.3125H36.874C38.5971 15.3125 39.999 13.9106 39.999 12.1875V3.12499C39.9989 1.40187 38.5971 0 36.874 0ZM27.0131 17.6562C27.0131 17.8286 26.8729 17.9687 26.7006 17.9687H10.8584C10.6512 17.9687 10.4525 18.0511 10.306 18.1975L8.46261 20.041V18.75C8.46261 18.3186 8.11285 17.9687 7.68136 17.9687H6.09277C5.92043 17.9687 5.78027 17.8286 5.78027 17.6562V5.31249C5.78027 5.14015 5.92043 4.99999 6.09277 4.99999H19.2178V12.1875C19.2178 13.9106 20.6196 15.3125 22.3428 15.3125H27.0131V17.6562ZM38.4365 12.1875C38.4365 13.049 37.7355 13.75 36.874 13.75H22.3428C21.4812 13.75 20.7803 13.049 20.7803 12.1875V3.12499C20.7803 2.26343 21.4812 1.5625 22.3428 1.5625H36.874C37.7355 1.5625 38.4365 2.26343 38.4365 3.12499V12.1875Z" fill="#FECC2F"/>
<path d="M32.7482 6.97971L27.4014 3.89268C27.1596 3.75307 26.8618 3.75307 26.6201 3.89268C26.3784 4.03221 26.2295 4.29018 26.2295 4.56924V10.7432C26.2295 11.0223 26.3784 11.2802 26.6201 11.4198C26.741 11.4896 26.8758 11.5245 27.0107 11.5245C27.1457 11.5245 27.2805 11.4896 27.4014 11.4198L32.7482 8.33275C32.9899 8.19322 33.1388 7.93525 33.1388 7.65619C33.1388 7.37713 32.99 7.11924 32.7482 6.97971ZM27.792 9.39009V5.92244L30.7951 7.65627L27.792 9.39009Z" fill="#FECC2F"/>
<path d="M16.7588 8.20311H8.94629C8.5148 8.20311 8.16504 8.55295 8.16504 8.98436C8.16504 9.41576 8.5148 9.76561 8.94629 9.76561H16.7588C17.1903 9.76561 17.54 9.41576 17.54 8.98436C17.54 8.55295 17.1903 8.20311 16.7588 8.20311Z" fill="#FECC2F"/>
<path d="M17.3102 12.807C17.1648 12.6616 16.9633 12.5781 16.7578 12.5781C16.5523 12.5781 16.3508 12.6616 16.2055 12.807C16.0602 12.9523 15.9766 13.1539 15.9766 13.3593C15.9766 13.5648 16.0602 13.7664 16.2055 13.9116C16.3508 14.0569 16.5523 14.1406 16.7578 14.1406C16.9641 14.1406 17.1648 14.057 17.3102 13.9116C17.4555 13.7664 17.5391 13.5648 17.5391 13.3593C17.5391 13.1539 17.4555 12.9523 17.3102 12.807Z" fill="#FECC2F"/>
<path d="M13.8282 12.5781H8.94629C8.5148 12.5781 8.16504 12.9279 8.16504 13.3593C8.16504 13.7907 8.5148 14.1406 8.94629 14.1406H13.8282C14.2597 14.1406 14.6095 13.7907 14.6095 13.3593C14.6095 12.9279 14.2597 12.5781 13.8282 12.5781Z" fill="#FECC2F"/>
</svg>
