<svg width="18" height="12" viewBox="0 0 18 12" fill="none" xmlns="http://www.w3.org/2000/svg">
<path d="M9 0.375C5.07449 0.375 1.672 2.66089 0 6C1.672 9.33911 5.07449 11.625 9 11.625C12.9254 11.625 16.3279 9.33911 18 6C16.328 2.66089 12.9254 0.375 9 0.375ZM13.4376 3.35808C14.4952 4.03262 15.3913 4.93614 16.0644 6C15.3913 7.06386 14.4951 7.96738 13.4376 8.64192C12.1088 9.4895 10.5743 9.9375 9 9.9375C7.4257 9.9375 5.8912 9.4895 4.5624 8.64192C3.5049 7.96734 2.60877 7.06383 1.93563 6C2.60873 4.9361 3.5049 4.03259 4.5624 3.35808C4.63127 3.31413 4.70085 3.27156 4.77084 3.22976C4.5958 3.71013 4.5 4.22858 4.5 4.76953C4.5 7.25476 6.51473 9.26953 9 9.26953C11.4852 9.26953 13.5 7.25476 13.5 4.76953C13.5 4.22858 13.4042 3.71013 13.2292 3.22972C13.2991 3.27152 13.3687 3.31413 13.4376 3.35808ZM9 4.20703C9 5.13902 8.24449 5.89453 7.3125 5.89453C6.38051 5.89453 5.625 5.13902 5.625 4.20703C5.625 3.27504 6.38051 2.51953 7.3125 2.51953C8.24449 2.51953 9 3.27504 9 4.20703Z" fill="#333333"/>
</svg>
