<svg width="59" height="62" viewBox="0 0 59 62" fill="none" xmlns="http://www.w3.org/2000/svg">
<g>
<path d="M29.9219 0.970703C13.9017 0.970703 0.921875 14.1953 0.921875 30.5176C0.921875 46.8398 13.9017 60.0645 29.9219 60.0645C45.942 60.0645 58.9219 46.8398 58.9219 30.5176C58.9219 14.1953 45.942 0.970703 29.9219 0.970703ZM44.1646 21.2127L39.4053 44.0639C39.0545 45.6842 38.1074 46.0773 36.786 45.3148L29.536 39.8701L26.0396 43.3014C25.6537 43.6945 25.3263 44.0281 24.5779 44.0281L25.0924 36.5103L38.5283 24.1436C39.113 23.6193 38.3997 23.3215 37.6279 23.8457L21.0231 34.4969L13.8666 32.2213C12.3114 31.7209 12.2763 30.6367 14.1941 29.8742L42.1533 18.8895C43.4513 18.4129 44.5856 19.2111 44.1646 21.2127Z" fill="#F7D033"/>
</g>
</svg>
