<svg width="107" height="115" viewBox="0 0 107 115" fill="none" xmlns="http://www.w3.org/2000/svg">
<circle cx="53.5" cy="53.5" r="52" stroke="black" stroke-width="3"/>
<g>
<path d="M74.0819 21.4178L63.1745 21.4004C50.9204 21.4004 43.0013 29.4967 43.0013 42.0278V51.5384H32.0344C31.0867 51.5384 30.3193 52.304 30.3193 53.2483V67.0281C30.3193 67.9725 31.0876 68.7372 32.0344 68.7372H43.0013V103.508C43.0013 104.452 43.7687 105.217 44.7164 105.217H59.0251C59.9727 105.217 60.7401 104.451 60.7401 103.508V68.7372H73.563C74.5107 68.7372 75.2781 67.9725 75.2781 67.0281L75.2833 53.2483C75.2833 52.7949 75.1022 52.3607 74.781 52.0398C74.4599 51.7189 74.0224 51.5384 73.5674 51.5384H60.7401V43.4761C60.7401 39.6011 61.6668 37.6339 66.7324 37.6339L74.0801 37.6313C75.0269 37.6313 75.7943 36.8657 75.7943 35.9222V23.1269C75.7943 22.1843 75.0278 21.4196 74.0819 21.4178Z" fill="black"/>
</g>
</svg>
