<svg width="53" height="53" viewBox="0 0 53 53" fill="none" xmlns="http://www.w3.org/2000/svg">
<path d="M3.53333 44.1808H5.3V42.4141H3.53333C2.55747 42.4141 1.76667 41.6233 1.76667 40.6474V5.31409C1.76667 4.33823 2.55747 3.54743 3.53333 3.54743H42.4C43.3759 3.54743 44.1667 4.33823 44.1667 5.31409V7.08076H45.9333V5.31409C45.9333 3.36281 44.3513 1.78076 42.4 1.78076H3.53333C1.58205 1.78076 0 3.36281 0 5.31409V40.6474C0 42.5987 1.58205 44.1808 3.53333 44.1808Z" fill="#FECC2F"/>
<path d="M3.53516 5.31396H5.30182V7.08063H3.53516V5.31396Z" fill="#FECC2F"/>
<path d="M7.06641 5.31396H8.83308V7.08063H7.06641V5.31396Z" fill="#FECC2F"/>
<path d="M10.6016 5.31396H12.3682V7.08063H10.6016V5.31396Z" fill="#FECC2F"/>
<path d="M7.06641 47.7141C7.06641 49.6654 8.64846 51.2474 10.5997 51.2474H49.4664C51.4177 51.2474 52.9997 49.6654 52.9997 47.7141V12.3807C52.9997 10.4295 51.4177 8.84741 49.4664 8.84741H10.5997C8.64846 8.84741 7.06641 10.4295 7.06641 12.3807V47.7141ZM8.83307 12.3807C8.83307 11.4049 9.62388 10.6141 10.5997 10.6141H49.4664C50.4423 10.6141 51.2331 11.4049 51.2331 12.3807V47.7141C51.2331 48.6899 50.4423 49.4807 49.4664 49.4807H10.5997C9.62388 49.4807 8.83307 48.6899 8.83307 47.7141V12.3807Z" fill="#FECC2F"/>
<path d="M10.6016 12.3806H12.3682V14.1473H10.6016V12.3806Z" fill="#FECC2F"/>
<path d="M14.1328 12.3806H15.8995V14.1473H14.1328V12.3806Z" fill="#FECC2F"/>
<path d="M17.668 12.3806H19.4346V14.1473H17.668V12.3806Z" fill="#FECC2F"/>
<path d="M10.6016 15.9141H49.4682V17.6807H10.6016V15.9141Z" fill="#FECC2F"/>
<path d="M10.6016 20.3306H17.6682V22.0972H10.6016V20.3306Z" fill="#FECC2F"/>
<path d="M10.6016 23.864H15.9015V25.6307H10.6016V23.864Z" fill="#FECC2F"/>
<path d="M30.0349 27.3975C26.6197 27.3975 23.8516 30.1656 23.8516 33.5808C23.8516 36.996 26.6197 39.7641 30.0349 39.7641C33.4501 39.7641 36.2182 36.996 36.2182 33.5808C36.2142 30.1676 33.4481 27.4014 30.0349 27.3975ZM30.0349 37.9974C27.5958 37.9974 25.6182 36.0199 25.6182 33.5808C25.6182 31.1417 27.5958 29.1641 30.0349 29.1641C32.474 29.1641 34.4515 31.1417 34.4515 33.5808C34.4485 36.0188 32.4729 37.9943 30.0349 37.9974Z" fill="#FECC2F"/>
<path d="M44.1651 30.9306C44.1651 30.4426 43.7698 30.0473 43.2818 30.0473H40.9471C40.7601 29.4669 40.5269 28.9022 40.2484 28.3601L41.8994 26.7103C42.2439 26.3651 42.2439 25.8062 41.8994 25.461L38.1514 21.713C37.8062 21.3685 37.2473 21.3685 36.9021 21.713L35.2523 23.3631C34.7092 23.0857 34.145 22.8525 33.5651 22.6652V20.3306C33.5651 19.8426 33.1698 19.4473 32.6818 19.4473H27.3818C26.8937 19.4473 26.4984 19.8426 26.4984 20.3306V22.6652C25.9185 22.8525 25.3543 23.0857 24.8113 23.3631L23.1614 21.713C22.8163 21.3685 22.2573 21.3685 21.9122 21.713L18.1642 25.461C17.8197 25.8062 17.8197 26.3651 18.1642 26.7103L19.8143 28.3601C19.7405 28.5047 19.6694 28.6498 19.6023 28.7965C19.4159 29.2037 19.2538 29.6211 19.1164 30.0473H16.7818C16.2937 30.0473 15.8984 30.4426 15.8984 30.9306V36.2306C15.8984 36.7186 16.2937 37.1139 16.7818 37.1139H19.1164C19.3035 37.6943 19.5367 38.259 19.8151 38.8011L18.1642 40.4509C17.8197 40.7961 17.8197 41.355 18.1642 41.7002L21.9122 45.4482C22.2573 45.7927 22.8163 45.7927 23.1614 45.4482L24.8113 43.7981C25.3543 44.0755 25.9185 44.3087 26.4984 44.4959V46.8306C26.4984 47.3186 26.8937 47.7139 27.3818 47.7139H32.6818C33.1698 47.7139 33.5651 47.3186 33.5651 46.8306V44.4959C34.145 44.3087 34.7092 44.0755 35.2523 43.7981L36.9021 45.4482C37.2473 45.7927 37.8062 45.7927 38.1514 45.4482L41.8994 41.7002C42.2439 41.355 42.2439 40.7961 41.8994 40.4509L40.2484 38.8011C40.5269 38.259 40.7601 37.6943 40.9471 37.1139H43.2818C43.7698 37.1139 44.1651 36.7186 44.1651 36.2306V30.9306ZM42.3984 35.3473H40.2837C39.8809 35.3473 39.5294 35.62 39.4287 36.0098C39.203 36.8865 38.8552 37.7278 38.3952 38.5078C38.1905 38.8545 38.2468 39.2962 38.5312 39.5811L40.0247 41.0755L37.5266 43.5746L36.0323 42.08C35.7472 41.7952 35.3055 41.7391 34.9586 41.944C34.1786 42.404 33.3376 42.752 32.4609 42.9775C32.0712 43.0782 31.7984 43.4298 31.7984 43.8326V45.9473H28.2651V43.8326C28.2651 43.4298 27.9924 43.0782 27.6026 42.9775C26.7259 42.752 25.885 42.404 25.105 41.944C24.758 41.7391 24.3164 41.7952 24.0313 42.08L22.5369 43.5746L20.0388 41.0755L21.5323 39.5811C21.8168 39.2962 21.8731 38.8545 21.6684 38.5078C21.2084 37.7278 20.8606 36.8865 20.6349 36.0098C20.5342 35.62 20.1826 35.3473 19.7798 35.3473H17.6651V31.8139H19.7798C20.1826 31.8139 20.5342 31.5412 20.6349 31.1514C20.7775 30.5954 20.9699 30.0539 21.2093 29.5325C21.3473 29.2302 21.5005 28.9354 21.6684 28.6492C21.8724 28.3022 21.8165 27.8612 21.5323 27.5766L20.0388 26.0822L22.5369 23.583L24.0313 25.0781C24.3164 25.3629 24.758 25.4186 25.105 25.2134C25.885 24.7539 26.7259 24.4054 27.6026 24.1799C27.9924 24.0795 28.2651 23.7275 28.2651 23.3253V21.2139H31.7984V23.3286C31.7984 23.7314 32.0712 24.083 32.4609 24.1837C33.3376 24.4092 34.1786 24.7572 34.9586 25.2172C35.3055 25.4221 35.7472 25.366 36.0323 25.0812L37.5266 23.5866L40.0247 26.0857L38.5312 27.5801C38.2468 27.865 38.1905 28.3067 38.3952 28.6534C38.8552 29.4333 39.203 30.2747 39.4287 31.1514C39.5294 31.5412 39.8809 31.8139 40.2837 31.8139H42.3984V35.3473Z" fill="#FECC2F"/>
<path d="M44.168 45.9473H49.468V47.7139H44.168V45.9473Z" fill="#FECC2F"/>
</svg>
