<svg width="53" height="47" viewBox="0 0 53 47" fill="none" xmlns="http://www.w3.org/2000/svg">
<path d="M8.12562 42.6347C9.37349 45.0484 11.866 46.5619 14.5829 46.5558H23.0014C28.3653 46.5498 32.7119 42.2028 32.7183 36.8393V32.4224C32.7127 32.3626 32.7009 32.3032 32.6827 32.2457V26.2389C32.6823 24.9328 31.9609 23.7334 30.8073 23.1204C29.654 22.5074 28.2562 22.581 27.1733 23.3117C26.817 22.2761 25.9986 21.4654 24.9598 21.1192C23.9205 20.7731 22.7798 20.9304 21.8732 21.545C21.536 20.5466 20.7657 19.7541 19.777 19.3885C18.7887 19.0234 17.6881 19.1241 16.7827 19.6635V17.317C18.9747 16.0727 20.3253 13.7428 20.316 11.222C20.316 7.31903 17.1519 4.15527 13.2493 4.15527C9.3464 4.15527 6.18224 7.31903 6.18224 11.222C6.17294 13.7428 7.52352 16.0727 9.71558 17.317V31.4815L6.14787 28.7282C4.59591 27.5361 2.39414 27.7092 1.0476 29.1297C-0.29853 30.5498 -0.353928 32.7577 0.919419 34.2437L8.12562 42.6347ZM7.94891 11.222C7.94891 8.29476 10.3221 5.92195 13.2493 5.92195C16.1761 5.92195 18.5494 8.29476 18.5494 11.222C18.5578 12.7335 17.9137 14.175 16.7827 15.1775V12.1055C16.7827 10.154 15.2004 8.57216 13.2493 8.57216C11.2979 8.57216 9.71558 10.154 9.71558 12.1055V15.1775C8.58457 14.175 7.94042 12.7335 7.94891 11.222ZM2.36381 30.3024C3.09329 29.5733 4.25018 29.4977 5.06861 30.1257L9.71558 33.7132V35.0727C9.71558 35.5603 10.1111 35.9558 10.5991 35.9558C11.0868 35.9558 11.4823 35.5603 11.4823 35.0727V12.1055C11.4823 11.1298 12.2736 10.3388 13.2493 10.3388C14.2247 10.3388 15.016 11.1298 15.016 12.1055V27.1224C15.016 27.6101 15.4115 28.0056 15.8991 28.0056C16.3872 28.0056 16.7827 27.6101 16.7827 27.1224V22.7055C16.7827 21.7298 17.5736 20.9389 18.5494 20.9389C19.5251 20.9389 20.316 21.7298 20.316 22.7055V27.1224C20.316 27.6101 20.7115 28.0056 21.1992 28.0056C21.6872 28.0056 22.0827 27.6101 22.0827 27.1224V24.4722C22.0827 23.4965 22.8736 22.7055 23.8494 22.7055C24.8251 22.7055 25.616 23.4965 25.616 24.4722V27.1224C25.616 27.6101 26.0115 28.0056 26.4996 28.0056C26.9873 28.0056 27.3827 27.6101 27.3827 27.1224V26.2389C27.3827 25.2632 28.1737 24.4722 29.1494 24.4722C30.1251 24.4722 30.9161 25.2632 30.9161 26.2389V35.9558C30.9213 36.0156 30.9335 36.0751 30.9517 36.1325V36.8393C30.946 41.2275 27.39 44.7839 23.0014 44.7892H14.5829C12.4956 44.7944 10.5866 43.6141 9.65816 41.7443C9.62541 41.6808 9.58457 41.6214 9.53726 41.5676L2.25949 33.0937C1.56479 32.2773 1.61008 31.065 2.36381 30.3024Z" fill="black"/>
<path d="M23.8526 10.3386C23.8526 10.8263 23.4571 11.2217 22.9691 11.2217C22.4814 11.2217 22.0859 10.8263 22.0859 10.3386C22.0859 9.85055 22.4814 9.45508 22.9691 9.45508C23.4571 9.45508 23.8526 9.85055 23.8526 10.3386Z" fill="black"/>
<path d="M27.3839 10.3386C27.3839 10.8263 26.9884 11.2217 26.5007 11.2217C26.0127 11.2217 25.6172 10.8263 25.6172 10.3386C25.6172 9.85055 26.0127 9.45508 26.5007 9.45508C26.9884 9.45508 27.3839 9.85055 27.3839 10.3386Z" fill="black"/>
<path d="M30.9151 10.3386C30.9151 10.8263 30.5196 11.2217 30.032 11.2217C29.5439 11.2217 29.1484 10.8263 29.1484 10.3386C29.1484 9.85055 29.5439 9.45508 30.032 9.45508C30.5196 9.45508 30.9151 9.85055 30.9151 10.3386Z" fill="black"/>
<path d="M43.2833 0.62207C37.9166 0.62207 33.5664 4.97224 33.5664 10.339C33.5664 15.7053 37.9166 20.0555 43.2833 20.0555C48.6496 20.0555 53.0002 15.7053 53.0002 10.339C52.9937 4.97507 48.6468 0.628136 43.2833 0.62207ZM43.2833 18.2888C38.8923 18.2888 35.3331 14.7296 35.3331 10.339C35.3331 5.94797 38.8923 2.38874 43.2833 2.38874C47.6739 2.38874 51.2331 5.94797 51.2331 10.339C51.2279 14.7271 47.6719 18.2835 43.2833 18.2888Z" fill="black"/>
<path d="M47.0252 6.23279L41.5529 12.661L39.489 10.5975C39.1425 10.2627 38.5917 10.2675 38.2509 10.608C37.91 10.9489 37.9055 11.4997 38.2403 11.8466L40.3115 13.9178C40.9658 14.5672 42.0082 14.6076 42.7106 14.0108C42.7462 13.9804 42.7789 13.9473 42.8089 13.9117L48.3737 7.37512C48.6912 7.00311 48.6467 6.44468 48.2751 6.12765C47.9031 5.81063 47.3446 5.85471 47.0276 6.22672L47.0252 6.23279Z" fill="black"/>
</svg>
