<svg width="96" height="78" viewBox="0 0 96 78" fill="none" xmlns="http://www.w3.org/2000/svg">
<rect x="1" y="64.5248" width="94" height="12.2979" rx="3" stroke="black" stroke-width="2"/>
<path d="M22.9787 64.5461C22.2978 61.6525 20.9362 55.6099 25.5319 51.7801C28.5957 49.2269 34.2127 48.7163 34.7234 44.6312C35.9361 34.929 37.7872 25.7376 51.5744 23.695C51.5744 29.8227 51.5744 39.5248 54.1276 41.0567C55.6595 37.4822 56.1702 32.8865 61.2766 31.8652C61.2766 36.461 61.2766 41.5673 62.8085 43.6099C64.3404 45.6525 73.964 48.5984 72 53.312C69.4468 59.4397 69.9574 62.5035 72 64.5461" stroke="black" stroke-width="2"/>
<path fill-rule="evenodd" clip-rule="evenodd" d="M78.6643 44.1206C78.1256 27.6488 64.603 14.461 48.0002 14.461C31.3973 14.461 17.8747 27.6488 17.336 44.1206H15.335C15.8745 26.544 30.2927 12.461 48.0002 12.461C65.7076 12.461 80.1258 26.544 80.6654 44.1206H78.6643Z" fill="black"/>
<path fill-rule="evenodd" clip-rule="evenodd" d="M90.9348 43.9395C90.1934 20.8649 71.2544 2.38672 47.9996 2.38672C24.7449 2.38672 5.80591 20.8649 5.06448 43.9395H3.06348C3.80569 19.7601 23.6402 0.386719 47.9996 0.386719C72.3591 0.386719 92.1936 19.7601 92.9358 43.9395H90.9348Z" fill="black"/>
<path d="M48 0.716309V13.4823" stroke="black" stroke-width="2"/>
<rect x="4.06348" y="44.0992" width="12.2979" height="20.4681" stroke="black" stroke-width="2"/>
<rect x="79.6387" y="44.0992" width="12.2979" height="20.4681" stroke="black" stroke-width="2"/>
<path d="M81.7022 16.5461L72.5107 25.2269" stroke="black" stroke-width="2"/>
<path d="M23.4893 25.2269L14.2979 16.5461" stroke="black" stroke-width="2"/>
</svg>
