<svg width="60" height="60" viewBox="0 0 60 60" fill="none" xmlns="http://www.w3.org/2000/svg">
<rect width="60" height="60" fill="white"/>
<g>
<path d="M30.833 15.4438C21.0055 14.516 12.2555 21.7564 11.3277 31.5838C11.2645 32.2534 11.7561 32.8475 12.4256 32.9107L15.7032 33.2201C15.7145 36.632 17.023 39.9324 19.3945 42.4352C19.5972 42.649 19.8707 42.7822 20.164 42.8099L36.192 44.3231C36.4854 44.3508 36.7788 44.2711 37.018 44.0989C39.8158 42.0842 41.7189 39.087 42.3686 35.7375L45.6462 36.047C46.3158 36.1102 46.9099 35.6186 46.9731 34.949C47.9009 25.1216 40.6604 16.3716 30.833 15.4438ZM35.9521 41.854L20.8617 40.4293C18.8735 38.1536 17.9016 35.158 18.1865 32.1398C18.7577 26.0894 24.1447 21.6321 30.1948 22.2033C32.7257 22.4422 34.9773 23.5242 36.6994 25.1444L30.8536 28.6475C29.2614 28.0634 27.4087 28.3149 26.0104 29.4716C23.918 31.203 23.6243 34.314 25.3557 36.4065C26.2215 37.4527 27.4318 38.0492 28.6877 38.1677C29.9432 38.2862 31.2443 37.9267 32.2904 37.0612C33.6887 35.9041 34.2824 34.131 34.0065 32.4574L38.5298 27.3837C39.7524 29.3565 40.3658 31.728 40.1314 34.2117C39.8464 37.2298 38.3311 39.9906 35.9521 41.854ZM34.9627 28.4566L33.1878 30.4476C33.1114 30.3384 33.0315 30.2307 32.9449 30.1263C32.8585 30.0219 32.7678 29.9232 32.6748 29.8277L34.9627 28.4566ZM30.7378 35.1846C29.6799 36.06 28.1072 35.9113 27.2323 34.8537C26.357 33.7959 26.5055 32.2235 27.5632 31.3482C28.0919 30.9106 28.7495 30.7288 29.3843 30.7888C30.0191 30.8487 30.631 31.1503 31.0686 31.6791C31.9439 32.7368 31.7954 34.3094 30.7378 35.1846ZM42.6148 33.3143C42.6465 30.441 41.7581 27.7342 40.2061 25.5033L40.6663 24.9871C40.9866 24.6278 40.9965 24.0884 40.6898 23.7175C40.383 23.3466 39.8512 23.2555 39.4383 23.503L38.8544 23.8529C36.6979 21.6072 33.7592 20.0933 30.4236 19.7784C23.4141 19.1166 17.1345 23.9833 15.9147 30.7936L13.9143 30.6048C15.2826 22.7371 22.5215 17.1056 30.604 17.8687C38.6866 18.6317 44.7437 25.5187 44.6154 33.5033L42.6148 33.3143Z" fill="#2E2E2E"/>
<path d="M36.6994 25.1444L30.8537 28.6474C29.2614 28.0633 27.4088 28.3148 26.0105 29.4715C23.9181 31.2029 23.6244 34.3139 25.3558 36.4064C26.2216 37.4526 27.4319 38.049 28.6877 38.1676C29.9432 38.2861 31.2444 37.9265 32.2904 37.0611C33.6888 35.904 34.2825 34.1309 34.0065 32.4573L38.5298 27.3835L36.6994 25.1444ZM34.9628 28.4565L33.1878 30.4474C33.1115 30.3383 33.0315 30.2306 32.945 30.1262C32.8586 30.0217 32.7679 29.9231 32.6748 29.8276L34.9628 28.4565ZM30.7378 35.1845C29.68 36.0599 28.1073 35.9112 27.2323 34.8536C26.3571 33.7958 26.5055 32.2233 27.5633 31.3481C28.092 30.9105 28.7496 30.7287 29.3844 30.7886C30.0191 30.8485 30.6311 31.1502 31.0687 31.679C31.9439 32.7366 31.7955 34.3092 30.7378 35.1845ZM36.6994 25.1444L38.5298 27.3835L40.6664 24.9869C40.9867 24.6276 40.9965 24.0883 40.6898 23.7174C40.383 23.3465 39.8512 23.2553 39.4383 23.5028L36.6994 25.1444Z" fill="#F7D033"/>
</g>
</svg>
