<svg width="60" height="60" viewBox="0 0 60 60" fill="none" xmlns="http://www.w3.org/2000/svg">
<path d="M20.625 49.6875H12.1875C11.67 49.6875 11.25 50.1066 11.25 50.625V55.3125C11.25 55.8309 11.67 56.25 12.1875 56.25H20.625C21.1425 56.25 21.5625 55.8309 21.5625 55.3125V50.625C21.5625 50.1066 21.1425 49.6875 20.625 49.6875ZM19.6875 54.375H13.125V51.5625H19.6875V54.375Z" fill="#FECC2F"/>
<path d="M59.0625 35.625H48.12L32.8519 24.375H41.25C41.7675 24.375 42.1875 23.9559 42.1875 23.4375V8.90625V6.5625V0.9375C42.1875 0.419063 41.7675 0 41.25 0H17.8125C17.295 0 16.875 0.419063 16.875 0.9375V6.5625V8.90625V23.4375C16.875 23.9559 17.295 24.375 17.8125 24.375H21.5625H25.3125H27.1481L11.88 35.625H0.9375C0.42 35.625 0 36.0441 0 36.5625V42.1875V44.5312V59.0625C0 59.5809 0.42 60 0.9375 60H4.6875H8.4375H24.375C24.8925 60 25.3125 59.5809 25.3125 59.0625V44.5312V42.1875V36.5625C25.3125 36.0441 24.8925 35.625 24.375 35.625H15.0394L30 24.6019L44.9606 35.625H35.625C35.1075 35.625 34.6875 36.0441 34.6875 36.5625V42.1875V44.5312V59.0625C34.6875 59.5809 35.1075 60 35.625 60H39.375H43.125H59.0625C59.58 60 60 59.5809 60 59.0625V44.5312V42.1875V36.5625C60 36.0441 59.58 35.625 59.0625 35.625ZM23.4375 44.5312C23.4375 45.3066 22.8066 45.9375 22.0312 45.9375C21.2559 45.9375 20.625 45.3066 20.625 44.5312V43.125H23.4375V44.5312ZM1.875 43.125H4.6875V44.5312C4.6875 45.3066 4.05656 45.9375 3.28125 45.9375C2.50594 45.9375 1.875 45.3066 1.875 44.5312V43.125ZM6.5625 41.25V37.5H9.375V41.25H6.5625ZM6.5625 43.125H9.375V44.5312C9.375 45.3066 8.74406 45.9375 7.96875 45.9375C7.19344 45.9375 6.5625 45.3066 6.5625 44.5312V43.125ZM11.25 43.125H14.0625V44.5312C14.0625 45.3066 13.4316 45.9375 12.6562 45.9375C11.8809 45.9375 11.25 45.3066 11.25 44.5312V43.125ZM15.9375 43.125H18.75V44.5312C18.75 45.3066 18.1191 45.9375 17.3438 45.9375C16.5684 45.9375 15.9375 45.3066 15.9375 44.5312V43.125ZM15.9375 41.25V37.5H18.75V41.25H15.9375ZM14.0625 41.25H11.25V37.5H14.0625V41.25ZM1.875 37.5H4.6875V41.25H1.875V37.5ZM5.625 58.125V52.5C5.625 51.9825 6.04594 51.5625 6.5625 51.5625C7.07906 51.5625 7.5 51.9825 7.5 52.5V58.125H5.625ZM9.375 58.125V52.5C9.375 50.9494 8.11312 49.6875 6.5625 49.6875C5.01188 49.6875 3.75 50.9494 3.75 52.5V58.125H1.875V47.4834C2.3025 47.6878 2.77594 47.8125 3.28125 47.8125C4.2 47.8125 5.02875 47.4309 5.625 46.8206C6.22125 47.4309 7.05 47.8125 7.96875 47.8125C8.8875 47.8125 9.71625 47.4309 10.3125 46.8206C10.9087 47.4309 11.7375 47.8125 12.6562 47.8125C13.575 47.8125 14.4038 47.4309 15 46.8206C15.5962 47.4309 16.425 47.8125 17.3438 47.8125C18.2625 47.8125 19.0912 47.4309 19.6875 46.8206C20.2838 47.4309 21.1125 47.8125 22.0312 47.8125C22.5366 47.8125 23.01 47.6878 23.4375 47.4834V58.125H9.375ZM23.4375 41.25H20.625V37.5H23.4375V41.25ZM18.75 7.5H21.5625V8.90625C21.5625 9.68156 20.9316 10.3125 20.1562 10.3125C19.3809 10.3125 18.75 9.68156 18.75 8.90625V7.5ZM32.8125 5.625V1.875H35.625V5.625H32.8125ZM30.9375 5.625H28.125V1.875H30.9375V5.625ZM26.25 5.625H23.4375V1.875H26.25V5.625ZM23.4375 7.5H26.25V8.90625C26.25 9.68156 25.6191 10.3125 24.8438 10.3125C24.0684 10.3125 23.4375 9.68156 23.4375 8.90625V7.5ZM28.125 7.5H30.9375V8.90625C30.9375 9.68156 30.3066 10.3125 29.5312 10.3125C28.7559 10.3125 28.125 9.68156 28.125 8.90625V7.5ZM32.8125 7.5H35.625V8.90625C35.625 9.68156 34.9941 10.3125 34.2188 10.3125C33.4434 10.3125 32.8125 9.68156 32.8125 8.90625V7.5ZM37.5 7.5H40.3125V8.90625C40.3125 9.68156 39.6816 10.3125 38.9062 10.3125C38.1309 10.3125 37.5 9.68156 37.5 8.90625V7.5ZM40.3125 5.625H37.5V1.875H40.3125V5.625ZM18.75 1.875H21.5625V5.625H18.75V1.875ZM18.75 11.8584C19.1775 12.0628 19.6509 12.1875 20.1562 12.1875C21.075 12.1875 21.9037 11.8059 22.5 11.1956C23.0963 11.8059 23.925 12.1875 24.8438 12.1875C25.7625 12.1875 26.5912 11.8059 27.1875 11.1956C27.7838 11.8059 28.6125 12.1875 29.5312 12.1875C30.45 12.1875 31.2787 11.8059 31.875 11.1956C32.4712 11.8059 33.3 12.1875 34.2188 12.1875C35.1375 12.1875 35.9663 11.8059 36.5625 11.1956C37.1587 11.8059 37.9875 12.1875 38.9062 12.1875C39.4116 12.1875 39.885 12.0628 40.3125 11.8584V22.5H26.25V16.875C26.25 15.3244 24.9881 14.0625 23.4375 14.0625C21.8869 14.0625 20.625 15.3244 20.625 16.875V22.5H18.75V11.8584ZM22.5 22.5V16.875C22.5 16.3575 22.9209 15.9375 23.4375 15.9375C23.9541 15.9375 24.375 16.3575 24.375 16.875V22.5H22.5ZM58.125 41.25H55.3125V37.5H58.125V41.25ZM58.125 44.5312C58.125 45.3066 57.4941 45.9375 56.7188 45.9375C55.9434 45.9375 55.3125 45.3066 55.3125 44.5312V43.125H58.125V44.5312ZM36.5625 43.125H39.375V44.5312C39.375 45.3066 38.7441 45.9375 37.9688 45.9375C37.1934 45.9375 36.5625 45.3066 36.5625 44.5312V43.125ZM48.75 37.5V41.25H45.9375V37.5H48.75ZM50.625 41.25V37.5H53.4375V41.25H50.625ZM44.0625 41.25H41.25V37.5H44.0625V41.25ZM41.25 43.125H44.0625V44.5312C44.0625 45.3066 43.4316 45.9375 42.6562 45.9375C41.8809 45.9375 41.25 45.3066 41.25 44.5312V43.125ZM45.9375 43.125H48.75V44.5312C48.75 45.3066 48.1191 45.9375 47.3438 45.9375C46.5684 45.9375 45.9375 45.3066 45.9375 44.5312V43.125ZM50.625 43.125H53.4375V44.5312C53.4375 45.3066 52.8066 45.9375 52.0312 45.9375C51.2559 45.9375 50.625 45.3066 50.625 44.5312V43.125ZM36.5625 37.5H39.375V41.25H36.5625V37.5ZM40.3125 58.125V52.5C40.3125 51.9825 40.7334 51.5625 41.25 51.5625C41.7666 51.5625 42.1875 51.9825 42.1875 52.5V58.125H40.3125ZM44.0625 58.125V52.5C44.0625 50.9494 42.8006 49.6875 41.25 49.6875C39.6994 49.6875 38.4375 50.9494 38.4375 52.5V58.125H36.5625V47.4834C36.99 47.6878 37.4634 47.8125 37.9688 47.8125C38.8875 47.8125 39.7163 47.4309 40.3125 46.8206C40.9087 47.4309 41.7375 47.8125 42.6562 47.8125C43.575 47.8125 44.4038 47.4309 45 46.8206C45.5962 47.4309 46.425 47.8125 47.3438 47.8125C48.2625 47.8125 49.0913 47.4309 49.6875 46.8206C50.2837 47.4309 51.1125 47.8125 52.0312 47.8125C52.95 47.8125 53.7788 47.4309 54.375 46.8206C54.9712 47.4309 55.8 47.8125 56.7188 47.8125C57.2241 47.8125 57.6975 47.6878 58.125 47.4834V58.125H44.0625Z" fill="#FECC2F"/>
<path d="M55.3125 49.6875H46.875C46.3575 49.6875 45.9375 50.1066 45.9375 50.625V55.3125C45.9375 55.8309 46.3575 56.25 46.875 56.25H55.3125C55.83 56.25 56.25 55.8309 56.25 55.3125V50.625C56.25 50.1066 55.83 49.6875 55.3125 49.6875ZM54.375 54.375H47.8125V51.5625H54.375V54.375Z" fill="#FECC2F"/>
<path d="M29.0625 20.625H37.5C38.0175 20.625 38.4375 20.2059 38.4375 19.6875V15C38.4375 14.4816 38.0175 14.0625 37.5 14.0625H29.0625C28.545 14.0625 28.125 14.4816 28.125 15V19.6875C28.125 20.2059 28.545 20.625 29.0625 20.625ZM30 15.9375H36.5625V18.75H30V15.9375Z" fill="#FECC2F"/>
</svg>
