<svg width="58" height="58" viewBox="0 0 58 58" fill="none" xmlns="http://www.w3.org/2000/svg">
<path d="M53.1948 25.3286C52.3349 25.3297 51.5026 25.6322 50.8427 26.1835C50.1827 26.7347 49.7368 27.4998 49.5825 28.3457H44.2801C44.1218 24.736 42.6861 21.2999 40.2291 18.6507L43.99 14.8897C44.737 15.4164 45.6536 15.6454 46.5605 15.5318C47.4674 15.4182 48.2992 14.9702 48.8931 14.2755C49.487 13.5808 49.8003 12.6895 49.7716 11.7759C49.7428 10.8624 49.3742 9.99253 48.7377 9.33654C48.1013 8.68056 47.243 8.28573 46.3308 8.22934C45.4185 8.17296 44.5181 8.45908 43.8057 9.0317C43.0934 9.60431 42.6204 10.4222 42.4794 11.3252C42.3384 12.2282 42.5395 13.1514 43.0433 13.9139L39.2637 17.6936C36.5993 15.271 33.1631 13.8704 29.5643 13.74V8.43293C30.4687 8.29267 31.2882 7.81988 31.8623 7.10714C32.4364 6.3944 32.7238 5.49302 32.6683 4.5795C32.6127 3.66599 32.2181 2.80611 31.5618 2.16823C30.9055 1.53035 30.0348 1.1604 29.12 1.13083C28.2053 1.10125 27.3125 1.41417 26.6164 2.00832C25.9202 2.60248 25.4709 3.43507 25.3565 4.34309C25.242 5.25111 25.4706 6.16917 25.9974 6.91751C26.5243 7.66585 27.3115 8.19059 28.205 8.38898V13.7492C24.6396 13.9329 21.2518 15.3625 18.6327 17.7886L14.8747 14.0306C15.406 13.2886 15.6412 12.375 15.5344 11.4687C15.4275 10.5623 14.9863 9.72851 14.297 9.13038C13.6077 8.53226 12.72 8.21292 11.8077 8.23485C10.8953 8.25678 10.024 8.61841 9.36426 9.24896C8.70452 9.87951 8.30384 10.7336 8.24066 11.644C8.17749 12.5544 8.45635 13.4557 9.02268 14.1713C9.58901 14.8869 10.402 15.3654 11.3026 15.5132C12.2032 15.6609 13.1265 15.4672 13.8918 14.9701L17.6754 18.7536C15.2486 21.419 13.8454 24.8584 13.7152 28.4607H8.43625C8.3022 27.5555 7.83508 26.7328 7.12635 26.1539C6.41763 25.5749 5.51832 25.2814 4.60452 25.3307C3.69071 25.38 2.82821 25.7686 2.18588 26.4204C1.54354 27.0722 1.16763 27.9403 1.13173 28.8547C1.09584 29.7692 1.40256 30.6641 1.99183 31.3642C2.5811 32.0644 3.41049 32.5194 4.31762 32.6402C5.22475 32.7609 6.1443 32.5388 6.89622 32.0172C7.64815 31.4956 8.1783 30.7121 8.3829 29.8201H13.7239C13.9069 33.3771 15.33 36.7576 17.746 39.3745L14.0095 43.111C13.2625 42.5843 12.3459 42.3554 11.439 42.469C10.5321 42.5826 9.70031 43.0306 9.10638 43.7253C8.51246 44.42 8.1992 45.3113 8.22794 46.2248C8.25667 47.1383 8.62533 48.0082 9.26175 48.6642C9.89816 49.3202 10.7565 49.715 11.6687 49.7714C12.581 49.8278 13.4814 49.5417 14.1937 48.9691C14.9061 48.3965 15.3791 47.5786 15.5201 46.6756C15.6611 45.7725 15.46 44.8494 14.9562 44.0868L18.7093 40.3337C21.3478 42.7439 24.7494 44.15 28.3196 44.3063V49.5882C27.4207 49.7576 26.6174 50.2563 26.0669 50.9868C25.5165 51.7173 25.2585 52.627 25.3435 53.5378C25.4285 54.4485 25.8505 55.2947 26.5266 55.9107C27.2028 56.5267 28.0846 56.8681 28.9993 56.8681C29.914 56.8681 30.7958 56.5267 31.4719 55.9107C32.1481 55.2947 32.57 54.4485 32.6551 53.5378C32.7401 52.627 32.4821 51.7173 31.9317 50.9868C31.3812 50.2563 30.5779 49.7576 29.679 49.5882V44.3063C33.2801 44.1484 36.7086 42.7192 39.3556 40.2724L43.0951 44.012C42.5731 44.7626 42.3501 45.6811 42.4698 46.5876C42.5894 47.4941 43.0431 48.3232 43.7419 48.9128C44.4408 49.5023 45.3346 49.8098 46.2483 49.775C47.1619 49.7402 48.0297 49.3656 48.6817 48.7246C49.3337 48.0835 49.7229 47.2223 49.7733 46.3093C49.8236 45.3964 49.5313 44.4975 48.9537 43.7887C48.3761 43.0799 47.5548 42.6123 46.6504 42.4773C45.7461 42.3423 44.824 42.5496 44.0646 43.0588L40.3143 39.3089C42.7205 36.6712 44.1241 33.2723 44.2801 29.7053H49.5917C49.7253 30.3884 50.0503 31.0194 50.5289 31.5248C51.0074 32.0301 51.6197 32.3891 52.2944 32.5598C52.9692 32.7305 53.6785 32.7059 54.3398 32.4889C55.0011 32.2719 55.5871 31.8713 56.0294 31.334C56.4718 30.7967 56.7523 30.1447 56.8383 29.4541C56.9243 28.7634 56.8123 28.0625 56.5152 27.4331C56.2181 26.8037 55.7482 26.2717 55.1603 25.8992C54.5725 25.5266 53.8908 25.3288 53.1948 25.3288V25.3286ZM44.4735 10.2564C44.7969 9.93304 45.2089 9.71282 45.6574 9.6236C46.106 9.53438 46.5709 9.58017 46.9934 9.75518C47.4159 9.93019 47.7771 10.2266 48.0312 10.6068C48.2852 10.9871 48.4208 11.4341 48.4208 11.8915C48.4208 12.3488 48.2852 12.7959 48.0312 13.1761C47.7771 13.5564 47.4159 13.8527 46.9934 14.0277C46.5709 14.2028 46.106 14.2486 45.6574 14.1593C45.2089 14.0701 44.7969 13.8499 44.4735 13.5265C44.2579 13.3123 44.0867 13.0576 43.9699 12.777C43.8532 12.4963 43.793 12.1954 43.793 11.8915C43.793 11.5875 43.8532 11.2866 43.9699 11.006C44.0867 10.7254 44.2579 10.4706 44.4735 10.2564ZM26.687 4.80476C26.687 4.34743 26.8226 3.90037 27.0767 3.52012C27.3308 3.13986 27.6919 2.84349 28.1144 2.66847C28.5369 2.49346 29.0019 2.44767 29.4504 2.53689C29.8989 2.62611 30.311 2.84634 30.6343 3.16972C30.9577 3.4931 31.1779 3.90511 31.2672 4.35365C31.3564 4.80219 31.3106 5.26712 31.1356 5.68964C30.9606 6.11215 30.6642 6.47328 30.2839 6.72736C29.9037 6.98144 29.4566 7.11706 28.9993 7.11706C28.3862 7.11637 27.7985 6.87253 27.365 6.43904C26.9315 6.00555 26.6877 5.41781 26.687 4.80476ZM10.2554 13.5261C9.93206 13.2027 9.71183 12.7907 9.62261 12.3421C9.53339 11.8936 9.57918 11.4287 9.7542 11.0061C9.92921 10.5836 10.2256 10.2225 10.6058 9.96841C10.9861 9.71434 11.4332 9.57872 11.8905 9.57872C12.3478 9.57872 12.7949 9.71434 13.1751 9.96841C13.5554 10.2225 13.8518 10.5836 14.0268 11.0061C14.2018 11.4287 14.2476 11.8936 14.1583 12.3421C14.0691 12.7907 13.8489 13.2027 13.5255 13.5261C13.3118 13.7426 13.0573 13.9145 12.7766 14.0319C12.4959 14.1492 12.1947 14.2096 11.8905 14.2096C11.5863 14.2096 11.2851 14.1492 11.0044 14.0319C10.7237 13.9145 10.4691 13.7426 10.2554 13.5261ZM4.80377 31.3126C4.34645 31.3126 3.89939 31.177 3.51913 30.9229C3.13888 30.6688 2.8425 30.3077 2.66749 29.8852C2.49248 29.4626 2.44669 28.9977 2.53591 28.5492C2.62513 28.1006 2.84535 27.6886 3.16873 27.3652C3.49212 27.0419 3.90413 26.8216 4.35267 26.7324C4.80121 26.6432 5.26614 26.689 5.68865 26.864C6.11117 27.039 6.4723 27.3354 6.72638 27.7156C6.98046 28.0959 7.11607 28.5429 7.11607 29.0003C7.11538 29.6133 6.87154 30.2011 6.43805 30.6346C6.00456 31.068 5.41682 31.3119 4.80377 31.3126ZM13.5251 47.7441C13.2049 48.0651 12.7976 48.2848 12.3536 48.3761C11.9095 48.4673 11.4485 48.4261 11.0278 48.2575C10.607 48.0888 10.2451 47.8002 9.98702 47.4276C9.72895 47.0549 9.5861 46.6146 9.57624 46.1615C9.56637 45.7083 9.68992 45.2622 9.93153 44.8787C10.1731 44.4951 10.5221 44.1911 10.9352 44.0043C11.3482 43.8175 11.807 43.7562 12.2545 43.8281C12.7021 43.8999 13.1187 44.1018 13.4525 44.4084C13.5035 44.4935 13.5732 44.5657 13.6564 44.6198C14.0292 45.0627 14.2225 45.6291 14.1982 46.2075C14.1739 46.7859 13.9337 47.3341 13.5251 47.7441ZM31.3111 53.1958C31.3117 53.6469 31.1802 54.0883 30.933 54.4657C30.6858 54.843 30.3336 55.1398 29.9198 55.3195C29.506 55.4991 29.0487 55.5538 28.6042 55.4769C28.1597 55.3999 27.7475 55.1945 27.4182 54.8862C27.0889 54.5778 26.8571 54.1799 26.7512 53.7414C26.6453 53.3028 26.6699 52.8429 26.8221 52.4183C26.9744 51.9936 27.2475 51.6228 27.6078 51.3514C27.9682 51.08 28.4 50.92 28.8502 50.891C28.948 50.9135 29.0497 50.9135 29.1475 50.891C29.7333 50.9289 30.2828 51.188 30.6847 51.616C31.0865 52.044 31.3106 52.6087 31.3116 53.1958H31.3111ZM47.7431 44.4745C48.0665 44.7979 48.2868 45.2099 48.376 45.6584C48.4652 46.107 48.4194 46.5719 48.2444 46.9944C48.0694 47.4169 47.773 47.7781 47.3927 48.0321C47.0125 48.2862 46.5654 48.4218 46.1081 48.4218C45.6508 48.4218 45.2037 48.2862 44.8235 48.0321C44.4432 47.7781 44.1468 47.4169 43.9718 46.9944C43.7968 46.5719 43.751 46.107 43.8402 45.6584C43.9295 45.2099 44.1497 44.7979 44.4731 44.4745C44.6868 44.258 44.9413 44.086 45.222 43.9687C45.5027 43.8513 45.8039 43.7909 46.1081 43.7909C46.4123 43.7909 46.7135 43.8513 46.9942 43.9687C47.2749 44.086 47.5295 44.258 47.7431 44.4745ZM28.9993 42.9628C26.2427 42.9628 23.5481 42.1453 21.2561 40.6139C18.9641 39.0824 17.1778 36.9057 16.1229 34.359C15.068 31.8123 14.792 29.01 15.3298 26.3064C15.8675 23.6028 17.1949 21.1194 19.1441 19.1702C21.0933 17.2211 23.5767 15.8937 26.2803 15.3559C28.9838 14.8181 31.7862 15.0941 34.3329 16.149C36.8796 17.2039 39.0563 18.9903 40.5878 21.2823C42.1192 23.5742 42.9366 26.2689 42.9366 29.0254C42.9325 32.7206 41.4627 36.2631 38.8499 38.876C36.237 41.4889 32.6944 42.9586 28.9993 42.9628ZM53.1948 31.3126C52.7375 31.3126 52.2904 31.177 51.9102 30.9229C51.5299 30.6688 51.2335 30.3077 51.0585 29.8852C50.8835 29.4626 50.8377 28.9977 50.9269 28.5492C51.0162 28.1006 51.2364 27.6886 51.5598 27.3652C51.8831 27.0419 52.2952 26.8216 52.7437 26.7324C53.1922 26.6432 53.6572 26.689 54.0797 26.864C54.5022 27.039 54.8633 27.3354 55.1174 27.7156C55.3715 28.0959 55.5071 28.5429 55.5071 29.0003C55.5064 29.6133 55.2626 30.2011 54.8291 30.6346C54.3956 31.068 53.8079 31.3119 53.1948 31.3126Z" fill="white"/>
<path d="M37.1178 21.7707L37.1156 21.769C36.1347 20.6652 34.9388 19.7731 33.6012 19.1475C32.2635 18.5219 30.8123 18.1759 29.3363 18.1307C29.2947 18.1258 29.2527 18.1248 29.211 18.1277C29.141 18.1264 29.0708 18.125 29.0005 18.125C28.9302 18.125 28.86 18.1264 28.7899 18.1277C28.7484 18.1248 28.7067 18.1258 28.6653 18.1307C27.1891 18.1759 25.7377 18.522 24.3999 19.1478C23.0621 19.7735 21.8661 20.6658 20.8851 21.7698C20.8838 21.771 20.8824 21.7719 20.8812 21.773C20.8366 21.8123 20.7973 21.8573 20.7644 21.9068C19.0624 23.8781 18.126 26.3956 18.126 29C18.126 31.6044 19.0624 34.1219 20.7644 36.0932C20.7973 36.1428 20.8365 36.1878 20.8812 36.2271C20.8824 36.2283 20.8839 36.2293 20.8854 36.2304C21.8653 37.3333 23.0598 38.2248 24.396 38.8505C25.7321 39.4761 27.1818 39.8226 28.6565 39.869C28.6852 39.8729 28.7141 39.8749 28.7431 39.8751C28.7572 39.8751 28.7709 39.8731 28.7848 39.8723C28.8567 39.8736 28.9288 39.875 29.0011 39.875C29.0733 39.875 29.1454 39.8736 29.2173 39.8723C29.2313 39.8731 29.245 39.8751 29.259 39.8751C29.288 39.8749 29.3169 39.8729 29.3457 39.869C30.8203 39.8226 32.27 39.4761 33.6061 38.8505C34.9423 38.2249 36.1368 37.3334 37.1168 36.2305L37.1185 36.2293C37.1642 36.1895 37.2045 36.1438 37.2381 36.0933C38.9399 34.1221 39.8762 31.6047 39.8762 29.0005C39.8762 26.3962 38.9399 23.8788 37.2381 21.9076C37.2043 21.8568 37.1638 21.8107 37.1178 21.7707ZM36.6317 34.6779C36.102 34.1525 35.519 33.6838 34.8921 33.2793C35.2398 32.1091 35.4384 30.8996 35.4831 29.6797H38.4892C38.3619 31.4894 37.7172 33.2243 36.6317 34.6779ZM19.5118 29.6797H22.5179C22.5627 30.9032 22.7622 32.1161 23.1118 33.2895C22.4854 33.6923 21.9022 34.1585 21.3715 34.6808C20.2847 33.2267 19.6391 31.4906 19.5118 29.6797ZM21.3714 23.3193C21.9022 23.8418 22.4853 24.3084 23.1116 24.7116C22.7622 25.8847 22.5627 27.0972 22.5179 28.3203H19.5118C19.6391 26.5094 20.2846 24.7734 21.3714 23.3193ZM29.6802 26.4217C31.0644 26.3425 32.4201 25.9959 33.6724 25.4012C33.9309 26.3544 34.0819 27.3335 34.1227 28.3203H29.6802V26.4217ZM29.6802 25.0592V19.8085C31.2583 20.7714 32.4719 22.2565 33.2313 24.1044C32.1221 24.6537 30.9153 24.9782 29.6802 25.0592ZM28.3208 19.8085V25.0562C27.0871 24.9696 25.8822 24.6427 24.7738 24.094C25.5341 22.2508 26.7462 20.7691 28.3208 19.8085ZM28.3208 26.4188V28.3203H23.8783C23.9192 27.3298 24.0712 26.347 24.3314 25.3904C25.5832 25.9851 26.9375 26.3342 28.3208 26.4188ZM23.8782 29.6797H28.3208V31.582C26.9378 31.668 25.5839 32.0173 24.332 32.6112C24.0715 31.6541 23.9192 30.6708 23.8782 29.6797ZM28.3208 32.9439V38.1921C26.7455 37.2312 25.5334 35.7494 24.7738 33.9062C25.8822 33.3577 27.0871 33.0308 28.3208 32.9439ZM29.6802 38.1921V32.9405C30.9154 33.0213 32.1224 33.3458 33.2316 33.8953C32.4721 35.7435 31.2585 37.2294 29.6802 38.1921ZM29.6802 31.579V29.6797H34.1228C34.0819 30.6669 33.9308 31.6464 33.6722 32.6C32.4197 32.0058 31.0642 31.6591 29.6802 31.579ZM35.4831 28.3203C35.4384 27.1006 35.2398 25.8915 34.8923 24.7215C35.5191 24.3167 36.1021 23.8477 36.6317 23.3221C37.7171 24.7757 38.3619 26.5106 38.4892 28.3203H35.4831ZM35.7408 22.2902C35.3338 22.7023 34.8896 23.0759 34.4138 23.4062C33.8805 22.141 33.1079 20.9906 32.1384 20.0184C33.4951 20.4944 34.7266 21.271 35.7407 22.2902H35.7408ZM25.8627 20.0184C24.8953 20.9884 24.124 22.1357 23.5909 23.3977C23.1151 23.0689 22.6703 22.6973 22.2622 22.2875C23.2761 21.2696 24.5069 20.4939 25.8626 20.0184H25.8627ZM22.2623 35.712C22.6704 35.3023 23.1151 34.9307 23.5909 34.6019C24.1239 35.8639 24.8952 37.0113 25.8626 37.9814C24.5069 37.5058 23.2761 36.7301 22.2623 35.712ZM32.1384 37.9814C33.1077 37.0093 33.8803 35.8592 34.4136 34.5943C34.8894 34.9246 35.3336 35.2982 35.7405 35.7103C34.7264 36.7292 33.4949 37.5056 32.1384 37.9814Z" fill="white"/>
</svg>
