<svg width="52" height="52" viewBox="0 0 52 52" fill="none" xmlns="http://www.w3.org/2000/svg">
<path d="M45.2891 5.03223V23.4838H51.9987V5.03223H45.2891ZM50.3213 21.8064H46.9665V6.70965H50.3213V21.8064Z" fill="#FECC2F"/>
<path d="M36.9026 13.5168C36.3658 13.037 35.8064 12.5875 35.2252 12.1706V11.742H34.5936C31.3252 9.57985 27.4612 8.38721 23.4832 8.38721H22.6445V29.3549H43.6123V28.5162C43.6123 26.812 43.3867 25.1262 42.9631 23.484H43.6123V8.38721H36.9026V13.5168ZM24.322 27.6775V10.0831C26.6955 10.1921 29.0078 10.7683 31.1398 11.742H28.5155V23.484H35.2252V14.3144C35.8123 14.7991 36.3759 15.3133 36.9026 15.8719V23.484H41.227C41.6145 24.8519 41.8518 26.2559 41.9164 27.6775H24.322ZM33.5478 13.4195V21.8066H30.1929V13.4195H33.5478ZM38.58 10.0646H41.9349V21.8066H38.58V10.0646Z" fill="#FECC2F"/>
<path d="M13.6636 25.407L6.53516 32.5354L7.72126 33.7215L14.8497 26.5931L13.6636 25.407Z" fill="#FECC2F"/>
<path d="M10.0635 26C10.0635 24.6128 8.9346 23.4839 7.54738 23.4839C6.16015 23.4839 5.03125 24.6128 5.03125 26C5.03125 27.3872 6.16015 28.5161 7.54738 28.5161C8.9346 28.5161 10.0635 27.3872 10.0635 26ZM6.70867 26C6.70867 25.537 7.08441 25.1613 7.54738 25.1613C8.01035 25.1613 8.38609 25.537 8.38609 26C8.38609 26.463 8.01035 26.8387 7.54738 26.8387C7.08441 26.8387 6.70867 26.463 6.70867 26Z" fill="#FECC2F"/>
<path d="M14.2583 30.1936C12.8711 30.1936 11.7422 31.3225 11.7422 32.7097C11.7422 34.097 12.8711 35.2259 14.2583 35.2259C15.6455 35.2259 16.7744 34.097 16.7744 32.7097C16.7744 31.3225 15.6455 30.1936 14.2583 30.1936ZM14.2583 33.5484C13.7953 33.5484 13.4196 33.1727 13.4196 32.7097C13.4196 32.2468 13.7953 31.871 14.2583 31.871C14.7213 31.871 15.097 32.2468 15.097 32.7097C15.097 33.1727 14.7213 33.5484 14.2583 33.5484Z" fill="#FECC2F"/>
<path d="M36.7833 43.1457C39.0495 39.8068 40.2581 35.9295 40.2581 31.871V31.0323H20.9677V11.7419H20.129C19.3004 11.7419 18.4575 11.8149 17.6129 11.9214V0H0V11.7419H10.556L12.194 13.3799C4.85194 16.5326 0 23.8009 0 31.871C0 42.9696 9.03039 52 20.129 52C24.9961 52 29.6325 50.2404 33.2959 47.0625L35.8909 49.6575C36.4008 50.1674 37.0718 50.4232 37.7419 50.4232C38.4121 50.4232 39.083 50.1674 39.593 49.6575C40.6137 48.6368 40.6137 46.9761 39.593 45.9554L36.7833 43.1457ZM11.2505 10.0645H1.67742V1.67742H15.9355V14.7495L11.2505 10.0645ZM20.129 50.3226C9.95465 50.3226 1.67742 42.0454 1.67742 31.871C1.67742 24.2463 6.40439 17.4057 13.4839 14.6699L17.6129 18.7988V13.6039C18.174 13.5267 18.7351 13.4646 19.2903 13.4386V32.7097H38.5622C38.4154 36.0184 37.388 39.1744 35.5781 41.9405L34.2403 40.6028C34.3326 40.2228 34.3871 39.8278 34.3871 39.4194C34.3871 36.6441 32.1301 34.3871 29.3548 34.3871C26.5795 34.3871 24.3226 36.6441 24.3226 39.4194C24.3226 42.1946 26.5795 44.4516 29.3548 44.4516C29.7633 44.4516 30.1583 44.3971 30.5383 44.3048L32.1066 45.8732C28.7635 48.7383 24.5507 50.3226 20.129 50.3226ZM32.7097 39.4194C32.7097 41.2695 31.205 42.7742 29.3548 42.7742C27.5046 42.7742 26 41.2695 26 39.4194C26 37.5692 27.5046 36.0645 29.3548 36.0645C31.205 36.0645 32.7097 37.5692 32.7097 39.4194ZM38.407 48.4715C38.0397 48.8389 37.4442 48.8389 37.0768 48.4715L32.1838 43.5785C32.7063 43.2221 33.1576 42.7708 33.514 42.2483L38.407 47.1414C38.7735 47.5087 38.7735 48.1042 38.407 48.4715Z" fill="#FECC2F"/>
<path d="M14.2587 3.35474H3.35547V5.03216H14.2587V3.35474Z" fill="#FECC2F"/>
<path d="M14.2587 6.70972H3.35547V8.38714H14.2587V6.70972Z" fill="#FECC2F"/>
<path d="M30.193 38.5806H28.5156V40.258H30.193V38.5806Z" fill="#FECC2F"/>
<path d="M22.6462 38.5806H20.9688V40.258H22.6462V38.5806Z" fill="#FECC2F"/>
<path d="M19.2907 38.5806H17.6133V40.258H19.2907V38.5806Z" fill="#FECC2F"/>
<path d="M15.9352 38.5806H14.2578V40.258H15.9352V38.5806Z" fill="#FECC2F"/>
</svg>
