<svg width="49" height="49" viewBox="0 0 49 49" fill="none" xmlns="http://www.w3.org/2000/svg">
<g clip-path="url(#clip0)">
<path d="M43.2459 8.72525L41.6126 3.82529C41.4711 3.39705 41.0092 3.16461 40.5809 3.3061C40.5427 3.31875 40.5053 3.33427 40.4693 3.35244L35.5693 5.80242C35.1657 6.00403 35.0018 6.49474 35.2034 6.89838C35.4051 7.30201 35.8958 7.46586 36.2994 7.26424L38.9682 5.92982C31.945 18.7742 19.1365 26.9498 5.71875 26.9498V28.5831C19.9107 28.5831 33.4346 19.858 40.6791 6.1985L41.6943 9.24138C41.8368 9.66982 42.2997 9.90165 42.7281 9.75914C43.1566 9.61663 43.3884 9.15369 43.2459 8.72525Z" fill="#FECC2F"/>
<path d="M48.1829 0H0.81666C0.365659 0 0 0.365659 0 0.81666V37.5664C0 38.0174 0.365659 38.383 0.81666 38.383H15.2274L12.2875 47.9428C12.1549 48.374 12.3969 48.8311 12.8281 48.9637C13.2593 49.0963 13.7163 48.8542 13.8489 48.423L15.4292 43.283H33.5704L35.1523 48.423C35.2849 48.8542 35.7419 49.0963 36.1731 48.9637C36.6043 48.8311 36.8464 48.374 36.7138 47.9428L33.7722 38.383H48.1829C48.6339 38.383 48.9996 38.0174 48.9996 37.5664V0.81666C48.9996 0.365659 48.6339 0 48.1829 0ZM15.9314 41.6497L16.9367 38.383H32.0629L33.0682 41.6497H15.9314ZM47.3663 36.7497H1.63332V1.63332H47.3663V36.7497Z" fill="#FECC2F"/>
<path d="M9.80205 30.2163H6.53541C6.08441 30.2163 5.71875 30.582 5.71875 31.033V34.2996C5.71875 34.7506 6.08441 35.1163 6.53541 35.1163H9.80205C10.253 35.1163 10.6187 34.7506 10.6187 34.2996V31.033C10.6187 30.582 10.253 30.2163 9.80205 30.2163ZM8.98539 33.4829H7.35207V31.8496H8.98539V33.4829Z" fill="#FECC2F"/>
<path d="M17.9661 28.583H14.6995C14.2485 28.583 13.8828 28.9487 13.8828 29.3997V34.2996C13.8828 34.7506 14.2485 35.1163 14.6995 35.1163H17.9661C18.4171 35.1163 18.7828 34.7506 18.7828 34.2996V29.3997C18.7828 28.9487 18.4171 28.583 17.9661 28.583ZM17.1495 33.483H15.5161V30.2163H17.1495V33.483Z" fill="#FECC2F"/>
<path d="M26.1341 25.3164H22.8674C22.4164 25.3164 22.0508 25.6821 22.0508 26.1331V34.2997C22.0508 34.7507 22.4164 35.1163 22.8674 35.1163H26.1341C26.5851 35.1163 26.9507 34.7507 26.9507 34.2997V26.1331C26.9507 25.6821 26.5851 25.3164 26.1341 25.3164ZM25.3174 33.483H23.6841V26.9497H25.3174V33.483Z" fill="#FECC2F"/>
<path d="M34.2981 20.4165H31.0315C30.5805 20.4165 30.2148 20.7822 30.2148 21.2332V34.2997C30.2148 34.7507 30.5805 35.1164 31.0315 35.1164H34.2981C34.7491 35.1164 35.1148 34.7507 35.1148 34.2997V21.2332C35.1148 20.7822 34.7491 20.4165 34.2981 20.4165ZM33.4815 33.4831H31.8482V22.0498H33.4815V33.4831Z" fill="#FECC2F"/>
<path d="M42.4661 11.4331H39.1995C38.7485 11.4331 38.3828 11.7988 38.3828 12.2498V34.2996C38.3828 34.7506 38.7485 35.1162 39.1995 35.1162H42.4661C42.9171 35.1162 43.2828 34.7506 43.2828 34.2996V12.2498C43.2828 11.7988 42.9171 11.4331 42.4661 11.4331ZM41.6495 33.4829H40.0161V13.0664H41.6495V33.4829Z" fill="#FECC2F"/>
</g>
<defs>
<clipPath id="clip0">
<rect width="49" height="49" fill="white"/>
</clipPath>
</defs>
</svg>
