<svg width="52" height="52" viewBox="0 0 52 52" fill="none" xmlns="http://www.w3.org/2000/svg">
<path d="M23.3944 33.9594C23.7907 33.5623 23.7907 32.9192 23.3944 32.522C22.9972 32.1261 22.3545 32.1261 21.9574 32.522C21.5611 32.9192 21.5611 33.5623 21.9574 33.9594C22.3545 34.3553 22.9972 34.3553 23.3944 33.9594Z" fill="#FECC2F"/>
<path d="M23.7656 10.0552V12.0864C23.7656 15.4531 26.4927 18.1802 29.8594 18.1802C33.2197 18.1802 35.9535 15.4467 35.9535 12.0864V10.0552C36.5145 10.0552 36.9691 9.60052 36.9691 9.03955C36.9691 8.47858 36.5145 8.02393 35.9535 8.02393H33.9223C33.3613 8.02393 32.9066 8.47858 32.9066 9.03955C32.9066 9.60052 33.3613 10.0552 33.9223 10.0552V12.0864C33.9223 14.3264 32.0997 16.1489 29.8594 16.1489C27.6159 16.1489 25.7969 14.3307 25.7969 12.0864V10.0552C26.3578 10.0552 26.8125 9.60052 26.8125 9.03955C26.8125 8.47858 26.3578 8.02393 25.7969 8.02393H23.7656C23.2047 8.02393 22.75 8.47858 22.75 9.03955C22.75 9.60052 23.2047 10.0552 23.7656 10.0552Z" fill="#FECC2F"/>
<path d="M11.8035 49.8612C12.0018 50.0592 12.2613 50.158 12.5211 50.158C12.781 50.158 13.0409 50.0588 13.2392 49.8608L16.3579 46.7422C17.3739 45.7269 17.8631 44.3364 17.7218 42.9312L18.8402 41.8513C19.7277 40.9959 20.8945 40.5246 22.1251 40.5246H35.4972C37.8927 40.5246 40.1568 39.6046 41.8723 37.934C41.8977 37.9094 41.9215 37.8836 41.9441 37.8562L51.0426 26.9303C52.4883 25.2196 52.2721 22.6512 50.5598 21.2039C48.8587 19.7702 46.3093 19.9765 44.8592 21.6586L43.8765 22.675V2.84375C43.8765 2.28278 43.4215 1.82812 42.8609 1.82812H16.7582C16.1976 1.82812 15.7426 2.28278 15.7426 2.84375V25.5989C11.8094 26.4245 8.68993 28.866 7.00979 32.4349C5.68472 32.3663 4.39258 32.8535 3.43368 33.8136L0.299134 36.9326C0.107911 37.1231 0.000397822 37.3817 1.09407e-06 37.6515C-0.000395634 37.9217 0.107118 38.1804 0.297944 38.3712L11.8035 49.8612ZM41.8453 3.85938V24.7753L38.9059 27.8142C38.1494 26.8847 36.9965 26.3055 35.7512 26.3055H23.9755C23.9104 26.3055 23.8398 26.2904 23.7688 26.2618C22.1866 25.6168 20.5112 25.2899 18.7898 25.2899C18.4498 25.2899 18.111 25.3022 17.7742 25.3244V3.85938H41.8453ZM16.9038 27.4548C18.9584 27.1577 21.0131 27.3322 23.0059 28.1443C23.3225 28.2721 23.649 28.3371 23.9755 28.3371H35.7512C36.8525 28.3371 37.7824 29.2353 37.7824 30.3684C37.7824 31.4883 36.8711 32.3996 35.7512 32.3996H26.9148C26.3543 32.3996 25.8992 32.8543 25.8992 33.4153C25.8992 33.9762 26.3543 34.4309 26.9148 34.4309H35.7512C37.9915 34.4309 39.8137 32.6083 39.8137 30.3684C39.8137 30.1891 39.8006 30.0109 39.7775 29.8352C39.9894 29.6182 46.1284 23.2689 46.341 23.0487C46.3565 23.0325 46.372 23.0158 46.3862 22.9987C47.1099 22.1442 48.3949 22.0363 49.2498 22.7567C50.1056 23.48 50.2139 24.7642 49.4863 25.6251L40.4183 36.5145C39.0888 37.7912 37.3432 38.4934 35.4972 38.4934H22.1251C20.3656 38.4934 18.6986 39.1662 17.4299 40.3893L16.9819 40.8218C16.8026 40.5461 16.594 40.2886 16.3583 40.0533L10.1201 33.8152C9.78689 33.4819 9.4088 33.205 8.99978 32.9864C10.5514 29.926 13.3229 27.9753 16.9038 27.4548ZM4.86865 35.2513C5.93585 34.1825 7.64138 34.2087 8.68359 35.2517L14.9225 41.4903C15.9683 42.5341 15.987 44.2416 14.9221 45.3052L12.5203 47.7066L2.45416 37.6539L4.86865 35.2513Z" fill="#FECC2F"/>
</svg>
