<svg width="97" height="137" viewBox="0 0 97 137" fill="none" xmlns="http://www.w3.org/2000/svg">
<path d="M92.457 115.034L86.575 117.703L83.0162 109.86L73.2129 114.309L64.1182 94.2668C61.716 88.973 56.8534 85.2497 51.115 84.3118L24.0242 79.884L38.5309 56.5802C41.6037 51.6439 42.0035 45.5326 39.6013 40.2388L30.5067 20.1969L40.31 15.7483L36.7511 7.90568L42.6331 5.23654C43.7154 4.74542 44.1961 3.47042 43.7041 2.38617C43.212 1.30192 41.936 0.824099 40.8537 1.31522L34.9717 3.98436L33.011 4.87407L-45.4154 40.4626L-47.3761 41.3523L-53.2581 44.0214C-54.3404 44.5125 -54.821 45.7875 -54.329 46.8718C-53.837 47.956 -52.5609 48.4339 -51.4787 47.9427L-45.5967 45.2736L-42.0378 53.1163L-32.2345 48.6677L-23.1399 68.7096C-20.7376 74.0034 -15.875 77.7267 -10.1366 78.6646L16.9541 83.0923L2.44745 106.396C-0.625366 111.332 -1.02518 117.444 1.37705 122.738L10.4717 142.779L0.668381 147.228L4.22723 155.071L-1.65476 157.74C-2.73704 158.231 -3.21772 159.506 -2.7257 160.59C-2.2337 161.674 -0.957616 162.152 0.124669 161.661L6.00665 158.992L7.96732 158.102L86.3938 122.514L88.3545 121.624L94.2364 118.955C95.3187 118.464 95.7994 117.189 95.3074 116.105C94.8154 115.02 93.5393 114.542 92.457 115.034ZM-39.8959 47.4155L-41.6754 43.4942L32.8298 9.68511L34.6092 13.6064L28.7272 16.2756L-34.0139 44.7464L-39.8959 47.4155ZM-9.44275 74.4154C-13.757 73.7084 -17.4124 70.9103 -19.2186 66.9302L-28.3132 46.8883L26.5853 21.9763L35.68 42.0182C37.4861 45.9983 37.1849 50.5919 34.876 54.3043L19.4197 79.1315L-9.44275 74.4154ZM5.29837 120.958C3.49226 116.978 3.79345 112.384 6.10231 108.672L21.5586 83.8449L50.4211 88.561C54.7354 89.2679 58.3908 92.0661 60.1969 96.0462L69.2915 116.088L14.393 141L5.29837 120.958ZM6.36913 149.37L12.2511 146.701L74.9923 118.23L80.8743 115.561L82.6537 119.482L8.14855 153.291L6.36913 149.37Z" fill="#FECC2F"/>
<path d="M-8.05319 65.9155C-9.51937 65.6753 -10.7622 64.7237 -11.3761 63.3708L-13.353 59.0142C-13.845 57.93 -15.1211 57.4522 -16.2034 57.9433C-17.2857 58.4344 -17.7664 59.7094 -17.2743 60.7937L-15.2974 65.1503C-14.0865 67.8187 -11.6374 69.6936 -8.74708 70.1648L3.09745 72.1007C3.5313 72.171 3.95865 72.1071 4.33313 71.9372C4.96643 71.6498 5.44916 71.0619 5.57044 70.3235C5.76114 69.1494 4.96639 68.0441 3.79331 67.8505L-8.05319 65.9155Z" fill="#FECC2F"/>
<path d="M50.4904 94.4973L38.6458 92.5614C37.4708 92.3687 36.3655 93.1635 36.1728 94.3385C35.9821 95.5127 36.7769 96.618 37.95 96.8115L49.7945 98.7474C51.2626 98.9867 52.5046 99.9364 53.1194 101.291L55.0963 105.648C55.5883 106.732 56.8644 107.21 57.9467 106.719C59.029 106.228 59.5096 104.953 59.0176 103.868L57.0407 99.5118C55.8289 96.8414 53.3807 94.9684 50.4904 94.4973Z" fill="#FECC2F"/>
</svg>
