<svg width="172" height="172" viewBox="0 0 172 172" fill="none" xmlns="http://www.w3.org/2000/svg">
<g>
<path d="M158.457 120.035L152.575 122.704L149.016 114.861L139.213 119.31L130.118 99.2678C127.716 93.974 122.853 90.2506 117.115 89.3127L90.0242 84.885L104.531 61.5811C107.604 56.6449 108.004 50.5335 105.601 45.2398L96.5067 25.1979L106.31 20.7493L102.751 12.9067L108.633 10.2375C109.715 9.7464 110.196 8.47139 109.704 7.38715C109.212 6.3029 107.936 5.82508 106.854 6.31619L100.972 8.98533L99.011 9.87505L20.5846 45.4635L18.6239 46.3533L12.7419 49.0224C11.6596 49.5135 11.179 50.7885 11.671 51.8728C12.163 52.957 13.4391 53.4348 14.5213 52.9437L20.4033 50.2746L23.9622 58.1172L33.7655 53.6687L42.8601 73.7106C45.2624 79.0043 50.125 82.7277 55.8634 83.6656L82.9541 88.0933L68.4475 111.397C65.3746 116.333 64.9748 122.445 67.377 127.739L76.4717 147.78L66.6684 152.229L70.2272 160.072L64.3452 162.741C63.263 163.232 62.7823 164.507 63.2743 165.591C63.7663 166.675 65.0424 167.153 66.1247 166.662L72.0067 163.993L73.9673 163.103L152.394 127.515L154.354 126.625L160.236 123.956C161.319 123.465 161.799 122.19 161.307 121.106C160.815 120.021 159.539 119.543 158.457 120.035ZM26.1041 52.4165L24.3246 48.4952L98.8298 14.6861L100.609 18.6074L94.7272 21.2765L31.9861 49.7473L26.1041 52.4165ZM56.5572 79.4163C52.243 78.7094 48.5876 75.9113 46.7814 71.9311L37.6868 51.8892L92.5853 26.9773L101.68 47.0192C103.486 50.9993 103.185 55.5929 100.876 59.3053L85.4197 84.1324L56.5572 79.4163ZM71.2984 125.959C69.4923 121.979 69.7935 117.385 72.1023 113.673L87.5586 88.8459L116.421 93.562C120.735 94.2689 124.391 97.067 126.197 101.047L135.292 121.089L80.393 146.001L71.2984 125.959ZM72.3691 154.371L78.2511 151.702L140.992 123.231L146.874 120.562L148.654 124.483L74.1486 158.292L72.3691 154.371Z" fill="white"/>
<path d="M57.9468 70.9165C56.4806 70.6763 55.2378 69.7247 54.6239 68.3718L52.647 64.0152C52.155 62.931 50.8789 62.4532 49.7966 62.9443C48.7143 63.4354 48.2336 64.7104 48.7257 65.7946L50.7026 70.1512C51.9135 72.8197 54.3626 74.6946 57.2529 75.1658L69.0975 77.1016C69.5313 77.1719 69.9586 77.1081 70.3331 76.9381C70.9664 76.6507 71.4492 76.0628 71.5704 75.3245C71.7611 74.1503 70.9664 73.0451 69.7933 72.8515L57.9468 70.9165Z" fill="white"/>
<path d="M116.49 99.4982L104.646 97.5624C103.471 97.3697 102.365 98.1644 102.173 99.3395C101.982 100.514 102.777 101.619 103.95 101.812L115.795 103.748C117.263 103.988 118.505 104.937 119.119 106.292L121.096 110.649C121.588 111.733 122.864 112.211 123.947 111.72C125.029 111.229 125.51 109.954 125.018 108.869L123.041 104.513C121.829 101.842 119.381 99.9694 116.49 99.4982Z" fill="white"/>
<mask id="mask0" mask-type="alpha" maskUnits="userSpaceOnUse" x="66" y="3" width="138" height="139">
<circle cx="135" cy="72.1836" r="69" fill="white"/>
</mask>
<g mask="url(#mask0)">
<path d="M158.457 120.034L152.575 122.703L149.016 114.86L139.213 119.309L130.118 99.2668C127.716 93.973 122.853 90.2497 117.115 89.3118L90.0242 84.884L104.531 61.5802C107.604 56.6439 108.004 50.5326 105.601 45.2388L96.5067 25.1969L106.31 20.7483L102.751 12.9057L108.633 10.2365C109.715 9.74542 110.196 8.47042 109.704 7.38617C109.212 6.30192 107.936 5.8241 106.854 6.31522L100.972 8.98436L99.011 9.87407L20.5846 45.4626L18.6239 46.3523L12.7419 49.0214C11.6596 49.5125 11.179 50.7875 11.671 51.8718C12.163 52.956 13.4391 53.4339 14.5213 52.9427L20.4033 50.2736L23.9622 58.1163L33.7655 53.6677L42.8601 73.7096C45.2624 79.0034 50.125 82.7267 55.8634 83.6646L82.9541 88.0923L68.4475 111.396C65.3746 116.332 64.9748 122.444 67.377 127.738L76.4717 147.779L66.6684 152.228L70.2272 160.071L64.3452 162.74C63.263 163.231 62.7823 164.506 63.2743 165.59C63.7663 166.674 65.0424 167.152 66.1247 166.661L72.0067 163.992L73.9673 163.102L152.394 127.514L154.354 126.624L160.236 123.955C161.319 123.464 161.799 122.189 161.307 121.105C160.815 120.02 159.539 119.542 158.457 120.034ZM26.1041 52.4155L24.3246 48.4942L98.8298 14.6851L100.609 18.6064L94.7272 21.2756L31.9861 49.7464L26.1041 52.4155ZM56.5572 79.4154C52.243 78.7084 48.5876 75.9103 46.7814 71.9302L37.6868 51.8883L92.5853 26.9763L101.68 47.0182C103.486 50.9983 103.185 55.5919 100.876 59.3043L85.4197 84.1315L56.5572 79.4154ZM71.2984 125.958C69.4923 121.978 69.7935 117.384 72.1023 113.672L87.5586 88.8449L116.421 93.561C120.735 94.2679 124.391 97.0661 126.197 101.046L135.292 121.088L80.393 146L71.2984 125.958ZM72.3691 154.37L78.2511 151.701L140.992 123.23L146.874 120.561L148.654 124.482L74.1486 158.291L72.3691 154.37Z" fill="#FECC2F"/>
<path d="M57.9468 70.9155C56.4806 70.6753 55.2378 69.7237 54.6239 68.3708L52.647 64.0142C52.155 62.93 50.8789 62.4522 49.7966 62.9433C48.7143 63.4344 48.2336 64.7094 48.7257 65.7937L50.7026 70.1503C51.9135 72.8187 54.3626 74.6936 57.2529 75.1648L69.0975 77.1007C69.5313 77.171 69.9586 77.1071 70.3331 76.9372C70.9664 76.6498 71.4492 76.0619 71.5704 75.3235C71.7611 74.1494 70.9664 73.0441 69.7933 72.8505L57.9468 70.9155Z" fill="#FECC2F"/>
<path d="M116.49 99.4973L104.646 97.5614C103.471 97.3687 102.365 98.1635 102.173 99.3385C101.982 100.513 102.777 101.618 103.95 101.812L115.795 103.747C117.263 103.987 118.505 104.936 119.119 106.291L121.096 110.648C121.588 111.732 122.864 112.21 123.947 111.719C125.029 111.228 125.51 109.953 125.018 108.868L123.041 104.512C121.829 101.841 119.381 99.9684 116.49 99.4973Z" fill="#FECC2F"/>
</g>
</g>
</svg>
