<svg width="153" height="184" viewBox="0 0 153 184" fill="none" xmlns="http://www.w3.org/2000/svg">
<path d="M152 161.2C152 161.467 152 162.4 152 164C152.133 165.6 152.2 167.267 152.2 169C152.333 170.867 152.4 172.533 152.4 174C152.533 175.467 152.6 176.267 152.6 176.4C152.6 176.667 152.533 176.867 152.4 177C152.4 177.267 152.333 177.4 152.2 177.4C152.067 177.4 151.4 177 150.2 176.2C149.133 175.4 148.4 174.8 148 174.4C144.933 172.133 141.733 168.867 138.4 164.6C135.2 160.333 132.133 156.733 129.2 153.8C128 152.733 126.467 151.733 124.6 150.8C122.867 149.867 121.333 149.4 120 149.4C118.667 149.4 117.8 149.533 117.4 149.8C117.133 150.067 116.8 150.2 116.4 150.2C116.267 150.2 116.133 150.133 116 150C116 149.733 116 149.533 116 149.4C116 149.267 116 148.933 116 148.4C116.133 147.867 116.2 147.467 116.2 147.2C116.2 143.333 115.333 139.467 113.6 135.6C112 131.6 111.2 128.4 111.2 126C111.2 124.667 111.4 123.533 111.8 122.6C112.333 121.667 112.667 120.533 112.8 119.2C112.8 117.6 112.867 116.067 113 114.6C113.267 113 113.4 111.467 113.4 110C113.4 109.867 113.333 109.667 113.2 109.4C113.067 109.133 113 108.933 113 108.8C113 108.667 113 108.6 113 108.6C113.133 108.467 113.267 108.4 113.4 108.4C113.533 108.4 113.6 108.467 113.6 108.6C113.733 108.733 113.867 108.933 114 109.2C114.267 110 114.667 111 115.2 112.2C115.733 113.267 116 114.333 116 115.4C116 115.667 116 116.2 116 117C116.133 117.667 116.333 118 116.6 118C116.867 118 117.067 117.733 117.2 117.2C117.467 116.533 117.6 116.067 117.6 115.8C117.6 114.067 118 112.533 118.8 111.2C119.6 109.733 120.267 109 120.8 109C121.067 109 121.333 109.067 121.6 109.2C121.867 109.2 122.133 109.2 122.4 109.2C122.8 109.2 123.4 109 124.2 108.6C125.133 108.067 125.6 107.267 125.6 106.2C125.6 104.733 125.067 103 124 101C123.067 98.8667 122.333 97.1333 121.8 95.8C121.667 95.2667 121.333 94.2667 120.8 92.8C120.267 91.3333 119.933 90.1333 119.8 89.2C119.667 88.2667 119.467 86.9333 119.2 85.2C118.933 83.3333 118.8 81.9333 118.8 81C118.8 80.0667 118.733 79.2667 118.6 78.6C118.6 77.8 118.467 77 118.2 76.2C117.933 75.4 117.467 74.5333 116.8 73.6C116.267 72.6667 115.6 71.5333 114.8 70.2C112.933 67.2667 111.2 64.1333 109.6 60.8C108 57.4667 106.2 54.3333 104.2 51.4C104.067 51.2667 103.933 51.1333 103.8 51C103.667 50.7333 103.533 50.6 103.4 50.6C102.867 50.6 102.067 51 101 51.8C100.067 52.4667 99.1333 52.8 98.2 52.8C97.8 52.8 97.4 52.6667 97 52.4C96.6 52.1333 96.1333 51.7333 95.6 51.2C95.0667 50.5333 94.6667 50 94.4 49.6C94.2667 49.0667 94.0667 48.8 93.8 48.8C93.6667 48.8 93.5333 48.9333 93.4 49.2C93.2667 49.4667 93.2 49.7333 93.2 50C93.2 50.2667 93.2667 50.8 93.4 51.6C93.6667 52.4 94 53.0667 94.4 53.6C94.9333 54.9333 95.6 56.2 96.4 57.4C97.2 58.4667 97.8667 59.5333 98.4 60.6C98.5333 60.7333 98.9333 61.2667 99.6 62.2C100.267 63 100.667 63.6667 100.8 64.2C101.2 64.6 101.667 65.2667 102.2 66.2C102.733 67.1333 103.067 67.7333 103.2 68C103.333 68.1333 103.733 68.6 104.4 69.4C105.067 70.0667 105.467 70.5333 105.6 70.8C105.733 71.0667 106 71.6667 106.4 72.6C106.933 73.5333 107.333 74.2 107.6 74.6C107.867 75 108.2 75.8 108.6 77C109.133 78.2 109.467 79.0667 109.6 79.6C109.733 80.1333 109.867 80.7333 110 81.4C110.133 82.0667 110.267 82.4667 110.4 82.6C110.533 82.7333 110.733 83.2 111 84C111.267 84.6667 111.4 85.3333 111.4 86C111.4 86.6667 111.4 87.4 111.4 88.2C111.4 88.8667 111.467 89.6667 111.6 90.6C111.733 92.7333 111.933 94.4 112.2 95.6C112.467 96.6667 112.6 97.5333 112.6 98.2C112.6 99.1333 112.533 100.067 112.4 101C112.4 101.8 112.333 102.2 112.2 102.2C112.067 102.2 111.733 101.267 111.2 99.4C110.667 97.5333 110.4 95.3333 110.4 92.8C110.4 92.4 110.4 91.4 110.4 89.8C110.533 88.0667 110.6 86.8667 110.6 86.2C110.6 85.6667 110.533 85.0667 110.4 84.4C110.267 83.6 110.133 83.1333 110 83C109.867 82.8667 109.6 82.3333 109.2 81.4C108.933 80.3333 108.733 79.5333 108.6 79C108.467 78.2 108.067 77.2667 107.4 76.2C106.867 75 106.4 74 106 73.2C105.733 72.5333 105.467 72 105.2 71.6C104.933 71.0667 104.667 70.6667 104.4 70.4C104.267 69.8667 103.933 69.4667 103.4 69.2C103 68.8 102.733 68.4667 102.6 68.2C102.467 68.0667 102.333 67.8667 102.2 67.6C102.067 67.2 101.933 67 101.8 67C101.533 67 101.133 67.2 100.6 67.6C100.067 67.8667 99.6667 68.0667 99.4 68.2C99 68.3333 98.6667 68.5333 98.4 68.8C98.1333 68.9333 97.8667 69 97.6 69C97.3333 69 97 68.9333 96.6 68.8C96.2 68.6667 95.8667 68.4 95.6 68C95.3333 67.4667 94.9333 66.9333 94.4 66.4C94 65.8667 93.7333 65.3333 93.6 64.8C93.6 64.6667 93.5333 64.5333 93.4 64.4C93.4 64.2667 93.3333 64.2 93.2 64.2C93.0667 64.2 92.9333 64.3333 92.8 64.6C92.8 64.8667 92.8 65.2667 92.8 65.8C92.8 67 93.1333 68.2667 93.8 69.6C94.4667 70.8 95.1333 71.8 95.8 72.6C96.0667 72.8667 96.4667 73.2667 97 73.8C97.5333 74.2 97.8 74.6 97.8 75C97.8 75.1333 97.8 75.2667 97.8 75.4C97.8 75.5333 97.7333 75.6 97.6 75.6C97.3333 75.6 97.0667 75.4667 96.8 75.2C96.6667 74.8 96.4 74.6 96 74.6C95.8667 74.6 95.7333 74.7333 95.6 75C95.6 75.1333 95.6 75.2667 95.6 75.4C95.6 76.3333 95.9333 77.3333 96.6 78.4C97.4 79.4667 98 80.4667 98.4 81.4C98.5333 81.8 98.7333 82.3333 99 83C99.2667 83.5333 99.4 83.8667 99.4 84C99.4 85.3333 99.2667 86.6 99 87.8C98.8667 89 98.8 90.2667 98.8 91.6C98.8 92 98.7333 92.6 98.6 93.4C98.6 94.2 98.6 94.9333 98.6 95.6C98.6 96.2667 98.6 96.8 98.6 97.2C98.7333 97.4667 98.8 97.7333 98.8 98C98.8 98.4 98.6667 98.8 98.4 99.2C98.2667 99.4667 98.2 99.8667 98.2 100.4C98.2 101.467 98.0667 102.933 97.8 104.8C97.5333 106.667 97.4 108.067 97.4 109C97.4 109.267 97.4 110.067 97.4 111.4C97.5333 112.733 97.6 113.733 97.6 114.4C97.6 116.533 97.4667 118.067 97.2 119C97.0667 119.8 97 121.2 97 123.2C97 123.733 96.9333 124.8 96.8 126.4C96.8 128 96.8 129 96.8 129.4C96.9333 133.933 97.8 137.733 99.4 140.8C101 143.867 102.133 146.4 102.8 148.4C103.2 149.467 103.667 150.467 104.2 151.4C104.733 152.2 105.2 152.933 105.6 153.6C106.533 155.2 107.533 156.333 108.6 157C109.8 157.8 110.4 158.533 110.4 159.2C110.4 159.333 110.333 159.467 110.2 159.6C110.067 159.733 109.8 159.867 109.4 160C109.133 160.133 108.8 160.267 108.4 160.4C108 160.533 107.8 160.8 107.8 161.2C107.8 161.467 108.067 161.933 108.6 162.6C109.267 163.267 109.8 163.933 110.2 164.6C111.267 166.2 113.267 168.933 116.2 172.8C119.133 176.8 121 180.267 121.8 183.2C121.8 183.333 121.733 183.4 121.6 183.4C121.467 183.4 121.333 183.4 121.2 183.4C121.2 183.4 121.133 183.333 121 183.2C121 183.067 120.933 182.8 120.8 182.4C119.867 180.533 118.2 178.133 115.8 175.2C113.4 172.267 111.667 170.067 110.6 168.6C109.933 167.667 108.933 166.467 107.6 165C106.267 163.533 105.333 162.467 104.8 161.8C104.133 161 103.4 160.267 102.6 159.6C101.933 159.067 101.333 158.2 100.8 157C100.267 155.8 99.8667 154.8 99.6 154C99.3333 153.2 99.2 152.6 99.2 152.2C99.2 152.067 99.0667 151.933 98.8 151.8C98.6667 151.533 98.5333 151.4 98.4 151.4C98.2667 151.4 97.8667 151.667 97.2 152.2C96.6667 152.6 95.9333 153.067 95 153.6C94.0667 154 93.1333 154.267 92.2 154.4C91.4 154.533 90.7333 154.667 90.2 154.8C89.6667 154.933 88.2667 155.133 86 155.4C83.8667 155.8 81.3333 156 78.4 156C75.0667 156 71.2667 155.467 67 154.4C62.7333 153.467 58.3333 151.933 53.8 149.8C49.2667 147.533 44.8 144.6 40.4 141C36 137.4 32.0667 133.067 28.6 128C27.5333 126.267 26.4667 124.533 25.4 122.8C24.4667 121.067 23.6667 118.333 23 114.6C22.7333 113.4 22.5333 112.467 22.4 111.8C22.2667 111 22.2 110.4 22.2 110C22.0667 109.733 21.9333 109.467 21.8 109.2C21.8 108.8 21.5333 108.533 21 108.4C20.4667 108.267 19.7333 108 18.8 107.6C18 107.2 17.2667 106.733 16.6 106.2C15.9333 105.667 15.2667 105.133 14.6 104.6C13.9333 104.067 13.3333 103.533 12.8 103C12.2667 102.733 11.7333 102.467 11.2 102.2C10.6667 101.8 10.2 101.333 9.8 100.8C9.26667 100.267 8.8 99.7333 8.4 99.2C8 98.5333 7.73334 98.2 7.6 98.2C7.46667 98.2 7.33334 98.4 7.2 98.8C7.06667 99.0667 7 99.4667 7 100C7 100.533 6.93333 101 6.8 101.4C6.66667 101.667 6.6 102 6.6 102.4C6.6 103.6 6.6 104.4 6.6 104.8C6.6 105.2 6.53333 105.4 6.4 105.4C6.26667 105.4 6.13334 105.267 6 105C5.86667 104.733 5.73333 104.4 5.6 104C5.46667 103.467 5.26667 103.133 5 103C4.73333 102.733 4.53333 102.6 4.4 102.6C4.26667 102.6 4.13333 102.667 4 102.8C3.86667 102.8 3.73333 102.8 3.6 102.8C3.46667 102.8 3.33333 102.6 3.2 102.2C3.2 101.667 3.13333 101.333 3 101.2C2.86667 101.2 2.73333 101.2 2.6 101.2C2.46667 101.067 2.4 100.867 2.4 100.6C2.4 100.467 2.53333 100.333 2.8 100.2C3.06667 99.9333 3.2 99.7333 3.2 99.6C3.2 99.4667 3.13333 99.3333 3 99.2C3 99.0667 2.93333 99 2.8 99C2.66667 99 2.46667 99.1333 2.2 99.4C1.93333 99.6667 1.8 99.8 1.8 99.8C1.66667 99.8 1.46667 99.8 1.2 99.8C1.06667 99.6667 1 99.5333 1 99.4C1 99 1.26667 98.6667 1.8 98.4C2.33333 98 2.6 97.6667 2.6 97.4C2.6 97 2.53333 96.5333 2.4 96C2.26667 95.4667 2.2 95 2.2 94.6C2.2 94.0667 2.13333 93.6667 2 93.4C2 93.1333 1.93333 92.9333 1.8 92.8C1.66667 92.6667 1.53333 92.5333 1.4 92.4C1.4 92.2667 1.4 92.1333 1.4 92C1.4 91.8667 1.46667 91.6667 1.6 91.4C1.86667 91 2 90.7333 2 90.6C2 90.4667 1.93333 90.3333 1.8 90.2C1.66667 90.0667 1.6 89.9333 1.6 89.8C1.6 89.6667 1.6 89.4667 1.6 89.2C1.73333 88.9333 1.8 88.7333 1.8 88.6C1.8 88.3333 1.53333 88.1333 1 88C0.600001 87.8667 0.400001 87.6 0.400001 87.2C0.400001 86.5333 0.666668 85.8667 1.2 85.2C1.73333 84.5333 2 83.6 2 82.4C2 81.4667 1.93333 80.8 1.8 80.4C1.66667 80 1.53333 79.8 1.4 79.8C1.26667 79.8 1.06667 79.8667 0.8 80C0.666668 80.1333 0.600002 80.2 0.600002 80.2C0.466668 80.2 0.333334 80.2 0.200001 80.2C0.200001 80.0667 0.200001 79.9333 0.200001 79.8C0.200001 79.6667 0.266668 79.4667 0.400001 79.2C0.666667 78.9333 0.8 78.7333 0.8 78.6C0.8 78.3333 0.866667 77.8667 1 77.2C1.26667 76.5333 1.4 75.9333 1.4 75.4C1.4 75.2667 1.33333 74.9333 1.2 74.4C1.06667 73.8667 1 73.4667 1 73.2C1 73.0667 0.866668 72.9333 0.600002 72.8C0.466668 72.6667 0.400001 72.4667 0.400001 72.2C0.400001 72.0667 0.466668 71.9333 0.600002 71.8C0.733334 71.6667 0.8 71.5333 0.8 71.4C0.8 71.2667 0.666667 71.1333 0.400001 71C0.133334 70.8667 2.98023e-07 70.7333 2.98023e-07 70.6C2.98023e-07 70.2 0.133334 69.9333 0.400001 69.8C0.800001 69.6667 1 69.4 1 69C1 68.4667 0.933334 67.9333 0.8 67.4C0.8 66.8667 0.8 65.7333 0.8 64C0.8 63.7333 0.666667 63.5333 0.400001 63.4C0.266668 63.1333 0.200001 62.8667 0.200001 62.6C0.200001 62.4667 0.333334 62.2 0.600002 61.8C0.866668 61.4 1 61.0667 1 60.8C1 60.1333 1.06667 59.2 1.2 58C1.33333 56.8 1.4 55.8667 1.4 55.2C1.4 55.0667 1.33333 54.9333 1.2 54.8C1.06667 54.6667 1 54.6 1 54.6C0.866667 54.6 0.733334 54.8 0.600002 55.2C0.600002 55.6 0.533335 55.8 0.400001 55.8C0.266668 55.8 0.133334 55.6667 2.98023e-07 55.4C2.98023e-07 55.1333 2.98023e-07 54.9333 2.98023e-07 54.8C2.98023e-07 54.6667 0.133334 54.2667 0.400001 53.6C0.666667 52.9333 0.866667 52.3333 1 51.8C1.4 51.2667 1.66667 50.8 1.8 50.4C1.93333 49.8667 2 49.5333 2 49.4C2 49.1333 1.86667 48.9333 1.6 48.8C1.46667 48.6667 1.4 48.4667 1.4 48.2C1.4 48.0667 1.53333 47.9333 1.8 47.8C2.2 47.5333 2.46667 47.3333 2.6 47.2C2.73333 47.0667 3.06667 46.6 3.6 45.8C4.13334 44.8667 4.4 44.3333 4.4 44.2C4.4 43.9333 4.33333 43.6 4.2 43.2C4.2 42.8 4.13333 42.6 4 42.6C3.86667 42.4667 3.73333 42.4 3.6 42.4C3.46667 42.4 3.4 42.3333 3.4 42.2C3.4 42.0667 3.53333 41.9333 3.8 41.8C4.06667 41.5333 4.2 41.3333 4.2 41.2C4.2 41.0667 4 40.9333 3.6 40.8C3.33333 40.6667 3.2 40.5333 3.2 40.4C3.2 40.2667 3.46667 40.1333 4 40C4.66667 39.8667 5 39.6 5 39.2C5 38.6667 4.93333 38.2 4.8 37.8C4.8 37.4 4.73333 37.2 4.6 37.2C4.46667 37.2 4.33333 37.2667 4.2 37.4C4.2 37.5333 4.13333 37.6 4 37.6C3.86667 37.6 3.8 37.5333 3.8 37.4C3.8 37.2667 3.8 37.1333 3.8 37C3.8 36.0667 4.13333 35.1333 4.8 34.2C5.46667 33.1333 6.13333 32.2667 6.8 31.6C7.73333 30.6667 8.26667 29.6667 8.4 28.6C8.53333 27.5333 8.86667 26.6667 9.4 26C9.53333 25.6 9.6 25.3333 9.6 25.2C9.73333 24.9333 9.86667 24.8 10 24.8C10.1333 24.8 10.2 24.8667 10.2 25C10.3333 25.1333 10.4 25.3333 10.4 25.6C10.4 25.7333 10.4667 25.8667 10.6 26C10.7333 26 10.8 26 10.8 26C10.9333 26 11.0667 25.8667 11.2 25.6C11.3333 25.2 11.5333 24.9333 11.8 24.8C11.9333 24.4 12.1333 24.1333 12.4 24C12.6667 23.7333 12.8667 23.6 13 23.6C13.1333 23.6 13.2667 23.6667 13.4 23.8C13.5333 23.8 13.6667 23.8 13.8 23.8C13.9333 23.8 14 23.6667 14 23.4C14.1333 23.1333 14.2667 23 14.4 23C14.6667 23 14.8 23.0667 14.8 23.2C14.9333 23.3333 15 23.4 15 23.4C15 23.5333 14.8667 23.8 14.6 24.2C14.3333 24.4667 14.1333 24.8 14 25.2C13.8667 25.4667 13.5333 25.9333 13 26.6C12.4667 27.1333 12.2 27.5333 12.2 27.8C12.2 27.9333 12.2667 28.0667 12.4 28.2C12.5333 28.2 12.6667 28.2 12.8 28.2C12.9333 28.2 13 28.0667 13 27.8C13.1333 27.5333 13.3333 27.3333 13.6 27.2C13.7333 26.9333 13.9333 26.6 14.2 26.2C14.4667 25.6667 14.6667 25.4 14.8 25.4C14.9333 25.4 15.1333 25.3333 15.4 25.2C15.8 25.0667 16.0667 24.8 16.2 24.4C16.3333 24.1333 16.5333 23.8 16.8 23.4C17.0667 23 17.5333 22.4667 18.2 21.8C18.7333 21.1333 19.1333 20.6667 19.4 20.4C19.6667 20.1333 19.8667 19.8667 20 19.6C20.4 19.0667 20.7333 18.7333 21 18.6C21.2667 18.4667 21.4667 18.4 21.6 18.4C21.7333 18.4 21.8 18.4667 21.8 18.6C21.9333 18.6 22 18.6667 22 18.8C22 18.9333 21.8667 19.0667 21.6 19.2C21.4667 19.3333 21.4 19.4667 21.4 19.6C21.4 19.7333 21.4 19.8667 21.4 20C21.5333 20 21.6667 20 21.8 20C21.9333 20 22.1333 19.8667 22.4 19.6C22.6667 19.3333 23 18.8667 23.4 18.2C23.5333 17.9333 23.8667 17.5333 24.4 17C25.0667 16.4667 25.6 16.0667 26 15.8C26.4 15.6667 26.6667 15.4667 26.8 15.2C27.0667 14.9333 27.2 14.7333 27.2 14.6C27.2 14.4667 27.1333 14.4 27 14.4C27 14.2667 26.9333 14.2 26.8 14.2C26.6667 14.2 26.3333 14.4667 25.8 15C25.2667 15.4 24.8667 15.6 24.6 15.6C24.4667 15.6 24.2 15.6667 23.8 15.8C23.5333 15.8 23.2667 15.8667 23 16C22.7333 16.1333 22.4 16.2667 22 16.4C21.7333 16.5333 21.5333 16.6667 21.4 16.8C21.2667 16.9333 21.0667 17.0667 20.8 17.2C20.5333 17.2 20.2667 17.3333 20 17.6C19.8667 17.7333 19.4 18.1333 18.6 18.8C17.9333 19.4667 17.4 20.0667 17 20.6C16.7333 21 16.4667 21.3333 16.2 21.6C15.9333 21.8667 15.7333 22 15.6 22C15.3333 22 15.1333 21.9333 15 21.8C15 21.6667 15 21.5333 15 21.4C15 21.2667 15.1333 21 15.4 20.6C15.8 20.2 16.2667 19.7333 16.8 19.2C17.3333 18.6667 17.9333 18.0667 18.6 17.4C19.4 16.6 20 16.1333 20.4 16C20.8 15.8667 21 15.7333 21 15.6C21.1333 15.3333 21.2667 15 21.4 14.6C21.5333 14.0667 21.6667 13.7333 21.8 13.6C22.0667 13.3333 22.2667 13.1333 22.4 13C22.8 12.2 23.0667 11.5333 23.2 11C23.4667 10.3333 23.7333 9.79999 24 9.39999C24.1333 9.13333 24.3333 8.93333 24.6 8.8C25 8.53333 25.2 8.39999 25.2 8.39999C25.3333 8.39999 25.4 8.46666 25.4 8.59999C25.5333 8.59999 25.6 8.66666 25.6 8.8C25.6 8.93333 25.4 9.13333 25 9.39999C24.7333 9.66666 24.6 9.86666 24.6 9.99999C24.6 10.2667 24.6 10.4667 24.6 10.6C24.7333 10.7333 24.8 10.8667 24.8 11C24.8 11.1333 24.6 11.5333 24.2 12.2C23.8 12.8667 23.6 13.2667 23.6 13.4C23.6 13.5333 23.6 13.6667 23.6 13.8C23.7333 13.8 23.8667 13.8 24 13.8C24.1333 13.8 24.3333 13.6 24.6 13.2C24.8667 12.6667 25.1333 12.2667 25.4 12C25.5333 11.7333 25.6667 11.4667 25.8 11.2C25.9333 10.8 26.0667 10.4667 26.2 10.2C26.3333 9.93333 26.6 9.59999 27 9.19999C27.4 8.79999 28 8.33332 28.8 7.8C29.4667 7.4 30 7.13333 30.4 7C30.9333 6.73333 31.4 6.53332 31.8 6.39999C32.2 6.26666 32.5333 5.99999 32.8 5.59999C33.2 5.2 33.5333 4.93333 33.8 4.79999C34.0667 4.66666 34.5333 4.53333 35.2 4.39999C35.8667 4.13332 36.5333 3.93332 37.2 3.79999C37.7333 3.66666 38.6 3.39999 39.8 2.99999C41.1333 2.59999 42.8667 2.4 45 2.4C45.1333 2.4 45.2 2.4 45.2 2.4C45.3333 2.26666 45.4 2.13333 45.4 1.99999C45.4 1.86666 45.4667 1.73333 45.6 1.59999C45.7333 1.33332 45.9333 1.19999 46.2 1.19999C46.6 1.19999 47.1333 1.19999 47.8 1.19999C48.6 1.06666 49.2667 0.99999 49.8 0.99999C50.2 0.99999 50.4667 1.06666 50.6 1.19999C50.8667 1.19999 51.2667 1.19999 51.8 1.19999C52.0667 1.19999 52.4 1.13332 52.8 0.99999C53.3333 0.733327 53.8667 0.599995 54.4 0.599995C54.8 0.599995 55.1333 0.666661 55.4 0.799993C55.8 0.933324 56.2667 0.99999 56.8 0.99999C57.7333 0.99999 58.4667 0.866658 59 0.599995C59.5333 0.199992 60.2 -9.05991e-06 61 -9.05991e-06C62.2 -9.05991e-06 63.6667 0.0666567 65.4 0.199988C67.2667 0.333328 70.4667 0.399998 75 0.399998C75.5333 0.399998 76.4 0.333328 77.6 0.199988C78.9333 0.0666567 79.9333 -9.05991e-06 80.6 -9.05991e-06C81 -9.05991e-06 81.5333 0.199992 82.2 0.599995C82.8667 0.866658 83.3333 0.99999 83.6 0.99999C83.7333 0.99999 83.8667 0.933324 84 0.799993C84.1333 0.533329 84.2667 0.399998 84.4 0.399998C84.5333 0.399998 84.7333 0.666661 85 1.19999C85.4 1.59999 85.8667 1.86666 86.4 1.99999C86.5333 1.99999 86.8 1.99999 87.2 1.99999C87.6 1.86666 87.8667 1.79999 88 1.79999C88.1333 1.79999 88.2667 1.86666 88.4 1.99999C88.5333 2.13333 88.6 2.26666 88.6 2.4C88.6 2.4 88.5333 2.46666 88.4 2.59999C88.4 2.73332 88.4 2.86666 88.4 2.99999C88.4 3.13333 88.4667 3.26666 88.6 3.39999C88.7333 3.53333 88.8667 3.59999 89 3.59999C90.7333 3.59999 91.9333 3.86666 92.6 4.39999C93.2667 4.8 94.1333 5 95.2 5C95.3333 5 95.4667 4.93333 95.6 4.79999C95.7333 4.66666 95.8667 4.59999 96 4.59999C96.1333 4.59999 96.2 4.66666 96.2 4.79999C96.3333 4.93333 96.4 5 96.4 5C96.4 5.13333 96.3333 5.26666 96.2 5.39999C96.2 5.39999 96 5.39999 95.6 5.39999C95.4667 5.39999 95.1333 5.53332 94.6 5.79999C94.0667 5.93333 93.8 6.06666 93.8 6.19999C93.8 6.33333 93.8667 6.46666 94 6.59999C94.1333 6.73333 94.3333 6.8 94.6 6.8C94.7333 6.8 94.8667 6.8 95 6.8C95.2667 6.66666 95.4667 6.53332 95.6 6.39999C95.7333 6.26666 95.9333 6.13333 96.2 6C96.4667 5.73333 96.6667 5.59999 96.8 5.59999C96.8 5.59999 96.8667 5.66666 97 5.79999C97.1333 5.79999 97.2 5.86666 97.2 6C97.2 6 97.1333 6.06666 97 6.19999C96.8667 6.19999 96.6667 6.26666 96.4 6.39999C96.2667 6.53332 96.0667 6.66666 95.8 6.8C95.6667 6.8 95.6 6.86666 95.6 7C95.6 7 95.6 7.06666 95.6 7.19999C95.7333 7.33333 95.8667 7.39999 96 7.39999C96.1333 7.39999 96.4 7.33333 96.8 7.19999C97.3333 6.93333 97.6667 6.73333 97.8 6.59999C97.9333 6.46666 98.0667 6.33333 98.2 6.19999C98.3333 5.93332 98.4667 5.79999 98.6 5.79999C98.7333 5.79999 98.8 5.86666 98.8 6C98.8 6.13333 98.8 6.26666 98.8 6.39999C98.8 6.53332 98.8 6.66666 98.8 6.8C98.9333 6.8 99.0667 6.8 99.2 6.8C99.3333 6.8 99.4 6.8 99.4 6.8C99.5333 6.66666 99.6667 6.59999 99.8 6.59999C99.8 6.59999 99.8667 6.66666 100 6.8C100.133 6.8 100.2 6.86666 100.2 7C100.2 7.13333 100.067 7.26666 99.8 7.39999C99.6667 7.39999 99.3333 7.39999 98.8 7.39999C98.4 7.39999 98.1333 7.53333 98 7.8C97.8667 7.93333 97.8 8.06666 97.8 8.19999C97.8 8.33332 97.8 8.46666 97.8 8.59999C97.9333 8.59999 98.0667 8.59999 98.2 8.59999C98.3333 8.59999 98.4 8.53332 98.4 8.39999C98.5333 8.26666 98.6667 8.19999 98.8 8.19999C98.9333 8.19999 99.0667 8.33332 99.2 8.59999C99.3333 8.73333 99.4 8.86666 99.4 8.99999C99.4 9.13333 99.4667 9.33333 99.6 9.6C99.7333 9.73333 99.8667 9.8 100 9.8C100.267 9.8 100.4 9.8 100.4 9.8C100.533 9.66666 100.6 9.53333 100.6 9.39999C100.6 9.39999 100.533 9.33332 100.4 9.19999C100.267 9.06666 100.2 8.93333 100.2 8.8C100.2 8.53333 100.267 8.39999 100.4 8.39999C100.667 8.26666 100.8 8.19999 100.8 8.19999C100.933 8.19999 101 8.33332 101 8.59999C101.133 8.73333 101.333 8.93333 101.6 9.19999C101.733 9.59999 101.867 9.93333 102 10.2C102.267 10.4667 102.467 10.6 102.6 10.6C102.867 10.6 103 10.5333 103 10.4C103.133 10.2667 103.267 10.2 103.4 10.2C103.533 10.2 103.6 10.3333 103.6 10.6C103.6 10.7333 103.6 10.8667 103.6 11C103.6 11.1333 103.667 11.2667 103.8 11.4C104.067 11.4 104.267 11.4 104.4 11.4C104.533 11.4 104.6 11.4 104.6 11.4C104.733 11.2667 104.867 11.2 105 11.2C105.133 11.2 105.2 11.2667 105.2 11.4C105.333 11.5333 105.4 11.6667 105.4 11.8C105.4 11.9333 105.467 12.0667 105.6 12.2C105.867 12.3333 106.2 12.4 106.6 12.4C107 12.4 107.333 12.4667 107.6 12.6C107.867 12.6 108 12.6667 108 12.8C108 12.9333 107.867 13.0667 107.6 13.2C107.333 13.2 107.2 13.3333 107.2 13.6C107.2 14 107.4 14.2 107.8 14.2C108.333 14.0667 108.6 14.1333 108.6 14.4C108.6 14.5333 108.6 14.7333 108.6 15C108.6 15.2667 108.667 15.4 108.8 15.4C108.933 15.4 109.067 15.4667 109.2 15.6C109.333 15.6 109.4 15.6667 109.4 15.8C109.4 16.3333 109.933 16.6667 111 16.8C112.067 16.9333 112.6 17.0667 112.6 17.2C112.6 17.3333 112.533 17.4667 112.4 17.6C112.267 17.6 112.133 17.6 112 17.6C111.867 17.6 111.667 17.6667 111.4 17.8C111.267 17.8 111.2 17.8667 111.2 18C111.2 19.0667 111.6 19.8 112.4 20.2C113.2 20.6 113.6 20.9333 113.6 21.2C113.6 21.4667 113.6 21.7333 113.6 22C113.733 22.1333 113.867 22.2667 114 22.4C114.133 22.5333 114.4 22.7333 114.8 23C115.333 23.1333 115.667 23.2667 115.8 23.4C115.933 23.5333 116.067 23.6667 116.2 23.8C116.333 23.8 116.4 23.8667 116.4 24C116.4 24.1333 116.333 24.2 116.2 24.2C116.067 24.2 115.933 24.2 115.8 24.2C115.667 24.2 115.533 24.2667 115.4 24.4C115.267 24.4 115.2 24.5333 115.2 24.8C115.2 25.0667 115.4 25.3333 115.8 25.6C116.333 25.8667 116.6 26.2667 116.6 26.8C116.6 26.9333 116.533 27.1333 116.4 27.4C116.4 27.5333 116.4 27.6667 116.4 27.8C116.4 27.9333 116.467 28 116.6 28C116.733 28 116.867 28 117 28C117.133 28 117.267 28.0667 117.4 28.2C117.667 28.2 117.933 28.3333 118.2 28.6C118.467 28.8667 119 29.6667 119.8 31C120.6 32.2 121 32.9333 121 33.2C121 33.3333 120.933 33.4667 120.8 33.6C120.8 33.6 120.733 33.6 120.6 33.6C120.467 33.6 120.267 33.6667 120 33.8C119.733 33.8 119.6 33.9333 119.6 34.2C119.6 34.6 119.667 35 119.8 35.4C120.067 35.6667 120.2 35.8667 120.2 36C120.2 36.1333 120.133 36.2667 120 36.4C119.867 36.4 119.733 36.4 119.6 36.4C119.467 36.4 119.267 36.7333 119 37.4C118.733 37.9333 118.6 38.2667 118.6 38.4C118.6 38.4 118.667 38.6667 118.8 39.2C119.067 39.7333 119.267 40.2 119.4 40.6C119.533 41.1333 119.667 41.6667 119.8 42.2C119.933 42.7333 120.067 43.0667 120.2 43.2C120.2 43.3333 120.333 43.4667 120.6 43.6C120.867 43.7333 121.067 44.0667 121.2 44.6L123.6 50C123.867 50.6667 124.133 51.3333 124.4 52C124.667 52.6667 124.867 53.2667 125 53.8C125.267 54.3333 125.667 55.3333 126.2 56.8C126.733 58.2667 127.067 59.2667 127.2 59.8C128.133 62.4667 129 64.8 129.8 66.8C130.6 68.8 131 70.8667 131 73C131 74.3333 130.933 75.2 130.8 75.6C130.8 75.8667 130.8 76.1333 130.8 76.4C130.8 76.6667 131.067 77.5333 131.6 79C132.133 80.4667 132.467 81.8667 132.6 83.2C132.733 84.5333 132.933 85.8667 133.2 87.2C133.6 88.5333 133.867 89.4 134 89.8C134.4 91.1333 135.2 92.8 136.4 94.8C137.6 96.8 138.2 98.9333 138.2 101.2C138.2 102.933 138.067 104.2 137.8 105C137.667 105.667 137.6 106.533 137.6 107.6C137.6 108.8 138.6 110.933 140.6 114C142.6 117.067 143.6 120.733 143.6 125C143.6 127.533 143.133 130 142.2 132.4C141.4 134.667 140.867 136.2 140.6 137C140.467 137.533 140.333 138 140.2 138.4C140.067 138.667 140 139 140 139.4C140.133 140.333 140.8 141.733 142 143.6C143.333 145.467 144.667 147.667 146 150.2C147.467 152.867 148.733 154.867 149.8 156.2C150.867 157.533 151.6 159.2 152 161.2ZM38.6 6.19999C38.4667 6.19999 38.0667 6.26666 37.4 6.39999C36.8667 6.53332 36.5333 6.59999 36.4 6.59999C36.2667 6.59999 36.1333 6.59999 36 6.59999C35.8667 6.46666 35.7333 6.39999 35.6 6.39999C35.3333 6.39999 35.0667 6.46666 34.8 6.59999C34.6667 6.73333 34.3333 6.8 33.8 6.8C33.6667 6.8 33.4667 6.86666 33.2 7C33.0667 7 32.9333 7.06666 32.8 7.19999C32.6667 7.33333 32.4667 7.39999 32.2 7.39999C31.9333 7.39999 31.6667 7.39999 31.4 7.39999C30.8667 7.39999 29.9333 7.93333 28.6 8.99999C27.4 9.93332 26.6667 10.6667 26.4 11.2C26.2667 11.3333 26.0667 11.6667 25.8 12.2C25.5333 12.6 25.4 12.8667 25.4 13C25.4 13.1333 25.4 13.2667 25.4 13.4C25.5333 13.4 25.6667 13.4 25.8 13.4C25.9333 13.4 26.0667 13.2667 26.2 13C26.3333 12.7333 26.4667 12.5333 26.6 12.4C26.6 12.2667 26.6667 12.0667 26.8 11.8C27.0667 11.5333 27.3333 11.4 27.6 11.4C27.7333 11.4 27.8 11.4667 27.8 11.6C27.8 11.7333 27.8 11.8667 27.8 12C27.8 12 27.6667 12.0667 27.4 12.2C27.2667 12.3333 27.2 12.4667 27.2 12.6C27.2 12.6 27.2 12.7333 27.2 13C27.3333 13.1333 27.5333 13.2 27.8 13.2C27.9333 13.2 28.2 12.8667 28.6 12.2C29.1333 11.4 29.4667 10.9333 29.6 10.8C29.8667 10.5333 30.2 10.2667 30.6 9.99999C31.1333 9.59999 31.5333 9.33332 31.8 9.19999C32.3333 9.06666 32.8 8.86666 33.2 8.59999C33.6 8.33332 33.8667 8.19999 34 8.19999C34.1333 8.19999 34.2667 8.26666 34.4 8.39999C34.5333 8.53332 34.7333 8.59999 35 8.59999C35.1333 8.59999 35.3333 8.46666 35.6 8.19999C36 7.93333 36.3333 7.73333 36.6 7.59999C36.8667 7.46666 37.2 7.39999 37.6 7.39999C38 7.26666 38.3333 7.19999 38.6 7.19999C39.1333 7.19999 39.4 7.13333 39.4 7C39.5333 6.73333 39.6 6.59999 39.6 6.59999C39.6 6.46666 39.4667 6.39999 39.2 6.39999C39.0667 6.26666 38.8667 6.19999 38.6 6.19999ZM99.8 35C99.9333 34.8667 100.067 34.6667 100.2 34.4C100.333 34 100.4 33.7333 100.4 33.6C100.4 33.4667 100.333 33.3333 100.2 33.2C100.2 33.0667 100.133 33 100 33C99.8667 33 99.7333 33.0667 99.6 33.2C99.4667 33.3333 99.4 33.4 99.4 33.4C99.2667 33.4 99.1333 33.4 99 33.4C98.8667 33.4 98.8 33.3333 98.8 33.2C98.8 33.0667 98.9333 32.7333 99.2 32.2C99.6 31.6667 99.8 31.2 99.8 30.8C99.8 30.4 99.7333 30.0667 99.6 29.8C99.4667 29.5333 99.3333 29.3333 99.2 29.2C98.9333 29.0667 98.6 29 98.2 29C97.8 28.8667 97.4667 28.8 97.2 28.8C96.8 28.8 96.5333 28.8667 96.4 29C96.2667 29 96.2 29.0667 96.2 29.2C96.2 29.3333 96.2667 29.4667 96.4 29.6C96.6667 29.7333 96.8 29.8 96.8 29.8C96.8 29.9333 96.7333 30.0667 96.6 30.2C96.4667 30.2 96.3333 30.2 96.2 30.2C96.0667 30.2 95.0667 29.8667 93.2 29.2C91.3333 28.4 90.3333 27.9333 90.2 27.8C90.0667 27.6667 89.8667 27.6 89.6 27.6C89.4667 27.4667 89.2667 27.4 89 27.4C88.8667 27.4 88.7333 27.3333 88.6 27.2C88.6 27.0667 88.6 26.8667 88.6 26.6C88.6 26.4667 88.4667 26.3333 88.2 26.2C87.9333 25.9333 87.7333 25.7333 87.6 25.6C87.2 25.0667 86.7333 24.6667 86.2 24.4C85.6667 24 85.2 23.6 84.8 23.2C84.6667 23.0667 84.5333 22.7333 84.4 22.2C84.4 21.6667 84.4 21.2667 84.4 21C84.4 20.7333 84.2667 20.6 84 20.6C83.8667 20.4667 83.7333 20.4 83.6 20.4C83.3333 20.4 83.1333 20.2667 83 20C82.8667 19.6 82.8 19.3333 82.8 19.2C82.8 19.0667 82.7333 18.9333 82.6 18.8C82.6 18.6667 82.5333 18.6 82.4 18.6C82.2667 18.6 82.1333 18.6667 82 18.8C81.8667 18.9333 81.7333 19 81.6 19C81.4667 19 81.3333 18.9333 81.2 18.8C81.2 18.6667 81.2 18.5333 81.2 18.4C81.2 18.2667 81.2 18 81.2 17.6C81.3333 17.2 81.4 16.9333 81.4 16.8C81.4 16.6667 81.3333 16.6 81.2 16.6C81.2 16.4667 81.1333 16.4 81 16.4C80.8667 16.4 80.7333 16.4667 80.6 16.6C80.6 16.7333 80.6 16.8667 80.6 17C80.6 17.4 80.5333 17.6667 80.4 17.8C80.4 17.9333 80.3333 18 80.2 18C80.0667 18 79.9333 18 79.8 18C79.8 17.8667 79.8 17.6 79.8 17.2C79.8 16.8 79.7333 16.4 79.6 16C79.6 15.4667 79.5333 15.2 79.4 15.2C79 15.2 78.8 15.7333 78.8 16.8C78.9333 17.8667 78.8 18.4 78.4 18.4C78.1333 18.4 77.9333 18.0667 77.8 17.4C77.8 16.7333 77.8 16.2 77.8 15.8C77.8 15.5333 77.7333 15.3333 77.6 15.2C77.4667 14.9333 77.3333 14.8 77.2 14.8C77.0667 14.8 76.9333 14.9333 76.8 15.2C76.6667 15.3333 76.4 15.4 76 15.4C75.3333 15.4 74.9333 14.8667 74.8 13.8C74.8 12.6 74.5333 12 74 12C74 12 73.9333 12.0667 73.8 12.2C73.6667 12.2 73.6 12.2667 73.6 12.4C73.6 12.5333 73.6 12.6667 73.6 12.8C73.7333 12.9333 73.8 13.0667 73.8 13.2C73.8 13.3333 73.7333 13.4667 73.6 13.6C73.6 13.7333 73.5333 13.8 73.4 13.8C72.8667 13.8 72.4667 13.4667 72.2 12.8C72.0667 12.1333 71.8 11.8 71.4 11.8C71.2667 11.8 71.1333 11.8667 71 12C70.8667 12.1333 70.6 12.2 70.2 12.2C69.6667 12.2 69 11.8 68.2 11C67.5333 10.0667 66.9333 9.53333 66.4 9.39999C65.2 8.99999 64.2667 8.73333 63.6 8.59999C63.0667 8.33332 62.3333 7.93333 61.4 7.39999C60.8667 7.13333 60.3333 7 59.8 7C59.2667 6.86666 58.5333 6.8 57.6 6.8C57.0667 6.8 56.4667 6.73333 55.8 6.59999C55.1333 6.46666 54.5333 6.39999 54 6.39999C53.4667 6.39999 52.9333 6.46666 52.4 6.59999C52 6.73333 51.7333 6.86666 51.6 7C51.3333 7.13333 51 7.19999 50.6 7.19999C50.3333 7.19999 50.0667 7.19999 49.8 7.19999C49.4 7.19999 49.0667 7.26666 48.8 7.39999C48.6667 7.39999 48.5333 7.46666 48.4 7.59999C48.2667 7.59999 48.1333 7.73332 48 8C48 8.26666 47.9333 8.39999 47.8 8.39999C47.6667 8.39999 47.5333 8.39999 47.4 8.39999C47.4 8.26666 47.3333 8.19999 47.2 8.19999C46.9333 8.19999 46.6667 8.33332 46.4 8.59999C46.2667 8.73333 45.9333 8.8 45.4 8.8C45 8.8 44.6667 9.06666 44.4 9.6C44.1333 9.99999 43.9333 10.2 43.8 10.2C43.6667 10.2 43.5333 10.1333 43.4 9.99999C43.4 9.86666 43.2 9.8 42.8 9.8C42.6667 9.8 42.4667 9.93333 42.2 10.2C42.0667 10.3333 41.8667 10.6 41.6 11C41.4667 11.1333 41.2 11.4 40.8 11.8C40.5333 12.2 40.3333 12.4 40.2 12.4C40.0667 12.4 39.9333 12.3333 39.8 12.2C39.8 11.9333 39.7333 11.8 39.6 11.8C39.4667 11.8 39.2667 11.8667 39 12C38.7333 12 38.5333 12.0667 38.4 12.2C38.2667 12.3333 38.0667 12.6 37.8 13C37.5333 13.2667 37.4 13.4667 37.4 13.6C37.4 13.7333 37.4 13.8667 37.4 14C37.5333 14 37.6 14.0667 37.6 14.2C37.6 14.3333 37.4 14.6 37 15C36.6 15.2667 36.3333 15.5333 36.2 15.8C35.9333 15.9333 35.6667 16.2667 35.4 16.8C35.2667 17.2 35.2 17.5333 35.2 17.8C35.2 18.0667 35.2667 18.2667 35.4 18.4C35.5333 18.5333 35.6 18.6667 35.6 18.8C35.6 18.9333 35.4667 19.2 35.2 19.6C35.0667 20 35 20.2667 35 20.4C35 20.5333 35.0667 20.7333 35.2 21C35.4667 21.1333 35.6 21.2667 35.6 21.4C35.6 21.5333 35.4667 22 35.2 22.8C34.9333 23.4667 34.8 23.9333 34.8 24.2C34.8 24.6 34.8667 24.8667 35 25C35.2667 25 35.4667 25 35.6 25C35.8667 25 36.0667 25.3333 36.2 26C36.3333 26.5333 36.4 27.1333 36.4 27.8C36.4 29.2667 36.5333 30.1333 36.8 30.4C37.2 30.6667 37.4 30.8667 37.4 31C37.4 31.1333 37.3333 31.2 37.2 31.2C37.0667 31.2 36.9333 31.2 36.8 31.2C36.6667 31.2 36.5333 31.0667 36.4 30.8C36.2667 30.5333 36.1333 30.2667 36 30C35.8667 29.6 35.7333 29.2 35.6 28.8C35.6 28.4 35.5333 28.2 35.4 28.2C35.2667 28.2 35.1333 28.2667 35 28.4C34.8667 28.5333 34.8 28.7333 34.8 29C34.8 29.4 34.9333 29.8 35.2 30.2C35.4667 30.4667 35.6667 30.6667 35.8 30.8C35.9333 30.9333 36.0667 31.2 36.2 31.6C36.4667 31.8667 36.6667 32.0667 36.8 32.2C37.0667 32.3333 37.2667 32.4667 37.4 32.6C37.5333 32.6 37.6 32.6667 37.6 32.8C37.6 32.9333 37.5333 33.0667 37.4 33.2C37.2667 33.3333 37.2 33.4667 37.2 33.6C37.2 33.8667 37.4 34.2 37.8 34.6C38.3333 35 38.6667 35.2667 38.8 35.4C38.9333 35.5333 39.0667 35.6 39.2 35.6C39.3333 35.6 39.5333 35.6 39.8 35.6C39.9333 35.6 40.0667 35.6667 40.2 35.8C40.3333 35.8 40.4 35.8667 40.4 36C40.4 36.1333 40.3333 36.2667 40.2 36.4C40.0667 36.4 40 36.4667 40 36.6C40 36.8667 40.0667 37.0667 40.2 37.2C40.3333 37.3333 40.4667 37.4667 40.6 37.6C40.8667 37.7333 41.0667 37.8667 41.2 38C41.4667 38.1333 41.6 38.2667 41.6 38.4C41.6 38.5333 41.5333 38.6667 41.4 38.8C41.4 38.8 41.3333 38.8 41.2 38.8C41.0667 38.8 40.9333 38.8667 40.8 39C40.8 39 40.8 39.1333 40.8 39.4C40.8 39.5333 40.8667 39.6667 41 39.8C41.1333 39.8 41.2 39.8667 41.2 40C41.2 40.1333 41.1333 40.2667 41 40.4C40.8667 40.4 40.8 40.4667 40.8 40.6C40.8 40.7333 40.8 40.8667 40.8 41C40.9333 41 41.0667 41 41.2 41C41.3333 41 41.5333 40.9333 41.8 40.8C42.0667 40.6667 42.2667 40.6 42.4 40.6C42.5333 40.6 42.6667 40.6667 42.8 40.8C42.9333 40.8 43 40.8667 43 41C43 41.1333 42.8667 41.3333 42.6 41.6C42.3333 41.7333 42.2 41.8667 42.2 42C42.2 42.1333 42.2 42.2667 42.2 42.4C42.3333 42.4 42.4667 42.4 42.6 42.4C42.7333 42.4 42.8667 42.4 43 42.4C43.1333 42.2667 43.2667 42.2 43.4 42.2C43.5333 42.2 43.6 42.3333 43.6 42.6C43.7333 42.7333 43.8 42.8667 43.8 43C43.8 43.1333 43.8667 43.2667 44 43.4C44.1333 43.5333 44.2667 43.6 44.4 43.6C44.5333 43.6 44.6 43.6667 44.6 43.8C44.7333 43.8 44.8 43.8667 44.8 44C44.8 44 44.6667 44.1333 44.4 44.4C44.1333 44.5333 44 44.6667 44 44.8C44 44.9333 44.0667 45.0667 44.2 45.2C44.3333 45.2 44.4667 45.2 44.6 45.2C44.7333 45.2 44.8667 45.1333 45 45C45.2667 44.8667 45.4 44.8 45.4 44.8C45.5333 44.8 45.6667 44.8667 45.8 45C45.9333 45 46 45.0667 46 45.2C46 45.3333 45.9333 45.4667 45.8 45.6C45.8 45.7333 45.8 45.9333 45.8 46.2C45.6667 46.3333 45.4667 46.5333 45.2 46.8C44.9333 46.9333 44.8 47.0667 44.8 47.2C44.8 47.3333 44.8667 47.4667 45 47.6C45.1333 47.6 45.2 47.6667 45.2 47.8C45.2 47.9333 45.1333 48.1333 45 48.4C44.8667 48.5333 44.8 48.6667 44.8 48.8C44.6667 49.2 44.2667 49.5333 43.6 49.8C43.0667 49.9333 42.8 50.2 42.8 50.6C42.8 50.8667 42.8 51.0667 42.8 51.2C42.9333 51.3333 43 51.4667 43 51.6C43 51.7333 42.9333 51.8667 42.8 52C42.6667 52 42.5333 52 42.4 52C42 52 41.7333 52.0667 41.6 52.2C41.4667 52.3333 41.4 52.4667 41.4 52.6C41.4 52.7333 41.5333 52.8667 41.8 53C42.0667 53.1333 42.2 53.3333 42.2 53.6C42.2 53.7333 42 53.8 41.6 53.8C41.2 53.8 40.9333 53.8 40.8 53.8C40.2667 53.8 39.8667 54 39.6 54.4C39.3333 54.8 39.2 55 39.2 55C39.2 55.1333 39.3333 55.3333 39.6 55.6C39.8667 55.8667 40 56 40 56C40 56.1333 39.9333 56.2667 39.8 56.4C39.8 56.4 39.7333 56.4 39.6 56.4C39.4667 56.4 39.2667 56.2667 39 56C38.7333 55.6 38.5333 55.4 38.4 55.4C38.2667 55.4 38.1333 55.4667 38 55.6C38 55.7333 38 55.8667 38 56C38 56.1333 38.1333 56.3333 38.4 56.6C38.6667 56.7333 38.8667 56.8667 39 57C39.4 57.1333 39.6667 57.2667 39.8 57.4C39.9333 57.4 40 57.4667 40 57.6C40 57.7333 39.7333 57.8667 39.2 58C38.6667 58.1333 38.2667 58.2667 38 58.4C37.8667 58.5333 37.6667 58.7333 37.4 59C37.1333 59.1333 36.8 59.2 36.4 59.2C36.2667 59.2 36.1333 59.0667 36 58.8C35.8667 58.5333 35.7333 58.4 35.6 58.4C35.4667 58.4 35.3333 58.4667 35.2 58.6C35.0667 58.7333 35 58.8667 35 59C35 59.6667 35 60.2 35 60.6C35.1333 60.8667 35.2 61.1333 35.2 61.4C35.2 61.6667 35.1333 61.9333 35 62.2C34.8667 62.3333 34.8 62.4667 34.8 62.6C34.8 62.7333 34.8 62.8667 34.8 63C34.9333 63.1333 35.0667 63.2 35.2 63.2C35.3333 63.2 35.4667 62.9333 35.6 62.4C35.8667 61.8667 36.0667 61.5333 36.2 61.4C36.3333 61.2667 36.5333 61 36.8 60.6C37.0667 60.2 37.2667 60 37.4 60C37.5333 60 37.6 60.0667 37.6 60.2C37.7333 60.3333 37.8 60.6 37.8 61C37.8 61.1333 37.7333 61.4667 37.6 62C37.4667 62.5333 37.4 63.0667 37.4 63.6C37.4 64 37.4 64.3333 37.4 64.6C37.5333 64.8667 37.6 65.1333 37.6 65.4C37.6 65.5333 37.4667 65.6667 37.2 65.8C36.9333 65.9333 36.8 66.0667 36.8 66.2C36.8 66.3333 36.7333 66.4667 36.6 66.6C36.6 66.6 36.5333 66.6 36.4 66.6C36.2667 66.6 36.1333 66.5333 36 66.4C36 66.1333 35.9333 65.8667 35.8 65.6C35.6667 65.4667 35.5333 65.3333 35.4 65.2C35.4 64.9333 35.3333 64.8 35.2 64.8C35.0667 64.8 34.9333 64.8667 34.8 65C34.8 65 34.8 65.0667 34.8 65.2C34.8 65.2 34.8667 65.3333 35 65.6C35.1333 65.8667 35.2667 66.1333 35.4 66.4C35.5333 66.8 35.6 67.1333 35.6 67.4C35.7333 67.5333 35.8 67.8 35.8 68.2C35.8 68.3333 35.7333 68.5333 35.6 68.8C35.6 69.0667 35.5333 69.2 35.4 69.2C35.1333 69.2 34.8667 68.6 34.6 67.4C34.4667 66.2 34.2 65.6 33.8 65.6C33.6667 65.6 33.4667 65.9333 33.2 66.6C32.9333 67.2667 32.7333 67.8667 32.6 68.4C32.3333 68.8 32.1333 69.1333 32 69.4C32 69.6667 32 70.0667 32 70.6C32 71 32.0667 71.2667 32.2 71.4C32.4667 71.5333 32.6 71.6667 32.6 71.8C32.6 71.9333 32.5333 72.0667 32.4 72.2C32.2667 72.2 32.1333 72.2 32 72.2C31.8667 72.2 31.7333 72 31.6 71.6C31.4667 71.2 31.4 70.8 31.4 70.4C31.4 69.8667 31.4 69.4 31.4 69C31.5333 68.6 31.6667 68.2 31.8 67.8C31.9333 67.2667 32.1333 66.7333 32.4 66.2C32.8 65.5333 33 65.1333 33 65C33 64.8667 32.9333 64.8 32.8 64.8C32.8 64.6667 32.7333 64.6 32.6 64.6C32.3333 64.6 32.0667 64.9333 31.8 65.6C31.5333 66.2667 31.3333 66.9333 31.2 67.6C31.0667 68.2667 30.8667 68.6667 30.6 68.8C30.3333 68.9333 30.1333 69 30 69C29.8667 69 29.6667 69.1333 29.4 69.4C29.2667 69.5333 29.2 69.6667 29.2 69.8C29.2 70.0667 29.2 70.4 29.2 70.8C29.3333 71.2 29.4 71.4667 29.4 71.6C29.4 71.7333 29.4 71.9333 29.4 72.2C29.4 72.3333 29.3333 72.6667 29.2 73.2C29.0667 73.4667 28.9333 73.7333 28.8 74C28.8 74.1333 28.7333 74.2 28.6 74.2C28.4667 74.2 28.3333 74.2 28.2 74.2C28.2 74.0667 28.2 73.9333 28.2 73.8C28.2 73.5333 28.2667 72.8667 28.4 71.8C28.6667 70.7333 28.8 69.7333 28.8 68.8C28.8 67.8667 28.7333 67.3333 28.6 67.2C28.6 66.9333 28.5333 66.8 28.4 66.8C28.2667 66.8 28.0667 66.9333 27.8 67.2C27.6667 67.3333 27.6 67.6 27.6 68C27.6 68.2667 27.6 68.6667 27.6 69.2C27.7333 69.6 27.8 70.0667 27.8 70.6C27.6667 71.1333 27.4667 71.5333 27.2 71.8C27.0667 72.0667 26.9333 72.2 26.8 72.2C26.5333 72.2 26.3333 72.0667 26.2 71.8C26.2 71.5333 26.2 71.3333 26.2 71.2C26.2 71.0667 26.3333 70.8 26.6 70.4C26.8667 69.8667 27 69.1333 27 68.2C27 67.5333 26.9333 67 26.8 66.6C26.8 66.2 26.7333 66 26.6 66C26.4667 66 26.3333 66.0667 26.2 66.2C26.2 66.3333 26.2 66.4667 26.2 66.6C26.2 66.7333 26.2 66.9333 26.2 67.2C26.3333 67.4667 26.4 67.8667 26.4 68.4C26.2667 68.8 26.0667 69.3333 25.8 70C25.5333 70.6667 25.3333 71 25.2 71C25.0667 71 24.9333 71 24.8 71C24.8 70.8667 24.8 70.7333 24.8 70.6C24.8 70.4667 24.8 70.2667 24.8 70C24.9333 69.7333 25.0667 69.5333 25.2 69.4C25.3333 69.2667 25.4 69.0667 25.4 68.8C25.4 68.4 25.4 67.9333 25.4 67.4C25.4 67.2667 25.3333 67.1333 25.2 67C25.2 66.8667 25.1333 66.8 25 66.8C24.8667 66.8 24.7333 66.9333 24.6 67.2C24.6 67.4667 24.6 67.7333 24.6 68C24.6 68.1333 24.5333 68.3333 24.4 68.6C24.2667 68.8667 24.1333 69 24 69C23.8667 69 23.7333 69 23.6 69C23.6 68.8667 23.6 68.7333 23.6 68.6C23.6 68.4667 23.5333 68.3333 23.4 68.2C23.4 68.0667 23.3333 68 23.2 68C23.0667 68 22.8667 68 22.6 68C22.3333 67.8667 22.2 67.6 22.2 67.2C22.2 67.0667 22.5333 66.7333 23.2 66.2C24 65.5333 24.4667 65.1333 24.6 65C24.7333 64.8667 25.1333 64.3333 25.8 63.4C26.6 62.4667 27 61.8667 27 61.6C27 61.3333 26.9333 61.2 26.8 61.2C26.6667 61.0667 26.6 61 26.6 61C26.4667 61 26.3333 61.1333 26.2 61.4C26.2 61.6667 26.1333 61.8667 26 62C25.4667 62.5333 24.7333 63.4667 23.8 64.8C22.8667 66 22 66.6 21.2 66.6C21.0667 66.6 20.9333 66.6 20.8 66.6C20.6667 66.4667 20.6 66.2667 20.6 66C20.6 65.7333 20.8 65.4 21.2 65C21.7333 64.6 22.0667 64.3333 22.2 64.2C22.4667 63.9333 22.8667 63.6667 23.4 63.4C24.0667 63.1333 24.4667 62.9333 24.6 62.8C25 62.6667 25.2667 62.4667 25.4 62.2C25.6667 61.9333 25.8 61.7333 25.8 61.6C25.8 61.4667 25.7333 61.3333 25.6 61.2C25.6 61.0667 25.5333 61 25.4 61C25.2667 61 25.0667 61.1333 24.8 61.4C24.6667 61.5333 24.5333 61.6667 24.4 61.8C24.2667 61.9333 24 62.1333 23.6 62.4C23.3333 62.5333 23.1333 62.6 23 62.6C22.7333 62.6 22.5333 62.6 22.4 62.6C22.2667 62.6 22.2 62.5333 22.2 62.4C22.2 62.2667 22.3333 62.1333 22.6 62C22.8667 61.7333 23.0667 61.5333 23.2 61.4C23.3333 61.2667 23.5333 60.9333 23.8 60.4C24.0667 59.8667 24.2667 59.5333 24.4 59.4C24.5333 59.1333 24.8 58.8 25.2 58.4C25.6 57.8667 25.8 57.5333 25.8 57.4C25.8 57.2667 25.7333 57.2 25.6 57.2C25.6 57.0667 25.5333 57 25.4 57C25.2667 57 25.0667 57.1333 24.8 57.4C24.5333 57.5333 24.2 57.8 23.8 58.2C23.1333 58.7333 22.2667 59.3333 21.2 60C20.1333 60.6667 19.2667 61.0667 18.6 61.2C18.0667 61.3333 17.7333 61.4667 17.6 61.6C17.4667 61.7333 17.4 61.8667 17.4 62C17.4 62.1333 17.4667 62.2667 17.6 62.4C17.7333 62.4 17.8667 62.4 18 62.4C18.1333 62.4 18.2 62.5333 18.2 62.8C18.3333 62.9333 18.4 63.0667 18.4 63.2C18.4 63.3333 18.4 63.4667 18.4 63.6C18.5333 63.6 18.6667 63.6 18.8 63.6C19.0667 63.6 19.3333 63.3333 19.6 62.8C20 62.2667 20.2667 61.9333 20.4 61.8C20.5333 61.8 20.6667 61.8667 20.8 62C20.9333 62 21 62.0667 21 62.2C21 62.6 20.6667 63.1333 20 63.8C19.4667 64.3333 19.1333 64.8667 19 65.4C19 65.5333 18.9333 65.7333 18.8 66C18.8 66.1333 18.7333 66.2 18.6 66.2C17.6667 66.2 16.6 65.5333 15.4 64.2C14.2 62.8667 12.3333 62.2 9.8 62.2C8.86667 62.2 7.86667 62.5333 6.8 63.2C5.86667 63.7333 5 64.8667 4.2 66.6C3.26667 68.3333 2.73333 70 2.6 71.6C2.46667 73.2 2.4 74.4667 2.4 75.4C2.4 76.3333 2.46667 77.6667 2.6 79.4C2.73333 81.1333 2.93333 83.2 3.2 85.6C3.73333 88 4.6 90.6 5.8 93.4C7.13334 96.0667 8.6 98.1333 10.2 99.6C11.8 101.067 13.6667 102.4 15.8 103.6C17.9333 104.667 19.6667 105.2 21 105.2C22.3333 105.2 23.1333 104.667 23.4 103.6C23.8 102.533 24 101.4 24 100.2C24 99.2667 23.8667 98.7333 23.6 98.6C23.4667 98.3333 23.3333 98.2 23.2 98.2C23.0667 98.2 22.8 98.3333 22.4 98.6C22 98.7333 21.6 98.8 21.2 98.8C20.6667 98.8 20.2 98.5333 19.8 98C19.4 97.4667 19 97 18.6 96.6C18.4667 96.3333 18.2667 96.1333 18 96C17.7333 95.7333 17.5333 95.6 17.4 95.6C17.2667 95.6 17.1333 95.6 17 95.6C16.8667 95.6 16.8 95.5333 16.8 95.4C16.8 95.2667 16.8 95.1333 16.8 95C16.9333 94.8667 17.1333 94.8 17.4 94.8C17.9333 94.8 18.4667 95.1333 19 95.8C19.5333 96.4667 20.2 96.8 21 96.8C21.4 96.8 21.6667 96.6667 21.8 96.4C21.9333 96.1333 22 95.9333 22 95.8C22 95.6667 22 95.5333 22 95.4C22 95.1333 21.9333 94.9333 21.8 94.8C21.6667 94.5333 21.4 94.4 21 94.4C20.7333 94.2667 20.5333 94.2 20.4 94.2C20 94.2 19.5333 94.0667 19 93.8C18.6 93.4 18.3333 93.1333 18.2 93C17.9333 93 17.5333 93 17 93C16.6 93 16.2667 92.9333 16 92.8C15.6 92.6667 15.2667 92.5333 15 92.4C14.8667 92.1333 14.8 91.8667 14.8 91.6C14.8 91.2 14.8667 90.8667 15 90.6C15.2667 90.3333 15.4667 90.0667 15.6 89.8C15.7333 89.6667 15.8 89.4 15.8 89C15.9333 88.4667 16 87.9333 16 87.4C16 86.8667 15.8667 86.5333 15.6 86.4C15.4667 86.1333 15.0667 86 14.4 86C13.8667 86 13.4 86.2667 13 86.8C12.6 87.2 12.4 87.5333 12.4 87.8C12.4 87.9333 12.3333 88.1333 12.2 88.4C12.2 88.6667 12.1333 88.8 12 88.8C11.7333 88.8 11.5333 88.6667 11.4 88.4C11.4 88.1333 11.4 87.8 11.4 87.4C11.4 85.4 12.4 83.7333 14.4 82.4C16.5333 80.9333 17.6 79.2 17.6 77.2C17.6 76.6667 17.4667 76.2667 17.2 76C16.9333 75.6 16.6667 75.4 16.4 75.4C16.2667 75.4 16.0667 75.4667 15.8 75.6C15.5333 75.6 15.2667 75.6 15 75.6C14.8667 75.6 14.6667 75.6 14.4 75.6C14.2667 75.4667 14.2 75.1333 14.2 74.6C14.2 74.2 14.2667 73.9333 14.4 73.8C14.5333 73.6667 14.6 73.3333 14.6 72.8C14.6 72.1333 14.5333 71.6667 14.4 71.4C14.2667 71 14.1333 70.6667 14 70.4C13.8667 70.1333 13.6 69.8667 13.2 69.6C12.8 69.3333 12.5333 69.2 12.4 69.2C12.1333 69.2 11.8667 69.2667 11.6 69.4C11.3333 69.5333 11 69.6667 10.6 69.8C10.3333 70.2 10 70.8 9.6 71.6C9.33334 72.2667 9.13334 72.9333 9 73.6C8.6 74.2667 8.33333 74.8 8.2 75.2C8.2 75.6 8.2 75.9333 8.2 76.2C8.2 77.1333 8 78.5333 7.6 80.4C7.2 82.1333 7 84.0667 7 86.2C7 86.7333 7.06667 87.6 7.2 88.8C7.33334 90 7.6 91.0667 8 92C8.4 92.6667 8.86667 93.4 9.4 94.2C10.0667 95 10.6667 95.5333 11.2 95.8C11.6 96.2 11.8667 96.5333 12 96.8C12.1333 96.9333 12.2667 97.0667 12.4 97.2C12.5333 97.3333 12.6667 97.4667 12.8 97.6C13.0667 97.6 13.4 97.6667 13.8 97.8C14.0667 97.9333 14.4667 98.1333 15 98.4C15.5333 98.5333 15.8667 98.8 16 99.2C16.2667 99.3333 16.5333 99.7333 16.8 100.4C17.0667 100.933 17.2 101.267 17.2 101.4C17.2 101.533 17.1333 101.667 17 101.8C17 101.8 16.9333 101.8 16.8 101.8C16.6667 101.8 16.4 101.667 16 101.4C15.6 101.133 15.3333 100.933 15.2 100.8C15.0667 100.667 14.8667 100.533 14.6 100.4C14.4667 100.267 14.2 100 13.8 99.6C12.8667 98.6667 11.8667 97.8667 10.8 97.2C9.86667 96.5333 9 95.7333 8.2 94.8C7.93334 94.4 7.66667 93.8667 7.4 93.2C7.26667 92.5333 7.13333 92 7 91.6C6.06667 88.8 5.33333 86 4.8 83.2C4.4 80.4 4.2 77.3333 4.2 74C4.2 73.3333 4.2 72.4 4.2 71.2C4.33333 69.8667 4.66667 68.7333 5.2 67.8C5.73333 66.7333 6.33334 66 7 65.6C7.66667 65.0667 8.4 64.8 9.2 64.8C11.0667 64.8 12.6667 65.6 14 67.2C15.3333 68.6667 16.4667 70.2667 17.4 72C17.9333 73.2 18.2667 74.2667 18.4 75.2C18.5333 76.1333 18.6667 76.8 18.8 77.2C18.8 77.4667 18.8 77.8 18.8 78.2C18.9333 78.6 19.2 78.8 19.6 78.8C20 78.8 20.2667 78.6 20.4 78.2C20.5333 77.8 20.6 77.2 20.6 76.4C20.6 75.4667 20.2667 74.4667 19.6 73.4C19.0667 72.2 18.6 71.2667 18.2 70.6C17.9333 70.4667 17.7333 70.3333 17.6 70.2C17.4667 70.0667 17.4 69.9333 17.4 69.8C17.4 69.8 17.4667 69.8 17.6 69.8C17.7333 69.6667 17.8667 69.6 18 69.6C18.1333 69.6 18.6 70 19.4 70.8C20.3333 71.4667 20.8667 71.8667 21 72C21.5333 72.5333 22.2 73.2667 23 74.2C23.8 75.1333 24.2 76 24.2 76.8C24.2 77.7333 23.2 78.7333 21.2 79.8C19.3333 80.8667 18.4 82.4 18.4 84.4C18.4 85.3333 18.6 86 19 86.4C19.4 86.6667 19.9333 87.1333 20.6 87.8C21.1333 88.3333 21.4 89.3333 21.4 90.8C21.5333 92.2667 22.1333 93 23.2 93C23.6 93 23.8667 92.7333 24 92.2C24.2667 91.6667 24.4 91.2667 24.4 91C24.4 90.7333 24.3333 90.4 24.2 90C24.0667 89.4667 24 88.9333 24 88.4C24 87.8667 24.1333 87.5333 24.4 87.4C24.6667 87.2667 24.9333 87.2 25.2 87.2C25.4667 87.2 25.6 87.4 25.6 87.8C25.7333 88.2 25.8 88.8 25.8 89.6C25.8 90.4 25.6 92.0667 25.2 94.6C24.8 97.1333 24.6 98.8 24.6 99.6C24.6 100.133 24.5333 101.133 24.4 102.6C24.4 104.067 24.4 105.4 24.4 106.6C24.4 109.533 24.6 111.667 25 113C25.4 114.333 25.6667 115.267 25.8 115.8C27.1333 119.667 29.4667 123.4 32.8 127C36.2667 130.467 39.4667 133.067 42.4 134.8C43.3333 135.333 44.1333 135.667 44.8 135.8C45.4667 135.8 46.0667 136 46.6 136.4C47.5333 137.067 48.8667 137.8 50.6 138.6C52.3333 139.267 54.0667 139.933 55.8 140.6C57.5333 141.133 59.0667 141.6 60.4 142C61.7333 142.4 62.4667 142.667 62.6 142.8C63 142.933 63.2 143.133 63.2 143.4C63.3333 143.667 63.4 144.067 63.4 144.6C63.4 146.333 64.2667 147.933 66 149.4C67.7333 150.867 69.3333 151.867 70.8 152.4C71.7333 152.8 72.8 153.133 74 153.4C75.2 153.667 76.4667 153.8 77.8 153.8C79 153.8 80.2667 153.467 81.6 152.8C82.9333 152.133 83.8 151.6 84.2 151.2C85.1333 150.267 85.7333 149.4 86 148.6C86.4 147.667 86.8 146.8 87.2 146C87.6 145.333 88 144.933 88.4 144.8C88.9333 144.667 89.4667 144.6 90 144.6C90.2667 144.6 90.4667 144.667 90.6 144.8C90.7333 144.8 90.8 145 90.8 145.4C90.8 145.667 90.6667 146.133 90.4 146.8C90.2667 147.333 90.2 147.667 90.2 147.8C90.2 147.933 90.2667 148.267 90.4 148.8C90.6667 149.2 91.2 149.4 92 149.4C93.7333 149.4 94.8 148.667 95.2 147.2C95.6 145.6 95.8 144.133 95.8 142.8C95.6667 140.8 95.0667 138.4 94 135.6C92.9333 132.667 91.5333 131.2 89.8 131.2C89.4 131.2 88.9333 131.267 88.4 131.4C87.8667 131.4 87.5333 131.4 87.4 131.4C85.6667 131.4 83.8667 130.867 82 129.8C80.2667 128.733 77.8 128.2 74.6 128.2C72.8667 128.2 71.2 128.8 69.6 130C68.1333 131.2 67.1333 131.8 66.6 131.8C66.4667 131.8 66.3333 131.8 66.2 131.8C66.0667 131.667 66 131.533 66 131.4C66 131.133 66.2667 130.8 66.8 130.4C67.3333 130 67.6 129.6 67.6 129.2C67.6 129.067 67.5333 128.733 67.4 128.2C67.4 127.667 67.4 127.2 67.4 126.8C67.4 124.8 68.2 123.333 69.8 122.4C71.4 121.467 72.8667 120.867 74.2 120.6C75.9333 120.067 77.5333 119.733 79 119.6C80.6 119.333 82.0667 119.2 83.4 119.2C85.6667 119.2 87.8 119.6 89.8 120.4C91.8 121.067 93.1333 122.467 93.8 124.6C93.9333 125.133 94 125.533 94 125.8C94.1333 126.067 94.4 126.2 94.8 126.2C95.0667 126.2 95.2 126.067 95.2 125.8C95.3333 125.4 95.4 125 95.4 124.6C95.4 124.2 95.3333 123.8 95.2 123.4C95.2 123 95.0667 122.467 94.8 121.8C94.4 121.133 94 120.6 93.6 120.2C93.2 119.8 92.8667 119.533 92.6 119.4C92.4667 119.267 92.2 119.133 91.8 119C91.5333 118.867 91.4 118.8 91.4 118.8C91.4 118.667 91.4667 118.6 91.6 118.6C91.7333 118.467 91.8667 118.4 92 118.4C92.1333 118.4 92.4 118.533 92.8 118.8C93.3333 119.067 93.6667 119.2 93.8 119.2C93.9333 119.2 94.0667 119.133 94.2 119C94.4667 118.867 94.6 118.6 94.6 118.2C94.6 117.667 94.3333 117.267 93.8 117C93.4 116.6 93.0667 116.333 92.8 116.2C92.5333 116.067 92.2 115.933 91.8 115.8C91.4 115.533 91.0667 115.4 90.8 115.4C90.6667 115.4 90.5333 115.6 90.4 116C90.4 116.267 90.4 116.467 90.4 116.6C90.4 116.733 90.4 116.867 90.4 117C90.4 117.133 90.3333 117.2 90.2 117.2C90.0667 117.2 90 117.133 90 117C90 116.867 90 116.733 90 116.6C90 116.467 89.9333 116.267 89.8 116C89.8 115.733 89.6 115.333 89.2 114.8C89.0667 114.267 88.8 113.867 88.4 113.6C88 113.2 87.6667 112.867 87.4 112.6C86.4667 111.933 85.2667 111.267 83.8 110.6C82.4667 109.933 80.9333 109.6 79.2 109.6C78 109.6 76.9333 109.733 76 110C75.2 110.133 74.4 110.2 73.6 110.2C73.3333 110.2 72.8667 110.2 72.2 110.2C71.5333 110.067 70.8667 110 70.2 110C69.4 110 68.6 110.667 67.8 112C67 113.333 66.0667 114 65 114C64.8667 114 64.6667 114 64.4 114C64.2667 113.867 64.2 113.733 64.2 113.6C64.2 113.067 64.8 111.933 66 110.2C67.2 108.467 68.2 107.4 69 107C69.1333 107 69.2667 107.067 69.4 107.2C69.6667 107.333 70.0667 107.4 70.6 107.4C71.2667 107.4 72.2667 107.067 73.6 106.4C75.0667 105.6 76.8667 104.933 79 104.4C79.9333 104.267 81 104.133 82.2 104C83.4 103.867 84.5333 103.8 85.6 103.8C87.0667 103.8 88.1333 104 88.8 104.4C89.6 104.8 90.1333 105.467 90.4 106.4C90.5333 106.8 90.6667 107.2 90.8 107.6C90.9333 108 91.0667 108.2 91.2 108.2C91.8667 108.2 92.2 107.933 92.2 107.4C92.3333 106.867 92.7333 106.6 93.4 106.6C93.5333 106.6 93.6667 106.667 93.8 106.8C94.0667 106.933 94.2667 107.067 94.4 107.2C94.5333 107.333 94.6667 107.6 94.8 108C94.9333 108.4 95.0667 108.6 95.2 108.6C95.3333 108.6 95.4 108.533 95.4 108.4C95.5333 108.133 95.6 107.933 95.6 107.8C95.6 107.667 95.5333 107.467 95.4 107.2C95.4 106.933 95.3333 106.6 95.2 106.2C95.2 106.067 95.2 105.867 95.2 105.6C95.3333 105.333 95.4 105.133 95.4 105C95.4 104.467 95.2 103.733 94.8 102.8C94.4 101.733 93.9333 101.2 93.4 101.2C93.2667 101.2 93.1333 101.267 93 101.4C93 101.533 93 101.733 93 102C93 102.267 92.9333 102.533 92.8 102.8C92.6667 103.067 92.4 103.2 92 103.2C91.2 103.2 90.4 102.8 89.6 102C88.9333 101.067 88.3333 100.333 87.8 99.8C87 99.2667 86.3333 98.2 85.8 96.6C85.4 95 84.8 93.9333 84 93.4C83.6 93.1333 83.0667 93 82.4 93C81.8667 92.8667 81.3333 92.8 80.8 92.8C80.1333 92.8 79.6 92.7333 79.2 92.6C78.9333 92.4667 78.6667 92.2667 78.4 92C78.2667 91.4667 78 90.9333 77.6 90.4C77.3333 89.8667 77.2 89.2 77.2 88.4C77.2 87.7333 77.2667 87.1333 77.4 86.6C77.6667 85.9333 77.8 85.5333 77.8 85.4C77.8 85.2667 77.7333 85.2 77.6 85.2C77.6 85.0667 77.4667 85 77.2 85C77.0667 85 76.8667 85.1333 76.6 85.4C76.4667 85.5333 76.2667 85.8 76 86.2C75.7333 86.6 75.1333 87.3333 74.2 88.4C73.4 89.4667 72.8 90.2 72.4 90.6C72 91.1333 71.1333 92.2 69.8 93.8C68.6 95.4 67.7333 96.4667 67.2 97C66.8 97.4 66.2667 98 65.6 98.8C65.0667 99.6 64.7333 100.267 64.6 100.8C64.3333 101.333 64.2 101.733 64.2 102C64.2 102.133 64.1333 102.267 64 102.4C64 102.667 63.9333 102.933 63.8 103.2C63.8 103.467 63.7333 103.6 63.6 103.6C63.4667 103.6 63.4 103.533 63.4 103.4C63.4 103.133 63.4 102.933 63.4 102.8C63.4 102.667 63.5333 102.2 63.8 101.4C64.2 100.6 64.4667 99.9333 64.6 99.4C64.7333 98.8667 65 98.2667 65.4 97.6C65.8 96.9333 66.0667 96.5333 66.2 96.4C66.3333 96 66.6667 95.2 67.2 94C67.7333 92.8 68.2 91.8667 68.6 91.2C68.8667 90.5333 69.2667 89.8 69.8 89C70.3333 88.0667 70.9333 87.3333 71.6 86.8C72.1333 86 72.6667 85.3333 73.2 84.8C73.7333 84.1333 74.1333 83.6667 74.4 83.4C74.6667 83.2667 75.2 82.8667 76 82.2C76.9333 81.4 77.6 80.9333 78 80.8C78.2667 80.6667 78.8 80.3333 79.6 79.8C80.4 79.2667 81.2 78.8 82 78.4C82.9333 77.8667 83.6 77.6 84 77.6C84.4 77.4667 84.8 77.4 85.2 77.4C85.6 77.4 85.8667 77.4667 86 77.6C86.2667 77.7333 86.4 77.8667 86.4 78C86.4 78.1333 86.3333 78.2667 86.2 78.4C86.2 78.4 86.1333 78.4 86 78.4C85.8667 78.4 85.7333 78.3333 85.6 78.2C85.4667 78.0667 85.2667 78 85 78C84.4667 78 83.6667 78.3333 82.6 79C81.6667 79.6667 80.9333 80.3333 80.4 81C79.8667 81.8 79.4 82.7333 79 83.8C78.6 84.7333 78.4 85.5333 78.4 86.2C78.4 86.8667 78.7333 87.2667 79.4 87.4C80.2 87.5333 80.9333 87.6 81.6 87.6C82.5333 87.6 83.4667 87.7333 84.4 88C85.4667 88.2667 86.1333 88.4667 86.4 88.6C87.3333 89.1333 88.4667 90 89.8 91.2C91.2667 92.2667 93.0667 92.8 95.2 92.8C95.4667 92.8 95.8 92.8 96.2 92.8C96.7333 92.6667 97.1333 92.4667 97.4 92.2C97.8 91.9333 98.0667 91.3333 98.2 90.4C98.4667 89.4667 98.6 88.6667 98.6 88C98.6 87.4667 98.4667 86.8667 98.2 86.2C97.9333 85.5333 97.8 85 97.8 84.6C97.8 84.2 97.8 83.8 97.8 83.4C97.9333 83 98 82.5333 98 82C98 81.7333 97.6667 81.1333 97 80.2C96.4667 79.2667 96.1333 78.5333 96 78C95.7333 77.3333 95.5333 76.8 95.4 76.4C95.2667 76 95.2 75.6 95.2 75.2C95.0667 74.5333 94.7333 73.9333 94.2 73.4C93.8 72.7333 93.4667 72.0667 93.2 71.4C92.6667 70.4667 92.3333 69.5333 92.2 68.6C92.2 67.6667 92.2 66.7333 92.2 65.8C92.2 65.2667 92.2 64.8 92.2 64.4C92.3333 64 92.4 63.6667 92.4 63.4C92.4 63.2667 92.2667 63.2 92 63.2C91.8667 63.0667 91.4667 63 90.8 63C90.2667 63 89.8 63.2 89.4 63.6C89 64 88.8 64.2667 88.8 64.4C88.8 64.5333 88.6667 64.7333 88.4 65C88.2667 65.2667 88.2 65.4667 88.2 65.6C88.2 65.7333 88.2667 65.9333 88.4 66.2C88.5333 66.3333 88.6667 66.4 88.8 66.4C88.9333 66.4 89.0667 66.4 89.2 66.4C89.4667 66.4 89.6 66.4667 89.6 66.6C89.6 66.7333 89.3333 66.8667 88.8 67C88.4 67 88.0667 67 87.8 67C87.2667 67.1333 86.8 67.2667 86.4 67.4C86.1333 67.4 86 67.6 86 68C86 68.2667 86.1333 68.4667 86.4 68.6C86.8 68.6 87.0667 68.6 87.2 68.6C87.3333 68.6 87.4667 68.6667 87.6 68.8C87.7333 68.8 87.8 68.8667 87.8 69C87.8 69.1333 87.6 69.2 87.2 69.2C86.9333 69.2 86.4 69.2 85.6 69.2C84.9333 69.2 84.4 69.3333 84 69.6C83.7333 69.8667 83.6 70.1333 83.6 70.4C83.6 70.6667 84.3333 70.9333 85.8 71.2C87.4 71.4667 88.2 71.8 88.2 72.2C88.2 72.3333 88.2 72.4667 88.2 72.6C88.2 72.7333 88.1333 72.8 88 72.8C87.8667 72.8 87.4 72.6 86.6 72.2C85.8 71.8 84.9333 71.6 84 71.6C82.6667 71.6 81.6667 71.8667 81 72.4C80.3333 72.9333 79.2667 73.5333 77.8 74.2C76.7333 74.6 75.8 74.9333 75 75.2C74.2 75.3333 73.3333 75.4 72.4 75.4C71.7333 75.4 71.2 75.2667 70.8 75C70.5333 74.7333 70.4 74.6 70.4 74.6C70.4 74.4667 70.4 74.3333 70.4 74.2C70.5333 74.0667 70.6667 74 70.8 74C70.9333 74 71.1333 74.0667 71.4 74.2C71.6667 74.2 71.8667 74.2 72 74.2C72.1333 74.2 72.4667 74.2 73 74.2C73.5333 74.0667 73.8 73.7333 73.8 73.2C73.8 73.0667 73.6667 73 73.4 73C73.1333 72.8667 72.8667 72.8 72.6 72.8C72.4667 72.8 72.3333 72.8667 72.2 73C72.0667 73 71.9333 73 71.8 73C71.6667 73 71.4667 73 71.2 73C71.0667 72.8667 71 72.7333 71 72.6C71 72.3333 71.2 72.1333 71.6 72C72 71.8667 72.3333 71.8 72.6 71.8C72.7333 71.8 73.2667 71.8 74.2 71.8C75.1333 71.6667 75.6 71.4667 75.6 71.2C75.6 71.0667 75.3333 71 74.8 71C74.4 70.8667 73.8 70.8 73 70.8C69.6667 70.8 67.1333 71.2667 65.4 72.2C63.8 73 62.9333 73.4 62.8 73.4C62.6667 73.4 62.6 73.3333 62.6 73.2C62.6 72.9333 62.6 72.8 62.6 72.8C62.6 72 63.4 71.2667 65 70.6C66.6 69.9333 68.3333 69.6 70.2 69.6C70.7333 69.6 71.2667 69.7333 71.8 70C72.4667 70.1333 73.4667 70.2 74.8 70.2C76.1333 70.2 76.9333 70.0667 77.2 69.8C77.6 69.5333 77.8 69.3333 77.8 69.2C77.8 69.0667 77.6667 68.9333 77.4 68.8C77.2667 68.5333 77.1333 68.4 77 68.4C76.8667 68.4 76.7333 68.5333 76.6 68.8C76.4667 68.9333 76.3333 69 76.2 69C76.0667 69 75.8667 68.9333 75.6 68.8C75.4667 68.6667 75.2 68.6 74.8 68.6C74.5333 68.6 74.2667 68.7333 74 69C73.8667 69.1333 73.7333 69.2 73.6 69.2C73.4667 69.2 73.2 69.0667 72.8 68.8C72.4 68.5333 71.4 68.4 69.8 68.4C68.6 68.4 67.8667 68.4667 67.6 68.6C67.3333 68.7333 67 68.8667 66.6 69C66.3333 69.1333 65.8667 69.2667 65.2 69.4C64.6667 69.5333 64.2667 69.6 64 69.6C63.4667 69.7333 63.0667 69.9333 62.8 70.2C62.5333 70.4667 62.2 70.6667 61.8 70.8C61.4 70.9333 60.8667 71.1333 60.2 71.4C59.6667 71.5333 59.3333 71.6 59.2 71.6C59.0667 71.6 58.9333 71.6 58.8 71.6C58.6667 71.6 58.6 71.5333 58.6 71.4C58.6 71.2667 58.7333 71.1333 59 71C59.4 70.8667 59.8667 70.6667 60.4 70.4C61.2 70.1333 61.6 69.9333 61.6 69.8C61.7333 69.5333 61.8667 69.3333 62 69.2C62.1333 69.0667 62.3333 69 62.6 69C63 68.8667 63.4667 68.8 64 68.8C64.5333 68.8 65 68.7333 65.4 68.6C65.8 68.4667 66 68.2 66 67.8C66 67.4 65.4667 67.2 64.4 67.2C63.4667 67.0667 62.6 67 61.8 67C60.8667 67 59.6667 66.8 58.2 66.4C56.8667 66 55.9333 65.8 55.4 65.8C54.8667 65.8 54.3333 65.8667 53.8 66C53.4 66 52.9333 66 52.4 66C51.8667 66 51.4667 65.9333 51.2 65.8C50.9333 65.6667 50.8 65.5333 50.8 65.4C50.8 65.1333 51 65 51.4 65C51.8 64.8667 52.2667 64.8 52.8 64.8C53.4667 64.8 54.1333 64.8667 54.8 65C55.4667 65.1333 56.0667 65.2667 56.6 65.4C57.1333 65.5333 57.6667 65.6667 58.2 65.8C58.8667 65.9333 59.4 66 59.8 66C60.0667 66.1333 60.3333 66.2667 60.6 66.4C61 66.5333 61.3333 66.6 61.6 66.6C61.7333 66.6 61.8667 66.6 62 66.6C62.1333 66.4667 62.2 66.3333 62.2 66.2C62.2 66.0667 62.1333 65.9333 62 65.8C61.8667 65.6667 61.7333 65.6 61.6 65.6C61.4667 65.4667 61.2667 65.3333 61 65.2C60.7333 65.0667 60.6 64.9333 60.6 64.8C60.6 64.6667 60.6667 64.6 60.8 64.6C61.0667 64.6 61.2667 64.6 61.4 64.6C61.5333 64.6 61.8 64.8 62.2 65.2C62.6 65.6 62.8667 65.8667 63 66C63.2667 66.1333 63.4667 66.2667 63.6 66.4C63.8667 66.4 64.0667 66.4 64.2 66.4C64.3333 66.4 64.4667 66.4 64.6 66.4C64.7333 66.2667 64.8 66.1333 64.8 66C64.8 65.8667 64.3333 65.4667 63.4 64.8C62.6 64 62 63.4667 61.6 63.2C61.0667 62.8 60.5333 62.4667 60 62.2C59.6 61.9333 59.2667 61.8 59 61.8C58.6 61.6667 58.3333 61.5333 58.2 61.4C58.0667 61.2667 58 61.1333 58 61C58 60.8667 58 60.8 58 60.8C58.1333 60.6667 58.3333 60.6 58.6 60.6C58.8667 60.6 59.4 60.8 60.2 61.2C61 61.4667 61.6667 61.8667 62.2 62.4C62.8667 62.9333 63.5333 63.6 64.2 64.4C64.8667 65.2 65.2667 65.6667 65.4 65.8C65.5333 66.0667 65.8 66.3333 66.2 66.6C66.6 66.7333 67.0667 66.8 67.6 66.8C68.2667 66.8 68.6667 66.7333 68.8 66.6C69.0667 66.3333 69.2 66.1333 69.2 66C69.2 65.8667 69.0667 65.7333 68.8 65.6C68.6667 65.4667 68.5333 65.4 68.4 65.4C68.2667 65.4 68.1333 65.4 68 65.4C67.8667 65.2667 67.8 65.0667 67.8 64.8C67.8 64.6667 67.7333 64.4 67.6 64C67.6 63.6 67.5333 63.4 67.4 63.4C67.2667 63.4 67.1333 63.4667 67 63.6C66.8667 63.7333 66.7333 63.8 66.6 63.8C66.3333 63.8 66.2 63.6 66.2 63.2C66.3333 62.8 66 62.6 65.2 62.6C64.8 62.6 64.4 62.4667 64 62.2C63.7333 61.9333 63.4 61.7333 63 61.6C62.7333 61.4667 62.3333 61.2 61.8 60.8C61.4 60.2667 61.1333 59.9333 61 59.8C60.7333 59.6667 60.4667 59.5333 60.2 59.4C60.0667 59.2667 60 59.2 60 59.2C60 59.0667 60 58.9333 60 58.8C60.1333 58.6667 60.2667 58.6 60.4 58.6C60.5333 58.6 60.8 58.8 61.2 59.2C61.6 59.4667 61.9333 59.6 62.2 59.6C62.4667 59.6 62.6667 59.4667 62.8 59.2C62.9333 58.9333 63.1333 58.8 63.4 58.8C63.5333 58.8 63.6667 58.8667 63.8 59C63.9333 59 64.0667 59 64.2 59C64.3333 59 64.4 59 64.4 59C64.5333 58.8667 64.6 58.7333 64.6 58.6C64.6 58.4667 64.5333 58.3333 64.4 58.2C64.2667 57.9333 64.2 57.7333 64.2 57.6C64.2 57.4667 64.2 57.4 64.2 57.4C64.3333 57.2667 64.4667 57.2 64.6 57.2C64.7333 57.2 64.8 57.3333 64.8 57.6C64.9333 57.7333 65.0667 57.8 65.2 57.8C65.3333 57.8 65.4 57.7333 65.4 57.6C65.5333 57.4667 65.7333 57.4 66 57.4C66.1333 57.4 66.2667 57.5333 66.4 57.8C66.5333 58.0667 66.6667 58.2 66.8 58.2C66.9333 58.2 67.0667 58.2 67.2 58.2C67.3333 58.0667 67.4667 58 67.6 58C67.7333 58 67.8667 58.2 68 58.6C68.2667 58.8667 68.6 59 69 59C69.4 59 69.6 58.9333 69.6 58.8C69.7333 58.6667 69.8 58.5333 69.8 58.4C69.8 58.2667 69.6667 58.1333 69.4 58C69.1333 57.8667 68.9333 57.7333 68.8 57.6C68.6667 57.4667 68.5333 57.4 68.4 57.4C68.2667 57.4 68.2 57.3333 68.2 57.2C68.2 57.0667 68.2 57 68.2 57C68.3333 56.8667 68.4667 56.8 68.6 56.8C68.7333 56.8 69 56.9333 69.4 57.2C69.8 57.3333 70.0667 57.4 70.2 57.4C70.4667 57.4 70.6 57.3333 70.6 57.2C70.7333 57.0667 70.8 56.9333 70.8 56.8C70.8 56.6667 70.8 56.6 70.8 56.6C70.9333 56.4667 71.0667 56.4 71.2 56.4C71.3333 56.4 71.4667 56.3333 71.6 56.2C71.7333 56.0667 71.8667 56 72 56C72.1333 56 72.2 56.1333 72.2 56.4C72.2 56.6667 72.2667 56.8667 72.4 57C72.4 57.1333 72.5333 57.3333 72.8 57.6C73.2 57.7333 73.4667 57.8 73.6 57.8C73.8667 57.8 74.0667 57.7333 74.2 57.6C74.3333 57.4667 74.4 57.3333 74.4 57.2C74.4 57.0667 74.4 56.9333 74.4 56.8C74.4 56.6667 74.4667 56.6 74.6 56.6C74.7333 56.6 74.8 56.6667 74.8 56.8C74.9333 56.8 75.0667 56.8 75.2 56.8C75.3333 56.8 75.4 56.6 75.4 56.2C75.5333 55.6667 75.6667 55.4 75.8 55.4C75.9333 55.4 76 55.6 76 56C76.1333 56.4 76.2 56.8 76.2 57.2C76.2 57.7333 76.3333 58.2 76.6 58.6C77 59 77.3333 59.2 77.6 59.2C77.7333 59.2 77.8 59.1333 77.8 59C77.9333 58.8667 78 58.6 78 58.2C78 57.8 77.9333 57.5333 77.8 57.4C77.6667 57.1333 77.6 57 77.6 57C77.6 56.7333 77.6 56.6 77.6 56.6C77.7333 56.4667 77.8667 56.4 78 56.4C78.1333 56.4 78.2 56.5333 78.2 56.8C78.2 57.0667 78.2667 57.3333 78.4 57.6C78.5333 58 78.6667 58.3333 78.8 58.6C78.9333 58.8667 79.0667 59 79.2 59C79.6 59 79.8 58.7333 79.8 58.2C79.9333 57.6667 80.0667 57.4 80.2 57.4C80.3333 57.4 80.4 57.4667 80.4 57.6C80.5333 57.7333 80.6 57.8 80.6 57.8C80.6 57.9333 80.6 58.0667 80.6 58.2C80.6 58.3333 80.6667 58.4 80.8 58.4C80.9333 58.4 81.0667 58.3333 81.2 58.2C81.3333 58.0667 81.4667 58 81.6 58C81.7333 58 81.8 58.0667 81.8 58.2C81.9333 58.2 82 58.2667 82 58.4C82 58.5333 81.9333 58.7333 81.8 59C81.6667 59.2667 81.6 59.4667 81.6 59.6C81.6 59.7333 81.6 59.8667 81.6 60C81.7333 60.1333 81.8667 60.2 82 60.2C82.5333 60.2 82.9333 59.8667 83.2 59.2C83.4667 58.5333 83.6 57.8667 83.6 57.2C83.6 56.6667 83.2667 56.1333 82.6 55.6C81.9333 55.0667 81.3333 54.6667 80.8 54.4C80 54.2667 79.0667 54.1333 78 54C76.9333 53.8667 76.3333 53.8 76.2 53.8C75.2667 53.8 74.3333 53.9333 73.4 54.2C72.6 54.4667 71.9333 54.6 71.4 54.6C71.2667 54.6 71.0667 54.6 70.8 54.6C70.6667 54.4667 70.6 54.3333 70.6 54.2C70.6 54.0667 70.9333 53.8 71.6 53.4C72.4 53 73.0667 52.8 73.6 52.8C74 52.8 74.2667 52.8667 74.4 53C74.5333 53 74.9333 53 75.6 53C75.7333 53 75.8667 53 76 53C76.1333 52.8667 76.2 52.7333 76.2 52.6C76.2 52.4667 76.0667 52.3333 75.8 52.2C75.5333 51.9333 75.4 51.7333 75.4 51.6C75.4 51.4667 75.4 51.4 75.4 51.4C75.5333 51.2667 75.6667 51.2 75.8 51.2C75.9333 51.2 76.0667 51.3333 76.2 51.6C76.4667 51.8667 76.7333 52 77 52C77.2667 52 77.4 51.8 77.4 51.4C77.5333 51 77.6 50.7333 77.6 50.6C77.6 50.4667 77.6 50.3333 77.6 50.2C77.6 50.0667 77.6667 50 77.8 50C77.9333 50 78.0667 50.2 78.2 50.6C78.4667 51 78.7333 51.2667 79 51.4C79.1333 51.5333 79.4 51.6667 79.8 51.8C80.3333 51.9333 80.8667 52.1333 81.4 52.4C81.9333 52.6667 82.3333 53 82.6 53.4C83 53.6667 83.2667 53.8 83.4 53.8C83.5333 53.8 83.6667 53.6667 83.8 53.4C83.9333 53 84.0667 52.8 84.2 52.8C84.3333 52.8 84.5333 53.1333 84.8 53.8C85.0667 54.3333 85.3333 54.8667 85.6 55.4C85.7333 55.9333 85.9333 56.4 86.2 56.8C86.6 57.0667 86.8 57.2667 86.8 57.4C86.8 57.5333 86.7333 57.6667 86.6 57.8C86.4667 57.8 86.3333 57.8 86.2 57.8C85.5333 57.8 85 58.2 84.6 59C84.2 59.6667 84 60.3333 84 61C84 61.5333 84.0667 61.8667 84.2 62C84.3333 62.1333 84.6 62.2 85 62.2C85.5333 62.2 86.0667 61.9333 86.6 61.4C87.1333 60.7333 87.7333 60.4 88.4 60.4C88.5333 60.4 88.6 60.4667 88.6 60.6C88.7333 60.6 88.8 60.6667 88.8 60.8C88.8 60.9333 88.5333 61.1333 88 61.4C87.6 61.5333 87.1333 61.7333 86.6 62C86.2 62.2667 85.8667 62.6 85.6 63C85.4667 63.4 85.4 63.6667 85.4 63.8C85.4 63.9333 85.4667 64.0667 85.6 64.2C85.7333 64.2 85.8 64.2 85.8 64.2C86.3333 64.2 87.2667 63.6 88.6 62.4C89.9333 61.2 90.8 60.4667 91.2 60.2C91.3333 60.2 91.4 60.3333 91.4 60.6C91.4 60.7333 91.4 60.9333 91.4 61.2C91.4 61.4667 91.5333 61.6667 91.8 61.8C92.0667 61.8 92.2667 61.8 92.4 61.8C92.5333 61.8 92.6 61.8 92.6 61.8C92.7333 61.6667 92.8667 61.5333 93 61.4C93.1333 61 93.4667 60.6667 94 60.4C94.6667 60 95 59.5333 95 59C95 58.7333 94.8667 58.4667 94.6 58.2C94.4667 57.8 94.2 57.4 93.8 57C93.2667 56.4667 92.3333 56.1333 91 56C89.8 55.7333 89.2 55.3333 89.2 54.8C89.2 54.6667 89.2667 54.6 89.4 54.6C89.6667 54.4667 90 54.4 90.4 54.4C90.8 54.4 91.1333 54.4667 91.4 54.6C91.6667 54.7333 91.9333 54.8 92.2 54.8C92.3333 54.8 92.4667 54.7333 92.6 54.6C92.8667 54.3333 93 54.0667 93 53.8C93 53.4 92.8667 52.8 92.6 52C92.4667 51.2 92.4 50.5333 92.4 50C92.4 49.4667 92.4667 49 92.6 48.6C92.8667 48.2 93.0667 47.9333 93.2 47.8C93.3333 47.6667 93.4667 47.4667 93.6 47.2C93.7333 46.8 93.8667 46.3333 94 45.8C94.1333 45.4 94.2667 45.0667 94.4 44.8C94.6667 44.4 95.0667 43.9333 95.6 43.4C96.1333 42.8667 96.7333 42.5333 97.4 42.4C98.0667 42.2667 98.4667 42.1333 98.6 42C98.8667 42 99.0667 41.9333 99.2 41.8C99.3333 41.6667 99.4 41.4667 99.4 41.2C99.4 41.0667 99.2667 40.8667 99 40.6C98.8667 40.3333 98.8 39.8667 98.8 39.2C98.8 38.2667 98.8667 37.5333 99 37C99.2667 36.4667 99.4 36.1333 99.4 36C99.4 35.8667 99.4 35.7333 99.4 35.6C99.5333 35.3333 99.6667 35.1333 99.8 35ZM82 11.2C82 11.0667 81.8 10.3333 81.4 8.99999C81 7.66666 80.6667 7 80.4 7C80.2667 7 80.1333 7.06666 80 7.19999C80 7.33333 80 7.39999 80 7.39999C80 7.53332 80 7.73332 80 8C80.1333 8.13333 80.2 8.26666 80.2 8.39999C80.2 8.53332 80.1333 8.66666 80 8.8C80 8.8 80 8.86666 80 8.99999C80 9.13333 80.0667 9.39999 80.2 9.8C80.3333 10.0667 80.4667 10.3333 80.6 10.6C80.7333 10.8667 80.8 11.3333 80.8 12C80.9333 12.5333 81 12.9333 81 13.2C81 13.3333 80.9333 13.4667 80.8 13.6C80.8 13.6 80.8 13.6667 80.8 13.8C80.8 13.9333 80.8 14.1333 80.8 14.4C80.9333 14.5333 81.0667 14.6 81.2 14.6C81.3333 14.6 81.5333 14.4 81.8 14C82.2 13.6 82.4 13.3333 82.4 13.2C82.4 12.9333 82.3333 12.6 82.2 12.2C82.0667 11.8 82 11.4667 82 11.2ZM101.2 17C101.067 16.8667 101 16.6 101 16.2C101 15.8 101 15.2667 101 14.6C101 14.0667 100.8 13.5333 100.4 13C100 12.3333 99.7333 11.9333 99.6 11.8C99.2 11.6667 98.5333 11.2 97.6 10.4C96.8 9.46666 96.1333 8.99999 95.6 8.99999C95.4667 8.99999 95.3333 9.06666 95.2 9.19999C95.2 9.19999 95.2 9.26666 95.2 9.39999C95.2 9.53333 95.5333 9.86666 96.2 10.4C96.8667 10.8 97.3333 11.2 97.6 11.6C97.7333 11.7333 98 12.1333 98.4 12.8C98.9333 13.3333 99.2 13.6 99.2 13.6C99.2 13.7333 99.1333 13.8667 99 14C98.8667 14 98.7333 14 98.6 14C98.6 14 98.3333 13.7333 97.8 13.2C97.4 12.6667 97.0667 12.2667 96.8 12C95.6 11.3333 93.9333 10.4 91.8 9.19999C89.6667 7.86666 88.2 7.19999 87.4 7.19999C87.1333 7.19999 86.9333 7.26666 86.8 7.39999C86.8 7.39999 86.8 7.46666 86.8 7.59999C86.8 7.73333 87.3333 8.2 88.4 8.99999C89.6 9.66666 90.3333 10.0667 90.6 10.2C90.8667 10.6 91.3333 11 92 11.4C92.8 11.8 93.2 12.0667 93.2 12.2C93.2 12.2 93.1333 12.2667 93 12.4C93 12.5333 92.9333 12.6 92.8 12.6C92.6667 12.6 92.4667 12.5333 92.2 12.4C92.0667 12.2667 91.8667 12.1333 91.6 12C91.3333 11.8667 91.0667 11.6 90.8 11.2C90.5333 10.8 90.1333 10.4667 89.6 10.2C89.0667 9.93333 88.6 9.73333 88.2 9.6C87.9333 9.46666 87.7333 9.39999 87.6 9.39999C87.4667 9.39999 87.3333 9.46666 87.2 9.6C87.2 9.73333 87.2 9.86666 87.2 9.99999C87.2 10.1333 88 11.0667 89.6 12.8C91.2 14.4 92.3333 15.7333 93 16.8C93.2667 17.2 93.6 17.6667 94 18.2C94.5333 18.6 94.8667 19.0667 95 19.6C95.1333 20 95.3333 20.4667 95.6 21C95.8667 21.4 96.0667 21.6 96.2 21.6C96.3333 21.6 96.4667 21.6 96.6 21.6C96.7333 21.4667 96.8 21.3333 96.8 21.2C96.8 21.0667 96.6 20.6667 96.2 20C95.8 19.2 95.5333 18.6 95.4 18.2C95.1333 17.5333 94.7333 16.9333 94.2 16.4C93.8 15.8667 93.5333 15.5333 93.4 15.4C93.2667 15.1333 93.0667 14.8667 92.8 14.6C92.5333 14.3333 92.4 14.1333 92.4 14C92.4 13.8667 92.4 13.8 92.4 13.8C92.5333 13.6667 92.6667 13.6 92.8 13.6C93.0667 13.6 93.6 14.1333 94.4 15.2C95.2 16.1333 95.6667 16.7333 95.8 17C95.9333 17.2667 96.0667 17.4667 96.2 17.6C96.3333 17.7333 96.5333 17.8667 96.8 18C96.9333 18.1333 97.0667 18.2667 97.2 18.4C97.4667 18.4 97.6667 18.4667 97.8 18.6C97.9333 18.7333 98.1333 19.0667 98.4 19.6C98.8 20 99.0667 20.2 99.2 20.2C99.3333 20.2 99.4667 20.2 99.6 20.2C99.7333 20.0667 99.8 19.8667 99.8 19.6C99.8 19.4667 99.5333 19.2 99 18.8C98.6 18.4 98.3333 18.1333 98.2 18C97.9333 17.6 97.6 17.2 97.2 16.8C96.8 16.4 96.5333 15.9333 96.4 15.4C96.2667 14.8667 96.0667 14.5333 95.8 14.4C95.5333 14.1333 95.3333 13.9333 95.2 13.8C95.0667 13.6667 94.8667 13.4667 94.6 13.2C94.4667 12.9333 94.4 12.7333 94.4 12.6C94.4 12.4667 94.4 12.4 94.4 12.4C94.5333 12.2667 94.6667 12.2 94.8 12.2C94.9333 12.2 95.3333 12.5333 96 13.2C96.6667 13.7333 97.1333 14.0667 97.4 14.2C97.6667 14.3333 98.1333 14.8667 98.8 15.8C99.6 16.6 100.067 17.2 100.2 17.6C100.333 17.7333 100.533 18 100.8 18.4C101.2 18.6667 101.467 18.8 101.6 18.8C101.733 18.8 101.867 18.7333 102 18.6C102.133 18.4667 102.2 18.3333 102.2 18.2C102.2 18.0667 102.067 17.8667 101.8 17.6C101.533 17.3333 101.333 17.1333 101.2 17ZM39 9.99999C38.8667 9.99999 38.6667 10.1333 38.4 10.4C38.2667 10.5333 38.1333 10.6667 38 10.8C37.8667 10.9333 37.6667 11 37.4 11C37.2667 11 37.0667 11 36.8 11C36.2667 11 35.8667 11.3333 35.6 12C35.3333 12.5333 35.1333 12.9333 35 13.2C34.7333 13.3333 34.5333 13.5333 34.4 13.8C34.2667 13.9333 34.1333 14.0667 34 14.2C33.8667 14.4667 33.6667 14.8 33.4 15.2C33.2667 15.6 33.2 15.8667 33.2 16C33.2 16.1333 33.2 16.2667 33.2 16.4C33.3333 16.4 33.4667 16.4 33.6 16.4C33.7333 16.4 33.9333 16.2667 34.2 16C34.4667 15.6 34.6667 15.3333 34.8 15.2C34.9333 14.9333 35.2 14.6 35.6 14.2C36 13.6667 36.2667 13.2667 36.4 13C36.8 12.6 37.1333 12.3333 37.4 12.2C37.8 11.9333 38.0667 11.7333 38.2 11.6C38.4667 11.4667 38.7333 11.3333 39 11.2C39.4 10.9333 39.6 10.7333 39.6 10.6C39.6 10.4667 39.5333 10.3333 39.4 10.2C39.4 10.0667 39.2667 9.99999 39 9.99999ZM32.8 10.2C32.6667 10.2 32.4 10.3333 32 10.6C31.6 10.8667 31.3333 11.0667 31.2 11.2C31.0667 11.3333 30.8 11.6 30.4 12C30.1333 12.2667 29.8667 12.4667 29.6 12.6C29.4667 12.8667 29.2667 13.2667 29 13.8C28.7333 14.2 28.6 14.4667 28.6 14.6C28.6 14.7333 28.6 14.8667 28.6 15C28.7333 15.1333 28.8667 15.2 29 15.2C29.1333 15.2 29.2667 15 29.4 14.6C29.6667 14.2 29.9333 13.8667 30.2 13.6C30.4667 13.3333 30.8 13.0667 31.2 12.8C31.6 12.4 32 12.1333 32.4 12C32.5333 11.8667 32.6667 11.7333 32.8 11.6C32.9333 11.3333 33 11.1333 33 11C33 10.8667 33 10.7333 33 10.6C33 10.3333 32.9333 10.2 32.8 10.2ZM35.2 10.8C35.0667 10.8 34.6667 11.0667 34 11.6C33.4667 12 33.0667 12.3333 32.8 12.6C32.4 13 31.8667 13.5333 31.2 14.2C30.6667 14.8667 30.4 15.4667 30.4 16C30.4 16.1333 30.4 16.2667 30.4 16.4C30.5333 16.5333 30.6667 16.6 30.8 16.6C30.9333 16.6 31.0667 16.4667 31.2 16.2C31.3333 15.9333 31.4667 15.7333 31.6 15.6C31.7333 15.4667 31.9333 15.2 32.2 14.8C32.6 14.4 32.8667 14.1333 33 14C33.1333 13.8667 33.3333 13.6667 33.6 13.4C34 13 34.2667 12.6667 34.4 12.4C34.5333 12.1333 34.7333 11.9333 35 11.8C35.4 11.6667 35.6 11.5333 35.6 11.4C35.6 11.2667 35.5333 11.1333 35.4 11C35.4 10.8667 35.3333 10.8 35.2 10.8ZM21.6 11.6C21.6 11.6 21.6667 11.6667 21.8 11.8C21.9333 11.8 22 11.8667 22 12C22 12.1333 21.8 12.4667 21.4 13C21.1333 13.4 20.9333 13.6667 20.8 13.8C20.6667 13.9333 20.5333 14.2 20.4 14.6C20.2667 15 20.1333 15.2 20 15.2C20 15.2 19.9333 15.2 19.8 15.2C19.8 15.0667 19.8 14.8667 19.8 14.6C19.8 14.4667 19.8667 14.3333 20 14.2C20.1333 13.9333 20.2667 13.6667 20.4 13.4C20.5333 13 20.7333 12.6 21 12.2C21.2667 11.8 21.4667 11.6 21.6 11.6ZM86.6 14.8C86.3333 14.4 86.0667 14.1333 85.8 14C85.6667 13.7333 85.5333 13.5333 85.4 13.4C85.2667 13.2667 85 12.9333 84.6 12.4C84.2 11.8667 83.9333 11.6 83.8 11.6C83.6667 11.6 83.5333 11.6667 83.4 11.8C83.4 11.9333 83.4 12.0667 83.4 12.2C83.4 12.3333 83.5333 12.6667 83.8 13.2C84.0667 13.6 84.2667 13.8667 84.4 14C84.5333 14.1333 84.6667 14.4 84.8 14.8C84.9333 15.2 85.0667 15.4667 85.2 15.6C85.2 15.7333 85.2667 15.8667 85.4 16C85.5333 16.1333 85.6667 16.2667 85.8 16.4C85.9333 16.4 86 16.5333 86 16.8C86.1333 17.0667 86.2667 17.3333 86.4 17.6C86.5333 17.7333 86.6667 17.8667 86.8 18C86.9333 18.1333 87.0667 18.2 87.2 18.2C87.3333 18.2 87.4 18.1333 87.4 18C87.4 17.7333 87.4 17.4667 87.4 17.2C87.4 17.0667 87.3333 16.8 87.2 16.4C87.0667 15.8667 86.8667 15.3333 86.6 14.8ZM91.2 17.2C91.2 17.0667 91.1333 16.8667 91 16.6C90.8667 16.3333 90.7333 16.0667 90.6 15.8C90.4667 15.6667 90 15.2 89.2 14.4C88.5333 13.4667 88.1333 13 88 13C87.8667 13 87.7333 13.0667 87.6 13.2C87.6 13.2 87.6 13.2667 87.6 13.4C87.6 13.5333 87.6667 13.6667 87.8 13.8C87.9333 13.9333 88 14.0667 88 14.2C88 14.3333 87.9333 14.4667 87.8 14.6C87.8 14.6 87.8 14.6667 87.8 14.8C87.8 14.9333 87.8667 15.2 88 15.6C88.2667 15.8667 88.4667 16.0667 88.6 16.2C88.7333 16.3333 88.8667 16.4667 89 16.6C89.2667 16.7333 89.4667 16.8 89.6 16.8C89.7333 16.8 89.8667 16.9333 90 17.2C90.1333 17.4667 90.2667 17.6667 90.4 17.8C90.5333 17.9333 90.6667 18.1333 90.8 18.4C90.9333 18.6667 91.0667 18.8 91.2 18.8C91.3333 18.8 91.4667 18.8 91.6 18.8C91.7333 18.6667 91.8 18.5333 91.8 18.4C91.8 18.2667 91.6667 18.0667 91.4 17.8C91.2667 17.5333 91.2 17.3333 91.2 17.2ZM28.8 16.8C28.8 16.6667 28.7333 16.6 28.6 16.6C28.6 16.4667 28.5333 16.4 28.4 16.4C28.1333 16.4 27.7333 16.6667 27.2 17.2C26.8 17.6 26.5333 17.9333 26.4 18.2C26.1333 18.4667 25.8 18.9333 25.4 19.6C25.1333 20.1333 24.9333 20.4667 24.8 20.6C24.6667 20.8667 24.4667 21.2 24.2 21.6C24.0667 21.8667 23.9333 22 23.8 22C23.8 22 23.7333 22 23.6 22C23.4667 21.8667 23.4 21.7333 23.4 21.6C23.4 21.4667 23.6 21.0667 24 20.4C24.5333 19.7333 24.9333 19.2 25.2 18.8C25.4667 18.2667 25.7333 17.9333 26 17.8C26.2667 17.6667 26.4667 17.4667 26.6 17.2C26.7333 17.0667 26.8667 16.9333 27 16.8C27.1333 16.6667 27.2 16.6 27.2 16.6C27.2 16.4667 27.1333 16.4 27 16.4C27 16.2667 26.9333 16.2 26.8 16.2C26.6667 16.2 26.3333 16.4 25.8 16.8C25.4 17.0667 24.9333 17.4667 24.4 18C24 18.4 23.6667 18.9333 23.4 19.6C23.1333 20.1333 22.9333 20.5333 22.8 20.8C22.5333 21.0667 22.3333 21.3333 22.2 21.6C22.2 21.8667 22.2 22.1333 22.2 22.4C22.2 22.5333 22.0667 22.8667 21.8 23.4C21.5333 23.8 21.3333 24.2667 21.2 24.8C21.0667 25.2 20.7333 25.8667 20.2 26.8C19.6667 27.7333 19.4 28.2667 19.4 28.4C19.4 28.5333 19.4 28.6667 19.4 28.8C19.5333 28.8 19.6667 28.8 19.8 28.8C20.4667 28.8 20.8 28.3333 20.8 27.4C20.8 26.4667 21 26 21.4 26C21.5333 26 21.6 26.0667 21.6 26.2C21.7333 26.2 21.8 26.2667 21.8 26.4C21.8 26.5333 21.7333 26.7333 21.6 27C21.4667 27.1333 21.4 27.2667 21.4 27.4C21.4 27.5333 21.4667 27.6667 21.6 27.8C21.7333 27.9333 21.8667 28 22 28C22.1333 28 22.2667 27.9333 22.4 27.8C22.5333 27.6667 22.6667 27.3333 22.8 26.8C23.2 26 23.6667 25.2 24.2 24.4C24.8667 23.4667 25.4667 22.6667 26 22C26.1333 21.8667 26.3333 21.6 26.6 21.2C26.8667 20.8 27 20.5333 27 20.4C27 20.2667 26.9333 20.1333 26.8 20C26.6667 19.8667 26.6 19.7333 26.6 19.6C26.6 19.4667 26.7333 19.2667 27 19C27.2667 18.6 27.5333 18.3333 27.8 18.2C27.9333 18.0667 28.1333 17.8667 28.4 17.6C28.6667 17.2 28.8 16.9333 28.8 16.8ZM89.2 18.4C89.0667 18.1333 88.9333 18 88.8 18C88.6667 17.8667 88.5333 17.8 88.4 17.8C88.2667 17.8 88.1333 17.8667 88 18C88 18 88 18.0667 88 18.2C88 18.3333 88.0667 18.5333 88.2 18.8C88.4667 18.9333 88.6667 19.0667 88.8 19.2C88.9333 19.3333 89.0667 19.6 89.2 20C89.3333 20.2667 89.4667 20.4 89.6 20.4C89.7333 20.4 89.8667 20.4 90 20.4C90.1333 20.2667 90.2 20.1333 90.2 20C90.2 19.7333 90.0667 19.4667 89.8 19.2C89.6667 18.9333 89.4667 18.6667 89.2 18.4ZM33.6 18C33.3333 18 33.1333 18.1333 33 18.4C32.8667 18.5333 32.7333 18.6667 32.6 18.8C32.0667 18.9333 31.6667 19.3333 31.4 20C31.2667 20.5333 31.1333 21 31 21.4C30.8667 21.4 30.7333 21.4 30.6 21.4C30.4667 21.2667 30.4 21.0667 30.4 20.8C30.4 20.6667 30.4667 20.5333 30.6 20.4C30.7333 20.1333 30.8 20 30.8 20C30.8 19.8667 30.7333 19.7333 30.6 19.6C30.6 19.4667 30.5333 19.4 30.4 19.4C30 19.4 29.5333 20.1333 29 21.6C28.4667 22.9333 28.1333 23.7333 28 24C27.8667 24.4 27.6 24.9333 27.2 25.6C26.8 26.2667 26.6 26.7333 26.6 27C26.6 27.1333 26.6667 27.3333 26.8 27.6C26.9333 27.7333 27.0667 27.8 27.2 27.8C27.6 27.8 27.9333 27.0667 28.2 25.6C28.6 24 28.9333 23.2 29.2 23.2C29.3333 23.2 29.4 23.2667 29.4 23.4C29.4 23.5333 29.4 23.6667 29.4 23.8C29.4 23.9333 29.4667 24.0667 29.6 24.2C29.7333 24.2 29.8667 24.2 30 24.2C30.1333 24.2 30.2 24.1333 30.2 24C30.2 23.7333 30.2667 23.4667 30.4 23.2C30.5333 23.0667 30.8 22.8 31.2 22.4C31.7333 21.8667 32.0667 21.3333 32.2 20.8C32.3333 20.2667 32.4667 19.9333 32.6 19.8C32.8667 19.5333 33.0667 19.3333 33.2 19.2C33.3333 19.0667 33.4667 18.9333 33.6 18.8C33.8667 18.6667 34 18.5333 34 18.4C34 18.2667 33.9333 18.2 33.8 18.2C33.8 18.0667 33.7333 18 33.6 18ZM16 18.2C16.1333 18.2 16.2 18.2667 16.2 18.4C16.3333 18.4 16.4 18.4667 16.4 18.6C16.4 18.7333 16.2667 18.9333 16 19.2C15.8667 19.4667 15.7333 19.7333 15.6 20C15.3333 20.1333 15 20.4 14.6 20.8C14.3333 21.0667 14.1333 21.2667 14 21.4C13.8667 21.5333 13.7333 21.7333 13.6 22C13.4667 22.1333 13.2667 22.2667 13 22.4C12.8667 22.5333 12.7333 22.6 12.6 22.6C12.4667 22.6 12.3333 22.6667 12.2 22.8C12.0667 22.9333 11.8667 23.2 11.6 23.6C11.4667 23.8667 11.3333 24 11.2 24C11.0667 24 10.9333 24 10.8 24C10.8 23.8667 10.8 23.7333 10.8 23.6C10.8 23.4667 10.9333 23.2667 11.2 23C11.4667 22.7333 11.6667 22.4 11.8 22C12.2 21.4667 12.6 21.0667 13 20.8C13.5333 20.5333 14.0667 20.1333 14.6 19.6C14.7333 19.4667 15 19.2 15.4 18.8C15.8 18.4 16 18.2 16 18.2ZM94.4 20.2C94.1333 20.2 93.9333 20.2667 93.8 20.4C93.8 20.4 93.8 20.4667 93.8 20.6C93.8 20.7333 93.8667 20.8667 94 21C94.1333 21.1333 94.2667 21.2 94.4 21.2C94.5333 21.2 94.6 21.2 94.6 21.2C94.7333 21.0667 94.8 20.9333 94.8 20.8C94.8 20.6667 94.7333 20.5333 94.6 20.4C94.4667 20.2667 94.4 20.2 94.4 20.2ZM20.4 22.6C20.2667 22.6 20 22.7333 19.6 23C19.3333 23.2667 19.0667 23.6667 18.8 24.2C18.4 25.1333 17.8667 26.1333 17.2 27.2C16.5333 28.2667 16.2 29.2667 16.2 30.2C16.2 30.3333 16.2 30.4667 16.2 30.6C16.3333 30.6 16.4667 30.6 16.6 30.6C16.7333 30.6 16.8667 30.4667 17 30.2C17.1333 29.9333 17.2667 29.6 17.4 29.2C17.5333 28.8 17.6667 28.4667 17.8 28.2C18.0667 27.9333 18.2 27.7333 18.2 27.6C18.3333 27.4667 18.4667 27.2 18.6 26.8C18.7333 26.2667 18.8667 25.8667 19 25.6C19.1333 25.3333 19.4667 24.8667 20 24.2C20.5333 23.5333 20.8 23.1333 20.8 23C20.8 22.8667 20.7333 22.8 20.6 22.8C20.6 22.6667 20.5333 22.6 20.4 22.6ZM31.4 23.4C31.2667 23.4 30.9333 23.8 30.4 24.6C30 25.4 29.7333 25.8667 29.6 26C29.4667 26.1333 29.3333 26.4 29.2 26.8C29.0667 27.0667 28.9333 27.4 28.8 27.8C28.6667 27.9333 28.5333 28.1333 28.4 28.4C28.4 28.6667 28.4 28.8667 28.4 29C28.4 29.1333 28.4667 29.3333 28.6 29.6C28.7333 29.7333 28.8667 29.8 29 29.8C29.2667 29.8 29.4 29.6667 29.4 29.4C29.5333 29 29.6 28.7333 29.6 28.6C29.6 28.4667 29.7333 28.2 30 27.8C30.4 27.2667 30.6667 26.7333 30.8 26.2C30.9333 25.8 31.1333 25.4 31.4 25C31.6667 24.4667 31.8 24.1333 31.8 24C31.8 23.8667 31.7333 23.7333 31.6 23.6C31.6 23.4667 31.5333 23.4 31.4 23.4ZM26.8 23.6C26.2667 23.6 25.6667 23.9333 25 24.6C24.4667 25.2667 24.1333 25.8 24 26.2C23.8667 26.7333 23.6 27.5333 23.2 28.6C22.8 29.5333 22.6 30.0667 22.6 30.2C22.6 30.4667 22.6667 30.6667 22.8 30.8C22.9333 30.8 23.0667 30.8 23.2 30.8C23.3333 30.8 23.4 30.7333 23.4 30.6C23.5333 30.3333 23.6667 30.1333 23.8 30C23.8 29.8667 23.8667 29.8 24 29.8C24.1333 29.6667 24.2667 29.6 24.4 29.6C24.8 29.6 25.1333 29.1333 25.4 28.2C25.8 27.2667 26.0667 26.6 26.2 26.2C26.3333 25.6667 26.5333 25.2 26.8 24.8C27.0667 24.4 27.2 24.1333 27.2 24C27.2 24 27.1333 23.9333 27 23.8C27 23.6667 26.9333 23.6 26.8 23.6ZM110.6 40.2C110.6 40.0667 110.333 39.4 109.8 38.2C109.267 37 108.733 35.9333 108.2 35C107.8 34.0667 107.333 33.4 106.8 33C106.4 32.6 105.933 32.4 105.4 32.4C105 32.4 104.533 32.5333 104 32.8C103.467 32.9333 102.933 33.2 102.4 33.6C101.867 34 101.533 34.4 101.4 34.8C101.267 35.0667 101.2 35.4 101.2 35.8C101.2 36.3333 101.467 37.1333 102 38.2C102.533 39.1333 103 39.8667 103.4 40.4C103.933 41.2 104.467 41.7333 105 42C105.667 42.1333 106.267 42.2 106.8 42.2C107.2 42.2 107.667 42.0667 108.2 41.8C108.733 41.5333 109.267 41.2667 109.8 41C110.2 40.8667 110.4 40.7333 110.4 40.6C110.533 40.4667 110.6 40.3333 110.6 40.2ZM129.4 96C128.867 94 128.133 91.9333 127.2 89.8C126.4 87.5333 126 85.1333 126 82.6C126 81.8 125.8 81.0667 125.4 80.4C125.133 79.7333 125 79.2667 125 79C125 78.7333 125.133 78.3333 125.4 77.8C125.667 77.1333 125.8 76.5333 125.8 76C125.8 75.4667 125.733 74.8667 125.6 74.2C125.467 73.4 125.133 72.3333 124.6 71C124.067 69.6667 123.467 68.5333 122.8 67.6C122.267 66.6667 121.867 66.0667 121.6 65.8C120.667 63.6667 119.667 61.4 118.6 59C117.667 56.6 116.8 54 116 51.2C115.867 50.9333 115.6 50.4667 115.2 49.8C114.8 49.1333 114.533 48.5333 114.4 48C114.267 47.4667 113.867 46.6 113.2 45.4C112.667 44.2 112.267 43.2667 112 42.6C111.867 41.9333 111.667 41.5333 111.4 41.4C111.133 41.2667 110.933 41.2 110.8 41.2C110.533 41.2 109.933 41.4667 109 42C108.2 42.5333 107.467 42.8 106.8 42.8C105.6 42.8 104.6 42.4667 103.8 41.8C103.133 41.1333 102.533 40.4 102 39.6C101.6 38.6667 101.267 37.8667 101 37.2C100.733 36.5333 100.533 36.2 100.4 36.2C100.267 36.2 100.067 36.3333 99.8 36.6C99.6667 36.8667 99.6 37.0667 99.6 37.2C99.6 37.3333 99.6667 37.8 99.8 38.6C100.067 39.4 100.333 40.1333 100.6 40.8C100.867 41.7333 101.4 43 102.2 44.6C103 46.2 103.467 47.2667 103.6 47.8C103.867 48.4667 104.467 49.7333 105.4 51.6C106.467 53.4667 107.133 54.6667 107.4 55.2C107.8 55.8667 108.533 57.2 109.6 59.2C110.8 61.2 112 63.3333 113.2 65.6C114.533 67.8667 115.733 70.0667 116.8 72.2C118 74.2 118.667 75.4667 118.8 76C118.933 76.4 119 76.9333 119 77.6C119.133 78.1333 119.2 78.6 119.2 79C119.2 79.5333 119.333 80.7333 119.6 82.6C120 84.3333 120.4 86 120.8 87.6C121.733 91.2 122.533 94.0667 123.2 96.2C123.867 98.3333 124.733 100.867 125.8 103.8C126.067 104.733 126.267 105.733 126.4 106.8C126.667 107.867 126.8 108.533 126.8 108.8C126.933 109.067 127 109.333 127 109.6C127.133 109.733 127.467 109.8 128 109.8C128.933 109.8 129.8 108.8 130.6 106.8C131.4 104.667 131.8 102.933 131.8 101.6C131.8 100.667 131.4 99.6667 130.6 98.6C129.933 97.4 129.533 96.5333 129.4 96ZM117.8 38.2C117.667 37.6667 117.4 37.2667 117 37C116.733 36.6 116.2 36.4 115.4 36.4C114.733 36.4 114.2 36.6 113.8 37C113.533 37.2667 113.4 37.5333 113.4 37.8C113.4 38.2 113.6 38.8667 114 39.8C114.4 40.7333 114.733 41.5333 115 42.2C115.4 42.7333 115.733 43.2 116 43.6C116.4 44 116.733 44.2 117 44.2C117.133 44.2 117.533 44.0667 118.2 43.8C119 43.4 119.4 43.0667 119.4 42.8C119.4 42.5333 119.2 41.8667 118.8 40.8C118.533 39.7333 118.2 38.8667 117.8 38.2ZM137.4 99.8C137.4 98.8667 136.8 97.6667 135.6 96.2C134.533 94.7333 133.667 93 133 91C132.733 90.2 132.4 89.0667 132 87.6C131.733 86 131.533 84.7333 131.4 83.8C131 80.8667 130.6 79 130.2 78.2C129.8 77.2667 129.6 76.4667 129.6 75.8C129.6 75.4 129.6 74.8667 129.6 74.2C129.733 73.5333 129.8 73 129.8 72.6C129.8 70.4667 129.133 67.4667 127.8 63.6C126.6 59.7333 125.533 56.6 124.6 54.2C124.333 53.1333 124 52.2 123.6 51.4C123.2 50.6 122.8 49.9333 122.4 49.4L120.8 45C120.667 44.7333 120.467 44.5333 120.2 44.4C120.067 44.1333 119.867 44 119.6 44C119.333 44 118.933 44.1333 118.4 44.4C117.867 44.6667 117.333 44.8 116.8 44.8C116.4 44.8 115.933 44.5333 115.4 44C115 43.4667 114.733 43.0667 114.6 42.8C114.467 42.4 114.133 41.8 113.6 41C113.2 40.0667 112.933 39.3333 112.8 38.8C112.8 38.5333 112.733 38.3333 112.6 38.2C112.467 38.0667 112.333 38 112.2 38C112.067 38 111.933 38.1333 111.8 38.4C111.8 38.6667 111.8 38.9333 111.8 39.2C111.8 39.7333 112 40.5333 112.4 41.6C112.933 42.6667 113.333 43.5333 113.6 44.2C114.267 45.8 114.867 47.1333 115.4 48.2C116.067 49.2667 116.6 50.4667 117 51.8C117.133 52.6 117.4 53.4667 117.8 54.4C118.2 55.2 118.467 55.9333 118.6 56.6C118.733 57.1333 119.133 58.2 119.8 59.8C120.467 61.2667 120.933 62.3333 121.2 63C121.733 64.3333 122.4 65.6667 123.2 67C124.133 68.2 124.867 69.4667 125.4 70.8C125.533 71.0667 125.733 71.7333 126 72.8C126.4 73.8667 126.6 74.7333 126.6 75.4C126.6 76.0667 126.533 76.8 126.4 77.6C126.4 78.2667 126.4 78.6667 126.4 78.8C126.4 79.2 126.533 80 126.8 81.2C127.067 82.2667 127.267 83.3333 127.4 84.4C127.8 86.4 128.333 88.8667 129 91.8C129.8 94.6 130.867 97.4 132.2 100.2C132.333 100.733 132.467 101.533 132.6 102.6C132.733 103.533 132.8 104.267 132.8 104.8C132.8 105.467 132.867 106.4 133 107.6C133.133 108.667 133.2 109.467 133.2 110C133.2 111.467 133.067 112.667 132.8 113.6C132.667 114.533 132.6 115.267 132.6 115.8C132.6 115.933 132.6 116.6 132.6 117.8C132.733 118.867 132.867 120 133 121.2C133.267 122.4 133.467 123.533 133.6 124.6C133.867 125.533 134.133 126 134.4 126C134.8 126 135.133 125.2 135.4 123.6C135.667 121.867 135.8 120.467 135.8 119.4C135.8 117.133 135.667 115.467 135.4 114.4C135.267 113.2 135.2 111.4 135.2 109C135.2 106.867 135.533 105.333 136.2 104.4C137 103.333 137.4 101.8 137.4 99.8ZM100.8 44C100.533 43.4667 100.2 43.1333 99.8 43C99.5333 42.7333 99.1333 42.6 98.6 42.6C98.0667 42.6 97.4667 42.8 96.8 43.2C96.1333 43.4667 95.6667 43.8667 95.4 44.4C95.1333 44.6667 94.9333 45 94.8 45.4C94.6667 45.8 94.6 46.2667 94.6 46.8C94.6 46.9333 94.8 47.4667 95.2 48.4C95.6 49.2 96 49.8667 96.4 50.4C96.9333 51.2 97.3333 51.7333 97.6 52C97.8667 52.1333 98.1333 52.2 98.4 52.2C99.0667 52.2 99.7333 52 100.4 51.6C101.067 51.2 101.733 50.8 102.4 50.4C102.8 50.2667 103 50.1333 103 50C103.133 49.8667 103.2 49.7333 103.2 49.6C103.2 49.4667 102.867 48.6667 102.2 47.2C101.667 45.6 101.2 44.5333 100.8 44ZM18.4 58.4C18.2667 58.4 17.8667 58.6667 17.2 59.2C16.6667 59.7333 16.2667 60.2 16 60.6C15.6 60.7333 15.2 60.8667 14.8 61C14.5333 61.1333 14.4 61.2667 14.4 61.4C14.4 61.5333 14.4 61.6667 14.4 61.8C14.5333 61.8 14.6667 61.8 14.8 61.8C14.9333 61.8 15.2667 61.6667 15.8 61.4C16.4667 61.1333 16.9333 60.8667 17.2 60.6C17.6 60.2 17.9333 59.8667 18.2 59.6C18.6 59.2 18.8 58.9333 18.8 58.8C18.8 58.6667 18.7333 58.6 18.6 58.6C18.6 58.4667 18.5333 58.4 18.4 58.4ZM98.4 61.4C97.8667 60.6 97.4 60.1333 97 60C96.7333 59.8667 96.5333 59.8 96.4 59.8C96 59.8 95.6 59.9333 95.2 60.2C94.9333 60.4667 94.6667 60.6667 94.4 60.8C94.1333 60.9333 93.8667 61.2 93.6 61.6C93.4667 61.8667 93.4 62.1333 93.4 62.4C93.4 62.9333 93.6667 63.7333 94.2 64.8C94.8667 65.8667 95.4 66.6667 95.8 67.2C96.3333 67.8667 96.7333 68.2667 97 68.4C97.2667 68.5333 97.4667 68.6 97.6 68.6C97.7333 68.6 98.3333 68.2667 99.4 67.6C100.6 66.8 101.2 66.3333 101.2 66.2C101.2 66.0667 100.867 65.4667 100.2 64.4C99.5333 63.3333 98.9333 62.3333 98.4 61.4ZM74.2 65.6C73.5333 65.3333 72.9333 64.9333 72.4 64.4C72 63.8667 71.7333 63.4667 71.6 63.2C71.4667 62.8 71.2 62.5333 70.8 62.4C70.5333 62.1333 70.1333 62 69.6 62C69.0667 62 68.7333 62.0667 68.6 62.2C68.4667 62.3333 68.4 62.6 68.4 63C68.4 63.5333 68.6667 64.1333 69.2 64.8C69.8667 65.4667 70.6 66 71.4 66.4C72.2 66.9333 73 67.3333 73.8 67.6C74.7333 67.7333 75.4667 67.8 76 67.8C76.5333 67.8 76.8 67.7333 76.8 67.6C76.9333 67.3333 77 67.1333 77 67C77 66.8667 76.6667 66.6667 76 66.4C75.3333 66 74.7333 65.7333 74.2 65.6ZM34.2 69C34.3333 69.4 34.4667 69.8 34.6 70.2C34.7333 70.6 34.8 70.8 34.8 70.8C34.8 70.9333 34.7333 71 34.6 71C34.4667 71 34.3333 71 34.2 71C34.0667 71 33.9333 71.0667 33.8 71.2C33.8 71.3333 33.8 71.4 33.8 71.4C33.8 71.5333 33.8 71.6667 33.8 71.8C33.8 71.9333 33.7333 72 33.6 72C33.4667 72 33.3333 71.9333 33.2 71.8C33.0667 71.5333 33 71.1333 33 70.6C33 70.0667 33.0667 69.4667 33.2 68.8C33.3333 68.1333 33.4667 67.8 33.6 67.8C33.7333 67.8 33.8 67.8667 33.8 68C33.9333 68.1333 34.0667 68.4667 34.2 69ZM79 68.4C78.8667 68.4 78.6667 68.5333 78.4 68.8C78.2667 69.0667 78.2 69.2667 78.2 69.4C78.2 69.5333 78.2667 69.6667 78.4 69.8C78.5333 69.8 78.6667 69.8 78.8 69.8C79.0667 69.8 79.2667 69.7333 79.4 69.6C79.5333 69.3333 79.6 69.1333 79.6 69C79.6 68.8667 79.5333 68.7333 79.4 68.6C79.2667 68.4667 79.1333 68.4 79 68.4ZM81 68.6C80.8667 68.6 80.7333 68.6667 80.6 68.8C80.6 68.9333 80.6 69.0667 80.6 69.2C80.6 69.3333 80.6667 69.5333 80.8 69.8C80.9333 70.0667 81.0667 70.2 81.2 70.2C81.4667 70.2 81.6 70.0667 81.6 69.8C81.7333 69.5333 81.8 69.3333 81.8 69.2C81.8 69.0667 81.6667 68.9333 81.4 68.8C81.2667 68.6667 81.1333 68.6 81 68.6ZM97.2 93.4C97.0667 93.4 96.9333 93.5333 96.8 93.8C96.6667 94.0667 96.4 94.2667 96 94.4C95.7333 94.5333 95.2667 94.6667 94.6 94.8C94.0667 94.9333 93.6 95 93.2 95C92.6667 95 92.2 95 91.8 95C91.4 94.8667 90.9333 94.7333 90.4 94.6C89.7333 94.4667 89.2 94.2 88.8 93.8C88.5333 93.2667 88.3333 93 88.2 93C88.0667 93 87.9333 93.0667 87.8 93.2C87.8 93.3333 87.8 93.4667 87.8 93.6C87.8 93.7333 87.8667 94 88 94.4C88.2667 94.8 88.6667 95.1333 89.2 95.4C89.7333 95.6667 90.2 95.9333 90.6 96.2C91.1333 96.3333 92 96.4 93.2 96.4C94.4 96.4 95.4 96.0667 96.2 95.4C97 94.6 97.4 94.1333 97.4 94C97.4 93.8667 97.4 93.7333 97.4 93.6C97.4 93.4667 97.3333 93.4 97.2 93.4ZM89 105.2C88.8667 104.933 88.5333 104.733 88 104.6C87.4667 104.467 86.7333 104.4 85.8 104.4C85 104.4 84.4 104.4 84 104.4C83.6 104.4 83.1333 104.467 82.6 104.6C82.0667 104.733 81.6667 104.867 81.4 105C81.1333 105 81 105.133 81 105.4C81 105.933 81.6667 106.267 83 106.4C84.3333 106.4 85.4 106.4 86.2 106.4C86.4667 106.4 86.8667 106.533 87.4 106.8C87.9333 107.067 88.3333 107.2 88.6 107.2C88.8667 107.2 89.0667 107.133 89.2 107C89.4667 106.867 89.6 106.733 89.6 106.6C89.6 106.467 89.5333 106.333 89.4 106.2C89.4 105.933 89.2667 105.6 89 105.2ZM138.4 111.6C138.267 110.933 138.067 110.533 137.8 110.4C137.667 110.133 137.533 110 137.4 110C137.133 110 136.933 110.267 136.8 110.8C136.8 111.333 136.8 111.8 136.8 112.2C136.8 112.733 136.933 113.267 137.2 113.8C137.467 114.2 137.6 114.8 137.6 115.6C137.6 116.133 137.867 117.6 138.4 120C138.933 122.267 139.6 123.4 140.4 123.4C140.8 123.4 141 123.067 141 122.4C141.133 121.733 141.2 121.133 141.2 120.6C141.2 119.8 140.733 118.333 139.8 116.2C139 113.933 138.533 112.4 138.4 111.6ZM88 116.4C88.1333 116.4 88.2667 116.467 88.4 116.6C88.5333 116.733 88.6 116.867 88.6 117C88.6 117 88.5333 117.067 88.4 117.2C88.4 117.2 88.2667 117.2 88 117.2C87.8667 117.2 87.4 117.067 86.6 116.8C85.9333 116.533 85.3333 116.4 84.8 116.4C84.2667 116.4 83.7333 116.4 83.2 116.4C82.8 116.4 82.5333 116.333 82.4 116.2C82.2667 116.067 82 116 81.6 116C81.2 115.867 80.8667 115.8 80.6 115.8C80.3333 115.8 79.6667 115.867 78.6 116C77.5333 116 76.8 116 76.4 116C75.4667 116 74.5333 115.533 73.6 114.6C72.6667 113.667 72.2 112.867 72.2 112.2C72.2 112.067 72.2667 111.933 72.4 111.8C72.5333 111.667 72.6 111.6 72.6 111.6C72.7333 111.6 72.8667 111.733 73 112C73.1333 112.267 73.3333 112.4 73.6 112.4C74 112.4 74.3333 112.267 74.6 112C74.8667 111.6 75.3333 111.4 76 111.4C76.5333 111.4 77.1333 111.333 77.8 111.2C78.6 111.067 79.0667 111 79.2 111C79.6 111 79.8667 111.133 80 111.4C80.2667 111.667 80.4 111.867 80.4 112C80.4 112.133 80.2 112.4 79.8 112.8C79.5333 113.067 79.1333 113.2 78.6 113.2C77.6667 113.2 77 113.133 76.6 113C76.3333 112.733 76.0667 112.6 75.8 112.6C75.6667 112.6 75.4 112.667 75 112.8C74.6 112.8 74.4 113 74.4 113.4C74.4 113.533 74.7333 113.933 75.4 114.6C76.0667 115.133 76.8667 115.4 77.8 115.4C79.8 115.4 81.1333 115.267 81.8 115C82.6 114.733 83.2667 114.6 83.8 114.6C83.9333 114.6 84.2 114.667 84.6 114.8C85 114.933 85.2667 115.133 85.4 115.4C85.8 115.8 86.2 116.067 86.6 116.2C87.1333 116.333 87.6 116.4 88 116.4ZM126.4 115.6C125.067 115.6 124 116.4 123.2 118C122.533 119.467 122.2 120.733 122.2 121.8C122.2 123.533 122.467 125.067 123 126.4C123.533 127.6 123.933 128.2 124.2 128.2C124.333 128.2 124.6 127.467 125 126C125.533 124.533 125.933 123.2 126.2 122C126.333 121.2 126.533 120.133 126.8 118.8C127.067 117.467 127.2 116.667 127.2 116.4C127.2 116.133 127.133 115.933 127 115.8C126.867 115.667 126.667 115.6 126.4 115.6Z" fill="black"/>
</svg>
