<svg width="52" height="52" viewBox="0 0 52 52" fill="none" xmlns="http://www.w3.org/2000/svg">
<path d="M33.5484 50.3226V44.3251C33.5484 43.97 33.6213 43.6264 33.7654 43.3033L36.5416 37.0568C36.7808 36.5175 36.9032 35.9437 36.9032 35.3523V33.5484H47.8064V4.19355H41.9355V0H32.7097C29.7918 0 27.2564 1.6639 26 4.09199C24.7436 1.6639 22.2082 0 19.2903 0H10.0645V4.19355H4.19355V33.5484H15.0968V35.1955C15.0968 35.9068 15.2794 36.6104 15.6242 37.2321L18.9742 43.2607C19.1806 43.6321 19.2903 44.0548 19.2903 44.4819V50.3226H0V52H52V50.3226H33.5484ZM46.129 5.87097V31.871H28.5161V32.7097C28.5161 34.0967 27.3871 35.2258 26 35.2258C25.8952 35.2258 25.7936 35.2 25.6896 35.1865C25.2461 33.3236 24.3226 31.6101 22.974 30.1935H41.9355V5.87097H46.129ZM11.7419 1.67742H19.2903C22.5268 1.67742 25.1613 4.31108 25.1613 7.54839V14.2581H26.8387V7.54839C26.8387 4.31108 29.4732 1.67742 32.7097 1.67742H40.2581V28.5161H26.8387V15.9355H25.1613V28.5161H21.8065V24.3226C21.8065 21.5472 19.5496 19.2903 16.7742 19.2903C15.8491 19.2903 15.0968 20.0426 15.0968 20.9677V28.5161H11.7419V1.67742ZM5.87097 31.871V5.87097H10.0645V30.1935H15.0968V31.871H5.87097ZM17.0903 36.4175C16.8839 36.0453 16.7742 35.6226 16.7742 35.1955V20.9677C18.6244 20.9677 20.129 22.4723 20.129 24.3226V29.7021L21.6033 31.1764C23.3573 32.9304 24.3226 35.2618 24.3226 37.7419H26C26 37.4594 25.9799 37.1801 25.959 36.9008C25.973 36.9008 25.9865 36.9032 26 36.9032C28.0255 36.9032 29.7197 35.4596 30.1088 33.5484H35.2258V35.3523C35.2258 35.7074 35.1529 36.051 35.0088 36.3741L32.2326 42.6206C32.0909 42.9392 32.0037 43.2734 31.9447 43.6129H20.8686C20.7822 43.2062 20.643 42.8111 20.4403 42.4453L17.0903 36.4175ZM20.9677 48.6452H28.5161V46.9677H20.9677V45.2903H31.871V46.9677H30.1935V48.6452H31.871V50.3226H20.9677V48.6452Z" fill="#FECC2F"/>
</svg>
