<svg width="53" height="53" viewBox="0 0 53 53" fill="none" xmlns="http://www.w3.org/2000/svg">
<path d="M1.8161 24.7457H7.54934L9.60755 28.8623C9.75076 29.1488 10.0436 29.3299 10.364 29.3299C10.6844 29.3299 10.9772 29.1489 11.1204 28.8623L13.1787 24.7457H13.5987C14.0658 24.7457 14.4444 24.3671 14.4444 23.9C14.4444 23.4328 14.0658 23.0542 13.5987 23.0542H12.6561C12.3357 23.0542 12.0428 23.2351 11.8996 23.5217L10.364 26.5929L8.82845 23.5217C8.68524 23.2353 8.39238 23.0542 8.07201 23.0542H1.8161C1.74742 23.0542 1.69149 22.9984 1.69149 22.9297V1.8161C1.69149 1.74742 1.74742 1.69149 1.8161 1.69149H18.9119C18.9807 1.69149 19.0366 1.74742 19.0366 1.8161V10.9846C19.0366 11.4518 19.4153 11.8304 19.8823 11.8304C20.3494 11.8304 20.7281 11.4518 20.7281 10.9846V1.8161C20.7281 0.814734 19.9133 0 18.9119 0H1.8161C0.814734 0 0 0.814734 0 1.8161V22.9296C0 23.9311 0.814734 24.7457 1.8161 24.7457Z" fill="#FECC2F"/>
<path d="M10.3636 3.38306C8.03066 3.38306 6.13281 5.28091 6.13281 7.61381C6.13281 9.94671 8.03078 11.8447 10.3636 11.8447C12.6964 11.8447 14.5943 9.94671 14.5943 7.61381C14.5943 5.28091 12.6964 3.38306 10.3636 3.38306ZM10.3636 10.1531C8.96335 10.1531 7.8243 9.01391 7.8243 7.6137C7.8243 6.21371 8.96335 5.07455 10.3636 5.07455C11.7638 5.07455 12.9028 6.21371 12.9028 7.61381C12.9028 9.01402 11.7637 10.1531 10.3636 10.1531Z" fill="#FECC2F"/>
<path d="M10.3639 15.2275C11.3584 15.2275 12.3273 15.5048 13.1656 16.0293C13.5617 16.2771 14.0834 16.157 14.3312 15.761C14.5789 15.365 14.4588 14.8431 14.0629 14.5954C12.9552 13.9024 11.6761 13.5359 10.3639 13.5359C6.51444 13.536 3.38281 16.6677 3.38281 20.517C3.38281 20.9842 3.76148 21.3627 4.22856 21.3627H13.5985C14.0656 21.3627 14.4443 20.9842 14.4443 20.517C14.4443 20.0498 14.0656 19.6713 13.5985 19.6713H5.14185C5.54792 17.1553 7.73502 15.2275 10.3639 15.2275Z" fill="#FECC2F"/>
<path d="M51.1855 0H34.0896C33.0882 0 32.2734 0.814734 32.2734 1.8161V10.9846C32.2734 11.4518 32.652 11.8304 33.1192 11.8304C33.5864 11.8304 33.9649 11.4518 33.9649 10.9846V1.8161C33.9649 1.74742 34.0209 1.69149 34.0896 1.69149H51.1854C51.2541 1.69149 51.3099 1.74742 51.3099 1.8161V22.9296C51.3099 22.9983 51.2541 23.0541 51.1854 23.0541H44.9294C44.609 23.0541 44.3162 23.2351 44.173 23.5216L42.6374 26.5928L41.1018 23.5216C40.9584 23.2351 40.6657 23.0541 40.3453 23.0541H39.4028C38.9356 23.0541 38.5571 23.4327 38.5571 23.8998C38.5571 24.367 38.9356 24.7456 39.4028 24.7456H39.8228L41.8811 28.8622C42.0244 29.1488 42.3172 29.3297 42.6375 29.3297C42.9579 29.3297 43.2508 29.1488 43.394 28.8622L45.4523 24.7456H51.1855C52.1869 24.7456 53.0015 23.9309 53.0015 22.9296V1.8161C53.0015 0.814734 52.1868 0 51.1855 0Z" fill="#FECC2F"/>
<path d="M42.6371 3.38306C40.3042 3.38306 38.4062 5.28091 38.4062 7.61381C38.4062 9.94671 40.3042 11.8447 42.6371 11.8447C44.97 11.8447 46.8679 9.94671 46.8679 7.61381C46.8679 5.28091 44.9699 3.38306 42.6371 3.38306ZM42.6371 10.1531C41.2369 10.1531 40.0977 9.01391 40.0977 7.6137C40.0977 6.21359 41.2369 5.07443 42.6371 5.07443C44.0372 5.07443 45.1764 6.21359 45.1764 7.6137C45.1763 9.01402 44.0372 10.1531 42.6371 10.1531Z" fill="#FECC2F"/>
<path d="M38.5548 20.5171C38.5548 20.9843 38.9333 21.3629 39.4005 21.3629H48.7705C49.2377 21.3629 49.6162 20.9843 49.6162 20.5171C49.6162 16.6678 46.4846 13.5361 42.6352 13.5361C41.323 13.5361 40.044 13.9025 38.9363 14.5957C38.5403 14.8433 38.4202 15.3652 38.6679 15.7612C38.9157 16.1572 39.4373 16.2773 39.8335 16.0295C40.672 15.505 41.6406 15.2277 42.6352 15.2277C45.2641 15.2277 47.4511 17.1556 47.8573 19.6715H39.4006C38.9334 19.6714 38.5548 20.0501 38.5548 20.5171Z" fill="#FECC2F"/>
<path d="M16.1328 15.3372V36.4508C16.1328 37.4522 16.9475 38.2668 17.9489 38.2668H23.6822L25.7404 42.3835C25.8837 42.6699 26.1765 42.851 26.4968 42.851C26.8171 42.851 27.11 42.67 27.2532 42.3835L29.3116 38.2668H35.0447C36.0462 38.2668 36.8608 37.4521 36.8608 36.4508V15.3372C36.8608 14.3359 36.0461 13.5212 35.0447 13.5212H17.9489C16.9475 13.5211 16.1328 14.3359 16.1328 15.3372ZM35.1694 15.3372V36.4508C35.1694 36.5195 35.1135 36.5753 35.0448 36.5753H28.789C28.4686 36.5753 28.1758 36.7562 28.0326 37.0429L26.4969 40.1141L24.9614 37.0429C24.8182 36.7564 24.5253 36.5753 24.2049 36.5753H17.949C17.8803 36.5753 17.8244 36.5195 17.8244 36.4508V15.3372C17.8244 15.2685 17.8803 15.2127 17.949 15.2127H35.0448C35.1135 15.2126 35.1694 15.2684 35.1694 15.3372Z" fill="#FECC2F"/>
<path d="M26.5003 25.3657C28.8331 25.3657 30.731 23.4677 30.731 21.1348C30.731 18.8019 28.8332 16.9041 26.5003 16.9041C24.1674 16.9041 22.2695 18.8019 22.2695 21.1348C22.2695 23.4677 24.1674 25.3657 26.5003 25.3657ZM26.5003 18.5957C27.9004 18.5957 29.0395 19.7348 29.0395 21.1349C29.0395 22.5351 27.9004 23.6743 26.5003 23.6743C25.1001 23.6743 23.961 22.5351 23.961 21.1349C23.961 19.7348 25.1001 18.5957 26.5003 18.5957Z" fill="#FECC2F"/>
<path d="M20.3614 34.8841H32.632C33.0992 34.8841 33.4778 34.5056 33.4778 34.0384C33.4778 30.189 30.3461 27.0574 26.4967 27.0574C22.6474 27.0574 19.5156 30.189 19.5156 34.0384C19.5156 34.5055 19.8943 34.8841 20.3614 34.8841ZM26.4967 28.7488C29.1256 28.7488 31.3126 30.6766 31.7188 33.1925H21.2748C21.6807 30.6766 23.8678 28.7488 26.4967 28.7488Z" fill="#FECC2F"/>
<path d="M43.0193 49.6734C43.5167 49.6734 43.9214 49.2687 43.9214 48.7713C43.9214 48.2739 43.5167 47.8691 43.0193 47.8691C42.5219 47.8691 42.1172 48.2739 42.1172 48.7713C42.1172 49.2687 42.5219 49.6734 43.0193 49.6734Z" fill="#FECC2F"/>
<path d="M38.3982 49.6734C38.8956 49.6734 39.3004 49.2687 39.3004 48.7713C39.3004 48.2739 38.8956 47.8691 38.3982 47.8691C37.9008 47.8691 37.4961 48.2739 37.4961 48.7713C37.4961 49.2687 37.9008 49.6734 38.3982 49.6734Z" fill="#FECC2F"/>
<path d="M47.6443 49.6734C48.1417 49.6734 48.5464 49.2687 48.5464 48.7713C48.5464 48.2739 48.1417 47.8691 47.6443 47.8691C47.1469 47.8691 46.7422 48.2739 46.7422 48.7713C46.7422 49.2687 47.1469 49.6734 47.6443 49.6734Z" fill="#FECC2F"/>
<path d="M52.1543 44.5425H0.845745C0.378668 44.5425 0 44.921 0 45.3882V52.1542C0 52.6214 0.378668 52.9999 0.845745 52.9999H52.1543C52.6214 52.9999 53 52.6214 53 52.1542V45.3882C53 44.921 52.6214 44.5425 52.1543 44.5425ZM1.69149 46.234H32.984V51.3084H1.69149V46.234ZM51.3085 51.3084H34.6755V46.234H51.3085V51.3084Z" fill="#FECC2F"/>
</svg>
