<svg width="49" height="49" viewBox="0 0 49 49" fill="none" xmlns="http://www.w3.org/2000/svg">
<path d="M48.2822 0H0.717773C0.321129 0 0 0.321129 0 0.717773V30.5932C0 30.9895 0.321129 31.311 0.717773 31.311C1.11442 31.311 1.43555 30.9895 1.43555 30.5932V9.0918H23.7822V35.1679H21.9571C20.7526 35.1679 19.6453 35.7952 19.0191 36.7979H11.2634C10.7793 36.7979 10.3146 36.8827 9.88284 37.0371H1.43555V33.6875C1.43555 33.2909 1.11442 32.9697 0.717773 32.9697C0.321129 32.9697 0 33.2909 0 33.6875V37.7549C0 38.1515 0.321129 38.4727 0.717773 38.4727H7.94934C7.43494 39.1658 7.12988 40.0248 7.12988 40.9542C7.12988 41.7389 7.76616 42.3774 8.54823 42.3774H20.4068C22.0001 42.3774 23.5781 42.7879 24.9707 43.5644C25.7729 44.0111 26.629 44.3547 27.5161 44.5849C28.4033 44.8156 29.3177 44.9326 30.2336 44.9326H30.3259L32.3364 48.6254C32.4621 48.8564 32.7039 49 32.9667 49H39.8443C40.2409 49 40.562 48.6789 40.562 48.2822C40.562 47.8856 40.2409 47.5645 39.8443 47.5645H33.3933L31.8546 44.7382L41.3796 42.9475C41.3834 42.9468 41.3875 42.946 41.3912 42.9453L42.1008 42.8118L44.9349 47.5645H42.875C42.4784 47.5645 42.1572 47.8856 42.1572 48.2822C42.1572 48.6789 42.4784 49 42.875 49H46.1988C46.4571 49 46.6953 48.8613 46.8228 48.6366C46.9506 48.4119 46.9476 48.1364 46.8153 47.9144L43.0769 41.6458C42.9229 41.3875 42.6234 41.2525 42.3277 41.3082L41.8828 41.392C41.7019 40.2992 41.3086 39.3123 40.7202 38.4727H48.2822C48.6789 38.4727 49 38.1515 49 37.7549V12.2261C49 11.8294 48.6789 11.5083 48.2822 11.5083C47.8856 11.5083 47.5645 11.8294 47.5645 12.2261V37.0371H39.3411C37.7235 35.7963 35.4259 35.1679 32.4931 35.1679H25.2178V9.0918H47.5645V9.1875C47.5645 9.58414 47.8856 9.90527 48.2822 9.90527C48.6789 9.90527 49 9.58414 49 9.1875V0.717773C49 0.321129 48.6789 0 48.2822 0ZM38.6136 38.2891C38.6263 38.3003 38.639 38.3112 38.6525 38.3216C39.7803 39.2663 40.2884 40.482 40.4742 41.6567L30.6852 43.4971H30.2336C29.4396 43.4971 28.6466 43.3958 27.8769 43.1958C27.1079 42.9958 26.3651 42.6982 25.6697 42.3105C24.0645 41.4152 22.2442 40.9419 20.4068 40.9419H8.56543C8.57216 39.4473 9.77966 38.2334 11.2634 38.2334H18.5152C18.5002 38.3654 18.4916 38.4988 18.4916 38.6334C18.4916 38.9557 18.615 39.2615 18.8416 39.4977C19.0677 39.731 19.3724 39.8648 19.698 39.8734C23.6574 39.9818 26.7457 40.3777 27.567 40.8836C27.9431 41.1146 28.4063 41.4712 28.81 41.7897C29.121 42.035 29.5723 41.9823 29.8179 41.6705C30.0635 41.3595 30.0104 40.9082 29.699 40.6626C29.2407 40.3011 28.7562 39.9295 28.3188 39.6607C26.8948 38.7841 22.5426 38.5224 19.9358 38.4442C19.9563 38.2244 20.0124 38.0113 20.1036 37.8076C20.4293 37.0764 21.1567 36.6038 21.9571 36.6038H32.4931C35.4786 36.6035 37.3986 37.2909 38.6136 38.2891ZM1.43555 7.65625V1.43555H47.5645V7.65625H1.43555Z" fill="#FECC2F"/>
<path d="M5.12207 2.34473C3.93475 2.34473 2.96875 3.31073 2.96875 4.49805C2.96875 5.68536 3.93475 6.65137 5.12207 6.65137C6.30939 6.65137 7.27539 5.68536 7.27539 4.49805C7.27539 3.31073 6.30939 2.34473 5.12207 2.34473ZM5.12207 5.21582C4.72617 5.21582 4.4043 4.89394 4.4043 4.49805C4.4043 4.10215 4.72617 3.78027 5.12207 3.78027C5.51797 3.78027 5.83984 4.10215 5.83984 4.49805C5.83984 4.89394 5.51797 5.21582 5.12207 5.21582Z" fill="#FECC2F"/>
<path d="M10.8643 2.34473C9.67694 2.34473 8.71094 3.31073 8.71094 4.49805C8.71094 5.68536 9.67694 6.65137 10.8643 6.65137C12.0516 6.65137 13.0176 5.68536 13.0176 4.49805C13.0176 3.31073 12.0516 2.34473 10.8643 2.34473ZM10.8643 5.21582C10.4684 5.21582 10.1465 4.89394 10.1465 4.49805C10.1465 4.10215 10.4684 3.78027 10.8643 3.78027C11.2602 3.78027 11.582 4.10215 11.582 4.49805C11.582 4.89394 11.2602 5.21582 10.8643 5.21582Z" fill="#FECC2F"/>
<path d="M16.6064 2.34473C15.4191 2.34473 14.4531 3.31073 14.4531 4.49805C14.4531 5.68536 15.4191 6.65137 16.6064 6.65137C17.7938 6.65137 18.7598 5.68536 18.7598 4.49805C18.7598 3.31073 17.7938 2.34473 16.6064 2.34473ZM16.6064 5.21582C16.2105 5.21582 15.8887 4.89394 15.8887 4.49805C15.8887 4.10215 16.2105 3.78027 16.6064 3.78027C17.0023 3.78027 17.3242 4.10215 17.3242 4.49805C17.3242 4.89394 17.0023 5.21582 16.6064 5.21582Z" fill="#FECC2F"/>
<path d="M44.5889 21.5737H28.1279C27.7313 21.5737 27.4102 21.8949 27.4102 22.2915C27.4102 22.6881 27.7313 23.0093 28.1279 23.0093H44.5889C44.9851 23.0093 45.3066 22.6881 45.3066 22.2915C45.3066 21.8949 44.9851 21.5737 44.5889 21.5737Z" fill="#FECC2F"/>
<path d="M28.1279 18.957H36.3584C36.7547 18.957 37.0762 18.6359 37.0762 18.2393C37.0762 17.843 36.7547 17.5215 36.3584 17.5215H28.1279C27.7313 17.5215 27.4102 17.843 27.4102 18.2393C27.4102 18.6359 27.7313 18.957 28.1279 18.957Z" fill="#FECC2F"/>
<path d="M44.5889 25.0029H28.1279C27.7313 25.0029 27.4102 25.3244 27.4102 25.7207C27.4102 26.1173 27.7313 26.4385 28.1279 26.4385H44.5889C44.9851 26.4385 45.3066 26.1173 45.3066 25.7207C45.3066 25.3244 44.9851 25.0029 44.5889 25.0029Z" fill="#FECC2F"/>
<path d="M44.5889 28.4316H28.1279C27.7313 28.4316 27.4102 28.7531 27.4102 29.1494C27.4102 29.5461 27.7313 29.8672 28.1279 29.8672H44.5889C44.9851 29.8672 45.3066 29.5461 45.3066 29.1494C45.3066 28.7531 44.9851 28.4316 44.5889 28.4316Z" fill="#FECC2F"/>
<path d="M5 29.0541V29.0639C5 30.8112 6.42134 32.2325 8.16867 32.2325H17.0481C18.7951 32.2325 20.2168 30.8112 20.2168 29.0639V29.0541C20.2168 25.878 18.2597 23.1512 15.4885 22.0136C16.9027 21.0764 17.8377 19.4715 17.8377 17.6516C17.8377 14.7682 15.4918 12.4224 12.608 12.4224C9.72459 12.4224 7.37875 14.7682 7.37875 17.6516C7.37875 19.4715 8.31372 21.0764 9.72796 22.0136C6.95705 23.1512 5 25.8776 5 29.0541ZM8.81429 17.6516C8.81429 15.5596 10.5164 13.8575 12.6084 13.8575C14.7004 13.8575 16.4025 15.5596 16.4025 17.6516C16.4025 19.7437 14.7004 21.4457 12.6084 21.4457C10.5164 21.4457 8.81429 19.7437 8.81429 17.6516ZM12.6084 22.8813C16.0118 22.8813 18.7812 25.6503 18.7812 29.0541V29.0639C18.7812 30.0198 18.0037 30.797 17.0481 30.797H8.16867C7.21313 30.797 6.43555 30.0198 6.43555 29.0639V29.0541C6.43555 25.6503 9.20458 22.8813 12.6084 22.8813Z" fill="#FECC2F"/>
<path d="M15.2826 18.6643C15.0916 18.317 14.655 18.1903 14.3077 18.3817C14.2998 18.3858 13.5125 18.8053 12.6097 18.8053C11.708 18.8053 10.9207 18.3866 10.9095 18.3806C10.5622 18.1911 10.1274 18.3178 9.93672 18.6643C9.74569 19.0116 9.87204 19.4479 10.2193 19.6393C10.2638 19.664 11.327 20.2408 12.6097 20.2408C13.8919 20.2408 14.9552 19.664 15 19.6393C15.3469 19.4483 15.4737 19.0116 15.2826 18.6643Z" fill="#FECC2F"/>
<path d="M12.0506 16.4191C12.0506 16.7585 11.7751 17.034 11.4353 17.034C11.0958 17.034 10.8203 16.7585 10.8203 16.4191C10.8203 16.0792 11.0958 15.8037 11.4353 15.8037C11.7751 15.8037 12.0506 16.0792 12.0506 16.4191Z" fill="#FECC2F"/>
<path d="M14.3983 16.4191C14.3983 16.7589 14.1228 17.034 13.7829 17.034C13.4431 17.034 13.168 16.7589 13.168 16.4191C13.168 16.0792 13.4431 15.8037 13.7829 15.8037C14.1228 15.8037 14.3983 16.0792 14.3983 16.4191Z" fill="#FECC2F"/>
</svg>
