<svg width="52" height="52" viewBox="0 0 52 52" fill="none" xmlns="http://www.w3.org/2000/svg">
<path d="M35.1406 0C34.5798 0 34.125 0.454797 34.125 1.01562V5.6875C34.125 6.24833 34.5798 6.70312 35.1406 6.70312C35.7015 6.70312 36.1562 6.24833 36.1562 5.6875V1.01562C36.1562 0.454797 35.7015 0 35.1406 0Z" fill="#FECC2F"/>
<path d="M11.7812 31.6875C11.2206 31.6875 10.7656 32.1424 10.7656 32.703C10.7656 33.2635 11.2206 33.7185 11.7812 33.7185C12.3419 33.7185 12.7969 33.2635 12.7969 32.703C12.7969 32.1424 12.3419 31.6875 11.7812 31.6875Z" fill="#FECC2F"/>
<path d="M49.3594 29.6562C49.3594 27.4162 47.5369 25.5938 45.2969 25.5938H37.715C38.8888 22.5872 39.3639 19.0484 39.2723 15.8982C39.2548 15.297 39.2318 14.9494 39.2006 14.7305C39.1481 12.5361 37.3462 10.7656 35.1406 10.7656C32.9006 10.7656 31.0781 12.5881 31.0781 14.8281V15.8438C31.0781 22.2672 22.8298 25.8762 16.6051 27.4238C16.1344 26.3479 15.0601 25.5938 13.8125 25.5938H3.65625C3.09542 25.5938 2.64062 26.0485 2.64062 26.6094V50.9844C2.64062 51.5452 3.09542 52 3.65625 52H13.8125C15.0518 52 16.1199 51.2559 16.5954 50.1913C17.1108 50.3235 17.5893 50.4484 18.031 50.5638C21.5771 51.49 23.5304 52 28.2811 52H39.2031C41.4432 52 43.2656 50.1776 43.2656 47.9375C43.2656 47.1022 43.012 46.3253 42.5781 45.679C44.147 45.1302 45.2969 43.6311 45.2969 41.8438C45.2969 41.0115 45.0495 40.2321 44.6168 39.5828C46.1788 39.0331 47.3281 37.5375 47.3281 35.75C47.3281 34.9147 47.0745 34.1378 46.6406 33.4915C48.2095 32.9427 49.3594 31.4436 49.3594 29.6562ZM14.8281 48.9531C14.8281 49.5131 14.3725 49.9688 13.8125 49.9688H4.67188V27.625H13.8125C14.3725 27.625 14.8281 28.0806 14.8281 28.6406V48.9531ZM45.2969 31.6875C43.1185 31.6875 42.5992 31.6875 40.2188 31.6875C39.6579 31.6875 39.2031 32.1423 39.2031 32.7031C39.2031 33.264 39.6579 33.7188 40.2188 33.7188H43.2656C44.3857 33.7188 45.2969 34.63 45.2969 35.75C45.2969 36.8719 44.3875 37.7812 43.2656 37.7812H38.1875C37.6267 37.7812 37.1719 38.236 37.1719 38.7969C37.1719 39.3577 37.6267 39.8125 38.1875 39.8125H41.2344C42.3411 39.8125 43.2656 40.6966 43.2656 41.8438C43.2656 42.9656 42.3562 43.875 41.2344 43.875C39.056 43.875 38.5367 43.875 36.1563 43.875C35.5954 43.875 35.1406 44.3298 35.1406 44.8906C35.1406 45.4515 35.5954 45.9062 36.1563 45.9062H39.2031C40.3232 45.9062 41.2344 46.8175 41.2344 47.9375C41.2344 49.0575 40.3232 49.9688 39.2031 49.9688H28.2811C23.7913 49.9688 22.0377 49.5108 18.5443 48.5985C18.0325 48.4648 17.4712 48.3183 16.8594 48.1623V29.4557C24.2093 27.7049 33.1094 23.4316 33.1094 15.8438V14.8281C33.1094 13.7081 34.0206 12.7969 35.1406 12.7969C36.2586 12.7969 37.1697 13.7067 37.1719 14.825V14.8281C37.1719 15.2695 37.7228 20.6866 35.5138 25.5938H32.0938C31.5329 25.5938 31.0781 26.0485 31.0781 26.6094C31.0781 27.1702 31.5329 27.625 32.0938 27.625C32.803 27.625 44.1393 27.625 45.2969 27.625C46.4169 27.625 47.3281 28.5362 47.3281 29.6562C47.3281 30.7781 46.4187 31.6875 45.2969 31.6875Z" fill="#FECC2F"/>
<path d="M11.7812 35.75C11.2204 35.75 10.7656 36.2048 10.7656 36.7656V44.8906C10.7656 45.4515 11.2204 45.9063 11.7812 45.9063C12.3421 45.9063 12.7969 45.4515 12.7969 44.8906V36.7656C12.7969 36.2048 12.3421 35.75 11.7812 35.75Z" fill="#FECC2F"/>
<path d="M27.0156 12.7969H22.9531C22.3923 12.7969 21.9375 13.2516 21.9375 13.8124C21.9375 14.3731 22.3923 14.8279 22.9531 14.8279H27.0156C27.5765 14.8279 28.0312 14.3731 28.0312 13.8124C28.0312 13.2516 27.5765 12.7969 27.0156 12.7969Z" fill="#FECC2F"/>
<path d="M47.3281 12.7969H43.2656C42.7048 12.7969 42.25 13.2516 42.25 13.8124C42.25 14.3731 42.7048 14.8279 43.2656 14.8279H47.3281C47.8889 14.8279 48.3437 14.3731 48.3437 13.8124C48.3437 13.2516 47.8889 12.7969 47.3281 12.7969Z" fill="#FECC2F"/>
<path d="M44.477 4.47605C44.0803 4.0796 43.4374 4.0796 43.0406 4.47605L40.1685 7.34774C39.7719 7.74429 39.7719 8.3873 40.1685 8.78395C40.5654 9.18049 41.2081 9.18039 41.6049 8.78395L44.477 5.91225C44.8736 5.5157 44.8736 4.8727 44.477 4.47605Z" fill="#FECC2F"/>
<path d="M30.1137 7.34774L27.2417 4.47605C26.845 4.0796 26.2021 4.0796 25.8053 4.47605C25.4087 4.87259 25.4087 5.5156 25.8053 5.91225L28.6773 8.78395C29.0743 9.18049 29.717 9.18039 30.1137 8.78395C30.5103 8.3874 30.5103 7.74439 30.1137 7.34774Z" fill="#FECC2F"/>
</svg>
