<svg width="60" height="64" viewBox="0 0 60 64" fill="none" xmlns="http://www.w3.org/2000/svg">
<path d="M59.44 62.96C59.44 63.1733 59.4133 63.3333 59.36 63.44C59.3067 63.6 59.2 63.68 59.04 63.68C58.9867 63.68 58.5867 63.6533 57.84 63.6C57.0933 63.6 56.72 63.6 56.72 63.6C56.5067 63.6 56.32 63.5467 56.16 63.44C56.0533 63.3867 56 63.3067 56 63.2C56 63.1467 55.8933 62.6933 55.68 61.84C55.4667 60.9867 55.2267 60.0267 54.96 58.96C54.6933 57.84 54.4267 56.7467 54.16 55.68C53.8933 54.56 53.7067 53.7333 53.6 53.2C53.3867 52.1333 53.12 50.9067 52.8 49.52C52.48 48.1333 52.32 47.1733 52.32 46.64C52.32 46.1067 52.3733 45.7067 52.48 45.44C52.5867 45.1733 52.64 44.96 52.64 44.8C52.64 44.6933 52.5867 44.6133 52.48 44.56C52.3733 44.5067 52.2133 44.48 52 44.48C51.9467 44.48 51.76 44.5333 51.44 44.64C51.1733 44.6933 50.88 44.7733 50.56 44.88C50.1867 45.04 49.8667 45.2 49.6 45.36C49.3333 45.52 49.1467 45.6 49.04 45.6C48.9333 45.6 48.8533 45.6 48.8 45.6C48.8 45.5467 48.8 45.4933 48.8 45.44C48.8 45.3333 48.8533 45.2533 48.96 45.2C49.0667 45.1467 49.1733 45.0933 49.28 45.04C49.3333 44.9867 49.44 44.9333 49.6 44.88C49.76 44.7733 49.84 44.6933 49.84 44.64C49.84 44.5867 49.7867 44.56 49.68 44.56C49.6267 44.56 49.5733 44.56 49.52 44.56C49.4667 44.56 49.28 44.5867 48.96 44.64C48.64 44.64 48.32 44.64 48 44.64C47.68 44.64 47.12 44.6133 46.32 44.56C45.52 44.4533 44.9333 44.32 44.56 44.16C44.1867 44 43.9467 43.8933 43.84 43.84C43.7867 43.7333 43.76 43.6533 43.76 43.6C43.76 43.5467 43.7867 43.52 43.84 43.52C43.9467 43.52 44.0267 43.52 44.08 43.52C44.4 43.52 44.9067 43.6267 45.6 43.84C46.3467 44.0533 47.04 44.16 47.68 44.16C48.8533 44.16 49.8667 44.08 50.72 43.92C51.5733 43.7067 52 43.5467 52 43.44C52 43.3867 51.9733 43.36 51.92 43.36C51.8667 43.3067 51.7867 43.28 51.68 43.28C51.5733 43.28 51.1467 43.3067 50.4 43.36C49.6533 43.36 49.0933 43.36 48.72 43.36C48.56 43.36 48.2667 43.36 47.84 43.36C47.4133 43.36 46.9867 43.3333 46.56 43.28C46.1867 43.2267 45.84 43.1467 45.52 43.04C45.2 42.9333 45.04 42.7733 45.04 42.56C45.04 42.56 45.12 42.5333 45.28 42.48C45.44 42.4267 45.9467 42.3733 46.8 42.32C47.7067 42.2667 48.3733 42.1067 48.8 41.84C49.2267 41.5733 49.44 41.4133 49.44 41.36C49.44 41.2533 49.1733 41.0933 48.64 40.88C48.16 40.6133 47.92 40.3733 47.92 40.16C47.92 40.1067 47.92 40.08 47.92 40.08C47.9733 40.0267 48.0267 40 48.08 40C48.1333 40 48.2933 40.08 48.56 40.24C48.88 40.3467 49.1733 40.4 49.44 40.4C49.6533 40.4 49.8933 40.3733 50.16 40.32C50.4267 40.2667 50.64 40.16 50.8 40C50.96 39.7867 51.04 39.6533 51.04 39.6C51.0933 39.4933 51.12 39.44 51.12 39.44C51.12 39.3867 51.0933 39.36 51.04 39.36C50.9867 39.3067 50.9333 39.28 50.88 39.28C50.88 39.28 50.8267 39.3067 50.72 39.36C50.6667 39.4133 50.56 39.44 50.4 39.44C50.24 39.44 50 39.4133 49.68 39.36C49.4133 39.3067 49.1733 39.2533 48.96 39.2C48.7467 39.1467 48.5867 39.0667 48.48 38.96C48.3733 38.8 48.2133 38.6667 48 38.56C47.84 38.5067 47.68 38.4533 47.52 38.4C47.4133 38.2933 47.36 38.2133 47.36 38.16C47.36 38.1067 47.3867 38.0533 47.44 38C47.5467 37.9467 47.6267 37.92 47.68 37.92C47.7333 37.92 47.8667 37.9733 48.08 38.08C48.2933 38.1333 48.5333 38.16 48.8 38.16C49.0133 38.16 49.2267 38.08 49.44 37.92C49.6533 37.76 49.7867 37.5467 49.84 37.28C50.0533 36.64 50.24 35.9467 50.4 35.2C50.6133 34.4 50.7467 33.5733 50.8 32.72C50.8533 32.5067 50.9067 32.2133 50.96 31.84C51.0667 31.4667 51.1467 31.2267 51.2 31.12C51.2533 30.9067 51.3867 30.6933 51.6 30.48C51.8133 30.2133 51.92 29.9733 51.92 29.76C51.92 29.4933 51.8933 29.1467 51.84 28.72C51.7867 28.2933 51.6533 27.9467 51.44 27.68C51.2267 27.36 50.96 27.0933 50.64 26.88C50.32 26.6667 49.9733 26.4533 49.6 26.24C49.2267 26.08 48.8267 25.8133 48.4 25.44C47.9733 25.0667 47.6267 24.7467 47.36 24.48C46.7733 23.9467 46.1867 23.3067 45.6 22.56C45.0133 21.8133 44.56 21.2267 44.24 20.8C43.8667 20.2667 43.52 19.8933 43.2 19.68C42.88 19.4133 42.48 19.1733 42 18.96C40.88 18.4267 40.08 17.9467 39.6 17.52C39.12 17.0933 38.48 16.6667 37.68 16.24C37.3067 16.0267 36.9333 15.84 36.56 15.68C36.24 15.4667 36.0267 15.36 35.92 15.36C35.8667 15.36 35.7867 15.3867 35.68 15.44C35.6267 15.4933 35.5467 15.5733 35.44 15.68C35.28 15.84 35.0667 16.08 34.8 16.4C34.5867 16.72 34.3733 16.88 34.16 16.88C33.9467 16.88 33.7333 16.8533 33.52 16.8C33.36 16.7467 33.1733 16.64 32.96 16.48C32.7467 16.32 32.6133 16.2133 32.56 16.16C32.56 16.1067 32.5333 16.08 32.48 16.08C32.4267 16.08 32.4 16.1067 32.4 16.16C32.4 16.2133 32.4 16.2667 32.4 16.32C32.4 16.3733 32.4533 16.5333 32.56 16.8C32.72 17.0133 32.96 17.3067 33.28 17.68C33.4933 17.9467 33.7867 18.2667 34.16 18.64C34.5333 18.96 34.8267 19.1733 35.04 19.28C35.2533 19.3867 35.52 19.52 35.84 19.68C36.16 19.7867 36.3733 19.8667 36.48 19.92C36.7467 20.1867 37.1467 20.56 37.68 21.04C38.2667 21.4667 38.8267 21.9467 39.36 22.48C39.6267 22.8533 39.9467 23.2 40.32 23.52C40.6933 23.84 40.9333 24.0533 41.04 24.16C41.0933 24.3733 41.28 24.6667 41.6 25.04C41.9733 25.36 42.3733 25.76 42.8 26.24C43.2267 26.72 43.5467 27.04 43.76 27.2C43.9733 27.3067 44.1067 27.44 44.16 27.6C44.2133 27.7067 44.32 27.84 44.48 28C44.64 28.1067 44.8267 28.2133 45.04 28.32C45.3067 28.4267 45.4933 28.5067 45.6 28.56C45.7067 28.56 45.76 28.56 45.76 28.56C45.8133 28.56 45.8667 28.5867 45.92 28.64C46.0267 28.64 46.08 28.6667 46.08 28.72C46.08 28.7733 46.0267 28.8267 45.92 28.88C45.8667 28.88 45.8133 28.88 45.76 28.88C45.7067 28.88 45.5467 28.8533 45.28 28.8C45.0133 28.7467 44.8533 28.72 44.8 28.72C44.7467 28.72 44.6667 28.7467 44.56 28.8C44.5067 28.8533 44.48 28.96 44.48 29.12C44.48 29.1733 44.5333 29.28 44.64 29.44C44.8 29.6 44.9867 29.7333 45.2 29.84C45.4133 29.9467 45.6267 30.08 45.84 30.24C46.0533 30.3467 46.16 30.4267 46.16 30.48C46.16 30.5333 46.1333 30.5867 46.08 30.64C46.0267 30.64 45.9733 30.64 45.92 30.64C45.8667 30.64 45.7067 30.56 45.44 30.4C45.2267 30.24 45.04 30.1333 44.88 30.08C44.8267 30.0267 44.7467 29.9733 44.64 29.92C44.5333 29.8133 44.3467 29.76 44.08 29.76C43.8667 29.76 43.6267 29.8667 43.36 30.08C43.1467 30.2933 42.96 30.6133 42.8 31.04C42.64 31.4133 42.48 31.84 42.32 32.32C42.16 32.8 42 33.3867 41.84 34.08C41.68 34.8267 41.52 35.7067 41.36 36.72C41.2 37.7333 41.12 38.6133 41.12 39.36C41.12 39.5733 41.1467 39.9467 41.2 40.48C41.2533 40.96 41.3067 41.4667 41.36 42C41.4133 42.5333 41.4933 43.0667 41.6 43.6C41.76 44.08 41.92 44.4 42.08 44.56C42.1867 44.72 42.3733 44.9333 42.64 45.2C42.96 45.4667 43.1467 45.68 43.2 45.84C43.2533 46.0533 43.3067 46.48 43.36 47.12C43.4667 47.76 43.52 48.32 43.52 48.8C43.52 49.0133 43.5733 49.8933 43.68 51.44C43.7867 52.9333 43.8933 54.56 44 56.32C44.16 58.0267 44.2933 59.6 44.4 61.04C44.5067 62.48 44.56 63.2267 44.56 63.28C44.56 63.3333 44.5333 63.3867 44.48 63.44C44.4267 63.5467 44.3733 63.6 44.32 63.6C44.2667 63.6 44.2133 63.5733 44.16 63.52C44.1067 63.4667 44.08 63.4133 44.08 63.36C44.08 63.0933 44.0267 62.64 43.92 62C43.8667 61.3067 43.7867 60.6133 43.68 59.92C43.6267 59.2267 43.5467 58.5867 43.44 58C43.3867 57.36 43.3333 56.9333 43.28 56.72C43.2267 56.3467 43.1733 56 43.12 55.68C43.0667 55.36 43.04 55.0933 43.04 54.88C43.04 54.6667 43.0133 54.48 42.96 54.32C42.96 54.1067 42.88 54 42.72 54C42.4533 54 42.2933 54.1333 42.24 54.4C42.24 54.6133 42.1333 54.8267 41.92 55.04C41.8133 55.1467 41.7333 55.2533 41.68 55.36C41.68 55.4667 41.68 55.5733 41.68 55.68C41.68 55.7867 41.6533 55.92 41.6 56.08C41.6 56.1867 41.5733 56.2933 41.52 56.4C41.4667 56.4533 41.44 56.5067 41.44 56.56C41.44 56.6133 41.44 56.64 41.44 56.64C41.44 56.6933 41.4133 56.7467 41.36 56.8C41.3067 56.8533 41.2533 56.88 41.2 56.88C41.1467 56.9333 41.0933 57.0133 41.04 57.12C40.9867 57.2267 40.96 57.3067 40.96 57.36C40.9067 57.4133 40.8267 57.4933 40.72 57.6C40.6667 57.6533 40.6133 57.7333 40.56 57.84C40.5067 57.8933 40.4533 57.9733 40.4 58.08C40.3467 58.1333 40.32 58.1867 40.32 58.24C40.32 58.2933 40.2933 58.3733 40.24 58.48C40.1867 58.5333 40.1067 58.5867 40 58.64C39.9467 58.6933 39.8933 58.7467 39.84 58.8C39.7867 58.8533 39.76 58.88 39.76 58.88C39.76 58.9333 39.7333 58.9867 39.68 59.04C39.68 59.0933 39.6533 59.12 39.6 59.12C39.5467 59.12 39.4667 59.1467 39.36 59.2C39.2533 59.2533 39.1733 59.3067 39.12 59.36C39.0667 59.4133 39.0133 59.4933 38.96 59.6C38.96 59.7067 38.88 59.7867 38.72 59.84C38.6133 59.8933 38.5333 59.9467 38.48 60C38.4267 60.0533 38.3733 60.1067 38.32 60.16C38.2667 60.2133 38.2133 60.2667 38.16 60.32C38.1067 60.3733 38.0267 60.4267 37.92 60.48C37.76 60.5333 37.5733 60.6133 37.36 60.72C37.2 60.8267 37.0667 60.9067 36.96 60.96C36.7467 61.1733 36.56 61.3067 36.4 61.36C36.24 61.36 36.1067 61.3867 36 61.44C35.9467 61.4933 35.8933 61.5467 35.84 61.6C35.7867 61.6533 35.7333 61.68 35.68 61.68C35.6267 61.68 35.5467 61.7067 35.44 61.76C35.3867 61.8133 35.3333 61.8667 35.28 61.92C35.1733 61.9733 35.04 62 34.88 62C34.72 62 34.5867 62 34.48 62C34.3733 62.0533 34.24 62.1067 34.08 62.16C33.9733 62.2133 33.92 62.2667 33.92 62.32C33.8667 62.3733 33.7867 62.4267 33.68 62.48C33.6267 62.5333 33.5467 62.56 33.44 62.56C33.3333 62.56 33.2267 62.56 33.12 62.56C33.0133 62.56 32.9333 62.5867 32.88 62.64C32.8267 62.6933 32.7467 62.72 32.64 62.72C32.5867 62.7733 32.4533 62.8 32.24 62.8C31.8667 62.8 31.6267 62.8267 31.52 62.88C31.4133 62.9867 31.3333 63.04 31.28 63.04C31.2267 63.04 31.0933 63.0133 30.88 62.96C30.72 62.96 30.56 62.96 30.4 62.96C30.1333 62.96 29.9467 62.96 29.84 62.96C29.7867 63.0133 29.6267 63.04 29.36 63.04C29.2533 63.04 29.1467 63.04 29.04 63.04C28.9333 63.0933 28.8533 63.12 28.8 63.12C28.7467 63.12 28.6667 63.0933 28.56 63.04C28.4533 63.04 28.3467 63.04 28.24 63.04C28.08 63.04 27.9467 63.0667 27.84 63.12C27.7867 63.2267 27.7067 63.28 27.6 63.28C27.4933 63.28 27.3867 63.2267 27.28 63.12C27.2267 63.0667 27.1467 63.04 27.04 63.04C26.88 63.04 26.7733 63.04 26.72 63.04C26.6667 63.0933 26.6133 63.12 26.56 63.12C26.4533 63.12 26.3467 63.0667 26.24 62.96C26.1867 62.9067 26.08 62.88 25.92 62.88C25.0667 62.88 24.5867 62.8 24.48 62.64C24.4267 62.5333 24.2133 62.48 23.84 62.48C23.7867 62.48 23.7067 62.48 23.6 62.48C23.5467 62.5333 23.4933 62.56 23.44 62.56C23.3867 62.56 23.3333 62.5067 23.28 62.4C23.2267 62.3467 23.1733 62.32 23.12 62.32C22.96 62.32 22.8 62.2933 22.64 62.24C22.48 62.24 22.2933 62.1867 22.08 62.08C21.92 62.0267 21.7867 61.9733 21.68 61.92C21.5733 61.8133 21.4667 61.7333 21.36 61.68C21.3067 61.6267 21.2267 61.5733 21.12 61.52C21.0667 61.4133 20.9867 61.36 20.88 61.36C20.7733 61.36 20.6667 61.3333 20.56 61.28C20.4533 61.2267 20.3733 61.1467 20.32 61.04C20.2667 60.8267 20.1067 60.64 19.84 60.48C19.6267 60.32 19.4933 60.1333 19.44 59.92C19.3867 59.76 19.28 59.6 19.12 59.44C19.0133 59.28 18.9333 59.2 18.88 59.2C18.7733 59.2 18.6667 59.2533 18.56 59.36C18.5067 59.4667 18.48 59.6267 18.48 59.84C18.48 60 18.4533 60.3467 18.4 60.88C18.4 61.4133 18.3733 61.7867 18.32 62C18.2667 62.16 18.2133 62.4 18.16 62.72C18.16 63.0933 18.1333 63.3067 18.08 63.36C18.0267 63.4133 18 63.4667 18 63.52C18 63.5733 17.9733 63.6 17.92 63.6C17.8133 63.6 17.7333 63.5733 17.68 63.52C17.68 63.4667 17.68 63.4133 17.68 63.36C17.68 63.3067 17.68 63.1733 17.68 62.96C17.7333 62.7467 17.7867 62.6133 17.84 62.56C17.8933 62.5067 17.92 62.3467 17.92 62.08C17.9733 61.8667 18 61.68 18 61.52C18 61.4133 18 61.2267 18 60.96C18 60.64 18.0267 60.4 18.08 60.24C18.1333 60.08 18.16 59.8133 18.16 59.44C18.2133 59.0133 18.24 58.7733 18.24 58.72C18.24 58.6133 18.2667 58.48 18.32 58.32C18.4267 58.16 18.48 57.9733 18.48 57.76C18.48 57.5467 18.5333 56.96 18.64 56C18.8 54.9867 18.88 54.1867 18.88 53.6C18.88 52.48 18.9067 51.6267 18.96 51.04C19.0133 50.4533 19.04 49.8933 19.04 49.36C19.04 48.6667 19.12 48.2133 19.28 48C19.44 47.7333 19.52 47.36 19.52 46.88C19.52 46.56 19.4933 46.2667 19.44 46C19.44 45.68 19.3333 45.52 19.12 45.52C19.0133 45.52 18.8533 45.6 18.64 45.76C18.4267 45.92 18.2133 46.0533 18 46.16C17.7867 46.2667 17.44 46.3733 16.96 46.48C16.5333 46.5867 16.2133 46.64 16 46.64C15.84 46.64 15.7067 46.64 15.6 46.64C15.5467 46.64 15.52 46.6133 15.52 46.56C15.52 46.5067 15.5467 46.48 15.6 46.48C15.7067 46.4267 15.8133 46.3733 15.92 46.32C16.08 46.2667 16.2667 46.2133 16.48 46.16C16.7467 46.1067 17.04 46 17.36 45.84C17.68 45.68 18.1333 45.3867 18.72 44.96C19.3067 44.48 19.7067 43.9733 19.92 43.44C20.08 42.96 20.1867 42.4267 20.24 41.84C20.2933 41.2533 20.32 40.72 20.32 40.24C20.32 39.8667 20.2667 39.28 20.16 38.48C20.0533 37.68 19.9467 37.28 19.84 37.28C19.68 37.28 19.52 37.4667 19.36 37.84C19.2533 38.16 19.1467 38.32 19.04 38.32C18.9333 38.32 18.8533 38.2933 18.8 38.24C18.8 38.1867 18.8 38.1333 18.8 38.08C18.8 38.0267 18.9067 37.84 19.12 37.52C19.3333 37.2 19.44 36.9067 19.44 36.64C19.44 36.4267 19.36 36.1867 19.2 35.92C19.0933 35.6533 19.0133 35.52 18.96 35.52C18.8 35.52 18.6933 35.6267 18.64 35.84C18.5867 36.0533 18.56 36.1867 18.56 36.24C18.56 36.3467 18.5333 36.56 18.48 36.88C18.4267 37.1467 18.2933 37.28 18.08 37.28C18.08 37.28 18.0533 37.2533 18 37.2C17.9467 37.1467 17.92 37.0933 17.92 37.04C17.92 36.6667 18 36.4 18.16 36.24C18.32 36.08 18.4 35.7333 18.4 35.2C18.4 34.9867 18.2933 34.5067 18.08 33.76C17.92 33.0133 17.7333 32.64 17.52 32.64C17.2533 32.64 17.0667 32.8533 16.96 33.28C16.9067 33.7067 16.7467 33.92 16.48 33.92C16.2667 33.92 16.1333 33.8667 16.08 33.76C16.0267 33.6 16 33.4667 16 33.36C16 33.1467 16.1333 32.9867 16.4 32.88C16.6667 32.72 16.8 32.5333 16.8 32.32C16.8 32.2667 16.7733 32.24 16.72 32.24C16.6667 32.1867 16.6133 32.16 16.56 32.16C16.5067 32.16 16.2933 32.2667 15.92 32.48C15.6 32.64 15.2533 32.72 14.88 32.72C14.6667 32.72 14.48 32.6933 14.32 32.64C14.2133 32.5333 14.16 32.4533 14.16 32.4C14.16 32.3467 14.2133 32.32 14.32 32.32C14.4267 32.2667 14.5333 32.2133 14.64 32.16C14.7467 32.16 14.88 32.1333 15.04 32.08C15.2 32.0267 15.36 31.9467 15.52 31.84C15.68 31.7333 15.7867 31.6267 15.84 31.52C15.9467 31.4133 16.08 31.3333 16.24 31.28C16.4 31.2267 16.5333 31.1733 16.64 31.12C16.8 31.0133 16.88 30.9333 16.88 30.88C16.88 30.8267 16.8533 30.8 16.8 30.8C16.7467 30.7467 16.6933 30.72 16.64 30.72C16.5867 30.72 16.3733 30.8 16 30.96C15.6267 31.0667 15.4133 31.12 15.36 31.12C15.3067 31.12 15.2533 31.12 15.2 31.12C15.2 31.0667 15.2 31.0133 15.2 30.96C15.2 30.9067 15.2267 30.8533 15.28 30.8C15.3333 30.7467 15.4667 30.6933 15.68 30.64C15.7867 30.5867 16 30.4533 16.32 30.24C16.6933 30.0267 17.0133 29.76 17.28 29.44C17.8133 28.9067 18.1867 28.5067 18.4 28.24C18.6133 27.9733 18.88 27.5733 19.2 27.04C19.4667 26.5067 19.76 26.1067 20.08 25.84C20.4533 25.5733 20.8533 25.2533 21.28 24.88C21.6 24.5067 21.8667 24.24 22.08 24.08C22.3467 23.8667 22.6133 23.6267 22.88 23.36C23.0933 23.1467 23.4133 22.7733 23.84 22.24C24.32 21.6533 24.6933 21.3067 24.96 21.2C25.12 21.1467 25.3333 21.0133 25.6 20.8C25.92 20.5867 26.1867 20.3733 26.4 20.16C26.6133 20 26.88 19.76 27.2 19.44C27.5733 19.0667 27.8133 18.8533 27.92 18.8C28.0267 18.6933 28.1067 18.64 28.16 18.64C28.2133 18.5867 28.24 18.5333 28.24 18.48C28.24 18.4267 28.2133 18.4 28.16 18.4C28.16 18.3467 28.1333 18.32 28.08 18.32C28.0267 18.32 27.8667 18.4267 27.6 18.64C27.3867 18.8533 27.1467 18.96 26.88 18.96C26.56 18.96 26.24 18.8533 25.92 18.64C25.6 18.4267 25.36 18.24 25.2 18.08C25.0933 17.9733 24.9867 17.8667 24.88 17.76C24.8267 17.6533 24.7467 17.6 24.64 17.6C24.0533 17.6 23.52 17.8667 23.04 18.4C22.56 18.88 21.84 19.36 20.88 19.84C20.6667 19.8933 20.32 20.08 19.84 20.4C19.36 20.6667 19.0133 20.8267 18.8 20.88C18.5867 20.9333 18.4 20.9867 18.24 21.04C18.08 21.04 17.8933 21.1467 17.68 21.36C16.9867 22.0533 16.4 22.6933 15.92 23.28C15.4933 23.8133 14.9067 24.5067 14.16 25.36C13.5733 26.0533 13.04 26.72 12.56 27.36C12.1333 27.9467 11.5467 28.5867 10.8 29.28C10.5867 29.4933 10.1867 29.84 9.6 30.32C9.01333 30.8 8.72 31.36 8.72 32C8.72 32.5867 8.82667 33.1467 9.04 33.68C9.30667 34.16 9.54667 34.7467 9.76 35.44C9.97333 36.1867 10.1333 36.9333 10.24 37.68C10.4 38.4267 10.5067 39.1467 10.56 39.84C10.6133 40.5867 10.6933 41.2267 10.8 41.76C10.9067 42.24 11.04 42.5867 11.2 42.8C11.36 43.0133 11.5467 43.2267 11.76 43.44C11.9733 43.6 12.24 43.68 12.56 43.68C12.88 43.68 13.0667 43.7067 13.12 43.76C13.2267 43.76 13.28 43.7867 13.28 43.84C13.28 43.8933 13.2267 43.9467 13.12 44C13.0133 44 12.9333 44 12.88 44C12.7733 44 12.5867 44 12.32 44C12.1067 43.9467 11.9733 43.92 11.92 43.92C11.8667 43.92 11.7867 43.9467 11.68 44C11.6267 44 11.6 44.08 11.6 44.24C11.6 44.56 11.9733 44.7733 12.72 44.88C13.4667 44.9333 13.9733 44.96 14.24 44.96C14.9333 44.96 15.4933 44.8533 15.92 44.64C16.3467 44.3733 16.64 44.24 16.8 44.24C16.8533 44.24 16.88 44.2667 16.88 44.32C16.9333 44.32 16.96 44.3467 16.96 44.4C16.96 44.56 16.7467 44.7733 16.32 45.04C15.8933 45.3067 15.4133 45.5467 14.88 45.76C14.8267 45.8133 14.5867 45.8933 14.16 46C13.7333 46.0533 13.36 46.08 13.04 46.08C12.72 46.08 12.4533 46.1333 12.24 46.24C12.08 46.3467 12 46.5067 12 46.72C12 47.04 12 47.28 12 47.44C12.0533 47.6 12.16 47.7067 12.32 47.76C12.5333 47.8667 12.72 47.9733 12.88 48.08C13.0933 48.1867 13.28 48.24 13.44 48.24C13.6533 48.24 13.7867 48.2667 13.84 48.32C13.8933 48.32 13.92 48.3467 13.92 48.4C13.92 48.4533 13.84 48.5067 13.68 48.56C13.5733 48.56 13.4933 48.56 13.44 48.56C13.3333 48.56 13.12 48.5867 12.8 48.64C12.5333 48.64 12.3467 48.6667 12.24 48.72C12.1333 48.7733 12.0533 48.9067 12 49.12C11.9467 49.3333 11.8933 49.5467 11.84 49.76C11.7867 50.1867 11.68 50.7733 11.52 51.52C11.36 52.2667 11.1733 53.0933 10.96 54C10.8 54.8533 10.48 56.2133 10 58.08C9.57333 59.9467 9.09333 61.5733 8.56 62.96C8.50667 63.12 8.42667 63.2533 8.32 63.36C8.21333 63.52 8.13333 63.6 8.08 63.6L3.12 63.36C2.90667 63.36 2.77333 63.3067 2.72 63.2C2.66667 63.1467 2.64 63.0933 2.64 63.04C2.64 62.9867 2.74667 62.6933 2.96 62.16C3.22667 61.68 3.46667 61.1733 3.68 60.64C3.84 60.2133 4.08 59.5467 4.4 58.64C4.72 57.7333 5.14667 56.6933 5.68 55.52C6.16 54.5067 6.72 53.2267 7.36 51.68C8.05333 50.08 8.4 49.04 8.4 48.56C8.4 48.08 8.29333 47.44 8.08 46.64C7.92 45.7867 7.62667 44.7467 7.2 43.52C6.82667 42.24 6.34667 40.8267 5.76 39.28C5.22667 37.68 4.8 36.5333 4.48 35.84C4.10667 35.1467 3.73333 34.24 3.36 33.12C3.04 32 2.77333 31.1733 2.56 30.64C2.24 29.8933 1.76 29.0133 1.12 28C0.533334 26.9867 0.240001 26.0533 0.240001 25.2C0.240001 24.6133 0.266667 24.2133 0.32 24C0.426667 23.7333 0.48 23.2 0.48 22.4C0.48 22.0267 0.453334 21.44 0.4 20.64C0.4 19.84 0.373334 19.04 0.32 18.24C0.266667 17.3867 0.213334 16.6133 0.16 15.92C0.16 15.2267 0.16 14.7467 0.16 14.48C0.16 14 0.133334 13.44 0.0800003 12.8C0.0266668 12.16 1.19209e-07 11.7067 1.19209e-07 11.44C1.19209e-07 11.12 0.0533336 10.8 0.16 10.48C0.266667 10.16 0.506667 9.86666 0.880001 9.6C1.14667 9.44 1.52 9.33333 2 9.28C2.53333 9.17333 3.33333 8.98667 4.4 8.72C5.46667 8.45333 6.48 8.18666 7.44 7.92C8.45333 7.65333 9.30667 7.52 10 7.52C10.3733 7.52 10.5867 7.57333 10.64 7.68C10.7467 7.73333 10.8267 7.76 10.88 7.76C10.9867 7.76 11.36 7.68 12 7.52C12.64 7.36 13.0133 7.22666 13.12 7.12C13.1733 7.06666 13.2533 6.96 13.36 6.8C13.4667 6.58666 13.6267 6.45333 13.84 6.4C14.0533 6.34666 14.2133 6.24 14.32 6.08C14.4267 5.92 14.5333 5.78666 14.64 5.68C14.7467 5.57333 14.88 5.49333 15.04 5.44C15.2533 5.33333 15.4667 5.17333 15.68 4.96C15.8933 4.69333 16.1333 4.48 16.4 4.32C16.72 4.16 17.04 4.08 17.36 4.08C17.68 4.08 17.92 4.05333 18.08 4C18.24 3.94667 18.4 3.84 18.56 3.68C18.7733 3.57333 18.96 3.41333 19.12 3.2C19.28 2.98667 19.5467 2.88 19.92 2.88C20.24 2.88 20.48 2.85333 20.64 2.8C20.8533 2.74666 20.9867 2.69333 21.04 2.64C21.1467 2.58666 21.36 2.53333 21.68 2.48C22.0533 2.37333 22.3733 2.32 22.64 2.32C22.8533 2.32 23.04 2.34666 23.2 2.39999C23.4133 2.39999 23.6 2.39999 23.76 2.39999C23.9733 2.39999 24.16 2.37333 24.32 2.32C24.5333 2.26666 24.7467 2.13333 24.96 1.92C25.12 1.70666 25.2267 1.57333 25.28 1.52C25.3333 1.46666 25.4933 1.44 25.76 1.44C26.0267 1.44 26.2133 1.46666 26.32 1.52C26.48 1.57333 26.6133 1.6 26.72 1.6C26.8267 1.6 27.0133 1.46666 27.28 1.2C27.6 0.93333 27.9467 0.799996 28.32 0.799996C28.7467 0.799996 29.04 0.879997 29.2 1.04C29.36 1.14666 29.5467 1.2 29.76 1.2C29.92 1.2 30.0533 1.17333 30.16 1.12C30.32 1.06666 30.4267 1.04 30.48 1.04C30.5867 1.04 30.72 1.09333 30.88 1.2C31.0933 1.30666 31.2 1.46667 31.2 1.68C31.2 1.89333 31.2267 2.02666 31.28 2.08C31.3333 2.08 31.3867 2.08 31.44 2.08C31.4933 2.08 31.6267 1.97333 31.84 1.76C32.1067 1.54666 32.4267 1.44 32.8 1.44C32.8533 1.44 32.9333 1.46666 33.04 1.52C33.2 1.52 33.3067 1.52 33.36 1.52C33.4133 1.52 33.4933 1.49333 33.6 1.44C33.7067 1.38667 33.8133 1.36 33.92 1.36C34.4533 1.36 34.8267 1.49333 35.04 1.76C35.2533 2.02666 35.4133 2.16 35.52 2.16C35.6267 2.16 35.7333 2.16 35.84 2.16C35.9467 2.10667 36.0533 2.08 36.16 2.08C36.3733 2.08 36.56 2.18666 36.72 2.39999C36.9333 2.61333 37.0933 2.72 37.2 2.72C37.36 2.72 37.52 2.69333 37.68 2.64C37.8933 2.53333 38.0267 2.48 38.08 2.48C38.1333 2.48 38.24 2.50666 38.4 2.56C38.56 2.61333 38.64 2.66666 38.64 2.72C38.6933 2.77333 38.7467 2.82667 38.8 2.88C38.8533 2.93333 38.9067 2.96 38.96 2.96C39.0133 2.96 39.0667 2.98666 39.12 3.04C39.2267 3.04 39.3067 3.04 39.36 3.04C39.4133 3.04 39.44 3.01333 39.44 2.96C39.4933 2.90666 39.5467 2.88 39.6 2.88C39.6533 2.88 39.68 2.90666 39.68 2.96C39.7333 3.01333 39.76 3.06666 39.76 3.12C39.76 3.17333 39.7867 3.22667 39.84 3.28C39.8933 3.28 39.9467 3.28 40 3.28C40.0533 3.28 40.16 3.25333 40.32 3.2C40.48 3.14666 40.6667 3.09333 40.88 3.04C41.1467 2.98666 41.4133 2.96 41.68 2.96C41.9467 2.96 42.1067 2.93333 42.16 2.88C42.2133 2.88 42.4533 2.85333 42.88 2.8C43.3067 2.69333 44 2.64 44.96 2.64C45.8133 2.64 46.6133 2.90666 47.36 3.44C48.1067 3.97333 48.5867 4.24 48.8 4.24C48.96 4.24 49.2267 4.13333 49.6 3.92C49.9733 3.65333 50.3733 3.52 50.8 3.52C51.4933 3.52 52.4533 3.73333 53.68 4.16C54.96 4.58666 56.08 4.90666 57.04 5.12C57.2533 5.17333 57.44 5.25333 57.6 5.36C57.8133 5.41333 58.0267 5.54667 58.24 5.76C58.4533 5.97333 58.5867 6.21333 58.64 6.48C58.6933 6.69333 58.72 6.96 58.72 7.28C58.72 7.33333 58.72 7.73333 58.72 8.48C58.7733 9.17333 58.8 10 58.8 10.96C58.8 11.8667 58.8 12.8 58.8 13.76C58.8533 14.72 58.88 15.4933 58.88 16.08C58.88 17.2533 58.96 18.2667 59.12 19.12C59.28 19.92 59.36 20.5067 59.36 20.88C59.36 21.2533 59.2533 21.7333 59.04 22.32C58.88 22.8533 58.7733 23.2 58.72 23.36C58.6667 23.52 58.5867 23.7067 58.48 23.92C58.3733 24.08 58.24 24.3467 58.08 24.72C57.8667 25.36 57.68 26.0267 57.52 26.72C57.4133 27.4133 57.2533 28.0267 57.04 28.56C56.9867 28.8267 56.8267 29.3333 56.56 30.08C56.2933 30.8267 56.08 31.52 55.92 32.16C55.5467 33.5467 55.2533 34.7733 55.04 35.84C54.8267 36.9067 54.5867 38.0267 54.32 39.2C54.2667 39.4133 54.16 39.84 54 40.48C53.8933 41.0667 53.84 41.4133 53.84 41.52C53.7867 41.7333 53.7333 41.9467 53.68 42.16C53.68 42.3733 53.68 42.6667 53.68 43.04C53.68 43.4133 53.7067 43.9467 53.76 44.64C53.8667 45.28 54.0533 46.08 54.32 47.04C55.12 49.12 55.76 51.04 56.24 52.8C56.72 54.5067 57.2533 56.32 57.84 58.24C58.0533 58.9333 58.3733 59.8133 58.8 60.88C59.2267 61.9467 59.44 62.64 59.44 62.96ZM56.72 19.28C56.5067 18.5333 56.24 17.4667 55.92 16.08C55.6 14.6933 55.3067 13.4667 55.04 12.4C54.8267 11.4933 54.56 10.6133 54.24 9.76C53.9733 8.90666 53.7333 8.26666 53.52 7.84C53.3067 7.46666 53.0133 7.17333 52.64 6.96C52.32 6.69333 52.1067 6.53333 52 6.48C51.4133 6.16 50.88 5.89333 50.4 5.68C49.9733 5.41333 49.52 5.12 49.04 4.8C47.7067 3.94667 46.8 3.44 46.32 3.28C45.8933 3.06666 45.3867 2.96 44.8 2.96C44.5333 2.96 44.2133 2.98666 43.84 3.04C43.52 3.04 43.2533 3.04 43.04 3.04C42.88 3.04 42.7733 3.09333 42.72 3.2C42.6667 3.30666 42.5867 3.46666 42.48 3.68C42.32 3.89333 42.16 4.08 42 4.24C41.84 4.34666 41.6267 4.48 41.36 4.64C41.0933 4.8 40.8 4.90666 40.48 4.96C40.16 4.96 39.9467 4.96 39.84 4.96C39.7333 4.96 39.6267 4.98666 39.52 5.04C39.4667 5.09333 39.44 5.17333 39.44 5.28C39.44 5.49333 39.6 5.73333 39.92 6C40.24 6.21333 40.5067 6.34666 40.72 6.4C40.9333 6.45333 41.3867 6.53333 42.08 6.64C42.8267 6.69333 43.2267 6.72 43.28 6.72C43.3867 6.72 43.4667 6.69333 43.52 6.64C43.6267 6.58666 43.76 6.56 43.92 6.56C44.0267 6.56 44.1333 6.64 44.24 6.8C44.3467 6.90666 44.5067 7.06667 44.72 7.28C44.8267 7.38666 44.9333 7.49333 45.04 7.6C45.2 7.65333 45.3333 7.70666 45.44 7.76C45.5467 7.76 45.68 7.89333 45.84 8.16C46.0533 8.37333 46.4267 8.58666 46.96 8.8C47.0667 8.85333 47.2 8.96 47.36 9.12C47.52 9.22666 47.6533 9.33333 47.76 9.44C47.8133 9.49333 48 9.6 48.32 9.76C48.64 9.92 48.8267 10 48.88 10C48.9333 10 48.9867 10 49.04 10C49.0933 10 49.12 9.97333 49.12 9.92C49.12 9.86667 49.0133 9.76 48.8 9.6C48.5867 9.44 48.4 9.30666 48.24 9.2C48.1333 9.14667 48.0267 9.04 47.92 8.88C47.8133 8.72 47.76 8.61333 47.76 8.56C47.76 8.56 47.76 8.53333 47.76 8.48C47.8133 8.42666 47.8667 8.4 47.92 8.4C47.9733 8.4 48.0533 8.50667 48.16 8.72C48.32 8.88 48.48 9.01333 48.64 9.12C48.7467 9.22666 48.9067 9.36 49.12 9.52C49.3867 9.68 49.6267 9.89333 49.84 10.16C50.1067 10.3733 50.2933 10.64 50.4 10.96C50.56 11.2267 50.6667 11.3867 50.72 11.44C50.72 11.4933 50.7467 11.6 50.8 11.76C50.8533 11.8667 50.96 12.1333 51.12 12.56C51.28 12.9333 51.4667 13.4667 51.68 14.16C51.8933 14.8533 52.0267 15.3067 52.08 15.52C52.1867 15.7333 52.32 16.1067 52.48 16.64C52.6933 17.12 52.8267 17.44 52.88 17.6C52.9333 17.7067 52.9867 17.9467 53.04 18.32C53.0933 18.6933 53.1467 19.0933 53.2 19.52C53.2533 19.8933 53.3867 20.3733 53.6 20.96C53.8667 21.4933 54.1067 21.9467 54.32 22.32C54.5333 22.7467 54.6933 23.1467 54.8 23.52C54.9067 23.8933 54.9867 24.2133 55.04 24.48C55.0933 24.6933 55.1733 24.88 55.28 25.04C55.3867 25.2 55.4667 25.28 55.52 25.28C55.5733 25.28 55.68 25.2267 55.84 25.12C56 25.0133 56.2133 24.8267 56.48 24.56C56.8 24.2933 57.0667 23.9733 57.28 23.6C57.4933 23.2267 57.6 22.8533 57.6 22.48C57.6 22.1067 57.4933 21.68 57.28 21.2C57.12 20.6667 56.9333 20.0267 56.72 19.28ZM41.68 3.28C41.52 3.28 41.2533 3.30666 40.88 3.36C40.56 3.41333 40.2667 3.49333 40 3.6C39.7867 3.70666 39.6267 3.84 39.52 4C39.4667 4.16 39.44 4.29333 39.44 4.4C39.44 4.50666 39.4667 4.58666 39.52 4.64C39.5733 4.64 39.6267 4.64 39.68 4.64C40.0533 4.64 40.3467 4.61333 40.56 4.56C40.8267 4.50666 41.0667 4.42666 41.28 4.32C41.4933 4.21333 41.68 4.05333 41.84 3.84C42.0533 3.62666 42.16 3.49333 42.16 3.44C42.16 3.38666 42.1333 3.36 42.08 3.36C42.0267 3.30666 41.8933 3.28 41.68 3.28ZM40.56 14.16C40.2933 13.9467 39.8667 13.6533 39.28 13.28C38.6933 12.8533 38.24 12.5067 37.92 12.24C37.7067 11.9733 37.4933 11.68 37.28 11.36C37.12 11.04 37.04 10.7467 37.04 10.48C37.04 9.94666 37.2 9.49333 37.52 9.12C37.8933 8.69333 38.5067 8.37333 39.36 8.16C39.4667 8.10666 39.52 8.05333 39.52 8C39.5733 7.94666 39.6 7.86666 39.6 7.76C39.6 7.54666 39.4667 7.36 39.2 7.2C38.9867 6.98666 38.88 6.77333 38.88 6.56C38.88 6.50667 38.8267 6.48 38.72 6.48C38.6133 6.42666 38.5333 6.4 38.48 6.4C38.32 6.4 38.2133 6.37333 38.16 6.32C38.1067 6.21333 38.08 6.10666 38.08 6C38.08 5.94666 38.1067 5.86666 38.16 5.76C38.2667 5.65333 38.32 5.57333 38.32 5.52C38.32 5.46666 38.2933 5.44 38.24 5.44C38.1867 5.38667 38.1333 5.36 38.08 5.36C38.0267 5.36 37.9467 5.38667 37.84 5.44C37.7867 5.44 37.7067 5.44 37.6 5.44C37.3867 5.44 37.2533 5.30667 37.2 5.04C37.1467 4.72 37.04 4.56 36.88 4.56C36.7733 4.56 36.64 4.58666 36.48 4.64C36.3733 4.69333 36.24 4.72 36.08 4.72C35.8667 4.72 35.6267 4.69333 35.36 4.64C35.0933 4.53333 34.9067 4.48 34.8 4.48C34.7467 4.48 34.64 4.53333 34.48 4.64C34.3733 4.69333 34.2933 4.72 34.24 4.72C34.1867 4.72 34.1067 4.74666 34 4.8C33.8933 4.8 33.8133 4.8 33.76 4.8C33.7067 4.8 33.6267 4.8 33.52 4.8C33.4667 4.8 33.4133 4.77333 33.36 4.72C33.3067 4.66667 33.2533 4.61333 33.2 4.56C33.1467 4.50666 33.0933 4.45333 33.04 4.4C32.9867 4.34667 32.88 4.26666 32.72 4.16C32.6133 4.05333 32.5333 4 32.48 4C32.4267 4 32.3467 4.02666 32.24 4.08C32.1867 4.08 32.1333 4.08 32.08 4.08C32.0267 4.08 31.9467 4.05333 31.84 4C31.7333 3.94667 31.6533 3.92 31.6 3.92C31.5467 3.92 31.4667 3.94667 31.36 4C31.3067 4.05333 31.2267 4.08 31.12 4.08C30.9067 4.08 30.7733 4 30.72 3.84C30.6667 3.68 30.5333 3.6 30.32 3.6C30.2667 3.6 30.2133 3.62666 30.16 3.68C30.16 3.73333 30.1333 3.78666 30.08 3.84C30.0267 3.89333 29.9467 3.94667 29.84 4C29.7333 4.05333 29.5467 4.08 29.28 4.08C26.6667 4.13333 24.4533 4.77333 22.64 6C20.8267 7.22666 19.92 8.42666 19.92 9.6C19.92 9.65333 19.9467 9.70666 20 9.76C20.0533 9.76 20.1067 9.76 20.16 9.76C20.5333 9.76 20.96 9.81333 21.44 9.92C21.9733 10.0267 22.3733 10.24 22.64 10.56C22.8533 10.8267 22.9867 11.0933 23.04 11.36C23.0933 11.5733 23.12 11.7067 23.12 11.76C23.12 11.92 23.1733 12 23.28 12C23.44 12 23.6267 12.0267 23.84 12.08C24.0533 12.1333 24.2667 12.32 24.48 12.64C24.6933 12.9067 24.8 13.2533 24.8 13.68C24.8 14.0533 24.7467 14.4267 24.64 14.8C24.5333 15.12 24.3467 15.4667 24.08 15.84C23.8667 16.1067 23.68 16.32 23.52 16.48C23.36 16.64 23.2 16.7733 23.04 16.88L21.44 18C21.3333 18.0533 21.0933 18.2933 20.72 18.72C20.3467 19.0933 20.16 19.3867 20.16 19.6C20.16 19.6533 20.16 19.7067 20.16 19.76C20.2133 19.76 20.2667 19.76 20.32 19.76C20.3733 19.76 20.4533 19.7333 20.56 19.68C20.6667 19.5733 20.8 19.4933 20.96 19.44C22.8267 18.2133 24.08 17.3867 24.72 16.96C25.36 16.48 26.1867 16.24 27.2 16.24C27.7333 16.24 28.1067 16.3733 28.32 16.64C28.5333 16.9067 28.64 17.1733 28.64 17.44C28.64 17.76 28.56 18.08 28.4 18.4C28.2933 18.72 28.1333 19.04 27.92 19.36C27.8133 19.5733 27.7333 19.7867 27.68 20C27.6267 20.16 27.6 20.2667 27.6 20.32C27.6 20.4267 27.6 20.5067 27.6 20.56C27.6533 20.6133 27.68 20.64 27.68 20.64C27.68 20.6933 27.6533 20.7467 27.6 20.8C27.6 20.8533 27.5733 20.88 27.52 20.88C27.4667 20.88 27.4133 20.8267 27.36 20.72C27.36 20.6133 27.36 20.5067 27.36 20.4C27.36 20.3467 27.3333 20.2933 27.28 20.24C27.2267 20.1867 27.1733 20.16 27.12 20.16C26.96 20.16 26.8 20.32 26.64 20.64C26.5333 20.9067 26.4533 21.0933 26.4 21.2C26.3467 21.3067 26.24 21.44 26.08 21.6C25.92 21.7067 25.84 21.8933 25.84 22.16C25.84 22.3733 25.8933 22.5333 26 22.64C26.1067 22.7467 26.1867 22.8 26.24 22.8C26.2933 22.8 26.3733 22.7733 26.48 22.72C26.64 22.6667 26.7467 22.56 26.8 22.4C26.8533 22.2933 26.9067 22.16 26.96 22C27.0667 21.7867 27.12 21.68 27.12 21.68C27.2267 21.68 27.28 21.7067 27.28 21.76C27.3333 21.8133 27.36 21.84 27.36 21.84C27.36 21.8933 27.3067 22.0267 27.2 22.24C27.1467 22.4 27.0933 22.5067 27.04 22.56C26.9867 22.6667 26.9333 22.8 26.88 22.96C26.8267 23.12 26.8 23.2533 26.8 23.36C26.8 23.4133 26.8533 23.52 26.96 23.68C27.0667 23.7867 27.2267 23.84 27.44 23.84C27.8133 23.84 28 23.7333 28 23.52C28.0533 23.3067 28.16 23.2 28.32 23.2C28.5333 23.2 28.6133 23.3067 28.56 23.52C28.56 23.7333 28.6933 23.84 28.96 23.84C29.12 23.84 29.2533 23.7867 29.36 23.68C29.52 23.52 29.6533 23.44 29.76 23.44C30.0267 23.44 30.2133 23.5467 30.32 23.76C30.48 23.92 30.8 24 31.28 24C31.4933 24 31.6 23.9467 31.6 23.84C31.6533 23.7333 31.68 23.6267 31.68 23.52C31.68 23.1467 31.4667 22.7733 31.04 22.4C30.6667 22.0267 30.4267 21.6533 30.32 21.28C30.2667 21.1733 30.2133 21.0667 30.16 20.96C30.16 20.8533 30.16 20.6933 30.16 20.48C30.16 20.2667 30.1867 20.1333 30.24 20.08C30.2933 19.9733 30.3467 19.92 30.4 19.92C30.4533 19.92 30.5067 19.9733 30.56 20.08C30.6133 20.1333 30.64 20.2133 30.64 20.32C30.64 20.96 30.7467 21.4667 30.96 21.84C31.1733 22.2133 31.4667 22.6667 31.84 23.2C31.8933 23.3067 31.9733 23.3867 32.08 23.44C32.1867 23.4933 32.2933 23.52 32.4 23.52C32.4533 23.52 32.5067 23.4933 32.56 23.44C32.6667 23.3333 32.72 23.2533 32.72 23.2C32.72 23.04 32.6667 22.9333 32.56 22.88C32.5067 22.7733 32.48 22.6933 32.48 22.64C32.48 22.5867 32.5067 22.5333 32.56 22.48C32.6667 22.4267 32.7467 22.4 32.8 22.4C32.8533 22.4 32.9333 22.4533 33.04 22.56C33.2 22.6133 33.3333 22.64 33.44 22.64C33.6 22.64 33.7067 22.6133 33.76 22.56C33.8133 22.4533 33.84 22.3733 33.84 22.32C33.84 22.2667 33.8667 22.1867 33.92 22.08C34.0267 21.92 34.1067 21.84 34.16 21.84C34.32 21.84 34.4267 21.92 34.48 22.08C34.5867 22.24 34.8533 22.32 35.28 22.32C35.5467 22.32 35.7067 22.2133 35.76 22C35.8667 21.7867 35.92 21.5733 35.92 21.36C35.92 21.1467 35.76 20.8267 35.44 20.4C35.1733 19.92 34.96 19.68 34.8 19.68C34.7467 19.68 34.6933 19.7333 34.64 19.84C34.5867 19.9467 34.56 20.0533 34.56 20.16C34.56 20.2133 34.5333 20.2933 34.48 20.4C34.48 20.4533 34.4533 20.48 34.4 20.48C34.3467 20.48 34.2933 20.4533 34.24 20.4C34.24 20.2933 34.24 20.2133 34.24 20.16C34.24 19.7333 34.08 19.3333 33.76 18.96C33.4933 18.5333 33.1733 18.1067 32.8 17.68C32.64 17.4667 32.4533 17.1467 32.24 16.72C32.08 16.2933 32 15.8933 32 15.52C32 15.0933 32.16 14.7733 32.48 14.56C32.8 14.2933 33.1467 14.16 33.52 14.16C33.8933 14.16 34.2133 14.2133 34.48 14.32C34.8 14.3733 35.12 14.48 35.44 14.64C35.9733 14.9067 36.4 15.1467 36.72 15.36C37.04 15.5733 37.6267 15.8667 38.48 16.24C39.0667 16.6133 39.6533 17.0667 40.24 17.6C40.88 18.08 41.28 18.32 41.44 18.32C41.4933 18.32 41.6 18.24 41.76 18.08C41.9733 17.8667 42.08 17.4933 42.08 16.96C42.08 16.48 41.8933 15.9733 41.52 15.44C41.2 14.8533 40.88 14.4267 40.56 14.16ZM58.64 20.32C58.5867 20.1067 58.5333 19.8667 58.48 19.6C58.4267 19.3333 58.3733 18.8267 58.32 18.08C58.32 17.7067 58.2933 17.2267 58.24 16.64C58.24 16 58.2133 15.36 58.16 14.72C58.16 14.08 58.1333 13.4933 58.08 12.96C58.08 12.3733 58.08 11.9467 58.08 11.68C58.08 11.4133 58.08 11.04 58.08 10.56C58.1333 10.08 58.16 9.6 58.16 9.12C58.16 8.58667 58.16 8.10667 58.16 7.68C58.2133 7.25333 58.24 7.01333 58.24 6.96C58.24 6.74666 58.2133 6.58666 58.16 6.48C58.1067 6.32 58 6.13333 57.84 5.92C57.6267 5.70666 57.44 5.6 57.28 5.6C57.12 5.54666 56.9867 5.52 56.88 5.52C56.56 5.52 56.32 5.62666 56.16 5.84C56 6 55.8133 6.08 55.6 6.08C55.5467 6.08 55.4667 6.08 55.36 6.08C55.3067 6.02666 55.28 5.97333 55.28 5.92C55.28 5.86666 55.3867 5.78666 55.6 5.68C55.8667 5.57333 56 5.46666 56 5.36C56 5.25333 55.68 5.12 55.04 4.96C54.4533 4.74666 53.9733 4.58667 53.6 4.48C53.2267 4.37333 52.72 4.24 52.08 4.08C51.4933 3.92 51.0933 3.84 50.88 3.84C50.6133 3.84 50.2667 3.92 49.84 4.08C49.4667 4.24 49.28 4.34667 49.28 4.4C49.28 4.45333 49.52 4.61333 50 4.88C50.48 5.09333 51.0133 5.38666 51.6 5.76C51.8133 5.86666 52.1067 6.02666 52.48 6.24C52.9067 6.45333 53.1733 6.61333 53.28 6.72C53.8133 7.2 54.2933 8.24 54.72 9.84C55.1467 11.3867 55.4667 12.6667 55.68 13.68C55.7867 14.32 56 15.2267 56.32 16.4C56.6933 17.5733 56.9067 18.2667 56.96 18.48C57.0133 18.6933 57.12 19.04 57.28 19.52C57.4933 19.9467 57.6267 20.24 57.68 20.4C57.7333 20.6133 57.8133 20.88 57.92 21.2C58.0267 21.52 58.08 21.7333 58.08 21.84C58.08 21.8933 58.08 22 58.08 22.16C58.08 22.2667 58.1067 22.32 58.16 22.32C58.2133 22.32 58.32 22.2133 58.48 22C58.64 21.7867 58.72 21.5733 58.72 21.36C58.72 21.2 58.72 21.04 58.72 20.88C58.72 20.72 58.6933 20.5333 58.64 20.32ZM14.56 7.76C14.4533 7.6 14.2933 7.52 14.08 7.52C13.92 7.46666 13.7333 7.44 13.52 7.44C13.2533 7.44 12.88 7.52 12.4 7.68C11.9733 7.78666 11.68 7.86666 11.52 7.92C11.4133 7.97333 11.28 8.02667 11.12 8.08C11.0133 8.08 10.96 8.10666 10.96 8.16C10.96 8.42666 11.1733 8.74666 11.6 9.12C12.08 9.44 12.6667 9.6 13.36 9.6C14.0533 9.6 14.48 9.52 14.64 9.36C14.8 9.2 14.88 9.01333 14.88 8.8C14.88 8.69333 14.8267 8.56 14.72 8.4C14.6667 8.18666 14.6133 7.97333 14.56 7.76ZM54.32 23.6C53.9467 22.7467 53.6 22.1067 53.28 21.68C53.0133 21.2 52.7733 20.6133 52.56 19.92C52.24 19.2267 51.9467 18.5333 51.68 17.84C51.4133 17.0933 51.1733 16.4267 50.96 15.84C50.7467 15.2533 50.5067 14.56 50.24 13.76C49.9733 12.96 49.7333 12.3467 49.52 11.92C49.2 11.3867 48.8267 10.9867 48.4 10.72C47.9733 10.4533 47.52 10.1867 47.04 9.92C46.6667 9.70666 46.16 9.41333 45.52 9.04C44.9333 8.61333 44.4533 8.29333 44.08 8.08C43.92 8.02667 43.68 7.97333 43.36 7.92C43.04 7.86666 42.6933 7.84 42.32 7.84C42.2133 7.84 42.08 7.84 41.92 7.84C41.76 7.84 41.6 7.86666 41.44 7.92C41.3867 7.92 41.28 7.94666 41.12 8C41.0133 8.05333 40.88 8.08 40.72 8.08C40.6133 8.08 40.5333 8.16 40.48 8.32C40.4267 8.42666 40.3733 8.56 40.32 8.72C40.2667 8.93333 40.16 9.14666 40 9.36C39.8933 9.52 39.7067 9.70666 39.44 9.92C39.1733 10.1333 38.8533 10.2933 38.48 10.4C38.16 10.5067 37.9733 10.56 37.92 10.56C37.8667 10.56 37.8133 10.5867 37.76 10.64C37.7067 10.64 37.68 10.6667 37.68 10.72C37.68 11.04 37.9733 11.28 38.56 11.44C39.1467 11.6 39.6 11.68 39.92 11.68C40.4533 11.68 40.8267 11.6533 41.04 11.6C41.2533 11.5467 41.44 11.52 41.6 11.52C41.6533 11.52 41.7333 11.6267 41.84 11.84C41.9467 12 42.1067 12.16 42.32 12.32C42.7467 12.5867 43.28 12.9333 43.92 13.36C44.56 13.7867 45.0667 14.08 45.44 14.24C45.6533 14.2933 45.76 14.48 45.76 14.8C45.8133 15.0667 45.84 15.3067 45.84 15.52C45.84 15.8933 46.08 16.6133 46.56 17.68C47.0933 18.7467 47.52 19.5733 47.84 20.16C47.8933 20.32 47.9733 20.5333 48.08 20.8C48.24 21.0133 48.3733 21.28 48.48 21.6C48.5333 21.9733 48.6933 22.4 48.96 22.88C49.2267 23.36 49.3867 23.7067 49.44 23.92C49.44 23.92 49.3867 23.9467 49.28 24C49.2267 24.0533 49.1733 24.08 49.12 24.08C49.0667 24.08 48.9867 24.0267 48.88 23.92C48.7733 23.76 48.6933 23.5733 48.64 23.36C48.5867 23.1467 48.5067 22.88 48.4 22.56C48.3467 22.24 48.32 22.0267 48.32 21.92C48.2667 21.8667 48.2133 21.8133 48.16 21.76C48.1067 21.6533 48.0533 21.6 48 21.6C47.9467 21.6 47.84 21.7333 47.68 22C47.52 22.2133 47.3333 22.4267 47.12 22.64C47.0133 22.7467 46.9067 22.8533 46.8 22.96C46.7467 23.0133 46.72 23.0933 46.72 23.2C46.72 23.2533 46.96 23.4933 47.44 23.92C47.92 24.3467 48.3467 24.7467 48.72 25.12C49.2533 25.5467 49.7067 25.8667 50.08 26.08C50.4533 26.24 50.7733 26.4 51.04 26.56C51.36 26.72 51.6267 26.9067 51.84 27.12C52.1067 27.28 52.32 27.4667 52.48 27.68C52.5867 27.7867 52.6667 27.8933 52.72 28C52.7733 28.1067 52.8533 28.16 52.96 28.16C53.0133 28.16 53.1467 28.1067 53.36 28C53.6267 27.84 53.84 27.68 54 27.52C54.2133 27.3067 54.4 27.0933 54.56 26.88C54.72 26.6133 54.8 26.3733 54.8 26.16C54.8 26 54.7733 25.7067 54.72 25.28C54.6667 24.8533 54.5333 24.2933 54.32 23.6ZM14.32 9.68C14.2667 9.68 14.1333 9.70666 13.92 9.76C13.76 9.81333 13.5733 9.84 13.36 9.84C12.9867 9.84 12.64 9.78666 12.32 9.68C12 9.57333 11.7333 9.46666 11.52 9.36C11.2 9.14666 10.9867 8.96 10.88 8.8C10.7733 8.58666 10.6933 8.37333 10.64 8.16C10.5867 8 10.5067 7.92 10.4 7.92C10.3467 7.86666 10.2933 7.84 10.24 7.84C10.1867 7.84 10.0533 7.84 9.84 7.84C9.68 7.84 9.44 7.86666 9.12 7.92C8.21333 8.02666 7.33333 8.24 6.48 8.56C5.62667 8.82666 4.72 9.06666 3.76 9.28C3.38667 9.33333 2.90667 9.41333 2.32 9.52C1.78667 9.62666 1.44 9.70666 1.28 9.76C1.06667 9.81333 0.906667 9.97333 0.800001 10.24C0.693334 10.4533 0.64 10.64 0.64 10.8C0.64 11.0133 0.666667 11.2267 0.72 11.44C0.773334 11.6533 0.826667 11.8933 0.880001 12.16C0.933334 12.3733 0.96 12.6933 0.96 13.12C0.96 13.4933 0.96 14.0267 0.96 14.72C1.01333 15.4667 1.09333 16.2667 1.2 17.12C1.36 17.92 1.44 18.4267 1.44 18.64C1.44 18.6933 1.44 18.9333 1.44 19.36C1.44 19.7333 1.44 20.16 1.44 20.64C1.49333 21.12 1.52 21.6 1.52 22.08C1.52 22.5067 1.52 22.8 1.52 22.96C1.52 23.3333 1.52 23.5733 1.52 23.68C1.52 23.7867 1.54667 23.84 1.6 23.84C1.97333 23.84 2.4 23.5733 2.88 23.04C3.41333 22.5067 3.78667 22.1333 4 21.92C4.21333 21.7067 4.4 21.2533 4.56 20.56C4.72 19.8133 4.93333 19.04 5.2 18.24C5.25333 17.9733 5.36 17.6533 5.52 17.28C5.68 16.8533 5.76 16.64 5.76 16.64C5.76 16.5867 5.70667 16.48 5.6 16.32C5.54667 16.1067 5.52 15.9733 5.52 15.92C5.52 15.8133 5.52 15.7067 5.52 15.6C5.57333 15.44 5.6 15.2533 5.6 15.04C5.6 14.6133 5.44 14.24 5.12 13.92C4.85333 13.5467 4.72 13.3333 4.72 13.28C4.72 13.2267 4.72 13.1733 4.72 13.12C4.77333 13.0667 4.82667 13.04 4.88 13.04C4.93333 13.04 5.04 13.1733 5.2 13.44C5.41333 13.7067 5.54667 13.92 5.6 14.08C5.6 14.1867 5.65333 14.3467 5.76 14.56C5.86667 14.7733 5.94667 14.88 6 14.88C6.05333 14.88 6.08 14.88 6.08 14.88C6.13333 14.8267 6.16 14.72 6.16 14.56C6.16 14.3467 6.08 14.1333 5.92 13.92C5.76 13.7067 5.68 13.5733 5.68 13.52C5.68 13.52 5.68 13.4933 5.68 13.44C5.73333 13.3333 5.78667 13.28 5.84 13.28C5.89333 13.28 5.94667 13.3333 6 13.44C6.05333 13.5467 6.16 13.6 6.32 13.6C6.48 13.6 6.58667 13.4667 6.64 13.2C6.74667 12.9333 6.90667 12.6133 7.12 12.24C7.38667 11.8133 7.6 11.5467 7.76 11.44C7.97333 11.3333 8.24 11.2 8.56 11.04C8.77333 10.9333 9.04 10.8533 9.36 10.8C9.68 10.7467 9.92 10.72 10.08 10.72C10.2933 10.72 10.8 10.6667 11.6 10.56C12.4 10.4533 12.9867 10.3733 13.36 10.32C13.7867 10.2667 14.08 10.1867 14.24 10.08C14.4533 9.97333 14.56 9.89333 14.56 9.84C14.56 9.78666 14.5333 9.76 14.48 9.76C14.4267 9.70666 14.3733 9.68 14.32 9.68ZM39.76 8.4C39.7067 8.4 39.4667 8.45333 39.04 8.56C38.6667 8.66667 38.3733 8.8 38.16 8.96C37.9467 9.12 37.7867 9.30666 37.68 9.52C37.5733 9.73333 37.52 9.89333 37.52 10C37.52 10.1067 37.5467 10.1867 37.6 10.24C37.6533 10.2933 37.7067 10.32 37.76 10.32C37.9733 10.32 38.24 10.2667 38.56 10.16C38.9333 10 39.2267 9.81333 39.44 9.6C39.7067 9.38666 39.8667 9.17333 39.92 8.96C39.9733 8.74666 40 8.61333 40 8.56C40 8.50666 39.9733 8.48 39.92 8.48C39.8667 8.42666 39.8133 8.4 39.76 8.4ZM21.6 10.32C21.44 10.2667 21.1467 10.2133 20.72 10.16C20.3467 10.1067 20.0267 10.08 19.76 10.08C19.4933 10.08 19.3067 10.1067 19.2 10.16C19.0933 10.2133 19.04 10.2667 19.04 10.32C19.04 10.48 19.1733 10.72 19.44 11.04C19.7067 11.36 19.9467 11.5733 20.16 11.68C20.3733 11.84 20.6667 11.9733 21.04 12.08C21.4667 12.1333 21.7867 12.16 22 12.16C22.2133 12.16 22.4 12.1333 22.56 12.08C22.72 12.0267 22.8 11.84 22.8 11.52C22.8 11.1467 22.64 10.88 22.32 10.72C22.0533 10.5067 21.8133 10.3733 21.6 10.32ZM20.8 12.24C20.48 12.1867 20.24 12.1067 20.08 12C19.92 11.8933 19.7333 11.76 19.52 11.6C19.3067 11.4933 19.1467 11.3067 19.04 11.04C18.9333 10.7733 18.8533 10.5867 18.8 10.48C18.7467 10.3733 18.6667 10.2933 18.56 10.24C18.4533 10.1867 18.2933 10.16 18.08 10.16C17.8667 10.16 17.6 10.1867 17.28 10.24C16.96 10.2933 16.72 10.32 16.56 10.32C16.4533 10.3733 16.32 10.4 16.16 10.4C16 10.4 15.92 10.4267 15.92 10.48C15.92 10.5333 15.9467 10.5867 16 10.64C16.0533 10.6933 16.1067 10.7467 16.16 10.8C16.2133 10.8533 16.2667 10.9067 16.32 10.96C16.3733 11.0133 16.4 11.0667 16.4 11.12C16.4 11.1733 16.3733 11.2267 16.32 11.28C16.32 11.3333 16.2933 11.36 16.24 11.36C16.1867 11.36 16.1333 11.3333 16.08 11.28C16.08 11.2267 16.0533 11.1733 16 11.12C16 11.0667 15.9467 10.9867 15.84 10.88C15.7867 10.7733 15.7067 10.6667 15.6 10.56C15.5467 10.5067 15.4667 10.48 15.36 10.48C15.2533 10.48 15.1733 10.48 15.12 10.48C15.0667 10.48 14.9333 10.48 14.72 10.48C14.5067 10.48 14.2667 10.5067 14 10.56C13.7867 10.56 13.36 10.6133 12.72 10.72C12.08 10.7733 11.6533 10.8267 11.44 10.88C11.2267 10.88 11.0667 10.9067 10.96 10.96C10.9067 10.96 10.88 10.9867 10.88 11.04C10.88 11.0933 10.9333 11.1733 11.04 11.28C11.2 11.3333 11.3067 11.3867 11.36 11.44C11.4133 11.4933 11.4667 11.5467 11.52 11.6C11.6267 11.6533 11.68 11.7067 11.68 11.76C11.68 11.8133 11.6533 11.8667 11.6 11.92C11.6 11.92 11.5733 11.92 11.52 11.92C11.4667 11.92 11.36 11.8667 11.2 11.76C11.0933 11.6 10.96 11.4933 10.8 11.44C10.5867 11.3333 10.32 11.2533 10 11.2C9.73333 11.1467 9.49333 11.12 9.28 11.12C9.06667 11.12 8.77333 11.2267 8.4 11.44C8.02667 11.6533 7.73333 11.9467 7.52 12.32C7.30667 12.6933 7.14667 13.0667 7.04 13.44C6.98667 13.76 6.90667 14.1333 6.8 14.56C6.58667 15.2533 6.37333 15.8667 6.16 16.4C5.94667 16.9333 5.73333 17.52 5.52 18.16C5.14667 19.28 4.88 20.1867 4.72 20.88C4.61333 21.5733 4.24 22.6133 3.6 24C3.38667 24.5333 3.2 25.0133 3.04 25.44C2.88 25.8133 2.8 26.16 2.8 26.48C2.8 27.28 3.01333 28.2667 3.44 29.44C3.92 30.56 4.32 31.12 4.64 31.12C4.69333 31.12 4.72 31.0933 4.72 31.04C4.77333 30.9333 4.8 30.8533 4.8 30.8C4.8 30.7467 4.77333 30.64 4.72 30.48C4.66667 30.2667 4.64 30.0533 4.64 29.84C4.64 29.04 5.06667 27.9467 5.92 26.56C6.82667 25.1733 7.6 23.7867 8.24 22.4C8.88 21.0133 9.38667 19.7333 9.76 18.56C10.1867 17.3333 10.6667 16.3733 11.2 15.68C11.3067 15.5733 11.4667 15.4667 11.68 15.36C11.8933 15.2 12.1333 15.0667 12.4 14.96C12.72 14.8533 13.0133 14.8 13.28 14.8C13.5467 14.7467 13.7867 14.72 14 14.72C14.6933 14.6133 15.52 14.4533 16.48 14.24C17.44 14.0267 18.24 13.8133 18.88 13.6L20.96 12.88C21.0667 12.8267 21.1733 12.7733 21.28 12.72C21.3867 12.6667 21.44 12.6133 21.44 12.56C21.44 12.5067 21.3867 12.4533 21.28 12.4C21.1733 12.3467 21.0133 12.2933 20.8 12.24ZM24.16 12.72C24.0533 12.56 23.8933 12.4533 23.68 12.4C23.52 12.3467 23.3333 12.32 23.12 12.32C22.8 12.32 22.3733 12.4533 21.84 12.72C21.3067 12.9867 21.04 13.2 21.04 13.36C21.04 13.4133 21.12 13.4933 21.28 13.6C21.44 13.7067 21.5733 13.8667 21.68 14.08C21.7333 14.1867 21.8133 14.2933 21.92 14.4C22.0267 14.4533 22.1067 14.48 22.16 14.48C22.2667 14.48 22.4267 14.4533 22.64 14.4C22.9067 14.2933 23.2267 14.16 23.6 14C23.92 13.84 24.1333 13.7067 24.24 13.6C24.4 13.4933 24.48 13.4133 24.48 13.36C24.48 13.3067 24.4533 13.2533 24.4 13.2C24.3467 13.0933 24.2667 12.9333 24.16 12.72ZM24.32 13.92C24.2667 13.92 24.1867 13.9733 24.08 14.08C23.9733 14.1333 23.84 14.1867 23.68 14.24C23.4667 14.2933 23.2 14.4 22.88 14.56C22.56 14.6667 22.2933 14.72 22.08 14.72C21.8667 14.72 21.7067 14.64 21.6 14.48C21.5467 14.32 21.36 14.08 21.04 13.76C20.9333 13.6533 20.8267 13.5733 20.72 13.52C20.6133 13.4133 20.5333 13.36 20.48 13.36C20.2667 13.36 19.9467 13.4667 19.52 13.68C19.0933 13.84 18.8 13.9733 18.64 14.08C18.5333 14.1333 18.3467 14.1867 18.08 14.24C17.8133 14.24 17.6533 14.24 17.6 14.24C17.2267 14.2933 16.6133 14.4267 15.76 14.64C14.96 14.8533 14.3733 14.96 14 14.96C13.84 15.0133 13.7067 15.0667 13.6 15.12C13.5467 15.12 13.52 15.1467 13.52 15.2C13.52 15.36 13.68 15.5467 14 15.76C14.32 15.92 14.48 16.1067 14.48 16.32C14.48 16.3733 14.4533 16.4267 14.4 16.48C14.3467 16.48 14.2933 16.48 14.24 16.48C14.1867 16.48 14.1067 16.4 14 16.24C13.8933 16.08 13.7333 15.8933 13.52 15.68C13.36 15.52 13.2 15.4133 13.04 15.36C12.88 15.3067 12.72 15.28 12.56 15.28C12.4 15.28 12.1867 15.3867 11.92 15.6C11.7067 15.8133 11.4933 16.0533 11.28 16.32C10.8533 17.0133 10.3733 18.08 9.84 19.52C9.36 20.9067 8.82667 22.2133 8.24 23.44C7.70667 24.56 7.09333 25.6533 6.4 26.72C5.70667 27.7333 5.36 28.7467 5.36 29.76C5.36 30.1333 5.54667 30.7733 5.92 31.68C6.29333 32.5333 6.72 32.96 7.2 32.96C7.25333 32.96 7.30667 32.9067 7.36 32.8C7.46667 32.6933 7.54667 32.5867 7.6 32.48C7.76 31.7867 7.94667 31.2267 8.16 30.8C8.42667 30.32 8.82667 29.8667 9.36 29.44C9.73333 29.12 10.08 28.8267 10.4 28.56C10.7733 28.2933 11.12 28 11.44 27.68C11.76 27.36 11.9467 27.1467 12 27.04C12.1067 26.9333 12.16 26.8533 12.16 26.8C12.16 26.7467 12.1333 26.64 12.08 26.48C12.08 26.32 12.08 26.2133 12.08 26.16C12.08 25.52 12.1067 25.04 12.16 24.72C12.2667 24.4 12.3467 24.2133 12.4 24.16C12.4533 24.16 12.48 24.1867 12.48 24.24C12.5333 24.24 12.56 24.2933 12.56 24.4C12.56 24.4533 12.5333 24.64 12.48 24.96C12.4267 25.28 12.4 25.5467 12.4 25.76C12.4 25.92 12.4267 26.08 12.48 26.24C12.5333 26.3467 12.5867 26.4 12.64 26.4C12.7467 26.4 12.88 26.2933 13.04 26.08C13.2 25.8667 13.28 25.7333 13.28 25.68C13.28 25.52 13.2533 25.36 13.2 25.2C13.1467 25.04 13.12 24.8533 13.12 24.64C13.12 24.3733 13.1733 24.1067 13.28 23.84C13.3867 23.52 13.52 23.1733 13.68 22.8C13.7333 22.64 13.84 22.48 14 22.32C14.2133 22.1067 14.4 21.9467 14.56 21.84C14.88 21.52 15.0933 21.2533 15.2 21.04C15.3067 20.8267 15.44 20.5333 15.6 20.16C15.6533 20.0533 15.7067 19.8667 15.76 19.6C15.8133 19.3333 15.8933 19.2 16 19.2C16.0533 19.2 16.16 19.2533 16.32 19.36C16.48 19.4133 16.64 19.44 16.8 19.44C17.12 19.44 17.3333 19.3067 17.44 19.04C17.6 18.7733 17.8667 18.6133 18.24 18.56C18.4 18.5067 18.64 18.4 18.96 18.24C19.3333 18.08 19.7333 17.8133 20.16 17.44C20.2133 17.3867 20.3467 17.3067 20.56 17.2C20.8267 17.04 20.9867 16.9333 21.04 16.88C21.0933 16.8267 21.1733 16.8 21.28 16.8C21.44 16.7467 21.5467 16.72 21.6 16.72C21.6533 16.72 21.8667 16.64 22.24 16.48C22.6667 16.2667 23.0667 16 23.44 15.68C23.8133 15.3067 24.08 14.9867 24.24 14.72C24.4 14.4533 24.48 14.2667 24.48 14.16C24.48 14.1067 24.4533 14.0533 24.4 14C24.4 13.9467 24.3733 13.92 24.32 13.92ZM33.52 14.48C33.2533 14.48 32.9867 14.56 32.72 14.72C32.5067 14.8267 32.4 15.0133 32.4 15.28C32.4 15.3867 32.4267 15.52 32.48 15.68C32.5867 15.84 32.7467 15.9733 32.96 16.08C33.12 16.1867 33.28 16.2933 33.44 16.4C33.6 16.5067 33.7867 16.56 34 16.56C34.1067 16.56 34.2133 16.5067 34.32 16.4C34.48 16.2933 34.6133 16.16 34.72 16C34.8267 15.84 34.96 15.7067 35.12 15.6C35.28 15.44 35.36 15.28 35.36 15.12C35.36 15.0133 35.1467 14.88 34.72 14.72C34.2933 14.56 33.8933 14.48 33.52 14.48ZM26.96 16.56C26.5867 16.56 26.1867 16.6667 25.76 16.88C25.3333 17.04 25.12 17.2267 25.12 17.44C25.12 17.4933 25.1467 17.5733 25.2 17.68C25.3067 17.7867 25.44 17.8933 25.6 18C25.8667 18.2133 26.1067 18.4 26.32 18.56C26.5867 18.6667 26.8 18.72 26.96 18.72C27.2267 18.72 27.4933 18.5333 27.76 18.16C28.08 17.7867 28.24 17.4933 28.24 17.28C28.24 17.0133 28.1067 16.8267 27.84 16.72C27.6267 16.6133 27.3333 16.56 26.96 16.56ZM14.8 19.36C14.8533 19.36 14.88 19.3867 14.88 19.44C14.88 19.4933 14.88 19.5467 14.88 19.6C14.88 19.8133 14.8267 20.0533 14.72 20.32C14.6667 20.5333 14.56 20.72 14.4 20.88C14.3467 20.9333 14.2933 21.0133 14.24 21.12C14.1867 21.1733 14.1333 21.2 14.08 21.2C14.0267 21.2 13.9733 21.1733 13.92 21.12C13.92 21.0667 13.92 21.0133 13.92 20.96C13.92 20.7467 14.0267 20.4533 14.24 20.08C14.4533 19.6533 14.64 19.4133 14.8 19.36ZM41.6 22.72C41.8133 22.7733 41.9733 22.8267 42.08 22.88C42.1867 22.9333 42.24 23.04 42.24 23.2C42.24 23.2533 42.1867 23.3067 42.08 23.36C42.0267 23.36 41.9733 23.36 41.92 23.36C41.8667 23.36 41.7067 23.3067 41.44 23.2C41.2267 23.0933 41.0133 22.9333 40.8 22.72C40.5867 22.5067 40.4267 22.2933 40.32 22.08C40.2667 21.8667 40.24 21.7067 40.24 21.6C40.24 21.5467 40.24 21.4933 40.24 21.44C40.2933 21.3333 40.3467 21.28 40.4 21.28C40.4533 21.28 40.5067 21.3867 40.56 21.6C40.6667 21.76 40.7467 21.8933 40.8 22C40.8533 22.1067 40.9333 22.24 41.04 22.4C41.2 22.56 41.3867 22.6667 41.6 22.72ZM40.32 24.88C39.9467 24.5067 39.6 24.2667 39.28 24.16C38.96 24.0533 38.64 23.9467 38.32 23.84C38.1067 23.7867 37.8667 23.76 37.6 23.76C37.3333 23.7067 37.04 23.68 36.72 23.68C36.5067 23.68 36.3467 23.7067 36.24 23.76C36.1867 23.8133 36.16 23.8933 36.16 24C36.16 24.0533 36.1867 24.08 36.24 24.08C36.3467 24.08 36.4267 24.1067 36.48 24.16C36.5333 24.2133 36.6133 24.2933 36.72 24.4C36.88 24.4533 36.96 24.5067 36.96 24.56C36.96 24.6133 36.9333 24.6667 36.88 24.72C36.8267 24.72 36.7733 24.72 36.72 24.72C36.3467 24.72 36 24.64 35.68 24.48C35.4133 24.2667 34.9333 24.16 34.24 24.16C33.8667 24.16 33.5733 24.2133 33.36 24.32C33.2 24.3733 33.0933 24.4267 33.04 24.48C32.9867 24.5333 32.9067 24.6667 32.8 24.88C32.7467 25.04 32.72 25.1733 32.72 25.28C32.72 25.5467 32.7733 25.7333 32.88 25.84C33.04 25.9467 33.1733 26 33.28 26C33.4933 26 33.7333 25.9467 34 25.84C34.2667 25.68 34.5067 25.6 34.72 25.6C34.9867 25.6 35.2533 25.7067 35.52 25.92C35.84 26.1333 36.1333 26.24 36.4 26.24C36.4533 26.24 36.5067 26.24 36.56 26.24C36.6667 26.1867 36.7467 26.16 36.8 26.16C36.8533 26.16 36.88 26.1867 36.88 26.24C36.9333 26.2933 36.96 26.3733 36.96 26.48C36.96 26.5333 37.0133 26.64 37.12 26.8C37.2267 26.9067 37.3333 26.96 37.44 26.96C37.6 26.96 37.7333 26.9333 37.84 26.88C37.9467 26.7733 38.0267 26.72 38.08 26.72C38.1333 26.72 38.1867 26.7733 38.24 26.88C38.2933 26.9867 38.3733 27.0667 38.48 27.12C38.5867 27.1733 38.6933 27.2 38.8 27.2C38.96 27.2 39.0933 27.2 39.2 27.2C39.4667 27.2 39.7067 27.2533 39.92 27.36C40.1333 27.4667 40.2933 27.52 40.4 27.52C40.5067 27.52 40.5867 27.4933 40.64 27.44C40.6933 27.3333 40.72 27.2 40.72 27.04C40.72 26.7733 40.56 26.5067 40.24 26.24C39.92 25.9733 39.6533 25.76 39.44 25.6C39.3867 25.5467 39.3067 25.4933 39.2 25.44C39.0933 25.3867 39.04 25.36 39.04 25.36C39.04 25.36 39.04 25.3333 39.04 25.28C39.0933 25.2267 39.1467 25.2 39.2 25.2C39.3067 25.2 39.44 25.3067 39.6 25.52C39.8133 25.68 40.0267 25.8133 40.24 25.92C40.3467 25.9733 40.4533 26.0267 40.56 26.08C40.72 26.1333 40.8267 26.16 40.88 26.16C40.9333 26.16 40.9867 26.16 41.04 26.16C41.0933 26.1067 41.12 26.0533 41.12 26C41.12 25.9467 41.0667 25.84 40.96 25.68C40.9067 25.52 40.6933 25.2533 40.32 24.88ZM25.28 24.4C25.1733 24.3467 25.0133 24.32 24.8 24.32C24.64 24.2667 24.48 24.24 24.32 24.24C24.2133 24.24 24.1067 24.24 24 24.24C23.8933 24.1867 23.8133 24.16 23.76 24.16C23.44 24.16 23.1733 24.2667 22.96 24.48C22.8 24.64 22.56 24.8 22.24 24.96C22.1867 24.96 22.1333 25.0133 22.08 25.12C22.0267 25.1733 21.9733 25.2267 21.92 25.28C21.92 25.44 21.76 25.6267 21.44 25.84C21.1733 26 21.04 26.16 21.04 26.32C21.04 26.3733 21.0667 26.4267 21.12 26.48C21.2267 26.5333 21.3333 26.56 21.44 26.56C21.6533 26.56 22 26.4267 22.48 26.16C22.96 25.84 23.4933 25.68 24.08 25.68C24.2933 25.68 24.4533 25.7067 24.56 25.76C24.6667 25.8133 24.8267 25.84 25.04 25.84C25.2 25.84 25.36 25.76 25.52 25.6C25.7333 25.44 25.84 25.2533 25.84 25.04C25.84 24.88 25.7867 24.7467 25.68 24.64C25.5733 24.5333 25.44 24.4533 25.28 24.4ZM28.8 24.24C28.16 24.24 27.6533 24.2933 27.28 24.4C26.9067 24.5067 26.72 24.6667 26.72 24.88C26.72 25.0933 26.8 25.2267 26.96 25.28C27.12 25.3333 27.2533 25.36 27.36 25.36C27.52 25.36 27.7333 25.3333 28 25.28C28.32 25.2267 28.5067 25.2 28.56 25.2C28.6133 25.2 28.6667 25.2 28.72 25.2C28.8267 25.2 28.88 25.2267 28.88 25.28C28.88 25.44 28.5867 25.6 28 25.76C27.4133 25.92 27.12 26.16 27.12 26.48C27.12 26.64 27.1733 26.7733 27.28 26.88C27.44 26.9333 27.5467 26.96 27.6 26.96C27.6533 26.96 27.7067 26.9867 27.76 27.04C27.8133 27.04 27.84 27.04 27.84 27.04C27.84 27.0933 27.7867 27.2 27.68 27.36C27.6267 27.4667 27.5733 27.5467 27.52 27.6C27.4133 27.7067 27.3067 27.84 27.2 28C27.1467 28.16 27.04 28.3467 26.88 28.56C26.8267 28.6133 26.7467 28.6933 26.64 28.8C26.5867 28.8533 26.56 28.9333 26.56 29.04C26.56 29.1467 26.5867 29.2533 26.64 29.36C26.7467 29.4667 26.9067 29.52 27.12 29.52C27.2267 29.52 27.3067 29.4933 27.36 29.44C27.4133 29.3867 27.4667 29.36 27.52 29.36C27.5733 29.36 27.6 29.3867 27.6 29.44C27.6533 29.44 27.68 29.4667 27.68 29.52C27.68 29.5733 27.6267 29.6533 27.52 29.76C27.4667 29.8133 27.4133 29.92 27.36 30.08C27.2533 30.2933 27.12 30.5067 26.96 30.72C26.8 30.88 26.6133 31.0933 26.4 31.36C26.24 31.5733 26.1067 31.8667 26 32.24C25.8933 32.56 25.84 32.8 25.84 32.96C25.84 33.0667 25.84 33.2533 25.84 33.52C25.8933 33.7867 26.0267 34.08 26.24 34.4C26.4533 34.7733 26.72 35.04 27.04 35.2C27.4133 35.36 27.7867 35.44 28.16 35.44C28.5333 35.44 28.9333 35.36 29.36 35.2C29.7867 34.9867 30.08 34.6933 30.24 34.32C30.3467 34.0533 30.4 33.76 30.4 33.44C30.4533 33.0667 30.48 32.6933 30.48 32.32C30.48 31.9467 30.4267 31.6 30.32 31.28C30.2667 30.96 30.24 30.7467 30.24 30.64C30.24 30.48 30.2667 30.24 30.32 29.92C30.3733 29.6 30.4 29.3867 30.4 29.28C30.4 29.2267 30.3733 29.0667 30.32 28.8C30.32 28.5333 30.2933 28.2933 30.24 28.08C30.1333 27.76 29.9733 27.5733 29.76 27.52C29.6 27.4133 29.4667 27.36 29.36 27.36C29.3067 27.36 29.2267 27.36 29.12 27.36C29.0667 27.36 29.04 27.3333 29.04 27.28C29.04 27.2267 29.0933 27.2 29.2 27.2C29.3067 27.2 29.3867 27.2 29.44 27.2C29.6533 27.2 30 27.1467 30.48 27.04C31.0133 26.88 31.28 26.64 31.28 26.32C31.28 26.16 31.2 26.08 31.04 26.08C30.9333 26.0267 30.8533 26 30.8 26C30.6933 26 30.5067 26.0533 30.24 26.16C30.0267 26.2133 29.8933 26.24 29.84 26.24C29.7867 26.24 29.7067 26.24 29.6 26.24C29.5467 26.1867 29.52 26.1067 29.52 26C29.52 25.9467 29.6 25.92 29.76 25.92C29.9733 25.8667 30.16 25.84 30.32 25.84C30.48 25.84 30.6133 25.8133 30.72 25.76C30.88 25.7067 31.0933 25.6533 31.36 25.6C31.5733 25.4933 31.7067 25.36 31.76 25.2C31.8667 25.04 31.92 24.88 31.92 24.72C31.92 24.5067 31.5467 24.3733 30.8 24.32C30.0533 24.2667 29.3867 24.24 28.8 24.24ZM25.12 30.16C24.9067 30.16 24.72 30.2133 24.56 30.32C24.4 30.4267 24.2667 30.5333 24.16 30.64C24.1067 30.6933 23.9467 30.8267 23.68 31.04C23.4667 31.2533 23.3333 31.3867 23.28 31.44C23.2267 31.4933 23.1467 31.5733 23.04 31.68C22.9867 31.7867 22.96 31.84 22.96 31.84C22.9067 31.84 22.8533 31.84 22.8 31.84C22.8 31.7867 22.8 31.7067 22.8 31.6C22.8 31.5467 22.88 31.36 23.04 31.04C23.2533 30.6667 23.4133 30.4 23.52 30.24C23.6267 30.08 23.7067 29.8933 23.76 29.68C23.8667 29.4667 23.92 29.3067 23.92 29.2C23.92 29.1467 23.8667 29.0933 23.76 29.04C23.7067 28.9867 23.6533 28.96 23.6 28.96C23.5467 28.96 23.4667 28.9867 23.36 29.04C23.2533 29.04 23.1733 29.0933 23.12 29.2C23.0667 29.36 22.9867 29.52 22.88 29.68C22.7733 29.7867 22.6933 29.84 22.64 29.84C22.64 29.84 22.6133 29.84 22.56 29.84C22.5067 29.7867 22.48 29.7333 22.48 29.68C22.48 29.6267 22.56 29.4933 22.72 29.28C22.9333 29.0133 23.0667 28.8 23.12 28.64C23.1733 28.48 23.2533 28.3733 23.36 28.32C23.52 28.2133 23.7067 28.1067 23.92 28C24.08 27.8933 24.1867 27.8133 24.24 27.76C24.2933 27.6533 24.3467 27.5733 24.4 27.52C24.4533 27.4667 24.5333 27.4133 24.64 27.36C24.7467 27.3067 24.8267 27.2533 24.88 27.2C24.9333 27.1467 24.9867 27.0933 25.04 27.04C25.0933 26.9333 25.12 26.8533 25.12 26.8C25.12 26.7467 25.1733 26.64 25.28 26.48C25.3867 26.32 25.44 26.2133 25.44 26.16C25.44 26.1067 25.4133 26.08 25.36 26.08C25.3067 26.0267 25.2533 26 25.2 26C25.1467 26 25.0933 26 25.04 26C24.9867 26 24.9333 26.0267 24.88 26.08C24.8267 26.1333 24.7733 26.2133 24.72 26.32C24.72 26.4267 24.6933 26.48 24.64 26.48C24.5867 26.48 24.5333 26.48 24.48 26.48C24.48 26.4267 24.4267 26.4 24.32 26.4C24.2133 26.4 24.1333 26.4533 24.08 26.56C24.08 26.6667 24.0533 26.72 24 26.72C23.9467 26.72 23.8933 26.6667 23.84 26.56C23.84 26.4533 23.7867 26.4 23.68 26.4C23.4667 26.4 23.36 26.48 23.36 26.64C23.36 26.7467 23.3333 26.8 23.28 26.8C23.2267 26.8 23.1733 26.7733 23.12 26.72C23.12 26.6667 23.0933 26.64 23.04 26.64C22.9867 26.64 22.96 26.6667 22.96 26.72C22.96 26.7733 22.9333 26.8267 22.88 26.88C22.8267 26.88 22.7733 26.88 22.72 26.88C22.6667 26.8267 22.5867 26.8 22.48 26.8C22.2667 26.8 22.1333 26.88 22.08 27.04C22.0267 27.2 21.9733 27.28 21.92 27.28C21.8667 27.28 21.8133 27.2533 21.76 27.2C21.7067 27.0933 21.5733 27.04 21.36 27.04C21.2 27.04 21.0667 27.12 20.96 27.28C20.8533 27.44 20.8 27.6267 20.8 27.84C20.8 28 20.8533 28.1067 20.96 28.16C21.0667 28.16 21.1467 28.16 21.2 28.16C21.4133 28.16 21.6267 28.1333 21.84 28.08C22.0533 27.9733 22.1867 27.92 22.24 27.92C22.2933 27.92 22.32 27.9467 22.32 28C22.3733 28 22.4 28.0267 22.4 28.08C22.4 28.1867 22.2933 28.2667 22.08 28.32C21.8667 28.32 21.6 28.4 21.28 28.56C21.0667 28.6667 20.88 28.7733 20.72 28.88C20.6133 28.9867 20.56 29.0667 20.56 29.12C20.56 29.1733 20.56 29.28 20.56 29.44C20.6133 29.5467 20.64 29.6533 20.64 29.76C20.64 29.8667 20.56 29.9467 20.4 30C20.2933 30.0533 20.16 30.08 20 30.08C19.7333 30.08 19.5467 30.32 19.44 30.8C19.3333 31.2267 19.28 31.6 19.28 31.92C19.28 32.1867 19.3333 32.4 19.44 32.56C19.6 32.6667 19.76 32.72 19.92 32.72C20.08 32.72 20.2667 32.56 20.48 32.24C20.6933 31.8667 20.8533 31.68 20.96 31.68C21.0133 31.68 21.04 31.7067 21.04 31.76C21.0933 31.76 21.12 31.7867 21.12 31.84C21.12 31.8933 21.04 32.0267 20.88 32.24C20.72 32.4533 20.56 32.6667 20.4 32.88C20.1867 33.1467 20 33.52 19.84 34C19.7333 34.4267 19.68 34.8267 19.68 35.2C19.68 35.6267 19.7333 36 19.84 36.32C19.9467 36.5867 20 36.7733 20 36.88C20.0533 36.9333 20.1067 37.0933 20.16 37.36C20.2667 37.5733 20.3467 37.8667 20.4 38.24C20.56 38.7733 20.64 39.2267 20.64 39.6C20.6933 39.9733 20.72 40.3467 20.72 40.72C20.72 40.8267 20.7467 40.9867 20.8 41.2C20.8533 41.36 20.9333 41.44 21.04 41.44C21.2533 41.44 21.4133 41.28 21.52 40.96C21.6267 40.5867 21.7067 40.3467 21.76 40.24C21.8133 40.1333 21.8667 40.0533 21.92 40C22.0267 39.9467 22.08 39.92 22.08 39.92C22.08 39.8667 22.1333 39.8133 22.24 39.76C22.4 39.6533 22.5067 39.5467 22.56 39.44C22.6133 39.3867 22.6933 39.3333 22.8 39.28C22.9067 39.2267 22.9867 39.1733 23.04 39.12C23.0933 39.0667 23.1467 38.9867 23.2 38.88C23.2533 38.7733 23.3333 38.6933 23.44 38.64C23.4933 38.5867 23.5733 38.56 23.68 38.56C23.7867 38.5067 23.8667 38.4533 23.92 38.4C23.9733 38.4 24.0267 38.4 24.08 38.4C24.1333 38.3467 24.16 38.2933 24.16 38.24C24.2133 38.24 24.24 38.2133 24.24 38.16C24.24 38.1067 24.2667 38.0533 24.32 38C24.3733 37.9467 24.4 37.8933 24.4 37.84C24.4533 37.7867 24.48 37.7333 24.48 37.68C24.48 37.5733 24.3733 37.3333 24.16 36.96C23.9467 36.5333 23.84 36.0533 23.84 35.52C23.84 34.8267 23.9467 34.3733 24.16 34.16C24.3733 33.8933 24.5333 33.5467 24.64 33.12C24.64 33.12 24.7733 32.6933 25.04 31.84C25.3067 30.9867 25.44 30.5333 25.44 30.48C25.44 30.4267 25.3867 30.3733 25.28 30.32C25.2267 30.2133 25.1733 30.16 25.12 30.16ZM41.84 46.16C41.7867 45.6267 41.6267 45.12 41.36 44.64C41.1467 44.16 41.04 43.6533 41.04 43.12C41.04 42.9067 41.0133 42.7733 40.96 42.72C40.9067 42.6667 40.8533 42.6133 40.8 42.56C40.7467 42.5067 40.6933 42.3733 40.64 42.16C40.64 41.8933 40.6133 41.5733 40.56 41.2C40.4533 40.8267 40.3467 40.5067 40.24 40.24C40.1333 39.9733 39.9733 39.6533 39.76 39.28C39.4933 38.7467 39.12 38.0267 38.64 37.12C38.16 36.16 37.68 35.44 37.2 34.96C37.04 34.8 36.8533 34.6667 36.64 34.56C36.48 34.4 36.4 34.2667 36.4 34.16C36.4 34.1067 36.4 34.0533 36.4 34C36.4533 33.9467 36.5067 33.92 36.56 33.92C36.6133 33.92 36.6933 34 36.8 34.16C36.9067 34.2667 37.04 34.4 37.2 34.56C37.5733 34.9333 38.08 35.52 38.72 36.32C39.36 37.0667 39.8667 37.44 40.24 37.44C40.56 37.44 40.7733 37.2533 40.88 36.88C40.9867 36.5067 41.04 36.2133 41.04 36C41.04 35.7333 41.0133 35.36 40.96 34.88C40.9067 34.3467 40.7733 33.8133 40.56 33.28C40.08 32.16 39.6533 31.52 39.28 31.36C38.96 31.1467 38.8 30.96 38.8 30.8C38.8 30.7467 38.8 30.72 38.8 30.72C38.8533 30.6667 38.9067 30.64 38.96 30.64C39.1733 30.64 39.36 30.7467 39.52 30.96C39.7333 31.12 40 31.2 40.32 31.2C40.6933 31.2 41.0133 31.04 41.28 30.72C41.6 30.4 41.76 30.08 41.76 29.76C41.76 29.5467 41.7067 29.3867 41.6 29.28C41.4933 29.12 41.4133 29.0133 41.36 28.96C41.04 28.6933 40.5867 28.5067 40 28.4C39.4133 28.24 39.0133 28.16 38.8 28.16C38.64 28.16 38.48 28.1867 38.32 28.24C38.2133 28.2933 38.1333 28.32 38.08 28.32C37.8667 28.32 37.7067 28.24 37.6 28.08C37.4933 27.92 37.2 27.84 36.72 27.84C36.6133 27.84 36.5333 27.8133 36.48 27.76C36.48 27.6533 36.48 27.5733 36.48 27.52C36.48 27.4667 36.4533 27.4133 36.4 27.36C36.4 27.3067 36.3733 27.28 36.32 27.28C36.2667 27.28 36.2133 27.3067 36.16 27.36C36.16 27.36 36.1333 27.36 36.08 27.36C36.0267 27.36 35.9733 27.36 35.92 27.36C35.92 27.3067 35.92 27.2533 35.92 27.2C35.92 27.1467 35.8933 27.0933 35.84 27.04C35.7867 26.9867 35.7333 26.96 35.68 26.96C35.6267 26.96 35.5733 26.9867 35.52 27.04C35.52 27.04 35.4933 27.04 35.44 27.04C35.3867 27.04 35.3333 26.9867 35.28 26.88C35.2267 26.72 35.1733 26.6133 35.12 26.56C35.0667 26.4 34.96 26.2933 34.8 26.24C34.6933 26.1867 34.56 26.16 34.4 26.16C34.2933 26.16 34.1333 26.2133 33.92 26.32C33.76 26.3733 33.68 26.5067 33.68 26.72C33.68 26.88 33.8133 27.04 34.08 27.2C34.4 27.3067 34.6933 27.4933 34.96 27.76C35.0667 27.8667 35.36 28.08 35.84 28.4C36.32 28.6667 36.6667 28.8 36.88 28.8C36.9867 28.8 37.0933 28.8267 37.2 28.88C37.3067 28.88 37.36 28.9067 37.36 28.96C37.36 29.0133 37.3067 29.0667 37.2 29.12C37.0933 29.12 37.0133 29.12 36.96 29.12C36.64 29.12 36.2933 29.0133 35.92 28.8C35.5467 28.5867 35.1733 28.3733 34.8 28.16C34.5867 28.0533 34.3733 27.9733 34.16 27.92C34 27.8667 33.7867 27.84 33.52 27.84C33.3067 27.84 33.1733 27.8933 33.12 28C33.0667 28.1067 33.04 28.2667 33.04 28.48C33.04 29.0133 33.3067 29.52 33.84 30C34.4267 30.4267 34.72 30.8 34.72 31.12C34.72 31.12 34.6933 31.1467 34.64 31.2C34.64 31.2533 34.6133 31.28 34.56 31.28C34.3467 31.28 33.9733 30.8533 33.44 30C32.9067 29.1467 32.56 28.6133 32.4 28.4C32.1867 28.1867 31.9733 28.0267 31.76 27.92C31.6 27.8133 31.4933 27.76 31.44 27.76C31.3867 27.76 31.3333 27.7867 31.28 27.84C31.2267 27.8933 31.2 27.9467 31.2 28C31.2 28.2133 31.3333 28.4533 31.6 28.72C31.8667 28.9867 32.1067 29.5467 32.32 30.4C32.3733 30.6667 32.4267 31.04 32.48 31.52C32.5867 31.9467 32.64 32.2667 32.64 32.48C32.64 32.7467 32.6667 32.96 32.72 33.12C32.7733 33.2267 32.8533 33.36 32.96 33.52C33.1733 33.8933 33.3067 34.24 33.36 34.56C33.4667 34.88 33.52 35.12 33.52 35.28C33.52 35.6533 33.4933 35.9733 33.44 36.24C33.44 36.5067 33.36 36.8267 33.2 37.2C33.1467 37.4133 32.9867 37.68 32.72 38C32.5067 38.32 32.4 38.5333 32.4 38.64C32.4 38.7467 32.4267 38.8267 32.48 38.88C32.5333 38.9333 32.6133 38.96 32.72 38.96C32.88 38.96 32.9867 38.88 33.04 38.72C33.1467 38.5067 33.2267 38.4 33.28 38.4C33.3333 38.4 33.36 38.4533 33.36 38.56C33.4133 38.6133 33.44 38.6667 33.44 38.72C33.44 38.88 33.6533 39.0933 34.08 39.36C34.56 39.6267 34.88 39.8133 35.04 39.92C35.2 40.0267 35.28 40.16 35.28 40.32C35.3333 40.48 35.3867 40.6133 35.44 40.72C35.4933 40.8267 35.5733 40.9067 35.68 40.96C35.7867 41.0133 35.8667 41.04 35.92 41.04C35.9733 41.04 36.0267 41.0133 36.08 40.96C36.1333 40.8533 36.16 40.7733 36.16 40.72C36.16 40.08 35.84 39.2533 35.2 38.24C34.6133 37.2267 34.2933 36.5867 34.24 36.32C34.24 36.2667 34.24 36.24 34.24 36.24C34.2933 36.1867 34.3467 36.16 34.4 36.16C34.56 36.16 34.8267 36.5333 35.2 37.28C35.5733 37.9733 35.8933 38.6667 36.16 39.36C36.48 40.1067 36.8267 41.0133 37.2 42.08C37.6267 43.1467 37.84 43.8933 37.84 44.32C37.84 44.48 37.8667 44.6133 37.92 44.72C37.9733 44.7733 38 44.8267 38 44.88C38 44.9333 37.9733 45.0133 37.92 45.12C37.92 45.1733 37.92 45.3067 37.92 45.52C37.92 45.68 38 45.84 38.16 46C38.32 46.16 38.4 46.4 38.4 46.72C38.4 46.9333 38.4267 47.1467 38.48 47.36C38.5867 47.52 38.64 47.7333 38.64 48C38.64 48.16 38.5867 48.32 38.48 48.48C38.3733 48.5867 38.2933 48.64 38.24 48.64C38.1867 48.64 38.1333 48.64 38.08 48.64C38.0267 48.5867 38 48.5333 38 48.48C38 48.4267 38.0267 48.2933 38.08 48.08C38.1333 47.8133 38.16 47.6533 38.16 47.6C38.16 47.3867 38.1067 47.2 38 47.04C37.8933 46.8267 37.7333 46.6933 37.52 46.64C37.4667 46.5867 37.4133 46.5333 37.36 46.48C37.36 46.4267 37.36 46.2933 37.36 46.08C37.36 45.92 37.3067 45.7067 37.2 45.44C37.1467 45.1733 37.0933 44.96 37.04 44.8C37.04 44.5867 36.9067 44.3733 36.64 44.16C36.4267 43.9467 36.2667 43.84 36.16 43.84C35.9467 43.84 35.8133 43.9467 35.76 44.16C35.76 44.32 35.76 44.4533 35.76 44.56C35.76 44.7733 35.8667 44.9067 36.08 44.96C36.3467 44.96 36.48 45.12 36.48 45.44C36.48 45.8133 36.48 46.08 36.48 46.24C36.48 46.3467 36.4533 46.4 36.4 46.4C36.3467 46.4 36.2933 46.3467 36.24 46.24C36.24 46.08 36.2133 45.9467 36.16 45.84C36.1067 45.6267 36.0267 45.4933 35.92 45.44C35.8133 45.3333 35.76 45.1733 35.76 44.96C35.7067 44.8533 35.6 44.7733 35.44 44.72C35.3333 44.6133 35.28 44.4533 35.28 44.24C35.28 44.0267 35.36 43.92 35.52 43.92C35.7333 43.8667 35.84 43.7333 35.84 43.52C35.84 43.4667 35.8133 43.4133 35.76 43.36C35.7067 43.3067 35.6533 43.28 35.6 43.28C35.5467 43.28 35.4667 43.3333 35.36 43.44C35.3067 43.4933 35.2533 43.52 35.2 43.52C35.0933 43.52 35.0133 43.44 34.96 43.28C34.9067 43.12 34.88 42.9867 34.88 42.88C34.88 42.72 34.7733 42.56 34.56 42.4C34.3467 42.1867 34.16 42.08 34 42.08C33.8933 42.08 33.8133 42.1333 33.76 42.24C33.7067 42.3467 33.6267 42.4 33.52 42.4C33.4667 42.4 33.4133 42.4 33.36 42.4C33.36 42.3467 33.3333 42.2933 33.28 42.24C33.12 42.1867 32.96 42.1333 32.8 42.08C32.64 42.0267 32.5067 41.8933 32.4 41.68C32.4 41.52 32.3733 41.3333 32.32 41.12C32.2667 40.8533 32.1333 40.72 31.92 40.72C31.8133 40.72 31.7333 40.8 31.68 40.96C31.6267 41.0667 31.6 41.1467 31.6 41.2C31.6 41.2533 31.6 41.3067 31.6 41.36C31.6533 41.4133 31.68 41.44 31.68 41.44C31.68 41.4933 31.5733 41.52 31.36 41.52C31.2 41.52 31.0933 41.52 31.04 41.52C30.72 41.52 30.56 41.6 30.56 41.76C30.56 41.92 30.2133 42.0533 29.52 42.16C29.4133 42.16 29.28 42.2133 29.12 42.32C28.96 42.4267 28.7467 42.48 28.48 42.48C28.2667 42.48 28.0533 42.4267 27.84 42.32C27.6267 42.2133 27.44 42.08 27.28 41.92C27.0667 41.76 26.8533 41.6 26.64 41.44C26.48 41.28 26.3467 41.1467 26.24 41.04C26.1867 40.9867 26.1333 40.9333 26.08 40.88C26.0267 40.8267 25.9733 40.8 25.92 40.8C25.8667 40.8 25.8133 40.7733 25.76 40.72C25.76 40.6667 25.76 40.6133 25.76 40.56C25.76 40.5067 25.7067 40.4267 25.6 40.32C25.4933 40.2133 25.36 40.16 25.2 40.16C25.0933 40.16 25.0133 40.2133 24.96 40.32C24.96 40.3733 24.96 40.4267 24.96 40.48C24.96 40.5867 25.0133 40.6933 25.12 40.8C25.2267 40.9067 25.3067 40.96 25.36 40.96C25.4133 40.96 25.4667 40.96 25.52 40.96C25.5733 40.9067 25.6 40.9067 25.6 40.96C25.6 41.0133 25.52 41.12 25.36 41.28C25.2 41.3867 25.04 41.44 24.88 41.44C24.72 41.44 24.5867 41.4133 24.48 41.36C24.4267 41.3067 24.2933 41.28 24.08 41.28C24.0267 41.28 23.9467 41.3067 23.84 41.36C23.7333 41.4133 23.68 41.52 23.68 41.68C23.68 42 23.5467 42.1867 23.28 42.24C23.0133 42.2933 22.8 42.32 22.64 42.32C22.5333 42.32 22.4 42.3733 22.24 42.48C22.08 42.5333 21.9733 42.6667 21.92 42.88C21.76 43.0933 21.6533 43.28 21.6 43.44C21.5467 43.5467 21.52 43.6267 21.52 43.68C21.52 43.7333 21.5467 43.8133 21.6 43.92C21.6533 44.0267 21.68 44.1867 21.68 44.4C21.68 44.56 21.6 44.7467 21.44 44.96C21.28 45.1733 21.1733 45.3333 21.12 45.44C21.0667 45.4933 20.9867 45.6 20.88 45.76C20.8267 45.8667 20.7733 45.92 20.72 45.92C20.6667 45.92 20.64 45.8667 20.64 45.76C20.64 45.6533 20.64 45.5467 20.64 45.44C20.64 45.2267 20.6933 45.12 20.8 45.12C20.96 45.0667 21.0667 45.0133 21.12 44.96C21.1733 44.9067 21.2 44.8267 21.2 44.72C21.2533 44.56 21.28 44.4 21.28 44.24C21.28 44.08 21.2267 43.9467 21.12 43.84C21.0133 43.7333 20.9067 43.68 20.8 43.68C20.6933 43.68 20.6133 43.7067 20.56 43.76C20.56 43.8133 20.56 43.8933 20.56 44C20.56 44.1067 20.5333 44.2133 20.48 44.32C20.4267 44.4267 20.3733 44.5067 20.32 44.56C20.16 44.7733 20.0533 45.0667 20 45.44C20 45.76 20 46.08 20 46.4C20 46.6133 19.9733 46.8 19.92 46.96C19.8667 47.12 19.84 47.2267 19.84 47.28C19.84 47.3867 19.84 47.52 19.84 47.68C19.8933 47.7867 19.92 47.92 19.92 48.08C19.92 48.24 19.8667 48.4 19.76 48.56C19.6533 48.72 19.6 48.8267 19.6 48.88C19.6 49.04 19.6 49.2267 19.6 49.44C19.6533 49.6533 19.68 50.0533 19.68 50.64C19.68 50.8 19.7067 50.9333 19.76 51.04C19.8667 51.1467 19.9467 51.2 20 51.2C20.1067 51.2 20.1867 51.1733 20.24 51.12C20.3467 51.0133 20.4533 50.96 20.56 50.96C20.6133 50.96 20.6933 51.04 20.8 51.2C20.9067 51.3067 20.96 51.3867 20.96 51.44C20.96 51.4933 20.9067 51.5733 20.8 51.68C20.7467 51.7333 20.6933 51.7867 20.64 51.84C20.5867 51.8933 20.5333 52 20.48 52.16C20.4267 52.2667 20.4 52.3467 20.4 52.4C20.3467 52.4533 20.2667 52.5333 20.16 52.64C20.1067 52.6933 20.08 52.8267 20.08 53.04C20.08 53.2 20.16 53.3067 20.32 53.36C20.48 53.36 20.6133 53.4133 20.72 53.52C20.8267 53.6267 20.88 53.76 20.88 53.92C20.9333 54.0267 20.96 54.1333 20.96 54.24C20.96 54.3467 20.9867 54.4533 21.04 54.56C21.1467 54.6133 21.2533 54.6667 21.36 54.72C21.4667 54.7733 21.5467 54.8267 21.6 54.88C21.7067 54.88 21.76 54.9333 21.76 55.04C21.76 55.1467 21.7067 55.2267 21.6 55.28C21.5467 55.3333 21.4667 55.3867 21.36 55.44C21.3067 55.4933 21.2267 55.5733 21.12 55.68C21.0667 55.7333 21.04 55.7867 21.04 55.84C21.04 55.8933 21.0667 55.9733 21.12 56.08C21.1733 56.1333 21.2533 56.16 21.36 56.16C21.4667 56.16 21.6 56.1333 21.76 56.08C21.92 55.9733 22.08 55.92 22.24 55.92C22.4533 55.92 22.64 56 22.8 56.16C23.0133 56.32 23.12 56.4533 23.12 56.56C23.12 56.72 23.0133 56.8533 22.8 56.96C22.64 57.0133 22.56 57.12 22.56 57.28C22.56 57.3333 22.56 57.3867 22.56 57.44C22.6133 57.4933 22.72 57.52 22.88 57.52C23.04 57.52 23.2267 57.3867 23.44 57.12C23.6533 56.8533 23.76 56.6933 23.76 56.64C23.76 56.5867 23.7333 56.5333 23.68 56.48C23.68 56.4267 23.68 56.3733 23.68 56.32C23.68 56.2667 23.7067 56.2133 23.76 56.16C23.8133 56.1067 23.8933 56.08 24 56.08C24.16 56.08 24.2933 56.16 24.4 56.32C24.5067 56.48 24.7733 56.56 25.2 56.56C25.4667 56.56 25.6533 56.5333 25.76 56.48C25.8667 56.3733 25.9467 56.2933 26 56.24C26.0533 56.1867 26.1067 56.1333 26.16 56.08C26.2667 55.9733 26.3733 55.92 26.48 55.92C26.5867 55.92 26.6667 56 26.72 56.16C26.8267 56.2667 26.88 56.3467 26.88 56.4C26.88 56.4533 26.8267 56.5867 26.72 56.8C26.6667 56.96 26.64 57.0933 26.64 57.2C26.64 57.36 26.5867 57.4667 26.48 57.52C26.3733 57.52 26.2933 57.52 26.24 57.52C26.1867 57.52 26.1067 57.5467 26 57.6C25.9467 57.6 25.92 57.68 25.92 57.84C25.92 57.9467 25.9733 58.1067 26.08 58.32C26.1867 58.48 26.2933 58.6133 26.4 58.72C26.56 58.8267 26.64 58.96 26.64 59.12C26.6933 59.2267 26.72 59.3067 26.72 59.36C26.72 59.4133 26.72 59.52 26.72 59.68C26.7733 59.7867 26.9067 59.84 27.12 59.84C27.2267 59.84 27.28 59.7333 27.28 59.52C27.3333 59.3067 27.4667 59.2 27.68 59.2C27.7867 59.2 27.8933 59.28 28 59.44C28.16 59.5467 28.2667 59.6 28.32 59.6C28.48 59.6 28.5867 59.52 28.64 59.36C28.7467 59.2 28.88 59.12 29.04 59.12C29.1467 59.12 29.2267 59.2 29.28 59.36C29.3333 59.52 29.4667 59.6 29.68 59.6C29.7867 59.6 29.8667 59.5467 29.92 59.44C30.0267 59.28 30.1067 59.12 30.16 58.96C30.2133 58.8533 30.2933 58.8 30.4 58.8C30.5067 58.7467 30.5867 58.6933 30.64 58.64C30.6933 58.5867 30.7733 58.5333 30.88 58.48C31.04 58.3733 31.1733 58.2933 31.28 58.24C31.5467 57.92 31.76 57.7333 31.92 57.68C32.08 57.6267 32.1867 57.5733 32.24 57.52C32.2933 57.4667 32.3467 57.4133 32.4 57.36C32.4533 57.3067 32.48 57.2533 32.48 57.2C32.48 57.1467 32.48 57.0667 32.48 56.96C32.48 56.8533 32.4533 56.7733 32.4 56.72C32.4 56.6133 32.3733 56.4533 32.32 56.24C32.32 55.9733 32.2667 55.8133 32.16 55.76C32.1067 55.7067 32.0533 55.6267 32 55.52C31.9467 55.4133 31.8933 55.3067 31.84 55.2C31.7333 55.04 31.5733 54.9333 31.36 54.88C31.2 54.8267 31.0667 54.8 30.96 54.8C30.8 54.8 30.6933 54.8533 30.64 54.96C30.5867 55.0667 30.56 55.1467 30.56 55.2C30.56 55.3067 30.5333 55.4133 30.48 55.52C30.48 55.6267 30.4533 55.68 30.4 55.68C30.3467 55.68 30.2933 55.6 30.24 55.44C30.1867 55.28 30.0533 55.2 29.84 55.2C29.6267 55.2 29.4667 55.28 29.36 55.44C29.2533 55.6 29.12 55.68 28.96 55.68C28.7467 55.68 28.56 55.6267 28.4 55.52C28.2933 55.36 28.1333 55.28 27.92 55.28C27.76 55.28 27.6267 55.3067 27.52 55.36C27.4667 55.4133 27.4133 55.44 27.36 55.44C27.3067 55.44 27.28 55.4133 27.28 55.36C27.28 55.2533 27.2533 55.1733 27.2 55.12C27.2 55.0667 27.1467 55.0133 27.04 54.96C26.9867 54.9067 26.9067 54.8533 26.8 54.8C26.6933 54.8 26.56 54.8 26.4 54.8C26.24 54.7467 26.1333 54.6933 26.08 54.64C25.7067 54.4267 25.44 54.2933 25.28 54.24C25.12 54.1333 24.88 53.92 24.56 53.6C23.8667 52.9067 23.2533 52.1867 22.72 51.44C22.24 50.6933 22 49.9733 22 49.28C22 49.12 22 49.04 22 49.04C22.0533 48.9867 22.1067 48.96 22.16 48.96C22.2133 48.96 22.3467 49.3333 22.56 50.08C22.7733 50.8267 23.3867 51.5467 24.4 52.24C24.6133 52.3467 24.8 52.4533 24.96 52.56C25.1733 52.6667 25.3333 52.72 25.44 52.72C25.5467 52.7733 25.7067 52.88 25.92 53.04C26.1333 53.1467 26.2933 53.2267 26.4 53.28C26.5067 53.3333 26.7467 53.3867 27.12 53.44C27.5467 53.4933 28.0533 53.52 28.64 53.52C29.6533 53.52 30.4 53.4133 30.88 53.2C31.4133 52.9867 31.92 52.6933 32.4 52.32C32.4533 52.2667 32.64 52.08 32.96 51.76C33.3333 51.3867 33.5733 51.0933 33.68 50.88C34.0533 50.6667 34.32 50.4267 34.48 50.16C34.6933 49.8933 34.9867 49.4933 35.36 48.96C35.4133 48.8 35.4933 48.6933 35.6 48.64C35.7067 48.5333 35.7867 48.48 35.84 48.48C35.84 48.48 35.7867 48.6133 35.68 48.88C35.6267 49.0933 35.5467 49.3067 35.44 49.52C35.0667 50.0533 34.64 50.6133 34.16 51.2C33.7333 51.7333 33.4667 52.24 33.36 52.72C33.2 52.88 33.0933 53.0133 33.04 53.12C33.04 53.2267 33.0133 53.3067 32.96 53.36L32.64 53.76C32.5867 53.8133 32.5333 53.8933 32.48 54C32.4267 54.1067 32.3733 54.1867 32.32 54.24C32.2667 54.2933 32.1867 54.3467 32.08 54.4C32.0267 54.4 31.9733 54.4 31.92 54.4C31.8667 54.4 31.7867 54.4267 31.68 54.48C31.6267 54.48 31.6 54.5333 31.6 54.64C31.6 54.6933 31.76 54.8267 32.08 55.04C32.4533 55.2 32.6933 55.28 32.8 55.28C32.8533 55.28 32.9333 55.2533 33.04 55.2C33.1467 55.1467 33.2533 55.12 33.36 55.12C33.4667 55.12 33.5467 55.2 33.6 55.36C33.7067 55.4667 33.76 55.5467 33.76 55.6C33.76 55.6533 33.7333 55.7067 33.68 55.76C33.68 55.8133 33.68 55.8667 33.68 55.92C33.68 56.08 33.7333 56.2133 33.84 56.32C34 56.3733 34.1333 56.4 34.24 56.4C34.3467 56.4 34.4267 56.3733 34.48 56.32C34.5333 56.2667 34.56 56.2133 34.56 56.16C34.56 56.0533 34.5333 55.9733 34.48 55.92C34.4267 55.8133 34.4 55.7333 34.4 55.68C34.4 55.6267 34.4 55.5733 34.4 55.52C34.4533 55.4133 34.48 55.3067 34.48 55.2C34.48 55.1467 34.4533 55.0667 34.4 54.96C34.4 54.8533 34.4 54.7733 34.4 54.72C34.4 54.6667 34.4 54.5867 34.4 54.48C34.4533 54.3733 34.48 54.2133 34.48 54C34.48 53.9467 34.5067 53.8933 34.56 53.84C34.6133 53.7867 34.6667 53.76 34.72 53.76C34.7733 53.76 34.8533 53.7867 34.96 53.84C35.12 53.84 35.2267 53.84 35.28 53.84C35.5467 53.84 35.8933 53.7333 36.32 53.52C36.8 53.3067 37.04 53.0133 37.04 52.64C37.04 52.2133 37.0667 51.84 37.12 51.52C37.2267 51.2 37.3867 50.8533 37.6 50.48C37.6 50.4267 37.6 50.3733 37.6 50.32C37.6533 50.2667 37.7067 50.24 37.76 50.24C37.8133 50.24 37.8667 50.2667 37.92 50.32C38.0267 50.32 38.1067 50.32 38.16 50.32C38.2133 50.32 38.2667 50.32 38.32 50.32C38.3733 50.32 38.4 50.3467 38.4 50.4C38.4 50.4533 38.3733 50.5067 38.32 50.56C38.2667 50.56 38.2133 50.56 38.16 50.56C38.1067 50.6133 38.0267 50.6667 37.92 50.72C37.8667 50.7733 37.84 50.9067 37.84 51.12C37.84 51.3867 37.8933 51.6267 38 51.84C38.16 52 38.3467 52.08 38.56 52.08C38.72 52.08 38.8267 52.0267 38.88 51.92C38.9867 51.76 39.04 51.6533 39.04 51.6C39.04 51.4933 39.0133 51.3867 38.96 51.28C38.9067 51.1733 38.88 51.0933 38.88 51.04C38.88 50.8267 39.04 50.6133 39.36 50.4C39.68 50.1867 39.84 49.9733 39.84 49.76C39.84 49.7067 39.8133 49.6533 39.76 49.6C39.76 49.5467 39.76 49.4667 39.76 49.36C39.76 49.2 39.7867 49.0933 39.84 49.04C39.9467 48.9333 40.0267 48.88 40.08 48.88C40.2933 48.88 40.4267 48.96 40.48 49.12C40.5867 49.28 40.7467 49.36 40.96 49.36C41.28 49.36 41.4667 49.1467 41.52 48.72C41.5733 48.2933 41.6 47.84 41.6 47.36C41.6 47.0933 41.6267 46.88 41.68 46.72C41.7867 46.56 41.84 46.3733 41.84 46.16ZM8.16 36.48C8 35.84 7.84 35.36 7.68 35.04C7.57333 34.72 7.44 34.4533 7.28 34.24C7.17333 34.08 7.04 33.9733 6.88 33.92C6.72 33.8133 6.61333 33.76 6.56 33.76C6.45333 33.76 6.37333 33.8133 6.32 33.92C6.32 33.9733 6.32 34.0533 6.32 34.16C6.32 34.6933 6.50667 35.3067 6.88 36C7.25333 36.6933 7.54667 37.3067 7.76 37.84C7.86667 38.2133 8 38.5333 8.16 38.8C8.37333 39.0133 8.50667 39.12 8.56 39.12C8.61333 39.12 8.64 39.12 8.64 39.12C8.69333 39.0667 8.72 39.0133 8.72 38.96C8.72 38.9067 8.66667 38.64 8.56 38.16C8.50667 37.68 8.37333 37.12 8.16 36.48ZM32.24 33.76C32.08 33.76 31.9733 33.84 31.92 34C31.8667 34.16 31.7867 34.3467 31.68 34.56C31.6267 34.6667 31.5467 34.8 31.44 34.96C31.3867 35.0667 31.36 35.1467 31.36 35.2C31.36 35.3067 31.3867 35.4133 31.44 35.52C31.4933 35.6267 31.68 35.68 32 35.68C32.32 35.68 32.5067 35.5467 32.56 35.28C32.6133 35.0133 32.64 34.7467 32.64 34.48C32.64 34.2667 32.5867 34.1067 32.48 34C32.3733 33.84 32.2933 33.76 32.24 33.76ZM26.56 36.32C26.4 36.1067 26.2133 35.9733 26 35.92C25.7867 35.8133 25.5733 35.76 25.36 35.76C25.1467 35.76 24.96 35.8133 24.8 35.92C24.6933 36.0267 24.64 36.1867 24.64 36.4C24.64 36.6133 24.6667 36.7467 24.72 36.8C24.8267 36.8533 24.9067 36.88 24.96 36.88C25.0133 36.88 25.04 36.88 25.04 36.88C25.0933 36.8267 25.12 36.7733 25.12 36.72C25.12 36.72 25.0667 36.72 24.96 36.72C24.9067 36.6667 24.88 36.56 24.88 36.4C24.88 36.2933 24.9333 36.2133 25.04 36.16C25.2 36.1067 25.3067 36.08 25.36 36.08C25.4133 36.08 25.4933 36.1067 25.6 36.16C25.76 36.16 25.8933 36.2133 26 36.32C26.16 36.48 26.3733 36.7467 26.64 37.12C26.9067 37.4933 27.12 37.68 27.28 37.68C27.3333 37.68 27.36 37.68 27.36 37.68C27.4133 37.6267 27.44 37.5733 27.44 37.52C27.44 37.4667 27.3333 37.3333 27.12 37.12C26.96 36.8533 26.7733 36.5867 26.56 36.32ZM30.96 36C30.5867 36 30.2933 36.08 30.08 36.24C29.8667 36.4 29.68 36.5867 29.52 36.8C29.4667 36.9067 29.36 37.0133 29.2 37.12C29.0933 37.2267 29.04 37.3067 29.04 37.36C29.04 37.4133 29.04 37.4667 29.04 37.52C29.0933 37.52 29.1467 37.52 29.2 37.52C29.2533 37.52 29.3333 37.4667 29.44 37.36C29.6 37.2 29.7067 37.0667 29.76 36.96C29.92 36.7467 30.08 36.5867 30.24 36.48C30.4 36.32 30.5867 36.24 30.8 36.24C31.0133 36.24 31.1467 36.2933 31.2 36.4C31.3067 36.5067 31.36 36.64 31.36 36.8C31.36 36.96 31.3333 37.12 31.28 37.28C31.2267 37.3867 31.2 37.4667 31.2 37.52C31.2 37.5733 31.2 37.6267 31.2 37.68C31.2533 37.68 31.3067 37.68 31.36 37.68C31.36 37.68 31.36 37.6533 31.36 37.6C31.4133 37.4933 31.4667 37.4133 31.52 37.36C31.5733 37.3067 31.6 37.2267 31.6 37.12C31.6533 36.96 31.68 36.7733 31.68 36.56C31.68 36.4 31.6 36.2667 31.44 36.16C31.3333 36.0533 31.1733 36 30.96 36ZM30 37.84C29.9467 37.84 29.7067 37.9467 29.28 38.16C28.8533 38.32 28.48 38.4 28.16 38.4C27.8933 38.4 27.6533 38.3467 27.44 38.24C27.2267 38.08 27.0667 38 26.96 38C26.9067 38 26.8533 38.0267 26.8 38.08C26.7467 38.08 26.72 38.1867 26.72 38.4C26.72 38.4533 26.7733 38.56 26.88 38.72C26.9867 38.88 27.0933 38.9867 27.2 39.04C27.2533 39.1467 27.3333 39.2533 27.44 39.36C27.6 39.4133 27.76 39.44 27.92 39.44C28.08 39.44 28.2133 39.4133 28.32 39.36C28.4267 39.3067 28.56 39.28 28.72 39.28C28.88 39.28 28.9867 39.3067 29.04 39.36C29.0933 39.4133 29.2267 39.44 29.44 39.44C29.8133 39.44 30.0533 39.3067 30.16 39.04C30.2667 38.7733 30.32 38.56 30.32 38.4C30.32 38.1867 30.2667 38.0533 30.16 38C30.1067 37.8933 30.0533 37.84 30 37.84ZM35.12 46.56C35.28 46.9333 35.36 47.2 35.36 47.36C35.4133 47.4667 35.44 47.5467 35.44 47.6H35.12C35.0667 47.6 34.9867 47.6267 34.88 47.68C34.7733 47.68 34.6133 47.7867 34.4 48C34.1867 48.2133 34 48.4267 33.84 48.64C33.68 48.8533 33.6 48.96 33.6 48.96C33.5467 48.96 33.4933 48.96 33.44 48.96C33.44 48.9067 33.44 48.8533 33.44 48.8C33.44 48.8 33.4933 48.7467 33.6 48.64C33.76 48.48 33.84 48.3467 33.84 48.24C33.84 48.1333 33.8133 48.0533 33.76 48C33.7067 47.9467 33.6533 47.92 33.6 47.92C33.5467 47.92 33.4933 47.9733 33.44 48.08C33.44 48.1333 33.4133 48.1867 33.36 48.24C33.3067 48.2933 33.2267 48.3733 33.12 48.48C33.0667 48.5333 33.0133 48.56 32.96 48.56C32.9067 48.56 32.8267 48.5867 32.72 48.64C32.6667 48.64 32.6133 48.6933 32.56 48.8C32.5067 48.96 32.4267 49.1467 32.32 49.36C32.2667 49.52 32.1867 49.6267 32.08 49.68C32.0267 49.7333 31.9733 49.8133 31.92 49.92C31.8667 49.9733 31.84 50.0267 31.84 50.08C31.7867 50.1333 31.7333 50.24 31.68 50.4C31.6267 50.5067 31.5733 50.5867 31.52 50.64C31.4667 50.6933 31.3867 50.7733 31.28 50.88C31.2267 50.9867 31.1733 51.0667 31.12 51.12C31.0667 51.1733 30.9867 51.2267 30.88 51.28C30.8267 51.3333 30.72 51.36 30.56 51.36C30.4533 51.4133 30.3733 51.4667 30.32 51.52C30.2667 51.5733 30.2133 51.6267 30.16 51.68C30.1067 51.7333 30 51.84 29.84 52C29.68 52.1067 29.5467 52.16 29.44 52.16C29.3867 52.16 29.3333 52.1067 29.28 52C29.2267 51.84 29.12 51.76 28.96 51.76C28.7467 51.76 28.6133 51.8133 28.56 51.92C28.56 51.9733 28.5333 52 28.48 52C28.4267 52 28.3733 51.9467 28.32 51.84C28.2667 51.7333 28.2133 51.68 28.16 51.68C28.0533 51.68 27.92 51.6533 27.76 51.6C27.6533 51.4933 27.5733 51.44 27.52 51.44C27.3067 51.44 27.2 51.4933 27.2 51.6C27.2 51.6533 27.1467 51.68 27.04 51.68C26.9333 51.68 26.8267 51.6 26.72 51.44C26.6667 51.2267 26.56 51.12 26.4 51.12C26.1333 51.0133 25.76 50.6933 25.28 50.16C24.8 49.5733 24.56 49.1733 24.56 48.96C24.56 48.9067 24.5333 48.8533 24.48 48.8C24.4267 48.6933 24.3733 48.6133 24.32 48.56C24.2667 48.5067 24.1333 48.3467 23.92 48.08C23.7067 47.76 23.4133 47.6 23.04 47.6C22.7733 47.6 22.5867 47.68 22.48 47.84C22.3733 47.9467 22.2667 48 22.16 48C22.1067 48 22.0267 47.8667 21.92 47.6C21.8667 47.28 21.84 46.9333 21.84 46.56C21.84 46.24 21.92 45.84 22.08 45.36C22.24 44.88 22.48 44.48 22.8 44.16C23.0667 43.84 23.3867 43.52 23.76 43.2C24.1867 42.88 24.6667 42.72 25.2 42.72C25.84 42.72 26.4533 42.8267 27.04 43.04C27.68 43.2 28.1067 43.28 28.32 43.28C28.64 43.28 28.9867 43.2267 29.36 43.12C29.7333 42.96 30.2667 42.88 30.96 42.88C31.4933 42.88 31.9733 42.9867 32.4 43.2C32.8267 43.36 33.2 43.6267 33.52 44C33.84 44.3733 34.16 44.8 34.48 45.28C34.8 45.76 35.0133 46.1867 35.12 46.56ZM32.88 44.96C32.72 44.64 32.5867 44.4533 32.48 44.4C32.3733 44.2933 32.24 44.24 32.08 44.24C31.8667 44.24 31.7067 44.3467 31.6 44.56C31.4933 44.72 31.44 44.8533 31.44 44.96C31.44 45.0667 31.44 45.2 31.44 45.36C31.4933 45.52 31.52 45.6267 31.52 45.68C31.52 45.7333 31.4933 45.8133 31.44 45.92C31.44 45.9733 31.4133 46 31.36 46C31.36 46 31.3333 45.92 31.28 45.76C31.28 45.5467 31.28 45.36 31.28 45.2C31.28 44.9867 31.2267 44.8 31.12 44.64C31.0667 44.48 30.9867 44.32 30.88 44.16C30.8267 44.0533 30.6933 43.9733 30.48 43.92C30.2667 43.8133 30.1333 43.76 30.08 43.76C30.0267 43.76 29.8933 43.7867 29.68 43.84C29.52 43.84 29.3333 43.8933 29.12 44C28.8533 44.1067 28.6667 44.2933 28.56 44.56C28.5067 44.7733 28.48 44.9067 28.48 44.96C28.48 45.0133 28.4533 45.12 28.4 45.28C28.4 45.44 28.3733 45.52 28.32 45.52C28.2667 45.52 28.24 45.44 28.24 45.28C28.24 45.0667 28.24 44.8 28.24 44.48C28.24 44.2133 28.08 44.0267 27.76 43.92C27.44 43.76 27.1733 43.68 26.96 43.68C26.7467 43.68 26.56 43.7867 26.4 44C26.24 44.16 26.1333 44.4267 26.08 44.8C25.92 45.1733 25.8133 45.6 25.76 46.08C25.7067 46.56 25.68 46.9067 25.68 47.12C25.68 47.3333 25.8933 47.4933 26.32 47.6C26.7467 47.7067 27.0933 47.76 27.36 47.76C27.7867 47.76 28.0267 47.7067 28.08 47.6C28.1867 47.44 28.24 47.3067 28.24 47.2C28.24 47.1467 28.24 47.0667 28.24 46.96C28.2933 46.8533 28.3467 46.8 28.4 46.8C28.4533 46.8 28.48 46.88 28.48 47.04C28.5333 47.2 28.5867 47.36 28.64 47.52C28.6933 47.5733 28.8267 47.6533 29.04 47.76C29.2533 47.8667 29.5467 47.92 29.92 47.92C30.24 47.92 30.48 47.8667 30.64 47.76C30.8 47.6533 30.96 47.5467 31.12 47.44C31.2267 47.3333 31.28 47.2 31.28 47.04C31.3333 46.8267 31.36 46.6933 31.36 46.64C31.36 46.5867 31.36 46.5333 31.36 46.48C31.4133 46.3733 31.4667 46.32 31.52 46.32C31.5733 46.32 31.6 46.3733 31.6 46.48C31.6533 46.5867 31.7067 46.7467 31.76 46.96C31.8133 47.1733 31.92 47.3333 32.08 47.44C32.24 47.4933 32.3733 47.52 32.48 47.52C32.6933 47.52 32.9067 47.3867 33.12 47.12C33.3333 46.8 33.44 46.6133 33.44 46.56C33.44 46.5067 33.3867 46.32 33.28 46C33.1733 45.6267 33.04 45.28 32.88 44.96ZM25.2 44.4C24.9333 44.4 24.72 44.56 24.56 44.88C24.4 45.1467 24.2667 45.3867 24.16 45.6C24.1067 45.8133 24.0533 46.0533 24 46.32C24 46.5333 24 46.7467 24 46.96C24 47.1733 24.0267 47.3333 24.08 47.44C24.1867 47.4933 24.2933 47.52 24.4 47.52C24.6133 47.52 24.8 47.4667 24.96 47.36C25.1733 47.2 25.28 47.0667 25.28 46.96C25.3333 46.9067 25.3867 46.6133 25.44 46.08C25.5467 45.5467 25.6 45.2267 25.6 45.12C25.6 45.0133 25.5733 44.88 25.52 44.72C25.52 44.5067 25.4133 44.4 25.2 44.4ZM25.36 48.64C25.36 48.48 25.2533 48.3733 25.04 48.32C24.88 48.2133 24.7733 48.16 24.72 48.16C24.6667 48.16 24.5867 48.1867 24.48 48.24C24.4267 48.24 24.4 48.2667 24.4 48.32C24.4 48.48 24.4533 48.5867 24.56 48.64C24.72 48.6933 24.8267 48.7467 24.88 48.8C24.9333 48.9067 24.9867 49.0133 25.04 49.12C25.1467 49.1733 25.2267 49.2 25.28 49.2C25.3333 49.2 25.36 49.1733 25.36 49.12C25.36 49.0133 25.36 48.8533 25.36 48.64ZM27.2 50.56C27.2 50.5067 27.1733 50.2667 27.12 49.84C27.12 49.36 27.12 49.04 27.12 48.88C27.12 48.72 27.04 48.6133 26.88 48.56C26.7733 48.4533 26.6133 48.4 26.4 48.4C26.1867 48.4 26 48.48 25.84 48.64C25.68 48.7467 25.6 49.0667 25.6 49.6C25.6 49.6533 25.7067 49.7867 25.92 50C26.1333 50.2133 26.32 50.4 26.48 50.56C26.64 50.72 26.7467 50.8267 26.8 50.88C26.9067 50.88 26.9867 50.88 27.04 50.88C27.0933 50.88 27.12 50.8533 27.12 50.8C27.1733 50.6933 27.2 50.6133 27.2 50.56ZM30.8 48.56C30.5867 48.56 30.4267 48.6667 30.32 48.88C30.2667 49.04 30.24 49.1467 30.24 49.2C30.24 49.2533 30.24 49.3333 30.24 49.44C30.24 49.4933 30.2133 49.52 30.16 49.52C30.1067 49.52 30.0533 49.44 30 49.28C30 49.0667 30 48.9333 30 48.88C30 48.7733 29.9467 48.6933 29.84 48.64C29.7867 48.5867 29.6267 48.56 29.36 48.56C29.04 48.56 28.8533 48.6133 28.8 48.72C28.7467 48.8267 28.6933 48.88 28.64 48.88C28.5867 48.88 28.5333 48.8533 28.48 48.8C28.48 48.6933 28.2933 48.64 27.92 48.64C27.7067 48.64 27.5467 48.6667 27.44 48.72C27.3333 48.7733 27.28 48.8267 27.28 48.88C27.28 48.9333 27.3067 49.2267 27.36 49.76C27.4133 50.2933 27.44 50.5867 27.44 50.64C27.44 50.7467 27.5733 50.88 27.84 51.04C28.1067 51.1467 28.2667 51.2 28.32 51.2C28.3733 51.2 28.4 51.2 28.4 51.2C28.4533 51.1467 28.48 51.0933 28.48 51.04C28.48 50.9867 28.48 50.9067 28.48 50.8C28.5333 50.6933 28.5867 50.64 28.64 50.64C28.6933 50.64 28.72 50.6933 28.72 50.8C28.7733 50.8533 28.8 50.9067 28.8 50.96C28.8 51.0133 28.8533 51.0933 28.96 51.2C29.0667 51.3067 29.2267 51.36 29.44 51.36C29.6533 51.36 29.7867 51.3067 29.84 51.2C29.9467 51.0933 30 50.8 30 50.32C30 50.16 30 50.0533 30 50C30.0533 49.9467 30.1067 49.92 30.16 49.92C30.2133 49.92 30.24 50 30.24 50.16C30.2933 50.2667 30.32 50.4 30.32 50.56C30.32 50.6667 30.3467 50.7467 30.4 50.8C30.4533 50.8 30.5067 50.8 30.56 50.8C30.6133 50.8 30.6933 50.8 30.8 50.8C30.9067 50.7467 30.9867 50.6933 31.04 50.64C31.1467 50.5867 31.2267 50.48 31.28 50.32C31.3867 50.16 31.4667 50.0267 31.52 49.92C31.5733 49.8133 31.6533 49.68 31.76 49.52C31.8667 49.3067 31.92 49.0933 31.92 48.88C31.92 48.72 31.7867 48.64 31.52 48.64C31.3067 48.5867 31.0667 48.56 30.8 48.56Z" fill="black"/>
</svg>
