<svg width="52" height="52" viewBox="0 0 52 52" fill="none" xmlns="http://www.w3.org/2000/svg">
<path d="M47.6667 0H4.33333C1.94393 0 0 1.94393 0 4.33333V31.2V34.6667C0 37.0561 1.94393 39 4.33333 39H18.8951L17.4772 46.8H14.0721C13.0806 46.8 12.1897 47.3503 11.7459 48.2369C11.3403 49.049 11.3828 49.9945 11.8595 50.7667C12.3361 51.5389 13.1638 52 14.0712 52H37.9279C38.8353 52 39.6621 51.5389 40.1397 50.7667C40.6172 49.9945 40.6597 49.049 40.2532 48.2369C39.8112 47.3503 38.9203 46.8 37.9288 46.8H34.5237L33.1058 39H47.6667C50.0561 39 52 37.0561 52 34.6667V31.2V4.33333C52 1.94393 50.0561 0 47.6667 0ZM33.8 48.5333H37.9288C38.259 48.5333 38.5563 48.7171 38.7045 49.0126C38.8995 49.4026 38.7426 49.7319 38.6672 49.8559C38.5892 49.9789 38.3647 50.2667 37.9288 50.2667H14.0712C13.6353 50.2667 13.4099 49.9789 13.3337 49.855C13.2574 49.7311 13.1005 49.4026 13.2964 49.0117C13.4437 48.7171 13.741 48.5333 14.0712 48.5333H18.2H25.1333C25.6117 48.5333 26 48.1451 26 47.6667C26 47.1883 25.6117 46.8 25.1333 46.8H19.2383L20.6561 39H31.343L32.7617 46.8H30.3333C29.8549 46.8 29.4667 47.1883 29.4667 47.6667C29.4667 48.1451 29.8549 48.5333 30.3333 48.5333H33.8ZM50.2667 34.6667C50.2667 36.1001 49.1001 37.2667 47.6667 37.2667H32.0667H19.9333H4.33333C2.89987 37.2667 1.73333 36.1001 1.73333 34.6667V32.0667H50.2667V34.6667ZM50.2667 30.3333H1.73333V4.33333C1.73333 2.89987 2.89987 1.73333 4.33333 1.73333H47.6667C49.1001 1.73333 50.2667 2.89987 50.2667 4.33333V30.3333Z" fill="#FECC2F"/>
<path d="M23.3982 17.3334H14.7315V8.66672C14.7315 8.18832 14.3432 7.80005 13.8648 7.80005C8.13011 7.80005 3.46484 12.4653 3.46484 18.2001C3.46484 23.9348 8.13011 28.6001 13.8648 28.6001C19.5996 28.6001 24.2648 23.9348 24.2648 18.2001C24.2648 17.7217 23.8766 17.3334 23.3982 17.3334ZM13.8648 26.8667C9.08604 26.8667 5.19818 22.9789 5.19818 18.2001C5.19818 13.7142 8.62498 10.0126 12.9982 9.57672V18.2001C12.9982 18.6785 13.3864 19.0667 13.8648 19.0667H22.4882C22.0522 23.4399 18.3507 26.8667 13.8648 26.8667Z" fill="#FECC2F"/>
<path d="M17.3315 4.33325C16.8531 4.33325 16.4648 4.72152 16.4648 5.19992V14.7333C16.4648 15.2117 16.8531 15.5999 17.3315 15.5999H26.8648C27.3432 15.5999 27.7315 15.2117 27.7315 14.7333C27.7315 8.99852 23.0662 4.33325 17.3315 4.33325ZM18.1982 13.8666V6.10992C22.2862 6.51725 25.5475 9.77852 25.9548 13.8666H18.1982Z" fill="#FECC2F"/>
<path d="M47.6648 3.46655H30.3315C29.8531 3.46655 29.4648 3.85482 29.4648 4.33322V27.7332C29.4648 28.2116 29.8531 28.5999 30.3315 28.5999H47.6648C48.1432 28.5999 48.5315 28.2116 48.5315 27.7332V4.33322C48.5315 3.85482 48.1432 3.46655 47.6648 3.46655ZM46.7982 26.8666H31.1982V5.19989H46.7982V26.8666Z" fill="#FECC2F"/>
<path d="M39.0003 7.80005H33.8003C33.3219 7.80005 32.9336 8.18832 32.9336 8.66672C32.9336 9.14511 33.3219 9.53338 33.8003 9.53338H39.0003C39.4787 9.53338 39.8669 9.14511 39.8669 8.66672C39.8669 8.18832 39.4787 7.80005 39.0003 7.80005Z" fill="#FECC2F"/>
<path d="M44.2003 11.2666H33.8003C33.3219 11.2666 32.9336 11.6549 32.9336 12.1333C32.9336 12.6117 33.3219 12.9999 33.8003 12.9999H44.2003C44.6787 12.9999 45.0669 12.6117 45.0669 12.1333C45.0669 11.6549 44.6787 11.2666 44.2003 11.2666Z" fill="#FECC2F"/>
<path d="M39.0003 14.7334H33.8003C33.3219 14.7334 32.9336 15.1217 32.9336 15.6001C32.9336 16.0785 33.3219 16.4667 33.8003 16.4667H39.0003C39.4787 16.4667 39.8669 16.0785 39.8669 15.6001C39.8669 15.1217 39.4787 14.7334 39.0003 14.7334Z" fill="#FECC2F"/>
<path d="M44.2003 18.2H33.8003C33.3219 18.2 32.9336 18.5882 32.9336 19.0666C32.9336 19.545 33.3219 19.9333 33.8003 19.9333H44.2003C44.6787 19.9333 45.0669 19.545 45.0669 19.0666C45.0669 18.5882 44.6787 18.2 44.2003 18.2Z" fill="#FECC2F"/>
<path d="M39.0003 21.6667H33.8003C33.3219 21.6667 32.9336 22.055 32.9336 22.5334C32.9336 23.0118 33.3219 23.4001 33.8003 23.4001H39.0003C39.4787 23.4001 39.8669 23.0118 39.8669 22.5334C39.8669 22.055 39.4787 21.6667 39.0003 21.6667Z" fill="#FECC2F"/>
<path d="M27.7318 33.8H24.2651C23.7867 33.8 23.3984 34.1883 23.3984 34.6667C23.3984 35.1451 23.7867 35.5334 24.2651 35.5334H27.7318C28.2102 35.5334 28.5984 35.1451 28.5984 34.6667C28.5984 34.1883 28.2102 33.8 27.7318 33.8Z" fill="#FECC2F"/>
</svg>
