<svg width="25" height="24" viewBox="0 0 25 24" fill="none" xmlns="http://www.w3.org/2000/svg">
<path d="M22.0234 0H2.02344C0.920638 0 0.0234375 0.8972 0.0234375 2V14.4V16C0.0234375 17.1028 0.920638 18 2.02344 18H8.74424L8.08984 21.6H6.51824C6.06064 21.6 5.64944 21.854 5.44464 22.2632C5.25744 22.638 5.27704 23.0744 5.49704 23.4308C5.71704 23.7872 6.09904 24 6.51784 24H17.5286C17.9474 24 18.329 23.7872 18.5494 23.4308C18.7698 23.0744 18.7894 22.638 18.6018 22.2632C18.3978 21.854 17.9866 21.6 17.529 21.6H15.9574L15.303 18H22.0234C23.1262 18 24.0234 17.1028 24.0234 16V14.4V2C24.0234 0.8972 23.1262 0 22.0234 0ZM15.6234 22.4H17.529C17.6814 22.4 17.8186 22.4848 17.887 22.6212C17.977 22.8012 17.9046 22.9532 17.8698 23.0104C17.8338 23.0672 17.7302 23.2 17.529 23.2H6.51784C6.31664 23.2 6.21264 23.0672 6.17744 23.01C6.14224 22.9528 6.06984 22.8012 6.16024 22.6208C6.22824 22.4848 6.36544 22.4 6.51784 22.4H8.42344H11.6234C11.8442 22.4 12.0234 22.2208 12.0234 22C12.0234 21.7792 11.8442 21.6 11.6234 21.6H8.90264L9.55704 18H14.4894L15.1442 21.6H14.0234C13.8026 21.6 13.6234 21.7792 13.6234 22C13.6234 22.2208 13.8026 22.4 14.0234 22.4H15.6234ZM23.2234 16C23.2234 16.6616 22.685 17.2 22.0234 17.2H14.8234H9.22344H2.02344C1.36184 17.2 0.823438 16.6616 0.823438 16V14.8H23.2234V16ZM23.2234 14H0.823438V2C0.823438 1.3384 1.36184 0.8 2.02344 0.8H22.0234C22.685 0.8 23.2234 1.3384 23.2234 2V14Z" fill="#FECC2F"/>
</svg>
