<svg width="59" height="60" viewBox="0 0 59 60" fill="none" xmlns="http://www.w3.org/2000/svg">
<path d="M52.7535 34.3256C52.7952 32.9688 52.3054 31.678 51.3744 30.689C50.6801 29.952 49.8042 29.4503 48.8409 29.2264L48.7521 32.1728C48.7392 32.6209 48.7858 33.0686 48.8886 33.5003L49.096 33.5827C50.6816 34.214 51.9134 35.3564 52.6816 36.7435L52.7535 34.3256Z" fill="#FECC2F"/>
<path d="M51.227 20.6193C51.8677 19.8649 52.2721 18.9389 52.3898 17.9339C52.5486 16.5861 52.1734 15.2565 51.3317 14.1915L49.5064 11.8784C47.9809 13.6834 47.8791 16.3796 49.4007 18.3056L51.227 20.6193Z" fill="#FECC2F"/>
<path d="M43.7571 13.4223L45.6171 14.7433C46.2141 12.6282 45.5188 10.2471 43.8201 9.04167L41.9606 7.72009C41.3636 9.83421 42.0588 12.2158 43.7571 13.4223Z" fill="#FECC2F"/>
<path d="M51.1848 42.0726C52.0925 39.7927 51.2275 37.2384 49.2498 35.9426L48.16 38.6801C47.9948 39.0974 47.8861 39.5337 47.834 39.9748L48.0017 40.1242C49.2752 41.2602 50.0424 42.7554 50.2895 44.3237L51.1848 42.0726Z" fill="#FECC2F"/>
<path d="M44.3114 21.4178L44.5238 21.3478C46.098 20.8252 47.7689 20.8679 49.2985 21.4575L47.8037 19.5642C46.2841 17.6382 43.6405 17.1106 41.5273 18.1736L43.3536 20.4878C43.6325 20.8406 43.9546 21.1528 44.3114 21.4178Z" fill="#FECC2F"/>
<path d="M47.8872 27.0618C49.5468 27.1115 51.1016 27.7224 52.3378 28.7988L51.5815 26.508C51.1547 25.2192 50.252 24.173 49.0406 23.5636C48.1359 23.109 47.1428 22.9324 46.1572 23.0554L47.0823 25.8544C47.2232 26.2802 47.4207 26.6837 47.6644 27.0559L47.8872 27.0618Z" fill="#FECC2F"/>
<path d="M45.5727 55.0262C44.2199 54.6202 42.7892 54.7706 41.542 55.4465L38.7197 56.9145C39.4006 57.7983 40.3212 58.4519 41.4016 58.7765C42.7594 59.1829 44.1946 59.0325 45.4447 58.3507L48.2258 56.8281C47.5469 55.9711 46.6318 55.3453 45.5727 55.0262Z" fill="#FECC2F"/>
<path d="M48.575 50.1677L46.6133 52.3692C47.4674 52.8674 48.452 53.1051 49.4604 53.0481C50.8152 52.9707 52.0604 52.3702 52.9626 51.3568L54.9244 49.1563C54.0708 48.6576 53.0936 48.4154 52.0772 48.4764C50.7214 48.5538 49.4788 49.1553 48.575 50.1677Z" fill="#FECC2F"/>
<path d="M56.3826 30.8395C55.3945 31.7695 54.8282 33.03 54.7876 34.3868L54.6992 37.3332C55.6749 37.1664 56.5796 36.7173 57.3166 36.023C58.3046 35.093 58.8704 33.833 58.9111 32.4762L59.0004 29.5293C58.0247 29.696 57.1195 30.1467 56.3826 30.8395Z" fill="#FECC2F"/>
<path d="M55.7849 40.038C54.5377 40.5735 53.574 41.5635 53.0718 42.8246L51.9814 45.564C52.9541 45.7397 53.9581 45.629 54.8881 45.2285C56.1352 44.6915 57.099 43.702 57.6007 42.4404L58.6915 39.7025C57.7198 39.5234 56.7144 39.6375 55.7849 40.038Z" fill="#FECC2F"/>
<path d="M47.0579 48.8159C48.6906 46.9837 48.7512 44.2879 47.3368 42.3947L45.375 44.5941C45.0926 44.9113 44.8708 45.2661 44.6768 45.6368C45.4941 47.3738 45.6068 49.2889 45.0916 51.0204L47.0579 48.8159Z" fill="#FECC2F"/>
<path d="M54.4351 28.6697C56.4872 27.4945 57.5035 24.9963 56.7338 22.6658L55.8093 19.8678C53.7572 21.044 52.7408 23.5412 53.511 25.8717L54.4351 28.6697Z" fill="#FECC2F"/>
<path d="M43.1339 47.2194L40.3835 48.7236C38.1017 49.9727 37.0675 52.6719 37.7861 55.1081L40.5647 53.663C42.8614 52.4019 43.8902 49.67 43.1339 47.2194Z" fill="#FECC2F"/>
<path d="M15.2428 13.4223C16.941 12.2148 17.6353 9.8352 17.0398 7.72009L15.1797 9.04167C13.4815 10.2491 12.7872 12.6282 13.3827 14.7433L15.2428 13.4223Z" fill="#FECC2F"/>
<path d="M14.4753 21.3476L14.6868 21.4176C15.0431 21.1526 15.3666 20.8404 15.6441 20.4886L17.4703 18.1745C15.3582 17.1105 12.7146 17.64 11.1945 19.565L9.69922 21.4583C11.2287 20.8697 12.9007 20.8261 14.4753 21.3476Z" fill="#FECC2F"/>
<path d="M13.6216 44.5932L11.6603 42.3937C10.2455 44.287 10.3065 46.9837 11.9387 48.815L13.7283 50.8224C13.2638 49.0934 13.4042 47.2001 14.2529 45.4884C14.0762 45.1723 13.8687 44.8706 13.6216 44.5932Z" fill="#FECC2F"/>
<path d="M7.01674 45.5647L5.92643 42.8252C5.4242 41.5642 4.46093 40.5742 3.2138 40.0387C2.28379 39.6372 1.27735 39.5265 0.306641 39.7032L1.39745 42.4411C1.89967 43.7027 2.86294 44.6927 4.11007 45.2292C5.04008 45.6297 6.04404 45.7394 7.01674 45.5647Z" fill="#FECC2F"/>
<path d="M4.30119 37.3332L4.21285 34.3878C4.17216 33.031 3.60492 31.7704 2.61833 30.8404C1.88038 30.1466 0.975671 29.697 0 29.5303L0.089329 32.4771C0.130023 33.8339 0.697262 35.094 1.68435 36.024C2.42082 36.7173 3.32552 37.1674 4.30119 37.3332Z" fill="#FECC2F"/>
<path d="M17.3363 55.452C16.0882 54.7676 14.651 54.6172 13.2951 55.0262C12.2361 55.3428 11.3215 55.9711 10.6436 56.8281L13.4252 58.3507C14.6723 59.0326 16.1105 59.1849 17.4663 58.7765C18.5467 58.4519 19.4683 57.7983 20.1496 56.9145L17.3363 55.452Z" fill="#FECC2F"/>
<path d="M18.4837 48.7245L15.7333 47.2203C14.977 49.6729 16.0088 52.4089 18.312 53.6699L21.0817 55.1106C21.8003 52.6739 20.7665 49.9737 18.4837 48.7245Z" fill="#FECC2F"/>
<path d="M4.56408 28.6697L5.48764 25.8717C6.25836 23.5422 5.24199 21.044 3.18991 19.8678L2.26485 22.6658C1.49663 24.9953 2.51299 27.4935 4.56408 28.6697Z" fill="#FECC2F"/>
<path d="M10.4235 50.1677C9.52031 49.1553 8.27715 48.5538 6.92133 48.4764C5.90695 48.4144 4.9283 48.6576 4.07422 49.1563L6.03598 51.3558C6.93969 52.3702 8.18335 52.9707 9.53817 53.0481C10.5535 53.1091 11.5327 52.8674 12.3853 52.3692L10.4235 50.1677Z" fill="#FECC2F"/>
<path d="M9.90462 33.5827L10.1121 33.5003C10.2143 33.0671 10.2614 32.6209 10.248 32.1718L10.1597 29.2264C9.19595 29.4513 8.31903 29.953 7.62574 30.689C6.69473 31.678 6.20491 32.9688 6.2466 34.3256L6.31955 36.7445C7.08728 35.3564 8.31903 34.215 9.90462 33.5827Z" fill="#FECC2F"/>
<path d="M7.81561 42.0726L8.71187 44.3236C8.95802 42.7554 9.72526 41.2602 10.9997 40.1242L11.1674 39.9748C11.1158 39.5336 11.0071 39.0974 10.8404 38.681L9.75057 35.9436C7.77293 37.2384 6.90793 39.7927 7.81561 42.0726Z" fill="#FECC2F"/>
<path d="M11.9167 25.8544L12.8412 23.0554C11.8546 22.9343 10.8626 23.109 9.95787 23.5636C8.74647 24.174 7.84375 25.2201 7.41696 26.5079L6.66113 28.7987C7.89685 27.7223 9.45167 27.1114 11.1117 27.0618L11.334 27.0558C11.5782 26.6836 11.7752 26.2802 11.9167 25.8544Z" fill="#FECC2F"/>
<path d="M7.77339 20.6193L9.59967 18.3056C11.1203 16.3786 11.0185 13.6834 9.49397 11.8784L7.66868 14.1905C6.82799 15.2565 6.45231 16.5851 6.61062 17.9339C6.72774 18.9389 7.1332 19.8649 7.77339 20.6193Z" fill="#FECC2F"/>
<path d="M29.4388 38.6727C33.3613 38.6727 36.5534 35.4802 36.5534 31.5582C36.5534 27.6361 33.3613 24.4436 29.4388 24.4436C25.5167 24.4436 22.3242 27.6361 22.3242 31.5582C22.3242 35.4802 25.5167 38.6727 29.4388 38.6727ZM28.0016 26.4763H30.4552V36.64H28.4224V28.9299L27.1083 30.244L25.6711 28.8068L28.0016 26.4763Z" fill="#FECC2F"/>
<path d="M16.2266 31.558C16.2266 38.8433 22.154 44.7707 29.4393 44.7707C36.7246 44.7707 42.6521 38.8433 42.6521 31.558C42.6521 25.3238 38.3062 20.0966 32.4884 18.7145V15.6917C35.5092 14.4599 37.5702 11.4897 37.5702 8.18158C37.5702 3.69826 33.9226 0.0506592 29.4393 0.0506592C24.9565 0.0506592 21.3084 3.69826 21.3084 8.18158C21.3084 11.4897 23.3699 14.4599 26.3902 15.6917V18.7145C20.5729 20.0966 16.2266 25.3238 16.2266 31.558ZM23.3411 8.18158C23.3411 4.81834 26.0766 2.08339 29.4393 2.08339C32.8026 2.08339 35.5375 4.81834 35.5375 8.18158C35.5375 10.3731 34.3281 12.3642 32.4884 13.4406V10.2143C32.4884 9.09323 31.5768 8.18158 30.4557 8.18158H28.423C27.3019 8.18158 26.3902 9.09323 26.3902 10.2143V13.4406C24.5505 12.3642 23.3411 10.3731 23.3411 8.18158ZM29.4393 22.4107C34.4839 22.4107 38.5866 26.5139 38.5866 31.558C38.5866 36.6021 34.4839 40.7053 29.4393 40.7053C24.3952 40.7053 20.292 36.6021 20.292 31.558C20.292 26.5139 24.3952 22.4107 29.4393 22.4107Z" fill="#FECC2F"/>
<path d="M23.0468 56.0625C22.8651 56.7305 22.6016 57.3637 22.2656 57.9513C24.5867 58.6342 26.9916 59.0009 29.4397 59.0009C31.8874 59.0009 34.2933 58.6342 36.6143 57.9513C36.2779 57.3637 36.0158 56.7305 35.8327 56.0625C31.6789 57.2367 27.2001 57.2367 23.0468 56.0625Z" fill="#FECC2F"/>
</svg>
