<svg width="83" height="83" viewBox="0 0 83 83" fill="none" xmlns="http://www.w3.org/2000/svg">
<rect y="3" width="4" height="77" fill="black"/>
<rect x="7" width="2" height="83" fill="black"/>
<path d="M14 5L21.5 12" stroke="black" stroke-width="2"/>
<path d="M13 22L20.5 29" stroke="black" stroke-width="2"/>
<path d="M13 39L20.5 46" stroke="black" stroke-width="2"/>
<path d="M13 56L20.5 63" stroke="black" stroke-width="2"/>
<path d="M13 73L20.5 80" stroke="black" stroke-width="2"/>
<path d="M69 54.884L51 65.2686V23.7314L69 34.116V54.884Z" stroke="black" stroke-width="2"/>
<rect x="69" y="36" width="7" height="17" rx="1" stroke="black" stroke-width="2"/>
<rect x="76" y="38" width="6" height="13" rx="1" stroke="black" stroke-width="2"/>
<path fill-rule="evenodd" clip-rule="evenodd" d="M44 31.3091C39.7937 33.9663 37 38.6569 37 44C37 49.3431 39.7937 54.0338 44 56.6909V54.2477C40.9565 51.8684 39 48.1627 39 44C39 39.8374 40.9565 36.1317 44 33.7523V31.3091Z" fill="black"/>
<path fill-rule="evenodd" clip-rule="evenodd" d="M39 24.0572C32.39 28.2327 28 35.6037 28 44C28 52.3963 32.39 59.7673 39 63.9428V61.5316C33.5498 57.6165 30 51.2228 30 44C30 36.7772 33.5498 30.3835 39 26.4684V24.0572Z" fill="black"/>
</svg>
