<svg width="67" height="67" viewBox="0 0 67 67" fill="none" xmlns="http://www.w3.org/2000/svg">
<path d="M42.1236 45.7903C43.0141 45.4216 44.2023 45.3633 45.4601 45.3019C47.612 45.1967 50.0511 45.0775 51.8932 43.2917C53.6926 41.5471 53.7548 39.1933 53.8095 37.1166C53.8402 35.9482 53.8693 34.8447 54.1974 34.0529C54.5661 33.1624 55.3653 32.2812 56.2113 31.3483C57.6586 29.7523 59.2989 27.9432 59.3386 25.3777C59.3773 22.8719 57.7569 21.1636 56.3271 19.6565C55.5228 18.8085 54.7629 18.0076 54.435 17.2157C54.0662 16.3252 54.008 15.1372 53.9466 13.8792C53.8413 11.7274 53.7221 9.2884 51.9362 7.44616C50.1918 5.64684 47.838 5.58469 45.7613 5.52999C44.5928 5.49923 43.4893 5.47005 42.6973 5.14199C41.8068 4.77323 40.9256 3.97407 39.9926 3.12806C38.3967 1.68076 36.5877 0.0404355 34.0224 0.000785156C34.0224 0.000785156 34.0224 0.000785156 34.0223 0.000785156C33.9928 0.000130859 33.9635 0 33.9342 0C31.4761 0 29.7903 1.59923 28.3008 3.01225C27.453 3.81651 26.652 4.57641 25.8602 4.90435C24.9697 5.27311 23.7816 5.33134 22.5236 5.39271C20.3718 5.49793 17.9328 5.61714 16.0906 7.40298C14.2911 9.14759 14.2291 11.5012 14.1744 13.578C14.1437 14.7464 14.1145 15.8498 13.7866 16.6418C13.4177 17.5323 12.6186 18.4135 11.7725 19.3464C10.3253 20.9423 8.685 22.7513 8.64522 25.3167C8.60635 27.8228 10.2269 29.531 11.6567 31.0383C12.4609 31.8861 13.2208 32.6871 13.5488 33.4789C13.9175 34.3694 13.9756 35.5575 14.0371 36.8155C14.1424 38.9673 14.2616 41.4064 16.0475 43.2485C17.792 45.0478 20.1458 45.11 22.2225 45.1647C23.391 45.1954 24.4945 45.2246 25.2865 45.5527C26.1768 45.9214 27.058 46.7206 27.9911 47.5666C29.587 49.0138 31.396 50.6541 33.9615 50.6937C33.9912 50.6943 34.0203 50.6945 34.0497 50.6945C36.5075 50.6945 38.1937 49.0952 39.6828 47.6823C40.5309 46.878 41.3318 46.1184 42.1236 45.7903ZM33.9919 43.1069C24.1992 43.1069 16.2322 35.1399 16.2322 25.3473C16.2322 15.5546 24.1992 7.58762 33.9919 7.58762C43.7846 7.58762 51.7516 15.5546 51.7516 25.3473C51.7516 35.1399 43.7846 43.1069 33.9919 43.1069Z" fill="white"/>
<path d="M26.0677 23.9447H27.4215C28.2722 23.9312 28.941 23.6986 29.428 23.2469C29.915 22.7952 30.1585 22.185 30.1585 21.4164C30.1585 19.6905 29.3306 18.8275 27.6748 18.8275C26.8956 18.8275 26.2722 19.0601 25.8047 19.5253C25.3436 19.9837 25.1131 20.5939 25.1131 21.3557H23.3112C23.3112 20.1894 23.7203 19.2219 24.5385 18.4533C25.3631 17.678 26.4086 17.2903 27.6748 17.2903C29.0124 17.2903 30.0611 17.6578 30.8209 18.3926C31.5806 19.1275 31.9605 20.1489 31.9605 21.4569C31.9605 22.0974 31.7592 22.7176 31.3566 23.3177C30.9605 23.9177 30.4183 24.366 29.73 24.6627C30.5092 24.9189 31.1098 25.3436 31.5319 25.9369C31.9605 26.5302 32.1747 27.255 32.1747 28.1112C32.1747 29.4326 31.7592 30.481 30.928 31.2564C30.0968 32.0317 29.0157 32.4193 27.6845 32.4193C26.3534 32.4193 25.269 32.0452 24.4313 31.2968C23.6002 30.5484 23.1846 29.5607 23.1846 28.3337H24.9962C24.9962 29.109 25.2397 29.7293 25.7268 30.1945C26.2138 30.6597 26.8664 30.8923 27.6845 30.8923C28.5546 30.8923 29.2202 30.6563 29.6813 30.1844C30.1423 29.7124 30.3728 29.0349 30.3728 28.1517C30.3728 27.2954 30.1196 26.6381 29.6131 26.1796C29.1066 25.7212 28.3761 25.4852 27.4215 25.4717H26.0677V23.9447Z" fill="white"/>
<path d="M41.7201 17.4825V19.0702H41.3889C39.9863 19.0972 38.8695 19.5287 38.0383 20.3647C37.2072 21.2007 36.7266 22.3771 36.5968 23.8941C37.3435 23.0042 38.363 22.5592 39.6552 22.5592C40.8889 22.5592 41.8727 23.0109 42.6065 23.9143C43.3467 24.8177 43.7168 25.9841 43.7168 27.4134C43.7168 28.9304 43.3175 30.1439 42.5188 31.0541C41.7266 31.9643 40.6617 32.4193 39.324 32.4193C37.9669 32.4193 36.8663 31.88 36.0221 30.8013C35.178 29.7158 34.7559 28.3202 34.7559 26.6145V25.8965C34.7559 23.1862 35.3111 21.1164 36.4215 19.6871C37.5383 18.251 39.1974 17.5162 41.3987 17.4825H41.7201ZM39.3532 24.1166C38.7364 24.1166 38.1682 24.3087 37.6487 24.693C37.1292 25.0773 36.7688 25.5594 36.5676 26.1392V26.8269C36.5676 28.0404 36.8305 29.018 37.3565 29.7596C37.8825 30.5012 38.5383 30.8721 39.324 30.8721C40.1357 30.8721 40.7721 30.5619 41.2331 29.9417C41.7006 29.3214 41.9344 28.509 41.9344 27.5044C41.9344 26.4931 41.6974 25.6774 41.2234 25.0571C40.7558 24.4301 40.1325 24.1166 39.3532 24.1166Z" fill="white"/>
<ellipse cx="17.7818" cy="42.1452" rx="1.08064" ry="1.08064" fill="black"/>
<circle cx="34.0405" cy="25.3952" r="15.4194" stroke="white" stroke-width="0.5" stroke-dasharray="1 2"/>
<path d="M48.4358 23.0177C48.5376 23.6384 48.6001 24.2723 48.6209 24.9168L48.371 24.9248C48.3761 25.081 48.3786 25.2378 48.3786 25.3952C48.3786 25.5526 48.3761 25.7093 48.371 25.8655L48.6209 25.8735C48.6001 26.518 48.5376 27.1519 48.4358 27.7727L48.1891 27.7322C48.1383 28.0426 48.0774 28.3496 48.007 28.6529L48.2505 28.7094C48.1053 29.3345 47.9199 29.9442 47.6972 30.5356L47.4632 30.4475C47.3526 30.7411 47.2327 31.0302 47.1038 31.3143L47.3314 31.4177C47.0672 31.9998 46.7659 32.5616 46.4304 33.0999L46.2182 32.9677C46.0525 33.2336 45.8784 33.4936 45.6962 33.7475L45.8992 33.8933C45.5275 34.4112 45.1226 34.9038 44.6877 35.3679L44.5053 35.197C44.2913 35.4253 44.07 35.6466 43.8417 35.8606L44.0126 36.043C43.5485 36.4779 43.0559 36.8827 42.538 37.2545L42.3922 37.0514C42.1384 37.2337 41.8783 37.4078 41.6124 37.5735L41.7446 37.7857C41.2063 38.1211 40.6446 38.4225 40.0624 38.6867L39.959 38.459C39.6749 38.588 39.3859 38.7079 39.0922 38.8185L39.1803 39.0525C38.5889 39.2752 37.9792 39.4606 37.3541 39.6058L37.2976 39.3623C36.9943 39.4327 36.6873 39.4935 36.3769 39.5444L36.4174 39.7911C35.7966 39.8929 35.1627 39.9554 34.5183 39.9762L34.5102 39.7263C34.3541 39.7313 34.1973 39.7339 34.0399 39.7339C33.8825 39.7339 33.7257 39.7313 33.5696 39.7263L33.5615 39.9762C32.917 39.9554 32.2831 39.8929 31.6624 39.7911L31.7028 39.5444C31.3925 39.4935 31.0855 39.4327 30.7822 39.3623L30.7256 39.6058C30.1005 39.4606 29.4908 39.2752 28.8994 39.0525L28.9875 38.8185C28.6939 38.7079 28.4048 38.588 28.1207 38.459L28.0174 38.6867C27.4352 38.4225 26.8734 38.1211 26.3351 37.7857L26.4674 37.5735C26.2015 37.4078 25.9414 37.2337 25.6875 37.0514L25.5417 37.2545C25.0238 36.8827 24.5313 36.4779 24.0672 36.043L24.2381 35.8606C24.0097 35.6466 23.7884 35.4253 23.5745 35.197L23.392 35.3679C22.9572 34.9038 22.5523 34.4112 22.1805 33.8933L22.3836 33.7475C22.2014 33.4936 22.0272 33.2336 21.8615 32.9677L21.6494 33.0999C21.3139 32.5616 21.0126 31.9998 20.7484 31.4177L20.976 31.3143C20.8471 31.0302 20.7271 30.7411 20.6165 30.4475L20.3826 30.5356C20.1599 29.9442 19.9745 29.3345 19.8293 28.7094L20.0728 28.6529C20.0023 28.3496 19.9415 28.0426 19.8906 27.7322L19.6439 27.7727C19.5422 27.1519 19.4796 26.518 19.4589 25.8735L19.7087 25.8655C19.7037 25.7093 19.7012 25.5526 19.7012 25.3952C19.7012 25.2378 19.7037 25.081 19.7087 24.9248L19.4589 24.9168C19.4796 24.2723 19.5422 23.6384 19.6439 23.0177L19.8906 23.0581C19.9415 22.7478 20.0023 22.4408 20.0728 22.1375L19.8293 22.0809C19.9745 21.4558 20.1599 20.8461 20.3826 20.2547L20.6165 20.3428C20.7271 20.0492 20.8471 19.7601 20.976 19.476L20.7484 19.3727C21.0126 18.7905 21.3139 18.2287 21.6494 17.6904L21.8615 17.8226C22.0272 17.5568 22.2014 17.2967 22.3836 17.0428L22.1805 16.897C22.5523 16.3791 22.9572 15.8866 23.392 15.4224L23.5745 15.5934C23.7884 15.365 24.0098 15.1437 24.2381 14.9298L24.0672 14.7473C24.5313 14.3125 25.0238 13.9076 25.5417 13.5358L25.6875 13.7389C25.9414 13.5567 26.2015 13.3825 26.4674 13.2168L26.3351 13.0046C26.8735 12.6692 27.4352 12.3679 28.0174 12.1036L28.1207 12.3313C28.4048 12.2024 28.6939 12.0824 28.9875 11.9718L28.8994 11.7379C29.4908 11.5152 30.1005 11.3298 30.7256 11.1846L30.7822 11.4281C31.0855 11.3576 31.3925 11.2968 31.7028 11.2459L31.6624 10.9992C32.2831 10.8975 32.917 10.8349 33.5615 10.8142L33.5696 11.064C33.7257 11.059 33.8825 11.0565 34.0399 11.0565C34.1973 11.0565 34.3541 11.059 34.5102 11.064L34.5183 10.8142C35.1627 10.8349 35.7966 10.8975 36.4174 10.9992L36.3769 11.2459C36.6873 11.2968 36.9943 11.3576 37.2976 11.4281L37.3541 11.1846C37.9792 11.3298 38.5889 11.5152 39.1803 11.7379L39.0922 11.9718C39.3859 12.0824 39.6749 12.2024 39.959 12.3313L40.0624 12.1036C40.6446 12.3679 41.2063 12.6692 41.7446 13.0046L41.6124 13.2168C41.8783 13.3825 42.1384 13.5567 42.3922 13.7389L42.538 13.5358C43.0559 13.9076 43.5485 14.3125 44.0126 14.7473L43.8417 14.9298C44.07 15.1437 44.2913 15.365 44.5053 15.5934L44.6877 15.4224C45.1226 15.8866 45.5275 16.3791 45.8992 16.897L45.6962 17.0428C45.8784 17.2967 46.0525 17.5568 46.2182 17.8226L46.4304 17.6904C46.7659 18.2287 47.0672 18.7905 47.3314 19.3727L47.1038 19.476C47.2327 19.7601 47.3526 20.0492 47.4632 20.3428L47.6972 20.2547C47.9199 20.8461 48.1053 21.4558 48.2505 22.0809L48.007 22.1375C48.0774 22.4408 48.1383 22.7478 48.1891 23.0581L48.4358 23.0177Z" stroke="white" stroke-width="0.5" stroke-dasharray="1 2"/>
</svg>
