<svg width="23" height="23" viewBox="0 0 23 23" fill="none" xmlns="http://www.w3.org/2000/svg">
<path d="M0.383333 13.7999H2.68333C2.89503 13.7999 3.06667 13.9716 3.06667 14.1833H4.21667C4.42836 14.1833 4.6 14.3549 4.6 14.5666V14.6356L6.15288 14.9461L10.0767 14.5666C10.1712 14.5575 10.2658 14.5839 10.342 14.6406L11.1435 15.2382L12.0539 14.631C12.1266 14.5819 12.2138 14.5592 12.3012 14.5666L16.4688 14.9457L18.4 14.6252V14.5666C18.4 14.3549 18.5716 14.1833 18.7833 14.1833H19.9333C19.9333 13.9716 20.105 13.7999 20.3167 13.7999H22.6167C22.8284 13.7999 23 13.9716 23 14.1833V21.0833C23 21.295 22.8284 21.4666 22.6167 21.4666H20.3167C20.105 21.4666 19.9333 21.295 19.9333 21.0833H18.7833C18.5716 21.0833 18.4 20.9116 18.4 20.6999H16.9403L11.2593 22.9727C11.1817 23.0035 11.0963 23.0083 11.0159 22.9865L6.79918 21.8365C6.59769 21.7837 6.47714 21.5775 6.52999 21.376C6.53099 21.3722 6.53205 21.3684 6.53315 21.3646L4.57815 20.8157C4.52928 20.9744 4.38275 21.0829 4.21667 21.0833H3.06667C3.06667 21.295 2.89503 21.4666 2.68333 21.4666H0.383333C0.171638 21.4666 0 21.295 0 21.0833V14.1833C0 13.9716 0.171638 13.7999 0.383333 13.7999ZM20.7 20.6999H22.2333V14.5666H20.7V20.6999ZM19.1667 20.3166H19.9333V14.9499H19.1667V20.3166ZM11.0937 22.2129L16.7241 19.9605C16.7694 19.9425 16.8178 19.9333 16.8667 19.9333H18.4V15.4023L16.5466 15.7112C16.5143 15.7165 16.4815 15.7178 16.4488 15.7151L12.3667 15.344L11.7967 15.7239L12.8317 16.4932C13.4361 16.8915 13.6033 17.7043 13.205 18.3087C12.9619 18.6776 12.5494 18.8993 12.1076 18.8983C11.8399 18.8978 11.5783 18.8177 11.3562 18.6683L11.1332 18.5004L7.71842 21.2941L11.0937 22.2129ZM4.60307 20.026L7.176 20.7478L10.5033 18.0235L9.88272 17.5566L10.3427 16.9433L11.7994 18.0407C12.0504 18.2084 12.3899 18.1408 12.5576 17.8898C12.6279 17.7845 12.6595 17.658 12.6469 17.5321C12.629 17.3625 12.5343 17.2105 12.3901 17.1196L10.0031 15.3455L6.17167 15.7166C6.13424 15.7199 6.09658 15.7178 6.05973 15.7105L4.60307 15.4191V20.026ZM3.06667 20.3166H3.83333V14.9499H3.06667V20.3166ZM0.766666 20.6999H2.3V14.5666H0.766666V20.6999Z" fill="#FECC2F"/>
<path d="M17.0963 21.114L17.3984 21.8186L14.7152 22.9692L14.413 22.2645L17.0963 21.114Z" fill="#FECC2F"/>
<path d="M14.1833 5.36666H17.6333V3.06666C17.6333 2.85497 17.805 2.68333 18.0167 2.68333H19.1667V1.15C19.1667 0.938304 19.3383 0.766666 19.55 0.766666H19.9333V0H20.7V0.766666H21.0833C21.295 0.766666 21.4667 0.938304 21.4667 1.15V2.68333H22.6167C22.8284 2.68333 23 2.85497 23 3.06666V12.65C23 12.8617 22.8284 13.0333 22.6167 13.0333H14.1833C13.9716 13.0333 13.8 12.8617 13.8 12.65V5.75C13.8 5.5383 13.9716 5.36666 14.1833 5.36666ZM20.7 1.53333H19.9333V2.68333H20.7V1.53333ZM18.4 12.2667H22.2333V3.45H18.4V12.2667ZM14.5667 6.9H15.3333V7.66666H14.5667V8.43333H15.3333V9.19999H14.5667V12.2667H17.6333V6.13333H14.5667V6.9Z" fill="#FECC2F"/>
<path d="M20.6982 5.75H21.4648V6.51667H20.6982V5.75Z" fill="#FECC2F"/>
<path d="M19.1669 5.75H19.9336V6.51667H19.1669V5.75Z" fill="#FECC2F"/>
<path d="M20.6982 7.28333H21.4648V8.04999H20.6982V7.28333Z" fill="#FECC2F"/>
<path d="M19.1669 7.28333H19.9336V8.04999H19.1669V7.28333Z" fill="#FECC2F"/>
<path d="M20.6982 8.81665H21.4648V9.58332H20.6982V8.81665Z" fill="#FECC2F"/>
<path d="M16.1005 6.90002H16.8672V7.66669H16.1005V6.90002Z" fill="#FECC2F"/>
<path d="M16.1005 8.43335H16.8672V9.20002H16.1005V8.43335Z" fill="#FECC2F"/>
<path d="M20.6982 4.21667H21.4648V4.98334H20.6982V4.21667Z" fill="#FECC2F"/>
<path d="M19.1669 4.21667H19.9336V4.98334H19.1669V4.21667Z" fill="#FECC2F"/>
<path d="M6.51693 0V0.575C6.51693 0.892543 6.77438 1.15 7.09193 1.15C7.83291 1.15 8.43359 1.75068 8.43359 2.49167V3.06666H7.66693V2.49167C7.66693 2.17412 7.40947 1.91667 7.09193 1.91667C6.35094 1.91667 5.75026 1.31598 5.75026 0.575V0H6.51693Z" fill="#FECC2F"/>
<path d="M0.133002 8.52577L2.81634 6.22577C2.97705 6.08796 3.21903 6.10651 3.35688 6.26722C3.41644 6.3367 3.44922 6.4252 3.44922 6.51672V7.32594L4.733 6.22577C4.89371 6.08796 5.13569 6.10651 5.27355 6.26722C5.33311 6.3367 5.36589 6.4252 5.36589 6.51672V8.43339H6.13255V4.60005H5.74922V3.83339H6.02599C5.89014 3.59697 5.63858 3.45087 5.36589 3.45006C4.30789 3.44881 3.45046 2.59139 3.44922 1.53339V0.766724H4.21589V1.53339C4.21589 2.16852 4.73075 2.68339 5.36589 2.68339C6.06293 2.68602 6.67051 3.15843 6.84479 3.83339H8.81589V4.60005H8.43255V8.43339H8.81589C9.02758 8.43339 9.19922 8.60502 9.19922 8.81672V12.65C9.19922 12.8617 9.02758 13.0334 8.81589 13.0334H0.382552C0.170856 13.0334 -0.000781059 12.8617 -0.000781059 12.65V8.81672C-0.000781059 8.70488 0.0480938 8.5986 0.133002 8.52577ZM7.66589 4.60005H6.89922V8.43339H7.66589V4.60005ZM0.765885 12.2667H8.43255V9.20005H4.98255C4.77086 9.20005 4.59922 9.02841 4.59922 8.81672V7.35009L3.31544 8.45064C3.15472 8.58844 2.91274 8.5699 2.77489 8.40919C2.71528 8.33971 2.68255 8.25121 2.68255 8.15969V7.35009L0.765885 8.99305V12.2667Z" fill="#FECC2F"/>
<path d="M3.06536 10.7333H3.83203V11.4999H3.06536V10.7333Z" fill="#FECC2F"/>
<path d="M1.53411 10.7333H2.30078V11.4999H1.53411V10.7333Z" fill="#FECC2F"/>
<path d="M3.06536 9.19995H3.83203V9.96662H3.06536V9.19995Z" fill="#FECC2F"/>
<path d="M1.53411 9.19995H2.30078V9.96662H1.53411V9.19995Z" fill="#FECC2F"/>
<path d="M6.9013 9.96667H7.66797V10.7333H6.9013V9.96667Z" fill="#FECC2F"/>
<path d="M5.36615 9.96667H6.13281V10.7333H5.36615V9.96667Z" fill="#FECC2F"/>
<path d="M11.1151 9.58332V8.81665H11.8818V9.58332H12.6484V10.35H11.8818V11.1166H11.1151V10.35H10.3484V9.58332H11.1151Z" fill="#FECC2F"/>
</svg>
