<svg width="52" height="52" viewBox="0 0 52 52" fill="none" xmlns="http://www.w3.org/2000/svg">
<g clip-path="url(#clip0)">
<path d="M40.0957 0.00292969H3.33173C2.91469 0.00292969 2.57656 0.344179 2.57656 0.765053V5.96911C1.10779 6.2743 0 7.58953 0 9.1607C0 10.7319 1.10779 12.047 2.57656 12.3523V13.7392C1.10779 14.0446 0 15.3597 0 16.9309C0 18.5022 1.10779 19.8172 2.57656 20.1225V21.5095C1.10779 21.8147 0 23.1298 0 24.701C0 26.2722 1.10779 27.5873 2.57656 27.8925V29.2795C1.10779 29.5849 0 30.8999 0 32.4713C0 34.0426 1.10779 35.3576 2.57656 35.6629V37.0498C1.10779 37.3551 0 38.6701 0 40.2414C0 41.8127 1.10779 43.1277 2.57656 43.433V48.6371C2.57656 49.0579 2.91469 49.3992 3.33173 49.3992H10.188C10.605 49.3992 10.9432 49.0579 10.9432 48.6371C10.9431 48.2162 10.605 47.8749 10.1879 47.8749H4.08679V38.7409C4.60013 39.0411 4.94712 39.6005 4.94712 40.2412C4.94712 40.6621 5.28525 41.0033 5.70229 41.0033C6.11932 41.0033 6.45745 40.6621 6.45745 40.2412C6.45745 38.7444 5.45181 37.4808 4.08689 37.1005V30.9707C4.60023 31.2709 4.94722 31.8303 4.94722 32.471C4.94722 32.8918 5.28536 33.2331 5.70239 33.2331C6.11942 33.2331 6.45755 32.8918 6.45755 32.471C6.45755 30.9741 5.45191 29.7106 4.08699 29.3303V23.2005C4.60033 23.5007 4.94732 24.0601 4.94732 24.7007C4.94732 25.1216 5.28546 25.4629 5.70249 25.4629C6.11952 25.4629 6.45765 25.1216 6.45765 24.7007C6.45765 23.2039 5.45201 21.9404 4.08709 21.56V15.4302C4.60043 15.7305 4.94742 16.2899 4.94742 16.9305C4.94742 17.3514 5.28556 17.6926 5.70259 17.6926C6.11962 17.6926 6.45775 17.3514 6.45775 16.9305C6.45775 15.4337 5.45211 14.1702 4.08719 13.7898V7.66042C4.60053 7.96064 4.94752 8.52005 4.94752 9.1607C4.94752 9.58157 5.28566 9.92282 5.70269 9.92282C6.11972 9.92282 6.45785 9.58157 6.45785 9.1607C6.45785 7.66388 5.45221 6.40034 4.08729 6.01999V1.52708H39.3411V6.6643C39.3411 7.08517 39.6792 7.42642 40.0962 7.42642C40.5133 7.42642 40.8514 7.08517 40.8514 6.6643V0.765053C40.8509 0.344179 40.5128 0.00292969 40.0957 0.00292969ZM2.57656 41.8452C1.95162 41.5854 1.51023 40.9647 1.51023 40.2414C1.51023 39.5182 1.95162 38.8975 2.57656 38.6377V41.8452ZM2.57656 34.0749C1.95162 33.8152 1.51023 33.1945 1.51023 32.4713C1.51023 31.7481 1.95162 31.1274 2.57656 30.8675V34.0749ZM2.57656 26.3047C1.95162 26.045 1.51023 25.4244 1.51023 24.7011C1.51023 23.9778 1.95162 23.3572 2.57656 23.0973V26.3047ZM2.57656 18.5347C1.95162 18.2749 1.51023 17.6543 1.51023 16.931C1.51023 16.2078 1.95162 15.5872 2.57656 15.3273V18.5347ZM2.57656 10.7644C1.95162 10.5047 1.51023 9.88403 1.51023 9.1606C1.51023 8.43737 1.95162 7.81673 2.57656 7.55693V10.7644Z" fill="#FECC2F"/>
<path d="M15.8009 10.7793C15.506 10.4818 15.0278 10.4818 14.733 10.7793L13.2069 12.3195L12.7109 11.8189C12.416 11.5214 11.9378 11.5214 11.643 11.8189C11.3482 12.1165 11.3482 12.5991 11.643 12.8966L12.673 13.9361C12.8205 14.0849 13.0138 14.1593 13.207 14.1593C13.4002 14.1593 13.5935 14.085 13.7409 13.9361L15.801 11.857C16.0958 11.5594 16.0958 11.0769 15.8009 10.7793Z" fill="#FECC2F"/>
<path d="M17.2243 8.09717H10.1888C9.77173 8.09717 9.43359 8.43842 9.43359 8.85929V15.9596C9.43359 16.3805 9.77173 16.7217 10.1888 16.7217H17.2243C17.6413 16.7217 17.9794 16.3805 17.9794 15.9596V8.85919C17.9794 8.43832 17.6413 8.09717 17.2243 8.09717ZM16.4692 15.1975H10.9439V9.62131H16.4692V15.1975Z" fill="#FECC2F"/>
<path d="M32.5531 9.81982H20.9661C20.5491 9.81982 20.2109 10.1611 20.2109 10.5819C20.2109 11.0028 20.5491 11.3441 20.9661 11.3441H32.553C32.9701 11.3441 33.3082 11.0028 33.3082 10.5819C33.3082 10.1611 32.9701 9.81982 32.5531 9.81982Z" fill="#FECC2F"/>
<path d="M27.5954 13.3716H20.9661C20.5491 13.3716 20.2109 13.7128 20.2109 14.1337C20.2109 14.5546 20.5491 14.8958 20.9661 14.8958H27.5954C28.0125 14.8958 28.3506 14.5546 28.3506 14.1337C28.3506 13.7128 28.0125 13.3716 27.5954 13.3716Z" fill="#FECC2F"/>
<path d="M15.8009 22.8848C15.506 22.5872 15.0278 22.5872 14.733 22.8848L13.2069 24.425L12.7109 23.9244C12.416 23.6268 11.9378 23.6268 11.643 23.9244C11.3482 24.222 11.3482 24.7046 11.643 25.0021L12.673 26.0416C12.8205 26.1904 13.0138 26.2648 13.207 26.2648C13.4002 26.2648 13.5935 26.1904 13.7409 26.0416L15.801 23.9625C16.0958 23.6649 16.0958 23.1823 15.8009 22.8848Z" fill="#FECC2F"/>
<path d="M17.2243 20.2021H10.1888C9.77173 20.2021 9.43359 20.5434 9.43359 20.9643V28.0646C9.43359 28.4855 9.77173 28.8267 10.1888 28.8267H17.2243C17.6413 28.8267 17.9794 28.4855 17.9794 28.0646V20.9643C17.9794 20.5434 17.6413 20.2021 17.2243 20.2021ZM16.4692 27.3026H10.9439V21.7264H16.4692V27.3026Z" fill="#FECC2F"/>
<path d="M32.5531 21.9248H20.9661C20.5491 21.9248 20.2109 22.2661 20.2109 22.6869C20.2109 23.1078 20.5491 23.4491 20.9661 23.4491H32.553C32.9702 23.4491 33.3083 23.1078 33.3083 22.6869C33.3083 22.2661 32.9701 21.9248 32.5531 21.9248Z" fill="#FECC2F"/>
<path d="M27.5954 25.4771H20.9661C20.5491 25.4771 20.2109 25.8183 20.2109 26.2392C20.2109 26.66 20.5491 27.0013 20.9661 27.0013H27.5954C28.0125 27.0013 28.3506 26.66 28.3506 26.2392C28.3506 25.8183 28.0125 25.4771 27.5954 25.4771Z" fill="#FECC2F"/>
<path d="M15.8009 34.9903C15.5061 34.6927 15.0279 34.6927 14.733 34.9903L13.2069 36.5305L12.7109 36.0299C12.416 35.7323 11.9378 35.7323 11.643 36.0299C11.3482 36.3274 11.3482 36.8101 11.643 37.1075L12.673 38.147C12.8205 38.2959 13.0138 38.3703 13.207 38.3703C13.4002 38.3703 13.5935 38.2958 13.7409 38.147L15.801 36.0679C16.0958 35.7703 16.0958 35.2877 15.8009 34.9903Z" fill="#FECC2F"/>
<path d="M17.2243 32.3076H10.1888C9.77173 32.3076 9.43359 32.6489 9.43359 33.0697V40.1701C9.43359 40.5909 9.77173 40.9322 10.1888 40.9322H17.2243C17.6413 40.9322 17.9794 40.5909 17.9794 40.1701V33.0697C17.9794 32.6489 17.6413 32.3076 17.2243 32.3076ZM16.4692 39.4079H10.9439V33.8318H16.4692V39.4079Z" fill="#FECC2F"/>
<path d="M40.8506 27.6439V9.71085C40.8506 9.28998 40.5125 8.94873 40.0955 8.94873C39.6784 8.94873 39.3403 9.28998 39.3403 9.71085V27.558C39.2276 27.5587 39.1155 27.5612 39.0035 27.5651C38.9779 27.566 38.9525 27.5674 38.9269 27.5686C38.8229 27.5727 38.7192 27.5783 38.6159 27.5851C38.5787 27.5875 38.5415 27.5902 38.5043 27.5929C38.394 27.6013 38.2841 27.6109 38.1747 27.6222C38.1578 27.6239 38.1409 27.6252 38.124 27.6271C37.999 27.6405 37.8749 27.6563 37.7511 27.6735C37.7178 27.6781 37.6847 27.6832 37.6514 27.6881C37.5547 27.7024 37.4582 27.7178 37.3623 27.7345C37.3302 27.7401 37.2979 27.7454 37.2659 27.7513C37.1433 27.7735 37.0214 27.7973 36.9 27.8232C36.8838 27.8266 36.8678 27.8306 36.8516 27.8341C36.745 27.8574 36.6392 27.8822 36.5337 27.9083C36.5004 27.9165 36.4672 27.9249 36.4339 27.9335C36.3316 27.9597 36.2298 27.9872 36.1286 28.016C36.1099 28.0214 36.091 28.0263 36.0723 28.0318C35.9529 28.0664 35.8345 28.1031 35.7165 28.1413C35.6907 28.1497 35.665 28.1585 35.6392 28.1671C35.5435 28.1988 35.4483 28.2318 35.3537 28.2659C35.3259 28.2759 35.2979 28.2858 35.2701 28.296C35.0364 28.3823 34.8062 28.4756 34.5795 28.5756C34.5535 28.5871 34.5275 28.5988 34.5017 28.6105C34.4037 28.6546 34.3062 28.6999 34.2097 28.7466C34.1939 28.7542 34.1779 28.7616 34.1622 28.7692C34.0488 28.8246 33.9365 28.8818 33.825 28.9405C33.8103 28.9482 33.7958 28.9563 33.7811 28.9641C33.6842 29.0158 33.588 29.0688 33.4926 29.1232C33.4716 29.1352 33.4505 29.147 33.4296 29.1591C33.2114 29.285 32.9976 29.4172 32.7881 29.556C32.7712 29.5671 32.7546 29.5785 32.7379 29.5896C32.643 29.6532 32.5489 29.718 32.456 29.7842C32.4456 29.7916 32.4351 29.7988 32.4248 29.8062C32.3186 29.8821 32.2137 29.9597 32.1103 30.0391C32.1092 30.0399 32.1081 30.0408 32.107 30.0417C32.008 30.1175 31.9105 30.1952 31.8141 30.274C31.8008 30.2848 31.7875 30.2957 31.7743 30.3066C31.5754 30.4703 31.3817 30.6402 31.1936 30.816C31.1863 30.8228 31.1792 30.8296 31.172 30.8364C31.0823 30.9207 30.9938 31.0063 30.9067 31.0933C30.9009 31.0991 30.8951 31.1047 30.8893 31.1105C30.7046 31.2956 30.526 31.4867 30.3533 31.6833C30.3463 31.6913 30.3395 31.6991 30.3326 31.707C30.1589 31.9059 29.9913 32.1103 29.8306 32.3203C29.8302 32.3209 29.8298 32.3214 29.8294 32.3219C29.7496 32.4262 29.6715 32.5319 29.595 32.6388C29.5919 32.6432 29.5888 32.6476 29.5856 32.6519C29.4315 32.868 29.2842 33.0893 29.144 33.3155C29.1405 33.321 29.1371 33.3265 29.1337 33.3321C28.993 33.5598 28.8595 33.7923 28.7335 34.0296H20.968C20.5509 34.0296 20.2128 34.3709 20.2128 34.7918C20.2128 35.2126 20.5509 35.5539 20.968 35.5539H28.0536C28.053 35.5555 28.0526 35.557 28.052 35.5587C27.9963 35.7109 27.944 35.8648 27.8942 36.0198C27.8888 36.0364 27.8834 36.053 27.8782 36.0696C27.8299 36.2224 27.7845 36.3761 27.742 36.5314C27.7379 36.5467 27.7339 36.5619 27.7298 36.577C27.6416 36.905 27.5661 37.238 27.505 37.5762C27.5047 37.5781 27.5042 37.58 27.5039 37.5818H20.968C20.5509 37.5818 20.2128 37.923 20.2128 38.3439C20.2128 38.7648 20.5509 39.106 20.968 39.106H27.3262C27.3262 39.1063 27.3262 39.1067 27.3262 39.107C27.3203 39.2147 27.3159 39.3226 27.3129 39.4309C27.3128 39.4348 27.3126 39.4385 27.3125 39.4424C27.3095 39.5539 27.3078 39.6657 27.3078 39.778C27.3078 39.8779 27.3092 39.9778 27.3115 40.0774C27.3123 40.1105 27.3138 40.1435 27.3148 40.1766C27.3169 40.243 27.3191 40.3095 27.3224 40.3758C27.3242 40.4144 27.3267 40.4527 27.3289 40.4913C27.3324 40.5524 27.336 40.6134 27.3405 40.6742C27.3433 40.7135 27.3466 40.7527 27.3497 40.7919C27.3547 40.8524 27.3599 40.913 27.3657 40.9735C27.3694 41.0109 27.3732 41.0484 27.3772 41.0859C27.384 41.1496 27.3912 41.2132 27.3988 41.2767C27.4029 41.3095 27.4068 41.3423 27.4111 41.375C27.4204 41.4462 27.4303 41.5172 27.4407 41.5881C27.4443 41.6124 27.4478 41.6367 27.4515 41.6608C27.4649 41.7481 27.4793 41.8352 27.4944 41.9219C27.4958 41.9291 27.4969 41.9363 27.4981 41.9434C27.8886 44.1465 28.87 46.1939 30.3438 47.8729H13.2083C12.7913 47.8729 12.4531 48.2141 12.4531 48.635C12.4531 49.0559 12.7913 49.3971 13.2083 49.3971H31.9555C34.0131 51.0262 36.6041 51.9985 39.4161 51.9985C46.093 51.9985 51.525 46.5164 51.525 39.778C51.525 33.5298 46.8538 28.3624 40.8506 27.6439ZM39.4161 50.4746C34.3132 50.4746 30.0413 46.8161 29.0397 41.9616C29.0368 41.9472 29.0337 41.933 29.0307 41.9187C29.0178 41.8542 29.0057 41.7893 28.9938 41.7245C28.9883 41.6942 28.9826 41.6639 28.9774 41.6335C28.9677 41.5781 28.9587 41.5222 28.9499 41.4664C28.9436 41.4264 28.9375 41.3863 28.9316 41.3461C28.9244 41.2964 28.9174 41.2467 28.9109 41.1966C28.9047 41.1499 28.899 41.1031 28.8935 41.0562C28.8881 41.011 28.8828 40.9658 28.8781 40.9203C28.8726 40.8683 28.8677 40.8161 28.863 40.7639C28.8592 40.7222 28.8552 40.6805 28.8519 40.6386C28.8474 40.5819 28.8438 40.525 28.8402 40.4681C28.8378 40.43 28.8351 40.392 28.833 40.3538C28.8296 40.2897 28.8273 40.2253 28.825 40.1611C28.8239 40.1296 28.8223 40.0983 28.8215 40.0667C28.819 39.9707 28.8176 39.8743 28.8176 39.778C28.8176 33.8799 33.5721 29.0816 39.4163 29.0816C39.5177 29.0816 39.6197 29.0833 39.7237 29.0864C39.729 29.0865 39.7341 29.0868 39.7393 29.087C39.8392 29.0903 39.941 29.0948 40.046 29.101C45.598 29.4311 50.015 34.0933 50.015 39.778C50.0148 45.6762 45.2602 50.4746 39.4161 50.4746Z" fill="#FECC2F"/>
<path d="M39.4178 31.3418C37.7428 31.3418 36.1264 31.8402 34.7435 32.7831C34.398 33.0187 34.3071 33.4924 34.5406 33.8412C34.7741 34.19 35.2434 34.2817 35.5891 34.0461C36.7213 33.274 38.0454 32.866 39.4179 32.866C43.1946 32.866 46.267 35.9667 46.267 39.7782C46.267 43.5896 43.1946 46.6903 39.4179 46.6903C35.6413 46.6903 32.5689 43.5895 32.5689 39.7782C32.5689 38.4155 32.9611 37.0976 33.7031 35.967C33.9333 35.6161 33.8382 35.1433 33.4904 34.9109C33.1427 34.6784 32.6742 34.7745 32.4439 35.1255C31.5377 36.5063 31.0586 38.1153 31.0586 39.7782C31.0586 44.43 34.8086 48.2144 39.4178 48.2144C44.0271 48.2144 47.7771 44.4298 47.7771 39.7782C47.7771 35.1263 44.0272 31.3418 39.4178 31.3418Z" fill="#FECC2F"/>
<path d="M40.1807 37.4489V34.6752C40.1807 34.2543 39.8426 33.9131 39.4256 33.9131C39.0085 33.9131 38.6704 34.2543 38.6704 34.6752V37.4489C37.7556 37.7663 37.0963 38.6426 37.0963 39.6721C37.0963 40.0969 37.2092 40.4955 37.4052 40.8397L36.3594 42.0233C36.082 42.3376 36.1093 42.8193 36.4205 43.0994C36.5645 43.229 36.744 43.2927 36.9228 43.2927C37.1305 43.2927 37.3375 43.2067 37.4866 43.0379L38.5398 41.8458C38.813 41.9597 39.1121 42.0228 39.4255 42.0228C40.7098 42.0228 41.7548 40.9683 41.7548 39.6721C41.7549 38.6426 41.0954 37.7663 40.1807 37.4489ZM39.4257 40.4988C38.974 40.4988 38.6066 40.128 38.6066 39.6722C38.6066 39.2164 38.974 38.8456 39.4257 38.8456C39.8772 38.8456 40.2447 39.2164 40.2447 39.6722C40.2447 40.1281 39.8773 40.4988 39.4257 40.4988Z" fill="#FECC2F"/>
</g>
<defs>
<clipPath id="clip0">
<rect width="51.5253" height="52" fill="white"/>
</clipPath>
</defs>
</svg>
