<svg width="72" height="72" viewBox="0 0 72 72" fill="none" xmlns="http://www.w3.org/2000/svg">
<g clip-path="url(#clip0)">
<path d="M25.4388 22.5629C38.3026 19.3473 50.1281 12.9137 59.8063 3.89384V6.96774H62.1289V0H55.1611V2.32258H58.0819C48.7173 11.0056 37.2961 17.2044 24.8769 20.3095L22.3638 20.9378L22.9263 23.1901L25.4388 22.5629Z" fill="black"/>
<path d="M62.129 34.8386V11.6128H55.1613V34.8386H52.8387V16.258H45.871V34.8386H43.5484V20.9031H36.5807V34.8386H34.2581V26.7096H27.2903V34.8386H21.4839V71.9999H58.0112L66.7742 61.9849V34.8386H62.129ZM57.4839 13.9354H59.8065V34.8386H57.4839V13.9354ZM48.1936 18.5805H50.5161V34.8386H48.1936V18.5805ZM38.9032 23.2257H41.2258V34.8386H38.9032V23.2257ZM29.6129 29.0321H31.9355V34.8386H29.6129V29.0321ZM23.8065 37.1612H64.4516V60.387H56.3226V69.6773H23.8065V37.1612ZM63.0533 62.7096L58.6452 67.7471V62.7096H63.0533Z" fill="black"/>
<path d="M5.22559 7.72144V66.1936C5.22559 69.3951 7.83055 72.0001 11.032 72.0001C14.2335 72.0001 16.8385 69.3951 16.8385 66.1936V7.72144L11.032 0.463379L5.22559 7.72144ZM13.2616 6.96785H8.80245L11.032 4.182L13.2616 6.96785ZM9.87075 9.29043V53.4195H7.54817V9.29043H9.87075ZM14.5159 55.742V58.0646H7.54817V55.742H14.5159ZM12.1933 53.4195V9.29043H14.5159V53.4195H12.1933ZM11.032 69.6775C9.11149 69.6775 7.54817 68.1142 7.54817 66.1936V60.3872H14.5159V66.1936C14.5159 68.1142 12.9526 69.6775 11.032 69.6775Z" fill="black"/>
<path d="M34.8386 44.1292H34.2579V41.8066H31.9354V44.1292H31.3547C28.4736 44.1292 26.1289 46.4739 26.1289 49.355C26.1289 52.2361 28.4736 54.5808 31.3547 54.5808H34.8386C36.4399 54.5808 37.7418 55.8828 37.7418 57.4841C37.7418 59.0854 36.4399 60.3873 34.8386 60.3873H31.3547C29.7534 60.3873 28.4515 59.0854 28.4515 57.4841V56.9034H26.1289V57.4841C26.1289 60.3652 28.4736 62.7099 31.3547 62.7099H31.9354V65.0324H34.2579V62.7099H34.8386C37.7197 62.7099 40.0644 60.3652 40.0644 57.4841C40.0644 54.6029 37.7197 52.2583 34.8386 52.2583H31.3547C29.7534 52.2583 28.4515 50.9563 28.4515 49.355C28.4515 47.7537 29.7534 46.4518 31.3547 46.4518H34.8386C36.4399 46.4518 37.7418 47.7537 37.7418 49.355V49.9357H40.0644V49.355C40.0644 46.4739 37.7197 44.1292 34.8386 44.1292Z" fill="black"/>
<path d="M43.5483 39.4839H45.8709V41.8065H43.5483V39.4839Z" fill="black"/>
<path d="M48.1934 39.4839H62.1288V41.8065H48.1934V39.4839Z" fill="black"/>
<path d="M43.5483 48.7744H45.8709V51.097H43.5483V48.7744Z" fill="black"/>
<path d="M48.1934 48.7744H62.1288V51.097H48.1934V48.7744Z" fill="black"/>
<path d="M43.5483 44.1289H62.129V46.4515H43.5483V44.1289Z" fill="black"/>
<path d="M43.5483 53.4194H62.129V55.742H43.5483V53.4194Z" fill="black"/>
<path d="M43.5483 58.0645H54V60.387H43.5483V58.0645Z" fill="black"/>
<path d="M43.5483 62.7095H54V65.0321H43.5483V62.7095Z" fill="black"/>
</g>
<defs>
<clipPath id="clip0">
<rect width="72" height="72" fill="white"/>
</clipPath>
</defs>
</svg>
