<svg width="48" height="46" viewBox="0 0 48 46" fill="none" xmlns="http://www.w3.org/2000/svg">
<path d="M44.9786 19.6302H44.3051V17.6083V10.4208C44.3051 8.06765 42.3907 6.15317 40.0376 6.15317H21.5317L9.04675 2.58602C9.04316 2.58503 9.03947 2.58449 9.03588 2.58351C9.0322 2.58252 9.02869 2.58108 9.02501 2.58018C9.01746 2.5783 9.01 2.5774 9.00255 2.57578C8.99096 2.57335 8.97937 2.57084 8.96778 2.56895C8.95727 2.56724 8.94693 2.56617 8.93642 2.56491C8.9242 2.56347 8.91207 2.56221 8.89995 2.56149C8.89006 2.56096 8.88027 2.56087 8.87039 2.56069C8.85781 2.56051 8.84532 2.56042 8.83283 2.56096C8.82358 2.56131 8.81432 2.56221 8.80516 2.56293C8.79231 2.56401 8.77947 2.56518 8.7668 2.56706C8.75817 2.56832 8.74964 2.56994 8.7411 2.57147C8.72799 2.5738 8.71505 2.57632 8.7022 2.57946C8.6942 2.58144 8.68639 2.58369 8.67848 2.58593C8.66536 2.58971 8.65243 2.59357 8.63949 2.59806C8.63221 2.60067 8.62502 2.60345 8.61775 2.60633C8.60472 2.61136 8.59178 2.61666 8.57911 2.6225C8.57238 2.62564 8.56582 2.62906 8.55917 2.63238C8.5465 2.63876 8.53401 2.64523 8.52179 2.65251C8.51542 2.65619 8.50931 2.66014 8.50302 2.6641C8.49098 2.67164 8.47912 2.67937 8.46762 2.68772C8.4616 2.69204 8.45576 2.69671 8.44983 2.70129C8.43878 2.70983 8.42782 2.71854 8.41731 2.7278C8.41138 2.73301 8.40572 2.73849 8.39997 2.74388C8.39008 2.75322 8.38029 2.76256 8.37095 2.77245C8.36511 2.77865 8.35963 2.78512 8.35397 2.79158C8.34543 2.80138 8.33699 2.81126 8.32899 2.82159C8.32324 2.82905 8.31785 2.83669 8.31237 2.84432C8.30527 2.85429 8.29826 2.86436 8.29179 2.87469C8.28622 2.88349 8.2811 2.89266 8.27598 2.90173C8.27032 2.9117 8.26466 2.92177 8.25954 2.9321C8.25451 2.94216 8.25002 2.95249 8.24544 2.96283C8.24094 2.97298 8.23654 2.98313 8.23259 2.99355C8.22846 3.00451 8.22486 3.01574 8.22118 3.02706C8.21884 3.03434 8.21597 3.04117 8.21381 3.04854C8.21273 3.05222 8.21228 3.05581 8.21129 3.05941C8.21031 3.06309 8.20887 3.0666 8.20797 3.07028L7.43747 6.15299H5.26802C2.9196 6.15299 1.00845 8.05974 1.00072 10.4065C1.00063 10.4113 1 10.4159 1 10.4207V33.78C1 34.1519 1.30277 34.4538 1.67383 34.4538C2.04578 34.4538 2.34765 34.1519 2.34765 33.78V13.5286C3.11168 14.247 4.13896 14.6885 5.26802 14.6885H40.0376C40.0384 14.6885 40.0391 14.6884 40.0399 14.6884C41.6488 14.6897 42.9575 15.999 42.9575 17.6084V22.3256H35.5443C35.5439 22.3256 35.5435 22.3256 35.5431 22.3256C35.5236 22.3256 35.5042 22.3268 35.4848 22.3285C35.4634 22.3304 35.4422 22.3335 35.4213 22.3373C35.4182 22.3379 35.4151 22.3381 35.412 22.3388C35.3944 22.3423 35.3771 22.3469 35.36 22.3518C35.3562 22.3529 35.3523 22.3536 35.3486 22.3548C35.3334 22.3594 35.3185 22.365 35.3037 22.3707C35.2981 22.3728 35.2923 22.3746 35.2866 22.3769C35.2742 22.3821 35.2623 22.3881 35.2503 22.3939C35.2424 22.3977 35.2344 22.4012 35.2267 22.4052C35.2174 22.4102 35.2086 22.4158 35.1996 22.4212C35.1896 22.4272 35.1795 22.4329 35.1698 22.4394C35.1632 22.4437 35.1572 22.4486 35.1509 22.4532C35.1394 22.4615 35.1278 22.4697 35.1168 22.4787C35.1121 22.4827 35.1077 22.4871 35.1031 22.4911C35.0913 22.5014 35.0796 22.5115 35.0684 22.5227C35.0619 22.5292 35.0559 22.5364 35.0497 22.5432C35.041 22.5527 35.032 22.5619 35.0238 22.572C35.0098 22.589 34.9968 22.6066 34.9846 22.6248C34.9843 22.6251 34.9841 22.6255 34.9839 22.6258L31.3903 28.0165C31.3652 28.0541 31.344 28.0939 31.3272 28.1353C31.3209 28.1507 31.3157 28.1665 31.3106 28.1821C31.3091 28.1869 31.3071 28.1914 31.3057 28.1962C31.3006 28.2128 31.2968 28.2296 31.2931 28.2463C31.2921 28.2507 31.2909 28.2551 31.29 28.2595C31.287 28.2745 31.285 28.2897 31.2831 28.3049C31.2823 28.3114 31.2811 28.3179 31.2804 28.3244C31.2792 28.3369 31.2789 28.3493 31.2785 28.3618C31.278 28.3713 31.2772 28.3808 31.2772 28.3904C31.2772 28.3997 31.278 28.409 31.2784 28.4182C31.2788 28.431 31.2792 28.4438 31.2804 28.4566C31.2811 28.4628 31.2822 28.469 31.283 28.4752C31.285 28.4906 31.287 28.5061 31.29 28.5214C31.2909 28.5257 31.2921 28.5298 31.2931 28.534C31.2968 28.5509 31.3007 28.5678 31.3058 28.5846C31.3072 28.5894 31.3092 28.5939 31.3107 28.5988C31.3158 28.6144 31.321 28.6301 31.3273 28.6456C31.3442 28.6869 31.3654 28.7268 31.3906 28.7645L34.9841 34.1544C34.9842 34.1546 34.9844 34.1548 34.9846 34.1551C34.9991 34.1766 35.0149 34.197 35.0316 34.2167C35.0371 34.2232 35.0429 34.2292 35.0486 34.2353C35.06 34.2478 35.0718 34.2598 35.0841 34.2714C35.0914 34.2783 35.0986 34.2849 35.106 34.2913C35.1191 34.3025 35.1327 34.313 35.1466 34.3233C35.1529 34.3278 35.1589 34.3329 35.1653 34.3372C35.1855 34.3509 35.2064 34.3636 35.2281 34.3751C35.2335 34.378 35.2392 34.3804 35.2447 34.3831C35.2619 34.3917 35.2795 34.3997 35.2976 34.4068C35.3046 34.4096 35.3116 34.4121 35.3187 34.4146C35.3359 34.4207 35.3533 34.4261 35.3711 34.4309C35.3784 34.4328 35.3856 34.4348 35.3929 34.4366C35.4112 34.4408 35.4297 34.444 35.4485 34.4467C35.4553 34.4477 35.462 34.449 35.4688 34.4499C35.492 34.4525 35.5156 34.4539 35.5395 34.4541C35.5414 34.4541 35.5432 34.4544 35.5452 34.4544C35.5456 34.4544 35.546 34.4543 35.5465 34.4543H42.9578V39.1719C42.9578 40.782 41.6478 42.092 40.0378 42.092H5.26838C3.65838 42.092 2.34846 40.782 2.34846 39.1719C2.34846 39.1684 2.34801 39.1649 2.34792 39.1614V36.4756C2.34792 36.1046 2.04605 35.8018 1.6741 35.8018C1.30304 35.8018 1.00027 36.1046 1.00027 36.4756V39.1719C1.00027 39.1789 1.00108 39.1857 1.00135 39.1926C1.01258 41.5363 2.9222 43.4396 5.26838 43.4396H40.0378C42.3908 43.4396 44.3051 41.5255 44.3054 39.1726C44.3054 39.1725 44.3054 39.1724 44.3054 39.1722V34.4543H44.9789C46.0933 34.4543 47 33.5476 47 32.4332V21.6513C46.9997 20.5369 46.093 19.6302 44.9786 19.6302ZM9.34647 4.0732L21.2363 7.47046C21.2368 7.47064 21.2374 7.47073 21.238 7.47091L29.2068 9.74772H7.9282L9.34647 4.0732ZM42.9574 14.5003C42.1935 13.7821 41.1664 13.3407 40.0376 13.3407C40.0364 13.3407 40.0353 13.3408 40.0341 13.3408H5.26802C3.65793 13.3408 2.34801 12.0309 2.34801 10.4208C2.34801 8.81074 3.65793 7.50082 5.26802 7.50082H7.10065L6.53913 9.74772H5.2682C4.89607 9.74772 4.59437 10.0494 4.59437 10.4216C4.59437 10.7937 4.89607 11.0954 5.2682 11.0954H7.06291C7.06381 11.0954 7.0648 11.0956 7.06579 11.0956C7.06651 11.0956 7.06723 11.0954 7.06786 11.0954H34.0156C34.0165 11.0954 34.0173 11.0956 34.0181 11.0956C34.0189 11.0956 34.0196 11.0954 34.0203 11.0954H39.1383C39.5105 11.0954 39.8122 10.7937 39.8122 10.4216C39.8122 10.0494 39.5105 9.74772 39.1383 9.74772H34.1122L26.2483 7.50082H40.0375C41.6475 7.50082 42.9574 8.81074 42.9574 10.4208V14.5003ZM45.6521 32.4329C45.6521 32.8042 45.3499 33.1063 44.9786 33.1063H35.9049L32.7605 28.3901L35.9049 23.6731H44.9786C44.988 23.6731 44.9972 23.672 45.0065 23.6717C45.2326 23.6685 45.4497 23.6283 45.6521 23.5566V32.4329ZM44.9786 22.3247C44.9739 22.3247 44.9694 22.3254 44.9647 22.3255H44.3051V20.9778H44.9786C45.3499 20.9778 45.6521 21.28 45.6521 21.6513C45.6521 22.0226 45.3499 22.3247 44.9786 22.3247Z" fill="white" stroke="white" stroke-width="0.4"/>
<path d="M38.2412 25.9192C36.8788 25.9192 35.7705 27.0276 35.7705 28.39C35.7705 29.7524 36.8788 30.8607 38.2412 30.8607C39.6036 30.8607 40.7119 29.7524 40.7119 28.39C40.7119 27.0276 39.6036 25.9192 38.2412 25.9192ZM38.2412 29.513C37.6219 29.513 37.1182 29.0093 37.1182 28.39C37.1182 27.7707 37.6219 27.2668 38.2412 27.2668C38.8605 27.2668 39.3642 27.7707 39.3642 28.39C39.3642 29.0093 38.8605 29.513 38.2412 29.513Z" fill="white" stroke="white" stroke-width="0.4"/>
</svg>
