<svg width="44" height="55" viewBox="0 0 44 55" fill="none" xmlns="http://www.w3.org/2000/svg">
<path d="M19.0796 34.99H17.0796V36.99H19.0796V34.99ZM20.6896 28.97L19.0557 27.8166L19.0442 27.8329L19.0331 27.8494L20.6896 28.97ZM25.5196 23.72L24.1743 22.2401L24.1727 22.2416L25.5196 23.72ZM28.8797 20.22L27.2888 19.0079L27.2842 19.0139L27.2797 19.02L28.8797 20.22ZM27.8997 12.87L26.6909 14.4634L26.7214 14.4865L26.7527 14.5085L27.8997 12.87ZM16.5596 12.73L17.4932 14.4988L17.5019 14.4941L17.5107 14.4894L16.5596 12.73ZM12.2896 16.51L11.2775 18.235L12.8544 19.1603L13.9171 17.6725L12.2896 16.51ZM3.81965 11.54L2.14755 10.4427L0.993821 12.2008L2.80748 13.265L3.81965 11.54ZM11.7296 4.61L10.8553 2.81123L10.8453 2.81612L11.7296 4.61ZM36.5097 5.59L35.3516 7.22069L35.3627 7.22846L36.5097 5.59ZM40.4296 20.15L38.6069 19.3268L38.5957 19.3515L38.5853 19.3765L40.4296 20.15ZM38.1197 23.86L36.6398 22.5147L36.6366 22.5182L38.1197 23.86ZM34.6196 27.29L35.9509 28.7826L35.9602 28.7742L34.6196 27.29ZM30.8396 31.21L32.4222 32.4329L32.4353 32.416L32.448 32.3988L30.8396 31.21ZM29.6497 34.99V36.99H31.6497V34.99H29.6497ZM19.5696 50.74L18.1554 52.1542L18.1816 52.1804L18.2087 52.2056L19.5696 50.74ZM19.5696 41.78L20.9285 43.2475L20.9428 43.2342L20.9569 43.2206L19.5696 41.78ZM29.2296 41.78L27.8424 43.2206L27.8565 43.2342L27.8708 43.2475L29.2296 41.78ZM29.1596 50.74L30.5469 52.1806L30.5479 52.1797L29.1596 50.74ZM21.0796 34.99C21.0796 32.8563 21.5497 31.2681 22.3462 30.0906L19.0331 27.8494C17.6829 29.8453 17.0796 32.2703 17.0796 34.99H21.0796ZM22.3236 30.1234C23.3313 28.6958 24.8293 27.0546 26.8666 25.1984L24.1727 22.2416C22.01 24.2121 20.288 26.0709 19.0557 27.8166L22.3236 30.1234ZM26.865 25.1999C28.4381 23.7698 29.6669 22.5037 30.4796 21.42L27.2797 19.02C26.6924 19.8029 25.6812 20.8702 24.1743 22.2401L26.865 25.1999ZM30.4705 21.4321C31.4782 20.1095 31.9996 18.5885 31.9996 16.93H27.9996C27.9996 17.6982 27.7745 18.3704 27.2888 19.0079L30.4705 21.4321ZM31.9996 16.93C31.9996 14.5588 30.9878 12.5904 29.0466 11.2315L26.7527 14.5085C27.6115 15.1096 27.9996 15.8479 27.9996 16.93H31.9996ZM29.1084 11.2766C27.3044 9.90806 25.0131 9.33 22.4396 9.33V13.33C24.4396 13.33 25.7882 13.7786 26.6909 14.4634L29.1084 11.2766ZM22.4396 9.33C19.9539 9.33 17.6604 9.8615 15.6086 10.9706L17.5107 14.4894C18.9122 13.7318 20.5387 13.33 22.4396 13.33V9.33ZM15.6261 10.9612C13.6552 12.0014 11.9993 13.4756 10.6622 15.3475L13.9171 17.6725C14.9133 16.2778 16.1041 15.2319 17.4932 14.4988L15.6261 10.9612ZM13.3018 14.785L4.83182 9.81503L2.80748 13.265L11.2775 18.235L13.3018 14.785ZM5.49174 12.6373C7.24912 9.9594 9.60925 7.88507 12.614 6.40388L10.8453 2.81612C7.22338 4.60159 4.31017 7.14726 2.14755 10.4427L5.49174 12.6373ZM12.604 6.40873C15.6374 4.93419 19.2926 4.16 23.6296 4.16V0.16C18.82 0.16 14.5419 1.01914 10.8553 2.81126L12.604 6.40873ZM23.6296 4.16C28.7273 4.16 32.5722 5.24683 35.3517 7.22065L37.6676 3.95934C34.0071 1.35983 29.2653 0.16 23.6296 0.16V4.16ZM35.3627 7.22846C38.0832 9.13282 39.4096 11.6885 39.4096 15.11H43.4096C43.4096 10.4115 41.4694 6.62051 37.6566 3.95153L35.3627 7.22846ZM39.4096 15.11C39.4096 16.7967 39.1219 18.1864 38.6069 19.3268L42.2524 20.9732C43.044 19.2203 43.4096 17.25 43.4096 15.11H39.4096ZM38.5853 19.3765C38.0553 20.6403 37.4013 21.6769 36.6398 22.5147L39.5995 25.2053C40.7046 23.9897 41.5907 22.553 42.274 20.9235L38.5853 19.3765ZM36.6366 22.5182C35.8107 23.431 34.6969 24.5252 33.2791 25.8058L35.9602 28.7742C37.4357 27.4415 38.6553 26.249 39.6027 25.2018L36.6366 22.5182ZM33.2884 25.7974C31.5221 27.3728 30.1446 28.7856 29.2313 30.0212L32.448 32.3988C33.1214 31.4877 34.2639 30.2872 35.9509 28.7826L33.2884 25.7974ZM29.2571 29.9871C28.1533 31.4155 27.6497 33.1239 27.6497 34.99H31.6497C31.6497 33.8694 31.9393 33.0578 32.4222 32.4329L29.2571 29.9871ZM29.6497 32.99H19.0796V36.99H29.6497V32.99ZM24.3996 50.56C22.9508 50.56 21.8388 50.1178 20.9306 49.2744L18.2087 52.2056C19.9139 53.7889 22.0218 54.56 24.3996 54.56V50.56ZM20.9839 49.3258C20.0969 48.4388 19.6796 47.43 19.6796 46.19H15.6796C15.6796 48.4966 16.5224 50.5212 18.1554 52.1542L20.9839 49.3258ZM19.6796 46.19C19.6796 44.9532 20.0922 44.0219 20.9285 43.2475L18.2108 40.3125C16.5271 41.8714 15.6796 43.8802 15.6796 46.19H19.6796ZM20.9569 43.2206C21.7982 42.4106 22.8893 41.96 24.3996 41.96V37.96C21.99 37.96 19.8611 38.7228 18.1824 40.3394L20.9569 43.2206ZM24.3996 41.96C25.91 41.96 27.0011 42.4106 27.8424 43.2206L30.6169 40.3394C28.9382 38.7228 26.8093 37.96 24.3996 37.96V41.96ZM27.8708 43.2475C28.7071 44.0219 29.1197 44.9532 29.1197 46.19H33.1197C33.1197 43.8802 32.2722 41.8714 30.5885 40.3125L27.8708 43.2475ZM29.1197 46.19C29.1197 47.406 28.6975 48.4072 27.7714 49.3003L30.5479 52.1797C32.2351 50.5528 33.1197 48.5207 33.1197 46.19H29.1197ZM27.7724 49.2994C26.9216 50.1186 25.8487 50.56 24.3996 50.56V54.56C26.7773 54.56 28.8777 53.7881 30.5469 52.1806L27.7724 49.2994Z" fill="#FECC2F"/>
</svg>
