<svg width="55" height="55" viewBox="0 0 55 55" fill="none" xmlns="http://www.w3.org/2000/svg">
<path d="M47.152 48.5439C46.5593 48.5439 46.0781 49.0251 46.0781 49.6178C46.0781 50.2106 46.5593 50.6917 47.152 50.6917C47.7448 50.6917 48.2259 50.2106 48.2259 49.6178C48.2259 49.0251 47.7448 48.5439 47.152 48.5439Z" fill="#FECC2F"/>
<path d="M40.3864 48.5439C39.7936 48.5439 39.3125 49.0251 39.3125 49.6178C39.3125 50.2106 39.7936 50.6917 40.3864 50.6917C40.9791 50.6917 41.4603 50.2106 41.4603 49.6178C41.4603 49.0251 40.9791 48.5439 40.3864 48.5439Z" fill="#FECC2F"/>
<path d="M33.945 48.5439C33.3522 48.5439 32.8711 49.0251 32.8711 49.6178C32.8711 50.2106 33.3522 50.6917 33.945 50.6917C34.5377 50.6917 35.0189 50.2106 35.0189 49.6178C35.0189 49.0251 34.5377 48.5439 33.945 48.5439Z" fill="#FECC2F"/>
<path d="M26.8551 48.5439C26.2624 48.5439 25.7812 49.0251 25.7812 49.6178C25.7812 50.2106 26.2624 50.6917 26.8551 50.6917C27.4479 50.6917 27.929 50.2106 27.929 49.6178C27.929 49.0251 27.4479 48.5439 26.8551 48.5439Z" fill="#FECC2F"/>
<path d="M20.4137 48.5439C19.821 48.5439 19.3398 49.0251 19.3398 49.6178C19.3398 50.2106 19.821 50.6917 20.4137 50.6917C21.0065 50.6917 21.4876 50.2106 21.4876 49.6178C21.4876 49.0251 21.0065 48.5439 20.4137 48.5439Z" fill="#FECC2F"/>
<path d="M13.9684 48.5439C13.3757 48.5439 12.8945 49.0251 12.8945 49.6178C12.8945 50.2106 13.3757 50.6917 13.9684 50.6917C14.5612 50.6917 15.0423 50.2106 15.0423 49.6178C15.0423 49.0251 14.5612 48.5439 13.9684 48.5439Z" fill="#FECC2F"/>
<path d="M7.52702 48.5439C6.93427 48.5439 6.45312 49.0251 6.45312 49.6178C6.45312 50.2106 6.93427 50.6917 7.52702 50.6917C8.11977 50.6917 8.60092 50.2106 8.60092 49.6178C8.60092 49.0251 8.11977 48.5439 7.52702 48.5439Z" fill="#FECC2F"/>
<path d="M49.6219 44.2406H48.2259V33.2957C48.2259 32.7027 47.745 32.2218 47.152 32.2218H38.2388C37.6457 32.2218 37.1649 32.7027 37.1649 33.2957V44.2406H27.9295V30.074C27.9295 28.186 27.3287 26.3943 26.1918 24.8928C25.1474 23.5131 23.6845 22.4665 22.051 21.9224L15.0029 15.217L36.9458 12.5477C37.3319 12.9779 37.7641 13.3597 38.2386 13.6901V17.1875H37.1647C36.7579 17.1875 36.3862 17.4173 36.2043 17.7811L34.0565 22.0766C33.8498 22.4901 33.9308 22.9894 34.2576 23.3161L38.5531 27.6116C38.9724 28.031 39.6524 28.031 40.0719 27.6116C40.4913 27.1922 40.4913 26.5123 40.0719 26.0928L36.3236 22.3446L37.8285 19.3351H47.2399L48.7448 22.3446L44.9966 26.0928C44.5772 26.5121 44.5772 27.1921 44.9966 27.6116C45.2062 27.8213 45.4811 27.9261 45.7559 27.9261C46.0307 27.9261 46.3056 27.8213 46.5153 27.6116L50.8108 23.3161C51.1375 22.9893 51.2186 22.49 51.0119 22.0766L48.8641 17.7811C48.6822 17.4173 48.3103 17.1875 47.9036 17.1875H46.8297V13.6905C48.831 12.2931 50.0513 9.98476 50.0513 7.52254C50.0513 3.37756 46.6791 0.00537109 42.5341 0.00537109C39.7436 0.00537109 37.2176 1.53613 35.915 3.9586L9.74628 4.51602C9.65207 4.51806 9.56162 4.53331 9.47515 4.55791C8.84082 4.38829 8.18737 4.30096 7.52587 4.30096C3.38089 4.30096 0.00870117 7.67314 0.00870117 11.8181C0.00870117 15.8228 3.1567 19.1055 7.108 19.323L11.9904 25.6241C11.1758 26.9621 10.7476 28.4844 10.7476 30.074V44.2405H5.37808C3.94206 44.2405 2.59166 44.8001 1.57566 45.8162C0.559561 46.8323 0 48.1826 0 49.6187C0 52.5842 2.41259 54.9968 5.37808 54.9968H49.6219C51.0579 54.9968 52.4083 54.4372 53.4243 53.4211C54.4404 52.4051 55 51.0547 55 49.6187C55 46.6532 52.5874 44.2406 49.6219 44.2406ZM44.682 17.1875H40.3865V14.7265C41.0802 14.9328 41.8039 15.0397 42.5343 15.0397C43.2648 15.0397 43.9885 14.9328 44.6821 14.7265V17.1875H44.682ZM37.585 5.43641C37.585 5.4363 37.5851 5.43619 37.5851 5.43608C38.4272 3.4418 40.3698 2.15327 42.5342 2.15327C45.4949 2.15327 47.9036 4.56199 47.9036 7.52265C47.9036 9.43368 46.8746 11.216 45.2179 12.1741C44.4064 12.6439 43.4784 12.892 42.5342 12.892C41.5901 12.892 40.662 12.6438 39.8503 12.174C39.2254 11.8125 38.688 11.3378 38.2525 10.7622C37.541 9.82416 37.165 8.70386 37.165 7.52265C37.1651 6.79776 37.3063 6.09587 37.585 5.43641ZM39.3126 34.3696H46.0781V44.2493H39.3126V34.3696ZM21.1791 23.8981C21.1797 23.8984 21.1805 23.8986 21.1812 23.8988C23.89 24.7046 25.7818 27.2439 25.7818 30.0742C25.7818 33.627 22.8914 36.5174 19.3385 36.5174C15.7856 36.5174 12.8952 33.6269 12.8952 30.0742C12.8952 28.6724 13.3375 27.3404 14.1743 26.2216C15.4043 24.5751 17.2866 23.6309 19.3385 23.6309C19.968 23.6308 20.5872 23.7207 21.1791 23.8981ZM25.7818 35.7475V44.2493H12.8952V35.7475C14.4707 37.5346 16.7745 38.6651 19.3385 38.6651C21.9026 38.6651 24.2063 37.5345 25.7818 35.7475ZM35.1485 6.12315C35.0623 6.5812 35.0172 7.04827 35.0172 7.52254C35.0172 8.5786 35.233 9.59965 35.6477 10.5421L14.9391 13.0612C15.0069 12.6532 15.043 12.2385 15.043 11.8181C15.043 9.82255 14.2572 7.96673 12.9355 6.59624L35.1485 6.12315ZM7.30845 17.1819C4.44823 17.0674 2.15639 14.7058 2.15639 11.8181C2.15639 8.85747 4.56511 6.44875 7.52576 6.44875C8.11476 6.44875 8.69473 6.5436 9.24945 6.73062C11.4301 7.46926 12.8951 9.51371 12.8951 11.8181C12.8951 12.543 12.7538 13.2449 12.4748 13.9049C12.4014 14.0786 12.3159 14.2541 12.2219 14.4242C11.3348 16.0188 9.68816 17.0534 7.87241 17.1735C7.68851 17.1267 7.49386 17.1285 7.30845 17.1819ZM9.60588 19.0403C11.0589 18.6196 12.3625 17.7656 13.3314 16.5911L18.5162 21.5238C16.5852 21.7121 14.7637 22.5572 13.3705 23.8987L9.60588 19.0403ZM51.8933 51.8901C51.2862 52.4972 50.4795 52.8316 49.6219 52.8316H5.37808C3.60637 52.8316 2.1652 51.3903 2.1652 49.6186C2.1652 48.761 2.4996 47.9543 3.10675 47.3472C3.71379 46.7401 4.52053 46.4057 5.37808 46.4057H11.8213C11.8658 46.4057 11.9094 46.4023 11.9525 46.397H26.7246C26.7677 46.4023 26.8113 46.4057 26.8558 46.4057H38.2389C38.2833 46.4057 38.3269 46.4023 38.37 46.397H47.0211C47.0642 46.4023 47.1078 46.4057 47.1523 46.4057H49.6222C51.3938 46.4057 52.8351 47.847 52.8351 49.6187C52.8348 50.4762 52.5004 51.283 51.8933 51.8901Z" fill="#FECC2F"/>
<path d="M42.5342 4.2998C40.7578 4.2998 39.3125 5.74506 39.3125 7.52149C39.3125 9.29793 40.7578 10.7431 42.5342 10.7431C44.3106 10.7431 45.7558 9.29782 45.7558 7.52149C45.7558 5.74506 44.3105 4.2998 42.5342 4.2998ZM42.5342 8.59539C41.9421 8.59539 41.4603 8.1136 41.4603 7.52149C41.4603 6.92938 41.9421 6.4476 42.5342 6.4476C43.1263 6.4476 43.6081 6.92938 43.6081 7.52149C43.6081 8.1136 43.1263 8.59539 42.5342 8.59539Z" fill="#FECC2F"/>
<path d="M7.52638 8.59521C5.74994 8.59521 4.30469 10.0405 4.30469 11.8169C4.30469 13.5933 5.74994 15.0385 7.52638 15.0385C9.30281 15.0385 10.7481 13.5932 10.7481 11.8169C10.748 10.0404 9.30281 8.59521 7.52638 8.59521ZM7.52638 12.8907C6.93427 12.8907 6.45248 12.4089 6.45248 11.8168C6.45248 11.2247 6.93427 10.7429 7.52638 10.7429C8.11849 10.7429 8.60027 11.2247 8.60027 11.8168C8.60027 12.4089 8.11849 12.8907 7.52638 12.8907Z" fill="#FECC2F"/>
<path d="M19.3384 25.7773C16.9699 25.7773 15.043 27.7042 15.043 30.0728C15.043 32.4414 16.9699 34.3683 19.3384 34.3683C21.707 34.3683 23.6339 32.4414 23.6339 30.0728C23.6339 27.7043 21.707 25.7773 19.3384 25.7773ZM19.3384 32.2206C18.1541 32.2206 17.1907 31.2571 17.1907 30.0728C17.1907 28.8886 18.1541 27.925 19.3384 27.925C20.5227 27.925 21.4862 28.8885 21.4862 30.0728C21.4862 31.2571 20.5228 32.2206 19.3384 32.2206Z" fill="#FECC2F"/>
</svg>
