<svg width="53" height="53" viewBox="0 0 53 53" fill="none" xmlns="http://www.w3.org/2000/svg">
<path d="M18.5699 25.596C16.5639 23.3303 13.8891 22.083 11.0369 22.083C8.18457 22.083 5.50984 23.3303 3.50467 25.596C-0.569264 30.1991 -0.569264 37.6871 3.50467 42.2901L11.0369 50.7993L18.569 42.2901C22.6439 37.6871 22.6439 30.1991 18.5699 25.596ZM17.2467 41.1188L11.0377 48.1334L4.8279 41.1188C1.3246 37.1624 1.3246 30.7238 4.8279 26.7673C6.49299 24.8858 8.69867 23.8497 11.0369 23.8497C13.375 23.8497 15.5816 24.8858 17.2458 26.7673C20.7491 30.7238 20.7491 37.1615 17.2467 41.1188Z" fill="black"/>
<path d="M43.0618 21.6479L48.7717 15.2119C51.8439 11.7492 51.8439 6.11708 48.7717 2.65442C47.2523 0.942517 45.2242 0 43.0609 0C40.8985 0 38.8704 0.942517 37.3511 2.65442C34.2788 6.11708 34.2788 11.7492 37.3511 15.2119L43.0618 21.6479ZM38.6725 3.82748C39.8518 2.49807 41.41 1.76667 43.0609 1.76667C44.7127 1.76667 46.2709 2.49807 47.4502 3.82748C49.9483 6.64267 49.9483 11.2236 47.4502 14.0388L43.0618 18.9864L38.6725 14.0388C36.1744 11.2236 36.1744 6.64267 38.6725 3.82748Z" fill="black"/>
<path d="M46.467 48.1565C45.9909 48.0496 45.5183 48.3481 45.4114 48.8243C45.3099 49.2748 45.1129 49.689 44.8258 50.0539C44.5246 50.4372 44.5899 50.9928 44.9742 51.2941C45.1367 51.4213 45.3284 51.4831 45.5192 51.4831C45.7816 51.4831 46.0404 51.3674 46.2144 51.1457C46.6596 50.5803 46.9776 49.9125 47.1348 49.2129C47.2417 48.7359 46.9431 48.2633 46.467 48.1565Z" fill="black"/>
<path d="M28.2651 27.3838C27.8826 27.3829 27.5107 27.3149 27.1592 27.1806C26.7069 27.0084 26.1937 27.2354 26.0188 27.6912C25.8456 28.147 26.0744 28.6576 26.5293 28.8316C27.0823 29.0418 27.6644 29.1496 28.2633 29.1505H28.5787C29.0671 29.1505 29.462 28.7556 29.462 28.2671C29.462 27.7786 29.0671 27.3838 28.5787 27.3838H28.2651Z" fill="black"/>
<path d="M26.1661 21.7974C26.326 21.7974 26.4867 21.7541 26.6325 21.664C27.0238 21.4202 27.4566 21.2709 27.9168 21.2197C28.4018 21.1658 28.7516 20.7294 28.6986 20.2445C28.6456 19.7595 28.2119 19.4132 27.7234 19.4627C26.9973 19.5431 26.3154 19.7781 25.697 20.1641C25.2827 20.422 25.1573 20.967 25.4152 21.3813C25.5831 21.6498 25.871 21.7974 26.1661 21.7974Z" fill="black"/>
<path d="M15.9586 51.2334H14.1919C13.7034 51.2334 13.3086 51.6282 13.3086 52.1167C13.3086 52.6052 13.7034 53.0001 14.1919 53.0001H15.9586C16.4471 53.0001 16.8419 52.6052 16.8419 52.1167C16.8419 51.6282 16.4462 51.2334 15.9586 51.2334Z" fill="black"/>
<path d="M31.7957 35.333C31.7198 35.333 31.6447 35.3348 31.5696 35.3383C31.082 35.3577 30.7039 35.7694 30.7234 36.257C30.7419 36.7322 31.1341 37.1041 31.6049 37.1041C31.6173 37.1041 31.6297 37.1041 31.642 37.1032L33.3725 37.0997C33.861 37.0997 34.2558 36.7048 34.2558 36.2163C34.2558 35.7279 33.861 35.333 33.3725 35.333H31.7957Z" fill="black"/>
<path d="M31.3521 21.2003H33.1188C33.6072 21.2003 34.0021 20.8054 34.0021 20.3169C34.0021 19.8284 33.6072 19.4336 33.1188 19.4336H31.3521C30.8636 19.4336 30.4688 19.8284 30.4688 20.3169C30.4688 20.8054 30.8636 21.2003 31.3521 21.2003Z" fill="black"/>
<path d="M42.2036 35.333C41.7152 35.333 41.3203 35.7279 41.3203 36.2163C41.3203 36.7048 41.7152 37.0997 42.2036 37.0997H43.9703C44.4588 37.0997 44.8536 36.7048 44.8536 36.2163C44.8536 35.7279 44.4588 35.333 43.9703 35.333H42.2036Z" fill="black"/>
<path d="M45.3615 28.2671C45.3615 27.7786 44.9666 27.3838 44.4781 27.3838H42.7115C42.223 27.3838 41.8281 27.7786 41.8281 28.2671C41.8281 28.7556 42.223 29.1505 42.7115 29.1505H44.4781C44.9657 29.1505 45.3615 28.7556 45.3615 28.2671Z" fill="black"/>
<path d="M36.9068 37.0997H38.6734C39.1619 37.0997 39.5568 36.7048 39.5568 36.2163C39.5568 35.7279 39.1619 35.333 38.6734 35.333H36.9068C36.4183 35.333 36.0234 35.7279 36.0234 36.2163C36.0234 36.7048 36.4192 37.0997 36.9068 37.0997Z" fill="black"/>
<path d="M38.4195 21.2003C38.908 21.2003 39.3029 20.8054 39.3029 20.3169C39.3029 19.8284 38.908 19.4336 38.4195 19.4336H36.6529C36.1644 19.4336 35.7695 19.8284 35.7695 20.3169C35.7695 20.8054 36.1644 21.2003 36.6529 21.2003H38.4195Z" fill="black"/>
<path d="M32.1099 27.3838C31.6214 27.3838 31.2266 27.7786 31.2266 28.2671C31.2266 28.7556 31.6214 29.1505 32.1099 29.1505H33.8766C34.365 29.1505 34.7599 28.7556 34.7599 28.2671C34.7599 27.7786 34.365 27.3838 33.8766 27.3838H32.1099Z" fill="black"/>
<path d="M40.0607 28.2671C40.0607 27.7786 39.6658 27.3838 39.1773 27.3838H37.4107C36.9222 27.3838 36.5273 27.7786 36.5273 28.2671C36.5273 28.7556 36.9222 29.1505 37.4107 29.1505H39.1773C39.6649 29.1505 40.0607 28.7556 40.0607 28.2671Z" fill="black"/>
<path d="M52.4937 31.4746C52.416 30.9923 51.9611 30.6628 51.4814 30.7423C50.9991 30.8192 50.6714 31.2732 50.7491 31.7546C50.7739 31.9118 50.788 32.0717 50.7862 32.2422C50.7862 32.539 50.7438 32.8323 50.6608 33.1149C50.5239 33.5831 50.7915 34.0742 51.2606 34.2112C51.3436 34.235 51.4267 34.2465 51.5088 34.2465C51.8913 34.2465 52.2437 33.9974 52.3568 33.6114C52.4867 33.1671 52.5529 32.7068 52.5529 32.2484C52.5547 31.994 52.5352 31.7334 52.4937 31.4746Z" fill="black"/>
<path d="M37.1578 51.2334H35.3911C34.9027 51.2334 34.5078 51.6282 34.5078 52.1167C34.5078 52.6052 34.9027 53.0001 35.3911 53.0001H37.1578C37.6463 53.0001 38.0411 52.6052 38.0411 52.1167C38.0411 51.6282 37.6454 51.2334 37.1578 51.2334Z" fill="black"/>
<path d="M31.857 51.2334H30.0904C29.6019 51.2334 29.207 51.6282 29.207 52.1167C29.207 52.6052 29.6019 53.0001 30.0904 53.0001H31.857C32.3455 53.0001 32.7404 52.6052 32.7404 52.1167C32.7404 51.6282 32.3446 51.2334 31.857 51.2334Z" fill="black"/>
<path d="M41.5763 44.1665C41.5763 43.6781 41.1815 43.2832 40.693 43.2832H38.9263C38.4378 43.2832 38.043 43.6781 38.043 44.1665C38.043 44.655 38.4378 45.0499 38.9263 45.0499H40.693C41.1806 45.0499 41.5763 44.655 41.5763 44.1665Z" fill="black"/>
<path d="M36.2755 44.1665C36.2755 43.6781 35.8807 43.2832 35.3922 43.2832H33.6255C33.137 43.2832 32.7422 43.6781 32.7422 44.1665C32.7422 44.655 33.137 45.0499 33.6255 45.0499H35.3922C35.8798 45.0499 36.2755 44.655 36.2755 44.1665Z" fill="black"/>
<path d="M42.3968 51.2334H40.6919C40.2034 51.2334 39.8086 51.6282 39.8086 52.1167C39.8086 52.6052 40.2034 53.0001 40.6919 53.0001L42.433 52.9992L42.4586 52.1158V52.9992C42.9471 52.9992 43.311 52.6043 43.311 52.1158C43.311 51.6282 42.8852 51.2334 42.3968 51.2334Z" fill="black"/>
<path d="M45.5208 46.5682C45.7116 46.5682 45.9051 46.5064 46.0658 46.3792C46.4501 46.0771 46.5155 45.5215 46.2142 45.139C45.7699 44.5745 45.1966 44.1081 44.5545 43.7892C44.1154 43.5711 43.5872 43.7504 43.3699 44.1867C43.1526 44.624 43.331 45.154 43.7674 45.3713C44.1764 45.5736 44.5421 45.8713 44.8248 46.2317C44.9997 46.4525 45.2585 46.5682 45.5208 46.5682Z" fill="black"/>
<path d="M48.8886 35.0936C48.5097 35.2526 48.1086 35.3329 47.6943 35.3329H47.5044C47.0159 35.3329 46.6211 35.7278 46.6211 36.2163C46.6211 36.7048 47.0159 37.0996 47.5044 37.0996H47.6943C48.3445 37.0996 48.9761 36.9724 49.5714 36.7224C50.0219 36.5334 50.233 36.0158 50.044 35.5661C49.8559 35.1165 49.3347 34.9045 48.8886 35.0936Z" fill="black"/>
<path d="M24.7591 26.3722C25.222 26.2194 25.4746 25.7203 25.3227 25.2566C25.2211 24.9465 25.169 24.6224 25.169 24.2955C25.1699 24.1621 25.1778 24.0288 25.1937 23.8989C25.2547 23.4148 24.912 22.9723 24.4279 22.9122C23.9288 22.8566 23.5013 23.1958 23.4412 23.6781C23.4165 23.8777 23.4032 24.0809 23.4023 24.2911C23.4023 24.8105 23.4836 25.3211 23.6435 25.8087C23.7663 26.1806 24.1117 26.4164 24.4827 26.4164C24.5745 26.4164 24.6682 26.4032 24.7591 26.3722Z" fill="black"/>
<path d="M21.2594 51.2334H19.4927C19.0042 51.2334 18.6094 51.6282 18.6094 52.1167C18.6094 52.6052 19.0042 53.0001 19.4927 53.0001H21.2594C21.7479 53.0001 22.1427 52.6052 22.1427 52.1167C22.1427 51.6282 21.747 51.2334 21.2594 51.2334Z" fill="black"/>
<path d="M30.1434 44.6916C30.4791 44.6916 30.7989 44.4999 30.9473 44.1757C31.1496 43.7314 30.9552 43.2076 30.5118 43.0053C30.0975 42.8154 29.7221 42.5301 29.4271 42.1785C29.1126 41.8049 28.5561 41.7563 28.1824 42.0708C27.8088 42.3843 27.7602 42.9417 28.0747 43.3154C28.5375 43.8657 29.1258 44.3144 29.7769 44.6112C29.8961 44.6651 30.0207 44.6916 30.1434 44.6916Z" fill="black"/>
<path d="M50.1279 28.0357C49.4972 27.67 48.8082 27.4553 48.0812 27.3979C47.5963 27.3626 47.1696 27.7221 47.1316 28.2097C47.0937 28.6964 47.4567 29.1213 47.9434 29.1593C48.4045 29.1955 48.8418 29.3315 49.2419 29.5638C49.3815 29.6451 49.5343 29.6831 49.6845 29.6831C49.9892 29.6831 50.286 29.525 50.4494 29.2432C50.6941 28.8218 50.5501 28.2812 50.1279 28.0357Z" fill="black"/>
<path d="M26.5563 51.2334H24.7896C24.3011 51.2334 23.9062 51.6282 23.9062 52.1167C23.9062 52.6052 24.3011 53.0001 24.7896 53.0001H26.5563C27.0447 53.0001 27.4396 52.6052 27.4396 52.1167C27.4396 51.6282 27.0439 51.2334 26.5563 51.2334Z" fill="black"/>
<path d="M28.7595 39.6076C28.847 39.1535 29.0307 38.7339 29.3063 38.3594C29.5952 37.9672 29.5113 37.4142 29.1182 37.1245C28.7251 36.8365 28.173 36.9196 27.8833 37.3127C27.4513 37.901 27.1616 38.5608 27.0238 39.2754C26.9319 39.7542 27.2455 40.2171 27.7252 40.3098C27.7808 40.3204 27.8373 40.3257 27.8921 40.3257C28.3073 40.3239 28.6774 40.0298 28.7595 39.6076Z" fill="black"/>
<path d="M43.2802 13.2499C45.9585 13.2499 48.1385 11.0698 48.1385 8.39154C48.1385 5.71327 45.9585 3.5332 43.2802 3.5332C40.6019 3.5332 38.4219 5.71327 38.4219 8.39154C38.4219 11.0698 40.6019 13.2499 43.2802 13.2499ZM43.2802 5.29987C44.985 5.29987 46.3719 6.6867 46.3719 8.39154C46.3719 10.0964 44.985 11.4832 43.2802 11.4832C41.5754 11.4832 40.1885 10.0964 40.1885 8.39154C40.1885 6.6867 41.5763 5.29987 43.2802 5.29987Z" fill="black"/>
<path d="M11.0383 27.3838C8.11533 27.3838 5.73828 29.7608 5.73828 32.6838C5.73828 35.6067 8.11533 37.9838 11.0383 37.9838C13.9612 37.9838 16.3383 35.6067 16.3383 32.6838C16.3383 29.7608 13.9612 27.3838 11.0383 27.3838ZM11.0383 36.2171C9.08965 36.2171 7.50495 34.6324 7.50495 32.6838C7.50495 30.7352 9.08965 29.1505 11.0383 29.1505C12.9869 29.1505 14.5716 30.7352 14.5716 32.6838C14.5716 34.6324 12.9869 36.2171 11.0383 36.2171Z" fill="black"/>
</svg>
