<svg width="45" height="45" viewBox="0 0 45 45" fill="none" xmlns="http://www.w3.org/2000/svg">
<path d="M26.4083 25.4032C25.7771 25.4032 25.1697 25.6892 24.7419 26.1872C24.2231 26.7911 23.5908 27.2716 22.8913 27.6264C23.1358 28.0183 23.4785 28.3472 23.8963 28.5563C24.7689 28.9915 25.4482 29.7304 25.8111 30.6363L26.3962 32.101C26.4115 32.1393 26.4338 32.1744 26.4512 32.2119C28.2497 30.806 29.6709 28.9075 30.4743 26.6638L31.8412 27.1525C30.0455 32.1662 25.5092 35.6616 20.2942 36.2067L20.2978 36.2301L19.9763 36.2446C19.869 36.2535 19.7594 36.2535 19.6514 36.2591L19.3189 36.2744C19.1701 36.2822 19.0219 36.2903 18.871 36.2903C11.2667 36.2903 5.08065 30.1043 5.08065 22.5C5.08065 14.8957 11.2667 8.70969 18.871 8.70969C24.6657 8.70969 29.8771 12.3773 31.8366 17.8361L30.47 18.3266C29.8481 16.5933 28.8536 15.0676 27.6055 13.8127C25.4241 13.9204 23.5618 15.3132 22.8331 17.3439C23.5561 17.7011 24.2086 18.1923 24.7412 18.8129C25.1704 19.3108 25.7778 19.5968 26.4083 19.5968H42.0968C43.6979 19.5968 45 20.8988 45 22.5C45 24.1012 43.6979 25.4032 42.0968 25.4032H26.4083ZM11.6129 32.4557C13.5681 33.885 15.9525 34.7522 18.5378 34.8214C18.058 33.065 17.06 31.4921 15.6658 30.3301C15.2232 29.9611 14.6614 29.7581 14.0841 29.7581C12.7218 29.7581 11.6129 30.8663 11.6129 32.2293V32.4557ZM6.53226 22.5C6.53226 23.4168 6.64035 24.3081 6.83137 25.1679L9.02119 24.0728C10.6192 23.2729 11.6129 21.6668 11.6129 19.8799C11.6129 17.6515 12.8228 15.5946 14.7717 14.5119L15.7342 13.9775C17.1277 13.2031 18.0151 11.7749 18.1243 10.1989C11.6682 10.5887 6.53226 15.949 6.53226 22.5ZM26.1507 12.5602C24.2638 11.1759 21.9911 10.3289 19.5759 10.1897C19.4685 12.2965 18.2947 14.2156 16.438 15.2469L15.4755 15.7813C13.9884 16.6071 13.0645 18.1778 13.0645 19.8799C13.0645 22.2207 11.7639 24.3248 9.6701 25.3713L7.24212 26.5855C7.88004 28.3965 8.92161 30.0157 10.2694 31.3295C10.678 29.5989 12.2313 28.3065 14.0841 28.3065C15.0002 28.3065 15.8923 28.6293 16.5957 29.2158C18.3078 30.643 19.5025 32.601 20.0192 34.7792C21.8982 34.602 23.6823 33.9988 25.2508 33.0465C25.1789 32.9133 25.1048 32.7804 25.0485 32.6397L24.4634 31.1757C24.2334 30.6001 23.8013 30.1313 23.2474 29.8545C22.4986 29.4802 21.894 28.8696 21.5084 28.1346C21.0395 28.2448 20.5554 28.3065 20.0621 28.3065C17.7429 28.3065 15.596 27.0094 14.5923 25.0017L14.0675 23.9516H19.9342L20.9017 22.5L19.9342 21.0484H14.0675L14.593 19.9983C15.5967 17.9907 17.7436 16.6936 20.0621 16.6936C20.5366 16.6936 21.0034 16.7488 21.4549 16.8509C22.2207 14.7114 23.9821 13.1198 26.1507 12.5602ZM43.5484 22.5C43.5484 21.6994 42.8974 21.0484 42.0968 21.0484H26.4083C25.354 21.0484 24.345 20.5788 23.6408 19.7587C22.7598 18.7331 21.4556 18.1452 20.0621 18.1452C18.7409 18.1452 17.4948 18.6902 16.6312 19.5968H20.711L22.6467 22.5L20.711 25.4032H16.6312C17.4948 26.3098 18.7402 26.8548 20.0621 26.8548C21.4556 26.8548 22.7598 26.2662 23.6408 25.2413C24.345 24.4212 25.354 23.9516 26.4083 23.9516H42.0968C42.8974 23.9516 43.5484 23.3006 43.5484 22.5Z" fill="white"/>
<path d="M2.52367 19.1251C2.94966 17.0469 3.75591 15.1012 4.92543 13.3278L3.58687 11.0969L7.46787 7.21589L9.69881 8.55445C11.4722 7.38494 13.4179 6.57868 15.496 6.15269L16.1269 3.62903H21.6151L22.2459 6.15269C24.3241 6.57868 26.2697 7.38494 28.0431 8.55445L30.2741 7.21589L34.1551 11.0969L32.8158 13.3278C33.7589 14.7585 34.4709 16.3154 34.9344 17.963L33.5374 18.3564C33.0749 16.7145 32.3427 15.1714 31.3599 13.7694L31.0892 13.3831L32.326 11.3226L30.0483 9.04423L27.9871 10.2811L27.6009 10.0103C25.7697 8.72775 23.7259 7.88074 21.5275 7.49409L21.0636 7.41258L20.4817 5.08064H17.2602L16.6776 7.41187L16.2137 7.49338C14.0154 7.88003 11.9716 8.72704 10.1404 10.0096L9.7541 10.2804L7.69363 9.04352L5.4152 11.3212L6.65205 13.3824L6.38129 13.7687C5.09873 15.5999 4.25172 17.6437 3.86507 19.842L3.78356 20.3059L1.45162 20.8893V24.1107L3.78285 24.6941L3.86436 25.1587C4.25101 27.3563 5.09731 29.4001 6.38058 31.232L6.65063 31.6176L5.41379 33.6788L7.6915 35.9572L9.75268 34.7203L10.139 34.9904C11.9701 36.2737 14.014 37.1207 16.2123 37.5066L16.6762 37.5888L17.2602 39.9194H20.4817L21.0643 37.5881L21.5282 37.5059C23.7266 37.12 25.7704 36.273 27.6016 34.9897L27.9879 34.7196L30.049 35.9565L32.3267 33.6781L31.0899 31.6169L31.3607 31.2306C32.3462 29.824 33.0802 28.2753 33.5423 26.6263L34.9404 27.0175C34.4765 28.6729 33.7624 30.2365 32.8158 31.6715L34.1551 33.9031L30.2741 37.7834L28.0431 36.4448C26.2697 37.6144 24.3241 38.4213 22.2459 38.8466L21.6151 41.371H16.1269L15.496 38.8466C13.4179 38.4213 11.4722 37.6151 9.69881 36.4448L7.46787 37.7834L3.58687 33.9031L4.92613 31.6715C3.75591 29.8988 2.94966 27.9524 2.52367 25.8749L7.62939e-06 25.2441V19.7559L2.52367 19.1251Z" fill="white"/>
<path d="M39.1934 29.7581H37.7417V31.2097H39.1934V29.7581Z" fill="white"/>
<path d="M39.1934 26.8548H37.7417V28.3064H39.1934V26.8548Z" fill="white"/>
<path d="M40.6445 28.3064H39.1929V29.758H40.6445V28.3064Z" fill="white"/>
<path d="M37.7422 28.3064H36.2906V29.758H37.7422V28.3064Z" fill="white"/>
<path d="M42.0977 16.6936H40.646V18.1452H42.0977V16.6936Z" fill="white"/>
<path d="M42.0977 13.7903H40.646V15.2419H42.0977V13.7903Z" fill="white"/>
<path d="M43.5488 15.2419H42.0972V16.6936H43.5488V15.2419Z" fill="white"/>
<path d="M40.6445 15.2419H39.1929V16.6936H40.6445V15.2419Z" fill="white"/>
<path d="M31.9355 2.90323H30.4839V4.35484H31.9355V2.90323Z" fill="white"/>
<path d="M31.9355 0H30.4839V1.45161H31.9355V0Z" fill="white"/>
<path d="M33.3867 1.45163H31.9351V2.90324H33.3867V1.45163Z" fill="white"/>
<path d="M30.4844 1.45163H29.0328V2.90324H30.4844V1.45163Z" fill="white"/>
</svg>
