<svg width="24" height="24" viewBox="0 0 24 24" fill="none" xmlns="http://www.w3.org/2000/svg">
<path d="M22.8969 21.0422H22.497V10.6124C23.4001 10.0313 24 9.01799 24 7.86655C24 7.80538 23.984 7.74524 23.9537 7.69213L21.164 2.81019C20.9681 2.46739 20.6011 2.25439 20.2063 2.25439H3.79373C3.39891 2.25439 3.03192 2.46735 2.83598 2.81019L0.0463125 7.69213C0.0159844 7.74524 0 7.80543 0 7.86655C0 9.01799 0.599906 10.0313 1.503 10.6124V21.0422H1.10306C0.908906 21.0422 0.7515 21.1996 0.7515 21.3938C0.7515 21.5879 0.908906 21.7453 1.10306 21.7453H22.8969C23.0911 21.7453 23.2485 21.5879 23.2485 21.3938C23.2485 21.1996 23.0911 21.0422 22.8969 21.0422ZM0.727359 8.21811H1.85442C2.04858 8.21811 2.20598 8.06071 2.20598 7.86655C2.20598 7.67239 2.04858 7.51499 1.85442 7.51499H0.957375L3.44648 3.15903C3.51755 3.03472 3.65058 2.95752 3.79373 2.95752H20.2063C20.3494 2.95752 20.4825 3.03472 20.5535 3.15903L23.0426 7.51499H22.1453C21.9511 7.51499 21.7938 7.67239 21.7938 7.86655C21.7938 8.06071 21.9511 8.21811 22.1453 8.21811H23.2726C23.1007 9.46424 22.0289 10.4271 20.7363 10.4271C19.4437 10.4271 18.3724 9.46414 18.2005 8.21811H20.6425C20.8367 8.21811 20.994 8.06071 20.994 7.86655C20.994 7.67239 20.8367 7.51499 20.6425 7.51499H3.3577C3.16355 7.51499 3.00614 7.67239 3.00614 7.86655C3.00614 8.06071 3.16355 8.21811 3.3577 8.21811H5.79947C5.62753 9.46414 4.5562 10.4271 3.26367 10.4271C1.97105 10.4271 0.89925 9.46424 0.727359 8.21811ZM17.4479 8.21811C17.276 9.46414 16.2046 10.4271 14.9121 10.4271C13.6195 10.4271 12.5483 9.46414 12.3763 8.21811H17.4479ZM11.6237 8.21811C11.4517 9.46414 10.3804 10.4271 9.08789 10.4271C7.79536 10.4271 6.72403 9.46414 6.55209 8.21811H11.6237ZM19.915 21.0423H16.1091V19.8666H19.915V21.0423ZM19.915 19.1635H16.1091V12.7272H19.915V19.1635ZM21.7939 21.0423H20.6182V12.3756C20.6182 12.1815 20.4608 12.0241 20.2666 12.0241H15.7576C15.5634 12.0241 15.406 12.1815 15.406 12.3756V21.0422H2.20613V10.9534C2.53805 11.0674 2.89355 11.1302 3.26367 11.1302C4.53375 11.1302 5.63667 10.401 6.17578 9.33927C6.71489 10.401 7.81781 11.1302 9.08789 11.1302C10.358 11.1302 11.4609 10.401 12 9.33927C12.5391 10.401 13.642 11.1302 14.9121 11.1302C16.1822 11.1302 17.2851 10.401 17.8242 9.33927C18.3633 10.401 19.4662 11.1302 20.7363 11.1302C21.1065 11.1302 21.462 11.0674 21.7939 10.9534V21.0423Z" fill="#FECC2F"/>
<path d="M13.8798 12.0242H3.73437C3.54022 12.0242 3.38281 12.1816 3.38281 12.3757V19.5151C3.38281 19.7093 3.54022 19.8667 3.73437 19.8667H13.8798C14.074 19.8667 14.2314 19.7093 14.2314 19.5151V12.3757C14.2314 12.1815 14.074 12.0242 13.8798 12.0242ZM13.5282 19.1636H4.08594V12.7273H13.5282V19.1636Z" fill="#FECC2F"/>
</svg>
