<svg width="42" height="42" viewBox="0 0 42 42" fill="none" xmlns="http://www.w3.org/2000/svg">
<g>
<path d="M41.2361 13.3638H36.5588V1.85307C36.5588 1.43136 36.2613 1.05029 35.8396 1.05029H26.5444C26.1137 1.06819 25.7733 1.42204 25.7725 1.85307V5.44117H22.8135V3.92808C22.8206 3.50599 22.4846 3.15811 22.0629 3.15028H14.1783C13.7565 3.15028 13.459 3.50636 13.459 3.92808V13.3638H10.4973L9.86046 9.33874C9.5383 7.31594 7.86674 5.82298 5.8857 5.82298H0.763631C0.341919 5.82298 0 6.1649 0 6.58662C0 7.00833 0.341919 7.35025 0.763631 7.35025H5.8857C7.11168 7.35025 8.149 8.27868 8.35221 9.55538L12.6435 36.5002C12.7666 37.4089 13.5425 38.0864 14.459 38.0864H15.5407C15.8949 39.7091 17.2824 40.884 18.936 40.884C20.5897 40.884 21.9771 39.7091 22.3317 38.0864H31.0423C31.3969 39.7091 32.7839 40.8974 34.438 40.8974C36.359 40.8974 37.922 39.2889 37.922 37.303C37.922 35.3175 36.359 33.6918 34.438 33.6918C32.7563 33.6918 31.3495 34.9364 31.0244 36.5591H22.3496C22.0249 34.9364 20.6177 33.6817 18.936 33.6817C17.2548 33.6817 15.8476 34.9364 15.5228 36.5591H14.4803C14.317 36.5628 14.1768 36.4432 14.1548 36.281C14.154 36.2765 14.1533 36.2728 14.1529 36.2679L13.3785 31.4046H35.1389C36.8295 31.4136 38.2994 30.2465 38.6737 28.5977L41.9807 14.2494C42.0329 14.0305 41.9784 13.7997 41.8341 13.6271C41.6861 13.4515 41.4654 13.3545 41.2361 13.3638ZM34.438 35.2358C35.5163 35.2358 36.3948 36.1661 36.3948 37.3097C36.3948 38.4533 35.5163 39.3836 34.438 39.3836C33.3593 39.3836 32.4812 38.4533 32.4812 37.3097C32.4812 36.1661 33.3589 35.2358 34.438 35.2358ZM18.936 35.2358C20.0147 35.2358 20.8928 36.1661 20.8928 37.3097C20.8928 38.4533 20.0147 39.3836 18.936 39.3836C17.8573 39.3836 16.9792 38.4533 16.9792 37.3097C16.9792 36.1661 17.857 35.2358 18.936 35.2358ZM27.2998 2.57755H35.0316V13.3638H28.9225V6.25178C28.9083 5.81329 28.559 5.45981 28.1209 5.44117H27.2998V2.57755ZM27.3953 13.3638H20.3317V6.96843H27.3953V13.3638ZM14.9863 4.67754H21.2862V5.44117H19.5729C19.1512 5.44117 18.8044 5.83007 18.8044 6.25178V13.3638H14.9863V4.67754ZM37.1852 28.2781C36.966 29.2274 36.1129 29.8941 35.1389 29.8774H13.1353L10.7404 14.8911H40.2763L37.1852 28.2781Z" fill="white"/>
<path d="M23.4974 21.7109L24.4352 20.7809V26.2297C24.4352 26.6514 24.7771 26.9933 25.1988 26.9933C25.6205 26.9933 25.9624 26.6514 25.9624 26.2297V20.7809L26.914 21.7105C27.2153 22.0024 27.6955 21.9976 27.9909 21.6993C28.2862 21.4014 28.2865 20.9208 27.9916 20.6225L25.7484 18.4136C25.4512 18.1213 24.9743 18.1213 24.6772 18.4136L22.4332 20.6225C22.2352 20.8119 22.1543 21.093 22.2214 21.3585C22.2886 21.6244 22.4933 21.8335 22.7573 21.9062C23.0212 21.979 23.3043 21.9044 23.4978 21.7105L23.4974 21.7109Z" fill="white"/>
<path d="M30.5305 21.7109L31.4989 20.781V26.2297C31.4989 26.6514 31.8408 26.9933 32.2625 26.9933C32.6842 26.9933 33.0261 26.6514 33.0261 26.2297V20.781L33.9471 21.7105C34.0851 21.8511 34.2741 21.9301 34.471 21.9301C34.6738 21.9305 34.8681 21.8481 35.0094 21.7023C35.3044 21.401 35.2991 20.9174 34.9979 20.6225L32.7524 18.4136C32.4549 18.1209 31.9776 18.1209 31.6801 18.4136L29.4358 20.6225C29.1386 20.9215 29.1401 21.4051 29.4391 21.7023C29.7393 22.0029 30.2255 22.0066 30.5305 21.7109Z" fill="white"/>
<path d="M15.4237 21.7023C15.7235 22.0029 16.2094 22.007 16.514 21.7109L17.4686 20.781V26.2301C17.4686 26.6518 17.8105 26.9937 18.2322 26.9937C18.6539 26.9937 18.9958 26.6518 18.9958 26.2301V20.781L19.9303 21.7109C20.0731 21.853 20.267 21.9316 20.4683 21.9301C20.6697 21.9287 20.8621 21.8466 21.0026 21.7023C21.2979 21.4014 21.2938 20.9178 20.9929 20.6221L18.7479 18.4136C18.4507 18.1209 17.9734 18.1209 17.6763 18.4136L15.4319 20.6225C15.1314 20.9182 15.1277 21.4018 15.4237 21.7023Z" fill="white"/>
</g>
</svg>
