<svg width="281" height="236" viewBox="0 0 281 236" fill="none" xmlns="http://www.w3.org/2000/svg">
<path d="M239.353 66.072L255.948 98.3921L269.973 132.986L249.81 156.622L226.156 182.082L219.88 171.178L192 201.5L178.119 183.404L155.5 198L147.5 176.5L114 190.5L114 173.478L85.5 182.082L91.4276 160.983L56 160.983L59.2452 136.5L27.5 136.5L33.5 111.5L8.00069 86.9998L41.8543 78.974L45.0008 54.7425L65.9824 62.4532L71.5008 41.896L87.7499 49.4186L97.0007 33.3514L122.691 54.7425L132.001 37.9993L158.631 54.7425L165.501 41.896L185.117 61.2324L204.944 41.896L223.342 79.8578L239.353 66.072Z" fill="#FECC2F"/>
</svg>
