<svg width="33" height="22" viewBox="0 0 33 22" fill="none" xmlns="http://www.w3.org/2000/svg">
<path d="M32.7986 10.5139L22.4861 0.201432C22.2175 -0.0671441 21.7824 -0.0671441 21.5139 0.201432C21.2453 0.470008 21.2453 0.905067 21.5139 1.17358L30.6529 10.3125H0.687521C0.307506 10.3125 0 10.62 0 11C0 11.3801 0.307506 11.6876 0.687521 11.6876H30.6529L21.5139 20.8264C21.2453 21.095 21.2453 21.5301 21.5139 21.7986C21.6482 21.9328 21.8241 22 22 22C22.1759 22 22.3518 21.9328 22.4861 21.7986L32.7986 11.4861C33.0671 11.2176 33.0671 10.7825 32.7986 10.5139Z" fill="#FECC2F"/>
</svg>
