<svg width="97" height="82" viewBox="0 0 97 82" fill="none" xmlns="http://www.w3.org/2000/svg">
<path d="M87.5004 45.5L87.958 50.3816C88.5454 56.6472 84.1928 62.3022 77.9855 63.338L74.4694 63.9248" stroke="black" stroke-width="2"/>
<path d="M25.7017 63.9248H9.5V73.151H30.3148L38.5 63L30.5918 57.7278L25.7017 63.9248Z" stroke="black" stroke-width="2"/>
<rect x="1" y="56.3575" width="8.54429" height="24.3607" stroke="black" stroke-width="2"/>
<path d="M80.4007 52.7215L25.3672 18.061" stroke="black" stroke-width="2"/>
<path d="M28.2631 55.9592C26.9113 55.0426 26.5412 53.2129 27.4305 51.8429L31.8575 45.0229L50.069 56.7672L44.9677 63.7816C44.0157 65.0905 42.1972 65.4083 40.8577 64.5L28.2631 55.9592Z" stroke="black" stroke-width="2"/>
<path d="M80.2768 52.2999L70.7987 70.3934L19.5507 36.899C16.7889 35.0939 16.0027 31.3976 17.7909 28.6248L32.1072 6.42481C33.9031 3.63996 37.6165 2.83826 40.4014 4.63416L94.6038 39.5883L80.5016 52.0136L80.3627 52.136L80.2768 52.2999Z" stroke="black" stroke-width="2"/>
<rect x="65.625" y="51.2891" width="2.63607" height="2.63607" transform="rotate(-4.44162 65.625 51.2891)" fill="black"/>
</svg>
