<svg width="82" height="83" viewBox="0 0 82 83" fill="none" xmlns="http://www.w3.org/2000/svg">
<g>
<path d="M36.1953 73.3838C39.2141 73.3838 40.5882 73.2685 43.7877 72.5859C47.2946 78.7937 53.956 82.9932 61.5801 82.9932C72.8397 82.9932 82 73.8329 82 62.5732C82 56.4921 79.3174 50.7704 74.6399 46.8749C74.1299 46.4505 73.3725 46.5193 72.9481 47.0293C72.5236 47.5391 72.5926 48.2964 73.1024 48.721C77.2302 52.1586 79.5977 57.2075 79.5977 62.5732C79.5977 72.5082 71.5151 80.5908 61.5801 80.5908C51.6451 80.5908 43.5625 72.5082 43.5625 62.5732C43.5625 52.6383 51.6451 44.5557 61.5801 44.5557C64.428 44.5557 67.153 45.2014 69.6793 46.4751C70.0069 46.6404 70.392 46.6467 70.725 46.4924C71.0578 46.3382 71.302 46.0401 71.3879 45.6835C72.0533 42.9176 72.3906 40.0594 72.3906 37.1885C72.3906 31.5063 71.111 26.0663 68.5871 21.0196C66.1809 16.2083 62.6581 11.9144 58.3997 8.60203C57.8763 8.19475 57.1217 8.28908 56.7142 8.81263C56.3069 9.33634 56.4013 10.091 56.9248 10.4983C65.2268 16.9559 69.9883 26.6841 69.9883 37.1885C69.9883 39.3773 69.7785 41.5579 69.3637 43.6894C66.9003 42.6693 64.2888 42.1533 61.5801 42.1533C59.339 42.1533 57.1817 42.5161 55.1628 43.1862V29.452C55.1628 28.7886 54.6251 28.2508 53.9616 28.2508C53.2981 28.2508 52.7604 28.7886 52.7604 29.452V44.158C45.9037 47.4547 41.1602 54.4701 41.1602 62.5732C41.1602 65.3276 41.7082 67.9561 42.7012 70.3559C40.5687 70.7713 38.3853 70.9814 36.1953 70.9814C17.5618 70.9814 2.40234 55.822 2.40234 37.1885C2.40234 18.5549 17.5618 3.39551 36.1953 3.39551C42.2417 3.39551 48.174 5.011 53.3508 8.06759C53.9224 8.40488 54.6589 8.21525 54.9957 7.64381C55.333 7.07254 55.1434 6.33598 54.5721 5.99885C49.0258 2.72413 42.6712 0.993164 36.1953 0.993164C16.2371 0.993164 0 17.2303 0 37.1885C0 57.1467 16.2371 73.3838 36.1953 73.3838ZM61.5801 73.3838C55.6191 73.3838 50.7695 68.5343 50.7695 62.5732C50.7695 56.6122 55.6191 51.7627 61.5801 51.7627C67.5411 51.7627 72.3906 56.6122 72.3906 62.5732C72.3906 68.5343 67.5411 73.3838 61.5801 73.3838ZM61.5801 54.165C56.9439 54.165 53.1719 57.9369 53.1719 62.5732C53.1719 67.2096 56.9439 70.9814 61.5801 70.9814C66.2163 70.9814 69.9883 67.2096 69.9883 62.5732C69.9883 57.9369 66.2163 54.165 61.5801 54.165ZM30.2732 55.3238C29.6097 55.3238 29.072 54.786 29.072 54.1226V20.2544C29.072 19.591 29.6097 19.0532 30.2732 19.0532C30.9367 19.0532 31.4744 19.591 31.4744 20.2544V54.1226C31.4744 54.786 30.9367 55.3238 30.2732 55.3238ZM24.3513 51.0979C23.6877 51.0979 23.1501 50.5601 23.1501 49.8967V24.4802C23.1501 23.8169 23.6877 23.2791 24.3513 23.2791C25.0148 23.2791 25.5524 23.8169 25.5524 24.4802V49.8967C25.5524 50.5601 25.0146 51.0979 24.3513 51.0979ZM42.1174 47.9772C41.4539 47.9772 40.9162 47.4394 40.9162 46.7761V27.6009C40.9162 26.9375 41.4539 26.3997 42.1174 26.3997C42.7809 26.3997 43.3186 26.9375 43.3186 27.6009V46.7761C43.3186 47.4394 42.7808 47.9772 42.1174 47.9772ZM18.429 47.7983C17.7655 47.7983 17.2278 47.2605 17.2278 46.5972V27.7798C17.2278 27.1164 17.7655 26.5786 18.429 26.5786C19.0925 26.5786 19.6302 27.1164 19.6302 27.7798V46.597C19.6302 47.2605 19.0925 47.7983 18.429 47.7983ZM36.1953 45.297C35.5318 45.297 34.9941 44.7592 34.9941 44.0959V30.2809C34.9941 29.6176 35.5318 29.0798 36.1953 29.0798C36.8588 29.0798 37.3965 29.6176 37.3965 30.2809V44.0959C37.3965 44.7592 36.8588 45.297 36.1953 45.297ZM48.0393 44.4562C47.3758 44.4562 46.8382 43.9184 46.8382 43.255V31.1218C46.8382 30.4584 47.3758 29.9206 48.0393 29.9206C48.7029 29.9206 49.2405 30.4584 49.2405 31.1218V43.255C49.2405 43.9184 48.7029 44.4562 48.0393 44.4562ZM12.5071 40.879C11.8436 40.879 11.3059 40.3412 11.3059 39.6778V34.6992C11.3059 34.0358 11.8436 33.498 12.5071 33.498C13.1706 33.498 13.7083 34.0358 13.7083 34.6992V39.6778C13.7083 40.3412 13.1704 40.879 12.5071 40.879ZM59.8835 40.3043C59.22 40.3043 58.6824 39.7665 58.6824 39.1031V35.274C58.6824 34.6106 59.22 34.0728 59.8835 34.0728C60.5471 34.0728 61.0847 34.6106 61.0847 35.274V39.1031C61.0847 39.7665 60.5471 40.3043 59.8835 40.3043ZM6.58498 39.4694C5.92146 39.4694 5.38381 38.9316 5.38381 38.2682V36.1089C5.38381 35.4455 5.92146 34.9077 6.58498 34.9077C7.24851 34.9077 7.78616 35.4455 7.78616 36.1089V38.2682C7.78616 38.9316 7.24851 39.4694 6.58498 39.4694ZM65.8056 39.3949C65.1421 39.3949 64.6045 38.8571 64.6045 38.1938V36.183C64.6045 35.5196 65.1421 34.9818 65.8056 34.9818C66.4692 34.9818 67.0068 35.5196 67.0068 36.183V38.1938C67.0068 38.8571 66.469 39.3949 65.8056 39.3949Z" fill="black"/>
</g>
</svg>
