<svg width="82" height="83" viewBox="0 0 82 83" fill="none" xmlns="http://www.w3.org/2000/svg">
<g>
<path d="M75.3494 0.993164H29.0703C27.525 0.993164 26.2675 2.25065 26.2675 3.79591V34.5235L11.6144 18.21C11.189 17.7364 10.6041 17.4568 9.96845 17.423C9.33095 17.3886 8.7216 17.6044 8.24801 18.0299L4.95354 20.989C3.9757 21.8674 3.895 23.3776 4.77336 24.3554L25.4718 47.398C25.6976 47.6495 25.9685 47.8441 26.2675 47.9786V66.5199H21.5986C20.9348 66.5199 20.3974 67.0579 20.3974 67.721C20.3974 68.3842 20.9348 68.9222 21.5986 68.9222H54.7135C54.9344 68.9222 55.1139 69.1018 55.1139 69.3226V71.7919C55.1139 75.3566 56.7881 78.5379 59.3906 80.5905H16.8295C11.9773 80.5905 8.02967 76.6435 8.02967 71.7913V69.3226C8.02967 69.1018 8.20922 68.9222 8.43007 68.9222H16.3678C17.031 68.9222 17.569 68.3842 17.569 67.721C17.569 67.0579 17.031 66.5199 16.3678 66.5199H8.43007C6.8848 66.5199 5.62732 67.7773 5.62732 69.3226V71.7913C5.62732 77.9679 10.6529 82.9929 16.8295 82.9929H66.9499C73.1266 82.9929 78.1521 77.9679 78.1521 71.7913V39.1042C78.1521 38.4411 77.6147 37.9031 76.9509 37.9031C76.2872 37.9031 75.7497 38.4411 75.7497 39.1042V71.7913C75.7497 76.6435 71.8021 80.5911 66.9499 80.5911H66.3149C61.4626 80.5911 57.5156 76.6441 57.5156 71.7919V69.3232C57.5156 67.7773 56.2582 66.5205 54.7129 66.5205H28.6699V48.8475L32.097 50.5511C32.3691 50.6862 32.6607 50.7525 32.9497 50.7525C33.4102 50.7525 33.8637 50.5849 34.2241 50.2614C34.8103 49.7347 35.0124 48.917 34.739 48.1775L32.8972 43.1964C32.9078 43.1226 32.9159 43.0487 32.9197 42.9737C32.9541 42.338 32.7382 41.7268 32.3128 41.2532L28.6699 37.198V3.79591C28.6699 3.57507 28.8494 3.39552 29.0703 3.39552H75.3494C75.5702 3.39552 75.7497 3.57507 75.7497 3.79591V19.46C75.7497 20.1238 76.2872 20.6612 76.9509 20.6612C77.6147 20.6612 78.1521 20.1238 78.1521 19.46V3.79591C78.1521 2.25065 76.8946 0.993164 75.3494 0.993164V0.993164ZM9.83957 19.8291L11.266 21.4175L7.99964 24.3523L6.57262 22.7639L9.83957 19.8291ZM9.60434 26.1397L10.3444 25.4746L27.9861 45.1145L27.2466 45.7795L9.60434 26.1397ZM29.7916 46.7223L31.1786 45.4761L32.0563 47.8478L29.7916 46.7223ZM29.7735 43.5092L12.1318 23.8693L12.8713 23.2049L30.5129 42.8448L29.7735 43.5092Z" fill="black"/>
<path d="M76.9507 23.4904C76.2876 23.4904 75.7496 24.0278 75.7496 24.6915V33.8737C75.7496 34.5374 76.2876 35.0748 76.9507 35.0748C77.6145 35.0748 78.1519 34.5374 78.1519 33.8737V24.6915C78.1519 24.0278 77.6145 23.4904 76.9507 23.4904Z" fill="black"/>
<path d="M38.3848 25.1135C36.1188 25.1135 34.2751 26.9572 34.2751 29.2238C34.2751 31.4898 36.1188 33.3334 38.3848 33.3334C40.6514 33.3334 42.4951 31.4898 42.4951 29.2238C42.4951 26.9572 40.6514 25.1135 38.3848 25.1135ZM38.3848 30.9311C37.4433 30.9311 36.6775 30.1653 36.6775 29.2238C36.6775 28.2823 37.4433 27.5159 38.3848 27.5159C39.3264 27.5159 40.0927 28.2823 40.0927 29.2238C40.0927 30.1653 39.3264 30.9311 38.3848 30.9311Z" fill="black"/>
<path d="M46.1086 30.6828H51.9944C52.6575 30.6828 53.1955 30.1447 53.1955 29.4816C53.1955 28.8184 52.6575 28.2804 51.9944 28.2804H46.1086C45.4454 28.2804 44.9074 28.8184 44.9074 29.4816C44.9074 30.1447 45.4454 30.6828 46.1086 30.6828Z" fill="black"/>
<path d="M66.6255 31.1597H46.1086C45.4454 31.1597 44.9074 31.6971 44.9074 32.3608C44.9074 33.024 45.4454 33.562 46.1086 33.562H66.6255C67.2887 33.562 67.8267 33.024 67.8267 32.3608C67.8267 31.6971 67.2887 31.1597 66.6255 31.1597Z" fill="black"/>
<path d="M46.1151 27.2885H46.1232C46.7864 27.2841 47.3207 26.7429 47.3169 26.0798C47.3125 25.4185 46.7751 24.8861 46.1157 24.8861C46.1132 24.8861 46.1107 24.8861 46.1076 24.8861H46.0957C45.4319 24.8899 44.9039 25.431 44.9083 26.0948C44.912 26.7554 45.4551 27.2885 46.1151 27.2885Z" fill="black"/>
<path d="M38.3848 37.8025C36.1188 37.8025 34.2751 39.6462 34.2751 41.9128C34.2751 44.1787 36.1188 46.0224 38.3848 46.0224C40.6514 46.0224 42.4951 44.1787 42.4951 41.9128C42.4951 39.6462 40.6514 37.8025 38.3848 37.8025ZM38.3848 43.6201C37.4433 43.6201 36.6775 42.8543 36.6775 41.9121C36.6775 40.9706 37.4433 40.2048 38.3848 40.2048C39.3264 40.2048 40.0927 40.9706 40.0927 41.9121C40.0927 42.8543 39.3264 43.6201 38.3848 43.6201Z" fill="black"/>
<path d="M46.1086 43.3713H51.9944C52.6575 43.3713 53.1955 42.8333 53.1955 42.1702C53.1955 41.507 52.6575 40.969 51.9944 40.969H46.1086C45.4454 40.969 44.9074 41.507 44.9074 42.1702C44.9074 42.8333 45.4454 43.3713 46.1086 43.3713Z" fill="black"/>
<path d="M66.6255 43.8481H46.1086C45.4454 43.8481 44.9074 44.3855 44.9074 45.0493C44.9074 45.7125 45.4454 46.2505 46.1086 46.2505H66.6255C67.2887 46.2505 67.8267 45.7125 67.8267 45.0493C67.8267 44.3855 67.2887 43.8481 66.6255 43.8481Z" fill="black"/>
<path d="M46.1151 39.9764H46.1232C46.7864 39.9727 47.3207 39.4315 47.3169 38.7678C47.3125 38.1071 46.7751 37.5741 46.1157 37.5741C46.1132 37.5741 46.1107 37.5741 46.1076 37.5741H46.0957C45.4319 37.5785 44.9039 38.1196 44.9083 38.7828C44.912 39.4441 45.4551 39.9764 46.1151 39.9764Z" fill="black"/>
<path d="M38.3848 50.4911C36.1188 50.4911 34.2751 52.3348 34.2751 54.6014C34.2751 56.8674 36.1188 58.711 38.3848 58.711C40.6514 58.711 42.4951 56.8674 42.4951 54.6014C42.4951 52.3348 40.6514 50.4911 38.3848 50.4911ZM38.3848 56.3087C37.4433 56.3087 36.6775 55.5429 36.6775 54.6014C36.6775 53.6598 37.4433 52.8934 38.3848 52.8934C39.3264 52.8934 40.0927 53.6598 40.0927 54.6014C40.0927 55.5429 39.3264 56.3087 38.3848 56.3087Z" fill="black"/>
<path d="M46.1086 56.0603H51.9944C52.6575 56.0603 53.1955 55.5223 53.1955 54.8591C53.1955 54.196 52.6575 53.658 51.9944 53.658H46.1086C45.4454 53.658 44.9074 54.196 44.9074 54.8591C44.9074 55.5223 45.4454 56.0603 46.1086 56.0603Z" fill="black"/>
<path d="M46.1086 58.9391H66.6255C67.2887 58.9391 67.8267 58.4011 67.8267 57.7379C67.8267 57.0741 67.2887 56.5367 66.6255 56.5367H46.1086C45.4454 56.5367 44.9074 57.0741 44.9074 57.7379C44.9074 58.4011 45.4454 58.9391 46.1086 58.9391Z" fill="black"/>
<path d="M46.1151 52.6657H46.1232C46.7864 52.6613 47.3207 52.1201 47.3169 51.457C47.3125 50.7957 46.7751 50.2633 46.1157 50.2633C46.1132 50.2633 46.1107 50.2633 46.1076 50.2633H46.0957C45.4319 50.2671 44.9039 50.8082 44.9083 51.472C44.912 52.1326 45.4551 52.6657 46.1151 52.6657Z" fill="black"/>
<path d="M69.6248 16.7337V9.76746C69.6248 9.10369 69.0868 8.56628 68.4236 8.56628H35.9962C35.3324 8.56628 34.795 9.10369 34.795 9.76746V16.7337C34.795 17.3974 35.3324 17.9348 35.9962 17.9348H68.4236C69.0868 17.9348 69.6248 17.3974 69.6248 16.7337ZM67.2224 15.5325H37.1974V10.9686H67.2224V15.5325Z" fill="black"/>
</g>
</svg>
