<svg width="82" height="82" viewBox="0 0 82 82" fill="none" xmlns="http://www.w3.org/2000/svg">
<path d="M40.9386 28.7144H10.5661C9.91085 28.7144 9.37976 29.2456 9.37976 29.9007C9.37976 30.556 9.91085 31.0871 10.5661 31.0871H40.9387C41.594 31.0871 42.1251 30.5558 42.1251 29.9007C42.1251 29.2456 41.594 28.7144 40.9386 28.7144Z" fill="black"/>
<path d="M40.9386 37.051H10.5661C9.91085 37.051 9.37976 37.5823 9.37976 38.2374C9.37976 38.8925 9.91085 39.4238 10.5661 39.4238H40.9387C41.594 39.4238 42.1251 38.8925 42.1251 38.2374C42.1251 37.5823 41.594 37.051 40.9386 37.051Z" fill="black"/>
<path d="M40.9386 45.3875H10.5661C9.91085 45.3875 9.37976 45.9187 9.37976 46.5738C9.37976 47.2289 9.91085 47.7602 10.5661 47.7602H40.9387C41.594 47.7602 42.1251 47.2289 42.1251 46.5738C42.1251 45.9187 41.594 45.3875 40.9386 45.3875Z" fill="black"/>
<path d="M42.1251 54.9107C42.1251 54.2555 41.594 53.7244 40.9387 53.7244H10.5661C9.91085 53.7244 9.37976 54.2556 9.37976 54.9107C9.37976 55.5658 9.91085 56.0971 10.5661 56.0971H40.9387C41.594 56.0971 42.1251 55.566 42.1251 54.9107Z" fill="black"/>
<path d="M10.5661 65.9419C9.91085 65.9419 9.37976 66.4731 9.37976 67.1283C9.37976 67.7834 9.91085 68.3146 10.5661 68.3146H25.7913C26.4466 68.3146 26.9776 67.7834 26.9776 67.1283C26.9776 66.4731 26.4466 65.9419 25.7913 65.9419H10.5661Z" fill="black"/>
<path d="M54.6107 14.6891V10.8394C54.6107 9.37285 53.4177 8.17969 51.951 8.17969H27.5929C26.1264 8.17969 24.9333 9.37285 24.9333 10.8394V14.6891C24.9333 16.1557 26.1264 17.3487 27.5929 17.3487H29.6499C30.3051 17.3487 30.8362 16.8174 30.8362 16.1623C30.8362 15.507 30.3051 14.9759 29.6499 14.9759H27.5929C27.4349 14.9759 27.3062 14.8473 27.3062 14.6893V10.8394C27.3062 10.6814 27.4349 10.5526 27.5929 10.5526H51.951C52.1092 10.5526 52.2378 10.6812 52.2378 10.8394V14.6891C52.2378 14.8472 52.1092 14.9758 51.951 14.9758H35.1965C34.5412 14.9758 34.0101 15.507 34.0101 16.1621C34.0101 16.8174 34.5412 17.3485 35.1965 17.3485H51.9511C53.4177 17.3488 54.6107 16.1557 54.6107 14.6891Z" fill="black"/>
<path d="M63.4818 72.3452C62.8266 72.3452 62.2955 72.8764 62.2955 73.5315V75.1292C62.2955 77.0576 60.7266 78.6266 58.7979 78.6266H6.31214C4.38381 78.6266 2.81475 77.0577 2.81475 75.1292V18.1024C2.81475 17.8456 2.84481 17.5938 2.89844 17.3487H13.701C15.9564 17.3487 17.7912 15.5139 17.7912 13.2585V2.45609C18.0363 2.40246 18.288 2.3724 18.5447 2.3724H58.7978C60.7263 2.3724 62.2953 3.9413 62.2953 5.8698V21.6651C62.2953 22.3204 62.8264 22.8515 63.4817 22.8515C64.137 22.8515 64.6681 22.3202 64.6681 21.6651V5.86964C64.6682 2.63296 62.0348 -0.000488281 58.7979 -0.000488281H18.5449C16.9769 -0.000488281 15.5026 0.610176 14.394 1.71886L2.16121 13.9516C1.05252 15.0603 0.442017 16.5344 0.442017 18.1025V75.1294C0.442017 78.3662 3.07531 80.9995 6.31214 80.9995H58.7979C62.0348 80.9995 64.6682 78.3661 64.6682 75.1294V73.5317C64.6682 72.8764 64.1371 72.3452 63.4818 72.3452ZM15.4185 4.05014V13.2585C15.4185 14.2055 14.648 14.976 13.701 14.976H4.49265L15.4185 4.05014Z" fill="black"/>
<path d="M79.7314 42.3977C80.5641 41.1752 80.7796 39.6674 80.3226 38.2606C79.8655 36.8539 78.8048 35.7607 77.4126 35.2614C76.489 34.9302 75.8728 34.0822 75.8434 33.1013C75.7986 31.6229 75.0865 30.2763 73.8897 29.4068C72.6932 28.5375 71.1922 28.2766 69.7728 28.6908C68.8302 28.9657 67.834 28.6417 67.2335 27.8658C66.3284 26.6958 64.9609 26.0249 63.4817 26.0249C62.0027 26.0249 60.635 26.6958 59.7297 27.8658C59.1292 28.6419 58.1324 28.9654 57.1906 28.6908C55.771 28.2763 54.2702 28.5375 53.0733 29.4068C51.8767 30.2763 51.1649 31.6228 51.12 33.1012C51.0904 34.082 50.4744 34.9298 49.5506 35.2613C48.1585 35.7606 47.0977 36.8539 46.6408 38.2605C46.1838 39.6672 46.3992 41.1752 47.232 42.3975C47.7845 43.2086 47.7845 44.2565 47.232 45.0675C46.3992 46.2899 46.1838 47.7978 46.6408 49.2045C47.0977 50.6112 48.1585 51.7044 49.5506 52.2039C50.4744 52.5353 51.0906 53.3831 51.12 54.364C51.1613 55.7239 51.7845 57.0017 52.8302 57.8694C53.5201 58.4421 54.3489 58.8005 55.2164 58.9202V69.722C55.2164 70.6334 55.7108 71.4759 56.5064 71.9203C57.301 72.3643 58.2779 72.3446 59.0545 71.8663L63.4059 69.1876C63.4768 69.1438 63.519 69.1636 63.5581 69.1876L67.9092 71.8663C68.6855 72.3441 69.6621 72.3647 70.4575 71.9201C71.2533 71.4755 71.7475 70.6331 71.7475 69.7219V58.9199C72.6146 58.8003 73.4434 58.442 74.1333 57.8694C75.1792 57.0017 75.8025 55.7241 75.8438 54.3638C75.8733 53.383 76.4895 52.535 77.4131 52.2037C78.8054 51.7044 79.8661 50.6111 80.323 49.2043C80.7801 47.7976 80.5646 46.2898 79.7318 45.0673C79.1788 44.2567 79.1788 43.2088 79.7314 42.3977ZM69.1528 69.8457L64.8016 67.1671C63.9927 66.6692 62.9713 66.6684 62.1616 67.1671L57.8104 69.8456C57.7114 69.9059 57.5891 69.8364 57.5891 69.7219V58.695C58.4048 58.6005 59.2135 58.9324 59.7297 59.5996C60.6351 60.7693 62.0027 61.4403 63.4818 61.4403C64.9609 61.4403 66.3284 60.7693 67.2335 59.5996C67.7499 58.9323 68.5587 58.6005 69.3743 58.695V69.7219C69.3743 69.8372 69.2504 69.906 69.1528 69.8457ZM77.7704 46.4038C78.1868 47.0148 78.2944 47.7683 78.066 48.4714C77.8375 49.1744 77.3074 49.7209 76.6114 49.9705C74.7633 50.6334 73.5309 52.3298 73.4716 54.2923C73.4505 54.9822 73.1473 55.6041 72.6178 56.0436C72.0224 56.5377 71.2162 56.7241 70.4376 56.4969C68.5529 55.947 66.5584 56.595 65.3567 58.1476C64.9044 58.7321 64.2208 59.0675 63.4815 59.0675C62.7424 59.0675 62.0588 58.7323 61.6062 58.1476C60.6888 56.9617 59.3091 56.3036 57.869 56.3036C57.4231 56.3036 56.9713 56.3667 56.5258 56.4967C55.7395 56.7258 54.9357 56.5337 54.3451 56.0435C53.8156 55.604 53.5124 54.9821 53.4916 54.2923C53.4322 52.3298 52.1998 50.6334 50.3515 49.9704C49.6557 49.7207 49.1257 49.1744 48.8971 48.4714C48.6687 47.7683 48.7762 47.0147 49.1926 46.4037C50.298 44.781 50.298 42.6843 49.1926 41.0616C48.7762 40.4507 48.6687 39.697 48.8971 38.9938C49.1256 38.2907 49.6557 37.7443 50.3515 37.4948C52.1998 36.8318 53.4322 35.1353 53.4916 33.1728C53.5139 32.4339 53.8696 31.7609 54.4678 31.3264C55.0656 30.8919 55.8155 30.7615 56.5257 30.9684C58.4099 31.5185 60.4048 30.8703 61.6062 29.3177C62.0587 28.733 62.7421 28.3976 63.4815 28.3976C64.2208 28.3976 64.9043 28.7329 65.3567 29.3176C66.5583 30.8703 68.5523 31.5183 70.4374 30.9684C71.1471 30.7612 71.897 30.8917 72.4952 31.3263C73.0933 31.7607 73.4493 32.4339 73.4714 33.1727C73.5309 35.1352 74.7633 36.8318 76.6114 37.4946C77.3074 37.7441 77.8374 38.2905 78.066 38.9936C78.2944 39.6967 78.1868 40.4505 77.7704 41.0613C76.6648 42.6842 76.6648 44.7811 77.7704 46.4038Z" fill="black"/>
<path d="M63.4818 33.7891C57.9988 33.7891 53.5381 38.2498 53.5381 43.7328C53.5381 49.2158 57.9988 53.6764 63.4818 53.6764C68.9646 53.6764 73.4253 49.2158 73.4253 43.7328C73.4253 38.2498 68.9646 33.7891 63.4818 33.7891ZM63.4818 51.3037C59.3071 51.3037 55.9108 47.9074 55.9108 43.7329C55.9108 39.5584 59.3071 36.162 63.4818 36.162C67.6564 36.162 71.0526 39.5583 71.0526 43.7329C71.0526 47.9076 67.6563 51.3037 63.4818 51.3037Z" fill="black"/>
</svg>
