<svg width="82" height="83" viewBox="0 0 82 83" fill="none" xmlns="http://www.w3.org/2000/svg">
<g>
<path d="M80.1811 14.8213L41.9281 1.15465C41.3241 0.94145 40.6653 0.94145 40.0612 1.15465L1.81779 14.8213C0.733863 15.212 0.0113373 16.2405 0.0113373 17.3927C0.0113373 18.5449 0.733863 19.5734 1.81779 19.9641L20.5001 26.6389V35.1601C20.5001 40.4737 38.9023 40.6267 41.0001 40.6267C43.098 40.6267 61.5001 40.4737 61.5001 35.1601V26.6389L65.6001 25.1834V28.3267C65.6001 29.8363 66.8239 31.0601 68.3335 31.0601H71.0668C72.5764 31.0601 73.8001 29.8363 73.8001 28.3267V24.2267C73.7961 23.5939 73.6434 22.9708 73.3546 22.4077L80.1879 19.9641C81.2719 19.5734 81.9944 18.5449 81.9944 17.3927C81.9944 16.2405 81.2719 15.212 80.1879 14.8213H80.1811ZM58.7668 32.1534C53.5612 29.7836 42.5923 29.6934 41.0001 29.6934C39.408 29.6934 28.4391 29.7836 23.2335 32.1534V20.247C24.0535 19.1947 30.4987 17.3934 41.0001 17.3934C51.5016 17.3934 57.9468 19.1947 58.7668 20.247V32.1534ZM41.0001 37.8934C30.8868 37.8934 24.5359 36.2233 23.3483 35.1601C24.5359 34.0968 30.8895 32.4267 41.0001 32.4267C51.1107 32.4267 57.4644 34.0968 58.652 35.1601C57.4644 36.2233 51.1135 37.8934 41.0001 37.8934ZM66.2411 22.0469L61.5001 23.7375V20.1267C61.5001 14.8131 43.098 14.6601 41.0001 14.6601C38.9023 14.6601 20.5001 14.8131 20.5001 20.1267V23.7361L2.73346 17.3934L41.0193 3.72672L68.3335 13.4875V20.3782C67.4693 20.6853 66.7327 21.2727 66.2411 22.0469ZM71.0668 28.3267H68.3335V24.2267C68.3335 23.4719 68.9453 22.8601 69.7001 22.8601C70.4549 22.8601 71.0668 23.4719 71.0668 24.2267V28.3267ZM71.0668 20.3235V14.4646L79.2668 17.3934L71.0668 20.3235Z" fill="black"/>
<path d="M77.9 43.36C77.8179 43.3597 77.7361 43.3671 77.6553 43.3819C65.5294 45.2671 53.2714 46.1738 41 46.0933C28.7286 46.1738 16.4706 45.2671 4.34462 43.3819C4.26379 43.3681 4.18198 43.3608 4.09998 43.36C3.14332 43.36 -1.52588e-05 44.4438 -1.52588e-05 58.3933C-1.52588e-05 72.3429 3.14332 73.4267 4.09998 73.4267C4.18205 73.4249 4.26385 73.4167 4.34462 73.4021C13.6621 71.9262 23.0672 71.0688 32.498 70.8355L29.8302 77.2342C29.4204 78.2588 29.6695 79.4294 30.4611 80.1982C31.2527 80.9671 32.4301 81.182 33.4423 80.7424L34.4878 80.2955L34.9402 81.3356C35.3675 82.344 36.3583 82.9975 37.4535 82.9933H37.4877C38.5911 82.9847 39.5803 82.3112 39.9928 81.2877L42.3667 75.6051L44.7323 81.2659C45.1412 82.299 46.1347 82.9818 47.2457 82.9933H47.2866C48.3745 82.9978 49.3599 82.3523 49.7904 81.3533L50.2468 80.3051L51.276 80.7465C52.2925 81.1953 53.4798 80.9815 54.2759 80.2063C55.0721 79.4312 55.3176 78.2501 54.8963 77.2219L52.2805 70.9489C60.7833 71.25 69.2598 72.0715 77.6622 73.4089C77.7408 73.4219 77.8204 73.4278 77.9 73.4267C78.8567 73.4267 82 72.3429 82 58.3933C82 44.4438 78.8567 43.36 77.9 43.36ZM45.3733 48.7857C45.9409 50.8725 46.2714 53.0167 46.3587 55.1776C43.2599 53.7366 39.6255 54.0744 36.8453 56.0618C36.7754 53.6076 36.4609 51.1665 35.9064 48.7747C37.5619 48.8093 39.2598 48.8267 41 48.8267C42.4938 48.8267 43.9438 48.8103 45.3733 48.7857ZM42.3667 70.6933C38.5927 70.6933 35.5333 67.6339 35.5333 63.86C35.5333 60.086 38.5927 57.0267 42.3667 57.0267C46.1406 57.0267 49.2 60.086 49.2 63.86C49.1955 67.6321 46.1387 70.6888 42.3667 70.6933ZM4.09998 46.7767C5.14715 50.5562 5.60807 54.474 5.46665 58.3933C5.60807 62.3127 5.14715 66.2305 4.09998 70.01C3.05282 66.2305 2.5919 62.3127 2.73332 58.3933C2.5919 54.474 3.05282 50.5562 4.09998 46.7767ZM6.86065 70.2423C7.60822 68.0748 8.19998 64.4477 8.19998 58.3933C8.19998 52.339 7.60822 48.7119 6.85928 46.5416C15.5439 47.741 24.2877 48.4632 33.0515 48.705C33.8712 51.867 34.2465 55.1278 34.1667 58.3933C34.1667 58.5915 34.1667 58.7801 34.1585 58.9701C32.5184 61.6919 32.3531 65.0549 33.7184 67.9245L33.6583 68.0693C24.6919 68.2891 15.7451 69.0155 6.86065 70.2451V70.2423ZM37.4562 80.26L36.4586 77.964C36.1585 77.2746 35.3579 76.957 34.6669 77.2533L32.3668 78.2701L35.5716 70.5867C36.8873 71.92 38.5659 72.8372 40.3987 73.2244L37.4562 80.26ZM50.0665 77.2533C49.3754 76.957 48.5748 77.2746 48.2748 77.964L47.2634 80.2368L44.3333 73.2217C46.1675 72.8343 47.8474 71.9166 49.1645 70.5826L52.3624 78.236L50.0665 77.2533ZM77.6266 70.625C68.8463 69.2736 59.9925 68.4522 51.1133 68.165L51.0163 67.9299C52.735 64.3082 51.9982 59.9976 49.174 57.1524C49.1634 54.3181 48.8361 51.4939 48.1982 48.7324C58.053 48.5117 67.883 47.6525 77.6266 46.1603C78.2608 47.2372 79.2667 51.4971 79.2667 58.3933C79.2667 65.2895 78.254 69.5481 77.6266 70.625Z" fill="black"/>
</g>
</svg>
