<svg width="82" height="83" viewBox="0 0 82 83" fill="none" xmlns="http://www.w3.org/2000/svg">
<g>
<path d="M69.9915 13.0017C62.2474 5.2578 51.9515 0.993164 41 0.993164C30.0485 0.993164 19.7526 5.2578 12.0085 13.0017C4.26448 20.7456 0 31.0417 0 41.9932C0 52.9446 4.26464 63.2406 12.0085 70.9846C19.7524 78.7287 30.0485 82.9932 41 82.9932C51.9515 82.9932 62.2474 78.7285 69.9915 70.9846C77.7355 63.2408 82 52.9446 82 41.9932C82 31.0417 77.7354 20.7457 69.9915 13.0017ZM68.1795 69.1726C60.9196 76.4325 51.267 80.4307 41 80.4307C30.733 80.4307 21.0804 76.4325 13.8205 69.1726C6.56064 61.9128 2.5625 52.2601 2.5625 41.9932C2.5625 31.7262 6.56064 22.0736 13.8205 14.8137C21.0804 7.5538 30.733 3.55566 41 3.55566C51.267 3.55566 60.9196 7.5538 68.1795 14.8137C75.4394 22.0736 79.4375 31.7262 79.4375 41.9932C79.4375 52.2601 75.4394 61.9128 68.1795 69.1726Z" fill="black"/>
<path d="M7.6875 41.9932C7.6875 23.6247 22.6315 8.68066 41 8.68066C47.6253 8.68066 54.0249 10.6203 59.5069 14.29C60.0948 14.6836 60.8906 14.526 61.2843 13.938C61.6779 13.35 61.5203 12.5542 60.9322 12.1605C55.0271 8.20756 48.1346 6.11816 41 6.11816C31.4174 6.11816 22.4084 9.84981 15.6325 16.6257C8.85664 23.4016 5.125 32.4105 5.125 41.9932C5.125 50.8338 8.3688 59.3272 14.259 65.909C14.5121 66.1918 14.8625 66.3358 15.2142 66.3358C15.5183 66.3358 15.8238 66.2282 16.0682 66.0092C16.5954 65.5373 16.6404 64.7273 16.1684 64.2001C10.6996 58.0889 7.6875 50.2023 7.6875 41.9932Z" fill="black"/>
<path d="M70.8327 22.0611C70.4391 21.4731 69.6432 21.3155 69.0553 21.7091C68.4674 22.1028 68.3096 22.8986 68.7033 23.4865C72.3728 28.9684 74.3124 35.3679 74.3124 41.9931C74.3124 60.3616 59.3684 75.3056 40.9999 75.3056C33.3792 75.3056 25.9299 72.6664 20.0244 67.8742C19.4749 67.4283 18.6681 67.5122 18.2222 68.0617C17.7763 68.6112 17.8602 69.4181 18.4097 69.8639C24.7703 75.0255 32.793 77.8681 40.9999 77.8681C50.5826 77.8681 59.5915 74.1364 66.3674 67.3605C73.1433 60.5846 76.8749 51.5757 76.8749 41.9931C76.8749 34.8586 74.7855 27.9661 70.8327 22.0611Z" fill="black"/>
<path d="M63.2069 17.1616C64.0683 17.9324 64.8989 18.7574 65.6755 19.6132C65.9284 19.8919 66.2759 20.0335 66.6248 20.0335C66.9318 20.0335 67.2401 19.9236 67.4855 19.701C68.0093 19.2255 68.0487 18.4151 67.5732 17.8911C66.7372 16.9699 65.843 16.082 64.9157 15.252C64.3885 14.7802 63.5784 14.8251 63.1066 15.3523C62.6348 15.8795 62.6795 16.6896 63.2069 17.1616Z" fill="black"/>
<path d="M41 17.6494C41.7076 17.6494 42.2812 17.0757 42.2812 16.3682V12.5244C42.2812 11.8168 41.7076 11.2432 41 11.2432C40.2924 11.2432 39.7188 11.8168 39.7188 12.5244V16.3682C39.7188 17.0757 40.2924 17.6494 41 17.6494Z" fill="black"/>
<path d="M39.7188 67.6182V71.4619C39.7188 72.1695 40.2924 72.7432 41 72.7432C41.7076 72.7432 42.2812 72.1695 42.2812 71.4619V67.6182C42.2812 66.9106 41.7076 66.3369 41 66.3369C40.2924 66.3369 39.7188 66.9106 39.7188 67.6182Z" fill="black"/>
<path d="M16.6562 41.9932C16.6562 41.2856 16.0826 40.7119 15.375 40.7119H11.5312C10.8237 40.7119 10.25 41.2856 10.25 41.9932C10.25 42.7007 10.8237 43.2744 11.5312 43.2744H15.375C16.0826 43.2744 16.6562 42.7007 16.6562 41.9932Z" fill="black"/>
<path d="M65.3438 41.9932C65.3438 42.7007 65.9174 43.2744 66.625 43.2744H70.4688C71.1763 43.2744 71.75 42.7007 71.75 41.9932C71.75 41.2856 71.1763 40.7119 70.4688 40.7119H66.625C65.9174 40.7119 65.3438 41.2856 65.3438 41.9932Z" fill="black"/>
<path d="M29.297 19.1605L27.3751 15.8317C27.0214 15.2188 26.2377 15.0091 25.625 15.3627C25.0122 15.7165 24.8022 16.5002 25.156 17.1129L27.0779 20.4418C27.3152 20.8527 27.7459 21.0826 28.1887 21.0826C28.4061 21.0826 28.6264 21.0271 28.8282 20.9107C29.4408 20.5569 29.6508 19.7733 29.297 19.1605Z" fill="black"/>
<path d="M54.922 63.5443C54.5682 62.9316 53.7844 62.7219 53.1718 63.0754C52.559 63.4292 52.3491 64.2128 52.7029 64.8256L54.6247 68.1544C54.8621 68.5654 55.2927 68.7952 55.7356 68.7952C55.9529 68.7952 56.1733 68.7398 56.3751 68.6234C56.9878 68.2696 57.1978 67.4859 56.844 66.8732L54.922 63.5443Z" fill="black"/>
<path d="M15.4806 58.0089C15.6979 58.0089 15.9183 57.9535 16.1201 57.837L19.4489 55.9151C20.0617 55.5614 20.2717 54.7777 19.9179 54.1649C19.5641 53.5522 18.7803 53.3425 18.1677 53.696L14.8389 55.6179C14.2261 55.9717 14.0161 56.7553 14.3699 57.3681C14.6071 57.779 15.0378 58.0089 15.4806 58.0089Z" fill="black"/>
<path d="M63.193 30.462C63.4103 30.462 63.6307 30.4066 63.8325 30.2901L67.1613 28.3683C67.7741 28.0145 67.984 27.2308 67.6303 26.6181C67.2765 26.0053 66.4928 25.7957 65.8801 26.1491L62.5512 28.071C61.9385 28.4248 61.7285 29.2084 62.0823 29.8212C62.3196 30.2322 62.7503 30.462 63.193 30.462Z" fill="black"/>
<path d="M56.3749 15.3628C55.7622 15.0088 54.9785 15.2188 54.6247 15.8317L52.7029 19.1605C52.3491 19.7733 52.559 20.5569 53.1718 20.9107C53.3736 21.0273 53.5938 21.0826 53.8113 21.0826C54.2541 21.0826 54.6848 20.8528 54.9221 20.4418L56.844 17.1129C57.1977 16.5002 56.9877 15.7165 56.3749 15.3628Z" fill="black"/>
<path d="M28.8281 63.0754C28.2153 62.7216 27.4317 62.9316 27.0779 63.5444L25.156 66.8732C24.8022 67.486 25.0122 68.2696 25.6249 68.6234C25.8267 68.74 26.047 68.7952 26.2645 68.7952C26.7073 68.7952 27.1379 68.5654 27.3753 68.1545L29.2972 64.8256C29.6508 64.2129 29.4408 63.4292 28.8281 63.0754Z" fill="black"/>
<path d="M62.5511 55.9152L65.8799 57.8371C66.0817 57.9537 66.3019 58.009 66.5194 58.009C66.9622 58.009 67.3929 57.7791 67.6303 57.3682C67.984 56.7554 67.7741 55.9718 67.1613 55.618L63.8325 53.6961C63.2197 53.3422 62.4361 53.5523 62.0823 54.165C61.7283 54.7778 61.9383 55.5614 62.5511 55.9152Z" fill="black"/>
<path d="M19.4488 28.0711L16.1199 26.1492C15.5072 25.7953 14.7235 26.0054 14.3697 26.6182C14.016 27.2309 14.2259 28.0146 14.8387 28.3683L18.1675 30.2902C18.3693 30.4068 18.5895 30.4621 18.807 30.4621C19.2499 30.4621 19.6805 30.2322 19.9179 29.8213C20.2715 29.2085 20.0615 28.4249 19.4488 28.0711Z" fill="black"/>
<path d="M49.9194 58.7216C50.1368 58.7216 50.3571 58.6662 50.5589 58.5498C51.1717 58.196 51.3817 57.4124 51.0279 56.7996L43.9201 44.4886C44.4953 43.8164 44.8438 42.945 44.8438 41.9932C44.8438 40.3229 43.7725 38.8986 42.2813 38.3698V21.4932C42.2813 20.7856 41.7076 20.2119 41 20.2119C40.2924 20.2119 39.7188 20.7856 39.7188 21.4932V38.3698C38.2275 38.8986 37.1562 40.3229 37.1562 41.9932C37.1562 44.1127 38.8805 45.8369 41 45.8369C41.2398 45.8369 41.4742 45.8137 41.702 45.7716L48.8087 58.0809C49.0461 58.4918 49.4768 58.7216 49.9194 58.7216ZM39.7188 41.9932C39.7188 41.2867 40.2936 40.7119 41 40.7119C41.7065 40.7119 42.2813 41.2867 42.2813 41.9932C42.2813 42.6996 41.7065 43.2744 41 43.2744C40.2936 43.2744 39.7188 42.6996 39.7188 41.9932Z" fill="black"/>
</g>
</svg>
