<svg width="82" height="83" viewBox="0 0 82 83" fill="none" xmlns="http://www.w3.org/2000/svg">
<g>
<path d="M71.8737 48.6155H64.1862C63.5227 48.6155 62.985 49.1533 62.985 49.8167C62.985 50.48 63.5227 51.0178 64.1862 51.0178H71.8737C72.5372 51.0178 73.0749 50.48 73.0749 49.8167C73.0749 49.1533 72.5372 48.6155 71.8737 48.6155Z" fill="black"/>
<path d="M71.8737 53.5532H64.1862C63.5227 53.5532 62.985 54.091 62.985 54.7544C62.985 55.4178 63.5227 55.9556 64.1862 55.9556H71.8737C72.5372 55.9556 73.0749 55.4178 73.0749 54.7544C73.0749 54.091 72.5372 53.5532 71.8737 53.5532Z" fill="black"/>
<path d="M71.8737 43.6782H64.1862C63.5227 43.6782 62.985 44.216 62.985 44.8794C62.985 45.5428 63.5227 46.0806 64.1862 46.0806H71.8737C72.5372 46.0806 73.0749 45.5428 73.0749 44.8794C73.0749 44.216 72.5372 43.6782 71.8737 43.6782Z" fill="black"/>
<path d="M54.302 42.1161C53.2307 42.1161 52.3591 42.9877 52.3591 44.0589V45.1972H49.5407C48.4696 45.1972 47.598 46.0687 47.598 47.1399V48.1671H44.7719C43.7008 48.1671 42.8292 49.0387 42.8292 50.1098V55.7351C42.8292 56.7182 43.6289 57.5178 44.6117 57.5178H57.7479C58.7308 57.5178 59.5304 56.7182 59.5304 55.7351V44.0589C59.5304 42.9877 58.659 42.1161 57.5878 42.1161H54.302ZM47.598 55.1155H45.2315V50.5695H47.598V55.1155ZM52.3591 55.1155H50.0003C50.0003 53.6537 50.0003 49.0898 50.0003 47.5995H52.3591V55.1155ZM57.1279 55.1155H54.7692C54.7692 47.3465 54.7613 44.8765 54.7613 44.5184H57.1278V55.1155H57.1279Z" fill="black"/>
<path d="M2.95407 77.3184H23.2493C23.9128 77.3184 24.4505 76.7806 24.4505 76.1172C24.4505 75.4538 23.9128 74.916 23.2493 74.916H10.9069V58.7792C10.9069 58.1159 10.3693 57.5781 9.70575 57.5781C9.04223 57.5781 8.50458 58.1159 8.50458 58.7792V74.916H2.95407C2.64994 74.916 2.40233 74.6686 2.40233 74.3643V57.3627C2.40233 53.5615 5.09423 51.0698 6.90959 50.3182L14.7201 47.2679L19.3686 51.9162C21.073 53.6211 23.4495 54.686 26.052 54.6858C28.5609 54.6857 30.9605 53.6908 32.7356 51.9164L37.3187 47.3332V63.2304C37.3187 64.9302 38.7014 66.313 40.401 66.313H41.1972V74.9164H28.8548C28.1912 74.9164 27.6536 75.4542 27.6536 76.1175C27.6536 76.7809 28.1912 77.3187 28.8548 77.3187H49.15C50.7789 77.3187 52.1041 75.9936 52.1041 74.3646V66.313H57.0897V69.9964C55.604 70.4988 54.5307 71.9053 54.5307 73.5586C54.5307 75.6319 56.2175 77.3187 58.2909 77.3187C60.3643 77.3187 62.051 75.6319 62.051 73.5586C62.051 71.9053 60.978 70.4988 59.492 69.9964V66.313H76.1806C77.8802 66.313 79.2629 64.9302 79.2629 63.2304V52.6198C79.2629 51.9564 78.7253 51.4186 78.0618 51.4186C77.3982 51.4186 76.8606 51.9564 76.8606 52.6198V63.2304C76.8606 63.6055 76.5555 63.9106 76.1806 63.9106H50.9029H40.4012C40.0263 63.9106 39.7212 63.6055 39.7212 63.2304C39.7212 62.4737 39.7212 35.9042 39.7212 35.1475H76.8606V47.0144C76.8606 47.6777 77.3982 48.2155 78.0618 48.2155C78.7253 48.2155 79.2629 47.6777 79.2629 47.0144V35.1475H79.2637C80.7726 35.1475 82 33.9199 82 32.4111V30.0958C82 28.587 80.7726 27.3596 79.2637 27.3596H41.3996C41.1536 26.0498 40.4125 24.8821 39.3598 24.1179C39.4747 23.7982 39.5405 23.4553 39.5405 23.0966V15.3378C39.5405 12.7968 37.3388 10.9315 35.0675 11.1059C34.7848 11.1278 34.4669 10.983 34.4046 10.665C33.8785 7.97515 32.1886 6.66748 29.2383 6.66748H19.0444C14.6467 6.66748 11.069 10.2452 11.069 14.6429V22.0775C11.069 23.1191 11.4643 24.0702 12.1122 24.7889C11.1784 25.7354 10.6126 27.0093 10.6126 28.321C10.6126 30.7699 12.524 32.9492 15.2223 33.2533C15.6083 36.0122 17.0878 38.6786 19.4668 40.4533V42.8348C18.1155 43.3627 7.4554 47.5259 6.02425 48.0848C6.01753 48.0876 6.0108 48.0903 6.00407 48.093C3.11246 49.2831 0 52.6916 0 57.3627V74.3645C0 75.9932 1.32513 77.3184 2.95407 77.3184ZM58.2909 72.2006C59.0396 72.2006 59.6487 72.8097 59.6487 73.5584C59.6487 74.3071 59.0396 74.9162 58.2909 74.9162C57.5422 74.9162 56.9331 74.3071 56.9331 73.5584C56.9331 72.8097 57.5422 72.2006 58.2909 72.2006ZM43.5995 66.3128H49.7017V74.3645C49.7017 74.6686 49.4541 74.9162 49.15 74.9162H43.5996V66.3128H43.5995ZM22.9163 51.5469C24.3494 50.1041 23.8289 50.6281 25.2665 49.1809C25.2681 49.1793 25.2694 49.1776 25.2708 49.176C25.3767 49.0687 25.4769 48.934 25.5383 48.8347H26.5453C26.6097 48.9399 26.713 49.0759 26.8174 49.1809L29.1741 51.5535C27.2055 52.5292 24.8829 52.5266 22.9163 51.5469ZM21.8675 43.1216C21.8686 43.0912 21.8693 43.0606 21.8693 43.0297V41.7963C24.3472 42.7851 27.4364 42.9456 30.2279 41.8152L30.2291 43.0388C30.2291 43.0617 30.2295 43.0846 30.2303 43.1075C28.837 44.4909 28.234 45.0896 26.8816 46.4324H25.2024C24.3569 45.5933 22.5473 43.7967 21.8675 43.1216ZM31.1354 50.1191C30.9048 49.8871 29.1382 48.1085 28.8727 47.8411L31.658 45.0757C33.3513 45.7315 33.2587 45.6956 34.9166 46.3377L31.1354 50.1191ZM37.3188 44.6918L32.6314 42.8766L32.6293 40.4658C34.4363 39.1184 35.8092 37.2197 36.4961 35.0208C36.7557 35.1028 37.0317 35.1475 37.318 35.1475H37.3188V44.6918ZM79.2637 29.7616C79.4478 29.7616 79.5977 29.9115 79.5977 30.0955V32.4107C79.5977 32.5949 79.4478 32.7448 79.2637 32.7448C77.2453 32.7448 39.3759 32.7448 37.318 32.7448C37.134 32.7448 36.9841 32.5949 36.9841 32.4107C36.9841 31.0906 36.9841 31.3761 36.9841 30.0955C36.9841 29.9113 37.134 29.7614 37.318 29.7614C39.794 29.7616 76.8196 29.7616 79.2637 29.7616ZM37.6843 25.8926C38.2474 26.2052 38.6896 26.7379 38.9181 27.3591H37.318C37.2091 27.3591 37.0574 27.3703 36.9841 27.3793V26.0929C37.2221 26.0553 37.4928 25.9738 37.6843 25.8926ZM15.1201 30.8029C13.9236 30.5179 13.0149 29.5241 13.0149 28.3208C13.0149 27.4421 13.5453 26.5575 14.3419 26.0548C14.5312 26.0918 14.725 26.1163 14.9225 26.1259C14.9883 26.1293 15.0541 26.1309 15.12 26.131V30.8029H15.1201ZM15.1225 23.7285C14.2324 23.7285 13.4713 23.0027 13.4713 22.0773V14.6429C13.4713 11.5698 15.9714 9.06981 19.0444 9.06981H29.2383C31.4637 9.06981 31.8269 10.0011 32.047 11.1261C32.3349 12.5985 33.7147 13.6192 35.2517 13.5012C36.1415 13.4333 37.138 14.2121 37.138 15.3378V23.0961C37.138 23.4417 36.8396 23.7285 36.5056 23.7285C35.2264 23.7285 34.2086 22.672 34.2086 21.4316C34.2086 19.9945 32.2802 19.5214 31.6088 20.7785C30.636 22.598 28.7519 23.7284 26.6923 23.7284C25.0141 23.7285 16.8035 23.7285 15.1225 23.7285ZM17.5225 31.8087V26.1309H26.6923C28.8463 26.1309 30.907 25.2604 32.4035 23.7225C32.895 24.5991 33.6604 25.3014 34.5818 25.7167V31.8085C34.5818 36.4894 30.7564 40.1993 26.1909 40.1993C20.9586 40.1994 17.5225 36.1334 17.5225 31.8087ZM20.3997 45.0496C22.2253 46.8622 21.5305 46.1724 23.2114 47.8412C21.9919 49.0688 22.4335 48.6244 20.9588 50.1091L17.1634 46.3137L20.3997 45.0496Z" fill="black"/>
</g>
</svg>
