<svg width="52" height="50" viewBox="0 0 52 50" fill="none" xmlns="http://www.w3.org/2000/svg">
<path d="M51.8367 24.534C51.3476 23.8701 39.6996 8.25781 26 8.25781C12.3006 8.25781 0.651841 23.8701 0.162828 24.534C-0.05916 24.8367 -0.0537825 25.2496 0.176608 25.5458C0.666124 26.1755 12.3139 40.9674 26 40.9674C39.686 40.9674 51.334 26.1755 51.8237 25.5458C52.0538 25.2496 52.0593 24.8367 51.8367 24.534ZM26 39.2899C14.503 39.2899 4.07409 27.6005 1.90983 25.0173C4.04451 22.3236 14.4904 9.93524 26 9.93524C37.5091 9.93524 47.9561 22.3252 50.09 25.0173C47.9288 27.6017 37.5091 39.2899 26 39.2899Z" fill="black"/>
<path d="M2.5145 7.41968C2.9778 7.41968 3.35321 7.0441 3.35321 6.58097V2.38739H7.54679C8.01009 2.38739 8.3855 2.01181 8.3855 1.54868C8.3855 1.08537 8.01009 0.709961 7.54679 0.709961H2.5145C2.05153 0.709961 1.67578 1.08537 1.67578 1.54868V6.58097C1.67578 7.0441 2.05153 7.41968 2.5145 7.41968Z" fill="black"/>
<path d="M44.4518 2.38739H48.6455V6.58097C48.6455 7.0441 49.0206 7.41968 49.4841 7.41968C49.9468 7.41968 50.3226 7.0441 50.3226 6.58097V1.54868C50.3226 1.08537 49.9468 0.709961 49.4841 0.709961H44.4518C43.9885 0.709961 43.6133 1.08537 43.6133 1.54868C43.6133 2.01181 43.9885 2.38739 44.4518 2.38739Z" fill="black"/>
<path d="M7.54679 47.6762H3.35321V43.4834C3.35321 43.0198 2.9778 42.6445 2.5145 42.6445C2.05153 42.6445 1.67578 43.0198 1.67578 43.4834V48.5151C1.67578 48.9784 2.05153 49.3538 2.5145 49.3538H7.54679C8.01009 49.3538 8.3855 48.9784 8.3855 48.5151C8.3855 48.0521 8.01009 47.6762 7.54679 47.6762Z" fill="black"/>
<path d="M49.4841 42.6445C49.0206 42.6445 48.6455 43.0198 48.6455 43.4834V47.6762H44.4518C43.9885 47.6762 43.6133 48.0521 43.6133 48.5151C43.6133 48.9784 43.9885 49.3538 44.4518 49.3538H49.4841C49.9468 49.3538 50.3226 48.9784 50.3226 48.5151V43.4834C50.3226 43.0198 49.9468 42.6445 49.4841 42.6445Z" fill="black"/>
<path d="M40.2581 25.0321C40.2581 17.1575 33.8743 10.7744 26 10.7744C18.1252 10.7744 11.7422 17.1575 11.7422 25.0321C11.7422 32.9063 18.1252 39.2902 26 39.2902C33.8708 39.2812 40.2491 32.903 40.2581 25.0321ZM26 37.613C19.052 37.613 13.4196 31.9797 13.4196 25.0321C13.4196 18.0844 19.052 12.4518 26 12.4518C32.9482 12.4518 38.5808 18.0844 38.5808 25.0321C38.5729 31.9765 32.9447 37.6049 26 37.613Z" fill="black"/>
<path d="M23.4856 29.2255C27.6543 29.2255 31.034 25.8457 31.034 21.6772C31.034 17.508 27.6543 14.1289 23.4856 14.1289C19.3171 14.1289 15.9375 17.508 15.9375 21.6772C15.9417 25.8441 19.3189 29.2206 23.4856 29.2255ZM29.2896 20.8385H24.3243V15.8736C26.8957 16.2473 28.9155 18.2672 29.2896 20.8385ZM22.6472 15.8736V21.6772C22.6472 22.1403 23.0228 22.5159 23.4856 22.5159H29.2896C28.8612 25.513 26.2237 27.6924 23.1999 27.5496C20.1759 27.4065 17.7564 24.9869 17.6132 21.9632C17.4697 18.9389 19.6498 16.3017 22.6472 15.8736Z" fill="black"/>
<path d="M32.7109 24.1934H37.7432V25.871H32.7109V24.1934Z" fill="black"/>
<path d="M30.1953 26.71H36.9051V28.3873H30.1953V26.71Z" fill="black"/>
<path d="M34.3867 29.2256H36.0644V30.9029H34.3867V29.2256Z" fill="black"/>
<path d="M26 29.2256H33.5483V30.9029H26V29.2256Z" fill="black"/>
<path d="M32.7109 31.7422H34.3882V33.4194H32.7109V31.7422Z" fill="black"/>
<path d="M24.3242 31.7422H31.8726V33.4194H24.3242V31.7422Z" fill="black"/>
<path d="M21.8086 34.2578H30.1954V35.9352H21.8086V34.2578Z" fill="black"/>
<path d="M20.1289 31.7422H23.4836V33.4194H20.1289V31.7422Z" fill="black"/>
<path d="M17.6133 31.7422H19.2906V33.4194H17.6133V31.7422Z" fill="black"/>
<path d="M16.7734 29.2256H20.967V30.9029H16.7734V29.2256Z" fill="black"/>
<path d="M15.0977 26.71H16.7751V28.3873H15.0977V26.71Z" fill="black"/>
</svg>
