<svg width="25" height="26" viewBox="0 0 25 26" fill="none" xmlns="http://www.w3.org/2000/svg">
<g>
<path d="M24.8675 18.2546C24.8372 18.1894 24.809 18.1353 24.7828 18.0919C24.349 17.3107 23.5201 16.3519 22.2966 15.2151L22.2708 15.189L22.2578 15.1763L22.2447 15.1632H22.2316C21.6763 14.6338 21.3247 14.2779 21.1774 14.0957C20.908 13.7485 20.8476 13.3972 20.9949 13.0412C21.0989 12.7722 21.4897 12.2041 22.1664 11.3362C22.5223 10.8762 22.8042 10.5076 23.0123 10.2299C24.5137 8.2339 25.1646 6.95846 24.9649 6.40303L24.8873 6.27323C24.8352 6.19509 24.7007 6.1236 24.4841 6.05841C24.2669 5.99335 23.9893 5.98259 23.6507 6.02595L19.9021 6.05184C19.8414 6.03033 19.7547 6.03233 19.6417 6.05841C19.5288 6.08449 19.4724 6.09757 19.4724 6.09757L19.4072 6.13017L19.3554 6.16933C19.312 6.19523 19.2642 6.24077 19.2121 6.30588C19.1603 6.37075 19.1169 6.44689 19.0823 6.53365C18.6742 7.58364 18.2101 8.55988 17.6894 9.4623C17.3683 10.0004 17.0734 10.4668 16.8041 10.8616C16.5351 11.2563 16.3095 11.5472 16.1274 11.7336C15.9451 11.9202 15.7805 12.0697 15.6327 12.1826C15.4851 12.2956 15.3724 12.3433 15.2944 12.3258C15.2162 12.3084 15.1426 12.2911 15.0729 12.2737C14.9515 12.1956 14.8538 12.0893 14.7802 11.9548C14.7063 11.8203 14.6565 11.6511 14.6305 11.4471C14.6046 11.2431 14.5892 11.0675 14.5849 10.92C14.5808 10.7726 14.5827 10.5641 14.5915 10.2951C14.6005 10.026 14.6046 9.84389 14.6046 9.74843C14.6046 9.41862 14.611 9.06069 14.6239 8.67454C14.637 8.28838 14.6476 7.98243 14.6565 7.75703C14.6654 7.5314 14.6695 7.29268 14.6695 7.04102C14.6695 6.78936 14.6542 6.592 14.6239 6.44876C14.594 6.30569 14.5481 6.16682 14.4876 6.03219C14.4267 5.8977 14.3376 5.79366 14.2207 5.71981C14.1036 5.64604 13.958 5.5875 13.7847 5.54401C13.3247 5.43993 12.739 5.38362 12.0273 5.37487C10.4134 5.35754 9.37631 5.46176 8.91639 5.68739C8.73417 5.78272 8.56927 5.91297 8.42183 6.07774C8.26559 6.26872 8.24379 6.37294 8.35659 6.39008C8.87732 6.46809 9.24597 6.65469 9.46293 6.94971L9.54112 7.10604C9.60194 7.21883 9.66267 7.41851 9.72344 7.70482C9.78412 7.99113 9.82328 8.30785 9.84052 8.6548C9.88383 9.28837 9.88383 9.83072 9.84052 10.2819C9.79707 10.7332 9.75604 11.0846 9.71687 11.3363C9.67771 11.5879 9.61917 11.7918 9.54112 11.948C9.46293 12.1042 9.41092 12.1997 9.38484 12.2343C9.3588 12.2689 9.3371 12.2908 9.31987 12.2994C9.20708 12.3426 9.08977 12.3646 8.96837 12.3646C8.84678 12.3646 8.69934 12.3038 8.52582 12.1822C8.35235 12.0607 8.17231 11.8937 7.9857 11.6811C7.7991 11.4684 7.58866 11.1712 7.35427 10.7894C7.12008 10.4077 6.87708 9.95646 6.62542 9.43581L6.4172 9.05823C6.28704 8.81532 6.10924 8.46163 5.88361 7.99747C5.65785 7.53313 5.4583 7.08397 5.28482 6.65008C5.21548 6.46786 5.11131 6.32913 4.97248 6.23366L4.90733 6.1945C4.86402 6.15985 4.7945 6.12306 4.69912 6.08385C4.60361 6.04469 4.50395 6.0166 4.39973 5.99932L0.833215 6.02522C0.468763 6.02522 0.221479 6.10778 0.0912725 6.27268L0.0391624 6.35069C0.0131301 6.39414 0 6.46353 0 6.55904C0 6.65451 0.0260323 6.77167 0.0781424 6.91041C0.598788 8.13406 1.16498 9.31417 1.77671 10.4509C2.38845 11.5877 2.92004 12.5034 3.37116 13.1972C3.82237 13.8915 4.28228 14.5467 4.75091 15.1627C5.21954 15.7788 5.52974 16.1737 5.68151 16.3472C5.83346 16.521 5.95282 16.6509 6.03958 16.7377L6.36505 17.05C6.57331 17.2583 6.87913 17.5078 7.28265 17.7984C7.68627 18.0892 8.1331 18.3755 8.62338 18.6578C9.11375 18.9396 9.68423 19.1695 10.3351 19.3474C10.9859 19.5254 11.6194 19.5969 12.2355 19.5624H13.7325C14.036 19.5362 14.266 19.4407 14.4224 19.276L14.4742 19.2107C14.509 19.1589 14.5416 19.0785 14.5717 18.9702C14.6021 18.8617 14.6173 18.7422 14.6173 18.6123C14.6084 18.2392 14.6368 17.903 14.7017 17.6036C14.7666 17.3043 14.8405 17.0787 14.9232 16.9268C15.0059 16.7749 15.0992 16.6468 15.203 16.543C15.307 16.4389 15.3811 16.3758 15.4246 16.3541C15.4679 16.3323 15.5024 16.3175 15.5284 16.3086C15.7367 16.2392 15.9818 16.3064 16.2641 16.5105C16.5461 16.7144 16.8107 16.9662 17.0582 17.2655C17.3055 17.565 17.6026 17.9011 17.9497 18.2742C18.2969 18.6474 18.6006 18.9248 18.8608 19.1073L19.121 19.2635C19.2948 19.3677 19.5205 19.4632 19.7982 19.5499C20.0754 19.6366 20.3183 19.6583 20.5269 19.615L23.859 19.563C24.1886 19.563 24.445 19.5084 24.6269 19.4001C24.8092 19.2917 24.9175 19.1722 24.9524 19.0422C24.9872 18.9121 24.9891 18.7645 24.959 18.5994C24.9282 18.4348 24.8977 18.3197 24.8675 18.2546Z" fill="white"/>
</g>
</svg>
