<svg width="36" height="36" viewBox="0 0 36 36" fill="none" xmlns="http://www.w3.org/2000/svg">
<path d="M35.6564 31.4704L20.1948 1.71461C19.7367 0.832969 18.9162 0.306641 18 0.306641C17.0838 0.306641 16.2633 0.832969 15.8052 1.71461L0.343617 31.4704C-0.114539 32.352 -0.114539 33.4048 0.343617 34.2863C0.801703 35.168 1.62218 35.6943 2.53842 35.6943H33.4616C34.3778 35.6943 35.1983 35.168 35.6564 34.2863C36.1145 33.4048 36.1145 32.352 35.6564 31.4704ZM33.8274 33.113C33.7819 33.2007 33.6737 33.3477 33.4616 33.3477H2.53842C2.32622 33.3477 2.21808 33.2008 2.17266 33.113C2.12716 33.0255 2.06655 32.8479 2.17266 32.6438L17.6342 2.88789C17.7403 2.68375 17.9089 2.6532 17.9999 2.6532C18.0911 2.6532 18.2597 2.68367 18.3657 2.88789L33.8273 32.6438C33.9335 32.8479 33.8729 33.0255 33.8274 33.113Z" fill="#8C8C8C"/>
<path d="M19.0573 10.9766H16.9453V23.492H19.0573V10.9766Z" fill="#8C8C8C"/>
<path d="M18.0018 28.9688C18.7794 28.9688 19.4098 28.2683 19.4098 27.4043C19.4098 26.5403 18.7794 25.8398 18.0018 25.8398C17.2241 25.8398 16.5938 26.5403 16.5938 27.4043C16.5938 28.2683 17.2241 28.9688 18.0018 28.9688Z" fill="#8C8C8C"/>
</svg>
