<svg width="49" height="49" viewBox="0 0 49 49" fill="none" xmlns="http://www.w3.org/2000/svg">
<path d="M45.7325 0.816406H3.2675C1.46588 0.816406 0 2.28239 0 4.0839V31.033C0 31.4838 0.365873 31.8497 0.816635 31.8497H48.1833C48.634 31.8497 48.9999 31.4838 48.9999 31.033V4.0839C49 2.28239 47.5341 0.816406 45.7325 0.816406ZM47.3666 30.2164H1.63337V4.0839C1.63337 3.18228 2.36674 2.44977 3.2675 2.44977H45.7325C46.6333 2.44977 47.3666 3.18228 47.3666 4.0839V30.2164Z" fill="#FECC2F"/>
<path d="M48.1834 30.2168H0.816635C0.365873 30.2168 0 30.5827 0 31.0334V35.1159C0 36.9175 1.46588 38.3834 3.2675 38.3834H45.7325C47.5341 38.3834 49 36.9175 49 35.1159V31.0334C49 30.5827 48.6341 30.2168 48.1834 30.2168ZM47.3666 35.116C47.3666 36.0176 46.6333 36.7502 45.7325 36.7502H3.2675C2.36674 36.7502 1.63337 36.0176 1.63337 35.116V31.8502H47.3667V35.116H47.3666Z" fill="#FECC2F"/>
<path d="M26.951 33.4834H22.051C21.6002 33.4834 21.2344 33.8493 21.2344 34.3C21.2344 34.7508 21.6002 35.1167 22.051 35.1167H26.951C27.4018 35.1167 27.7676 34.7508 27.7676 34.3C27.7676 33.8493 27.4018 33.4834 26.951 33.4834Z" fill="#FECC2F"/>
<path d="M44.9155 4.0835H4.08226C3.6315 4.0835 3.26562 4.44937 3.26562 4.90013V31.0335C3.26562 31.4843 3.6315 31.8501 4.08226 31.8501H44.9156C45.3664 31.8501 45.7323 31.4843 45.7323 31.0335V4.90013C45.7323 4.44937 45.3664 4.0835 44.9155 4.0835ZM44.0989 30.2168H4.89889V5.71677H44.0989V30.2168Z" fill="#FECC2F"/>
<path d="M35.1169 43.2832H13.8836C12.5328 43.2832 11.4336 44.3824 11.4336 45.7332C11.4336 47.084 12.5328 48.1832 13.8836 48.1832H35.117C36.4677 48.1832 37.567 47.084 37.567 45.7332C37.567 44.3824 36.4676 43.2832 35.1169 43.2832ZM35.1169 46.5498H13.8836C13.4328 46.5498 13.067 46.1832 13.067 45.7332C13.067 45.2832 13.4328 44.9166 13.8836 44.9166H35.117C35.5677 44.9166 35.9336 45.2832 35.9336 45.7332C35.9336 46.1832 35.5677 46.5498 35.1169 46.5498Z" fill="#FECC2F"/>
<path d="M33.4825 43.2833C30.7727 43.2833 29.3991 41.36 29.3991 37.5666C29.3991 37.1159 29.0332 36.75 28.5825 36.75H20.4158C19.9651 36.75 19.5992 37.1159 19.5992 37.5666C19.5992 41.36 18.2256 43.2833 15.5159 43.2833C15.0651 43.2833 14.6992 43.6491 14.6992 44.0999C14.6992 44.5507 15.0651 44.9165 15.5159 44.9165H33.4825C33.9332 44.9165 34.2991 44.5507 34.2991 44.0999C34.2991 43.6491 33.9332 43.2833 33.4825 43.2833ZM19.4938 43.2833C20.4991 42.1694 21.0911 40.5107 21.2104 38.3833H27.7886C27.907 40.5107 28.4991 42.1694 29.5052 43.2833H19.4938Z" fill="#FECC2F"/>
<path d="M39.0247 24.8787L37.0533 22.9073L38.1501 21.8106C38.3534 21.6072 38.4351 21.3116 38.3648 21.0331C38.2946 20.7546 38.0831 20.5341 37.8078 20.4508L29.6412 18.0008C29.3529 17.9142 29.0418 17.9935 28.8294 18.2058C28.6163 18.4182 28.5379 18.7301 28.6245 19.0176L31.0744 27.1842C31.1569 27.4602 31.3782 27.6717 31.6567 27.742C31.9343 27.8106 32.2308 27.7305 32.4342 27.5272L33.589 26.3716L35.5603 28.3439C35.7131 28.4974 35.9213 28.5831 36.1377 28.5831C36.3541 28.5831 36.5623 28.4974 36.7151 28.3439L39.0246 26.0335C39.344 25.7142 39.344 25.1981 39.0247 24.8787ZM36.1377 26.6117L34.3427 24.8159C34.1345 24.6076 33.8617 24.5039 33.589 24.5039C33.3153 24.5039 33.0426 24.6084 32.8352 24.815L32.2456 25.4046L30.6245 20.0007L36.0283 21.6219L35.3962 22.254C35.2222 22.4287 35.1267 22.6607 35.1267 22.9073C35.1267 23.1548 35.2231 23.3883 35.3978 23.5615L37.2925 25.4561L36.1377 26.6117Z" fill="#FECC2F"/>
<path d="M34.3005 7.3501H11.4338C10.9831 7.3501 10.6172 7.71597 10.6172 8.16673V12.2501C10.6172 12.7009 10.9831 13.0667 11.4338 13.0667H34.3005C34.7512 13.0667 35.1171 12.7009 35.1171 12.2501V8.16673C35.1171 7.71597 34.7512 7.3501 34.3005 7.3501ZM33.4838 11.4335H12.2505V8.98346H33.4838V11.4335Z" fill="#FECC2F"/>
<path d="M21.2328 16.3335H14.6994C14.2487 16.3335 13.8828 16.6994 13.8828 17.1501V20.4168C13.8828 20.8675 14.2487 21.2334 14.6994 21.2334H21.2328C21.6836 21.2334 22.0494 20.8675 22.0494 20.4168V17.1501C22.0494 16.6994 21.6836 16.3335 21.2328 16.3335ZM20.4161 19.6001H15.5161V17.9668H20.4161V19.6001Z" fill="#FECC2F"/>
<path d="M34.3005 7.3501H11.4338C10.9831 7.3501 10.6172 7.71597 10.6172 8.16673V23.6834C10.6172 24.1341 10.9831 24.5 11.4338 24.5H30.8754C31.1343 24.5 31.3768 24.3784 31.5304 24.1709C31.6848 23.9635 31.7322 23.6956 31.6578 23.4481L30.6239 20.001L34.0662 21.0341C34.3137 21.1085 34.5815 21.0611 34.7881 20.9067C34.9955 20.7532 35.1172 20.5099 35.1172 20.2517V8.16673C35.1171 7.71597 34.7512 7.3501 34.3005 7.3501ZM33.4838 19.1542L29.6397 18.0011C29.3515 17.9145 29.0403 17.9937 28.828 18.2061C28.6148 18.4192 28.5364 18.7303 28.623 19.0187L29.7777 22.8668H12.2505V8.98346H33.4838V19.1542Z" fill="#FECC2F"/>
</svg>
