<svg width="45" height="45" viewBox="0 0 45 45" fill="none" xmlns="http://www.w3.org/2000/svg">
<path d="M23.297 33.3624L24.7695 13.1939H20.2432L21.9718 33.3624H23.297Z" fill="white"/>
<path d="M16.2939 38.0175H28.7077V35.6899C28.7077 35.2614 28.3603 34.914 27.9319 34.914H17.0698C16.6417 34.914 16.2939 35.2614 16.2939 35.6899V38.0175Z" fill="white"/>
<path d="M26.3241 13.1939L24.8516 33.3624H25.6373L28.585 13.1939H26.3241Z" fill="white"/>
<path d="M16.416 13.1939L19.3634 33.3624H20.4154L18.686 13.1939H16.416Z" fill="white"/>
<path d="M19.1393 8.17964C19.6166 9.01839 18.1835 11.8733 19.0074 12.3582C19.8068 12.8284 21.5112 10.1534 22.5003 10.1534C23.4899 10.1534 25.1943 12.8295 25.9932 12.359C26.8172 11.8741 25.3844 9.01839 25.8614 8.1804C26.324 7.36741 29.4831 7.21436 29.4831 6.2074C29.4831 5.20121 26.324 5.04816 25.8614 4.23517C25.3844 3.39642 26.8172 0.54111 25.9932 0.0561966C25.195 -0.413942 23.4899 2.26142 22.5003 2.26142C21.5112 2.26142 19.8068 -0.413942 19.0074 0.0554388C18.1835 0.540353 19.6166 3.39642 19.1393 4.23441C18.6771 5.04816 15.5176 5.20121 15.5176 6.2074C15.5176 7.2136 18.6771 7.36741 19.1393 8.17964ZM22.5003 4.65568C23.3576 4.65568 24.0521 5.35009 24.0521 6.2074C24.0521 7.06472 23.3576 7.75913 22.5003 7.75913C21.643 7.75913 20.9486 7.06472 20.9486 6.2074C20.9486 5.35085 21.643 4.65568 22.5003 4.65568Z" fill="white"/>
<path d="M8.71297 31.7531L7.9731 29.629C7.32187 30.0139 6.79908 30.5818 6.46305 31.2769C6.01223 32.2096 5.95275 33.2632 6.29333 34.2406L7.25747 37.0057C7.35938 37.0308 7.45788 37.0633 7.55713 37.0936C7.47568 36.6614 7.44007 36.2174 7.46545 35.7669C7.53781 34.5069 8.03333 33.3382 8.8736 32.4207C8.83723 32.1964 8.78912 31.9721 8.71297 31.7531Z" fill="white"/>
<path d="M7.75246 27.3726L7.88126 25.1257C6.09428 25.3849 4.67212 26.8729 4.56529 28.7436L4.39746 31.6702C4.48156 31.7323 4.56074 31.8005 4.6403 31.8672C4.73046 31.4353 4.86798 31.0099 5.06498 30.6026C5.61353 29.4668 6.51972 28.577 7.64676 28.0492C7.69904 27.8257 7.7392 27.6007 7.75246 27.3726Z" fill="white"/>
<path d="M5.55469 19.8428C5.57022 19.9463 5.57893 20.0501 5.58803 20.1542C5.95664 19.9137 6.35214 19.7102 6.77909 19.5621C7.97054 19.1454 9.24003 19.1579 10.4091 19.5822C10.6031 19.4621 10.7918 19.3318 10.9634 19.178L12.6431 17.6808C12.0393 17.2277 11.3146 16.9606 10.5436 16.917C9.51545 16.8576 8.5138 17.2042 7.74097 17.8941L5.55469 19.8428Z" fill="white"/>
<path d="M2.57471 30.7875C2.68079 30.8159 2.78497 30.8519 2.88877 30.8867L3.01758 28.6527C3.07668 27.6185 2.72966 26.6233 2.04017 25.8505C1.96554 25.7667 1.88258 25.6951 1.80188 25.6194C1.65527 25.5099 1.51397 25.3943 1.37986 25.2716C1.00178 25.0034 0.585431 24.7977 0.136885 24.6806L0.00732246 26.9275C-0.0926911 28.6815 0.999502 30.2207 2.57471 30.7875Z" fill="white"/>
<path d="M5.56088 36.8599L4.82556 34.752C4.4399 33.6454 3.59812 32.8222 2.58624 32.4214C2.37447 32.3691 2.16649 32.3097 1.9657 32.2335C1.53761 32.1418 1.09058 32.1225 0.643555 32.1839L1.38456 34.308C1.95472 35.9454 3.52122 36.9451 5.16689 36.8947C5.29721 36.8769 5.42905 36.8686 5.56088 36.8599Z" fill="white"/>
<path d="M6.15837 38.4009C6.0182 38.3914 5.87917 38.399 5.74051 38.4054C5.64239 38.4179 5.54389 38.4225 5.44615 38.4301C4.93093 38.4952 4.4339 38.6566 3.98535 38.9191L5.48366 40.5997C6.72966 41.9968 8.76933 42.2783 10.3286 41.3706L8.83222 39.6923C8.14311 38.9184 7.19336 38.4604 6.15837 38.4009Z" fill="white"/>
<path d="M7.28967 21.0271C6.31151 21.3684 5.52466 22.0704 5.07384 23.0031L3.7998 25.6417C3.85436 25.7326 3.90171 25.8273 3.95134 25.9209C4.89162 24.54 6.44334 23.6176 8.18752 23.5391C8.32087 23.3546 8.44513 23.1614 8.54514 22.9542L9.52292 20.9293C8.79101 20.7437 8.02083 20.7732 7.28967 21.0271Z" fill="white"/>
<path d="M2.70524 24.3416L3.67734 22.328C4.18764 21.2714 4.174 20.0944 3.73947 19.0942C3.62923 18.9135 3.52846 18.7271 3.44057 18.5358C3.20152 18.1649 2.89845 17.8304 2.5359 17.5543L1.55774 19.5792C0.794759 21.1597 1.213 22.9978 2.44763 24.1241C2.53666 24.1942 2.62038 24.2677 2.70524 24.3416Z" fill="white"/>
<path d="M5.04074 18.2221L6.70801 16.7363C7.48085 16.0468 7.93962 15.0971 7.99834 14.0629C8.04342 13.2915 7.8612 12.5422 7.48009 11.8895L5.80032 13.387C5.02673 14.0769 4.56833 15.0263 4.50923 16.0605C4.47362 16.6806 4.58992 17.2841 4.83276 17.8357C4.90815 17.9607 4.97558 18.0903 5.04074 18.2221Z" fill="white"/>
<path d="M11.4894 40.3388C11.9425 39.7353 12.2096 39.0106 12.2528 38.2396C12.3126 37.2046 11.966 36.209 11.2761 35.4355L9.7778 33.7564C9.32471 34.3603 9.05801 35.0846 9.01444 35.856C8.95459 36.8909 9.3016 37.8865 9.99109 38.6601L11.4894 40.3388Z" fill="white"/>
<path d="M40.3587 31.8664C40.4387 31.7997 40.5179 31.7315 40.6016 31.6694L40.4341 28.7428C40.3262 26.8721 38.904 25.3841 37.1182 25.1249L37.247 27.3718C37.261 27.6022 37.3011 27.8272 37.3538 28.0492C38.4812 28.5762 39.3866 29.4668 39.9352 30.6018C40.1322 31.0091 40.2697 31.4345 40.3587 31.8664Z" fill="white"/>
<path d="M41.2003 25.6425L39.9255 23.0038C39.9247 23.0016 39.924 22.9993 39.9225 22.9978C39.4709 22.0681 38.6859 21.3684 37.7097 21.0278C36.9796 20.774 36.2076 20.7437 35.4775 20.9301L36.4561 22.9565C36.5569 23.1645 36.6804 23.3562 36.8137 23.5407C38.5647 23.6206 40.1126 24.5408 41.0506 25.9202C41.0995 25.8266 41.1469 25.7319 41.2003 25.6425Z" fill="white"/>
<path d="M43.1997 25.6201C43.1198 25.6962 43.036 25.7675 42.9614 25.8512C42.2719 26.624 41.9249 27.6196 41.984 28.6538L42.1128 30.8875C42.2151 30.8534 42.3174 30.8174 42.4216 30.7897C43.9987 30.2249 45.0943 28.6838 44.9943 26.9282L44.8647 24.6813C44.4154 24.7984 43.9994 25.0041 43.6217 25.2723C43.4876 25.3951 43.3463 25.5106 43.1997 25.6201Z" fill="white"/>
<path d="M37.7428 37.0065L38.7074 34.2413C39.0479 33.2632 38.9881 32.2104 38.5376 31.2777C38.2009 30.5825 37.6784 30.0146 37.0276 29.6297L36.2874 31.7546C36.2124 31.9721 36.1635 32.1956 36.126 32.4222C36.9662 33.3397 37.4621 34.5092 37.5345 35.7684C37.5599 36.2193 37.525 36.6629 37.4428 37.0951C37.5428 37.0633 37.6421 37.0315 37.7428 37.0065Z" fill="white"/>
<path d="M41.3238 22.3288L42.1656 24.0729L42.2959 24.3423C42.3804 24.2684 42.4652 24.1934 42.5543 24.1248C43.787 22.9985 44.2053 21.1612 43.4427 19.5814L42.4645 17.5565C42.1019 17.8327 41.7992 18.1664 41.5606 18.5373C41.4727 18.7298 41.3712 18.9166 41.2602 19.098C40.8271 20.0966 40.8131 21.2707 41.3208 22.3257C41.3223 22.3257 41.323 22.3272 41.3238 22.3288Z" fill="white"/>
<path d="M34.5911 19.5822C35.7613 19.1579 37.0296 19.1462 38.2215 19.5621C38.6488 19.711 39.0462 19.9144 39.4156 20.1565C39.4247 20.0523 39.4326 19.9478 39.4482 19.8447L37.2604 17.8941C36.4868 17.2042 35.4836 16.8576 34.4569 16.9171C33.6856 16.9614 32.9613 17.2277 32.3574 17.6808L34.0364 19.178C34.2088 19.3318 34.3963 19.4621 34.5911 19.5822Z" fill="white"/>
<path d="M33.7248 35.4362C33.0349 36.209 32.6883 37.2046 32.7478 38.2396C32.7921 39.0105 33.0584 39.7352 33.5115 40.3387L35.0094 38.6593C35.6993 37.8865 36.0459 36.8909 35.9864 35.8559C35.9421 35.0846 35.6762 34.3603 35.2227 33.7564L33.7248 35.4362Z" fill="white"/>
<path d="M39.2742 38.407C39.1306 38.399 38.9863 38.3922 38.8412 38.4009C37.8062 38.4596 36.8568 38.9184 36.1677 39.6916L34.6709 41.3706C36.2313 42.2791 38.2695 41.9961 39.5178 40.5989L41.0153 38.9192C40.5622 38.6551 40.0603 38.4922 39.539 38.4293C39.4496 38.4225 39.3621 38.4187 39.2742 38.407Z" fill="white"/>
<path d="M42.9645 32.255C42.7917 32.3179 42.6141 32.3717 42.4326 32.4164C41.412 32.8146 40.5619 33.6386 40.1732 34.7512L39.4375 36.8598C39.5701 36.8685 39.7023 36.8776 39.8334 36.8954C41.4791 36.9485 43.0437 35.9445 43.6142 34.308L44.3548 32.1838C43.8839 32.1194 43.4146 32.1505 42.9645 32.255Z" fill="white"/>
<path d="M39.9625 18.2237C40.0219 18.1044 40.0826 17.9847 40.1507 17.8691C40.4038 17.3077 40.5273 16.6925 40.4906 16.0598C40.4318 15.0256 39.9731 14.0754 39.1995 13.3863L37.5201 11.8888C37.139 12.5415 36.9568 13.2909 37.0019 14.0622C37.0606 15.0964 37.5193 16.0469 38.2925 16.7357L39.9625 18.2237Z" fill="white"/>
<path d="M32.4369 41.1721C30.6454 42.051 27.0775 43.4485 22.4989 43.4485C17.9206 43.4485 14.3524 42.0503 12.5612 41.1721C12.2097 41.6013 11.799 41.9783 11.3467 42.3003C13.0662 43.2205 17.0906 45.0003 22.4996 45.0003C27.909 45.0003 31.9327 43.2197 33.6526 42.3003C33.1987 41.9783 32.7885 41.6013 32.4369 41.1721Z" fill="white"/>
</svg>
