<svg width="54" height="36" viewBox="0 0 54 36" fill="none" xmlns="http://www.w3.org/2000/svg">
<path d="M9.16 22.712L9.79376 23.1131L10.0439 22.7177L9.79892 22.3192L9.16 22.712ZM1.96 11V10.25H0.618547L1.32108 11.3928L1.96 11ZM9.4 11L10.041 10.6106L9.82193 10.25H9.4V11ZM12.52 16.136L13.2164 15.8575L13.1933 15.7997L13.161 15.7466L12.52 16.136ZM13.864 19.496L13.1676 19.7745L13.8401 21.4557L14.5534 19.7914L13.864 19.496ZM15.304 16.136L14.671 15.7337L14.6385 15.7849L14.6146 15.8406L15.304 16.136ZM18.568 11V10.25H18.156L17.935 10.5977L18.568 11ZM25.336 11L25.9708 11.3994L26.694 10.25H25.336V11ZM18.088 22.52L17.4532 22.1206L17.2039 22.5168L17.4504 22.9148L18.088 22.52ZM25.816 35V35.75H27.1626L26.4536 34.6051L25.816 35ZM18.568 35L17.9368 35.405L18.1581 35.75H18.568V35ZM14.872 29.24L14.1769 29.5218L14.2031 29.5864L14.2408 29.645L14.872 29.24ZM13.432 25.688L14.1271 25.4062L13.4543 23.7468L12.7436 25.3903L13.432 25.688ZM11.896 29.24L12.5272 29.645L12.5602 29.5937L12.5844 29.5377L11.896 29.24ZM8.2 35V35.75H8.60987L8.83123 35.405L8.2 35ZM1.384 35L0.750237 34.5989L0.0218356 35.75H1.384V35ZM9.79892 22.3192L2.59892 10.6072L1.32108 11.3928L8.52108 23.1048L9.79892 22.3192ZM1.96 11.75H9.4V10.25H1.96V11.75ZM8.75901 11.3894L11.879 16.5254L13.161 15.7466L10.041 10.6106L8.75901 11.3894ZM11.8236 16.4145L13.1676 19.7745L14.5604 19.2175L13.2164 15.8575L11.8236 16.4145ZM14.5534 19.7914L15.9934 16.4314L14.6146 15.8406L13.1746 19.2006L14.5534 19.7914ZM15.937 16.5383L19.201 11.4023L17.935 10.5977L14.671 15.7337L15.937 16.5383ZM18.568 11.75H25.336V10.25H18.568V11.75ZM24.7012 10.6006L17.4532 22.1206L18.7228 22.9194L25.9708 11.3994L24.7012 10.6006ZM17.4504 22.9148L25.1784 35.3949L26.4536 34.6051L18.7256 22.1251L17.4504 22.9148ZM25.816 34.25H18.568V35.75H25.816V34.25ZM19.1992 34.595L15.5032 28.835L14.2408 29.645L17.9368 35.405L19.1992 34.595ZM15.5671 28.9582L14.1271 25.4062L12.7369 25.9698L14.1769 29.5218L15.5671 28.9582ZM12.7436 25.3903L11.2076 28.9423L12.5844 29.5377L14.1204 25.9857L12.7436 25.3903ZM11.2648 28.835L7.56877 34.595L8.83123 35.405L12.5272 29.645L11.2648 28.835ZM8.2 34.25H1.384V35.75H8.2V34.25ZM2.01776 35.4011L9.79376 23.1131L8.52624 22.3109L0.750237 34.5989L2.01776 35.4011ZM52.7628 25.64V26.39H53.5128V25.64H52.7628ZM47.4827 25.64V24.89H46.7327V25.64H47.4827ZM47.4827 35V35.75H48.2327V35H47.4827ZM41.6748 35H40.9248V35.75H41.6748V35ZM41.6748 25.64H42.4248V24.89H41.6748V25.64ZM27.1308 25.64H26.3808V26.39H27.1308V25.64ZM27.1308 22.088L26.5241 21.647L26.3808 21.8442V22.088H27.1308ZM42.3468 1.16V0.409998H41.9648L41.7401 0.718952L42.3468 1.16ZM47.4827 1.16H48.2327V0.409998H47.4827V1.16ZM47.4827 20.648H46.7327V21.398H47.4827V20.648ZM52.7628 20.648H53.5128V19.898H52.7628V20.648ZM41.6748 13.304L40.929 13.2241L40.9248 13.2639V13.304H41.6748ZM42.1068 9.272L42.8525 9.3519L42.9414 8.522H42.1068V9.272ZM41.9147 9.272V8.522H41.4395L41.2366 8.95174L41.9147 9.272ZM40.2827 12.728L40.8769 13.1857L40.9263 13.1215L40.9609 13.0483L40.2827 12.728ZM35.2907 19.208L35.7446 19.8051L35.824 19.7447L35.8849 19.6657L35.2907 19.208ZM32.8908 21.032L32.4369 20.4349L30.217 22.1221L32.9838 21.7762L32.8908 21.032ZM35.9627 20.648V19.898H35.9161L35.8697 19.9038L35.9627 20.648ZM41.6748 20.648V21.398H42.4248V20.648H41.6748ZM52.7628 24.89H47.4827V26.39H52.7628V24.89ZM46.7327 25.64V35H48.2327V25.64H46.7327ZM47.4827 34.25H41.6748V35.75H47.4827V34.25ZM42.4248 35V25.64H40.9248V35H42.4248ZM41.6748 24.89H27.1308V26.39H41.6748V24.89ZM27.8808 25.64V22.088H26.3808V25.64H27.8808ZM27.7374 22.529L42.9534 1.60104L41.7401 0.718952L26.5241 21.647L27.7374 22.529ZM42.3468 1.91H47.4827V0.409998H42.3468V1.91ZM46.7327 1.16V20.648H48.2327V1.16H46.7327ZM47.4827 21.398H52.7628V19.898H47.4827V21.398ZM52.0128 20.648V25.64H53.5128V20.648H52.0128ZM42.4205 13.3839L42.8525 9.3519L41.361 9.1921L40.929 13.2241L42.4205 13.3839ZM42.1068 8.522H41.9147V10.022H42.1068V8.522ZM41.2366 8.95174L39.6046 12.4077L40.9609 13.0483L42.5929 9.59225L41.2366 8.95174ZM39.6886 12.2703L34.6966 18.7503L35.8849 19.6657L40.8769 13.1857L39.6886 12.2703ZM34.8369 18.6109L32.4369 20.4349L33.3446 21.6291L35.7446 19.8051L34.8369 18.6109ZM32.9838 21.7762L36.0558 21.3922L35.8697 19.9038L32.7977 20.2878L32.9838 21.7762ZM35.9627 21.398H41.6748V19.898H35.9627V21.398ZM42.4248 20.648V13.304H40.9248V20.648H42.4248Z" fill="white"/>
</svg>
