<svg width="52" height="38" viewBox="0 0 52 38" fill="none" xmlns="http://www.w3.org/2000/svg">
<path d="M9.16 23.712L9.79376 24.1131L10.0439 23.7177L9.79892 23.3192L9.16 23.712ZM1.96 12V11.25H0.618547L1.32108 12.3928L1.96 12ZM9.4 12L10.041 11.6106L9.82193 11.25H9.4V12ZM12.52 17.136L13.2164 16.8575L13.1933 16.7997L13.161 16.7466L12.52 17.136ZM13.864 20.496L13.1676 20.7745L13.8401 22.4557L14.5534 20.7914L13.864 20.496ZM15.304 17.136L14.671 16.7337L14.6385 16.7849L14.6146 16.8406L15.304 17.136ZM18.568 12V11.25H18.156L17.935 11.5977L18.568 12ZM25.336 12L25.9708 12.3994L26.694 11.25H25.336V12ZM18.088 23.52L17.4532 23.1206L17.2039 23.5168L17.4504 23.9148L18.088 23.52ZM25.816 36V36.75H27.1626L26.4536 35.6051L25.816 36ZM18.568 36L17.9368 36.405L18.1581 36.75H18.568V36ZM14.872 30.24L14.1769 30.5218L14.2031 30.5864L14.2408 30.645L14.872 30.24ZM13.432 26.688L14.1271 26.4062L13.4543 24.7468L12.7436 26.3903L13.432 26.688ZM11.896 30.24L12.5272 30.645L12.5602 30.5937L12.5844 30.5377L11.896 30.24ZM8.2 36V36.75H8.60987L8.83123 36.405L8.2 36ZM1.384 36L0.750237 35.5989L0.0218356 36.75H1.384V36ZM9.79892 23.3192L2.59892 11.6072L1.32108 12.3928L8.52108 24.1048L9.79892 23.3192ZM1.96 12.75H9.4V11.25H1.96V12.75ZM8.75901 12.3894L11.879 17.5254L13.161 16.7466L10.041 11.6106L8.75901 12.3894ZM11.8236 17.4145L13.1676 20.7745L14.5604 20.2175L13.2164 16.8575L11.8236 17.4145ZM14.5534 20.7914L15.9934 17.4314L14.6146 16.8406L13.1746 20.2006L14.5534 20.7914ZM15.937 17.5383L19.201 12.4023L17.935 11.5977L14.671 16.7337L15.937 17.5383ZM18.568 12.75H25.336V11.25H18.568V12.75ZM24.7012 11.6006L17.4532 23.1206L18.7228 23.9194L25.9708 12.3994L24.7012 11.6006ZM17.4504 23.9148L25.1784 36.3949L26.4536 35.6051L18.7256 23.1251L17.4504 23.9148ZM25.816 35.25H18.568V36.75H25.816V35.25ZM19.1992 35.595L15.5032 29.835L14.2408 30.645L17.9368 36.405L19.1992 35.595ZM15.5671 29.9582L14.1271 26.4062L12.7369 26.9698L14.1769 30.5218L15.5671 29.9582ZM12.7436 26.3903L11.2076 29.9423L12.5844 30.5377L14.1204 26.9857L12.7436 26.3903ZM11.2648 29.835L7.56877 35.595L8.83123 36.405L12.5272 30.645L11.2648 29.835ZM8.2 35.25H1.384V36.75H8.2V35.25ZM2.01776 36.4011L9.79376 24.1131L8.52624 23.3109L0.750237 35.5989L2.01776 36.4011ZM29.0988 8.4L28.3958 8.13845L28.3931 8.14568L28.3906 8.15297L29.0988 8.4ZM31.2588 4.896L30.7198 4.37443L30.7195 4.37473L31.2588 4.896ZM34.7147 2.592L34.9962 3.28726L35.0044 3.28383L34.7147 2.592ZM47.9147 4.992L47.3685 5.50608L47.3764 5.51423L47.9147 4.992ZM49.5947 24.048L48.8875 23.7984L48.8858 23.8032L49.5947 24.048ZM45.8027 30.816L45.2389 30.3214L45.2383 30.3221L45.8027 30.816ZM40.3307 34.944L40.0165 34.263L40.3307 34.944ZM33.7547 36.672L33.0315 36.8705L33.1964 37.4711L33.817 37.4194L33.7547 36.672ZM32.4108 31.776L32.3161 31.032L31.4587 31.1411L31.6875 31.9745L32.4108 31.776ZM37.1147 30.48L37.431 31.16L37.1147 30.48ZM40.6668 28.128L41.1792 28.6758L41.1883 28.667L40.6668 28.128ZM43.0667 24.912L42.403 24.5627L42.3996 24.5694L43.0667 24.912ZM44.4108 21.024L45.1481 21.1612L45.6238 18.6041L43.8596 20.5153L44.4108 21.024ZM41.9147 22.752L41.6625 22.0456L41.6543 22.0487L41.9147 22.752ZM34.7627 22.608L34.5141 23.3156L34.52 23.3176L34.7627 22.608ZM31.5468 20.736L31.0357 21.2849L31.0455 21.294L31.0556 21.3028L31.5468 20.736ZM29.2428 17.52L28.556 17.8215L28.5605 17.8317L28.5653 17.8418L29.2428 17.52ZM35.9627 16.704L35.4591 17.2597V17.2597L35.9627 16.704ZM43.0188 17.472L43.3542 18.1428L43.0188 17.472ZM44.9388 15.936L45.5425 16.3809L45.6545 16.2289L45.6812 16.0421L44.9388 15.936ZM44.7467 11.376L44.0208 11.5642L44.7467 11.376ZM43.6908 9.072L43.0667 9.48802L43.0734 9.49809L43.0805 9.50793L43.6908 9.072ZM41.9147 7.488L41.5332 8.13369L41.5503 8.14377L41.5678 8.15294L41.9147 7.488ZM35.7228 8.4L36.2884 8.89264L36.296 8.88365L35.7228 8.4ZM29.1287 12.912C29.1287 11.3541 29.3577 9.9347 29.8069 8.64703L28.3906 8.15297C27.8798 9.6173 27.6287 11.2059 27.6287 12.912H29.1287ZM29.8017 8.66155C30.2812 7.37276 30.9487 6.29579 31.798 5.41727L30.7195 4.37473C29.7128 5.4162 28.9403 6.67524 28.3958 8.13845L29.8017 8.66155ZM31.7977 5.41757C32.6813 4.50455 33.7442 3.79395 34.9961 3.28721L34.4334 1.89679C32.9973 2.47805 31.7562 3.30344 30.7198 4.37443L31.7977 5.41757ZM35.0044 3.28383C36.2737 2.75248 37.7406 2.478 39.4188 2.478V0.977998C37.5769 0.977998 35.9078 1.27951 34.4251 1.90017L35.0044 3.28383ZM39.4188 2.478C42.8748 2.478 45.4915 3.51162 47.3686 5.50602L48.4609 4.47798C46.242 2.12038 43.1947 0.977998 39.4188 0.977998V2.478ZM47.3764 5.51423C49.2759 7.47208 50.2848 10.3914 50.2848 14.4H51.7848C51.7848 10.1526 50.7136 6.79992 48.4531 4.46976L47.3764 5.51423ZM50.2848 14.4C50.2848 18.0501 49.8124 21.1778 48.8875 23.7984L50.302 24.2976C51.2971 21.4782 51.7848 18.1739 51.7848 14.4H50.2848ZM48.8858 23.8032C47.9842 26.4149 46.7648 28.5819 45.2389 30.3214L46.3666 31.3106C48.0407 29.4021 49.3493 27.0571 50.3037 24.2928L48.8858 23.8032ZM45.2383 30.3221C43.7368 32.0381 41.9971 33.3489 40.0165 34.263L40.645 35.625C42.8244 34.6191 44.7327 33.1779 46.3672 31.3099L45.2383 30.3221ZM40.0165 34.263C38.0167 35.186 35.9101 35.7398 33.6925 35.9246L33.817 37.4194C36.2075 37.2202 38.4848 36.622 40.645 35.625L40.0165 34.263ZM34.478 36.4735L33.134 31.5775L31.6875 31.9745L33.0315 36.8705L34.478 36.4735ZM32.5054 32.52C34.3295 32.2878 35.9742 31.8376 37.431 31.16L36.7985 29.8C35.5033 30.4024 34.012 30.8162 32.3161 31.032L32.5054 32.52ZM37.431 31.16C38.8707 30.4905 40.1228 29.6639 41.1791 28.6757L40.1544 27.5803C39.2267 28.4481 38.1108 29.1895 36.7985 29.8L37.431 31.16ZM41.1883 28.667C42.237 27.6521 43.0871 26.5143 43.7339 25.2546L42.3996 24.5694C41.8304 25.6777 41.0805 26.684 40.1452 27.589L41.1883 28.667ZM43.7304 25.2613C44.4062 23.9775 44.8786 22.6098 45.1481 21.1612L43.6734 20.8868C43.4309 22.1902 43.0074 23.4145 42.4031 24.5627L43.7304 25.2613ZM43.8596 20.5153C43.1583 21.2751 42.4246 21.7735 41.6625 22.0457L42.167 23.4583C43.1969 23.0905 44.1272 22.4369 44.9619 21.5327L43.8596 20.5153ZM41.6543 22.0487C40.9084 22.3249 39.8405 22.482 38.4108 22.482V23.982C39.925 23.982 41.1931 23.8191 42.1752 23.4553L41.6543 22.0487ZM38.4108 22.482C37.2819 22.482 36.1478 22.2892 35.0055 21.8984L34.52 23.3176C35.8097 23.7588 37.1076 23.982 38.4108 23.982V22.482ZM35.0114 21.9004C33.9175 21.5161 32.9276 20.9402 32.0379 20.1692L31.0556 21.3028C32.0859 22.1958 33.24 22.8679 34.5141 23.3156L35.0114 21.9004ZM32.0578 20.1871C31.2068 19.3948 30.4923 18.4027 29.9202 17.1982L28.5653 17.8418C29.2092 19.1973 30.0307 20.3492 31.0357 21.2849L32.0578 20.1871ZM29.9295 17.2185C29.4036 16.0206 29.1287 14.5913 29.1287 12.912H27.6287C27.6287 14.7527 27.9299 16.3954 28.556 17.8215L29.9295 17.2185ZM33.6768 12.576C33.6768 14.5404 34.2322 16.1478 35.4591 17.2597L36.4664 16.1483C35.6453 15.4042 35.1768 14.2596 35.1768 12.576H33.6768ZM35.4591 17.2597C36.6368 18.327 38.103 18.846 39.8027 18.846V17.346C38.4305 17.346 37.3367 16.937 36.4664 16.1483L35.4591 17.2597ZM39.8027 18.846C41.1864 18.846 42.3842 18.6278 43.3542 18.1428L42.6833 16.8012C41.9893 17.1482 41.0431 17.346 39.8027 17.346V18.846ZM43.3542 18.1428C44.2681 17.6859 45.0098 17.104 45.5425 16.3809L44.335 15.4911C43.9717 15.984 43.4334 16.4261 42.6833 16.8012L43.3542 18.1428ZM45.6812 16.0421C45.7817 15.3389 45.8327 14.6633 45.8327 14.016H44.3327C44.3327 14.5847 44.2878 15.1891 44.1963 15.8299L45.6812 16.0421ZM45.8327 14.016C45.8327 13.0567 45.7127 12.1135 45.4727 11.1878L44.0208 11.5642C44.2288 12.3665 44.3327 13.1833 44.3327 14.016H45.8327ZM45.4727 11.1878C45.2276 10.242 44.8386 9.3887 44.3011 8.63607L43.0805 9.50793C43.5029 10.0993 43.8179 10.782 44.0208 11.5642L45.4727 11.1878ZM44.3148 8.65597C43.7948 7.87601 43.1063 7.26371 42.2617 6.82306L41.5678 8.15294C42.1952 8.48028 42.6907 8.92398 43.0667 9.48802L44.3148 8.65597ZM42.2963 6.8423C41.4544 6.34481 40.4684 6.114 39.3708 6.114V7.614C40.2571 7.614 40.9671 7.79919 41.5332 8.13369L42.2963 6.8423ZM39.3708 6.114C37.6235 6.114 36.1809 6.69394 35.1495 7.91634L36.296 8.88365C36.9926 8.05805 37.982 7.614 39.3708 7.614V6.114ZM35.1572 7.90741C34.1371 9.07858 33.6768 10.6688 33.6768 12.576H35.1768C35.1768 10.8992 35.5804 9.70542 36.2883 8.89258L35.1572 7.90741Z" fill="white"/>
</svg>
