<svg width="1280" height="340" fill="none" xmlns="http://www.w3.org/2000/svg"><path opacity=".4" d="M1241.7 168.264h108.77V6.112H1241.7v152.644h100.56V16.401h-90.27v134.15h79.98V27.341h-70.47v115.004h60.31V36.979h-50.67v96.38h40.38V46.487h-32.83v78.015h24.62V56.776h-18.5v60.954h10.95V67.716m-173.38 100.548h108.77V6.112h-108.77v152.644h100.57V16.401h-90.28v134.15h79.99V27.341h-70.48v115.004h60.32V36.979h-50.68v96.38h40.38V46.487h-32.82v78.015H1184V56.776h-18.5v60.954h10.94V67.716M1004.3 168.264h108.78V6.112H1004.3v152.644h100.57V16.401h-90.27v134.15h79.98V27.341h-70.47v115.004h60.31V36.979h-50.67v96.38h40.38V46.487h-32.83v78.015h24.62V56.776h-18.5v60.954h10.95V67.716M884.984 168.264H993.76V6.112H884.984v152.644h100.569V16.401h-90.277v134.15h79.986V27.341h-70.477v115.004h60.316V36.979h-50.675l-.001 96.38h40.384V46.487h-32.828v78.015h24.621V56.776h-18.498v60.954h10.943V67.716M766.91 168.264h108.776V6.112H766.91v152.644h100.569V16.401h-90.277v134.15h79.985V27.341h-70.476v115.004h60.315V36.979h-50.675v96.38h40.384V46.487h-32.828v78.015h24.621V56.776H810.03v60.954h10.942V67.716M647.594 168.264h108.775V6.112H647.594v152.644h100.568V16.401h-90.277v134.15h79.986V27.341h-70.476v115.004h60.315V36.979h-50.675v96.38h40.384V46.487h-32.828l-.001 78.015h24.622V56.776h-18.499v60.954h10.943V67.716M529.52 168.264h108.775V6.112H529.52v152.644h100.568V16.401h-90.277v134.15h79.986V27.341h-70.476v115.004h60.315V36.979h-50.675v96.38h40.383V46.487h-32.828v78.015h24.621V56.776h-18.498v60.954h10.943V67.716M410.199 168.264h108.776V6.112H410.199v152.644h100.569V16.401h-90.277v134.15h79.985V27.341H430v115.004h60.315V36.979H439.64v96.38h40.384V46.487h-32.828v78.015h24.621V56.776h-18.498v60.954h10.942V67.716M292.125 168.264h108.776V6.112H292.125v152.644h100.569V16.401h-90.278v134.15h79.986V27.341h-70.476v115.004h60.315V36.979h-50.675v96.38h40.384V46.487h-32.828v78.015h24.621V56.776h-18.498v60.954h10.942V67.716M172.809 168.264h108.775V6.112H172.809v152.644h100.568V16.401H183.1v134.15h79.986V27.341H192.61v115.004h60.315V36.979H202.25v96.38h40.384V46.487h-32.829v78.015h24.621V56.776h-18.498v60.954h10.943V67.716M54.734 168.264H163.51V6.112H54.734v152.644h100.569V16.401H65.026v134.15h79.986V27.341H74.535v115.004h60.316V36.979H84.176v96.38h40.383V46.487H91.731v78.015h24.621V56.776H97.854v60.954h10.943V67.716M-64.586 168.264H44.19V6.112H-64.586v152.644H35.983V16.401h-90.278v134.15h79.987V27.341h-70.477v115.004H15.53V36.979h-50.675v96.38H5.24V46.487h-32.828v78.015h24.621V56.776h-18.498v60.954h10.942V67.716M1187.01 339.76h108.77V177.608h-108.77v152.644h100.57V187.897h-90.28v134.15h79.99v-123.21h-70.48v115.005h60.31V208.475h-50.67v96.38h40.38v-86.872H1224v78.015h24.63v-67.726h-18.5v60.954h10.94v-50.013M1067.69 339.76h108.78V177.608h-108.78v152.644h100.57V187.897h-90.28v134.15h79.99v-123.21h-70.48v115.004l60.32.001V208.475h-50.68v96.38h40.39v-86.872h-32.83v78.015h24.62v-67.726h-18.5v60.954h10.94v-50.013M949.617 339.76h108.773V177.608H949.617v152.644h100.573V187.897h-90.281v134.15h79.981v-123.21h-70.472v115.004l60.312.001V208.475h-50.672v96.38h40.382v-86.872h-32.826v78.015h24.626v-67.726h-18.503v60.954h10.943v-50.013M830.297 339.76h108.776V177.608H830.297v152.644h100.569V187.897h-90.278v134.15h79.986v-123.21h-70.476v115.004l60.315.001V208.475h-50.675v96.38h40.384v-86.872h-32.828v78.015h24.621v-67.726h-18.499v60.954h10.943v-50.013M712.223 339.76h108.775V177.608H712.223v152.644h100.568V187.897h-90.277v134.15H802.5v-123.21h-70.476v115.004l60.315.001V208.475h-50.675v96.38h40.384v-86.872h-32.829v78.015h24.622v-67.726h-18.499v60.954h10.943v-50.013M592.906 339.76h108.776V177.608H592.906v152.644h100.569V187.897h-90.277v134.15h79.986v-123.21h-70.477v115.004l60.315.001V208.475h-50.675v96.38h40.384v-86.872h-32.828v78.015h24.621v-67.726h-18.498v60.954h10.942v-50.013M474.832 339.76h108.776V177.608H474.832v152.644h100.569V187.897h-90.278v134.15h79.987v-123.21h-70.477v115.004l60.315.001V208.475h-50.675v96.38h40.384v-86.872h-32.828v78.015h24.621v-67.726h-18.498v60.954h10.942v-50.013M355.512 339.76h108.775l.001-162.152H355.512v152.644H456.08V187.897h-90.277v134.15h79.986v-123.21h-70.476v115.004l60.315.001V208.475h-50.675v96.38h40.384v-86.872h-32.828v78.015h24.621v-67.726h-18.499v60.954h10.943v-50.013M237.438 339.76h108.775V177.608H237.438v152.644h100.568V187.897h-90.277v134.15h79.986v-123.21h-70.476v115.004l60.315.001V208.475h-50.675v96.38h40.383v-86.872h-32.828v78.015h24.621v-67.726h-18.498v60.954H291.5v-50.013M118.121 339.76h108.776V177.608H118.121v152.644H218.69V187.897h-90.277l-.001 134.15h79.987v-123.21h-70.477v115.004l60.316.001V208.475h-50.676v96.38h40.384v-86.872h-32.828v78.015h24.621v-67.726h-18.498v60.954h10.942v-50.013M.047 339.76h108.776V177.608H.047v152.644h100.569V187.897H10.338v134.15h79.986v-123.21H19.848v115.004l60.315.001V208.475H29.488v96.38h40.384v-86.872H37.044v78.015h24.62v-67.726H43.167v60.954H54.11v-50.013" stroke="#fff" stroke-opacity=".5"/></svg>