<svg width="1920" height="554" viewBox="0 0 1920 554" fill="none" xmlns="http://www.w3.org/2000/svg">
<path d="M1922.31 1.06733L1797.56 38.8801L1613.56 158.666L1436.65 246.753L1194.07 202.918L977.217 255.59L718.48 212.066L471.273 327.679L204.16 288.936L65.7128 335.48L-41.7155 313.681" stroke="#ECE9E9"/>
<path d="M1924.64 41.8246L1798.15 69.6626L1614.15 189.449L1437.24 277.535L1194.66 233.701L977.809 286.372L719.072 242.849L471.865 358.462L204.752 319.718L66.3048 366.263L-41.1235 344.464" stroke="#ECE9E9"/>
<path d="M1927.08 88.7383L1798.74 100.445L1614.74 220.231L1437.83 308.318L1195.26 264.483L978.401 317.155L719.665 273.631L472.457 389.244L205.344 350.501L66.897 397.045L-40.5313 375.246" stroke="#ECE9E9"/>
<path d="M1927.85 128.756L1799.33 131.228L1615.33 251.014L1438.42 339.1L1195.85 295.266L978.993 347.937L720.257 304.414L473.05 420.027L205.937 381.283L67.4892 427.828L-39.9391 406.029" stroke="#ECE9E9"/>
<path d="M1927.18 174.19L1799.92 162.01L1615.93 281.797L1439.01 369.883L1196.44 326.048L979.585 378.72L720.849 335.196L473.641 450.81L206.528 412.066L68.081 458.61L-39.3472 436.811" stroke="#ECE9E9"/>
<path d="M1929.52 215.716L1800.52 192.793L1616.52 312.579L1439.61 400.665L1197.03 356.831L980.177 409.503L721.441 365.979L474.233 481.592L207.121 442.849L68.6732 489.393L-38.7551 467.594" stroke="#ECE9E9"/>
<path d="M1930.96 250.332L1801.11 223.576L1617.11 343.362L1440.2 431.448L1197.62 387.614L980.769 440.285L722.033 396.762L474.826 512.375L207.713 473.631L69.2653 520.176L-38.163 498.377" stroke="#ECE9E9"/>
<path d="M1929.46 292.703L1801.7 254.358L1617.7 374.144L1440.79 462.231L1198.22 418.396L981.361 471.068L722.625 427.544L475.418 543.157L208.305 504.414L69.8574 550.958L-37.5709 529.159" stroke="#ECE9E9"/>
<g filter="url(#filter0_d)">
<ellipse cx="1435.03" cy="242.935" rx="16.9335" ry="16.9335" transform="rotate(-1.10194 1435.03 242.935)" fill="#ECE9E9"/>
</g>
<g filter="url(#filter1_d)">
<ellipse cx="1339.85" cy="417.211" rx="16.9335" ry="16.9336" transform="rotate(-1.10194 1339.85 417.211)" fill="#ECE9E9"/>
</g>
<g filter="url(#filter2_d)">
<ellipse cx="1198.72" cy="204.368" rx="16.9336" ry="16.9335" transform="rotate(-1.10194 1198.72 204.368)" fill="#ECE9E9"/>
</g>
<g filter="url(#filter3_d)">
<circle cx="980.103" cy="285.558" r="16.9335" transform="rotate(-1.10194 980.103 285.558)" fill="#ECE9E9"/>
</g>
<g filter="url(#filter4_d)">
<ellipse cx="1106.1" cy="352.421" rx="16.9336" ry="16.9335" transform="rotate(-1.10194 1106.1 352.421)" fill="#ECE9E9"/>
</g>
<g filter="url(#filter5_d)">
<ellipse cx="1568.02" cy="272.71" rx="16.9335" ry="16.9335" transform="rotate(-1.10194 1568.02 272.71)" fill="#ECE9E9"/>
</g>
<g filter="url(#filter6_d)">
<ellipse cx="1864.92" cy="19.1079" rx="16.9335" ry="16.9335" transform="rotate(-1.10194 1864.92 19.1079)" fill="#ECE9E9"/>
</g>
<g filter="url(#filter7_d)">
<ellipse cx="574.365" cy="404.221" rx="16.9336" ry="16.9335" transform="rotate(-1.10194 574.365 404.221)" fill="#ECE9E9"/>
</g>
<g filter="url(#filter8_d)">
<circle cx="480.36" cy="319.806" r="16.9335" transform="rotate(-1.10194 480.36 319.806)" fill="#ECE9E9"/>
</g>
<g filter="url(#filter9_d)">
<ellipse cx="61.8651" cy="335.554" rx="16.9335" ry="16.9335" transform="rotate(-1.10194 61.8651 335.554)" fill="#ECE9E9"/>
</g>
<g filter="url(#filter10_d)">
<ellipse cx="216.281" cy="438.823" rx="16.9335" ry="16.9335" transform="rotate(-1.10194 216.281 438.823)" fill="#ECE9E9"/>
</g>
<defs>
<filter id="filter0_d" x="1415.1" y="224.001" width="39.8671" height="39.8672" filterUnits="userSpaceOnUse" color-interpolation-filters="sRGB">
<feFlood flood-opacity="0" result="BackgroundImageFix"/>
<feColorMatrix in="SourceAlpha" type="matrix" values="0 0 0 0 0 0 0 0 0 0 0 0 0 0 0 0 0 0 127 0"/>
<feOffset dy="1"/>
<feGaussianBlur stdDeviation="1.5"/>
<feColorMatrix type="matrix" values="0 0 0 0 0.154167 0 0 0 0 0.143568 0 0 0 0 0.0481771 0 0 0 0.25 0"/>
<feBlend mode="normal" in2="BackgroundImageFix" result="effect1_dropShadow"/>
<feBlend mode="normal" in="SourceGraphic" in2="effect1_dropShadow" result="shape"/>
</filter>
<filter id="filter1_d" x="1319.91" y="398.278" width="39.8671" height="39.8673" filterUnits="userSpaceOnUse" color-interpolation-filters="sRGB">
<feFlood flood-opacity="0" result="BackgroundImageFix"/>
<feColorMatrix in="SourceAlpha" type="matrix" values="0 0 0 0 0 0 0 0 0 0 0 0 0 0 0 0 0 0 127 0"/>
<feOffset dy="1"/>
<feGaussianBlur stdDeviation="1.5"/>
<feColorMatrix type="matrix" values="0 0 0 0 0.154167 0 0 0 0 0.143568 0 0 0 0 0.0481771 0 0 0 0.25 0"/>
<feBlend mode="normal" in2="BackgroundImageFix" result="effect1_dropShadow"/>
<feBlend mode="normal" in="SourceGraphic" in2="effect1_dropShadow" result="shape"/>
</filter>
<filter id="filter2_d" x="1178.78" y="185.435" width="39.8673" height="39.8672" filterUnits="userSpaceOnUse" color-interpolation-filters="sRGB">
<feFlood flood-opacity="0" result="BackgroundImageFix"/>
<feColorMatrix in="SourceAlpha" type="matrix" values="0 0 0 0 0 0 0 0 0 0 0 0 0 0 0 0 0 0 127 0"/>
<feOffset dy="1"/>
<feGaussianBlur stdDeviation="1.5"/>
<feColorMatrix type="matrix" values="0 0 0 0 0.154167 0 0 0 0 0.143568 0 0 0 0 0.0481771 0 0 0 0.25 0"/>
<feBlend mode="normal" in2="BackgroundImageFix" result="effect1_dropShadow"/>
<feBlend mode="normal" in="SourceGraphic" in2="effect1_dropShadow" result="shape"/>
</filter>
<filter id="filter3_d" x="960.169" y="266.625" width="39.8672" height="39.8672" filterUnits="userSpaceOnUse" color-interpolation-filters="sRGB">
<feFlood flood-opacity="0" result="BackgroundImageFix"/>
<feColorMatrix in="SourceAlpha" type="matrix" values="0 0 0 0 0 0 0 0 0 0 0 0 0 0 0 0 0 0 127 0"/>
<feOffset dy="1"/>
<feGaussianBlur stdDeviation="1.5"/>
<feColorMatrix type="matrix" values="0 0 0 0 0.154167 0 0 0 0 0.143568 0 0 0 0 0.0481771 0 0 0 0.25 0"/>
<feBlend mode="normal" in2="BackgroundImageFix" result="effect1_dropShadow"/>
<feBlend mode="normal" in="SourceGraphic" in2="effect1_dropShadow" result="shape"/>
</filter>
<filter id="filter4_d" x="1086.17" y="333.488" width="39.8673" height="39.8672" filterUnits="userSpaceOnUse" color-interpolation-filters="sRGB">
<feFlood flood-opacity="0" result="BackgroundImageFix"/>
<feColorMatrix in="SourceAlpha" type="matrix" values="0 0 0 0 0 0 0 0 0 0 0 0 0 0 0 0 0 0 127 0"/>
<feOffset dy="1"/>
<feGaussianBlur stdDeviation="1.5"/>
<feColorMatrix type="matrix" values="0 0 0 0 0.154167 0 0 0 0 0.143568 0 0 0 0 0.0481771 0 0 0 0.25 0"/>
<feBlend mode="normal" in2="BackgroundImageFix" result="effect1_dropShadow"/>
<feBlend mode="normal" in="SourceGraphic" in2="effect1_dropShadow" result="shape"/>
</filter>
<filter id="filter5_d" x="1548.09" y="253.777" width="39.8672" height="39.8672" filterUnits="userSpaceOnUse" color-interpolation-filters="sRGB">
<feFlood flood-opacity="0" result="BackgroundImageFix"/>
<feColorMatrix in="SourceAlpha" type="matrix" values="0 0 0 0 0 0 0 0 0 0 0 0 0 0 0 0 0 0 127 0"/>
<feOffset dy="1"/>
<feGaussianBlur stdDeviation="1.5"/>
<feColorMatrix type="matrix" values="0 0 0 0 0.154167 0 0 0 0 0.143568 0 0 0 0 0.0481771 0 0 0 0.25 0"/>
<feBlend mode="normal" in2="BackgroundImageFix" result="effect1_dropShadow"/>
<feBlend mode="normal" in="SourceGraphic" in2="effect1_dropShadow" result="shape"/>
</filter>
<filter id="filter6_d" x="1844.99" y="0.174316" width="39.8672" height="39.8672" filterUnits="userSpaceOnUse" color-interpolation-filters="sRGB">
<feFlood flood-opacity="0" result="BackgroundImageFix"/>
<feColorMatrix in="SourceAlpha" type="matrix" values="0 0 0 0 0 0 0 0 0 0 0 0 0 0 0 0 0 0 127 0"/>
<feOffset dy="1"/>
<feGaussianBlur stdDeviation="1.5"/>
<feColorMatrix type="matrix" values="0 0 0 0 0.154167 0 0 0 0 0.143568 0 0 0 0 0.0481771 0 0 0 0.25 0"/>
<feBlend mode="normal" in2="BackgroundImageFix" result="effect1_dropShadow"/>
<feBlend mode="normal" in="SourceGraphic" in2="effect1_dropShadow" result="shape"/>
</filter>
<filter id="filter7_d" x="554.432" y="385.287" width="39.8673" height="39.8672" filterUnits="userSpaceOnUse" color-interpolation-filters="sRGB">
<feFlood flood-opacity="0" result="BackgroundImageFix"/>
<feColorMatrix in="SourceAlpha" type="matrix" values="0 0 0 0 0 0 0 0 0 0 0 0 0 0 0 0 0 0 127 0"/>
<feOffset dy="1"/>
<feGaussianBlur stdDeviation="1.5"/>
<feColorMatrix type="matrix" values="0 0 0 0 0.154167 0 0 0 0 0.143568 0 0 0 0 0.0481771 0 0 0 0.25 0"/>
<feBlend mode="normal" in2="BackgroundImageFix" result="effect1_dropShadow"/>
<feBlend mode="normal" in="SourceGraphic" in2="effect1_dropShadow" result="shape"/>
</filter>
<filter id="filter8_d" x="460.426" y="300.872" width="39.8672" height="39.8672" filterUnits="userSpaceOnUse" color-interpolation-filters="sRGB">
<feFlood flood-opacity="0" result="BackgroundImageFix"/>
<feColorMatrix in="SourceAlpha" type="matrix" values="0 0 0 0 0 0 0 0 0 0 0 0 0 0 0 0 0 0 127 0"/>
<feOffset dy="1"/>
<feGaussianBlur stdDeviation="1.5"/>
<feColorMatrix type="matrix" values="0 0 0 0 0.154167 0 0 0 0 0.143568 0 0 0 0 0.0481771 0 0 0 0.25 0"/>
<feBlend mode="normal" in2="BackgroundImageFix" result="effect1_dropShadow"/>
<feBlend mode="normal" in="SourceGraphic" in2="effect1_dropShadow" result="shape"/>
</filter>
<filter id="filter9_d" x="41.9315" y="316.621" width="39.8672" height="39.8672" filterUnits="userSpaceOnUse" color-interpolation-filters="sRGB">
<feFlood flood-opacity="0" result="BackgroundImageFix"/>
<feColorMatrix in="SourceAlpha" type="matrix" values="0 0 0 0 0 0 0 0 0 0 0 0 0 0 0 0 0 0 127 0"/>
<feOffset dy="1"/>
<feGaussianBlur stdDeviation="1.5"/>
<feColorMatrix type="matrix" values="0 0 0 0 0.154167 0 0 0 0 0.143568 0 0 0 0 0.0481771 0 0 0 0.25 0"/>
<feBlend mode="normal" in2="BackgroundImageFix" result="effect1_dropShadow"/>
<feBlend mode="normal" in="SourceGraphic" in2="effect1_dropShadow" result="shape"/>
</filter>
<filter id="filter10_d" x="196.348" y="419.889" width="39.8672" height="39.8672" filterUnits="userSpaceOnUse" color-interpolation-filters="sRGB">
<feFlood flood-opacity="0" result="BackgroundImageFix"/>
<feColorMatrix in="SourceAlpha" type="matrix" values="0 0 0 0 0 0 0 0 0 0 0 0 0 0 0 0 0 0 127 0"/>
<feOffset dy="1"/>
<feGaussianBlur stdDeviation="1.5"/>
<feColorMatrix type="matrix" values="0 0 0 0 0.154167 0 0 0 0 0.143568 0 0 0 0 0.0481771 0 0 0 0.25 0"/>
<feBlend mode="normal" in2="BackgroundImageFix" result="effect1_dropShadow"/>
<feBlend mode="normal" in="SourceGraphic" in2="effect1_dropShadow" result="shape"/>
</filter>
</defs>
</svg>
