<svg width="74" height="74" viewBox="0 0 74 74" fill="none" xmlns="http://www.w3.org/2000/svg">
<g clip-path="url(#clip0)">
<path d="M41.8467 13.8452C38.3061 10.3048 33.599 8.35474 28.5918 8.35474C23.5848 8.35474 18.8775 10.3046 15.3369 13.8452C8.02834 21.1539 8.02834 33.0461 15.3369 40.3549C18.8775 43.8953 23.5847 45.8454 28.5918 45.8454C33.5989 45.8454 38.3061 43.8955 41.8467 40.3549C45.3871 36.8144 47.337 32.1071 47.337 27.1C47.337 22.093 45.3871 17.3858 41.8467 13.8452ZM16.8465 15.3548C19.9837 12.2176 24.155 10.4898 28.5917 10.4898C33.0284 10.4898 37.1996 12.2176 40.3368 15.3548C42.8129 17.8308 44.4101 20.9512 44.9736 24.3376L39.1549 30.0277C38.6038 29.7166 37.9685 29.5384 37.2919 29.5384C35.9748 29.5384 34.8122 30.2115 34.1293 31.2315L25.5769 28.548C25.5774 28.5232 25.5788 28.4985 25.5788 28.4737C25.5788 26.3761 23.8723 24.6695 21.7746 24.6695C19.677 24.6695 17.9704 26.3761 17.9704 28.4737C17.9704 29.1593 18.1536 29.8028 18.4725 30.3591L13.9852 35.0105C10.5803 28.7149 11.5332 20.6681 16.8465 15.3548ZM38.9614 33.3425C38.9614 34.2629 38.2124 35.0118 37.2921 35.0118C36.3717 35.0118 35.6227 34.2629 35.6227 33.3425C35.6227 32.4221 36.3717 31.6732 37.2921 31.6732C38.2124 31.6732 38.9614 32.422 38.9614 33.3425ZM23.4441 28.4734C23.4441 29.3938 22.6951 30.1427 21.7747 30.1427C20.8542 30.1427 20.1052 29.3938 20.1052 28.4734C20.1052 27.553 20.8542 26.804 21.7747 26.804C22.6951 26.8042 23.4441 27.553 23.4441 28.4734ZM40.3369 38.8454C37.1997 41.9826 33.0285 43.7105 28.5918 43.7105C24.1552 43.7105 19.9838 41.9827 16.8466 38.8454C16.2236 38.2223 15.6609 37.5612 15.1576 36.8701L20.0088 31.8414C20.537 32.1195 21.1376 32.2776 21.7747 32.2776C23.0918 32.2776 24.2545 31.6045 24.9374 30.5846L33.4897 33.2681C33.4893 33.2928 33.4879 33.3175 33.4879 33.3424C33.4879 35.44 35.1943 37.1466 37.2921 37.1466C39.3897 37.1466 41.0963 35.44 41.0963 33.3424C41.0963 32.696 40.9337 32.0871 40.6482 31.5535L45.2021 27.1003C45.202 31.537 43.4741 35.7082 40.3369 38.8454Z" fill="#FECC2F"/>
<path d="M19.1387 16.2105L20.5392 17.8217C23.8495 14.9444 28.4907 14.0573 32.6524 15.5068L33.3546 13.4907C28.4727 11.7902 23.0254 12.8324 19.1387 16.2105Z" fill="#FECC2F"/>
<path d="M36.095 14.7844L34.9844 16.6077C35.5494 16.9518 36.0916 17.3464 36.5961 17.7803L37.9883 16.1617C37.396 15.6523 36.7589 15.189 36.095 14.7844Z" fill="#FECC2F"/>
<path d="M31.1441 39.1128C28.7422 39.6191 26.2737 39.406 24.0048 38.4971L23.2109 40.4787C24.9313 41.168 26.7488 41.5163 28.5797 41.5163C29.582 41.5163 30.5883 41.4118 31.5845 41.2018L31.1441 39.1128Z" fill="#FECC2F"/>
<path d="M55.3316 44.2505L53.7816 45.8005L49.9362 41.6902C54.4875 35.0372 55.5832 26.7142 53.2222 19.2571L56.2731 16.2736C56.8097 16.5635 57.4234 16.7283 58.0751 16.7283C60.1727 16.7283 61.8793 15.0216 61.8793 12.924C61.8793 12.3028 61.7287 11.7165 61.4635 11.1979L68.0131 4.79327V8.10362H70.1479V1.18909H63.2336V3.32396H66.4621L59.999 9.64404C59.4341 9.31147 58.7768 9.11968 58.0752 9.11968C55.9776 9.11968 54.271 10.8263 54.271 12.9239C54.271 13.5951 54.4465 14.2258 54.7529 14.7739L52.4147 17.0604C51.1559 14.0628 49.3098 11.2554 46.8727 8.81833C36.792 -1.26231 20.3899 -1.26202 10.3093 8.81833C1.3294 17.7982 0.349044 31.7942 7.36735 41.8695L5.56996 43.7327C5.04184 43.4546 4.44117 43.2965 3.80407 43.2965C1.70648 43.2963 0 45.003 0 47.1005C0 49.1981 1.70648 50.9048 3.80421 50.9048C5.90195 50.9048 7.60843 49.1981 7.60843 47.1005C7.60843 46.4147 7.42516 45.7714 7.10618 45.2151L8.67652 43.5873C9.18816 44.2044 9.73131 44.8038 10.3091 45.3818C15.3495 50.422 21.9702 52.9421 28.5909 52.9421C33.6732 52.9421 38.755 51.4551 43.1224 48.485L46.9769 52.6052L45.3741 54.208L64.0424 72.8111L74.0002 62.8536L55.3316 44.2505ZM58.0752 11.2547C58.9956 11.2547 59.7446 12.0037 59.7446 12.924C59.7446 13.8444 58.9956 14.5934 58.0752 14.5934C57.1547 14.5934 56.4059 13.8444 56.4059 12.924C56.4059 12.0037 57.1547 11.2547 58.0752 11.2547ZM3.80421 48.7697C2.88384 48.7697 2.13488 48.0208 2.13488 47.1004C2.13488 46.18 2.88384 45.4311 3.80421 45.4311C4.72474 45.4311 5.47355 46.18 5.47355 47.1004C5.47341 48.0209 4.72459 48.7697 3.80421 48.7697ZM11.8188 43.8723C2.57064 34.6241 2.57064 19.5764 11.8188 10.328C16.4428 5.70382 22.5167 3.39204 28.5908 3.39204C34.6649 3.39204 40.739 5.70411 45.363 10.328C54.6111 19.5761 54.6111 34.624 45.363 43.8723C36.1151 53.1203 21.0666 53.1203 11.8188 43.8723ZM44.8479 47.2043C45.5467 46.6385 46.2229 46.0314 46.8727 45.3818C47.5006 44.7539 48.0891 44.1015 48.6386 43.4278L52.2714 47.3107L48.4874 51.0947L44.8479 47.2043ZM64.0399 69.7946L48.3961 54.2053L55.3345 47.2669L70.9783 62.8561L64.0399 69.7946Z" fill="#FECC2F"/>
<path d="M55.3322 50.3661L52.2773 53.4208L53.7871 54.9304L55.3322 53.3852L61.2241 59.2772L62.7336 57.7677L55.3322 50.3661Z" fill="#FECC2F"/>
<path d="M64.5643 59.5941L63.0547 61.1036L64.6368 62.6858L66.1464 61.1762L64.5643 59.5941Z" fill="#FECC2F"/>
<path d="M13.7013 54.0358H11.5664V56.3617H13.7013V54.0358Z" fill="#FECC2F"/>
<path d="M13.7013 67.0725H11.5664V69.3985H13.7013V67.0725Z" fill="#FECC2F"/>
<path d="M31.2853 58.5216H29.1504V60.8474H31.2853V58.5216Z" fill="#FECC2F"/>
<path d="M61.879 39.321H59.7441V41.647H61.879V39.321Z" fill="#FECC2F"/>
<path d="M64.3009 20.7961H62.166V23.1221H64.3009V20.7961Z" fill="#FECC2F"/>
<path d="M71.3771 30.6051H69.2422V32.931H71.3771V30.6051Z" fill="#FECC2F"/>
</g>
<defs>
<clipPath id="clip0">
<rect width="74" height="74" fill="white"/>
</clipPath>
</defs>
</svg>
