<svg width="81" height="81" viewBox="0 0 81 81" fill="none" xmlns="http://www.w3.org/2000/svg">
<path d="M51.6728 21.0507C53.8536 21.0507 55.6279 19.2764 55.6279 17.0956C55.6279 14.9148 53.8536 13.1404 51.6728 13.1404C49.492 13.1404 47.7177 14.9148 47.7177 17.0956C47.7177 17.9863 48.0139 18.809 48.5127 19.4709L42.0143 28.5519C41.6266 28.4245 41.2129 28.3546 40.7829 28.3546C39.7436 28.3546 38.7973 28.7582 38.0907 29.416L33.7593 26.9582C33.817 26.6898 33.848 26.4117 33.848 26.1265C33.848 23.9457 32.0738 22.1714 29.893 22.1714C27.7121 22.1714 25.9379 23.9457 25.9379 26.1265C25.9379 26.4117 25.9689 26.6898 26.0266 26.9582L21.6952 29.416C20.9887 28.7582 20.0423 28.3548 19.0031 28.3548C16.8222 28.3548 15.048 30.1292 15.048 32.31C15.048 34.4908 16.8222 36.2652 19.0031 36.2652C21.1839 36.2652 22.9581 34.4908 22.9581 32.31C22.9581 32.0248 22.9271 31.7467 22.8694 31.4783L27.2008 29.0205C27.9074 29.6783 28.8537 30.0819 29.893 30.0819C30.9322 30.0819 31.8784 29.6783 32.5851 29.0207L36.9165 31.4785C36.8588 31.7468 36.8278 32.0249 36.8278 32.3102C36.8278 34.491 38.602 36.2654 40.7829 36.2654C42.9639 36.2654 44.7381 34.491 44.7381 32.3102C44.7381 31.4193 44.4418 30.5965 43.943 29.9346L50.4413 20.8536C50.8289 20.9808 51.2428 21.0507 51.6728 21.0507ZM51.6728 15.5134C52.5451 15.5134 53.2548 16.2231 53.2548 17.0956C53.2548 17.9679 52.5451 18.6776 51.6728 18.6776C50.8004 18.6776 50.0908 17.9679 50.0908 17.0956C50.0906 16.2231 50.8003 15.5134 51.6728 15.5134ZM19.0026 33.8919C18.1302 33.8919 17.4205 33.1822 17.4205 32.3097C17.4205 31.4372 18.1302 30.7275 19.0026 30.7275C19.8749 30.7275 20.5846 31.4372 20.5846 32.3097C20.5846 33.1822 19.8749 33.8919 19.0026 33.8919ZM29.8926 27.7085C29.0203 27.7085 28.3106 26.9988 28.3106 26.1263C28.3106 25.254 29.0203 24.5443 29.8926 24.5443C30.765 24.5443 31.4747 25.254 31.4747 26.1263C31.4748 26.9988 30.765 27.7085 29.8926 27.7085ZM40.7827 33.8919C39.9104 33.8919 39.2007 33.1822 39.2007 32.3097C39.2007 31.4372 39.9104 30.7275 40.7827 30.7275C41.6552 30.7275 42.3649 31.4372 42.3649 32.3097C42.3649 33.1822 41.655 33.8919 40.7827 33.8919Z" fill="black"/>
<path d="M66.2548 59.6368H57.9514H12.724H3.35628C2.81412 59.6368 2.37305 59.1957 2.37305 58.6535V9.70247C2.37305 9.16031 2.81412 8.71924 3.35628 8.71924H8.94971C9.60499 8.71924 10.1362 8.18815 10.1362 7.53271C10.1362 6.87728 9.60499 6.34619 8.94971 6.34619H3.35628C1.50562 6.34619 0 7.85181 0 9.70247V58.6535C0 60.5042 1.50562 62.0098 3.35628 62.0098H11.5374V64.6211C11.5374 66.1087 12.7477 67.3189 14.2353 67.3189H26.1122L20.5213 78.2346C20.2226 78.8179 20.4531 79.5329 21.0364 79.8317C21.2095 79.9205 21.3943 79.9624 21.5764 79.9624C22.0075 79.9624 22.4234 79.7267 22.6333 79.3164L28.7784 67.3189H41.8969L48.042 79.3164C48.2521 79.7267 48.6679 79.9624 49.099 79.9624C49.2811 79.9624 49.4658 79.9201 49.6389 79.8317C50.2222 79.5329 50.4529 78.8179 50.154 78.2346L44.5631 67.3189H56.4401C57.9277 67.3189 59.1379 66.1088 59.1379 64.6211V62.0098H66.2548C66.9101 62.0098 67.4414 61.4787 67.4414 60.8233C67.4414 60.1678 66.9101 59.6368 66.2548 59.6368ZM56.7649 64.6211C56.7649 64.8002 56.6192 64.9459 56.4401 64.9459H14.2353C14.0562 64.9459 13.9105 64.8002 13.9105 64.6211V62.0098H56.7649V64.6211Z" fill="black"/>
<path d="M13.6958 8.71938H29.9388H40.7363H67.3189C67.8611 8.71938 68.3021 9.16045 68.3021 9.70261V20.9842C68.3021 21.6397 68.8334 22.1708 69.4887 22.1708C70.1439 22.1708 70.6752 21.6397 70.6752 20.9842V9.70261C70.6752 7.85195 69.1696 6.34633 67.3189 6.34633H41.923V4.0141C41.923 2.37275 40.5876 1.03735 38.9461 1.03735H31.7292C30.0879 1.03735 28.7523 2.37275 28.7523 4.0141V6.34633H13.6958C13.0405 6.34633 12.5093 6.87742 12.5093 7.53286C12.5093 8.18829 13.0405 8.71938 13.6958 8.71938ZM31.1254 4.0141C31.1254 3.68124 31.3962 3.4104 31.7292 3.4104H38.9461C39.279 3.4104 39.55 3.68124 39.55 4.0141V6.34633H31.1255V4.0141H31.1254Z" fill="black"/>
<path d="M16.5959 42.3312C15.9406 42.3312 15.4093 42.8623 15.4093 43.5177V54.0021C15.4093 54.6576 15.9406 55.1887 16.5959 55.1887H21.4095C22.0648 55.1887 22.596 54.6576 22.596 54.0021V43.5177C22.596 42.8623 22.0648 42.3312 21.4095 42.3312H16.5959ZM20.223 52.8158H17.7824V44.7044H20.223V52.8158Z" fill="black"/>
<path d="M27.4857 36.2677C26.8305 36.2677 26.2992 36.7988 26.2992 37.4542V54.0024C26.2992 54.6579 26.8305 55.1889 27.4857 55.1889H32.2994C32.9547 55.1889 33.4859 54.6579 33.4859 54.0024V37.4542C33.4859 36.7988 32.9547 36.2677 32.2994 36.2677H27.4857ZM31.113 52.8159H28.6724V38.6407H31.113V52.8159Z" fill="black"/>
<path d="M38.3758 42.3312C37.7205 42.3312 37.1893 42.8623 37.1893 43.5177V54.0021C37.1893 54.6576 37.7205 55.1887 38.3758 55.1887H43.1894C43.8447 55.1887 44.376 54.6576 44.376 54.0021V43.5177C44.376 42.8623 43.8447 42.3312 43.1894 42.3312H38.3758ZM42.0029 52.8158H39.5623V44.7044H42.0029V52.8158Z" fill="black"/>
<path d="M49.2659 49.3328C48.6107 49.3328 48.0794 49.8639 48.0794 50.5193V54.0024C48.0794 54.6579 48.6107 55.189 49.2659 55.189H54.0796C54.7349 55.189 55.2661 54.6579 55.2661 54.0024C55.2661 53.347 54.7349 52.8159 54.0796 52.8159H50.4525V50.5193C50.4525 49.8639 49.9212 49.3328 49.2659 49.3328Z" fill="black"/>
<path d="M80.3949 60.7531L73.5879 48.9628C75.3124 47.1246 76.5683 44.8786 77.239 42.3752C78.3112 38.3741 77.761 34.1949 75.6898 30.6074C71.4142 23.2015 61.9107 20.6555 54.5053 24.931C47.0996 29.2064 44.5533 38.7098 48.8289 46.1155C50.9001 49.7029 54.2444 52.2689 58.2455 53.3412C59.5817 53.6993 60.9373 53.8763 62.2844 53.8763C63.4618 53.8763 64.6323 53.7409 65.7771 53.4729L72.5826 65.2634C73.4169 66.7089 74.9359 67.5178 76.4961 67.5177C77.2607 67.5177 78.0353 67.3232 78.7439 66.9144C80.1354 66.1112 81 64.6135 81 63.0059C81 62.2182 80.7909 61.4393 80.3949 60.7531ZM58.8596 51.049C55.4708 50.1409 52.6381 47.9674 50.8838 44.9289C47.2626 38.6565 49.4193 30.6075 55.6916 26.986C57.7551 25.7948 60.0099 25.229 62.2371 25.229C66.7799 25.229 71.2045 27.5851 73.6345 31.794C75.3887 34.8324 75.8548 38.3721 74.9467 41.7611C74.0386 45.1501 71.865 47.9824 68.8266 49.7367C65.7883 51.4911 62.2487 51.9568 58.8596 51.049ZM77.5578 64.8591C76.5369 65.4485 75.227 65.0976 74.638 64.0772L68.0903 52.7334C68.7465 52.4656 69.3892 52.1523 70.0134 51.792C70.6382 51.4313 71.2299 51.0297 71.7901 50.595L78.3397 61.9393C78.5276 62.2653 78.627 62.6342 78.627 63.006C78.627 63.7682 78.2172 64.4784 77.5578 64.8591Z" fill="black"/>
<path d="M73.0173 41.7039C73.855 39.0056 73.6555 36.1168 72.4556 33.5698C72.1762 32.9768 71.4693 32.7228 70.8765 33.002C70.2836 33.2814 70.0295 33.9882 70.3089 34.581C71.2554 36.5902 71.4125 38.8697 70.7511 41.0001C70.086 43.1422 68.6492 44.9398 66.7054 46.0621C64.6484 47.2499 62.2518 47.5651 59.9577 46.9504C57.6634 46.3357 55.7457 44.8642 54.5582 42.8073C52.1065 38.5609 53.5667 33.1118 57.8131 30.6601C60.9178 28.8678 64.7708 29.1073 67.6297 31.2703C68.1524 31.6658 68.8965 31.5628 69.2918 31.0401C69.6872 30.5176 69.5842 29.7734 69.0615 29.378C65.44 26.6378 60.5588 26.3345 56.6264 28.6049C54.0205 30.1094 52.1564 32.5388 51.3775 35.4453C50.5987 38.3518 50.9985 41.3877 52.503 43.9936C54.0075 46.5997 56.4369 48.4636 59.3434 49.2426C60.3139 49.5027 61.2989 49.6313 62.2774 49.6313C64.2293 49.6313 66.1561 49.1194 67.8917 48.1172C70.3545 46.6956 72.1747 44.4181 73.0173 41.7039Z" fill="black"/>
</svg>
