<svg width="49" height="49" fill="none" xmlns="http://www.w3.org/2000/svg"><g clip-path="url(#clip0)" fill="#FECC2F"><path d="M48.37 3.333a.722.722 0 0 0-.49-.254l-10.663-.91-.194-1.537a.722.722 0 0 0-.806-.626l-9.892 1.243a.716.716 0 0 0-.12-.02L12.606.066a.728.728 0 0 0-.78.657l-.203 2.373L1.092 4.422a.729.729 0 0 0-.626.805l5.376 42.761c.025.195-.017.383.063.571A.728.728 0 0 0 6.57 49h35.4a.721.721 0 0 0 .722-.721v-.94l1.397.12a.729.729 0 0 0 .78-.658L48.538 3.86a.72.72 0 0 0-.167-.527zM5.849 36.465L1.988 5.763l3.86-.485v31.187zm7.355-34.9l6.315.54-6.43.809.115-1.348zm22.478-.038l.37 2.933H12.358L35.68 1.527zm7.813 44.432l-.801-.068V24.806a.721.721 0 1 0-1.444 0v22.75H7.291V5.904H41.25V21.44a.721.721 0 1 0 1.443 0V5.18a.721.721 0 0 0-.722-.721h-4.466l-.105-.828 9.639.824-3.545 41.503z"/><path d="M38.121 8.308h-3.848a.721.721 0 0 0-.6.32l-1.633 2.45a10.667 10.667 0 0 0-6.233-2 .721.721 0 0 0-.721.72v10.005c0 .399.323.722.721.722h10.005a.721.721 0 0 0 .722-.721c0-3.072-1.299-5.846-3.375-7.803l1.5-2.25h3.462a.721.721 0 1 0 0-1.443zm-3.058 10.774h-8.534v-8.534a9.23 9.23 0 0 1 4.71 1.733l-.645.966a.728.728 0 0 0 .136.952.728.728 0 0 0 1.065-.152l.55-.827a9.26 9.26 0 0 1 2.718 5.862z"/><path d="M38.122 32.165h-6.526l-1.15-1.84a10.69 10.69 0 0 0 3.01-7.443.721.721 0 0 0-.721-.721h-9.283v-9.284a.721.721 0 0 0-.722-.721c-5.914 0-10.726 4.812-10.726 10.726 0 5.915 4.812 10.726 10.726 10.726 2.5 0 4.803-.86 6.629-2.299l1.225 1.96c.132.211.363.34.612.34h6.926a.721.721 0 1 0 0-1.444zM27.96 26.348a.721.721 0 1 0-1.224.764l1.853 2.966a9.24 9.24 0 0 1-5.859 2.088c-5.119 0-9.283-4.165-9.283-9.284 0-4.876 3.779-8.886 8.562-9.255v9.255c0 .399.323.722.721.722h9.256a9.248 9.248 0 0 1-2.332 5.455l-1.694-2.711zm-11.386 9.665h-6.157a.721.721 0 1 0 0 1.443h6.157a.721.721 0 1 0 0-1.443zm9.234 0h-6.157a.721.721 0 1 0 0 1.443h6.157a.721.721 0 1 0 0-1.443zm-5.386 3.848H10.417a.721.721 0 1 0 0 1.443h10.005a.721.721 0 1 0 0-1.443zm5.386 0h-2.31a.721.721 0 1 0 0 1.443h2.31a.721.721 0 1 0 0-1.443zm-12.313 3.848h-3.078a.721.721 0 1 0 0 1.443h3.078a.721.721 0 1 0 0-1.443zm12.313 0h-9.235a.721.721 0 1 0 0 1.443h9.235a.721.721 0 1 0 0-1.443z"/></g><defs><clipPath id="clip0"><path fill="#fff" d="M0 0h49v49H0z"/></clipPath></defs></svg>