<svg width="154" height="154" viewBox="0 0 154 154" fill="none" xmlns="http://www.w3.org/2000/svg">
<g opacity="0.3" clip-path="url(#clip0_811_1861)">
<path d="M145.198 67.4836C148.939 51.105 138.695 34.7957 122.317 31.0545C105.939 27.3133 89.6292 37.5573 85.888 53.9359C82.1468 70.3144 92.3908 86.6235 108.769 90.3648C112.135 91.1336 115.491 91.2828 118.744 90.9378C103.327 127.689 67.8421 145.554 100.151 131.559C135.976 116.04 145.024 68.3974 145.188 67.5237C145.191 67.5103 145.195 67.4986 145.198 67.4836Z" fill="#F7D033"/>
<path d="M79.9569 52.5813C83.6982 36.2027 73.4542 19.8933 57.0756 16.1521C40.697 12.4109 24.3877 22.6549 20.6465 39.0334C16.9052 55.412 27.1495 71.7212 43.5281 75.4624C46.8944 76.2313 50.2502 76.3805 53.5027 76.0354C38.0862 112.786 2.60081 130.651 34.9094 116.657C70.735 101.138 79.783 53.4951 79.9462 52.6214C79.9493 52.6079 79.9535 52.5962 79.9569 52.5813Z" fill="#F7D033"/>
</g>
<defs>
<clipPath id="clip0_811_1861">
<rect width="127.786" height="127.786" fill="white" transform="translate(125.479 153.935) rotate(-167.133)"/>
</clipPath>
</defs>
</svg>
