<svg width="343" height="202" viewBox="0 0 343 202" fill="none" xmlns="http://www.w3.org/2000/svg">
<mask id="mask0" mask-type="alpha" maskUnits="userSpaceOnUse" x="0" y="0" width="343" height="202">
<rect width="343" height="202" rx="2" fill="#1F1F1F"/>
</mask>
<g mask="url(#mask0)">
<line x1="388.195" y1="155.132" x2="-29.8284" y2="195.213" stroke="#FECC2F"/>
<line x1="386.97" y1="142.357" x2="-31.0533" y2="182.438" stroke="#FECC2F" stroke-width="2"/>
<line x1="385.745" y1="129.583" x2="-32.2781" y2="169.663" stroke="#FECC2F" stroke-width="3"/>
<line x1="384.52" y1="116.808" x2="-33.5031" y2="156.889" stroke="#FECC2F" stroke-width="4"/>
<line x1="383.295" y1="104.033" x2="-34.7278" y2="144.114" stroke="#FECC2F" stroke-width="5"/>
<line x1="382.071" y1="91.2583" x2="-35.9528" y2="131.339" stroke="#FECC2F" stroke-width="6"/>
<line x1="380.846" y1="78.4835" x2="-37.1775" y2="118.564" stroke="#FECC2F" stroke-width="7"/>
<line x1="379.621" y1="65.7088" x2="-38.4025" y2="105.79" stroke="#FECC2F" stroke-width="8"/>
<line x1="378.396" y1="52.934" x2="-39.6273" y2="93.0148" stroke="#FECC2F" stroke-width="9"/>
<line x1="377.171" y1="40.1593" x2="-40.8522" y2="80.2401" stroke="#FECC2F" stroke-width="10"/>
<line x1="375.946" y1="27.3846" x2="-42.077" y2="67.4653" stroke="#FECC2F" stroke-width="11"/>
<line x1="374.721" y1="14.6098" x2="-43.302" y2="54.6906" stroke="#FECC2F" stroke-width="12"/>
<line x1="373.496" y1="1.83507" x2="-44.5269" y2="41.9158" stroke="#FECC2F" stroke-width="13"/>
</g>
</svg>
