<svg width="82" height="82" viewBox="0 0 82 82" fill="none" xmlns="http://www.w3.org/2000/svg">
<path d="M65.7348 70.5485L62.7103 61.4738C61.6534 58.3057 58.9569 55.9671 55.6699 55.3688L46.9389 53.7801V53.1034C48.4583 52.2215 49.7804 51.0418 50.8334 49.6452H53.4711C55.632 49.6452 57.3905 47.8867 57.3905 45.7259V30.0484C57.3905 20.6838 49.7712 13.0646 40.4066 13.0646C31.042 13.0646 23.4227 20.6838 23.4227 30.0484V39.1936C23.4227 41.7124 25.2139 43.8198 27.589 44.311C28.3219 48.0657 30.6683 51.243 33.8743 53.1034V53.7801L25.142 55.3688C21.8563 55.9671 19.1585 58.3057 18.1029 61.4738L17.5803 63.0429L13.1305 58.5931C12.621 58.0836 12.621 57.254 13.1305 56.7445L18.291 51.5853L8.60495 41.8993L2.77295 47.7313C1.04582 49.4584 0.0947266 51.7551 0.0947266 54.1982C0.0947266 56.6413 1.04582 58.9367 2.77295 60.6638L20.4296 78.3205C22.1568 80.0477 24.4535 81.0001 26.8966 81.0001C29.3396 81.0001 31.6351 80.0477 33.3217 78.3597L39.6854 72.529L37.7009 70.5485H65.7348ZM54.7776 45.7259C54.7776 46.447 54.191 47.0323 53.4711 47.0323H52.3724C52.7513 46.1688 53.0387 45.2582 53.2242 44.311C53.7834 44.1947 54.2981 43.9726 54.7776 43.693V45.7259ZM53.4711 41.4433V36.9439C54.2485 37.3972 54.7776 38.2308 54.7776 39.1936C54.7776 40.1565 54.2485 40.99 53.4711 41.4433ZM27.3421 41.4433C26.5647 40.99 26.0356 40.1565 26.0356 39.1936C26.0356 38.2308 26.5647 37.3972 27.3421 36.9439V41.4433ZM27.3421 32.6614V34.1533C26.877 34.2748 26.4406 34.4577 26.0356 34.6942V30.0484C26.0356 22.1248 32.483 15.6775 40.4066 15.6775C48.3302 15.6775 54.7776 22.1248 54.7776 30.0484V34.6942C54.3726 34.4577 53.9362 34.2735 53.4711 34.1533V32.6614H52.1647C48.3015 32.6614 44.6695 31.1563 41.9365 28.4245L40.4066 26.8947L38.8767 28.4245C36.1436 31.1563 32.5117 32.6614 28.6485 32.6614H27.3421ZM29.955 41.8065V35.2246C33.8783 34.9293 37.5363 33.3107 40.4066 30.5815C43.2769 33.3107 46.9349 34.9307 50.8582 35.2246V41.8065C50.8582 43.7113 50.3382 45.4933 49.4446 47.0323H40.4066V49.6452H47.2968C45.4547 51.2665 43.0469 52.2581 40.4066 52.2581C34.6438 52.2581 29.955 47.5693 29.955 41.8065ZM44.326 54.2688V54.3302L40.4066 58.2495L36.4872 54.3302V54.2688C37.7258 54.6581 39.0414 54.871 40.4066 54.871C41.7718 54.871 43.0874 54.6581 44.326 54.2688ZM20.5799 62.2995C21.3337 60.0367 23.2607 58.3658 25.6084 57.9373L34.7405 56.2781L40.4066 61.9442L46.0714 56.2794L55.2022 57.9386C57.5499 58.3671 59.4769 60.0367 60.2307 62.3008L62.1107 67.9355H35.088L29.9994 62.8469L24.3451 67.9617C23.8525 68.4568 22.9916 68.4568 22.4978 67.9617L19.6445 65.1084L20.5799 62.2995ZM8.60365 45.5939L14.595 51.5853L13.1762 53.0041L7.18484 47.0127L8.60365 45.5939ZM31.5123 76.4758C30.279 77.7065 28.6381 78.3872 26.894 78.3872C25.1499 78.3872 23.509 77.7065 22.2744 76.4732L4.61766 58.8178C3.38437 57.5845 2.70502 55.9436 2.70502 54.1995C2.70502 52.4541 3.38437 50.8132 4.61766 49.5799L5.33621 48.8614L11.3276 54.8527L11.2806 54.8998C9.75332 56.4283 9.75332 58.9145 11.2806 60.443L20.6491 69.8116C21.3899 70.5511 22.3736 70.96 23.4214 70.96C24.4692 70.96 25.453 70.5524 26.1454 69.8573L26.2434 69.7698L32.2622 75.7886L31.5123 76.4758ZM34.1905 74.0197L28.1847 68.0139L29.9106 66.454L35.9059 72.4493L34.1905 74.0197Z" fill="black"/>
<path d="M76.9872 0H58.6969C56.536 0 54.7776 1.75848 54.7776 3.91935V14.371C54.7776 16.5318 56.536 18.2903 58.6969 18.2903H62.1864L60.8356 26.1695L73.4428 18.2903H76.9872C79.1481 18.2903 80.9066 16.5318 80.9066 14.371V3.91935C80.9066 1.75848 79.1481 0 76.9872 0ZM78.2937 14.371C78.2937 15.0908 77.7071 15.6774 76.9872 15.6774H72.6929L64.3957 20.8627L65.2853 15.6774H58.6969C57.9771 15.6774 57.3905 15.0908 57.3905 14.371V3.91935C57.3905 3.1995 57.9771 2.6129 58.6969 2.6129H76.9872C77.7071 2.6129 78.2937 3.1995 78.2937 3.91935V14.371Z" fill="black"/>
<path d="M75.6808 5.22583H60.0034V7.83873H75.6808V5.22583Z" fill="black"/>
<path d="M70.455 10.4517H60.0034V13.0646H70.455V10.4517Z" fill="black"/>
<path d="M75.6808 10.4517H73.0679V13.0646H75.6808V10.4517Z" fill="black"/>
<path d="M40.4066 3.91931C23.3365 3.91931 8.63238 15.727 4.8097 32.1975L2.33398 28.0704L0.0934143 29.4147L4.68559 37.0666L12.3375 32.4744L10.9931 30.2339L7.45266 32.3582C11.1551 17.2908 24.7043 6.53221 40.4066 6.53221C43.8386 6.53221 47.225 7.04173 50.4715 8.0477L51.2449 5.55238C47.7475 4.46802 44.1012 3.91931 40.4066 3.91931Z" fill="black"/>
<path d="M80.2717 28.9275L72.6198 24.3353L68.0289 31.9885L70.2695 33.3329L72.5558 29.5219C73.759 33.0428 74.3744 36.7257 74.3744 40.5001C74.3744 48.2695 71.6831 55.8652 66.7982 61.8867L68.8272 63.5328C74.0896 57.0476 76.9873 48.8666 76.9873 40.5001C76.9873 36.5036 76.3432 32.6012 75.0877 28.8648L78.9273 31.1681L80.2717 28.9275Z" fill="black"/>
</svg>
