<svg width="51" height="51" fill="none" xmlns="http://www.w3.org/2000/svg"><g clip-path="url(#clip0)" fill="#000"><path d="M47.786 4.482H42.99a.756.756 0 0 0 0 1.512h4.796c.938 0 1.702.764 1.702 1.703v11.535c0 .939-.764 1.703-1.702 1.703H30.113c-.2 0-.392.08-.535.221l-4.352 4.353V21.69a.756.756 0 0 0-.756-.756h-1.44a1.705 1.705 0 0 1-1.702-1.703V7.697c0-.94.764-1.703 1.703-1.703h17.44a.756.756 0 0 0 0-1.512h-17.44a3.218 3.218 0 0 0-3.215 3.215v11.535a3.218 3.218 0 0 0 3.215 3.214h.683v4.887a.756.756 0 0 0 1.29.535l5.422-5.422h17.36A3.218 3.218 0 0 0 51 19.232V7.697a3.218 3.218 0 0 0-3.214-3.215z"/><path d="M27.32 14.178c.897-.614 2.012-1.378 2.012-2.683 0-.62-.25-1.148-.725-1.527-.42-.336-.997-.529-1.586-.529-1.087 0-2.243.669-2.243 1.907 0 .547.23.813.704.813.533 0 .821-.297.821-.576 0-.462.265-.727.727-.727.545 0 .738.37.738.688 0 .587-.692 1.095-1.425 1.633-.828.607-1.683 1.235-1.683 2.057v.957c0 .297.405.486.683.486h3.513c.254 0 .476-.324.476-.693 0-.359-.222-.674-.476-.674h-2.573v-.076c0-.346.481-.675 1.038-1.056zm6.194 2.499c.538 0 .782-.252.782-.486v-1.033h.412c.246 0 .486-.358.486-.723 0-.497-.252-.723-.486-.723h-.411v-.678c0-.22-.205-.477-.783-.477-.577 0-.782.257-.782.477v.678h-.815l1.737-3.485a.498.498 0 0 0 .05-.193c0-.161-.102-.316-.29-.435a1.003 1.003 0 0 0-.491-.16.707.707 0 0 0-.653.402l-2.28 4.47a.64.64 0 0 0-.08.301c0 .327.212.546.526.546h2.296v1.033c0 .234.245.486.782.486zm5.898-7.387l-3.463 7.113a.453.453 0 0 0-.05.193c0 .259.227.535.565.535.198 0 .385-.104.455-.253l3.473-7.114a.44.44 0 0 0 .041-.193c0-.32-.307-.536-.595-.536a.448.448 0 0 0-.426.254zm2.645 2.651c.43 0 .793-.222.793-.486v-.649h1.74v.675l-2.425 4.2a.517.517 0 0 0-.07.263c0 .467.52.792.989.792.222 0 .368-.07.445-.214l2.309-4.42c.074-.14.317-.62.317-.943V9.925c0-.212-.331-.486-.684-.486H41.97c-.345 0-.684.241-.684.486v1.53c0 .268.347.486.773.486zM31.255 30.723a2.068 2.068 0 0 0-1.473-.61c-.555 0-1.079.217-1.471.61l-4.62 4.62c-1.84-.962-3.44-1.878-5.229-3.386a.756.756 0 0 0-.974 1.155c2.066 1.741 3.863 2.724 5.998 3.828a.756.756 0 0 0 .882-.137l2.485-2.485 8.194 8.194c-2.646 2.272-6.394 3.063-10.65 2.226-4.786-.94-9.85-3.887-14.26-8.297S2.779 26.965 1.838 22.18c-.836-4.256-.045-8.004 2.226-10.65l8.195 8.194-2.486 2.486a.756.756 0 0 0-.136.882c1.505 2.91 2.719 5.045 5.76 8.088a.756.756 0 0 0 1.07-1.07c-2.727-2.726-3.87-4.615-5.233-7.223l4.62-4.62c.393-.393.61-.916.61-1.472 0-.556-.217-1.079-.61-1.472l-7.41-7.41a2.067 2.067 0 0 0-1.471-.61c-.556 0-1.08.217-1.472.61L3.509 9.905C.478 12.936-.642 17.4.355 22.471 1.353 27.55 4.448 32.89 9.068 37.51c4.62 4.62 9.96 7.714 15.038 8.712 1.208.238 2.382.356 3.51.355 3.607 0 6.747-1.2 9.056-3.509l1.99-1.991c.394-.394.61-.916.61-1.472 0-.556-.216-1.08-.61-1.472l-7.407-7.409zM6.57 8.983a.567.567 0 0 1 .806 0l7.41 7.409a.567.567 0 0 1 0 .806l-1.458 1.457-8.216-8.216L6.57 8.982zm31.024 31.024l-1.457 1.457-8.215-8.215 1.457-1.457a.566.566 0 0 1 .806 0l7.41 7.408a.571.571 0 0 1 0 .807z"/></g><defs><clipPath id="clip0"><path fill="#fff" d="M0 0h51v51H0z"/></clipPath></defs></svg>