<svg width="20" height="22" viewBox="0 0 20 22" fill="none" xmlns="http://www.w3.org/2000/svg">
<path d="M0.351841 1.40786H2.8156V0.351966C2.8156 0.157329 2.97293 0 3.16757 0H5.63133C5.82597 0 5.98329 0.157329 5.98329 0.351966V1.40786H13.7265V0.351966C13.7265 0.157329 13.8839 0 14.0785 0H16.5423C16.7369 0 16.8942 0.157329 16.8942 0.351966V1.40786H19.358C19.5526 1.40786 19.71 1.56519 19.71 1.75983V5.63145V20.766C19.71 20.9606 19.5526 21.1179 19.358 21.1179H0.351841C0.157204 21.1179 -0.000123978 20.9606 -0.000123978 20.766V5.63145V1.75983C-0.000123978 1.56519 0.157204 1.40786 0.351841 1.40786ZM5.27936 0.703932H3.51953V1.75983V2.81573H5.27936V1.75983V0.703932ZM16.1903 0.703932H14.4305V1.75983V2.81573H16.1903V1.75983V0.703932ZM19.006 2.11179H16.8942V3.16769C16.8942 3.36233 16.7369 3.51966 16.5423 3.51966H14.0785C13.8839 3.51966 13.7265 3.36233 13.7265 3.16769V2.11179H5.98329V3.16769C5.98329 3.36233 5.82597 3.51966 5.63133 3.51966H3.16757C2.97293 3.51966 2.8156 3.36233 2.8156 3.16769V2.11179H0.703808V5.27949H19.006V2.11179ZM19.006 20.414V5.98342H0.703808V20.414H19.006Z" fill="#C4C4C4"/>
<path d="M7.0394 8.09521H9.50316H10.2071H12.6709H13.3748H16.5425V11.2629V11.9668V14.4306V15.1345V18.3022H13.3748H12.6709H10.2071H9.50316H7.0394H6.33547H3.16778V15.1345V14.4306V11.9668V11.2629V8.09521H6.33547H7.0394ZM9.50316 8.79915H7.0394V11.2629H9.50316V8.79915ZM7.0394 14.4306H9.50316V11.9668H7.0394V14.4306ZM12.6709 11.9668H10.2071V14.4306H12.6709V11.9668ZM12.6709 8.79915H10.2071V11.2629H12.6709V8.79915ZM15.8385 8.79915H13.3748V11.2629H15.8385V8.79915ZM15.8385 11.9668H13.3748V14.4306H15.8385V11.9668ZM13.3748 17.5983H15.8385V15.1345H13.3748V17.5983ZM10.2071 17.5983H12.6709V15.1345H10.2071V17.5983ZM7.0394 17.5983H9.50316V15.1345H7.0394V17.5983ZM3.87171 17.5983H6.33547V15.1345H3.87171V17.5983ZM3.87171 14.4306H6.33547V11.9668H3.87171V14.4306ZM3.87171 8.79915V11.2629H6.33547V8.79915H3.87171Z" fill="#C4C4C4"/>
</svg>
