<svg width="16" height="63" viewBox="0 0 16 63" fill="none" xmlns="http://www.w3.org/2000/svg">
<path d="M7.64644 61.3536C7.84171 61.5488 8.15829 61.5488 8.35355 61.3536L11.5355 58.1716C11.7308 57.9763 11.7308 57.6597 11.5355 57.4645C11.3403 57.2692 11.0237 57.2692 10.8284 57.4645L8 60.2929L5.17157 57.4645C4.97631 57.2692 4.65973 57.2692 4.46446 57.4645C4.2692 57.6597 4.2692 57.9763 4.46446 58.1716L7.64644 61.3536ZM7.5 1L7.5 3.5L8.5 3.5L8.5 1L7.5 1ZM7.5 8.5L7.5 13.5L8.5 13.5L8.5 8.5L7.5 8.5ZM7.5 18.5L7.5 23.5L8.5 23.5L8.5 18.5L7.5 18.5ZM7.5 28.5L7.5 33.5L8.5 33.5L8.5 28.5L7.5 28.5ZM7.5 38.5L7.5 43.5L8.5 43.5L8.5 38.5L7.5 38.5ZM7.5 48.5L7.5 53.5L8.5 53.5L8.5 48.5L7.5 48.5ZM7.5 58.5L7.5 61L8.5 61L8.5 58.5L7.5 58.5ZM7.29289 61.7071C7.68341 62.0976 8.31658 62.0976 8.7071 61.7071L15.0711 55.3431C15.4616 54.9526 15.4616 54.3195 15.0711 53.9289C14.6805 53.5384 14.0474 53.5384 13.6569 53.9289L8 59.5858L2.34314 53.9289C1.95262 53.5384 1.31945 53.5384 0.928929 53.9289C0.538405 54.3195 0.538405 54.9526 0.928929 55.3431L7.29289 61.7071ZM7 1L7 3.5L9 3.5L9 1L7 1ZM7 8.5L7 13.5L9 13.5L9 8.5L7 8.5ZM7 18.5L7 23.5L9 23.5L9 18.5L7 18.5ZM7 28.5L7 33.5L9 33.5L9 28.5L7 28.5ZM7 38.5L7 43.5L9 43.5L9 38.5L7 38.5ZM7 48.5L7 53.5L9 53.5L9 48.5L7 48.5ZM7 58.5L7 61L9 61L9 58.5L7 58.5Z" fill="#E7B518"/>
</svg>
