<svg width="54" height="54" viewBox="0 0 54 54" fill="none" xmlns="http://www.w3.org/2000/svg">
<path d="M46.1723 0.259753C45.7635 -0.111567 45.1311 -0.081162 44.7598 0.327665L38.7087 6.98989C38.3374 7.39872 38.3678 8.03115 38.7767 8.40247C39.1855 8.77379 39.8179 8.74339 40.1892 8.33456L45.5679 2.41258L51.4899 7.79126C51.8987 8.16258 52.5312 8.13217 52.9025 7.72335C53.2738 7.31452 53.2434 6.68209 52.8346 6.31076L46.1723 0.259753ZM0 54C0.476497 54 0.962527 54 1.45631 53.999L1.45239 51.999C0.960883 52 0.476793 52 0 52V54ZM4.3852 53.9758C5.34682 53.9606 6.33089 53.9357 7.33166 53.895L7.25037 51.8966C6.26953 51.9365 5.30237 51.961 4.35348 51.9761L4.3852 53.9758ZM10.275 53.7271C11.2491 53.6542 12.234 53.5616 13.2251 53.4442L12.9899 51.4581C12.0304 51.5718 11.0743 51.6616 10.1257 51.7327L10.275 53.7271ZM16.1621 53.0208C17.1349 52.8539 18.1098 52.6583 19.0825 52.4291L18.6238 50.4824C17.6942 50.7014 16.7596 50.889 15.8238 51.0496L16.1621 53.0208ZM21.9644 51.6437C22.913 51.3478 23.8557 51.0145 24.7881 50.639L24.0411 48.7838C23.1614 49.138 22.2695 49.4535 21.3689 49.7344L21.9644 51.6437ZM27.5243 49.3947C28.4103 48.9423 29.2825 48.4453 30.1371 47.8993L29.0602 46.2139C28.262 46.7239 27.4458 47.1892 26.6147 47.6135L27.5243 49.3947ZM32.5964 46.1473C33.3726 45.5326 34.1287 44.8701 34.8616 44.1562L33.466 42.7236C32.7828 43.3891 32.0781 44.0066 31.3547 44.5795L32.5964 46.1473ZM36.9102 41.9485C37.5414 41.1964 38.1496 40.3982 38.7325 39.5514L37.0851 38.4174C36.5379 39.2124 35.9681 39.9599 35.3782 40.6629L36.9102 41.9485ZM40.3252 37C40.8047 36.1518 41.2616 35.2624 41.6942 34.33L39.8799 33.4883C39.4693 34.3735 39.0367 35.2152 38.5842 36.0157L40.3252 37ZM42.8526 31.5733C43.1953 30.6701 43.5175 29.7315 43.8181 28.7561L41.9068 28.1672C41.6183 29.1032 41.3099 30.0016 40.9827 30.8639L42.8526 31.5733ZM44.6098 25.8972C44.8405 24.9648 45.0531 24.0022 45.2469 23.0084L43.2839 22.6256C43.0962 23.5878 42.8908 24.5179 42.6684 25.4169L44.6098 25.8972ZM45.7467 20.0955C45.8889 19.1434 46.015 18.165 46.1245 17.1596L44.1363 16.943C44.0295 17.923 43.9068 18.8751 43.7687 19.8003L45.7467 20.0955ZM46.3929 14.198C46.4624 13.2461 46.518 12.2717 46.5592 11.2743L44.5609 11.1917C44.5205 12.1687 44.4661 13.1221 44.3982 14.0524L46.3929 14.198ZM46.6379 8.33877C46.6503 7.36992 46.6499 6.38069 46.6364 5.37063L44.6365 5.39741C44.6498 6.39052 44.6502 7.36231 44.6381 8.31324L46.6379 8.33877ZM46.5626 2.45319C46.5444 1.95754 46.5231 1.45715 46.4988 0.951979L44.5012 1.04802C44.5251 1.5458 44.546 2.0387 44.564 2.52675L46.5626 2.45319Z" fill="black"/>
</svg>
