<svg width="43" height="43" viewBox="0 0 43 43" fill="none" xmlns="http://www.w3.org/2000/svg">
<g clip-path="url(#clip0)">
<mask id="path-1-outside-1" maskUnits="userSpaceOnUse" x="-0.706177" y="4.62695" width="44" height="39" fill="black">
<rect fill="white" x="-0.706177" y="4.62695" width="44" height="39"/>
<path d="M42.7061 19.6935C42.7061 19.3458 42.4239 19.0636 42.0762 19.0636H26.7481V13.8151C26.7481 13.4671 26.4661 13.1852 26.1182 13.1852H21.919H20.8702V10.876C20.8702 10.1671 20.7316 9.47932 20.4578 8.83264C20.1933 8.20779 19.8145 7.64594 19.3324 7.16387C18.8512 6.6818 18.2893 6.30387 17.6646 6.03932C17.017 5.76544 16.33 5.62695 15.6212 5.62695C14.9124 5.62695 14.2254 5.76544 13.5779 6.03932C13.5612 6.04637 13.545 6.05443 13.5283 6.06174C13.5117 6.05443 13.4955 6.04637 13.4788 6.03932C12.8321 5.76544 12.145 5.62695 11.4363 5.62695C10.7275 5.62695 10.0396 5.76544 9.39294 6.03932C8.7681 6.30378 8.20624 6.68171 7.72417 7.16387C7.2421 7.64594 6.86417 8.20695 6.59962 8.83264C6.32575 9.47932 6.18726 10.1671 6.18726 10.876V13.1852H0.923706C0.575843 13.1852 0.293823 13.4671 0.293823 13.8151V13.8153V13.8154V42.3693C0.293823 42.7172 0.575843 42.9992 0.923706 42.9992H21.9028C21.9082 42.9993 21.9135 43 21.919 43H26.1182H26.1183H26.1183H42.0762C42.4231 43 42.7061 42.7178 42.7061 42.3701C42.7061 42.3642 42.7053 42.3584 42.7052 42.3526C42.7053 42.3466 42.7061 42.3408 42.7061 42.3348V19.6935ZM15.6211 6.88588C16.6861 6.88672 17.6879 7.30152 18.4422 8.05494C19.1955 8.80904 19.6104 9.81097 19.6104 10.876V13.1852H16.6852V10.876C16.6852 10.1671 16.5458 9.47932 16.272 8.83264C16.0082 8.20695 15.6295 7.64594 15.1474 7.16387C15.073 7.08946 14.996 7.01841 14.9179 6.94895C15.1479 6.90813 15.3828 6.88605 15.6211 6.88588ZM13.5285 7.47898C13.7894 7.64039 14.034 7.83247 14.2564 8.05494C15.0097 8.80904 15.4246 9.81097 15.4255 10.876V13.1852H11.6319V10.876C11.6319 9.81097 12.0467 8.80912 12.8001 8.05494C13.0227 7.83255 13.2674 7.64039 13.5285 7.47898ZM8.61516 8.05494C9.36926 7.30152 10.3713 6.88672 11.4362 6.88588C11.6745 6.88605 11.9095 6.90813 12.1393 6.94895C12.0612 7.01832 11.9842 7.08946 11.9099 7.16387C11.4278 7.64594 11.049 8.20695 10.7846 8.83264C10.5116 9.47932 10.3722 10.1671 10.3722 10.876V13.1852H7.44702V10.876H7.44694C7.44694 9.81097 7.86174 8.80912 8.61516 8.05494ZM21.2891 41.7394H1.55359V14.445H6.18717V18.8545C6.18717 19.2013 6.46936 19.4835 6.81706 19.4835C7.16391 19.4835 7.44694 19.2013 7.44694 18.8545V14.445H10.9955C10.9977 14.445 10.9999 14.4453 11.002 14.4453C11.0042 14.4453 11.0063 14.445 11.0085 14.445H15.4255V18.8545C15.4255 19.2013 15.7076 19.4835 16.0553 19.4835C16.4022 19.4835 16.6852 19.2013 16.6852 18.8545V14.445H20.2338C20.236 14.445 20.2381 14.4453 20.2403 14.4453C20.2425 14.4453 20.2446 14.445 20.2467 14.445H21.2891V41.7394ZM25.4883 41.7402H22.5488V14.445H25.4883V41.7402ZM37.2471 41.7402H26.7481V27.0004C27.1785 26.9445 27.5973 26.8326 27.9988 26.6625C28.5741 26.4198 29.0906 26.0713 29.534 25.6278C29.9773 25.1845 30.3251 24.6679 30.5686 24.0927C30.8205 23.4981 30.9483 22.8648 30.9483 22.2131C30.9483 21.8653 30.6661 21.5832 30.3184 21.5832C29.9716 21.5832 29.6885 21.8653 29.6885 22.2131C29.6885 23.1655 29.3173 24.0616 28.6438 24.7368C28.1196 25.2603 27.462 25.6002 26.7481 25.7265V20.3234H37.2471V41.7402ZM41.4463 41.7402H38.5069V20.3234H41.4463V41.7402Z"/>
</mask>
<path d="M42.7061 19.6935C42.7061 19.3458 42.4239 19.0636 42.0762 19.0636H26.7481V13.8151C26.7481 13.4671 26.4661 13.1852 26.1182 13.1852H21.919H20.8702V10.876C20.8702 10.1671 20.7316 9.47932 20.4578 8.83264C20.1933 8.20779 19.8145 7.64594 19.3324 7.16387C18.8512 6.6818 18.2893 6.30387 17.6646 6.03932C17.017 5.76544 16.33 5.62695 15.6212 5.62695C14.9124 5.62695 14.2254 5.76544 13.5779 6.03932C13.5612 6.04637 13.545 6.05443 13.5283 6.06174C13.5117 6.05443 13.4955 6.04637 13.4788 6.03932C12.8321 5.76544 12.145 5.62695 11.4363 5.62695C10.7275 5.62695 10.0396 5.76544 9.39294 6.03932C8.7681 6.30378 8.20624 6.68171 7.72417 7.16387C7.2421 7.64594 6.86417 8.20695 6.59962 8.83264C6.32575 9.47932 6.18726 10.1671 6.18726 10.876V13.1852H0.923706C0.575843 13.1852 0.293823 13.4671 0.293823 13.8151V13.8153V13.8154V42.3693C0.293823 42.7172 0.575843 42.9992 0.923706 42.9992H21.9028C21.9082 42.9993 21.9135 43 21.919 43H26.1182H26.1183H26.1183H42.0762C42.4231 43 42.7061 42.7178 42.7061 42.3701C42.7061 42.3642 42.7053 42.3584 42.7052 42.3526C42.7053 42.3466 42.7061 42.3408 42.7061 42.3348V19.6935ZM15.6211 6.88588C16.6861 6.88672 17.6879 7.30152 18.4422 8.05494C19.1955 8.80904 19.6104 9.81097 19.6104 10.876V13.1852H16.6852V10.876C16.6852 10.1671 16.5458 9.47932 16.272 8.83264C16.0082 8.20695 15.6295 7.64594 15.1474 7.16387C15.073 7.08946 14.996 7.01841 14.9179 6.94895C15.1479 6.90813 15.3828 6.88605 15.6211 6.88588ZM13.5285 7.47898C13.7894 7.64039 14.034 7.83247 14.2564 8.05494C15.0097 8.80904 15.4246 9.81097 15.4255 10.876V13.1852H11.6319V10.876C11.6319 9.81097 12.0467 8.80912 12.8001 8.05494C13.0227 7.83255 13.2674 7.64039 13.5285 7.47898ZM8.61516 8.05494C9.36926 7.30152 10.3713 6.88672 11.4362 6.88588C11.6745 6.88605 11.9095 6.90813 12.1393 6.94895C12.0612 7.01832 11.9842 7.08946 11.9099 7.16387C11.4278 7.64594 11.049 8.20695 10.7846 8.83264C10.5116 9.47932 10.3722 10.1671 10.3722 10.876V13.1852H7.44702V10.876H7.44694C7.44694 9.81097 7.86174 8.80912 8.61516 8.05494ZM21.2891 41.7394H1.55359V14.445H6.18717V18.8545C6.18717 19.2013 6.46936 19.4835 6.81706 19.4835C7.16391 19.4835 7.44694 19.2013 7.44694 18.8545V14.445H10.9955C10.9977 14.445 10.9999 14.4453 11.002 14.4453C11.0042 14.4453 11.0063 14.445 11.0085 14.445H15.4255V18.8545C15.4255 19.2013 15.7076 19.4835 16.0553 19.4835C16.4022 19.4835 16.6852 19.2013 16.6852 18.8545V14.445H20.2338C20.236 14.445 20.2381 14.4453 20.2403 14.4453C20.2425 14.4453 20.2446 14.445 20.2467 14.445H21.2891V41.7394ZM25.4883 41.7402H22.5488V14.445H25.4883V41.7402ZM37.2471 41.7402H26.7481V27.0004C27.1785 26.9445 27.5973 26.8326 27.9988 26.6625C28.5741 26.4198 29.0906 26.0713 29.534 25.6278C29.9773 25.1845 30.3251 24.6679 30.5686 24.0927C30.8205 23.4981 30.9483 22.8648 30.9483 22.2131C30.9483 21.8653 30.6661 21.5832 30.3184 21.5832C29.9716 21.5832 29.6885 21.8653 29.6885 22.2131C29.6885 23.1655 29.3173 24.0616 28.6438 24.7368C28.1196 25.2603 27.462 25.6002 26.7481 25.7265V20.3234H37.2471V41.7402ZM41.4463 41.7402H38.5069V20.3234H41.4463V41.7402Z" fill="#FECC2F"/>
<path d="M42.7061 19.6935C42.7061 19.3458 42.4239 19.0636 42.0762 19.0636H26.7481V13.8151C26.7481 13.4671 26.4661 13.1852 26.1182 13.1852H21.919H20.8702V10.876C20.8702 10.1671 20.7316 9.47932 20.4578 8.83264C20.1933 8.20779 19.8145 7.64594 19.3324 7.16387C18.8512 6.6818 18.2893 6.30387 17.6646 6.03932C17.017 5.76544 16.33 5.62695 15.6212 5.62695C14.9124 5.62695 14.2254 5.76544 13.5779 6.03932C13.5612 6.04637 13.545 6.05443 13.5283 6.06174C13.5117 6.05443 13.4955 6.04637 13.4788 6.03932C12.8321 5.76544 12.145 5.62695 11.4363 5.62695C10.7275 5.62695 10.0396 5.76544 9.39294 6.03932C8.7681 6.30378 8.20624 6.68171 7.72417 7.16387C7.2421 7.64594 6.86417 8.20695 6.59962 8.83264C6.32575 9.47932 6.18726 10.1671 6.18726 10.876V13.1852H0.923706C0.575843 13.1852 0.293823 13.4671 0.293823 13.8151V13.8153V13.8154V42.3693C0.293823 42.7172 0.575843 42.9992 0.923706 42.9992H21.9028C21.9082 42.9993 21.9135 43 21.919 43H26.1182H26.1183H26.1183H42.0762C42.4231 43 42.7061 42.7178 42.7061 42.3701C42.7061 42.3642 42.7053 42.3584 42.7052 42.3526C42.7053 42.3466 42.7061 42.3408 42.7061 42.3348V19.6935ZM15.6211 6.88588C16.6861 6.88672 17.6879 7.30152 18.4422 8.05494C19.1955 8.80904 19.6104 9.81097 19.6104 10.876V13.1852H16.6852V10.876C16.6852 10.1671 16.5458 9.47932 16.272 8.83264C16.0082 8.20695 15.6295 7.64594 15.1474 7.16387C15.073 7.08946 14.996 7.01841 14.9179 6.94895C15.1479 6.90813 15.3828 6.88605 15.6211 6.88588ZM13.5285 7.47898C13.7894 7.64039 14.034 7.83247 14.2564 8.05494C15.0097 8.80904 15.4246 9.81097 15.4255 10.876V13.1852H11.6319V10.876C11.6319 9.81097 12.0467 8.80912 12.8001 8.05494C13.0227 7.83255 13.2674 7.64039 13.5285 7.47898ZM8.61516 8.05494C9.36926 7.30152 10.3713 6.88672 11.4362 6.88588C11.6745 6.88605 11.9095 6.90813 12.1393 6.94895C12.0612 7.01832 11.9842 7.08946 11.9099 7.16387C11.4278 7.64594 11.049 8.20695 10.7846 8.83264C10.5116 9.47932 10.3722 10.1671 10.3722 10.876V13.1852H7.44702V10.876H7.44694C7.44694 9.81097 7.86174 8.80912 8.61516 8.05494ZM21.2891 41.7394H1.55359V14.445H6.18717V18.8545C6.18717 19.2013 6.46936 19.4835 6.81706 19.4835C7.16391 19.4835 7.44694 19.2013 7.44694 18.8545V14.445H10.9955C10.9977 14.445 10.9999 14.4453 11.002 14.4453C11.0042 14.4453 11.0063 14.445 11.0085 14.445H15.4255V18.8545C15.4255 19.2013 15.7076 19.4835 16.0553 19.4835C16.4022 19.4835 16.6852 19.2013 16.6852 18.8545V14.445H20.2338C20.236 14.445 20.2381 14.4453 20.2403 14.4453C20.2425 14.4453 20.2446 14.445 20.2467 14.445H21.2891V41.7394ZM25.4883 41.7402H22.5488V14.445H25.4883V41.7402ZM37.2471 41.7402H26.7481V27.0004C27.1785 26.9445 27.5973 26.8326 27.9988 26.6625C28.5741 26.4198 29.0906 26.0713 29.534 25.6278C29.9773 25.1845 30.3251 24.6679 30.5686 24.0927C30.8205 23.4981 30.9483 22.8648 30.9483 22.2131C30.9483 21.8653 30.6661 21.5832 30.3184 21.5832C29.9716 21.5832 29.6885 21.8653 29.6885 22.2131C29.6885 23.1655 29.3173 24.0616 28.6438 24.7368C28.1196 25.2603 27.462 25.6002 26.7481 25.7265V20.3234H37.2471V41.7402ZM41.4463 41.7402H38.5069V20.3234H41.4463V41.7402Z" stroke="#FECC2F" stroke-width="0.4" mask="url(#path-1-outside-1)"/>
<path d="M33.2583 2.41978C32.1612 2.41978 31.2687 3.31228 31.2687 4.40942C31.2687 5.50656 32.1612 6.39907 33.2583 6.39907C34.3554 6.39907 35.248 5.50656 35.248 4.40942C35.248 3.31228 34.3554 2.41978 33.2583 2.41978ZM33.2583 4.93931C32.9662 4.93931 32.7284 4.70155 32.7284 4.40942C32.7284 4.11729 32.9662 3.87954 33.2583 3.87954C33.5504 3.87954 33.7882 4.11729 33.7882 4.40942C33.7882 4.70155 33.5504 4.93931 33.2583 4.93931Z" fill="#FECC2F" stroke="#FECC2F" stroke-width="0.2"/>
<path d="M38.2974 7.45884C37.2002 7.45884 36.3077 8.35135 36.3077 9.44849C36.3077 10.5456 37.2002 11.4381 38.2974 11.4381C39.3945 11.4381 40.287 10.5456 40.287 9.44849C40.287 8.35135 39.3945 7.45884 38.2974 7.45884ZM38.2974 9.97837C38.0052 9.97837 37.7675 9.74062 37.7675 9.44849C37.7675 9.15636 38.0052 8.9186 38.2974 8.9186C38.5895 8.9186 38.8272 9.15636 38.8272 9.44849C38.8272 9.74062 38.5895 9.97837 38.2974 9.97837Z" fill="#FECC2F" stroke="#FECC2F" stroke-width="0.2"/>
<path d="M40.0733 2.63349L40.0733 2.63347C39.7881 2.34854 39.3261 2.34854 39.041 2.63347L39.041 2.63349L31.4822 10.1922L31.4822 10.1922C31.1972 10.4773 31.1972 10.9394 31.4822 11.2245L31.4822 11.2245C31.6248 11.367 31.8118 11.4382 31.9984 11.4382C32.1849 11.4382 32.372 11.367 32.5145 11.2245L32.5145 11.2245L40.0733 3.66574L40.0733 3.66573C40.3583 3.38061 40.3583 2.91854 40.0733 2.63349Z" fill="#FECC2F" stroke="#FECC2F" stroke-width="0.2"/>
<path d="M28.836 12.734L28.836 12.734C28.8336 12.7294 28.8317 12.7253 28.8306 12.7229L28.8289 12.7193C28.7885 12.6406 28.7616 12.5535 28.7522 12.461C28.7495 12.4344 28.7483 12.408 28.7485 12.3819V7.34863C28.7485 6.94562 29.0754 6.61875 29.4784 6.61875C29.8813 6.61875 30.2083 6.94562 30.2083 7.34863V11.9495L35.7772 14.9199L41.3462 11.9495V1.35977H30.2083V4.8291C30.2083 5.2311 29.8814 5.55898 29.4784 5.55898C29.0753 5.55898 28.7485 5.23109 28.7485 4.8291V0.839844C28.7485 0.80323 28.7518 0.768159 28.7567 0.734863C28.7518 0.701568 28.7485 0.666497 28.7485 0.629883C28.7485 0.226875 29.0754 -0.1 29.4784 -0.1H42.0761C42.479 -0.1 42.806 0.226866 42.806 0.629883V12.3879C42.806 12.3906 42.8058 12.3931 42.8058 12.3947C42.8057 12.3958 42.8056 12.3965 42.8056 12.3965C42.8056 12.3974 42.8058 12.3948 42.8058 12.3916C42.8058 12.3949 42.8056 12.3977 42.8055 12.3995L42.8054 12.4012C42.8033 12.5139 42.7754 12.6205 42.7275 12.7152L42.7254 12.7197C42.7242 12.7223 42.7223 12.7265 42.7198 12.7312L42.7195 12.7317C42.7136 12.7429 42.706 12.7548 42.7029 12.76C42.6983 12.7677 42.6902 12.7818 42.6819 12.7943L42.6808 12.796L42.6808 12.7959C42.6787 12.7989 42.6767 12.8015 42.676 12.8025C42.6759 12.8025 42.6759 12.8026 42.6759 12.8026L42.6757 12.8028C42.6748 12.804 42.6756 12.803 42.6766 12.8016L42.5945 12.7445C42.5392 12.8253 42.4647 12.8945 42.3725 12.9438L28.836 12.734ZM28.836 12.734L28.8371 12.736L28.8415 12.7432C28.8416 12.7434 28.8417 12.7436 28.8417 12.7437L28.836 12.734ZM42.6353 12.6764C42.6361 12.6746 42.637 12.6728 42.6378 12.671L42.6171 12.7086C42.6189 12.7056 42.6207 12.7027 42.6225 12.6998C42.6256 12.6947 42.6286 12.6897 42.6314 12.6845C42.6328 12.6818 42.634 12.6791 42.6353 12.6764Z" fill="#FECC2F" stroke="#FECC2F" stroke-width="0.2"/>
</g>
<defs>
<clipPath id="clip0">
<rect width="43" height="43" fill="white"/>
</clipPath>
</defs>
</svg>
