<svg width="82" height="82" viewBox="0 0 82 82" fill="none" xmlns="http://www.w3.org/2000/svg">
<path d="M8.96875 47.4065H11.5312V49.969H8.96875V47.4065Z" fill="black"/>
<path d="M2.5625 52.5315H5.125V55.094H2.5625V52.5315Z" fill="black"/>
<path d="M7.6875 15.3752H23.0625V17.9377H7.6875V15.3752Z" fill="black"/>
<path d="M2.5625 15.3752H5.125V17.9377H2.5625V15.3752Z" fill="black"/>
<path d="M10.25 20.5002H12.8125V23.0627H10.25V20.5002Z" fill="black"/>
<path d="M71.2798 33.5536C74.9403 38.2981 76.875 43.9741 76.875 49.969C76.875 64.8046 64.8056 76.8753 49.9688 76.8753C36.5771 76.8753 25.1176 66.8854 23.3098 53.6398C23.2239 53.0043 22.682 52.5315 22.0413 52.5315H7.6875V55.094H20.9446C23.3943 69.0494 35.6777 79.4378 49.9688 79.4378C66.2176 79.4378 79.4375 66.2191 79.4375 49.969C79.4375 43.4026 77.3183 37.1834 73.308 31.9867L71.2798 33.5536Z" fill="black"/>
<path d="M26.9062 49.969C26.9062 62.6854 37.2523 73.0315 49.9688 73.0315C62.6852 73.0315 73.0312 62.6854 73.0312 49.969C73.0312 40.4314 67.2105 32.2262 58.9349 28.7207L63.6871 23.9686C63.928 23.729 64.0625 23.4036 64.0625 23.0627V3.84399H64.051C64.051 3.67871 64.0317 3.51215 63.9651 3.35328C63.7665 2.87409 63.2989 2.56274 62.7812 2.56274H37.1562C36.8167 2.56274 36.49 2.69728 36.2504 2.93815L31.1267 8.06187C30.8935 8.29378 30.75 8.61409 30.75 8.96899V20.5002H15.375V23.0627H30.75V27.6419C24.9216 32.6631 21.2739 39.7741 20.6102 47.4065H14.0938V49.969H21.8094C22.4949 49.969 23.0587 49.4296 23.0894 48.7454C23.4225 41.3001 26.8691 34.3032 32.554 29.469H39.451C32.0146 33.3012 26.9062 41.0425 26.9062 49.969ZM58.9375 25.0948V9.49943L61.5 6.93693V22.5323L58.9375 25.0948ZM57.1258 7.68774H47.9367L50.4992 5.12524H59.6883L57.1258 7.68774ZM37.6867 5.12524H46.8758L44.3133 7.68774H35.1242L37.6867 5.12524ZM33.3125 26.9065V10.2502H43.5625V16.6565H46.125V10.2502H56.375V26.9065H33.3125ZM38.6348 32.9015L41.164 37.2808L43.3831 35.9995L40.8603 31.6292C43.246 30.4389 45.8892 29.7073 48.6875 29.5331V34.594H51.25V29.5343C54.0482 29.7086 56.6915 30.4415 59.0772 31.6305L56.548 36.0098L58.7671 37.291L61.3014 32.9015C63.5718 34.4146 65.5231 36.3647 67.035 38.6351L62.6442 41.1694L63.9254 43.3885L68.306 40.8593C69.495 43.245 70.2279 45.8882 70.4021 48.6865H65.3438V51.249H70.4034C70.2292 54.0472 69.4963 56.6904 68.3073 59.0761L63.9267 56.5469L62.6454 58.7661L67.0363 61.3004C65.5231 63.5707 63.5731 65.5221 61.3027 67.034L58.7684 62.6444L56.5493 63.9257L59.0784 68.305C56.6927 69.494 54.0508 70.2268 51.2526 70.4011V65.344H48.6901V70.4036C45.8918 70.2294 43.2486 69.4965 40.8629 68.3075L43.3857 63.9372L41.1666 62.6559L38.6374 67.0352C36.367 65.5234 34.4157 63.572 32.9038 61.3017L37.2946 58.7673L36.0134 56.5482L31.6328 59.0774C30.4438 56.6917 29.7109 54.0485 29.5367 51.2502H34.5938V48.6877H29.5341C29.7083 45.8895 30.4412 43.2463 31.6302 40.8606L36.0108 43.3898L37.2921 41.1707L32.9012 38.6363C34.4144 36.366 36.3657 34.4146 38.6348 32.9015Z" fill="black"/>
<path d="M49.9688 55.094C52.7952 55.094 55.0938 52.7954 55.0938 49.969C55.0938 49.0209 54.8183 48.1445 54.3673 47.3821L59.8433 41.9061L58.0317 40.0944L52.5569 45.5705C51.7933 45.1195 50.9169 44.844 49.9688 44.844C47.1423 44.844 44.8438 47.1426 44.8438 49.969C44.8438 52.7954 47.1423 55.094 49.9688 55.094ZM49.9688 47.4065C51.382 47.4065 52.5313 48.5558 52.5313 49.969C52.5313 51.3822 51.382 52.5315 49.9688 52.5315C48.5555 52.5315 47.4063 51.3822 47.4063 49.969C47.4063 48.5558 48.5555 47.4065 49.9688 47.4065Z" fill="black"/>
<path d="M66.9905 29.0979L68.8025 27.2859L71.3646 29.848L69.5526 31.66L66.9905 29.0979Z" fill="black"/>
</svg>
