<svg width="53" height="53" viewBox="0 0 53 53" fill="none" xmlns="http://www.w3.org/2000/svg">
<path d="M3.53333 44.1808H5.3V42.4141H3.53333C2.55747 42.4141 1.76667 41.6233 1.76667 40.6474V5.31409C1.76667 4.33823 2.55747 3.54743 3.53333 3.54743H42.4C43.3759 3.54743 44.1667 4.33823 44.1667 5.31409V7.08076H45.9333V5.31409C45.9333 3.36281 44.3513 1.78076 42.4 1.78076H3.53333C1.58205 1.78076 0 3.36281 0 5.31409V40.6474C0 42.5987 1.58205 44.1808 3.53333 44.1808Z" fill="#FECC2F"/>
<path d="M3.53467 5.31396H5.30133V7.08063H3.53467V5.31396Z" fill="#FECC2F"/>
<path d="M7.06641 5.31396H8.83308V7.08063H7.06641V5.31396Z" fill="#FECC2F"/>
<path d="M10.6011 5.31396H12.3677V7.08063H10.6011V5.31396Z" fill="#FECC2F"/>
<path d="M7.06641 47.7143C7.06641 49.6656 8.64846 51.2477 10.5997 51.2477H49.4664C51.4177 51.2477 52.9997 49.6656 52.9997 47.7143V12.381C52.9997 10.4297 51.4177 8.84766 49.4664 8.84766H10.5997C8.64846 8.84766 7.06641 10.4297 7.06641 12.381V47.7143ZM8.83307 12.381C8.83307 11.4051 9.62388 10.6143 10.5997 10.6143H49.4664C50.4423 10.6143 51.2331 11.4051 51.2331 12.381V47.7143C51.2331 48.6902 50.4423 49.481 49.4664 49.481H10.5997C9.62388 49.481 8.83307 48.6902 8.83307 47.7143V12.381Z" fill="#FECC2F"/>
<path d="M10.6011 12.3809H12.3677V14.1475H10.6011V12.3809Z" fill="#FECC2F"/>
<path d="M14.1328 12.3809H15.8995V14.1475H14.1328V12.3809Z" fill="#FECC2F"/>
<path d="M17.6675 12.3809H19.4341V14.1475H17.6675V12.3809Z" fill="#FECC2F"/>
<path d="M10.6011 15.9141H49.4677V17.6807H10.6011V15.9141Z" fill="#FECC2F"/>
<path d="M10.6011 20.3306H17.6677V22.0972H10.6011V20.3306Z" fill="#FECC2F"/>
<path d="M10.6011 23.8643H15.9011V25.6309H10.6011V23.8643Z" fill="#FECC2F"/>
<path d="M30.0344 27.3975C26.6192 27.3975 23.8511 30.1656 23.8511 33.5808C23.8511 36.996 26.6192 39.7641 30.0344 39.7641C33.4496 39.7641 36.2177 36.996 36.2177 33.5808C36.2137 30.1676 33.4476 27.4014 30.0344 27.3975ZM30.0344 37.9974C27.5953 37.9974 25.6177 36.0199 25.6177 33.5808C25.6177 31.1417 27.5953 29.1641 30.0344 29.1641C32.4735 29.1641 34.4511 31.1417 34.4511 33.5808C34.448 36.0188 32.4724 37.9943 30.0344 37.9974Z" fill="#FECC2F"/>
<path d="M44.1656 30.9306C44.1656 30.4426 43.7703 30.0473 43.2823 30.0473H40.9476C40.7606 29.4669 40.5274 28.9022 40.2489 28.3601L41.8998 26.7103C42.2443 26.3651 42.2443 25.8062 41.8998 25.461L38.1519 21.713C37.8067 21.3685 37.2478 21.3685 36.9026 21.713L35.2528 23.3631C34.7097 23.0857 34.1455 22.8525 33.5656 22.6652V20.3306C33.5656 19.8426 33.1703 19.4473 32.6823 19.4473H27.3823C26.8942 19.4473 26.4989 19.8426 26.4989 20.3306V22.6652C25.919 22.8525 25.3548 23.0857 24.8118 23.3631L23.1619 21.713C22.8168 21.3685 22.2578 21.3685 21.9127 21.713L18.1647 25.461C17.8202 25.8062 17.8202 26.3651 18.1647 26.7103L19.8147 28.3601C19.741 28.5047 19.6699 28.6498 19.6027 28.7965C19.4164 29.2037 19.2543 29.6211 19.1169 30.0473H16.7823C16.2942 30.0473 15.8989 30.4426 15.8989 30.9306V36.2306C15.8989 36.7186 16.2942 37.1139 16.7823 37.1139H19.1169C19.304 37.6943 19.5372 38.259 19.8156 38.8011L18.1647 40.4509C17.8202 40.7961 17.8202 41.355 18.1647 41.7002L21.9127 45.4482C22.2578 45.7927 22.8168 45.7927 23.1619 45.4482L24.8118 43.7981C25.3548 44.0755 25.919 44.3087 26.4989 44.4959V46.8306C26.4989 47.3186 26.8942 47.7139 27.3823 47.7139H32.6823C33.1703 47.7139 33.5656 47.3186 33.5656 46.8306V44.4959C34.1455 44.3087 34.7097 44.0755 35.2528 43.7981L36.9026 45.4482C37.2478 45.7927 37.8067 45.7927 38.1519 45.4482L41.8998 41.7002C42.2443 41.355 42.2443 40.7961 41.8998 40.4509L40.2489 38.8011C40.5274 38.259 40.7606 37.6943 40.9476 37.1139H43.2823C43.7703 37.1139 44.1656 36.7186 44.1656 36.2306V30.9306ZM42.3989 35.3473H40.2842C39.8814 35.3473 39.5299 35.62 39.4292 36.0098C39.2035 36.8865 38.8557 37.7278 38.3957 38.5078C38.1909 38.8545 38.2473 39.2962 38.5317 39.5811L40.0252 41.0755L37.5271 43.5746L36.0327 42.08C35.7476 41.7952 35.306 41.7391 34.9591 41.944C34.1791 42.404 33.3381 42.752 32.4614 42.9775C32.0717 43.0782 31.7989 43.4298 31.7989 43.8326V45.9473H28.2656V43.8326C28.2656 43.4298 27.9929 43.0782 27.6031 42.9775C26.7264 42.752 25.8855 42.404 25.1055 41.944C24.7585 41.7391 24.3169 41.7952 24.0318 42.08L22.5374 43.5746L20.0393 41.0755L21.5328 39.5811C21.8173 39.2962 21.8736 38.8545 21.6689 38.5078C21.2089 37.7278 20.8611 36.8865 20.6354 36.0098C20.5347 35.62 20.1831 35.3473 19.7803 35.3473H17.6656V31.8139H19.7803C20.1831 31.8139 20.5347 31.5412 20.6354 31.1514C20.778 30.5954 20.9704 30.0539 21.2097 29.5325C21.3478 29.2302 21.501 28.9354 21.6689 28.6492C21.8729 28.3022 21.817 27.8612 21.5328 27.5766L20.0393 26.0822L22.5374 23.583L24.0318 25.0781C24.3169 25.3629 24.7585 25.4186 25.1055 25.2134C25.8855 24.7539 26.7264 24.4054 27.6031 24.1799C27.9929 24.0795 28.2656 23.7275 28.2656 23.3253V21.2139H31.7989V23.3286C31.7989 23.7314 32.0717 24.083 32.4614 24.1837C33.3381 24.4092 34.1791 24.7572 34.9591 25.2172C35.306 25.4221 35.7476 25.366 36.0327 25.0812L37.5271 23.5866L40.0252 26.0857L38.5317 27.5801C38.2473 27.865 38.1909 28.3067 38.3957 28.6534C38.8557 29.4333 39.2035 30.2747 39.4292 31.1514C39.5299 31.5412 39.8814 31.8139 40.2842 31.8139H42.3989V35.3473Z" fill="#FECC2F"/>
<path d="M44.1675 45.9473H49.4675V47.7139H44.1675V45.9473Z" fill="#FECC2F"/>
</svg>
