<svg width="53" height="53" fill="none" xmlns="http://www.w3.org/2000/svg"><g clip-path="url(#clip0)" fill="#000"><path d="M8.126 45.635a7.251 7.251 0 0 0 6.457 3.92H23c5.364-.005 9.71-4.352 9.717-9.716v-4.417a.848.848 0 0 0-.035-.176v-6.007a3.533 3.533 0 0 0-5.51-2.927 3.517 3.517 0 0 0-5.3-1.767 3.49 3.49 0 0 0-5.09-1.882v-2.346a6.979 6.979 0 0 0 3.533-6.095 7.067 7.067 0 0 0-14.134 0 6.979 6.979 0 0 0 3.534 6.095v14.164l-3.568-2.753a3.82 3.82 0 0 0-5.229 5.516l7.207 8.39zm-.177-31.413a5.3 5.3 0 0 1 10.6 0 5.247 5.247 0 0 1-1.766 3.955v-3.072a3.533 3.533 0 0 0-7.067 0v3.072a5.247 5.247 0 0 1-1.767-3.955zm-5.585 19.08a2.056 2.056 0 0 1 2.705-.176l4.647 3.587v1.36a.883.883 0 0 0 1.766 0V15.105a1.767 1.767 0 0 1 3.534 0v15.017a.883.883 0 0 0 1.767 0v-4.416a1.767 1.767 0 1 1 3.533 0v4.416a.883.883 0 0 0 1.767 0v-2.65a1.767 1.767 0 1 1 3.533 0v2.65a.883.883 0 0 0 1.767 0v-.883a1.767 1.767 0 0 1 3.533 0v9.717c.005.06.017.12.036.176v.707a7.96 7.96 0 0 1-7.95 7.95h-8.42a5.483 5.483 0 0 1-4.924-3.045.877.877 0 0 0-.12-.176l-7.279-8.474a2.066 2.066 0 0 1 .105-2.792z"/><path d="M23.853 13.339a.883.883 0 1 1-1.767 0 .883.883 0 0 1 1.767 0zm3.531 0a.883.883 0 1 1-1.767 0 .883.883 0 0 1 1.767 0zm3.531 0a.883.883 0 1 1-1.766 0 .883.883 0 0 1 1.766 0zm12.368-9.717a9.717 9.717 0 0 0-9.717 9.717c0 5.366 4.35 9.716 9.717 9.716 5.367 0 9.717-4.35 9.717-9.716-.006-5.364-4.353-9.71-9.717-9.717zm0 17.667a7.95 7.95 0 1 1 0-15.9 7.95 7.95 0 0 1 7.95 7.95 7.96 7.96 0 0 1-7.95 7.95z"/><path d="M47.025 9.233l-5.472 6.428-2.064-2.063a.883.883 0 0 0-1.249 1.249l2.072 2.07c.654.65 1.696.69 2.399.094a.852.852 0 0 0 .098-.1l5.565-6.536a.885.885 0 1 0-1.346-1.148l-.003.006z"/></g><defs><clipPath id="clip0"><path fill="#fff" d="M0 0h53v53H0z"/></clipPath></defs></svg>