<svg xmlns="http://www.w3.org/2000/svg" width="96" height="78" fill="none"><rect width="94" height="12.298" x="1" y="64.525" stroke="#000" stroke-width="2" rx="3"/><path stroke="#000" stroke-width="2" d="M22.98 64.55c-.68-2.9-2.04-8.94 2.55-12.77 3.07-2.55 8.68-3.06 9.2-7.15 1.2-9.7 3.06-18.9 16.84-20.94 0 6.1 0 15.8 2.56 17.35 1.53-3.58 2.04-8.17 7.15-9.2 0 4.6 0 9.7 1.53 11.75 1.55 2.05 11.17 5 9.2 9.7-2.54 6.14-2.03 9.2 0 11.25"/><path fill-rule="evenodd" d="M78.66 44.12C78.13 27.65 64.6 14.46 48 14.46s-30.13 13.2-30.66 29.66h-2C15.87 26.54 30.3 12.46 48 12.46c17.7 0 32.13 14.08 32.67 31.66h-2zm12.27-.18C90.2 20.86 71.25 2.4 48 2.4 24.74 2.4 5.8 20.85 5.06 43.93h-2C3.8 19.76 23.64.4 48 .4s44.2 19.36 44.94 43.54h-2z" clip-rule="evenodd"/><path stroke="#000" stroke-width="2" d="M48 .72v12.76M4.06 44.1h12.3v20.47H4.06zm75.58 0h12.3v20.47h-12.3zm2.06-27.55l-9.2 8.68m-49 0l-9.2-8.68"/></svg>