<svg width="51" height="51" viewBox="0 0 51 51" fill="none" xmlns="http://www.w3.org/2000/svg">
<g clip-path="url(#clip0_811_2376)">
<path d="M24.5859 20.5725C21.8745 21.0392 20.0469 23.6176 20.5121 26.3201C21.9012 32.7755 31.1969 31.1735 30.3468 24.6272C29.8817 21.9247 27.2974 20.1058 24.5859 20.5725ZM25.8357 27.8336C24.5301 28.0584 23.2855 27.1825 23.0615 25.8813C22.6525 22.728 27.1293 21.9583 27.7975 25.066C28.0215 26.3673 27.1415 27.6089 25.8357 27.8336Z" fill="#F7D033"/>
<path d="M46.9399 21.279C46.686 20.8714 44.3393 17.2045 40.2139 13.9756C35.4348 10.2276 29.8548 8.31635 23.8968 8.9472L23.5652 7.02089C23.2078 5.34672 20.7925 5.76377 21.0158 7.45972L21.3438 9.36519C11.4561 11.3879 5.45578 21.0469 3.75259 28.7181C3.68225 29.0446 3.7417 29.3854 3.91834 29.6688C8.08492 36.2022 16.9527 43.2375 26.9614 42.0005L27.2743 43.818C27.6318 45.4922 30.047 45.0752 29.8237 43.3792L29.5144 41.5827C39.403 39.5604 45.4025 29.9017 47.1057 22.2296C47.176 21.9032 47.1165 21.5623 46.9399 21.279ZM26.768 33.2478C22.4668 33.9882 18.3671 31.103 17.6292 26.8161C16.282 16.4287 31.0287 13.8934 33.2301 24.1307C33.9681 28.4175 31.0691 32.5074 26.768 33.2478ZM19.0423 38.6388C13.878 37.1457 8.5395 32.0736 6.40395 28.745C6.72886 27.4771 7.70371 24.205 9.81176 20.8518C12.8287 16.0527 16.8519 13.0489 21.7816 11.9084L22.3922 15.4557C17.802 16.84 14.7138 21.1972 14.9397 25.9708L9.96218 26.8276C8.28249 27.1859 8.69814 29.593 10.3996 29.3687L15.3771 28.5119C16.7603 33.0864 21.1276 36.1603 25.9165 35.93L26.5229 39.4526C23.9766 39.6946 21.4665 39.4236 19.0423 38.6388ZM41.0471 30.0959C38.0303 34.8953 34.0069 37.8991 29.0766 39.0394L28.4659 35.4914C33.0568 34.1076 36.1458 29.75 35.9197 24.9759L40.8978 24.119C42.5775 23.7607 42.1618 21.3536 40.4604 21.5779L35.4823 22.4348C34.099 17.8598 29.7309 14.7858 24.9415 15.0167L24.3353 11.495C29.5766 10.9924 34.4005 12.7052 38.6153 16.0045C41.7384 18.4489 43.729 21.1371 44.4544 22.2028C44.1294 23.4709 43.1547 26.7431 41.0471 30.0959Z" fill="#212121"/>
</g>
<defs>
<clipPath id="clip0_811_2376">
<rect width="44.0114" height="44.0114" fill="white" transform="translate(0 7.46582) rotate(-9.76678)"/>
</clipPath>
</defs>
</svg>
