<svg width="60" height="60" viewBox="0 0 60 60" fill="none" xmlns="http://www.w3.org/2000/svg">
<rect width="60" height="60" fill="white"/>
<g>
<path d="M29.6855 29.4834C30.3674 29.3584 31.0239 29.8116 31.1488 30.4936L33.6224 30.0405C33.3271 28.4282 32.0412 27.2429 30.5081 26.9959L30.2426 25.5464L27.769 25.9995L28.0345 27.4491C26.6885 28.2233 25.9063 29.7875 26.2016 31.3998C26.5764 33.4457 28.5458 34.8053 30.5917 34.4306C31.2737 34.3056 31.9301 34.7588 32.055 35.4408C32.18 36.1228 31.7268 36.7792 31.0448 36.9042C30.3628 37.0291 29.7064 36.5759 29.5814 35.8939L27.1078 36.347C27.4032 37.9594 28.6891 39.1446 30.2221 39.3916L30.4877 40.8411L32.9612 40.388L32.6957 38.9385C34.0417 38.1642 34.824 36.6 34.5286 34.9877C34.1539 32.9418 32.1845 31.5822 30.1386 31.957C29.4566 32.0819 28.8001 31.6287 28.6752 30.9467C28.5503 30.2647 29.0035 29.6083 29.6855 29.4834Z" fill="#F7D033"/>
<path d="M31.9929 20.752L35.6336 20.0851C37.6795 19.7104 39.6489 21.07 40.0237 23.1159L42.4973 22.6628C41.8727 19.2529 38.5904 16.9869 35.1805 17.6115L32.2127 18.1552L33.7575 12.6312L19.9042 15.1688L24.3221 21.1646C24.9513 25.1263 23.2506 27.5929 21.2865 30.4378C19.2537 33.3824 16.9497 36.7198 17.8931 41.8701C18.5177 45.28 21.7999 47.546 25.2098 46.9213L40.0514 44.2027C43.4613 43.5781 45.7272 40.2958 45.1026 36.8859C44.1592 31.7357 40.8218 29.4316 37.8773 27.3988C35.2724 25.6006 32.9866 24.0203 31.9929 20.752ZM30.2517 15.83L29.4606 18.6593L28.9965 18.7443L26.5229 19.1974L26.0589 19.2824L24.3162 16.9172L30.2517 15.83ZM39.5983 41.7291L24.7567 44.4477C22.7108 44.8225 20.7414 43.4629 20.3667 41.417C19.6109 37.2913 21.3464 34.7774 23.3561 31.8665C25.2199 29.1667 27.3113 26.1363 26.919 21.6815L29.5068 21.2074C30.719 25.5121 33.7488 27.6044 36.4486 29.4683C39.3594 31.4778 41.8733 33.2133 42.629 37.339C43.0038 39.385 41.6442 41.3543 39.5983 41.7291Z" fill="#2E2E2E"/>
</g>
</svg>
