<svg width="59" height="59" viewBox="0 0 59 59" fill="none" xmlns="http://www.w3.org/2000/svg">
<path d="M34.9869 10.4814L36.4012 8.7645C37.039 7.99036 37.3266 6.97249 37.1892 5.97191C36.7591 2.82624 32.7977 1.75353 30.7756 4.20756L25.5936 10.4641H23.4619C22.5376 10.4641 21.6999 10.8373 21.0922 11.4415C20.6 10.9735 19.9356 10.6848 19.2032 10.6848H15.7739C14.4186 10.6848 13.3164 11.787 13.3164 13.1423V25.4345C13.3164 26.7898 14.4186 27.892 15.7739 27.892H19.2032C19.8525 27.892 20.4487 27.6656 20.9189 27.2854C21.5347 27.9983 22.4463 28.4501 23.4619 28.4501H33.6883C37.0597 28.4501 39.8028 25.7072 39.8028 22.3357V15.6978C39.8027 12.9528 37.6779 10.6951 34.9869 10.4814ZM20.0938 25.1538C20.0938 25.6448 19.6941 26.0434 19.203 26.0434H15.7738C15.4387 26.0434 15.1649 25.7708 15.1649 25.4345V13.1423C15.1649 12.806 15.4387 12.5334 15.7738 12.5334H19.203C19.6941 12.5334 20.0939 12.932 20.0939 13.423C20.0938 17.1906 20.0938 21.4956 20.0938 25.1538ZM37.954 22.3358C37.954 24.6882 36.0406 26.6015 33.6882 26.6015H23.4618C22.6241 26.6015 21.9424 25.9198 21.9424 25.0821V13.8319C21.9424 12.9943 22.6241 12.3126 23.4618 12.3126H25.6893C26.1827 12.3126 26.6449 12.0942 26.9568 11.7152L32.2011 5.38479C33.2061 4.16262 35.1448 4.67391 35.3577 6.22243C35.4248 6.71344 35.2849 7.21149 34.9741 7.58923L33.293 9.62968C32.947 9.97561 32.7776 10.7386 33.0861 11.3801C33.3622 11.9555 33.9307 12.3125 34.5685 12.3125C36.4345 12.3125 37.9539 13.8318 37.9539 15.6978V22.3358H37.954Z" fill="black"/>
<path d="M37.3346 0.119629H15.784C7.08035 0.119629 0 7.19986 0 15.9035C0 21.5257 2.99943 26.7042 7.86371 29.543V33.9602C7.86371 34.4396 8.25193 34.8267 8.73027 34.8267C9.20976 34.8267 9.59683 34.4396 9.59683 33.9602V29.0359C9.59683 28.7181 9.42237 28.4246 9.14281 28.2732C4.57204 25.8018 1.73324 21.0612 1.73324 15.9035C1.73324 8.15654 8.03598 1.85264 15.7841 1.85264H37.3347C48.1587 1.85264 54.8981 13.6396 49.4883 22.933C49.2468 23.3455 49.3878 23.877 49.8003 24.1173C50.2138 24.3577 50.7454 24.2178 50.9857 23.8042C57.0585 13.3826 49.5134 0.119629 37.3346 0.119629Z" fill="black"/>
<path d="M58.098 37.7813C57.9201 37.3376 57.4151 37.1216 56.9715 37.2995C56.5416 37.4705 56.3256 37.9477 56.4724 38.381C56.4735 38.3821 56.4735 38.3844 56.4747 38.3867C59.0113 45.7736 55.0858 53.8336 47.6786 56.3763C40.3067 58.9079 32.2375 55.0057 29.689 47.5802C26.1073 37.1504 35.3208 26.8942 45.9351 29.1169C49.6682 29.8957 53.0189 32.1741 55.0709 35.4439C55.3251 35.8482 55.86 35.9707 56.2655 35.7165C56.671 35.4623 56.7935 34.9274 56.5382 34.5219C54.5325 31.3264 51.4078 28.908 47.704 27.7778C48.083 27.4484 48.4457 27.0995 48.7935 26.7322C49.1228 26.3844 49.1066 25.8367 48.7588 25.5074C48.411 25.1781 47.8633 25.1944 47.5341 25.5421C46.9241 26.1869 46.2586 26.7691 45.5468 27.281C41.3857 26.6258 37.2482 27.669 33.9777 29.9558H18.8131C18.4699 29.9558 18.1591 30.1569 18.0205 30.47L13.3169 41.0732C12.4587 43.0072 9.59641 42.3726 9.59641 40.2852V37.4267C9.59641 36.9484 9.20933 36.5601 8.72984 36.5601C8.25151 36.5601 7.86328 36.9484 7.86328 37.4267V40.2852C7.86328 44.2076 13.2747 45.4364 14.9009 41.7768L19.3758 31.689H31.8981C27.6011 35.9439 26.045 42.3073 28.0495 48.143C30.254 54.566 36.2944 58.8802 43.0801 58.8802C54.163 58.8801 61.6802 47.827 58.098 37.7813Z" fill="black"/>
<path d="M39.7908 38.1294C40.5851 38.1294 41.229 37.4855 41.229 36.6912C41.229 35.8969 40.5851 35.2529 39.7908 35.2529C38.9965 35.2529 38.3525 35.8969 38.3525 36.6912C38.3525 37.4855 38.9965 38.1294 39.7908 38.1294Z" fill="black"/>
<path d="M46.3728 38.1294C47.1671 38.1294 47.8111 37.4855 47.8111 36.6912C47.8111 35.8969 47.1671 35.2529 46.3728 35.2529C45.5785 35.2529 44.9346 35.8969 44.9346 36.6912C44.9346 37.4855 45.5785 38.1294 46.3728 38.1294Z" fill="black"/>
<path d="M50.8325 38.981C50.3538 38.981 49.9659 39.369 49.9659 39.8475C49.9659 43.6436 46.8776 46.7319 43.0814 46.7319C39.2853 46.7319 36.197 43.6436 36.197 39.8475C36.197 39.369 35.8091 38.981 35.3304 38.981C34.8517 38.981 34.4639 39.369 34.4639 39.8475C34.4639 44.5992 38.3297 48.465 43.0814 48.465C47.8331 48.465 51.699 44.5992 51.699 39.8475C51.699 39.369 51.3111 38.981 50.8325 38.981Z" fill="black"/>
</svg>
