<svg width="49" height="49" viewBox="0 0 49 49" fill="none" xmlns="http://www.w3.org/2000/svg">
<g clip-path="url(#clip0)">
<path d="M34.6501 11.4413C35.5491 11.4412 36.4484 11.099 37.1328 10.4146C37.796 9.75147 38.1612 8.86976 38.1612 7.93187C38.1612 6.99398 37.7959 6.11236 37.1328 5.44914C35.7638 4.0801 33.5364 4.0801 32.1673 5.44914C31.5041 6.11227 31.1389 6.99398 31.1389 7.93177C31.1389 8.86966 31.5041 9.75138 32.1673 10.4145C32.8519 11.0992 33.7508 11.4414 34.6501 11.4413ZM33.1823 6.46426C33.587 6.05963 34.1185 5.85731 34.65 5.85731C35.1814 5.85731 35.7129 6.05963 36.1176 6.46426C36.5096 6.85626 36.7256 7.37746 36.7256 7.93187C36.7256 8.48618 36.5097 9.00748 36.1176 9.39948C35.7256 9.79148 35.2044 10.0074 34.65 10.0074C34.0955 10.0074 33.5743 9.79148 33.1823 9.39948C32.7903 9.00748 32.5743 8.48628 32.5743 7.93187C32.5744 7.37746 32.7903 6.85626 33.1823 6.46426Z" fill="#FECC2F"/>
<path d="M27.3089 9.6441L28.8468 9.9202C28.9297 10.163 29.0278 10.4 29.1402 10.6299L28.2483 11.9122C28.0499 12.1975 28.0843 12.5839 28.33 12.8296L29.7523 14.2518C29.998 14.4975 30.3846 14.532 30.6697 14.3336L31.952 13.4417C32.1819 13.5542 32.4188 13.6522 32.6617 13.7352L32.9378 15.273C32.9993 15.615 33.2968 15.8639 33.6443 15.8639H35.6558C36.0033 15.8639 36.3008 15.615 36.3623 15.273L36.6384 13.7352C36.8812 13.6522 37.1182 13.5542 37.3481 13.4417L38.6303 14.3336C38.9156 14.532 39.302 14.4976 39.5477 14.2518L40.9701 12.8296C41.2158 12.5839 41.2502 12.1975 41.0518 11.9122L40.1599 10.6299C40.2724 10.4001 40.3704 10.163 40.4533 9.9202L41.9911 9.6441C42.3332 9.58266 42.5821 9.28512 42.5821 8.93762V6.92623C42.5821 6.57873 42.3332 6.28119 41.9911 6.21975L40.4533 5.94364C40.3704 5.70084 40.2723 5.46388 40.1599 5.23391L41.0517 3.95177C41.2502 3.66658 41.2158 3.28003 40.97 3.03436L39.5476 1.61202C39.3019 1.36635 38.9155 1.3318 38.6302 1.53029L37.348 2.42215C37.118 2.3096 36.8811 2.2116 36.6383 2.12872L36.3622 0.590871C36.3008 0.248924 36.0032 0 35.6557 0H33.6442C33.2967 0 32.9992 0.248924 32.9377 0.590967L32.6616 2.12882C32.4188 2.2117 32.1819 2.30979 31.9519 2.42225L30.6697 1.53039C30.3845 1.3319 29.9979 1.36635 29.7522 1.61212L28.3299 3.03446C28.0842 3.28013 28.0498 3.66658 28.2482 3.95187L29.14 5.234C29.0275 5.46388 28.9295 5.70094 28.8466 5.94374L27.3088 6.21984C26.9667 6.28128 26.7178 6.57882 26.7178 6.92632V8.93771C26.718 9.28512 26.9669 9.58266 27.3089 9.6441V9.6441ZM28.1535 7.52657L29.534 7.2787C29.8101 7.22913 30.032 7.02337 30.1022 6.75176C30.2116 6.32847 30.3788 5.92412 30.5993 5.54982C30.7416 5.30817 30.7302 5.00575 30.5701 4.77559L29.7697 3.62485L30.3429 3.05159L31.4937 3.85205C31.7238 4.01216 32.0262 4.02355 32.2679 3.88124C32.6422 3.66074 33.0466 3.49345 33.4698 3.38416C33.7413 3.31401 33.9472 3.09207 33.9968 2.81597L34.2446 1.43555H35.0553L35.3032 2.81606C35.3528 3.09217 35.5586 3.3141 35.8302 3.38425C36.2534 3.49355 36.6577 3.66084 37.0321 3.88134C37.2736 4.02365 37.5761 4.01235 37.8063 3.85215L38.9571 3.05169L39.5303 3.62495L38.7299 4.77559C38.5698 5.00575 38.5584 5.30817 38.7007 5.54982C38.9212 5.92412 39.0885 6.32847 39.1978 6.75176C39.2679 7.02327 39.4898 7.22913 39.7659 7.2787L41.1465 7.52657V8.33718L39.7659 8.58505C39.4898 8.63462 39.268 8.84038 39.1978 9.11199C39.0884 9.53529 38.9212 9.93963 38.7007 10.3139C38.5584 10.5555 38.5698 10.8579 38.7299 11.0882L39.5303 12.2389L38.9571 12.8121L37.8063 12.0116C37.5761 11.8514 37.2736 11.84 37.0321 11.9824C36.6579 12.2029 36.2535 12.3701 35.8302 12.4795C35.5586 12.5496 35.3528 12.7716 35.3032 13.0477L35.0553 14.4282H34.2446L33.9968 13.0477C33.9472 12.7716 33.7414 12.5497 33.4698 12.4795C33.0464 12.3701 32.6421 12.2029 32.2679 11.9824C32.0262 11.84 31.7238 11.8513 31.4937 12.0116L30.3429 12.8121L29.7697 12.2389L30.5701 11.0882C30.7302 10.8579 30.7416 10.5556 30.5993 10.3139C30.3788 9.93963 30.2115 9.53529 30.1022 9.11199C30.0321 8.84048 29.8101 8.63462 29.534 8.58505L28.1535 8.33718V7.52657Z" fill="#FECC2F"/>
<path d="M24.4924 45.8856C24.8853 45.8738 25.1881 45.5311 25.1881 45.1381V44.8764C25.8405 44.6263 26.3354 44.0481 26.4572 43.3239C26.6113 42.4073 26.1155 41.5795 25.2234 41.2642C24.9182 41.1563 24.5591 41.0213 24.3012 40.8788C24.0955 40.7652 24.0814 40.4657 24.2863 40.3508L24.2912 40.348C24.6827 40.23 24.9314 40.4213 24.9585 40.4435C24.9491 40.4358 25.5094 40.8582 25.9036 40.3866C26.3901 39.8044 25.9178 39.3759 25.9178 39.3759C25.7707 39.2403 25.5163 39.0779 25.1881 38.9755V38.7979C25.1881 38.4049 24.8853 38.0622 24.4924 38.0504C24.0859 38.0381 23.7525 38.3641 23.7525 38.7679V39.0171C23.203 39.2312 22.7988 39.7235 22.6843 40.3311C22.5698 40.9388 22.773 41.5314 23.2146 41.8777C23.6207 42.1963 24.1902 42.4217 24.745 42.6178C24.98 42.7009 25.0797 42.8584 25.0414 43.0861C25.0111 43.2666 24.8557 43.5727 24.4654 43.5753C24.0398 43.578 23.9425 43.5643 23.6458 43.3723C23.319 43.1608 22.8706 43.228 22.6466 43.5463C22.4116 43.88 22.5014 44.3392 22.8402 44.5608C23.1832 44.7851 23.4579 44.9012 23.7524 44.9589V45.1682C23.7525 45.572 24.0859 45.8979 24.4924 45.8856V45.8856Z" fill="#FECC2F"/>
<path d="M40.47 16.9461H24.3058C24.3821 16.7595 24.4516 16.5702 24.5135 16.3784L26.735 15.9796C27.0771 15.9182 27.326 15.6206 27.326 15.2731V12.5585C27.326 12.211 27.0771 11.9135 26.735 11.852L24.5135 11.4532C24.3807 11.0414 24.2144 10.6405 24.0162 10.2545L25.3055 8.40096C25.504 8.11567 25.4695 7.72922 25.2238 7.48355L23.3043 5.56403C23.0585 5.31836 22.6721 5.28391 22.3869 5.4823L20.5333 6.77162C20.1472 6.57332 19.7464 6.40699 19.3345 6.27434L18.9357 4.05288C18.8743 3.71084 18.5767 3.46191 18.2292 3.46191H15.5146C15.1671 3.46191 14.8696 3.71084 14.8081 4.05288L14.4093 6.27434C13.9974 6.40708 13.5965 6.57341 13.2106 6.77162L11.357 5.4823C11.0718 5.28391 10.6852 5.31827 10.4396 5.56403L8.52005 7.48355C8.27438 7.72922 8.23992 8.11567 8.43832 8.40096L9.72763 10.2545C9.52943 10.6405 9.3631 11.0414 9.23035 11.4532L7.0088 11.852C6.66676 11.9135 6.41783 12.211 6.41783 12.5585V15.2731C6.41783 15.6206 6.66676 15.9182 7.0088 15.9796L9.23035 16.3784C9.29218 16.5702 9.36185 16.7595 9.43803 16.9461H8.53C5.7614 16.9461 5.757 21.2497 8.53 21.2497H8.92879C8.92879 21.2497 20.6153 32.4307 21.1508 32.9498C21.1035 33.896 21.1346 34.8482 21.1346 35.7955C18.9518 36.9904 17.468 39.3091 17.468 41.9681C17.4679 45.8455 20.6225 49 24.5 49C25.9654 49 27.3711 48.5519 28.5653 47.7041C28.8885 47.4747 28.9645 47.0266 28.735 46.7034C28.5056 46.3801 28.0575 46.3041 27.7343 46.5336C26.7843 47.2079 25.6659 47.5644 24.5 47.5644C21.414 47.5644 18.9035 45.0539 18.9035 41.968C18.9035 38.882 21.414 36.3715 24.5 36.3715C27.5859 36.3715 30.0965 38.882 30.0965 41.968C30.0965 42.6533 29.9729 43.3246 29.729 43.9632C29.5876 44.3336 29.7731 44.7484 30.1435 44.8898C30.5137 45.0312 30.9287 44.8457 31.0701 44.4753C31.3767 43.6725 31.5322 42.8289 31.5322 41.968C31.5322 39.3129 30.0526 36.9972 27.875 35.8009C27.8953 34.8583 27.8973 33.8599 27.8975 32.9416L40.066 21.2497H40.4702C43.2386 21.2497 43.243 16.9461 40.47 16.9461V16.9461ZM10.4902 15.5708C10.42 15.2993 10.1981 15.0936 9.9221 15.0441L7.85347 14.6728V13.1589L9.9221 12.7875C10.1981 12.7379 10.42 12.5323 10.4902 12.2608C10.6428 11.6705 10.8781 11.1031 11.1896 10.5748C11.332 10.3332 11.3207 10.0307 11.1605 9.80043L9.95971 8.07413L11.0301 7.0037L12.7565 8.20448C12.9869 8.36459 13.2893 8.37598 13.5309 8.23358C14.0592 7.92216 14.6266 7.68682 15.217 7.53418C15.4885 7.46403 15.6942 7.24209 15.7437 6.96608L16.115 4.89746H17.6289L18.0003 6.96608C18.0499 7.24209 18.2555 7.46403 18.5271 7.53418C19.1173 7.68682 19.6847 7.92206 20.2132 8.23358C20.4548 8.37598 20.7572 8.36459 20.9875 8.20448L22.7138 7.0037L23.7842 8.07413L22.5834 9.80043C22.4233 10.0307 22.4119 10.3331 22.5543 10.5748C22.8658 11.1031 23.1011 11.6704 23.2537 12.2607C23.3239 12.5322 23.5458 12.7379 23.8218 12.7875L25.8905 13.1589V14.6728L23.8218 15.0441C23.5458 15.0937 23.3239 15.2994 23.2537 15.5709C23.1307 16.0472 22.9527 16.5081 22.7254 16.9461H20.1787C20.9116 16.1471 21.3598 15.0829 21.3598 13.9158C21.3598 11.4414 19.3466 9.42814 16.8721 9.42814C14.3976 9.42814 12.3843 11.4413 12.3843 13.9158C12.3843 15.0829 12.8325 16.1471 13.5654 16.9461H11.0188C10.7913 16.5081 10.6134 16.0472 10.4902 15.5708V15.5708ZM16.5134 16.9461C14.9989 16.7679 13.8198 15.4773 13.8198 13.9158C13.8198 12.2329 15.189 10.8637 16.872 10.8637C18.5549 10.8637 19.9241 12.2328 19.9241 13.9158C19.9241 15.4773 18.7451 16.7679 17.2306 16.9461H16.5134ZM40.47 19.8141H17.7967C17.4003 19.8141 17.079 20.1355 17.079 20.5319C17.079 20.9283 17.4003 21.2497 17.7967 21.2497C17.7967 21.2497 31.345 21.2934 37.9532 21.2597C35.7619 23.3222 28.2928 30.58 26.684 32.1155C26.5422 32.251 26.4619 32.4385 26.4619 32.6347C26.4619 33.4876 26.4617 34.3614 26.4495 35.2131C25.1911 34.8494 23.8294 34.8475 22.57 35.2076V33.2932C22.57 32.7995 22.6326 32.3877 22.2159 31.9832C21.6551 31.4386 11.0375 21.2813 11.0375 21.2813C11.9827 21.2866 13.972 21.2498 13.972 21.2498C14.3684 21.2498 14.6897 20.9284 14.6897 20.532C14.6897 20.1356 14.3684 19.8142 13.972 19.8142H8.53C7.60417 19.8142 7.60417 18.3817 8.53 18.3817H40.47C41.3958 18.3816 41.3958 19.8141 40.47 19.8141V19.8141Z" fill="#FECC2F"/>
</g>
<defs>
<clipPath id="clip0">
<rect width="49" height="49" fill="white"/>
</clipPath>
</defs>
</svg>
