<svg width="281" height="250" viewBox="0 0 281 250" fill="none" xmlns="http://www.w3.org/2000/svg">
<g clip-path="url(#clip0)">
<path d="M232.704 139.63L189.525 92.358L172.459 90.3731L232.704 139.63Z" fill="#FFDD00"/>
<path d="M189.525 92.3577L170.955 41.3862L172.459 90.3727L189.525 92.3577Z" fill="#FFD100"/>
<path d="M172.459 90.3727L170.955 41.3862L133.586 77.6293L172.459 90.3727Z" fill="#FFDA00"/>
<path d="M170.956 41.3865L83.2614 45.5714L133.586 77.6296L170.956 41.3865Z" fill="#FFB600"/>
<path d="M156.296 180.199L162.698 206.938L232.704 139.629L194.343 132.242L156.296 180.199Z" fill="#CB9700"/>
<path d="M64.2069 103.244L194.343 132.242L133.586 77.6295L64.2069 103.244Z" fill="#FFC629"/>
<path d="M194.343 132.242L232.704 139.63L172.459 90.3731L194.343 132.242Z" fill="#AB8900"/>
<path d="M83.2614 45.5717L46.6073 85.6295L133.586 77.6299L83.2614 45.5717Z" fill="#D39000"/>
<path d="M156.296 180.199L87.6119 217.431L162.698 206.938L156.296 180.199Z" fill="#AD8400"/>
<path d="M133.586 77.6296L46.6073 85.6292L64.207 103.244L133.586 77.6296Z" fill="#FFD040"/>
<path d="M46.6073 85.6294L38.9078 164.11L64.2069 103.244L46.6073 85.6294Z" fill="#EBA900"/>
<path d="M38.9078 164.11L87.6118 217.43L64.2069 103.244L38.9078 164.11Z" fill="#FFB600"/>
<path d="M133.586 77.6295L194.343 132.242L172.459 90.3729L133.586 77.6295Z" fill="#DAA900"/>
<path d="M118.726 146.232L87.6119 217.43L156.296 180.199L118.726 146.232Z" fill="#FFB600"/>
<path d="M156.296 180.199L194.343 132.242L118.726 146.232L156.296 180.199Z" fill="#FFC600"/>
<path d="M194.343 132.242L64.2069 103.244L118.726 146.232L194.343 132.242Z" fill="#FFD100"/>
<path d="M64.207 103.244L87.612 217.431L118.726 146.232L64.207 103.244Z" fill="#FDE021"/>
</g>
<g clip-path="url(#clip1)">
<path d="M275.759 61.7205L267.04 63.6317L265.61 65.5526L275.759 61.7205Z" fill="#FFDD00"/>
<path d="M267.039 63.6312L259.592 62.3145L265.608 65.5521L267.039 63.6312Z" fill="#FFD100"/>
<path d="M265.608 65.5521L259.592 62.3145L261.357 69.3537L265.608 65.5521Z" fill="#FFDA00"/>
<path d="M259.592 62.3145L253.977 73.1892L261.358 69.3538L259.592 62.3145Z" fill="#FFB600"/>
<path d="M275.321 73.7728L278.995 74.8665L275.758 61.7206L272.19 65.8342L275.321 73.7728Z" fill="#CB9700"/>
<path d="M259.606 79.5139L272.189 65.8337L261.358 69.3538L259.606 79.5139Z" fill="#FFC629"/>
<path d="M272.19 65.8341L275.759 61.7205L265.61 65.5526L272.19 65.8341Z" fill="#AB8900"/>
<path d="M253.977 73.1893L256.253 80.4085L261.358 69.354L253.977 73.1893Z" fill="#D39000"/>
<path d="M275.321 73.7728L275.02 84.6599L278.994 74.8665L275.321 73.7728Z" fill="#AD8400"/>
<path d="M261.357 69.3539L256.252 80.4085L259.606 79.5141L261.357 69.3539Z" fill="#FFD040"/>
<path d="M256.253 80.4087L265.186 86.8155L259.607 79.5143L256.253 80.4087Z" fill="#EBA900"/>
<path d="M265.185 86.8149L275.019 84.6592L259.606 79.5137L265.185 86.8149Z" fill="#FFB600"/>
<path d="M261.358 69.3544L272.189 65.8342L265.609 65.5527L261.358 69.3544Z" fill="#DAA900"/>
<path d="M268.599 75.9353L275.019 84.6595L275.32 73.7723L268.599 75.9353Z" fill="#FFB600"/>
<path d="M275.321 73.7724L272.189 65.8338L268.599 75.9354L275.321 73.7724Z" fill="#FFC600"/>
<path d="M272.189 65.8337L259.606 79.5139L268.599 75.9353L272.189 65.8337Z" fill="#FFD100"/>
<path d="M259.607 79.5145L275.02 84.66L268.6 75.9359L259.607 79.5145Z" fill="#FDE021"/>
</g>
<defs>
<clipPath id="clip0">
<rect width="172.718" height="180.264" fill="white" transform="translate(133.152) rotate(47.5909)"/>
</clipPath>
<clipPath id="clip1">
<rect width="24.0781" height="25.13" fill="white" transform="translate(251.96 63.9878) rotate(-12.3647)"/>
</clipPath>
</defs>
</svg>
