<svg width="84" height="112" viewBox="0 0 84 112" fill="none" xmlns="http://www.w3.org/2000/svg">
<path d="M70.9584 5.19772C71.323 5.7067 71.8421 6.10127 72.4775 6.32996C74.1665 6.93778 76.0313 6.06001 76.6391 4.37101C76.6451 4.35429 76.6451 4.3543 76.6511 4.33758C76.6572 4.32086 76.6572 4.32083 76.6632 4.3041C77.271 2.6151 76.3932 0.750359 74.7042 0.142538C74.0687 -0.0861465 73.4172 -0.112824 72.8119 0.0471104C71.7939 0.304081 70.9278 1.03124 70.5426 2.1015C70.5366 2.11823 70.5366 2.11826 70.5306 2.13498C70.5246 2.15171 70.5246 2.15169 70.5186 2.16841C70.1394 3.22195 70.3375 4.35098 70.9584 5.19772Z" fill="#01030A"/>
<path d="M55.3999 -6.78086C54.3464 -7.16 53.2173 -6.96184 52.3705 -6.34102C51.8615 -5.97642 51.467 -5.45733 51.2383 -4.82186C51.2323 -4.80514 51.2323 -4.80516 51.2263 -4.78844C51.2202 -4.77171 51.2202 -4.77168 51.2142 -4.75496C50.9855 -4.11949 50.9589 -3.46801 51.1188 -2.86269C51.3758 -1.84468 52.103 -0.978547 53.1732 -0.593394C54.8622 0.0144263 56.727 -0.863354 57.3348 -2.55236C57.3408 -2.56908 57.3408 -2.56912 57.3468 -2.58584C57.3528 -2.60256 57.3528 -2.60254 57.3589 -2.61927C57.95 -4.31429 57.0722 -6.17906 55.3999 -6.78086Z" fill="#01030A"/>
<path d="M50.0398 8.11357C48.9863 7.73444 47.8572 7.93254 47.0104 8.55337C46.5015 8.91797 46.1069 9.43711 45.8782 10.0726L45.8722 10.0893C45.8722 10.0893 45.8722 10.0893 45.8662 10.106C45.8662 10.106 45.8661 10.106 45.8601 10.1227L45.8541 10.1394C45.6254 10.7749 45.5987 11.4264 45.7587 12.0317C46.0156 13.0498 46.7429 13.9159 47.8131 14.301C49.5021 14.9089 51.3669 14.031 51.9747 12.342L51.9807 12.3253L51.9867 12.3086L51.9927 12.2919L51.9987 12.2752C52.5898 10.5801 51.7121 8.71538 50.0398 8.11357Z" fill="#01030A"/>
<path d="M32.8815 4.03848C32.8104 2.76627 32.0003 1.60586 30.746 1.15451C29.057 0.546685 27.1923 1.42446 26.5845 3.11347L26.5785 3.13021L26.5725 3.1469L26.5664 3.16364L26.5604 3.18038C25.9526 4.86938 26.8304 6.7341 28.5194 7.34192C29.7903 7.79929 31.1541 7.42122 32.0028 6.48C32.2857 6.16626 32.5138 5.79502 32.6642 5.37695L32.6703 5.36021L32.6763 5.34347L32.6823 5.32678L32.6883 5.31005C32.8388 4.89197 32.8996 4.46054 32.8815 4.03848Z" fill="#01030A"/>
<path d="M11.4265 -5.77959C9.73751 -6.38741 7.87272 -5.50959 7.2649 -3.82059L7.2589 -3.8039L7.25287 -3.78716L7.24685 -3.77042L7.24084 -3.75373C6.63302 -2.06473 7.51084 -0.199936 9.19984 0.407884C10.8888 1.0157 12.7536 0.137873 13.3614 -1.55113L13.3674 -1.56782L13.3734 -1.58456L13.3795 -1.6013L13.3855 -1.61799C13.9933 -3.30699 13.1155 -5.17177 11.4265 -5.77959Z" fill="#01030A"/>
<path d="M42.5382 89.527C41.9027 89.2983 41.2512 89.2716 40.6459 89.4316C39.6279 89.6885 38.7618 90.4157 38.3766 91.486C37.9975 92.5395 38.1956 93.6686 38.8164 94.5153C39.181 95.0243 39.7001 95.4189 40.3356 95.6475C42.0246 96.2554 43.8893 95.3776 44.4972 93.6886C45.0883 91.9936 44.2272 90.1348 42.5382 89.527Z" fill="#01030A"/>
<path d="M37.1768 104.429C36.5414 104.2 35.8839 104.19 35.2846 104.333C34.2666 104.59 33.4004 105.317 33.0153 106.388C32.6361 107.441 32.8343 108.57 33.4551 109.417C33.8197 109.926 34.3388 110.32 34.9742 110.549C36.6632 111.157 38.528 110.279 39.1358 108.59C39.7437 106.901 38.8658 105.036 37.1768 104.429Z" fill="#01030A"/>
<path d="M23.2401 82.5822C22.1866 82.2031 21.0575 82.4012 20.2108 83.022C19.7018 83.3866 19.3072 83.9057 19.0785 84.5412C18.8498 85.1767 18.8231 85.8281 18.9831 86.4335C19.24 87.4515 19.9673 88.3176 21.0375 88.7028C22.7265 89.3106 24.5912 88.4328 25.1991 86.7438C25.7902 85.0488 24.9124 83.184 23.2401 82.5822Z" fill="#01030A"/>
<path d="M17.8787 97.4838C16.8251 97.1046 15.696 97.3027 14.8493 97.9236C14.3403 98.2882 13.9457 98.8073 13.7171 99.4428C13.4884 100.078 13.4617 100.73 13.6216 101.335C13.8786 102.353 14.6058 103.219 15.6761 103.604C17.3651 104.212 19.2298 103.334 19.8376 101.645C20.4454 99.9564 19.5509 98.0856 17.8787 97.4838Z" fill="#01030A"/>
<path d="M3.92537 75.6338C2.23636 75.026 0.371624 75.9038 -0.236196 77.5928C-0.844016 79.2818 0.0337639 81.1466 1.72277 81.7544C2.99371 82.2118 4.35755 81.8337 5.20626 80.8925C5.48916 80.5787 5.71718 80.2075 5.86763 79.7894C6.01808 79.3713 6.07892 78.9399 6.06081 78.5179C6.00648 77.2517 5.1963 76.0912 3.92537 75.6338Z" fill="#01030A"/>
<path d="M-1.43828 90.5354C-3.12729 89.9276 -4.99202 90.8054 -5.59984 92.4944C-6.20766 94.1834 -5.32988 96.0481 -3.64088 96.6559C-2.36994 97.1133 -1.00609 96.7353 -0.157387 95.794C0.125515 95.4803 0.35353 95.109 0.503981 94.691C0.654431 94.2729 0.71529 93.8414 0.697181 93.4194C0.642854 92.1532 -0.167344 90.9928 -1.43828 90.5354Z" fill="#01030A"/>
<path d="M71.2794 19.2153C71.8932 17.5096 71.0154 15.6448 69.3264 15.037C68.691 14.8083 68.0334 14.7983 67.4341 14.9415C66.4161 15.1985 65.55 15.9257 65.1648 16.9959L65.1588 17.0127L65.1528 17.0294L65.1468 17.0461L65.1407 17.0628C64.7616 18.1164 64.9597 19.2454 65.5806 20.0922C65.9452 20.6011 66.4643 20.9957 67.0998 21.2244C68.7888 21.8322 70.6535 20.9545 71.2613 19.2654L71.2673 19.2487C71.2673 19.2487 71.2673 19.2487 71.2794 19.2153C71.2733 19.232 71.2733 19.232 71.2794 19.2153Z" fill="#01030A"/>
<path d="M63.9864 29.9278C63.3509 29.6992 62.6934 29.6892 62.0941 29.8324C61.0761 30.0894 60.21 30.8166 59.8249 31.8868L59.8188 31.9036L59.8128 31.9203L59.8068 31.937L59.8008 31.9537L59.7948 31.9705L59.7888 31.9871C59.4096 33.0407 59.6077 34.1698 60.2285 35.0165C60.5931 35.5255 61.1122 35.9201 61.7477 36.1487C63.4367 36.7566 65.3015 35.8788 65.9093 34.1897L65.9153 34.1731L65.9213 34.1563L65.9274 34.1396L65.9334 34.1229L65.9394 34.1062L65.9454 34.0894C66.5365 32.3944 65.6754 30.5357 63.9864 29.9278Z" fill="#01030A"/>
<path d="M58.625 44.8258C57.9895 44.5972 57.332 44.5872 56.7327 44.7304C55.7147 44.9874 54.8486 45.7146 54.4634 46.7848L54.4574 46.8016L54.4514 46.8183L54.4454 46.835L54.4393 46.8517L54.4333 46.8685L54.4273 46.8851C54.0482 47.9387 54.2463 49.0678 54.8671 49.9145C55.2317 50.4235 55.7508 50.8181 56.3862 51.0467C58.0753 51.6546 59.94 50.7768 60.5479 49.0877L60.5539 49.0711L60.5599 49.0543L60.5659 49.0376L60.5719 49.0209L60.5779 49.0042L60.584 48.9874C61.1751 47.2924 60.314 45.4337 58.625 44.8258Z" fill="#01030A"/>
<path d="M53.2636 59.7274C52.6282 59.4987 51.9767 59.4721 51.3714 59.632C50.3533 59.889 49.4872 60.6161 49.1021 61.6864L49.0961 61.7031L49.09 61.7198L49.084 61.7365L49.078 61.7533C48.6989 62.8068 48.897 63.9359 49.5178 64.7826C49.8824 65.2916 50.4015 65.6862 51.037 65.9148C52.726 66.5227 54.5907 65.6449 55.1986 63.9559L55.2046 63.9391L55.2106 63.9224L55.2166 63.9057L55.2226 63.889C55.8137 62.194 54.9526 60.3352 53.2636 59.7274Z" fill="#01030A"/>
<path d="M47.8996 74.629C47.2641 74.4003 46.6066 74.3904 46.0073 74.5336C44.9893 74.7906 44.1232 75.5177 43.738 76.588L43.732 76.6047L43.726 76.6214L43.72 76.6382L43.714 76.6549C43.3348 77.7084 43.533 78.8375 44.1538 79.6842C44.5184 80.1932 45.0375 80.5878 45.6729 80.8165C47.3619 81.4243 49.2267 80.5465 49.8345 78.8575L49.8406 78.8408L49.8466 78.824L49.8526 78.8073L49.8586 78.7906C50.4497 77.0956 49.5886 75.2368 47.8996 74.629Z" fill="#01030A"/>
<path d="M44.6882 22.9831C43.6347 22.6039 42.5056 22.802 41.6589 23.4229C41.1499 23.7875 40.7553 24.3065 40.5266 24.942L40.5206 24.9588C40.5206 24.9588 40.5206 24.9588 40.5146 24.9755L40.5086 24.9922L40.5026 25.0089C40.5026 25.0089 40.5026 25.0089 40.4965 25.0257L40.4905 25.0423C40.2618 25.6778 40.2352 26.3293 40.3951 26.9347C40.6521 27.9527 41.3793 28.8188 42.4495 29.204C44.1385 29.8118 46.0033 28.934 46.6111 27.2449L46.6171 27.2283L46.6231 27.2115L46.6291 27.1948L46.6352 27.1781L46.6412 27.1614L46.6472 27.1446C47.2383 25.4496 46.3605 23.5849 44.6882 22.9831Z" fill="#01030A"/>
<path d="M39.3264 37.8811C38.2729 37.5019 37.1438 37.7 36.2971 38.3209C35.7881 38.6855 35.3935 39.2045 35.1648 39.84L35.1588 39.8568C35.1588 39.8568 35.1588 39.8568 35.1528 39.8735L35.1468 39.8902L35.1407 39.9069C35.1407 39.9069 35.1407 39.9069 35.1347 39.9237L35.1287 39.9403C34.9 40.5758 34.8733 41.2273 35.0333 41.8327C35.2902 42.8507 36.0175 43.7168 37.0877 44.102C38.7767 44.7098 40.6415 43.832 41.2493 42.1429L41.2553 42.1263L41.2613 42.1095L41.2673 42.0928L41.2733 42.0761L41.2794 42.0594L41.2854 42.0426C41.8765 40.3476 40.9987 38.4829 39.3264 37.8811Z" fill="#01030A"/>
<path d="M33.9651 52.7826C32.9116 52.4035 31.7825 52.6016 30.9357 53.2224C30.4268 53.587 30.0322 54.1061 29.8035 54.7416L29.7975 54.7583C29.7975 54.7583 29.7975 54.7583 29.7915 54.775C29.7915 54.775 29.7915 54.775 29.7854 54.7917L29.7794 54.8085C29.5507 55.444 29.5241 56.0954 29.684 56.7008C29.941 57.7188 30.6682 58.5849 31.7384 58.9701C33.4274 59.5779 35.2922 58.7001 35.9 57.0111L35.906 56.9943L35.912 56.9776L35.918 56.9609L35.9241 56.9442C36.5152 55.2492 35.6374 53.3844 33.9651 52.7826Z" fill="#01030A"/>
<path d="M28.6014 67.6842C27.5479 67.3051 26.4188 67.5032 25.5721 68.124C25.0631 68.4886 24.6685 69.0077 24.4398 69.6432L24.4338 69.6599C24.4338 69.6599 24.4338 69.6599 24.4278 69.6766C24.4278 69.6766 24.4278 69.6766 24.4218 69.6934L24.4158 69.7101C24.1871 70.3456 24.1604 70.997 24.3203 71.6024C24.5773 72.6204 25.3045 73.4865 26.3748 73.8717C28.0638 74.4795 29.9285 73.6017 30.5363 71.9127L30.5423 71.896L30.5484 71.8792L30.5544 71.8625L30.5604 71.8458C31.1515 70.1508 30.2737 68.286 28.6014 67.6842Z" fill="#01030A"/>
<path d="M27.5326 18.9044C27.4615 17.6322 26.6514 16.4718 25.3972 16.0204C23.7082 15.4126 21.8434 16.2904 21.2356 17.9794L21.2296 17.9961L21.2236 18.0129L21.2176 18.0296L21.2115 18.0463L21.2055 18.063L21.1995 18.0798C20.5917 19.7688 21.4695 21.6335 23.1585 22.2413C24.4294 22.6987 25.7932 22.3206 26.6419 21.3794C26.9248 21.0657 27.1529 20.6944 27.3033 20.2764L27.3093 20.2596L27.3154 20.2429L27.3214 20.2262L27.3274 20.2095L27.3334 20.1927L27.3394 20.176C27.4899 19.758 27.5507 19.3265 27.5326 18.9044Z" fill="#01030A"/>
<path d="M22.1684 33.806C22.0974 32.5338 21.2872 31.3733 20.033 30.922C18.344 30.3142 16.4793 31.192 15.8715 32.881L15.8655 32.8977L15.8594 32.9144L15.8534 32.9312L15.8474 32.9479L15.8414 32.9646L15.8354 32.9813C15.2275 34.6704 16.1053 36.5351 17.7943 37.1429C19.0653 37.6003 20.4291 37.2222 21.2778 36.281C21.5607 35.9672 21.7887 35.596 21.9392 35.1779L21.9452 35.1612L21.9512 35.1444L21.9572 35.1278L21.9633 35.111L21.9693 35.0943L21.9753 35.0775C22.1258 34.6595 22.1866 34.228 22.1684 33.806Z" fill="#01030A"/>
<path d="M16.8071 48.7075C16.7361 47.4353 15.9259 46.2749 14.6717 45.8236C12.9827 45.2157 11.118 46.0935 10.5102 47.7825L10.5041 47.7993L10.4981 47.816L10.4921 47.8327L10.4861 47.8494C9.87826 49.5384 10.756 51.4032 12.445 52.011C13.716 52.4684 15.0798 52.0903 15.9285 51.1491C16.2114 50.8353 16.4395 50.4641 16.5899 50.046L16.5959 50.0293L16.6019 50.0126L16.608 49.9958L16.614 49.9791C16.7644 49.561 16.8252 49.1296 16.8071 48.7075Z" fill="#01030A"/>
<path d="M11.4458 63.6055C11.3747 62.3333 10.5646 61.1729 9.31038 60.7216C7.62137 60.1137 5.75665 60.9915 5.14883 62.6805L5.14281 62.6973L5.13678 62.714L5.13078 62.7307L5.12475 62.7474C4.51693 64.4364 5.39471 66.3012 7.08372 66.909C8.35466 67.3664 9.71845 66.9883 10.5672 66.0471C10.8501 65.7333 11.0781 65.3621 11.2286 64.944L11.2346 64.9273L11.2406 64.9106L11.2466 64.8938L11.2527 64.8771C11.4031 64.459 11.4639 64.0276 11.4458 63.6055Z" fill="#01030A"/>
<path d="M6.07544 9.08634C4.38644 8.47852 2.52167 9.35628 1.91385 11.0453L1.90782 11.062L1.9018 11.0788L1.89579 11.0955L1.88977 11.1122L1.88375 11.1289L1.87774 11.1456C1.26992 12.8346 2.14773 14.6994 3.83674 15.3072C5.52574 15.9151 7.39048 15.0372 7.9983 13.3482L8.00431 13.3315L8.01033 13.3148L8.01636 13.2981L8.02236 13.2814L8.02839 13.2646L8.03441 13.2479C8.64223 11.5589 7.76445 9.69416 6.07544 9.08634Z" fill="#01030A"/>
<path d="M0.713628 23.9879C-0.975379 23.3801 -2.84015 24.2578 -3.44797 25.9469L-3.45399 25.9636L-3.46002 25.9803L-3.46602 25.997L-3.47205 26.0138L-3.47807 26.0305L-3.48408 26.0472C-4.0919 27.7362 -3.21408 29.601 -1.52508 30.2088C0.163929 30.8166 2.02867 29.9388 2.63649 28.2498L2.64249 28.2331L2.64852 28.2164L2.65454 28.1996L2.66055 28.1829L2.66657 28.1662L2.67259 28.1495C3.28041 26.4604 2.40263 24.5957 0.713628 23.9879Z" fill="#01030A"/>
</svg>
