<svg width="104" height="88" viewBox="0 0 104 88" fill="none" xmlns="http://www.w3.org/2000/svg">
<circle cx="63.0588" cy="47.0588" r="40" fill="#FECC2F"/>
<path d="M63.7654 80.8767H60.334C60.0275 80.8767 59.7337 80.755 59.517 80.5383C59.3003 80.3216 59.1786 80.0277 59.1786 79.7213C59.1786 79.4149 59.3003 79.121 59.517 78.9043C59.7337 78.6876 60.0275 78.5659 60.334 78.5659H63.7654C64.0719 78.5659 64.3658 78.6876 64.5824 78.9043C64.7991 79.121 64.9208 79.4149 64.9208 79.7213C64.9208 80.0277 64.7991 80.3216 64.5824 80.5383C64.3658 80.755 64.0719 80.8767 63.7654 80.8767Z" fill="black"/>
<path d="M77.4106 80.8767H71.8532C71.5468 80.8767 71.2529 80.755 71.0362 80.5383C70.8195 80.3216 70.6978 80.0278 70.6978 79.7213C70.6978 79.4149 70.8195 79.121 71.0362 78.9044C71.2529 78.6877 71.5468 78.5659 71.8532 78.5659H77.4106C77.717 78.5659 78.0109 78.4442 78.2275 78.2275C78.4442 78.0109 78.5659 77.717 78.5659 77.4106V3.46614C78.5659 3.15972 78.4442 2.86584 78.2275 2.64917C78.0109 2.43249 77.717 2.31076 77.4106 2.31076H3.46614C3.15972 2.31076 2.86584 2.43249 2.64917 2.64917C2.43249 2.86584 2.31076 3.15972 2.31076 3.46614V77.4106C2.31076 77.717 2.43249 78.0109 2.64917 78.2275C2.86584 78.4442 3.15972 78.5659 3.46614 78.5659H40.8081C41.1145 78.5659 41.4084 78.6877 41.6251 78.9044C41.8417 79.121 41.9635 79.4149 41.9635 79.7213C41.9635 80.0278 41.8417 80.3216 41.6251 80.5383C41.4084 80.755 41.1145 80.8767 40.8081 80.8767H3.46614C2.54687 80.8767 1.66524 80.5115 1.01521 79.8615C0.365182 79.2115 0 78.3298 0 77.4106V3.46614C0 2.54687 0.365182 1.66524 1.01521 1.01521C1.66524 0.365182 2.54687 0 3.46614 0H77.4106C78.3298 0 79.2115 0.365182 79.8615 1.01521C80.5115 1.66524 80.8767 2.54687 80.8767 3.46614V77.4106C80.8767 78.3298 80.5115 79.2115 79.8615 79.8615C79.2115 80.5115 78.3298 80.8767 77.4106 80.8767Z" fill="black"/>
<path d="M52.2465 80.8767H48.8959C48.5894 80.8767 48.2956 80.755 48.0789 80.5383C47.8622 80.3216 47.7405 80.0277 47.7405 79.7213C47.7405 79.4149 47.8622 79.121 48.0789 78.9043C48.2956 78.6876 48.5894 78.5659 48.8959 78.5659H52.2465C52.5529 78.5659 52.8468 78.6876 53.0634 78.9043C53.2801 79.121 53.4018 79.4149 53.4018 79.7213C53.4018 80.0277 53.2801 80.3216 53.0634 80.5383C52.8468 80.755 52.5529 80.8767 52.2465 80.8767Z" fill="black"/>
<path d="M70.6341 14.7067C69.7821 14.7065 68.9492 14.4536 68.2408 13.98C67.5325 13.5065 66.9804 12.8335 66.6545 12.0462C66.3286 11.2589 66.2434 10.3927 66.4098 9.55702C66.5762 8.72135 66.9866 7.95377 67.5892 7.35134C68.1918 6.74892 68.9595 6.33869 69.7952 6.17255C70.6309 6.0064 71.4971 6.09179 72.2843 6.41791C73.0715 6.74404 73.7443 7.29626 74.2177 8.00475C74.6911 8.71325 74.9437 9.54619 74.9437 10.3983C74.9425 11.5408 74.488 12.6361 73.68 13.4438C72.8721 14.2516 71.7766 14.7058 70.6341 14.7067ZM70.6341 8.40061C70.2391 8.40084 69.853 8.51819 69.5246 8.73784C69.1963 8.95748 68.9404 9.26955 68.7894 9.63459C68.6383 9.99964 68.599 10.4013 68.6762 10.7887C68.7534 11.1761 68.9437 11.532 69.2231 11.8112C69.5026 12.0905 69.8585 12.2806 70.246 12.3576C70.6335 12.4346 71.0351 12.395 71.4 12.2437C71.765 12.0925 72.0769 11.8365 72.2964 11.508C72.5158 11.1795 72.6329 10.7933 72.6329 10.3983C72.6323 9.86844 72.4215 9.36051 72.0468 8.98598C71.672 8.61144 71.164 8.40091 70.6341 8.40061Z" fill="black"/>
<path d="M58.7684 14.7067C57.9163 14.7067 57.0833 14.454 56.3747 13.9806C55.6662 13.5072 55.114 12.8343 54.7879 12.047C54.4618 11.2598 54.3765 10.3935 54.5427 9.55773C54.709 8.72198 55.1193 7.9543 55.7219 7.35175C56.3244 6.74921 57.0921 6.33887 57.9278 6.17263C58.7636 6.00639 59.6299 6.09171 60.4171 6.4178C61.2044 6.7439 61.8773 7.29612 62.3507 8.00463C62.8241 8.71315 63.0768 9.54614 63.0768 10.3983C63.0753 11.5405 62.6209 12.6354 61.8132 13.4431C61.0055 14.2507 59.9106 14.7052 58.7684 14.7067ZM58.7684 8.40061C58.3733 8.40061 57.9871 8.51777 57.6585 8.73727C57.33 8.95678 57.074 9.26877 56.9228 9.63379C56.7716 9.99882 56.732 10.4005 56.8091 10.788C56.8862 11.1755 57.0764 11.5314 57.3558 11.8108C57.6352 12.0902 57.9911 12.2805 58.3787 12.3575C58.7662 12.4346 59.1678 12.3951 59.5328 12.2439C59.8979 12.0927 60.2099 11.8366 60.4294 11.5081C60.6489 11.1796 60.766 10.7934 60.766 10.3983C60.7654 9.86864 60.5548 9.36088 60.1803 8.98638C59.8058 8.61188 59.298 8.40122 58.7684 8.40061Z" fill="black"/>
<path d="M46.9015 14.7067C46.0493 14.7067 45.2164 14.454 44.5078 13.9806C43.7993 13.5072 43.2471 12.8343 42.921 12.047C42.5949 11.2598 42.5096 10.3935 42.6758 9.55773C42.8421 8.72198 43.2524 7.9543 43.855 7.35175C44.4575 6.74921 45.2252 6.33887 46.0609 6.17263C46.8967 6.00639 47.763 6.09171 48.5502 6.4178C49.3375 6.7439 50.0104 7.29612 50.4838 8.00463C50.9572 8.71315 51.2099 9.54614 51.2099 10.3983C51.2087 11.5406 50.7543 12.6357 49.9466 13.4434C49.1389 14.2511 48.0438 14.7055 46.9015 14.7067ZM46.9015 8.40061C46.5064 8.40061 46.1201 8.51777 45.7916 8.73727C45.4631 8.95678 45.2071 9.26877 45.0559 9.63379C44.9047 9.99882 44.8651 10.4005 44.9422 10.788C45.0193 11.1755 45.2095 11.5314 45.4889 11.8108C45.7683 12.0902 46.1242 12.2805 46.5117 12.3575C46.8992 12.4346 47.3009 12.3951 47.6659 12.2439C48.031 12.0927 48.343 11.8366 48.5625 11.5081C48.782 11.1796 48.8991 10.7934 48.8991 10.3983C48.8988 9.86855 48.6883 9.36061 48.3137 8.98605C47.9391 8.61148 47.4312 8.40091 46.9015 8.40061Z" fill="black"/>
<path d="M36.0698 11.5537H9.39894C9.09252 11.5537 8.79864 11.432 8.58196 11.2153C8.36529 10.9986 8.24356 10.7047 8.24356 10.3983C8.24356 10.0919 8.36529 9.798 8.58196 9.58132C8.79864 9.36465 9.09252 9.24292 9.39894 9.24292H36.0698C36.3762 9.24292 36.6701 9.36465 36.8867 9.58132C37.1034 9.798 37.2252 10.0919 37.2252 10.3983C37.2252 10.7047 37.1034 10.9986 36.8867 11.2153C36.6701 11.432 36.3762 11.5537 36.0698 11.5537Z" fill="black"/>
<path d="M42.8647 71.9179H38.0271C37.3903 71.917 36.7799 71.6636 36.3296 71.2134C35.8794 70.7631 35.626 70.1527 35.6251 69.5159V67.7585C34.0053 67.3311 32.4507 66.6867 31.0036 65.8429L29.7604 67.085C29.3033 67.5222 28.6951 67.7662 28.0625 67.7662C27.43 67.7662 26.8218 67.5222 26.3647 67.085L22.9471 63.6673C22.724 63.4445 22.547 63.1798 22.4262 62.8885C22.3054 62.5972 22.2433 62.2849 22.2433 61.9695C22.2433 61.6541 22.3054 61.3419 22.4262 61.0505C22.547 60.7592 22.724 60.4945 22.9471 60.2717L24.1903 59.0285C23.3452 57.5818 22.7004 56.0271 22.2735 54.407H20.5127C19.876 54.406 19.2657 54.1526 18.8156 53.7023C18.3655 53.252 18.1124 52.6416 18.1118 52.0049V47.1685C18.1124 46.5319 18.3656 45.9216 18.8157 45.4715C19.2658 45.0214 19.8761 44.7682 20.5127 44.7676H22.27C22.6971 43.1477 23.3415 41.5931 24.1857 40.1461L22.9436 38.9029C22.4942 38.4524 22.2418 37.842 22.2418 37.2056C22.2418 36.5693 22.4942 35.9589 22.9436 35.5084L26.3612 32.0896C26.8186 31.6529 27.4267 31.4092 28.0591 31.4092C28.6915 31.4092 29.2995 31.6529 29.7569 32.0896L31.0001 33.3328C32.4466 32.4876 34.0014 31.8432 35.6216 31.4172V29.6541C35.6225 29.0174 35.8759 28.4071 36.3262 27.957C36.7765 27.5069 37.387 27.2538 38.0237 27.2532H42.8647C43.5013 27.2538 44.1116 27.5069 44.5617 27.9571C45.0118 28.4072 45.265 29.0175 45.2656 29.6541V31.4125C46.8858 31.8387 48.4405 32.4832 49.8871 33.3282L51.1303 32.085C51.5876 31.648 52.1957 31.4042 52.8281 31.4042C53.4606 31.4042 54.0687 31.648 54.526 32.085L57.9436 35.5038C58.3927 35.9544 58.6449 36.5647 58.6449 37.201C58.6449 37.8373 58.3927 38.4476 57.9436 38.8983L56.7004 40.1415C57.5443 41.5886 58.1887 43.1432 58.616 44.763H60.3734C61.0099 44.7636 61.6202 45.0167 62.0704 45.4669C62.5205 45.917 62.7736 46.5273 62.7742 47.1639V51.9968C62.7736 52.6335 62.5205 53.2439 62.0704 53.6942C61.6203 54.1445 61.01 54.398 60.3734 54.3989H58.6172C58.1897 56.0186 57.5454 57.5732 56.7016 59.0204L57.9436 60.2636C58.1667 60.4865 58.3437 60.7511 58.4645 61.0425C58.5853 61.3338 58.6474 61.6461 58.6474 61.9614C58.6474 62.2768 58.5853 62.5891 58.4645 62.8804C58.3437 63.1717 58.1667 63.4364 57.9436 63.6593L54.526 67.0769C54.069 67.5144 53.4608 67.7586 52.8281 67.7586C52.1955 67.7586 51.5873 67.5144 51.1303 67.0769L49.8871 65.8348C48.4399 66.6786 46.8854 67.323 45.2656 67.7505V69.5078C45.2664 69.8237 45.2048 70.1367 45.0846 70.4289C44.9643 70.721 44.7876 70.9866 44.5646 71.2104C44.3417 71.4343 44.0768 71.612 43.7851 71.7334C43.4934 71.8548 43.1806 71.9175 42.8647 71.9179ZM30.8291 63.2248C31.0531 63.2248 31.2722 63.2898 31.4599 63.412C33.154 64.5184 35.0394 65.2993 37.0196 65.7147C37.2787 65.7695 37.5111 65.9117 37.6779 66.1174C37.8447 66.3231 37.9358 66.5798 37.9359 66.8446V69.5159C37.9362 69.54 37.9459 69.563 37.9629 69.5801C37.98 69.5971 38.003 69.6069 38.0271 69.6072H42.8647C42.8887 69.6069 42.9116 69.5971 42.9285 69.58C42.9454 69.5629 42.9548 69.5399 42.9548 69.5159V66.8446C42.9549 66.5798 43.046 66.3231 43.2128 66.1174C43.3796 65.9117 43.612 65.7695 43.871 65.7147C45.8513 65.2993 47.7367 64.5184 49.4307 63.412C49.6528 63.2674 49.9178 63.2035 50.1814 63.231C50.445 63.2586 50.6911 63.3759 50.8784 63.5634L52.7675 65.4512C52.7846 65.4681 52.8076 65.4776 52.8316 65.4776C52.8556 65.4776 52.8787 65.4681 52.8957 65.4512L56.3134 62.0336C56.3218 62.0253 56.3286 62.0153 56.3332 62.0043C56.3378 61.9933 56.3402 61.9814 56.3402 61.9695C56.3402 61.9576 56.3378 61.9458 56.3332 61.9348C56.3286 61.9238 56.3218 61.9138 56.3134 61.9054L54.4185 60.0163C54.2311 59.829 54.1138 59.5829 54.0862 59.3193C54.0587 59.0557 54.1225 58.7907 54.2672 58.5686C55.3735 56.8746 56.1544 54.9892 56.5699 53.0089C56.6247 52.7499 56.7668 52.5175 56.9725 52.3507C57.1782 52.1839 57.435 52.0928 57.6998 52.0927H60.371C60.383 52.0927 60.3948 52.0904 60.4058 52.0858C60.4168 52.0812 60.4268 52.0744 60.4352 52.0659C60.4436 52.0574 60.4502 52.0474 60.4546 52.0363C60.4591 52.0252 60.4613 52.0134 60.4612 52.0015V47.1685C60.4612 47.1446 60.4517 47.1217 60.4348 47.1048C60.4179 47.0879 60.395 47.0784 60.371 47.0784H57.7033C57.4383 47.0782 57.1814 46.987 56.9757 46.82C56.77 46.653 56.6279 46.4203 56.5733 46.161C56.1579 44.1808 55.377 42.2953 54.2706 40.6013C54.126 40.3792 54.0621 40.1142 54.0897 39.8506C54.1172 39.587 54.2346 39.341 54.422 39.1536L56.3099 37.2646C56.3183 37.2563 56.3251 37.2464 56.3296 37.2355C56.3342 37.2246 56.3366 37.2128 56.3366 37.201C56.3366 37.1892 56.3342 37.1775 56.3296 37.1665C56.3251 37.1556 56.3183 37.1458 56.3099 37.1375L52.8923 33.7187C52.8752 33.7018 52.8521 33.6924 52.8281 33.6924C52.8041 33.6924 52.7811 33.7018 52.764 33.7187L50.875 35.6077C50.6874 35.7953 50.441 35.9126 50.1772 35.9399C49.9134 35.9673 49.6482 35.903 49.4261 35.7579C47.7327 34.6514 45.8476 33.8708 43.8676 33.4564C43.6083 33.4016 43.3758 33.2592 43.2089 33.0533C43.0421 32.8474 42.9512 32.5903 42.9514 32.3253V29.6541C42.9514 29.6422 42.949 29.6305 42.9445 29.6196C42.94 29.6086 42.9333 29.5987 42.925 29.5903C42.9166 29.582 42.9067 29.5753 42.8957 29.5708C42.8848 29.5663 42.8731 29.5639 42.8612 29.5639H38.0271C38.0031 29.5639 37.9801 29.5734 37.963 29.5903C37.9459 29.6071 37.9362 29.6301 37.9359 29.6541V32.3253C37.936 32.5903 37.8451 32.8474 37.6783 33.0533C37.5115 33.2592 37.2789 33.4016 37.0196 33.4564C35.0394 33.871 33.1538 34.6515 31.4599 35.7579C31.238 35.9027 30.973 35.9668 30.7095 35.9395C30.4459 35.9121 30.1997 35.795 30.0122 35.6077L28.1232 33.7187C28.106 33.7021 28.083 33.6928 28.0591 33.6928C28.0352 33.6928 28.0122 33.7021 27.9949 33.7187L24.5773 37.1375C24.5607 37.1547 24.5515 37.1777 24.5515 37.2016C24.5515 37.2255 24.5607 37.2485 24.5773 37.2657L26.4664 39.1536C26.6539 39.3412 26.7712 39.5876 26.7986 39.8514C26.8259 40.1152 26.7617 40.3804 26.6166 40.6025C25.5101 42.296 24.7292 44.1811 24.3139 46.161C24.2593 46.4203 24.1173 46.653 23.9115 46.82C23.7058 46.987 23.4489 47.0782 23.1839 47.0784H20.5127C20.4888 47.0784 20.4659 47.0879 20.449 47.1048C20.4321 47.1217 20.4226 47.1446 20.4226 47.1685V52.0015C20.4224 52.0134 20.4246 52.0252 20.4291 52.0363C20.4336 52.0474 20.4402 52.0574 20.4486 52.0659C20.4569 52.0744 20.4669 52.0812 20.4779 52.0858C20.489 52.0904 20.5008 52.0927 20.5127 52.0927H23.1839C23.4488 52.0928 23.7055 52.1839 23.9112 52.3507C24.1169 52.5175 24.2591 52.7499 24.3139 53.0089C24.7292 54.9888 25.5101 56.8739 26.6166 58.5675C26.7617 58.7895 26.8259 59.0547 26.7986 59.3186C26.7712 59.5824 26.6539 59.8288 26.4664 60.0163L24.5773 61.9054C24.5607 61.9226 24.5515 61.9456 24.5515 61.9695C24.5515 61.9934 24.5607 62.0164 24.5773 62.0336L27.9949 65.4512C28.0033 65.4597 28.0133 65.4665 28.0243 65.4711C28.0353 65.4757 28.0471 65.478 28.0591 65.478C28.071 65.478 28.0828 65.4757 28.0938 65.4711C28.1048 65.4665 28.1148 65.4597 28.1232 65.4512L30.0122 63.5634C30.1192 63.4557 30.2465 63.3703 30.3867 63.3122C30.527 63.2541 30.6773 63.2244 30.8291 63.2248Z" fill="black"/>
<path d="M40.4384 62.2475C40.0144 62.2475 39.5881 62.2267 39.1617 62.184C35.8185 61.8424 32.7478 60.1868 30.6252 57.5813C28.5027 54.9758 27.5021 51.6338 27.8436 48.2905C28.1851 44.9472 29.8408 41.8766 32.4463 39.754C35.0518 37.6314 38.3938 36.6309 41.7371 36.9724C44.976 37.2948 47.9666 38.8516 50.0886 41.3198C52.2106 43.788 53.3012 46.9782 53.1341 50.2289C52.9671 53.4796 51.5553 56.5412 49.1915 58.779C46.8278 61.0167 43.6934 62.2587 40.4384 62.2475ZM40.4639 39.2242C37.7695 39.2272 35.1829 40.2828 33.2558 42.1659C31.3287 44.0489 30.2136 46.6104 30.1482 49.304C30.0829 51.9975 31.0725 54.61 32.906 56.5843C34.7396 58.5586 37.2719 59.7384 39.963 59.872C42.654 60.0057 45.2908 59.0827 47.311 57.2998C49.3311 55.5169 50.5748 53.0153 50.7767 50.3285C50.9786 47.6418 50.1227 44.9824 48.3917 42.9177C46.6607 40.8529 44.1914 39.5462 41.5106 39.2762C41.1594 39.2415 40.8093 39.2242 40.4627 39.2242H40.4639Z" fill="black"/>
</svg>
