<svg width="47" height="47" viewBox="0 0 47 47" fill="none" xmlns="http://www.w3.org/2000/svg">
<path d="M8.3387 21.9839H6.82257V23.5H8.3387V21.9839Z" fill="#FECC2F"/>
<path d="M6.82259 19.7097H5.30646V21.2258H6.82259V19.7097Z" fill="#FECC2F"/>
<path d="M13.6452 23.5H12.129V25.0161H13.6452V23.5Z" fill="#FECC2F"/>
<path d="M16.6774 21.9839H15.1613V23.5H16.6774V21.9839Z" fill="#FECC2F"/>
<path d="M37.1452 43.9677C39.6536 43.9677 41.6935 41.9278 41.6935 39.4194C41.6935 36.9109 39.6536 34.871 37.1452 34.871C34.6367 34.871 32.5968 36.9109 32.5968 39.4194C32.5968 41.9278 34.6367 43.9677 37.1452 43.9677ZM34.2349 38.6151L35.4532 39.3185L36.2112 38.0056L34.9847 37.2968C35.3637 36.9109 35.8474 36.635 36.3871 36.4947V37.9032H37.9032V36.4947C38.4422 36.635 38.9266 36.9109 39.3056 37.2968L38.0799 38.0048L38.8379 39.3178L40.0561 38.6143C40.1266 38.8728 40.1774 39.1389 40.1774 39.4194C40.1774 39.6998 40.1266 39.9659 40.0554 40.2237L38.8372 39.5202L38.0791 40.8332L39.3056 41.5419C38.9266 41.9278 38.4422 42.2037 37.9032 42.344V40.9355H36.3871V42.344C35.8481 42.2037 35.3637 41.9278 34.9847 41.5419L36.2105 40.8339L35.4524 39.5209L34.2342 40.2244C34.1637 39.9659 34.1129 39.6998 34.1129 39.4194C34.1129 39.1389 34.1637 38.8728 34.2349 38.6151Z" fill="#FECC2F"/>
<path d="M45.4839 45.4839V31.8387H43.9677V27.2903H41.6935V18.6385C42.1719 17.8418 42.4516 16.9139 42.4516 15.9194C42.4516 14.0371 41.4631 12.3845 39.9818 11.4422L33.1297 3.78502C32.474 1.59876 30.4454 0 28.0484 0C26.1866 0 24.5484 0.966532 23.6008 2.42202L14.7732 10.8077C13.9855 11.5559 13.5436 12.5664 13.5292 13.6527C13.5193 14.4442 13.743 15.1992 14.1591 15.8496L10.077 19.9318L11.1489 21.0037L15.2075 16.945C15.9004 17.4431 16.7093 17.7046 17.5249 17.7038C18.4945 17.7038 19.4663 17.3506 20.2358 16.6403L26.9037 10.4848C27.1319 10.5356 27.3654 10.5705 27.6042 10.5902L31.866 15.3842C31.8478 15.5608 31.8387 15.7389 31.8387 15.9194C31.8387 16.9139 32.1192 17.8418 32.5968 18.6385V27.2903H30.3226V31.8387H28.8065V45.4839H15.1613V31.8387H13.6452V30.3226H15.1613V28.8065H13.5686C13.2161 27.0788 11.6856 25.7742 9.85484 25.7742H3.03226V28.8065H1.51613V30.3226H3.03226V31.8387H1.51613V45.4839H0V47H1.51613H15.1613H28.8065H45.4839H47V45.4839H45.4839ZM4.54839 27.2903H9.85484C10.8418 27.2903 11.6757 27.9263 11.9895 28.8065H4.54839V27.2903ZM4.54839 30.3226H12.129V31.8387H4.54839V30.3226ZM13.6452 37.9032H12.129V39.4194H13.6452V45.4839H3.03226V39.4194H10.6129V37.9032H3.03226V33.3548H13.6452V37.9032ZM40.9355 15.9194C40.9355 18.0093 39.2351 19.7097 37.1452 19.7097C35.0552 19.7097 33.3548 18.0093 33.3548 15.9194C33.3548 13.8294 35.0552 12.129 37.1452 12.129C39.2351 12.129 40.9355 13.8294 40.9355 15.9194ZM40.1774 20.2676V27.2903H34.1129V20.2676C34.9733 20.8695 36.0179 21.2258 37.1452 21.2258C38.2724 21.2258 39.317 20.8695 40.1774 20.2676ZM19.2078 15.5259C18.2254 16.4326 16.7176 16.403 15.7723 15.4577C15.2955 14.9809 15.037 14.3464 15.0461 13.6725C15.0552 12.9985 15.3288 12.3709 15.8178 11.9069L22.7435 5.32692C22.751 7.25544 23.7949 8.93985 25.3436 9.86242L19.2078 15.5259ZM28.0431 9.09677C25.9554 9.09298 24.2581 7.39416 24.2581 5.30645C24.2581 3.21647 25.9584 1.51613 28.0484 1.51613C30.1384 1.51613 31.8387 3.21647 31.8387 5.30645C31.8387 7.39492 30.1399 9.0945 28.0514 9.09677H28.0431ZM32.3542 13.6535L29.4735 10.4128C31.4225 9.86773 32.919 8.23789 33.2707 6.21613L37.2073 10.6159C37.1869 10.6159 37.1664 10.6129 37.1452 10.6129C35.0309 10.6129 33.2063 11.8592 32.3542 13.6535ZM31.8387 28.8065H32.5968H41.6935H42.4516V31.8387H31.8387V28.8065ZM43.9677 45.4839H30.3226V33.3548H43.9677V45.4839Z" fill="#FECC2F"/>
</svg>
