<svg width="16" height="162" viewBox="0 0 16 162" fill="none" xmlns="http://www.w3.org/2000/svg">
<path d="M7.64644 160.854C7.8417 161.049 8.15828 161.049 8.35355 160.854L11.5355 157.672C11.7308 157.476 11.7308 157.16 11.5355 156.964C11.3403 156.769 11.0237 156.769 10.8284 156.964L7.99999 159.793L5.17157 156.964C4.9763 156.769 4.65972 156.769 4.46446 156.964C4.2692 157.16 4.2692 157.476 4.46446 157.672L7.64644 160.854ZM7.49999 -1.70244e-09L7.49999 2.50781L8.49999 2.50781L8.49999 1.70187e-09L7.49999 -1.70244e-09ZM7.49999 7.52344L7.49999 12.5391L8.49999 12.5391L8.49999 7.52344L7.49999 7.52344ZM7.49999 17.5547L7.49999 22.5703L8.49999 22.5703L8.49999 17.5547L7.49999 17.5547ZM7.49999 27.5859L7.49999 32.6016L8.49999 32.6016L8.49999 27.5859L7.49999 27.5859ZM7.49999 37.6172L7.49999 42.6328L8.49999 42.6328L8.49999 37.6172L7.49999 37.6172ZM7.49999 47.6484L7.49999 52.6641L8.49999 52.6641L8.49999 47.6484L7.49999 47.6484ZM7.49999 57.6797L7.49999 62.6953L8.49999 62.6953L8.49999 57.6797L7.49999 57.6797ZM7.49999 67.7109L7.49999 72.7266L8.49999 72.7266L8.49999 67.7109L7.49999 67.7109ZM7.49999 77.7422L7.49999 82.7578L8.49999 82.7578L8.49999 77.7422L7.49999 77.7422ZM7.49999 87.7734L7.49999 92.7891L8.49999 92.7891L8.49999 87.7734L7.49999 87.7734ZM7.49999 97.8047L7.49999 102.82L8.49999 102.82L8.49999 97.8047L7.49999 97.8047ZM7.49999 107.836L7.49999 112.852L8.49999 112.852L8.49999 107.836L7.49999 107.836ZM7.49999 117.867L7.49999 122.883L8.49999 122.883L8.49999 117.867L7.49999 117.867ZM7.49999 127.898L7.49999 132.914L8.49999 132.914L8.49999 127.898L7.49999 127.898ZM7.49999 137.93L7.49999 142.945L8.49999 142.945L8.49999 137.93L7.49999 137.93ZM7.49999 147.961L7.49999 152.977L8.49999 152.977L8.49999 147.961L7.49999 147.961ZM7.49999 157.992L7.49999 160.5L8.49999 160.5L8.49999 157.992L7.49999 157.992ZM7.29289 161.207C7.68341 161.598 8.31658 161.598 8.7071 161.207L15.0711 154.843C15.4616 154.453 15.4616 153.819 15.0711 153.429C14.6805 153.038 14.0474 153.038 13.6568 153.429L7.99999 159.086L2.34314 153.429C1.95261 153.038 1.31945 153.038 0.928925 153.429C0.538401 153.819 0.538401 154.453 0.928925 154.843L7.29289 161.207ZM6.99999 -3.40459e-09L6.99999 2.50781L8.99999 2.50781L8.99999 3.40403e-09L6.99999 -3.40459e-09ZM6.99999 7.52344L6.99999 12.5391L8.99999 12.5391L8.99999 7.52344L6.99999 7.52344ZM6.99999 17.5547L6.99999 22.5703L8.99999 22.5703L8.99999 17.5547L6.99999 17.5547ZM6.99999 27.5859L6.99999 32.6016L8.99999 32.6016L8.99999 27.5859L6.99999 27.5859ZM6.99999 37.6172L6.99999 42.6328L8.99999 42.6328L8.99999 37.6172L6.99999 37.6172ZM6.99999 47.6484L6.99999 52.6641L8.99999 52.6641L8.99999 47.6484L6.99999 47.6484ZM6.99999 57.6797L6.99999 62.6953L8.99999 62.6953L8.99999 57.6797L6.99999 57.6797ZM6.99999 67.7109L6.99999 72.7266L8.99999 72.7266L8.99999 67.7109L6.99999 67.7109ZM6.99999 77.7422L6.99999 82.7578L8.99999 82.7578L8.99999 77.7422L6.99999 77.7422ZM6.99999 87.7734L6.99999 92.7891L8.99999 92.7891L8.99999 87.7734L6.99999 87.7734ZM6.99999 97.8047L6.99999 102.82L8.99999 102.82L8.99999 97.8047L6.99999 97.8047ZM6.99999 107.836L6.99999 112.852L8.99999 112.852L8.99999 107.836L6.99999 107.836ZM6.99999 117.867L6.99999 122.883L8.99999 122.883L8.99999 117.867L6.99999 117.867ZM6.99999 127.898L6.99999 132.914L8.99999 132.914L8.99999 127.898L6.99999 127.898ZM6.99999 137.93L6.99999 142.945L8.99999 142.945L8.99999 137.93L6.99999 137.93ZM6.99999 147.961L6.99999 152.977L8.99999 152.977L8.99999 147.961L6.99999 147.961ZM6.99999 157.992L6.99999 160.5L8.99999 160.5L8.99999 157.992L6.99999 157.992Z" fill="#E7B518"/>
</svg>
