<svg width="42" height="60" viewBox="0 0 42 60" fill="none" xmlns="http://www.w3.org/2000/svg">
<path d="M7.96489 39.7179C7.95628 39.7613 7.95628 39.8046 7.95628 39.8479C7.95628 39.8998 7.95628 39.9864 7.94775 40.0211C7.59617 41.2078 7.8877 42.1867 8.83103 43.0355C9.19982 43.356 9.35412 43.8238 9.27694 44.3175C9.1826 44.8545 8.83103 45.2962 8.32508 45.4955C8.31647 45.4955 8.30793 45.5041 8.29939 45.5041C7.39036 45.894 6.92731 46.535 6.86727 47.4532C6.85012 47.6956 6.80722 47.9642 6.77293 48.2414C6.73011 48.5359 6.68714 48.8391 6.66146 49.1336C6.60141 49.7313 6.7215 50.225 7.03025 50.5975C7.33893 50.97 7.81059 51.1779 8.41941 51.2125C8.43655 51.2125 8.4537 51.2125 8.47084 51.2125H32.7992C32.8335 51.2125 32.8678 51.2125 32.9107 51.2125C32.9621 51.2125 33.005 51.2125 33.0564 51.2125C33.3736 51.2125 33.7767 51.1692 34.1627 50.8574C34.6686 50.4763 34.9086 49.8699 34.8229 49.177C34.7801 48.8219 34.7286 48.4754 34.6685 48.1289C34.6171 47.7824 34.5656 47.4619 34.5228 47.1327C34.5228 47.1154 34.5142 47.0894 34.5142 47.072C34.317 46.1019 33.6995 45.7208 33.2021 45.5649C32.679 45.4177 32.2932 44.9586 32.1817 44.3869C32.1302 44.0924 32.0787 43.3388 32.8334 42.7584C33.4422 42.3426 33.7167 41.7189 33.648 40.974C33.6052 40.3936 33.5194 39.8133 33.4337 39.259C33.2879 38.2542 32.6361 37.6738 31.6242 37.6738H10.2716C8.71094 37.717 8.18785 38.1674 7.96489 39.7179Z" fill="black"/>
<path d="M15.3205 28.6809L22.4746 23.4326C22.4831 23.4413 22.4831 23.4413 22.4917 23.4499C23.6637 24.6187 25.2272 24.7839 26.6851 24.4114C27.2597 24.2901 27.7742 24.3595 28.2115 24.6366C28.6231 24.9138 29.069 25.139 29.4978 25.3556C30.9299 26.1265 32.2161 25.8926 33.3309 24.6626C33.3396 24.6539 33.3481 24.6453 33.3481 24.6366L34.7373 22.9822C34.7459 22.9735 34.7459 22.9649 34.7544 22.9562C35.2174 22.3585 35.4147 21.7954 35.3375 21.2151C35.269 20.6434 34.9431 20.141 34.3514 19.6646C32.945 18.5645 31.5472 17.4558 30.1494 16.3557C28.7516 15.2556 27.3539 14.1469 25.9389 13.0382C24.9098 12.2499 24.5239 11.3491 24.7126 10.2143C24.7126 10.197 24.7212 10.1797 24.7212 10.171C24.7898 9.54737 24.5068 9.20086 24.3267 9.05362C24.1037 8.86305 23.6921 8.67248 23.0404 8.87167C21.797 9.25281 20.8537 9.99778 20.3135 11.0458C19.8676 11.9381 19.2416 12.3019 18.2125 12.2672C15.7257 12.1546 14.3364 13.6704 13.4103 14.9957C12.1926 16.6935 11.6181 18.6771 11.215 20.3835C10.7777 22.1852 10.529 24.0735 10.4347 26.317C10.3832 27.2265 10.3746 28.136 10.3746 29.0109C10.3746 29.5826 10.366 30.1716 10.3489 30.7606C10.3489 30.7693 10.3489 30.7779 10.3489 30.7866V33.5411C10.3489 34.7364 11.2751 35.6719 12.4584 35.6719H24.2495L29.4719 35.7586C30.5867 35.7586 31.4528 34.9011 31.4528 33.8009V31.9299C31.4528 30.6999 30.8354 29.5739 29.7806 28.9069C29.7721 28.8982 28.4172 28.0494 26.8907 26.7067C26.5392 26.3951 19.2011 25.1532 15.3205 28.6809Z" fill="black"/>
</svg>
