<svg width="52" height="58" viewBox="0 0 52 58" fill="none" xmlns="http://www.w3.org/2000/svg">
<g clip-path="url(#clip0)">
<path d="M40.4652 0.277344H3.36242C2.94155 0.277344 2.6003 0.65282 2.6003 1.11591V6.84193C1.118 7.17773 0 8.62488 0 10.3536C0 12.0824 1.118 13.5294 2.6003 13.8654V15.3914C1.118 15.7274 0 17.1743 0 18.9032C0 20.6321 1.118 22.079 2.6003 22.4149V23.941C1.118 24.2768 0 25.7238 0 27.4526C0 29.1814 1.118 30.6284 2.6003 30.9643V32.4903C1.118 32.8264 0 34.2733 0 36.0023C0 37.7311 1.118 39.1781 2.6003 39.514V41.04C1.118 41.3759 0 42.8229 0 44.5517C0 46.2806 1.118 47.7275 2.6003 48.0634V53.7895C2.6003 54.2526 2.94155 54.628 3.36242 54.628H10.2819C10.7027 54.628 11.044 54.2526 11.044 53.7895C11.0439 53.3264 10.7027 52.9509 10.2818 52.9509H4.12444V42.9008C4.64251 43.2311 4.9927 43.8466 4.9927 44.5515C4.9927 45.0146 5.33395 45.3901 5.75482 45.3901C6.1757 45.3901 6.51695 45.0146 6.51695 44.5515C6.51695 42.9046 5.50204 41.5143 4.12455 41.0958V34.3512C4.64262 34.6815 4.9928 35.297 4.9928 36.0019C4.9928 36.465 5.33405 36.8405 5.75493 36.8405C6.1758 36.8405 6.51705 36.465 6.51705 36.0019C6.51705 34.355 5.50214 32.9647 4.12465 32.5462V25.8016C4.64272 26.1319 4.9929 26.7474 4.9929 27.4524C4.9929 27.9154 5.33415 28.2909 5.75503 28.2909C6.1759 28.2909 6.51715 27.9154 6.51715 27.4524C6.51715 25.8054 5.50224 24.4151 4.12475 23.9966V17.252C4.64282 17.5823 4.99301 18.1979 4.99301 18.9028C4.99301 19.3659 5.33425 19.7413 5.75513 19.7413C6.176 19.7413 6.51725 19.3659 6.51725 18.9028C6.51725 17.2558 5.50234 15.8655 4.12485 15.447V8.70288C4.64292 9.03321 4.99311 9.64873 4.99311 10.3536C4.99311 10.8167 5.33436 11.1922 5.75523 11.1922C6.1761 11.1922 6.51735 10.8167 6.51735 10.3536C6.51735 8.70668 5.50244 7.31641 4.12495 6.89791V1.95436H39.7035V7.60685C39.7035 8.06994 40.0448 8.44541 40.4657 8.44541C40.8865 8.44541 41.2278 8.06994 41.2278 7.60685V1.11591C41.2273 0.65282 40.886 0.277344 40.4652 0.277344ZM2.6003 46.3164C1.9696 46.0305 1.52415 45.3476 1.52415 44.5517C1.52415 43.756 1.9696 43.0731 2.6003 42.7872V46.3164ZM2.6003 37.7668C1.9696 37.4809 1.52415 36.798 1.52415 36.0023C1.52415 35.2065 1.9696 34.5236 2.6003 34.2376V37.7668ZM2.6003 29.2172C1.9696 28.9315 1.52415 28.2486 1.52415 27.4527C1.52415 26.6569 1.9696 25.974 2.6003 25.6881V29.2172ZM2.6003 20.6678C1.9696 20.382 1.52415 19.6991 1.52415 18.9033C1.52415 18.1076 1.9696 17.4247 2.6003 17.1387V20.6678ZM2.6003 12.1182C1.9696 11.8324 1.52415 11.1495 1.52415 10.3535C1.52415 9.55776 1.9696 8.87486 2.6003 8.58901V12.1182Z" fill="black"/>
<path d="M15.9457 12.1352C15.6481 11.8078 15.1655 11.8078 14.868 12.1352L13.3278 13.8299L12.8272 13.2791C12.5297 12.9517 12.047 12.9517 11.7496 13.2791C11.452 13.6065 11.452 14.1375 11.7496 14.4649L12.789 15.6086C12.9378 15.7723 13.1329 15.8542 13.3279 15.8542C13.5229 15.8542 13.718 15.7724 13.8667 15.6086L15.9458 13.321C16.2434 12.9936 16.2434 12.4626 15.9457 12.1352Z" fill="black"/>
<path d="M17.3825 9.18359H10.2821C9.86127 9.18359 9.52002 9.55907 9.52002 10.0222V17.8346C9.52002 18.2977 9.86127 18.6732 10.2821 18.6732H17.3825C17.8033 18.6732 18.1446 18.2977 18.1446 17.8346V10.022C18.1446 9.55896 17.8033 9.18359 17.3825 9.18359ZM16.6204 16.9961H11.0443V10.8606H16.6204V16.9961Z" fill="black"/>
<path d="M32.8548 11.0786H21.161C20.7402 11.0786 20.3989 11.4541 20.3989 11.9172C20.3989 12.3803 20.7402 12.7557 21.161 12.7557H32.8547C33.2756 12.7557 33.6168 12.3803 33.6168 11.9172C33.6168 11.4541 33.2756 11.0786 32.8548 11.0786Z" fill="black"/>
<path d="M27.8515 14.9873H21.161C20.7402 14.9873 20.3989 15.3628 20.3989 15.8259C20.3989 16.289 20.7402 16.6644 21.161 16.6644H27.8515C28.2723 16.6644 28.6136 16.289 28.6136 15.8259C28.6136 15.3628 28.2723 14.9873 27.8515 14.9873Z" fill="black"/>
<path d="M15.9457 25.4546C15.6481 25.1271 15.1655 25.1271 14.868 25.4546L13.3278 27.1492L12.8272 26.5984C12.5297 26.271 12.047 26.271 11.7496 26.5984C11.452 26.9258 11.452 27.4569 11.7496 27.7842L12.789 28.9279C12.9378 29.0917 13.1329 29.1736 13.3279 29.1736C13.5229 29.1736 13.718 29.0917 13.8667 28.9279L15.9458 26.6403C16.2434 26.3129 16.2434 25.7819 15.9457 25.4546Z" fill="black"/>
<path d="M17.3825 22.5029H10.2821C9.86127 22.5029 9.52002 22.8784 9.52002 23.3415V31.154C9.52002 31.6171 9.86127 31.9925 10.2821 31.9925H17.3825C17.8033 31.9925 18.1446 31.6171 18.1446 31.154V23.3415C18.1446 22.8784 17.8033 22.5029 17.3825 22.5029ZM16.6204 30.3155H11.0443V24.1801H16.6204V30.3155Z" fill="black"/>
<path d="M32.8548 24.3984H21.161C20.7402 24.3984 20.3989 24.7739 20.3989 25.237C20.3989 25.7001 20.7402 26.0756 21.161 26.0756H32.8547C33.2757 26.0756 33.6169 25.7001 33.6169 25.237C33.6169 24.7739 33.2756 24.3984 32.8548 24.3984Z" fill="black"/>
<path d="M27.8515 28.3071H21.161C20.7402 28.3071 20.3989 28.6826 20.3989 29.1457C20.3989 29.6088 20.7402 29.9842 21.161 29.9842H27.8515C28.2723 29.9842 28.6136 29.6088 28.6136 29.1457C28.6136 28.6826 28.2723 28.3071 27.8515 28.3071Z" fill="black"/>
<path d="M15.9457 38.7739C15.6482 38.4465 15.1656 38.4465 14.868 38.7739L13.3278 40.4686L12.8272 39.9177C12.5297 39.5903 12.047 39.5903 11.7496 39.9177C11.452 40.2452 11.452 40.7762 11.7496 41.1035L12.789 42.2473C12.9378 42.4111 13.1329 42.4929 13.3279 42.4929C13.5229 42.4929 13.718 42.411 13.8667 42.2473L15.9458 39.9597C16.2434 39.6321 16.2434 39.1012 15.9457 38.7739Z" fill="black"/>
<path d="M17.3825 35.8223H10.2821C9.86127 35.8223 9.52002 36.1977 9.52002 36.6608V44.4733C9.52002 44.9364 9.86127 45.3119 10.2821 45.3119H17.3825C17.8033 45.3119 18.1446 44.9364 18.1446 44.4733V36.6608C18.1446 36.1977 17.8033 35.8223 17.3825 35.8223ZM16.6204 43.6348H11.0443V37.4993H16.6204V43.6348Z" fill="black"/>
<path d="M41.2275 30.6909V10.9592C41.2275 10.4961 40.8863 10.1206 40.4654 10.1206C40.0445 10.1206 39.7033 10.4961 39.7033 10.9592V30.5964C39.5895 30.5971 39.4764 30.5999 39.3633 30.6042C39.3375 30.6052 39.3118 30.6068 39.286 30.608C39.1811 30.6126 39.0764 30.6187 38.9722 30.6262C38.9346 30.6289 38.8971 30.6318 38.8596 30.6348C38.7483 30.644 38.6374 30.6546 38.527 30.667C38.5099 30.6689 38.4928 30.6703 38.4758 30.6724C38.3496 30.6871 38.2243 30.7045 38.0994 30.7234C38.0658 30.7286 38.0324 30.7342 37.9988 30.7395C37.9012 30.7553 37.8038 30.7723 37.7071 30.7906C37.6747 30.7967 37.6421 30.8025 37.6098 30.809C37.4861 30.8335 37.363 30.8596 37.2405 30.8881C37.2241 30.8919 37.208 30.8963 37.1916 30.9002C37.0841 30.9258 36.9772 30.9531 36.8708 30.9818C36.8372 30.9908 36.8037 31.0001 36.77 31.0095C36.6669 31.0383 36.5641 31.0686 36.462 31.1004C36.4431 31.1063 36.424 31.1116 36.4051 31.1177C36.2847 31.1558 36.1651 31.1961 36.0461 31.2381C36.02 31.2474 35.9941 31.2571 35.9681 31.2665C35.8715 31.3015 35.7754 31.3377 35.68 31.3753C35.6518 31.3863 35.6236 31.3972 35.5956 31.4084C35.3598 31.5033 35.1274 31.606 34.8986 31.7161C34.8724 31.7287 34.8462 31.7416 34.8201 31.7544C34.7211 31.8029 34.6228 31.8528 34.5254 31.9042C34.5095 31.9125 34.4933 31.9207 34.4775 31.9291C34.363 31.99 34.2497 32.0529 34.1371 32.1175C34.1223 32.126 34.1077 32.1349 34.0929 32.1435C33.9951 32.2004 33.898 32.2587 33.8017 32.3185C33.7805 32.3317 33.7592 32.3448 33.7381 32.3581C33.5179 32.4965 33.3021 32.642 33.0906 32.7948C33.0737 32.807 33.0569 32.8195 33.0401 32.8318C32.9443 32.9017 32.8493 32.973 32.7555 33.0459C32.745 33.0541 32.7345 33.0619 32.724 33.07C32.6169 33.1536 32.511 33.239 32.4066 33.3263C32.4055 33.3272 32.4044 33.3282 32.4033 33.3292C32.3034 33.4125 32.205 33.498 32.1077 33.5848C32.0943 33.5967 32.0809 33.6087 32.0675 33.6206C31.8668 33.8008 31.6713 33.9877 31.4815 34.1812C31.4742 34.1886 31.467 34.1961 31.4597 34.2036C31.3692 34.2964 31.2799 34.3906 31.1919 34.4862C31.1862 34.4926 31.1803 34.4989 31.1744 34.5052C30.988 34.7088 30.8077 34.9191 30.6334 35.1355C30.6264 35.1442 30.6195 35.1528 30.6125 35.1615C30.4372 35.3803 30.2681 35.6053 30.1059 35.8364C30.1055 35.8369 30.1051 35.8375 30.1047 35.8381C30.0242 35.9528 29.9454 36.0692 29.8682 36.1868C29.865 36.1916 29.8619 36.1964 29.8587 36.2012C29.7031 36.4389 29.5546 36.6824 29.413 36.9313C29.4095 36.9374 29.4061 36.9435 29.4026 36.9496C29.2606 37.2002 29.1259 37.456 28.9987 37.7171H21.1616C20.7408 37.7171 20.3995 38.0926 20.3995 38.5557C20.3995 39.0188 20.7408 39.3942 21.1616 39.3942H28.3125C28.3119 39.396 28.3115 39.3977 28.3109 39.3995C28.2548 39.567 28.2019 39.7363 28.1517 39.9068C28.1463 39.9252 28.1408 39.9434 28.1355 39.9617C28.0868 40.1298 28.041 40.299 27.9981 40.4698C27.9939 40.4866 27.9899 40.5034 27.9858 40.52C27.8967 40.8808 27.8206 41.2473 27.7589 41.6194C27.7586 41.6215 27.7581 41.6235 27.7578 41.6255H21.1616C20.7408 41.6255 20.3995 42.001 20.3995 42.4641C20.3995 42.9272 20.7408 43.3027 21.1616 43.3027H27.5785C27.5785 43.303 27.5785 43.3034 27.5785 43.3038C27.5726 43.4222 27.5681 43.5409 27.5651 43.6601C27.5649 43.6644 27.5647 43.6685 27.5646 43.6728C27.5616 43.7955 27.5599 43.9185 27.5599 44.042C27.5599 44.152 27.5613 44.2619 27.5636 44.3714C27.5644 44.4079 27.566 44.4442 27.567 44.4806C27.5691 44.5537 27.5713 44.6269 27.5746 44.6997C27.5764 44.7422 27.579 44.7845 27.5812 44.8269C27.5848 44.8941 27.5884 44.9612 27.5929 45.0282C27.5957 45.0713 27.5991 45.1145 27.6022 45.1576C27.6072 45.2242 27.6125 45.2909 27.6184 45.3574C27.622 45.3986 27.6259 45.4399 27.6299 45.4811C27.6368 45.5512 27.6441 45.6212 27.6518 45.6911C27.6558 45.7272 27.6598 45.7633 27.6642 45.7992C27.6735 45.8776 27.6836 45.9557 27.694 46.0337C27.6977 46.0604 27.7011 46.0871 27.7049 46.1137C27.7184 46.2097 27.7329 46.3056 27.7483 46.401C27.7496 46.4088 27.7507 46.4168 27.7519 46.4246C28.1461 48.8487 29.1365 51.1014 30.6239 52.9488H13.3305C12.9096 52.9488 12.5684 53.3243 12.5684 53.7874C12.5684 54.2505 12.9096 54.626 13.3305 54.626H32.2504C34.327 56.4184 36.9419 57.4883 39.7797 57.4883C46.5182 57.4883 52.0002 51.4563 52.0002 44.042C52.0002 37.1671 47.286 31.4814 41.2275 30.6909ZM39.7797 55.8115C34.6298 55.8115 30.3186 51.7861 29.3078 46.4446C29.3048 46.4288 29.3017 46.4132 29.2987 46.3974C29.2856 46.3265 29.2734 46.2551 29.2614 46.1838C29.2559 46.1505 29.2502 46.1171 29.2449 46.0836C29.2351 46.0226 29.226 45.9612 29.2172 45.8998C29.2108 45.8558 29.2046 45.8117 29.1987 45.7674C29.1914 45.7128 29.1844 45.658 29.1778 45.6029C29.1716 45.5515 29.1658 45.5001 29.1602 45.4485C29.1548 45.3987 29.1494 45.349 29.1446 45.2989C29.1392 45.2417 29.1342 45.1843 29.1294 45.1269C29.1256 45.0809 29.1216 45.0351 29.1182 44.989C29.1137 44.9266 29.11 44.8639 29.1065 44.8013C29.104 44.7594 29.1013 44.7176 29.0991 44.6756C29.0957 44.6051 29.0934 44.5343 29.0911 44.4635C29.09 44.4289 29.0884 44.3945 29.0876 44.3597C29.085 44.2541 29.0836 44.148 29.0836 44.042C29.0836 37.5524 33.8819 32.2728 39.7799 32.2728C39.8823 32.2728 39.9852 32.2746 40.0902 32.2781C40.0955 32.2782 40.1007 32.2785 40.106 32.2787C40.2067 32.2823 40.3095 32.2873 40.4154 32.2942C46.0186 32.6573 50.4763 37.7872 50.4763 44.042C50.4761 50.5318 45.6777 55.8115 39.7797 55.8115Z" fill="black"/>
<path d="M39.779 34.7603C38.0885 34.7603 36.4572 35.3086 35.0617 36.3461C34.7129 36.6053 34.6212 37.1265 34.8568 37.5104C35.0926 37.8941 35.5661 37.995 35.915 37.7358C37.0577 36.8863 38.3939 36.4374 39.7792 36.4374C43.5906 36.4374 46.6913 39.8491 46.6913 44.0428C46.6913 48.2365 43.5906 51.6482 39.7792 51.6482C35.9677 51.6482 32.867 48.2364 32.867 44.0428C32.867 42.5435 33.2628 41.0934 34.0116 39.8494C34.244 39.4633 34.148 38.943 33.797 38.6873C33.4461 38.4315 32.9733 38.5373 32.7409 38.9235C31.8263 40.4428 31.3428 42.2131 31.3428 44.0428C31.3428 49.1612 35.1273 53.3252 39.779 53.3252C44.4308 53.3252 48.2153 49.161 48.2153 44.0428C48.2153 38.9244 44.4309 34.7603 39.779 34.7603Z" fill="black"/>
<path d="M40.5522 41.4793V38.4274C40.5522 37.9643 40.2109 37.5889 39.79 37.5889C39.3692 37.5889 39.0279 37.9643 39.0279 38.4274V41.4793C38.1047 41.8285 37.4393 42.7928 37.4393 43.9255C37.4393 44.3929 37.5532 44.8315 37.7511 45.2103L36.6956 46.5126C36.4156 46.8583 36.4433 47.3884 36.7573 47.6966C36.9026 47.8391 37.0838 47.9092 37.2642 47.9092C37.4738 47.9092 37.6827 47.8146 37.8332 47.6288L38.8961 46.3172C39.1718 46.4425 39.4737 46.512 39.7899 46.512C41.0861 46.512 42.1407 45.3517 42.1407 43.9255C42.1408 42.7928 41.4753 41.8285 40.5522 41.4793ZM39.7901 44.8351C39.3343 44.8351 38.9635 44.4271 38.9635 43.9256C38.9635 43.4241 39.3343 43.0161 39.7901 43.0161C40.2459 43.0161 40.6168 43.4241 40.6168 43.9256C40.6168 44.4272 40.246 44.8351 39.7901 44.8351Z" fill="black"/>
</g>
<defs>
<clipPath id="clip0">
<rect width="52" height="57.2156" fill="white" transform="translate(0 0.274414)"/>
</clipPath>
</defs>
</svg>
