<svg width="58" height="58" viewBox="0 0 58 58" fill="none" xmlns="http://www.w3.org/2000/svg">
<path d="M26.435 29.7746H18.1192H16.8254L17.4684 28.6519C17.7061 28.2368 18.0495 27.7325 18.4173 27.1956C19.0868 26.2185 19.5407 25.1525 19.526 23.9828C19.492 21.2818 17.2853 19.072 14.5846 19.0344L26.435 29.7746ZM26.435 29.7746L26.4294 35.51M26.435 29.7746L26.4294 35.51M26.4294 35.51C25.652 35.2745 24.8388 35.1519 24.016 35.1519L26.4294 35.51ZM26.4282 51.4508V57.2499L2.44521 57.2498C1.523 57.2498 0.775391 56.5022 0.775391 55.58V31.4444C0.775391 30.5223 1.52301 29.7746 2.4452 29.7746H10.9066H12.2003L11.5575 28.652C11.3194 28.2362 10.9445 27.6848 10.6043 27.1901C9.9471 26.2341 9.49948 25.1911 9.49948 24.0474C9.49948 21.2783 11.7439 19.0337 14.5129 19.0339H14.5129C14.5366 19.0339 14.5606 19.0341 14.5842 19.0344L26.4282 51.4508ZM26.4282 51.4508C25.6511 51.6861 24.8383 51.8085 24.016 51.8085C22.8837 51.8085 21.7825 51.5841 20.7462 51.1415L20.7462 51.1415C19.7469 50.7145 18.8511 50.1038 18.0862 49.3282L18.5714 48.8496L18.0862 49.3282C16.5098 47.7299 15.6574 45.6087 15.6884 43.363C15.7186 41.1876 16.5895 39.1367 18.1359 37.5924C19.6819 36.0485 21.7332 35.1804 23.9084 35.1526L26.4282 51.4508Z" stroke="black" stroke-width="1.5"/>
<path d="M50.3741 30.7902C50.8263 31.7757 51.0661 32.8552 51.0661 33.9524C51.0661 35.9768 50.2779 37.8799 48.8466 39.3112C47.4153 40.7425 45.5122 41.5307 43.4878 41.5307C43.4526 41.5307 43.4166 41.5304 43.3809 41.5299C41.4023 41.5025 39.5379 40.7115 38.1306 39.3025C36.7235 37.8935 35.9349 36.0278 35.91 34.0492C35.8959 32.9173 36.1356 31.8044 36.6011 30.79H30.815H29.9076H28.9916L28.9927 39.874C28.6722 39.6905 28.0788 39.291 27.5326 38.9144C26.521 38.2164 25.3395 37.717 24.0154 37.717C23.9907 37.717 23.9662 37.7171 23.9414 37.7175C20.8339 37.7565 18.2956 40.2914 18.2525 43.3988C18.2378 44.4635 18.512 45.4629 19.0013 46.324C19.9924 48.0677 21.8664 49.244 24.0154 49.244C25.3395 49.244 26.4938 48.7038 27.5324 48.0466C28.1723 47.6418 28.6721 47.2703 28.9926 47.0869V47.1295V57.9681H29H29.9074H30.8149H55.5479C56.8844 57.9681 57.9678 56.8847 57.9678 55.5483V30.7902H50.3741Z" fill="black"/>
<path d="M46.4553 29.3685C46.4548 29.3678 46.4544 29.3671 46.454 29.3663L46.4453 29.3514L45.792 28.2251H47.094H57.2252V27.9456V2.41985C57.2252 2.41984 57.2252 2.41982 57.2252 2.41981C57.2251 1.49759 56.4775 0.75 55.5553 0.75H29.75V9.51618C29.777 9.49559 29.8024 9.47665 29.8256 9.45971C30.9509 8.5321 32.3943 7.97403 33.9662 7.97403C37.5942 7.97403 40.5294 10.9403 40.4792 14.5796V14.5796C40.4306 18.0935 37.5637 20.9563 34.0498 21.0004L34.0496 21.0004C34.0225 21.0008 33.9945 21.001 33.9662 21.001C32.3941 21.001 30.9509 20.443 29.8257 19.5154C29.8024 19.4984 29.777 19.4795 29.75 19.4589V28.2252H30.8149H39.8813H41.0828L40.5551 29.3046C40.4872 29.4435 40.3129 29.7164 40.1416 29.9766C39.9557 30.2588 39.7302 30.5903 39.5263 30.8782L39.5263 30.8783C38.8749 31.7983 38.4601 32.8611 38.4745 34.0171L46.4553 29.3685ZM46.4553 29.3685C46.6528 29.7121 47.0062 30.2338 47.441 30.8671L48.0307 30.4623L47.4411 30.8671C48.0779 31.7947 48.5011 32.827 48.5011 33.9524C48.5011 35.425 47.8674 36.7483 46.8554 37.6666C45.9648 38.4744 44.7845 38.9659 43.4877 38.9659C43.4649 38.9659 43.4411 38.9657 43.4163 38.9654C40.7154 38.9279 38.5085 36.718 38.4745 34.0171L46.4553 29.3685Z" stroke="black" stroke-width="1.5"/>
</svg>
