<svg width="47" height="47" viewBox="0 0 47 47" fill="none" xmlns="http://www.w3.org/2000/svg">
<g clip-path="url(#clip0_811_2366)">
<path d="M21.1254 2.12534C7.91861 3.43531 3.76773 21.2582 15.6983 27.7299L15.8805 29.5671C14.5479 30.949 14.6157 33.33 16.0463 34.6301C14.267 37.1015 16.2839 40.6085 19.3407 40.2931L19.388 40.2884C21.1897 46.2526 29.7296 45.4015 30.3231 39.2042L30.3703 39.1995C33.431 38.9078 34.7176 35.0729 32.4886 32.9998C33.6362 31.4436 33.2345 29.0958 31.6569 28.0028L31.4747 26.1657C41.906 17.4727 34.3255 0.814871 21.1254 2.12534ZM29.4396 29.8126C30.9168 29.7278 31.1235 31.8238 29.6594 32.03L18.6299 33.1236C17.1526 33.2084 16.9459 31.1125 18.41 30.9062L29.4396 29.8126ZM25.0647 41.8557C23.7058 41.9905 22.463 41.2196 21.9347 40.0359L27.7764 39.4567C27.4909 40.721 26.4234 41.721 25.0647 41.8557ZM30.1248 36.7235C28.2846 36.9058 20.8936 37.6386 19.0952 37.8171C17.6214 37.9031 17.4083 35.8077 18.8754 35.5997L29.9049 34.5061C31.3786 34.4199 31.592 36.5155 30.1248 36.7235ZM29.4106 24.6351C29.0708 24.8972 28.8901 25.3159 28.9324 25.7429L29.0915 27.3467L27.1792 27.5363L26.634 22.0373L29.0374 19.1495C29.4769 18.6214 29.4052 17.8369 28.877 17.3974C28.3489 16.9578 27.5644 17.0297 27.125 17.5578L24.3884 20.8459C24.1752 21.102 24.0737 21.4329 24.1066 21.7645L24.7032 27.7818L22.6467 27.9857L22.0501 21.9684C22.0175 21.6401 21.8558 21.3382 21.6006 21.129L18.317 18.4378C17.7857 18.0023 17.0018 18.08 16.5662 18.6114C16.1307 19.1428 16.2084 19.9267 16.7398 20.3622L19.6249 22.7268L20.1707 28.2313L18.2671 28.4201L18.1081 26.8163C18.0658 26.3892 17.8063 26.0141 17.4217 25.8239C7.04287 20.8631 10.3019 5.7102 21.371 4.60135C32.4426 3.51543 38.6132 17.7342 29.4106 24.6351Z" fill="#212121"/>
<path d="M38.5362 9.61258C38.7101 9.59533 38.8833 9.54099 39.0438 9.4464L41.2776 8.13125C41.8697 7.78267 42.067 7.02008 41.7184 6.42796C41.3699 5.83593 40.6072 5.63834 40.0152 5.98708L37.7814 7.30223C36.6363 7.99793 37.2228 9.73129 38.5362 9.61258Z" fill="#F7D033"/>
<path d="M42.1939 12.0333L39.6099 12.2895C37.9738 12.5178 38.2076 14.8635 39.8554 14.7655L42.4394 14.5093C44.0755 14.2811 43.8417 11.9354 42.1939 12.0333Z" fill="#F7D033"/>
<path d="M42.2703 18.5187L39.8219 17.6678C38.2412 17.188 37.4685 19.4152 39.0051 20.0182L41.4536 20.8691C42.088 21.0935 42.8115 20.7577 43.0371 20.1023C43.2627 19.4532 42.9194 18.7443 42.2703 18.5187Z" fill="#F7D033"/>
<path d="M5.80788 21.0403L3.57409 22.3555C2.98198 22.7041 2.78463 23.4667 3.13322 24.0588C3.48317 24.6572 4.25843 24.8443 4.83651 24.4996L7.07029 23.1845C7.66241 22.8359 7.85975 22.0733 7.51117 21.4812C7.16258 20.8891 6.39999 20.6917 5.80788 21.0403Z" fill="#F7D033"/>
<path d="M5.24163 18.1973C6.87773 17.969 6.64391 15.6233 4.99613 15.7213L2.41215 15.9775C0.77604 16.2058 1.00987 18.5515 2.65765 18.4535L5.24163 18.1973Z" fill="#F7D033"/>
<path d="M5.8465 10.4685L3.39795 9.61764C2.7489 9.39204 2.03993 9.73546 1.8144 10.3844C1.58879 11.0335 1.93213 11.7424 2.58116 11.968L5.02971 12.8188C5.66406 13.0433 6.38761 12.7074 6.61318 12.0521C6.83878 11.403 6.49545 10.6941 5.8465 10.4685Z" fill="#F7D033"/>
</g>
<defs>
<clipPath id="clip0_811_2366">
<rect width="42.4516" height="42.4516" fill="white" transform="translate(0 4.18848) rotate(-5.66243)"/>
</clipPath>
</defs>
</svg>
