<svg width="52" height="52" fill="none" xmlns="http://www.w3.org/2000/svg"><g clip-path="url(#clip0)" fill="#FECC2F"><path d="M33.548 50.323v-5.998c0-.355.073-.699.217-1.022l2.777-6.246a4.18 4.18 0 0 0 .361-1.705v-1.804h10.903V4.194h-5.87V0H32.71A7.557 7.557 0 0 0 26 4.092 7.557 7.557 0 0 0 19.29 0h-9.225v4.194H4.194v29.354h10.903v1.648c0 .71.182 1.414.527 2.036l3.35 6.029c.207.371.316.794.316 1.22v5.842H0V52h52v-1.677H33.548zM46.13 5.87v26H28.516v.839A2.52 2.52 0 0 1 26 35.226c-.105 0-.206-.026-.31-.04a10.868 10.868 0 0 0-2.716-4.992h18.961V5.87h4.194zM11.742 1.677h7.548a5.878 5.878 0 0 1 5.871 5.871v6.71h1.678v-6.71a5.878 5.878 0 0 1 5.87-5.87h7.55v26.838h-13.42v-12.58H25.16v12.58h-3.355v-4.193a5.037 5.037 0 0 0-5.032-5.033 1.68 1.68 0 0 0-1.677 1.678v7.548h-3.355V1.677zM5.87 31.871v-26h4.194v24.322h5.032v1.678H5.87zm11.22 4.546a2.527 2.527 0 0 1-.317-1.221V20.968a3.358 3.358 0 0 1 3.355 3.355v5.38l1.474 1.473a9.223 9.223 0 0 1 2.72 6.566H26c0-.283-.02-.562-.041-.841l.041.002a4.2 4.2 0 0 0 4.109-3.355h5.117v1.804c0 .355-.073.699-.217 1.022l-2.776 6.247a4.19 4.19 0 0 0-.288.992H20.869a4.206 4.206 0 0 0-.429-1.168l-3.35-6.028zm3.877 12.228h7.548v-1.677h-7.548V45.29H31.87v1.678h-1.677v1.677h1.677v1.678H20.968v-1.678z"/><path d="M32.71 21.807h1.678v1.677h-1.677v-1.677zm3.353 0h1.677v1.677h-1.678v-1.677zm-6.708 0h1.678v1.677h-1.678v-1.677zm-.839 3.354H38.58v1.678H28.516V25.16zm0-6.709H38.58v1.677H28.516v-1.677zm0-5.872H38.58v1.678H28.516v-1.677zm0-3.354H38.58v1.677H28.516V9.226zm0-3.355H38.58V7.55H28.516V5.87zM17.613 9.226h1.678v1.677h-1.678V9.226zm3.356 0h1.677v1.677H20.97V9.226zm-6.711 0h1.677v1.677h-1.677V9.226zm-.84-3.355h10.065V7.55H13.418V5.87zm0 6.709h10.065v1.678H13.418v-1.677zm0 3.355h10.065v1.678H13.418v-1.678z"/></g><defs><clipPath id="clip0"><path fill="#fff" d="M0 0h52v52H0z"/></clipPath></defs></svg>