<svg width="53" height="53" viewBox="0 0 53 53" fill="none" xmlns="http://www.w3.org/2000/svg">
<g clip-path="url(#clip0)">
<path d="M1.8161 24.7457H7.54934L9.60755 28.8623C9.75076 29.1488 10.0436 29.3299 10.364 29.3299C10.6844 29.3299 10.9772 29.1489 11.1204 28.8623L13.1787 24.7457H13.5987C14.0658 24.7457 14.4444 24.3671 14.4444 23.9C14.4444 23.4328 14.0658 23.0542 13.5987 23.0542H12.6561C12.3357 23.0542 12.0428 23.2351 11.8996 23.5217L10.364 26.5929L8.82845 23.5217C8.68524 23.2353 8.39238 23.0542 8.07201 23.0542H1.8161C1.74742 23.0542 1.69149 22.9984 1.69149 22.9297V1.8161C1.69149 1.74742 1.74742 1.69149 1.8161 1.69149H18.9119C18.9807 1.69149 19.0366 1.74742 19.0366 1.8161V10.9846C19.0366 11.4518 19.4153 11.8304 19.8823 11.8304C20.3494 11.8304 20.7281 11.4518 20.7281 10.9846V1.8161C20.7281 0.814734 19.9133 0 18.9119 0H1.8161C0.814734 0 0 0.814734 0 1.8161V22.9296C0 23.9311 0.814734 24.7457 1.8161 24.7457Z" fill="#FECC2F"/>
<path d="M10.3636 3.38281C8.03066 3.38281 6.13281 5.28066 6.13281 7.61356C6.13281 9.94647 8.03078 11.8444 10.3636 11.8444C12.6964 11.8444 14.5943 9.94647 14.5943 7.61356C14.5943 5.28066 12.6964 3.38281 10.3636 3.38281ZM10.3636 10.1528C8.96335 10.1528 7.8243 9.01367 7.8243 7.61345C7.8243 6.21346 8.96335 5.0743 10.3636 5.0743C11.7638 5.0743 12.9028 6.21346 12.9028 7.61356C12.9028 9.01378 11.7637 10.1528 10.3636 10.1528Z" fill="#FECC2F"/>
<path d="M10.3639 15.2277C11.3584 15.2277 12.3273 15.505 13.1656 16.0295C13.5617 16.2774 14.0834 16.1573 14.3312 15.7612C14.5789 15.3652 14.4588 14.8433 14.0629 14.5957C12.9552 13.9026 11.6761 13.5361 10.3639 13.5361C6.51444 13.5362 3.38281 16.668 3.38281 20.5172C3.38281 20.9844 3.76148 21.363 4.22856 21.363H13.5985C14.0656 21.363 14.4443 20.9844 14.4443 20.5172C14.4443 20.0501 14.0656 19.6715 13.5985 19.6715H5.14185C5.54792 17.1556 7.73502 15.2277 10.3639 15.2277Z" fill="#FECC2F"/>
<path d="M51.185 0H34.0892C33.0877 0 32.2729 0.814734 32.2729 1.8161V10.9846C32.2729 11.4518 32.6515 11.8304 33.1187 11.8304C33.5859 11.8304 33.9644 11.4518 33.9644 10.9846V1.8161C33.9644 1.74742 34.0204 1.69149 34.0892 1.69149H51.1849C51.2536 1.69149 51.3094 1.74742 51.3094 1.8161V22.9296C51.3094 22.9983 51.2536 23.0541 51.1849 23.0541H44.9289C44.6085 23.0541 44.3157 23.2351 44.1725 23.5216L42.6369 26.5928L41.1013 23.5216C40.958 23.2351 40.6652 23.0541 40.3448 23.0541H39.4023C38.9352 23.0541 38.5566 23.4327 38.5566 23.8998C38.5566 24.367 38.9352 24.7456 39.4023 24.7456H39.8223L41.8806 28.8622C42.0239 29.1488 42.3167 29.3297 42.637 29.3297C42.9574 29.3297 43.2503 29.1488 43.3935 28.8622L45.4518 24.7456H51.185C52.1864 24.7456 53.001 23.9309 53.001 22.9296V1.8161C53.001 0.814734 52.1863 0 51.185 0Z" fill="#FECC2F"/>
<path d="M42.6357 3.38281C40.3027 3.38281 38.4048 5.28066 38.4048 7.61356C38.4048 9.94647 40.3027 11.8444 42.6357 11.8444C44.9686 11.8444 46.8664 9.94647 46.8664 7.61356C46.8664 5.28066 44.9684 3.38281 42.6357 3.38281ZM42.6357 10.1528C41.2354 10.1528 40.0963 9.01367 40.0963 7.61345C40.0963 6.21335 41.2354 5.07419 42.6357 5.07419C44.0358 5.07419 45.1749 6.21335 45.1749 7.61345C45.1748 9.01378 44.0358 10.1528 42.6357 10.1528Z" fill="#FECC2F"/>
<path d="M38.5548 20.5171C38.5548 20.9843 38.9333 21.3629 39.4005 21.3629H48.7705C49.2377 21.3629 49.6162 20.9843 49.6162 20.5171C49.6162 16.6678 46.4846 13.5361 42.6352 13.5361C41.323 13.5361 40.044 13.9025 38.9363 14.5957C38.5403 14.8433 38.4202 15.3652 38.6679 15.7612C38.9157 16.1572 39.4373 16.2773 39.8335 16.0295C40.672 15.505 41.6406 15.2277 42.6352 15.2277C45.2641 15.2277 47.4511 17.1556 47.8573 19.6715H39.4006C38.9334 19.6714 38.5548 20.0501 38.5548 20.5171Z" fill="#FECC2F"/>
<path d="M16.1343 15.3375V36.4511C16.1343 37.4525 16.949 38.2671 17.9504 38.2671H23.6836L25.7418 42.3837C25.8852 42.6701 26.178 42.8512 26.4983 42.8512C26.8185 42.8512 27.1115 42.6702 27.2547 42.3837L29.313 38.2671H35.0462C36.0476 38.2671 36.8623 37.4523 36.8623 36.4511V15.3375C36.8623 14.3361 36.0475 13.5215 35.0462 13.5215H17.9504C16.949 13.5214 16.1343 14.3361 16.1343 15.3375ZM35.1709 15.3375V36.4511C35.1709 36.5198 35.1149 36.5756 35.0463 36.5756H28.7905C28.4701 36.5756 28.1772 36.7565 28.034 37.0431L26.4984 40.1143L24.9628 37.0431C24.8196 36.7567 24.5268 36.5756 24.2064 36.5756H17.9505C17.8818 36.5756 17.8259 36.5198 17.8259 36.4511V15.3375C17.8259 15.2688 17.8818 15.213 17.9505 15.213H35.0463C35.1149 15.2129 35.1709 15.2687 35.1709 15.3375Z" fill="#FECC2F"/>
<path d="M26.5013 25.3654C28.8341 25.3654 30.732 23.4675 30.732 21.1346C30.732 18.8017 28.8342 16.9038 26.5013 16.9038C24.1684 16.9038 22.2705 18.8017 22.2705 21.1346C22.2705 23.4675 24.1684 25.3654 26.5013 25.3654ZM26.5013 18.5954C27.9014 18.5954 29.0405 19.7346 29.0405 21.1347C29.0405 22.5349 27.9014 23.6741 26.5013 23.6741C25.101 23.6741 23.962 22.5349 23.962 21.1347C23.962 19.7346 25.101 18.5954 26.5013 18.5954Z" fill="#FECC2F"/>
<path d="M20.3633 34.8844H32.634C33.1012 34.8844 33.4797 34.5058 33.4797 34.0386C33.4797 30.1892 30.3481 27.0576 26.4987 27.0576C22.6493 27.0576 19.5176 30.1892 19.5176 34.0386C19.5176 34.5057 19.8962 34.8844 20.3633 34.8844ZM26.4987 28.749C29.1275 28.749 31.3146 30.6768 31.7208 33.1928H21.2767C21.6827 30.6768 23.8698 28.749 26.4987 28.749Z" fill="#FECC2F"/>
<path d="M43.0203 49.6734C43.5177 49.6734 43.9224 49.2687 43.9224 48.7713C43.9224 48.2739 43.5177 47.8691 43.0203 47.8691C42.5229 47.8691 42.1182 48.2739 42.1182 48.7713C42.1182 49.2687 42.5229 49.6734 43.0203 49.6734Z" fill="#FECC2F"/>
<path d="M38.3968 49.6734C38.8942 49.6734 39.2989 49.2687 39.2989 48.7713C39.2989 48.2739 38.8942 47.8691 38.3968 47.8691C37.8993 47.8691 37.4946 48.2739 37.4946 48.7713C37.4946 49.2687 37.8993 49.6734 38.3968 49.6734Z" fill="#FECC2F"/>
<path d="M47.6438 49.6734C48.1412 49.6734 48.546 49.2687 48.546 48.7713C48.546 48.2739 48.1412 47.8691 47.6438 47.8691C47.1464 47.8691 46.7417 48.2739 46.7417 48.7713C46.7417 49.2687 47.1464 49.6734 47.6438 49.6734Z" fill="#FECC2F"/>
<path d="M52.1543 44.5425H0.845745C0.378668 44.5425 0 44.921 0 45.3882V52.1542C0 52.6214 0.378668 52.9999 0.845745 52.9999H52.1543C52.6214 52.9999 53 52.6214 53 52.1542V45.3882C53 44.921 52.6214 44.5425 52.1543 44.5425ZM1.69149 46.234H32.984V51.3084H1.69149V46.234ZM51.3085 51.3084H34.6755V46.234H51.3085V51.3084Z" fill="#FECC2F"/>
</g>
<defs>
<clipPath id="clip0">
<rect width="53" height="53" fill="white"/>
</clipPath>
</defs>
</svg>
