<svg width="49" height="49" fill="none" xmlns="http://www.w3.org/2000/svg"><path d="M48.282 0H.718A.717.717 0 0 0 0 .718v29.875a.718.718 0 1 0 1.436 0V9.092h22.346v26.076h-1.825a3.468 3.468 0 0 0-2.938 1.63h-7.756c-.484 0-.948.085-1.38.24H1.436v-3.35a.718.718 0 1 0-1.436 0v4.067c0 .396.321.718.718.718h7.231a4.15 4.15 0 0 0-.82 2.481c0 .785.637 1.423 1.42 1.423h11.858a9.39 9.39 0 0 1 4.564 1.187 10.824 10.824 0 0 0 5.263 1.369h.092l2.01 3.692a.717.717 0 0 0 .63.375h6.878a.717.717 0 1 0 0-1.435h-6.45l-1.54-2.827 9.526-1.79.011-.003.71-.133 2.834 4.753h-2.06a.717.717 0 1 0 0 1.435h3.324a.717.717 0 0 0 .616-1.086l-3.738-6.268a.718.718 0 0 0-.75-.338l-.444.084c-.181-1.093-.574-2.08-1.163-2.92h7.562a.718.718 0 0 0 .718-.717V12.226a.717.717 0 1 0-1.435 0v24.811H39.34c-1.617-1.24-3.915-1.87-6.848-1.87h-7.275V9.093h22.347v.095a.717.717 0 1 0 1.435 0V.717A.717.717 0 0 0 48.282 0zm-9.668 38.29a.76.76 0 0 0 .039.032c1.127.944 1.635 2.16 1.821 3.335l-9.789 1.84h-.451a9.377 9.377 0 0 1-4.564-1.187 10.83 10.83 0 0 0-5.263-1.368H8.565c.007-1.495 1.215-2.709 2.698-2.709h7.252a3.54 3.54 0 0 0-.023.4 1.241 1.241 0 0 0 1.206 1.24c3.96.109 7.048.505 7.869 1.01.376.232.84.588 1.243.907a.717.717 0 1 0 .889-1.127c-.458-.362-.943-.733-1.38-1.002-1.424-.877-5.776-1.139-8.383-1.217a2.031 2.031 0 0 1 2.021-1.84h10.536c2.986 0 4.906.687 6.12 1.685zM1.436 7.655v-6.22h46.129v6.22H1.434z" fill="#FECC2F"/><path d="M5.122 2.345A2.156 2.156 0 0 0 2.97 4.498c0 1.187.966 2.153 2.153 2.153a2.156 2.156 0 0 0 2.153-2.153 2.156 2.156 0 0 0-2.153-2.153zm0 2.87a.718.718 0 1 1 .001-1.436.718.718 0 0 1 0 1.437zm5.742-2.87a2.156 2.156 0 0 0-2.153 2.153c0 1.187.966 2.153 2.153 2.153a2.156 2.156 0 0 0 2.154-2.153 2.156 2.156 0 0 0-2.154-2.153zm0 2.87a.718.718 0 1 1 .002-1.436.718.718 0 0 1-.002 1.437zm5.742-2.87a2.156 2.156 0 0 0-2.153 2.153c0 1.187.966 2.153 2.153 2.153a2.156 2.156 0 0 0 2.154-2.153 2.156 2.156 0 0 0-2.154-2.153zm0 2.87a.718.718 0 1 1 .002-1.436.718.718 0 0 1-.002 1.437zm27.983 16.359H28.128a.717.717 0 1 0 0 1.435h16.46a.718.718 0 0 0 0-1.435zm-16.461-2.617h8.23a.718.718 0 1 0 0-1.436h-8.23a.718.718 0 1 0 0 1.436zm16.461 6.046H28.128a.718.718 0 1 0 0 1.436h16.46a.718.718 0 0 0 0-1.436zm0 3.429H28.128a.718.718 0 1 0 0 1.435h16.46a.718.718 0 1 0 0-1.435zM5 29.054v.01a3.172 3.172 0 0 0 3.169 3.169h8.88a3.172 3.172 0 0 0 3.168-3.17v-.009c0-3.176-1.957-5.903-4.728-7.04a5.229 5.229 0 0 0 2.349-4.362 5.235 5.235 0 0 0-5.23-5.23 5.235 5.235 0 0 0-5.23 5.23c0 1.82.936 3.424 2.35 4.362C6.957 23.15 5 25.878 5 29.054zm3.814-11.402a3.799 3.799 0 0 1 3.794-3.795 3.798 3.798 0 0 1 3.794 3.795 3.798 3.798 0 0 1-3.794 3.794 3.798 3.798 0 0 1-3.794-3.794zm3.794 5.23a6.18 6.18 0 0 1 6.173 6.172v.01c0 .956-.777 1.733-1.733 1.733h-8.88a1.735 1.735 0 0 1-1.732-1.733v-.01a6.18 6.18 0 0 1 6.172-6.173z" fill="#FECC2F"/><path d="M15.283 18.664a.717.717 0 0 0-.975-.282c-.008.004-.796.423-1.698.423-.902 0-1.69-.418-1.7-.424a.718.718 0 0 0-.69 1.258c.044.025 1.107.602 2.39.602 1.282 0 2.345-.577 2.39-.602a.718.718 0 0 0 .283-.975zM12.05 16.42a.615.615 0 1 1-1.23-.002.615.615 0 0 1 1.23.001zm2.348 0a.615.615 0 1 1-1.23-.001.615.615 0 0 1 1.23 0z" fill="#FECC2F"/></svg>