<svg xmlns="http://www.w3.org/2000/svg" width="89" height="66" fill="none"><path stroke="#FECC2F" stroke-width="2" d="M67.3 60.8h-.02v.02c-3.04 1.76-5.68 3.07-7.95 3.95l-7.6-12.85c3.3-1.52 6.13-3.8 8.5-6.85 2.6-3.18 4.12-6.7 4.5-10.5l.1-1.1h-1.1c-3.23 0-6.2-1.43-8.92-4.5v-.02l-.03-.02c-2.82-2.83-4.28-6.7-4.28-11.7 0-4.94 1.68-8.88 5.04-11.9C58.74 2.45 62.78 1 67.77 1c6.4 0 11.3 1.98 14.84 5.86 3.58 4.1 5.4 9.5 5.4 16.3 0 7.1-1.06 13.05-3.14 17.92-2.3 4.95-4.92 8.98-7.88 12.1-3.16 3.36-6.4 5.9-9.68 7.63zm-49.5 0l-.03.02c-3.02 1.76-5.66 3.07-7.93 3.95l-7.6-12.85c3.3-1.52 6.13-3.8 8.5-6.85 2.6-3.18 4.12-6.7 4.5-10.5l.1-1.1h-1.1c-3.23 0-6.2-1.43-8.92-4.5l-.02-.02-.02-.02C2.46 26.1 1 22.23 1 17.23c0-4.94 1.7-8.88 5.04-11.9C9.24 2.45 13.3 1 18.28 1c6.4 0 11.3 1.98 14.84 5.86 3.56 4.1 5.4 9.5 5.4 16.3 0 7.1-1.07 13.05-3.15 17.92-2.3 4.95-4.92 8.98-7.88 12.1-3.17 3.36-6.4 5.9-9.7 7.63z"/></svg>