<svg xmlns="http://www.w3.org/2000/svg" width="1024" height="342" version="1" viewBox="0 0 151.33 50.575001"><path fill="#231f20" d="M127.2 18.28c-5.24 0-9.73 2.28-9.73 6.8 0 4.84 4.32 7.2 9.72 7.2 2.54 0 4.57-.2 6.7-.72V24.4h-6.7v2.4h1.35v1.98c-.38.12-.9.13-1.34.13-2.5 0-3.37-1.6-3.37-3.45 0-2.47 2.03-3.78 5.13-3.78 1.74 0 3.42.34 4.3.78V18.8c-1.55-.3-3.05-.5-6.08-.5zm-98.9.25v13.53h13.17v-3.78h-6.9v-9.75H28.3zm19.45 0l-5.7 13.53h6.17l1-2.94h5.34l1.06 2.94h6.5l-5.78-13.53h-8.6zm15.97 0v13.53h6.25V27.2h7.37v-3.23h-7.37v-2.25h7.7v-3.2H63.7zm19.34 0l-5.7 13.53h6.2l1-2.94h5.35L91 32.06h6.47l-5.78-13.53h-8.6zm16.03 0v13.53h6.02v-4.6h1.6c.75 0 1.38.07 1.77.7.5.8.56 2.94.83 3.9h6.5c-.65-1.3-.57-3.4-1.53-4.84-.57-.72-1.38-1.27-2.74-1.47v-.03c2.32-.46 3.88-1.52 3.88-3.6 0-2.6-2.4-3.6-6.28-3.6H99.1zm38 0v13.53h14.23v-3.22h-8.15v-2.06h7.6v-3.16h-7.6V21.7h8v-3.17h-14.1zm-85.2 2.44h.06l1.94 5.34h-3.96L51.9 21zm35.34 0h.03l1.94 5.34h-3.96l2-5.32zm17.88.5h1.78c1.25 0 2.44.17 2.44 1.47 0 1.46-1.26 1.6-2.53 1.6h-1.66v-3.07z"/><path fill="#00a870" d="M26.7 34.9v-18h7.9L42.03 0h-19.8L0 50.57h33.62l3.32-7.52h-13.8l3.56-8.14"/></svg>