<svg width="72" height="64" viewBox="0 0 72 64" fill="none" xmlns="http://www.w3.org/2000/svg">
<path d="M66.4965 15.2103C67.0025 15.4927 67.6398 15.3077 67.9197 14.797C69.9725 11.0514 71.2057 7.24448 71.4858 3.78774C71.5373 3.14744 70.9907 2.59604 70.3563 2.64832C66.3608 2.97806 61.9857 4.60885 57.7954 7.23758C57.3422 5.38091 56.7697 3.93035 56.0575 2.83362C54.9632 1.14858 53.5357 0.293945 51.8146 0.293945H6.11399C3.94977 0.293945 2.31572 0.995833 1.25777 2.38045C-0.795857 5.06724 0.272287 9.29364 0.318782 9.47232C0.439699 9.93677 0.855786 10.2607 1.33163 10.2607H10.5498C11.4861 16.2746 11.4384 24.8265 11.3941 32.6979C11.3716 36.6945 11.3483 40.827 11.4434 44.5934C11.4581 45.1767 11.9377 45.6365 12.5168 45.623C13.095 45.6082 13.5518 45.1232 13.5371 44.5397C13.443 40.8063 13.4662 36.6905 13.4885 32.7102C13.5416 23.2776 13.5927 14.204 12.2846 8.07503C12.1601 7.49179 12.0184 6.91094 11.8526 6.33813C11.3912 4.7382 10.8045 3.40643 10.0587 2.40792H51.8146C53.7121 2.40792 55.0611 4.39353 55.9293 8.47325C54.7991 9.27547 53.6969 10.1477 52.6281 11.0789C50.2378 13.1611 48.0307 15.5355 46.1327 18.1092H18.2637C17.6854 18.1092 17.2165 18.5824 17.2165 19.166C17.2165 19.7497 17.6854 20.2229 18.2637 20.2229H44.6737C43.9007 21.4206 43.2062 22.6361 42.5981 23.8562H18.2637C17.6854 23.8562 17.2165 24.3294 17.2165 24.913C17.2165 25.4967 17.6854 25.9699 18.2637 25.9699H41.6319C41.1261 27.1883 40.7112 28.4037 40.3911 29.6032H18.2637C17.6854 29.6032 17.2165 30.0764 17.2165 30.66C17.2165 31.2437 17.6854 31.7169 18.2637 31.7169H39.9228C39.8355 32.2205 39.7687 32.719 39.7189 33.2127L36.4846 36.4768C36.0756 36.8895 36.0756 37.5587 36.4846 37.9713C36.8806 38.3708 37.5582 38.3825 37.9656 37.9713L41.1985 34.7086C43.1402 34.5098 45.0462 34.0283 46.8819 33.3665C48.7713 32.6854 50.5904 31.81 52.3266 30.7968C54.0001 29.8203 55.5986 28.7137 57.1147 27.5037C57.114 29.2334 57.1042 30.9855 57.0945 32.6971C57.0517 40.2928 57.0076 48.1293 57.7778 53.8874C57.7778 53.8874 23.0876 53.8874 23.0458 53.8874C22.3822 53.8874 21.8787 54.5275 22.0263 55.1793C22.0286 55.1897 22.0297 55.2003 22.0324 55.2107C22.0327 55.212 22.0344 55.2186 22.0367 55.2282C22.0948 55.4724 22.803 58.6121 21.5115 60.4061C21.5077 60.4114 21.5039 60.4168 21.5 60.4221C20.7564 61.4412 19.4415 61.747 18.2506 61.7402C15.7056 61.7257 14.2192 57.47 13.7066 48.7311C13.6724 48.1486 13.1771 47.7046 12.5994 47.7387C12.022 47.7732 11.5816 48.2735 11.616 48.8561C12.0255 55.8389 13.1513 63.8541 18.2637 63.8541H63.9644C66.1286 63.8541 67.7626 63.1522 68.8206 61.7676C70.8739 59.0806 69.8058 54.8542 69.7593 54.6756C69.6384 54.2111 69.2223 53.8871 68.7464 53.8871H59.893C59.102 48.2619 59.146 40.3626 59.189 32.7089C59.202 30.4037 59.2151 28.0262 59.2059 25.7223C59.7881 25.1947 60.3605 24.6482 60.9204 24.0832C62.6674 22.3201 64.2541 20.4279 65.636 18.4591C65.9702 17.9828 65.8587 17.3232 65.3867 16.9857C64.9148 16.6483 64.2612 16.7609 63.9268 17.2372C62.6129 19.1089 61.1031 20.9095 59.4394 22.5885C58.1277 23.9123 56.7286 25.1502 55.2535 26.2854C51.6499 29.0571 47.7928 31.0479 44.1272 32.021C44.0092 32.0521 43.8907 32.0813 43.7723 32.1107L62.3824 13.3295C62.7914 12.9168 62.7914 12.2476 62.3824 11.835C61.9734 11.4223 61.3103 11.4223 60.9015 11.835L42.2915 30.6163C42.3182 30.5071 42.3437 30.3982 42.3722 30.2887C43.4411 26.1602 45.4939 22.3914 48.0613 19.0326C48.0623 19.0313 48.0631 19.0302 48.0641 19.0289C48.0721 19.0183 48.0803 19.0079 48.0883 18.9975C50.4826 15.8378 53.3245 13.0209 56.5006 10.6652C60.6717 7.57831 65.1455 5.53831 69.2473 4.90688C68.8209 7.71908 67.7407 10.7566 66.087 13.774C65.807 14.2848 65.9904 14.9278 66.4965 15.2103ZM10.1542 8.14661H2.19746V8.14675C2.14831 7.80504 2.10363 7.37553 2.09414 6.90545C2.07487 5.94386 2.20235 4.60124 2.91947 3.6667C3.56147 2.82996 4.58856 2.41779 6.05827 2.40764L6.74384 2.48374C6.75375 2.48613 6.76353 2.48867 6.7733 2.4912C8.15812 2.85532 9.23939 4.5336 9.9977 7.49038C10.0536 7.70823 10.1051 7.92721 10.1542 8.14661ZM67.8784 56.0011C68.0373 57.1212 68.1529 59.1807 67.1624 60.4768C66.5126 61.3271 65.4665 61.7404 63.9645 61.7404H23.1408C24.4876 59.9532 24.4697 57.4982 24.293 56.0011H67.8784Z" fill="white"/>
</svg>
