<svg width="1068" height="20" viewBox="0 0 1068 20" fill="none" xmlns="http://www.w3.org/2000/svg">
<path d="M1050.35 10.8521C1050.55 10.6568 1050.55 10.3402 1050.35 10.145L1047.17 6.963C1046.98 6.76774 1046.66 6.76774 1046.46 6.963C1046.27 7.15826 1046.27 7.47485 1046.46 7.67011L1049.29 10.4985L1046.46 13.327C1046.27 13.5222 1046.27 13.8388 1046.46 14.0341C1046.66 14.2293 1046.98 14.2293 1047.17 14.0341L1050.35 10.8521ZM0 10.9985H1050V9.99854H0V10.9985Z" fill="#FECC2F"/>
<path d="M1060.22 10.6881L1053.51 1.08279L1051.25 2.85219L1055.38 8.91871L1057.42 10.646L1055.38 12.1626L1051 18.1027L1053.21 19.9143L1060.22 10.6881ZM1068 10.6881L1061.2 0.998535L1058.9 2.81006L1063.07 8.91871L1065.11 10.646L1063.07 12.1626L1058.65 18.1449L1060.94 19.9985L1068 10.6881Z" fill="#FECC2F"/>
</svg>
