<?xml version="1.0" encoding="UTF-8" standalone="no"?>
<svg
   xmlns:dc="http://purl.org/dc/elements/1.1/"
   xmlns:cc="http://creativecommons.org/ns#"
   xmlns:rdf="http://www.w3.org/1999/02/22-rdf-syntax-ns#"
   xmlns:svg="http://www.w3.org/2000/svg"
   xmlns="http://www.w3.org/2000/svg"
   viewBox="0 0 3002.8 1051.9453"
   height="1051.9453"
   width="3002.8"
   xml:space="preserve"
   id="svg2"
   version="1.1"><metadata
     id="metadata8"><rdf:RDF><cc:Work
         rdf:about=""><dc:format>image/svg+xml</dc:format><dc:type
           rdf:resource="http://purl.org/dc/dcmitype/StillImage" /></cc:Work></rdf:RDF></metadata><defs
     id="defs6"><clipPath
       id="clipPath18"
       clipPathUnits="userSpaceOnUse"><path
         id="path16"
         d="M 0,788.959 H 2252.097 V 0 H 0 Z" /></clipPath></defs><g
     transform="matrix(1.3333333,0,0,-1.3333333,0,1051.9453)"
     id="g10"><g
       id="g12"><g
         clip-path="url(#clipPath18)"
         id="g14"><g
           transform="translate(2059.5527,351.6334)"
           id="g20"><path
             id="path22"
             style="fill:#101828;fill-opacity:1;fill-rule:nonzero;stroke:none"
             d="M 0,0 -39.907,-101.372 -79.813,0 h -48.057 v -144.48 h 34.949 v 91.466 l 38.745,-91.466 h 28.542 l 38.745,91.466 v -91.466 h 34.953 l 0,144.48 z m -225.386,4.057 c 39.688,0 79.082,-25.678 79.082,-76.457 0,-50.775 -39.394,-76.457 -79.082,-76.457 -39.686,0 -79.082,25.682 -79.082,76.457 0,50.779 39.396,76.457 79.082,76.457 m 0,-118.476 c 21.595,0 41.732,15.463 41.732,42.019 0,26.556 -20.137,42.024 -41.732,42.024 -21.594,0 -41.73,-15.468 -41.73,-42.024 0,-26.556 20.136,-42.019 41.73,-42.019 m -826.055,82.292 h 43.186 v -112.642 h 36.77 v 112.642 h 43.193 v 32.098 h -123.149 z m 526.125,36.183 c 41.438,0 70.623,-30.057 70.623,-72.369 V -81.152 H -566.17 c 2.333,-22.181 18.093,-36.185 39.688,-36.185 19.55,0 27.721,8.459 36.769,19.839 l 29.181,-14.59 c -14.594,-24.801 -34.727,-36.766 -66.535,-36.766 -40.273,0 -74.413,30.639 -74.413,76.457 0,45.814 34.14,76.453 76.164,76.453 m 36.477,-57.194 c -3.502,18.092 -17.219,29.18 -37.643,29.18 -19.259,0 -33.853,-12.839 -39.107,-29.18 z m -353.37,57.194 c 41.438,0 70.623,-30.057 70.623,-72.369 v -12.839 h -111.476 c 2.333,-22.181 18.092,-36.185 39.687,-36.185 19.551,0 27.722,8.459 36.766,19.839 l 29.184,-14.59 c -14.59,-24.801 -34.726,-36.766 -66.535,-36.766 -40.269,0 -74.413,30.639 -74.413,76.457 0,45.814 34.144,76.453 76.164,76.453 m 36.478,-57.194 c -3.502,18.092 -17.215,29.18 -37.644,29.18 -19.259,0 -33.853,-12.839 -39.106,-29.18 z m 67.816,-28.893 c -1.751,-22.175 -6.135,-27.136 -13.721,-27.136 -5.184,0 -7.622,0.573 -11.169,1.499 l 0.183,-37.453 c 0,0 4.571,-1.401 13.034,-1.401 31.224,0 42.898,20.136 45.818,63.033 l 3.502,50.487 h 41.435 v -111.477 h 36.77 V -0.027 h -109.725 z m -391.499,-32.389 c -22.179,0 -38.517,16.048 -38.517,42.023 0,25.678 16.923,42.02 38.517,42.02 13.132,0 24.513,-6.127 33.561,-19.844 l 31.516,18.093 c -10.507,22.472 -33.267,36.184 -64.784,36.184 -41.15,0 -76.165,-30.35 -76.165,-76.453 0,-46.111 33.268,-76.457 76.165,-76.457 30.932,0 51.649,14.005 66.243,38.81 l -30.351,16.633 c -8.755,-12.257 -18.092,-21.009 -36.185,-21.009 M -1302.371,4.058 c 39.687,0 79.081,-25.682 79.081,-76.457 0,-50.779 -39.394,-76.453 -79.081,-76.453 -39.688,0 -79.082,25.674 -79.082,76.453 0,50.775 39.394,76.457 79.082,76.457 m 0,-118.476 c 21.595,0 41.731,15.463 41.731,42.019 0,26.556 -20.136,42.024 -41.731,42.024 -21.595,0 -41.731,-15.468 -41.731,-42.024 0,-26.556 20.136,-42.019 41.731,-42.019 m -163.404,173.919 c 46.107,0 76.457,-23.634 76.457,-66.531 0,-42.901 -30.35,-66.535 -76.457,-66.535 h -54.277 v -71.204 h -38.521 v 204.27 h 92.798 m -1.166,-98.632 c 26.844,0 39.102,12.839 39.102,32.101 0,19.259 -12.258,32.098 -39.102,32.098 h -53.111 v -64.199 h 53.111 m 1100.268,-28.017 68.286,-77.623 h -44.355 l -52.819,59.827 v -59.827 H -432.33 V -0.027 h 36.769 v -52.531 l 51.942,52.531 h 43.481 z" /></g><g
           transform="translate(383.1841,144.4796)"
           id="g24"><path
             id="path26"
             style="fill:#ff4f12;fill-opacity:1;fill-rule:nonzero;stroke:none"
             d="m 0,0 h -204.014 c -14.74,0 -23.406,13.167 -23.406,24.677 0,6.814 2.762,12.983 7.227,17.448 l 89.034,89.034 z" /></g><g
           transform="translate(179.1704,144.4796)"
           id="g28"><path
             id="path30"
             style="fill:#7700ff;fill-opacity:1;fill-rule:nonzero;stroke:none"
             d="m 0,0 c -15.405,0 -34.662,12.322 -34.662,36.81 v 274.273 c 0,37.06 -1.885,63.132 24.579,89.595 L 89.225,500 265.336,323.608 -16.179,42.125 C -20.645,37.66 -23.407,31.491 -23.407,24.677 -23.407,13.167 -14.741,0 0,0" /></g></g></g></g></svg>