<svg xmlns="http://www.w3.org/2000/svg" viewBox="0 0 648.6 417.5" enable-background="new 0 0 648.6 417.5"><style type="text/css">.st0{fill:#008D36;} .st1{fill:#1F4C6B;}</style><path d="M352.9 90v76.8h17.8v-59h178.4V90H352.9zm214 214H388.5v17.8h196.2V125.6h-17.8V304z" class="st0"/><path d="M101.6 239.7c0-5.6-.7-9.5-2.2-11.9-1.4-2.3-3.9-3.5-7.4-3.5-1.1 0-2.2.1-3.4.2-1.2.1-2.3.3-3.4.4v47.2H68V213c1.5-.4 3.2-.8 5.2-1.2s4.1-.8 6.3-1.2c2.2-.3 4.5-.6 6.8-.8 2.3-.2 4.6-.3 6.9-.3 4.4 0 8 .6 10.8 1.7 2.8 1.1 5 2.5 6.8 4 2.5-1.8 5.3-3.2 8.5-4.2s6.2-1.5 8.9-1.5c4.9 0 8.9.7 12 2 3.1 1.4 5.6 3.3 7.5 5.8 1.9 2.5 3.1 5.4 3.8 8.8.7 3.4 1 7.2 1 11.4V272h-17.3v-32.4c0-5.6-.7-9.5-2.2-11.9-1.4-2.3-3.9-3.5-7.4-3.5-.9 0-2.2.2-3.9.7-1.7.5-3 1-4.1 1.7.5 1.8.9 3.7 1 5.6.2 2 .2 4.1.2 6.3v33.4h-17.3v-32.2zm60.5 2.3c0-5.4.8-10.2 2.5-14.2 1.7-4.1 3.9-7.5 6.6-10.2 2.7-2.7 5.8-4.8 9.4-6.2 3.5-1.4 7.1-2.1 10.9-2.1 8.7 0 15.5 2.7 20.6 8 5 5.3 7.6 13.1 7.6 23.4 0 1 0 2.1-.1 3.3-.1 1.2-.2 2.3-.2 3.2h-39.3c.4 3.6 2.1 6.4 5 8.5 2.9 2.1 6.9 3.1 11.9 3.1 3.2 0 6.3-.3 9.4-.9 3.1-.6 5.6-1.3 7.5-2.2l2.3 14.1c-.9.5-2.2.9-3.7 1.4-1.6.5-3.3.9-5.2 1.2-1.9.3-3.9.6-6.1.9-2.2.2-4.3.3-6.5.3-5.5 0-10.3-.8-14.4-2.4-4.1-1.6-7.4-3.9-10.1-6.7-2.7-2.8-4.7-6.2-5.9-10.1-1.6-3.7-2.2-7.9-2.2-12.4zm40.7-6.6c-.1-1.5-.3-2.9-.8-4.3-.4-1.4-1.1-2.6-2-3.7-.9-1.1-2-2-3.4-2.7-1.4-.7-3-1-5.1-1-1.9 0-3.6.3-5 1s-2.6 1.5-3.5 2.6c-.9 1.1-1.6 2.3-2.2 3.8-.5 1.4-.9 2.9-1.1 4.4h23.1zm79.6 29.1c0 10-2.5 17.4-7.6 22.3-5.1 4.8-12.9 7.3-23.5 7.3-3.7 0-7.4-.3-11.2-1-3.7-.7-7.2-1.5-10.3-2.6l3-14.5c2.7 1.1 5.6 1.9 8.5 2.6 3 .6 6.4.9 10.2.9 5 0 8.5-1.1 10.5-3.3 2.1-2.2 3.1-5 3.1-8.4v-2.2c-1.9.9-3.8 1.5-5.8 1.9-2 .4-4.1.6-6.5.6-8.4 0-14.9-2.5-19.4-7.5-4.5-5-6.7-12-6.7-21 0-4.5.7-8.6 2.1-12.3 1.4-3.7 3.4-6.8 6.1-9.5 2.7-2.6 5.9-4.7 9.8-6.1 3.9-1.4 8.3-2.2 13.1-2.2 2.1 0 4.2.1 6.5.3 2.2.2 4.4.4 6.6.8s4.2.7 6.2 1.1c2 .4 3.7.9 5.3 1.3v51.5zm-38-24.9c0 9.7 3.9 14.5 11.7 14.5 1.8 0 3.4-.2 5-.7 1.5-.5 2.9-1 4-1.6v-27.7c-.9-.2-1.9-.3-3-.4-1.2-.1-2.5-.2-4.1-.2-4.6 0-8 1.5-10.2 4.5-2.3 3.1-3.4 6.9-3.4 11.6zm73-30.2c5.1 0 9.4.6 12.8 1.7 3.4 1.2 6.1 2.8 8.2 5 2.1 2.2 3.5 4.8 4.4 7.9.9 3.1 1.3 6.5 1.3 10.3v36c-2.5.5-5.9 1.2-10.3 1.9s-9.8 1.1-16 1.1c-4 0-7.5-.3-10.8-1-3.2-.7-6-1.8-8.3-3.4-2.3-1.6-4.1-3.7-5.3-6.2-1.2-2.6-1.9-5.7-1.9-9.4 0-3.6.7-6.6 2.2-9.1 1.4-2.5 3.4-4.5 5.8-5.9 2.4-1.5 5.2-2.5 8.3-3.2 3.1-.7 6.3-1 9.7-1 2.2 0 4.2.1 6 .3 1.7.2 3.2.4 4.2.8v-1.6c0-2.9-.9-5.3-2.7-7.1-1.8-1.8-4.9-2.7-9.3-2.7-2.9 0-5.9.2-8.7.6-2.9.4-5.3 1-7.4 1.8l-2.2-13.9c1-.3 2.3-.6 3.8-1 1.5-.3 3.2-.7 4.9-.9 1.8-.3 3.7-.5 5.6-.7 1.7-.2 3.7-.3 5.7-.3zm1.4 50.7c1.7 0 3.3 0 4.9-.1 1.5-.1 2.8-.2 3.7-.3v-13.1c-.7-.2-1.7-.3-3.1-.5-1.4-.2-2.7-.2-3.8-.2-1.6 0-3.2.1-4.6.3-1.4.2-2.7.6-3.8 1.1-1.1.5-1.9 1.3-2.6 2.2-.6.9-.9 2.1-.9 3.5 0 2.7.9 4.6 2.7 5.6 1.8.9 4.3 1.5 7.5 1.5zm51.7-52.1c0-1.6.2-3.1.5-4.5s.9-2.6 1.7-3.6c.8-1 1.9-1.8 3.4-2.4 1.4-.6 3.2-.9 5.3-.9 1.5 0 3.1.1 4.6.4 1.5.2 2.9.6 4.1 1.2l3-13.6c-1.5-.6-3.3-1.2-5.4-1.8-2.1-.5-4.8-.8-8.1-.8-8.8 0-15.4 2.3-19.8 7-4.5 4.7-6.7 10.9-6.7 18.8V304h17.3v-78.5h21.4V211h-21.4v-3zm51.2 50c-1.2-.5-2.2-1.2-2.9-2.1-.7-.9-1.1-1.9-1.3-3.1-.2-1.2-.3-2.6-.3-4.2V182l-17.3 2.8V252c0 3.3.3 6.2 1 8.8.7 2.6 1.9 4.8 3.7 6.6 1.8 1.8 4.3 3.2 7.4 4.2 3.1 1 7.2 1.5 12.3 1.6l2.4-14.3c-2.1 0-3.7-.4-5-.9zm8.1-16.1c0-5.4.8-10.2 2.5-14.2 1.7-4.1 3.9-7.5 6.6-10.2 2.7-2.7 5.8-4.8 9.4-6.2 3.5-1.4 7.1-2.1 10.9-2.1 8.7 0 15.5 2.7 20.6 8 5 5.3 7.6 13.1 7.6 23.4 0 1 0 2.1-.1 3.3-.1 1.2-.2 2.3-.2 3.2h-39.3c.4 3.6 2.1 6.4 5 8.5 2.9 2.1 6.9 3.1 11.9 3.1 3.2 0 6.3-.3 9.4-.9 3.1-.6 5.6-1.3 7.5-2.2l2.3 14.1c-.9.5-2.2.9-3.7 1.4-1.6.5-3.3.9-5.2 1.2-1.9.3-3.9.6-6.1.9-2.2.2-4.3.3-6.5.3-5.5 0-10.3-.8-14.4-2.4-4.1-1.6-7.4-3.9-10.1-6.7-2.7-2.8-4.7-6.2-5.9-10.1-1.6-3.8-2.2-7.9-2.2-12.4zm43.4-6.5c-.1-1.5-.3-2.9-.8-4.3-.4-1.4-1.1-2.6-2-3.7-.9-1.1-2-2-3.4-2.7-1.4-.7-3-1-5.1-1-1.9 0-3.6.3-5 1s-2.6 1.5-3.5 2.6c-.9 1.1-1.6 2.3-2.2 3.8-.5 1.4-.9 2.9-1.1 4.4h23.1zm47.2-7.4l12.2-17.1h17.9l-21.2 29.7c4.9 5.6 9.2 11.1 13 16.7 3.8 5.5 6.8 10.4 9.1 14.8h-18.6c-.6-1.2-1.4-2.6-2.3-4.4-.9-1.7-2-3.6-3.1-5.5-1.2-1.9-2.4-3.5-3.6-4.8-1.3-1.3-2.5-2.5-3.7-3.6-1.2 1-2.4 2.1-3.6 3.3-1.2 1.2-2.4 2.7-3.4 4.6-1.1 1.8-2.2 3.6-3.2 5.4-1 1.8-2 3.4-2.8 5h-17.6c1-1.9 2.3-4.2 3.9-6.8 1.6-2.7 3.4-5.4 5.3-8.2 1.9-2.8 4-5.6 6.2-8.2 2.2-2.7 4.4-5.2 6.5-7.5-3.8-5.4-7.5-10.6-11-15.6s-7-9.9-10.4-14.8h18.7l11.7 17zm-137.6-95.4c0-1 .2-1.9.5-2.8s.7-1.6 1.3-2.2c.6-.6 1.3-1.1 2.1-1.5.8-.4 1.7-.5 2.8-.5 1.3 0 2.5.2 3.6.7l-.7 2.5c-.4-.2-.8-.3-1.2-.4-.5-.1-.9-.2-1.4-.2-1.2 0-2.1.4-2.8 1.1-.6.8-.9 1.8-.9 3.2 0 1.3.3 2.4.9 3.2.6.8 1.6 1.2 3 1.2.5 0 1-.1 1.6-.2.5-.1 1-.2 1.3-.4l.4 2.6c-.3.2-.9.3-1.5.5-.7.1-1.4.2-2.1.2-1.1 0-2.1-.2-3-.5s-1.5-.8-2.1-1.5c-.6-.6-1-1.4-1.2-2.2-.5-.8-.6-1.8-.6-2.8zm23.8 0c0 1.1-.2 2-.5 2.9s-.7 1.6-1.3 2.2c-.6.6-1.2 1.1-2 1.4s-1.7.5-2.6.5-1.8-.2-2.6-.5-1.5-.8-2-1.4c-.6-.6-1-1.4-1.3-2.2s-.5-1.8-.5-2.9c0-1.1.2-2 .5-2.9.3-.9.8-1.6 1.3-2.2s1.2-1.1 2-1.4c.8-.3 1.6-.5 2.6-.5.9 0 1.8.2 2.6.5s1.5.8 2 1.4c.6.6 1 1.3 1.3 2.2.3.9.5 1.8.5 2.9zm-3.2 0c0-1.3-.3-2.4-.9-3.2-.6-.8-1.4-1.2-2.4-1.2s-1.8.4-2.4 1.2c-.6.8-.9 1.8-.9 3.2 0 1.3.3 2.4.9 3.2.6.8 1.4 1.2 2.4 1.2s1.8-.4 2.4-1.2c.6-.8.9-1.9.9-3.2zm10.9 6.9c-.5 0-1 0-1.5-.1-.5 0-1-.1-1.5-.1-.5-.1-.9-.1-1.3-.2s-.7-.1-1-.2V126c.3-.1.6-.1 1-.2s.8-.1 1.3-.2c.5 0 1-.1 1.5-.1s1 0 1.5 0c1.8 0 3.2.3 4.2 1s1.5 1.6 1.5 2.7c0 .6-.2 1.2-.5 1.6s-.7.8-1.2 1.1c.6.2 1.1.6 1.6 1.1.4.5.7 1.2.7 2.2 0 1.3-.5 2.4-1.6 3.1s-2.6 1.2-4.7 1.2zm.1-8.2c.8 0 1.4-.1 1.9-.3.5-.2.8-.7.8-1.3 0-.3-.1-.6-.2-.8-.2-.2-.4-.4-.7-.5s-.6-.2-.9-.2-.7-.1-1.1-.1c-.3 0-.7 0-1.1 0s-.7 0-1 .1v3.1h2.3zm-2.3 5.7c.2 0 .5.1 1 .1s.9 0 1.3 0c.9 0 1.7-.1 2.3-.4s.9-.7.9-1.5c0-.7-.3-1.2-.8-1.4-.6-.3-1.3-.4-2.2-.4h-2.5v3.6zm9.9-4.3c0-1.2.2-2.2.5-3.1.3-.9.8-1.6 1.4-2.2.6-.6 1.2-1 2-1.3.7-.3 1.5-.4 2.3-.4 1.8 0 3.3.6 4.3 1.7s1.5 2.8 1.5 5.1c0 .2 0 .4 0 .6 0 .2 0 .4 0 .6h-8.8c.1 1.1.5 1.9 1.1 2.5.7.6 1.6.9 2.9.9.8 0 1.4-.1 2.1-.2.6-.1 1.1-.3 1.5-.4l.4 2.5c-.2.1-.4.2-.7.3-.3.1-.6.2-1 .3s-.8.1-1.2.2c-.4.1-.9.1-1.4.1-1.2 0-2.2-.2-3.1-.5s-1.6-.8-2.1-1.5c-.6-.6-1-1.4-1.3-2.2-.2-1.1-.4-2-.4-3zm9-1.4c0-.4-.1-.8-.2-1.2-.1-.4-.3-.7-.5-1-.2-.3-.5-.5-.8-.7-.3-.2-.7-.2-1.2-.2s-.9.1-1.3.3-.7.4-.9.7c-.2.3-.4.6-.6 1-.1.4-.2.8-.3 1.1h5.8zm17.6 1.3c0 1-.1 2-.4 2.8-.3.9-.6 1.6-1.1 2.2-.5.6-1.1 1.1-1.9 1.4s-1.6.5-2.5.5c-.6 0-1.2-.1-1.7-.2-.5-.2-1-.3-1.3-.5v5.2h-3.1v-17.6c.6-.2 1.4-.3 2.3-.5.9-.2 1.9-.2 2.9-.2 1.1 0 2 .2 2.8.5.8.3 1.5.8 2.1 1.4.6.6 1 1.3 1.4 2.2.4.8.5 1.8.5 2.8zm-3.2.1c0-1.4-.3-2.5-.9-3.2-.6-.8-1.6-1.1-3-1.1-.3 0-.6 0-.9 0-.3 0-.6.1-.9.2v7.6c.3.2.6.4 1.1.5.5.2.9.2 1.4.2 1.1 0 1.9-.4 2.5-1.1.5-.8.7-1.8.7-3.1zm5.6-6.8h3.1v10.8h4.2v-10.8h3.1v10.8h4.2v-10.8h3.1v13.4H451v-13.4zm20.1 6.8c0-1.2.2-2.2.5-3.1.3-.9.8-1.6 1.4-2.2.6-.6 1.2-1 2-1.3.8-.3 1.5-.4 2.3-.4 1.8 0 3.3.6 4.3 1.7s1.5 2.8 1.5 5.1c0 .2 0 .4 0 .6 0 .2 0 .4 0 .6h-8.8c.1 1.1.5 1.9 1.1 2.5.7.6 1.6.9 2.9.9.7 0 1.4-.1 2.1-.2s1.1-.3 1.5-.4l.4 2.5c-.2.1-.4.2-.7.3-.3.1-.6.2-1 .3-.4.1-.8.1-1.2.2-.4.1-.9.1-1.4.1-1.2 0-2.2-.2-3.1-.5s-1.6-.8-2.1-1.5c-.6-.6-1-1.4-1.3-2.2-.3-1.1-.4-2-.4-3zm9-1.4c0-.4-.1-.8-.2-1.2-.1-.4-.3-.7-.5-1-.2-.3-.5-.5-.8-.7-.3-.2-.7-.2-1.2-.2s-.9.1-1.3.3c-.4.2-.7.4-.9.7-.2.3-.4.6-.6 1-.1.4-.2.8-.3 1.1h5.8zm16.8 8h-3.1v-5.6h-5v5.6h-3.1v-13.4h3.1v5.2h5v-5.2h3.1v13.4zm2.4-6.7c0-1 .2-1.9.5-2.8.3-.9.7-1.6 1.3-2.2.6-.6 1.3-1.1 2.1-1.5.8-.4 1.7-.5 2.8-.5 1.3 0 2.5.2 3.6.7l-.7 2.5c-.4-.2-.8-.3-1.2-.4-.5-.1-.9-.2-1.4-.2-1.2 0-2.1.4-2.8 1.1-.6.8-.9 1.8-.9 3.2 0 1.3.3 2.4.9 3.2.6.8 1.6 1.2 3 1.2.5 0 1-.1 1.6-.2.5-.1 1-.2 1.3-.4l.4 2.6c-.3.2-.9.3-1.5.5-.7.1-1.4.2-2.1.2-1.1 0-2.1-.2-3-.5-.8-.3-1.5-.8-2.1-1.5-.6-.6-1-1.4-1.2-2.2-.5-.8-.6-1.8-.6-2.8zm22.4-4.1h-4.3v10.8h-3.1v-10.8H510v-2.6h11.7v2.6zm6.9 11c-.5 0-1 0-1.5-.1s-1-.1-1.5-.1c-.5-.1-.9-.1-1.3-.2s-.7-.1-1-.2V126c.3-.1.6-.1 1-.2s.8-.1 1.3-.2c.5 0 1-.1 1.5-.1s1 0 1.5 0c1.8 0 3.2.3 4.2 1s1.5 1.6 1.5 2.7c0 .6-.2 1.2-.5 1.6-.3.5-.7.8-1.2 1.1.6.2 1.1.6 1.6 1.1.4.5.7 1.2.7 2.2 0 1.3-.5 2.4-1.6 3.1-1.1.9-2.7 1.2-4.7 1.2zm0-8.2c.8 0 1.4-.1 1.9-.3.5-.2.8-.7.8-1.3 0-.3-.1-.6-.2-.8-.2-.2-.4-.4-.7-.5-.3-.1-.6-.2-.9-.2s-.7-.1-1.1-.1c-.3 0-.7 0-1.1 0s-.7 0-1 .1v3.1h2.3zm-2.3 5.7c.2 0 .5.1 1 .1s.9 0 1.3 0c.9 0 1.7-.1 2.3-.4.6-.3.9-.7.9-1.5 0-.7-.3-1.2-.8-1.4-.6-.3-1.3-.4-2.2-.4h-2.5v3.6zm22.8-4.4c0 1.1-.2 2-.5 2.9-.3.9-.7 1.6-1.3 2.2-.6.6-1.2 1.1-2 1.4s-1.7.5-2.6.5c-1 0-1.8-.2-2.6-.5s-1.5-.8-2-1.4c-.6-.6-1-1.4-1.3-2.2s-.5-1.8-.5-2.9c0-1.1.2-2 .5-2.9.3-.9.8-1.6 1.3-2.2s1.2-1.1 2-1.4 1.6-.5 2.6-.5 1.8.2 2.6.5 1.5.8 2 1.4 1 1.3 1.3 2.2c.3.9.5 1.8.5 2.9zm-3.2 0c0-1.3-.3-2.4-.9-3.2-.6-.8-1.4-1.2-2.4-1.2s-1.8.4-2.4 1.2c-.6.8-.9 1.8-.9 3.2 0 1.3.3 2.4.9 3.2.6.8 1.4 1.2 2.4 1.2s1.8-.4 2.4-1.2c.6-.8.9-1.9.9-3.2zm-87.1 19.7c.2-.1.5-.2.8-.3.3-.1.7-.2 1-.2.4-.1.8-.1 1.2-.2.4 0 .8-.1 1.3-.1.7 0 1.4.1 2.1.2s1.2.4 1.7.7c.5.3.9.7 1.2 1.2.3.5.4 1 .4 1.7s-.2 1.3-.6 1.8c-.4.5-.8.9-1.4 1.1.8.3 1.4.7 1.8 1.3.4.6.6 1.3.6 2.1 0 .7-.2 1.3-.4 1.8-.3.5-.7.9-1.2 1.2-.5.3-1.1.5-1.8.7-.7.1-1.5.2-2.3.2-1 0-1.9-.1-2.8-.2-.9-.2-1.5-.4-2-.6l.5-2.5c.3.1.8.3 1.6.5s1.6.3 2.5.3c1.9 0 2.8-.5 2.8-1.6 0-.4-.1-.7-.3-.9s-.4-.4-.6-.5c-.3-.1-.5-.2-.9-.3-.3 0-.6-.1-.9-.1h-2.6v-2.3h2.5c.6 0 1.2-.1 1.6-.3.5-.2.7-.6.7-1.2 0-.5-.2-.9-.7-1.1-.4-.3-1-.4-1.8-.4-.3 0-.7 0-1 .1-.4 0-.7.1-1 .2-.3.1-.6.1-.9.2-.3.1-.5.1-.6.2l-.5-2.7zm17.1-.7c1 0 1.9.1 2.6.4.7.3 1.3.6 1.7 1.1s.7 1 .9 1.7.3 1.4.3 2.2v8.1c-.5.1-1.2.2-2.2.4-1 .1-2 .2-3.3.2-.8 0-1.5-.1-2.2-.2-.7-.2-1.2-.4-1.7-.7-.5-.3-.8-.8-1.1-1.3s-.4-1.2-.4-2 .1-1.4.4-1.9c.3-.5.7-1 1.2-1.3.5-.3 1.1-.6 1.8-.7.7-.1 1.4-.2 2.1-.2.3 0 .7 0 1.1.1.4 0 .8.1 1.2.2v-.5c0-.4 0-.7-.1-1-.1-.3-.2-.6-.4-.9-.2-.2-.5-.4-.8-.6-.3-.1-.8-.2-1.3-.2-.7 0-1.4.1-2 .2-.6.1-1.1.2-1.5.4l-.4-2.5c.4-.1 1-.3 1.7-.4s1.5-.6 2.4-.6zm.2 11.5c1 0 1.7-.1 2.2-.2v-3.4c-.2-.1-.4-.1-.7-.2-.3-.1-.7-.1-1.1-.1-.3 0-.7 0-1 .1-.3.1-.7.1-.9.3-.3.1-.5.3-.7.6-.2.2-.3.6-.3.9 0 .7.2 1.2.7 1.5.4.4 1 .5 1.8.5zm8.2 2.2v-13.4h3.1v10.8h4.2v-10.8h3.1v10.8h4.2v-10.8h3.1v10.8h2v6.3h-2.8v-3.8h-16.9zm33-13.4v13.4h-3.1c0-1 0-1.9 0-2.9s0-1.8 0-2.7c0-.8 0-1.5 0-2.1 0-.6 0-1.1 0-1.3-.5.7-1 1.4-1.6 2.2-.5.8-1.1 1.6-1.6 2.4-.5.8-1 1.6-1.5 2.3-.5.8-.9 1.5-1.3 2.1h-2.7v-13.4h3c0 1 0 1.9 0 2.8 0 .9 0 1.7 0 2.4s0 1.4 0 1.9 0 1 0 1.3c.5-.7 1-1.5 1.5-2.3.5-.8 1-1.5 1.5-2.3.5-.7 1-1.4 1.5-2.1.5-.7 1-1.3 1.5-1.8h2.8zm13.2 2.6h-4.3v10.8h-3.1v-10.8h-4.3v-2.6h11.7v2.6zm4.7 2.4c.3-.1.6-.1 1.1-.2.5-.1 1-.1 1.4-.1.7 0 1.4.1 2.1.3.7.2 1.2.4 1.7.8s.9.8 1.1 1.4.4 1.2.4 2-.1 1.5-.4 2c-.3.6-.7 1-1.2 1.4-.5.4-1.1.6-1.8.8s-1.5.3-2.3.3c-1 0-1.9-.1-2.7-.2-.9-.1-1.7-.3-2.6-.5v-13h3.1v5zm2.2 6.2c.8 0 1.4-.2 1.9-.5s.7-.9.7-1.6c0-.4-.1-.7-.2-.9-.2-.3-.4-.5-.6-.6-.3-.2-.6-.3-.9-.3-.3-.1-.7-.1-1-.1-.3 0-.7 0-1.1 0-.4 0-.7.1-1 .1v3.8c.2 0 .5.1 1 .1.4 0 .8 0 1.2 0zm10.9 2.2h-3.1v-13.4h3.1v13.4zm28.9-68.4c0 .7-.3 1.1-.8 1.3-.5.2-1.1.3-1.9.3h-.9v-3.2c.3-.1.5-.1.6-.1h.5c.7 0 1.3.1 1.7.4.5.3.8.7.8 1.3zM566.9 90v17.8h17.8V90h-17.8zm10.9 14.9c-.4-.9-.8-1.7-1.3-2.4-.4-.7-.8-1.3-1.2-1.8h-1.7v4.2H571V93.4c.7-.2 1.3-.3 1.9-.4.6 0 1.2-.1 1.7-.1 1.7 0 3 .3 3.9 1 .9.7 1.3 1.7 1.3 3 0 .7-.2 1.3-.5 1.8s-.8 1-1.5 1.3c.4.6.9 1.3 1.3 2.1.5.8 1 1.7 1.4 2.8h-2.7z" class="st1"/><path d="M352.9 321.8h17.8v17.8h-17.8z" class="st0"/></svg>