<?xml version="1.0" encoding="UTF-8" standalone="no"?>
<svg
   xmlns:dc="http://purl.org/dc/elements/1.1/"
   xmlns:cc="http://creativecommons.org/ns#"
   xmlns:rdf="http://www.w3.org/1999/02/22-rdf-syntax-ns#"
   xmlns:svg="http://www.w3.org/2000/svg"
   xmlns="http://www.w3.org/2000/svg"
   viewBox="0 0 1152 481.33334"
   height="481.33334"
   width="1152"
   xml:space="preserve"
   id="svg2"
   version="1.1"><metadata
     id="metadata8"><rdf:RDF><cc:Work
         rdf:about=""><dc:format>image/svg+xml</dc:format><dc:type
           rdf:resource="http://purl.org/dc/dcmitype/StillImage" /></cc:Work></rdf:RDF></metadata><defs
     id="defs6" /><g
     transform="matrix(1.3333333,0,0,-1.3333333,0,481.33333)"
     id="g10"><g
       transform="translate(202.3643,298.4165)"
       id="g12"><path
         id="path14"
         style="fill:#dd2b19;fill-opacity:1;fill-rule:evenodd;stroke:none"
         d="M 0,0 68.376,-40.421 34.05,-60.666 0,-40.461 -34.301,-60.692 -68.788,-40.353 Z" /></g><g
       transform="translate(202.1582,176.8745)"
       id="g16"><path
         id="path18"
         style="fill:#0057a7;fill-opacity:1;fill-rule:evenodd;stroke:none"
         d="M 0,0 102.804,60.75 102.788,-60.694 68.486,-80.924 68.603,0 34.302,-20.169 34.184,-101.084 -0.119,-121.313 Z" /></g><g
       transform="translate(99.168,237.5664)"
       id="g20"><path
         id="path22"
         style="fill:#dd2b19;fill-opacity:1;fill-rule:evenodd;stroke:none"
         d="m 0,0 -0.025,-123.688 30.299,-17.928 v 22.656 l 42.436,-25.025 -0.127,-20.157 30.289,-17.863 0.118,121.313 z m 72.919,-110.705 -42.645,25.251 v 27.329 L 73.09,-83.477 Z" /></g><g
       transform="translate(782.0425,116.1807)"
       id="g24"><path
         id="path26"
         style="fill:#dd2b19;fill-opacity:1;fill-rule:evenodd;stroke:none"
         d="M 0,0 5.371,5.371 V 32.613 L 0,38.062 h -9.193 -17.758 v 16.423 h -9.193 -1.704 -9.193 V 0 h 9.193 28.655 z m -26.951,27.165 h 12.309 V 10.897 H -26.951 Z M -90.009,0 v 32.691 l 10.819,10.897 h 3.849 V 0 h 9.193 1.627 9.193 v 54.485 h -9.193 -20.117 -9.194 L -110.099,38.14 V 0 h 9.193 1.704 z m -62.281,0 14.668,27.352 V 0 h 9.194 1.626 9.193 v 54.485 h -9.193 -1.626 -9.194 L -152.29,27.186 v 27.299 h -9.193 -1.704 -9.193 V 0 h 9.193 1.704 z m -54.765,43.588 h 7.152 V 18.992 h -7.152 z m -27.164,0 h 7.074 V 18.992 h -7.074 z M -216.248,0 h 9.193 v 8.095 h 12.523 9.194 l 5.448,5.37 v 35.494 l -5.448,5.526 h -9.194 -12.523 v 8.173 h -9.193 -1.704 -9.193 v -8.173 h -12.601 -9.193 l -5.371,-5.526 V 13.465 l 5.371,-5.37 h 9.193 12.601 V 0 h 9.193 z m -50.942,0 5.371,5.371 v 43.588 l -5.371,5.526 h -9.194 -23.755 -9.193 l -5.371,-5.526 V 5.371 L -309.332,0 h 9.193 23.755 z m -27.422,43.588 h 12.78 V 10.897 h -12.78 z M -354.062,0 v 16.268 h 17.285 9.194 l 5.371,5.448 v 27.243 l -5.371,5.526 h -9.194 -28.181 -9.194 V 0 h 9.194 1.703 z m 0,43.588 h 11.837 V 27.165 h -11.837 z M -415.705,0 v 43.588 h 13.253 V 0 h 9.193 1.626 9.193 v 54.485 h -9.193 -34.969 -9.193 V 0 h 9.193 1.704 z m 223.645,87.098 v 16.268 h 14.668 V 87.098 h 9.194 1.625 9.194 v 54.485 h -9.194 -20.116 -9.193 L -212.15,125.16 V 87.098 h 9.193 1.704 z m 0,27.165 v 5.448 l 10.819,10.975 h 3.849 v -16.423 z m -35.402,-27.165 h -9.194 -1.703 -9.194 v 43.588 h -9.876 -9.194 v 10.897 h 9.194 39.687 13.043 l -11.066,-10.897 h -11.697 z m -36.732,0 5.371,5.371 v 27.242 l -5.371,5.449 h -9.193 -17.757 v 16.423 h -9.193 -1.704 -9.193 V 87.098 h 9.193 28.654 z m -26.95,27.165 h 12.309 V 97.995 h -12.309 z m -63.059,-27.165 v 32.691 l 10.819,10.897 h 3.849 V 87.098 h 9.193 1.627 9.193 v 54.485 h -9.193 -20.117 -9.193 l -16.268,-16.345 v -38.14 h 9.193 1.704 z m -62.28,0 v 16.268 h 14.668 V 87.098 h 9.193 1.626 9.193 v 54.485 h -9.193 -20.116 -9.194 L -436.573,125.16 V 87.098 h 9.193 1.704 z m 10.818,43.588 h 3.85 v -16.423 h -14.668 v 5.448 z" /></g></g></svg>