<svg width="60" height="64" fill="none" xmlns="http://www.w3.org/2000/svg"><path d="M59.44 62.96c0 .213-.027.373-.08.48-.053.16-.16.24-.32.24-.053 0-.453-.027-1.2-.08h-1.12a.986.986 0 0 1-.56-.16c-.107-.053-.16-.133-.16-.24 0-.053-.107-.507-.32-1.36l-.72-2.88a302.5 302.5 0 0 0-.8-3.28 77.695 77.695 0 0 1-.56-2.48c-.213-1.067-.48-2.293-.8-3.68-.32-1.387-.48-2.347-.48-2.88 0-.533.053-.933.16-1.2.107-.267.16-.48.16-.64 0-.107-.053-.187-.16-.24-.107-.053-.267-.08-.48-.08-.053 0-.24.053-.56.16-.267.053-.56.133-.88.24-.373.16-.693.32-.96.48-.267.16-.453.24-.56.24h-.24v-.16c0-.107.053-.187.16-.24l.32-.16c.053-.053.16-.107.32-.16.16-.107.24-.187.24-.24 0-.053-.053-.08-.16-.08h-.16c-.053 0-.24.027-.56.08H48c-.32 0-.88-.027-1.68-.08-.8-.107-1.387-.24-1.76-.4a18.68 18.68 0 0 1-.72-.32.615.615 0 0 1-.08-.24c0-.053.027-.08.08-.08h.24c.32 0 .827.107 1.52.32.747.213 1.44.32 2.08.32 1.173 0 2.187-.08 3.04-.24.853-.213 1.28-.373 1.28-.48 0-.053-.027-.08-.08-.08-.053-.053-.133-.08-.24-.08-.107 0-.533.027-1.28.08h-2.56c-.427 0-.853-.027-1.28-.08a5.94 5.94 0 0 1-1.04-.24c-.32-.107-.48-.267-.48-.48l.24-.08c.16-.053.667-.107 1.52-.16.907-.053 1.573-.213 2-.48.427-.267.64-.427.64-.48 0-.107-.267-.267-.8-.48-.48-.267-.72-.507-.72-.72v-.08c.053-.053.107-.08.16-.08.053 0 .213.08.48.24.32.107.613.16.88.16.213 0 .453-.027.72-.08.267-.053.48-.16.64-.32.16-.213.24-.347.24-.4l.08-.16c0-.053-.027-.08-.08-.08-.053-.053-.107-.08-.16-.08l-.16.08c-.053.053-.16.08-.32.08s-.4-.027-.72-.08a15.612 15.612 0 0 1-.72-.16c-.213-.053-.373-.133-.48-.24a1.208 1.208 0 0 0-.48-.4l-.48-.16c-.107-.107-.16-.187-.16-.24 0-.053.027-.107.08-.16a.615.615 0 0 1 .24-.08c.053 0 .187.053.4.16.213.053.453.08.72.08.213 0 .427-.08.64-.24.213-.16.347-.373.4-.64.213-.64.4-1.333.56-2.08.213-.8.347-1.627.4-2.48a9.16 9.16 0 0 0 .16-.88c.107-.373.187-.613.24-.72.053-.213.187-.427.4-.64.213-.267.32-.507.32-.72 0-.267-.027-.613-.08-1.04-.053-.427-.187-.773-.4-1.04a2.856 2.856 0 0 0-.8-.8c-.32-.213-.667-.427-1.04-.64-.373-.16-.773-.427-1.2-.8a21.896 21.896 0 0 1-1.04-.96 15.677 15.677 0 0 1-1.76-1.92c-.587-.747-1.04-1.333-1.36-1.76-.373-.533-.72-.907-1.04-1.12a5.102 5.102 0 0 0-1.2-.72c-1.12-.533-1.92-1.013-2.4-1.44-.48-.427-1.12-.853-1.92-1.28a10.97 10.97 0 0 0-1.12-.56c-.32-.213-.533-.32-.64-.32a.615.615 0 0 0-.24.08l-.24.24c-.16.16-.373.4-.64.72-.213.32-.427.48-.64.48-.213 0-.427-.027-.64-.08a2.08 2.08 0 0 1-.56-.32 4.849 4.849 0 0 1-.4-.32c0-.053-.027-.08-.08-.08-.053 0-.08.027-.08.08v.16c0 .053.053.213.16.48.16.213.4.507.72.88.213.267.507.587.88.96.373.32.667.533.88.64l.8.4c.32.107.533.187.64.24.267.267.667.64 1.2 1.12.587.427 1.147.907 1.68 1.44.267.373.587.72.96 1.04.373.32.613.533.72.64.053.213.24.507.56.88.373.32.773.72 1.2 1.2.427.48.747.8.96.96.213.107.347.24.4.4.053.107.16.24.32.4.16.107.347.213.56.32.267.107.453.187.56.24h.16c.053 0 .107.027.16.08.107 0 .16.027.16.08 0 .053-.053.107-.16.16h-.16a4.09 4.09 0 0 1-.48-.08 4.001 4.001 0 0 0-.48-.08.615.615 0 0 0-.24.08c-.053.053-.08.16-.08.32 0 .053.053.16.16.32.16.16.347.293.56.4.213.107.427.24.64.4.213.107.32.187.32.24 0 .053-.027.107-.08.16h-.16c-.053 0-.213-.08-.48-.24a2.08 2.08 0 0 0-.56-.32.93.93 0 0 0-.24-.16c-.107-.107-.293-.16-.56-.16-.213 0-.453.107-.72.32-.213.213-.4.533-.56.96-.16.373-.32.8-.48 1.28-.16.48-.32 1.067-.48 1.76-.16.747-.32 1.627-.48 2.64-.16 1.013-.24 1.893-.24 2.64 0 .213.027.587.08 1.12.053.48.107.987.16 1.52.053.533.133 1.067.24 1.6.16.48.32.8.48.96.107.16.293.373.56.64.32.267.507.48.56.64.053.213.107.64.16 1.28.107.64.16 1.2.16 1.68 0 .213.053 1.093.16 2.64.107 1.493.213 3.12.32 4.88.16 1.707.293 3.28.4 4.72.107 1.44.16 2.187.16 2.24 0 .053-.027.107-.08.16-.053.107-.107.16-.16.16-.053 0-.107-.027-.16-.08-.053-.053-.08-.107-.08-.16 0-.267-.053-.72-.16-1.36a27.557 27.557 0 0 0-.24-2.08 18.834 18.834 0 0 0-.24-1.92c-.053-.64-.107-1.067-.16-1.28-.053-.373-.107-.72-.16-1.04a5.033 5.033 0 0 1-.08-.8c0-.213-.027-.4-.08-.56 0-.213-.08-.32-.24-.32-.267 0-.427.133-.48.4 0 .213-.107.427-.32.64a1.252 1.252 0 0 0-.24.32v.32c0 .107-.027.24-.08.4a.71.71 0 0 1-.08.32c-.053.053-.08.107-.08.16v.08c0 .053-.027.107-.08.16-.053.053-.107.08-.16.08a.93.93 0 0 0-.16.24.615.615 0 0 0-.08.24l-.24.24a.93.93 0 0 0-.16.24.93.93 0 0 0-.16.24c-.053.053-.08.107-.08.16a.615.615 0 0 1-.08.24.93.93 0 0 1-.24.16l-.16.16-.08.08c0 .053-.027.107-.08.16 0 .053-.027.08-.08.08a.615.615 0 0 0-.24.08.93.93 0 0 0-.24.16.93.93 0 0 0-.16.24c0 .107-.08.187-.24.24a.93.93 0 0 0-.24.16l-.16.16-.16.16a.93.93 0 0 1-.24.16c-.16.053-.347.133-.56.24-.16.107-.293.187-.4.24-.213.213-.4.347-.56.4a.891.891 0 0 0-.4.08l-.16.16c-.053.053-.107.08-.16.08a.615.615 0 0 0-.24.08l-.16.16a.891.891 0 0 1-.4.08h-.4c-.107.053-.24.107-.4.16-.107.053-.16.107-.16.16a.93.93 0 0 1-.24.16c-.053.053-.133.08-.24.08h-.32c-.107 0-.187.027-.24.08-.053.053-.133.08-.24.08-.053.053-.187.08-.4.08-.373 0-.613.027-.72.08-.107.107-.187.16-.24.16-.053 0-.187-.027-.4-.08h-1.04c-.053.053-.213.08-.48.08h-.32a.615.615 0 0 1-.24.08.615.615 0 0 1-.24-.08h-.32a.891.891 0 0 0-.4.08c-.053.107-.133.16-.24.16-.107 0-.213-.053-.32-.16-.053-.053-.133-.08-.24-.08h-.32c-.053.053-.107.08-.16.08-.107 0-.213-.053-.32-.16-.053-.053-.16-.08-.32-.08-.853 0-1.333-.08-1.44-.24-.053-.107-.267-.16-.64-.16h-.24c-.053.053-.107.08-.16.08-.053 0-.107-.053-.16-.16-.053-.053-.107-.08-.16-.08-.16 0-.32-.027-.48-.08-.16 0-.347-.053-.56-.16a3.106 3.106 0 0 1-.4-.16 1.252 1.252 0 0 0-.32-.24.93.93 0 0 0-.24-.16c-.053-.107-.133-.16-.24-.16a.71.71 0 0 1-.32-.08.523.523 0 0 1-.24-.24c-.053-.213-.213-.4-.48-.56-.213-.16-.347-.347-.4-.56-.053-.16-.16-.32-.32-.48-.107-.16-.187-.24-.24-.24-.107 0-.213.053-.32.16-.053.107-.08.267-.08.48 0 .16-.027.507-.08 1.04 0 .533-.027.907-.08 1.12a5.1 5.1 0 0 0-.16.72c0 .373-.027.587-.08.64-.053.053-.08.107-.08.16 0 .053-.027.08-.08.08-.107 0-.187-.027-.24-.08v-.56c.053-.213.107-.347.16-.4.053-.053.08-.213.08-.48.053-.213.08-.4.08-.56v-.56c0-.32.027-.56.08-.72.053-.16.08-.427.08-.8.053-.427.08-.667.08-.72 0-.107.027-.24.08-.4a.986.986 0 0 0 .16-.56c0-.213.053-.8.16-1.76.16-1.013.24-1.813.24-2.4 0-1.12.027-1.973.08-2.56.053-.587.08-1.147.08-1.68 0-.693.08-1.147.24-1.36.16-.267.24-.64.24-1.12 0-.32-.027-.613-.08-.88 0-.32-.107-.48-.32-.48-.107 0-.267.08-.48.24a4.23 4.23 0 0 1-.64.4c-.213.107-.56.213-1.04.32-.427.107-.747.16-.96.16h-.4c-.053 0-.08-.027-.08-.08 0-.053.027-.08.08-.08l.32-.16a7.69 7.69 0 0 1 .56-.16c.267-.053.56-.16.88-.32.32-.16.773-.453 1.36-.88.587-.48.987-.987 1.2-1.52.16-.48.267-1.013.32-1.6.053-.587.08-1.12.08-1.6 0-.373-.053-.96-.16-1.76-.107-.8-.213-1.2-.32-1.2-.16 0-.32.187-.48.56-.107.32-.213.48-.32.48-.107 0-.187-.027-.24-.08v-.16c0-.053.107-.24.32-.56.213-.32.32-.613.32-.88 0-.213-.08-.453-.24-.72-.107-.267-.187-.4-.24-.4-.16 0-.267.107-.32.32-.053.213-.08.347-.08.4 0 .107-.027.32-.08.64-.053.267-.187.4-.4.4L18 37.2c-.053-.053-.08-.107-.08-.16 0-.373.08-.64.24-.8.16-.16.24-.507.24-1.04 0-.213-.107-.693-.32-1.44-.16-.747-.347-1.12-.56-1.12-.267 0-.453.213-.56.64-.053.427-.213.64-.48.64-.213 0-.347-.053-.4-.16a1.317 1.317 0 0 1-.08-.4c0-.213.133-.373.4-.48.267-.16.4-.347.4-.56 0-.053-.027-.08-.08-.08-.053-.053-.107-.08-.16-.08-.053 0-.267.107-.64.32-.32.16-.667.24-1.04.24-.213 0-.4-.027-.56-.08-.107-.107-.16-.187-.16-.24 0-.053.053-.08.16-.08l.32-.16c.107 0 .24-.027.4-.08.16-.053.32-.133.48-.24.16-.107.267-.213.32-.32a.999.999 0 0 1 .4-.24c.16-.053.293-.107.4-.16.16-.107.24-.187.24-.24 0-.053-.027-.08-.08-.08-.053-.053-.107-.08-.16-.08-.053 0-.267.08-.64.24-.373.107-.587.16-.64.16h-.16v-.16c0-.053.027-.107.08-.16.053-.053.187-.107.4-.16a7.81 7.81 0 0 0 .64-.4c.373-.213.693-.48.96-.8.533-.533.907-.933 1.12-1.2.213-.267.48-.667.8-1.2.267-.533.56-.933.88-1.2.373-.267.773-.587 1.2-.96.32-.373.587-.64.8-.8a9.73 9.73 0 0 0 .8-.72c.213-.213.533-.587.96-1.12.48-.587.853-.933 1.12-1.04.16-.053.373-.187.64-.4.32-.213.587-.427.8-.64.213-.16.48-.4.8-.72.373-.373.613-.587.72-.64.107-.107.187-.16.24-.16.053-.053.08-.107.08-.16 0-.053-.027-.08-.08-.08 0-.053-.027-.08-.08-.08-.053 0-.213.107-.48.32-.213.213-.453.32-.72.32-.32 0-.64-.107-.96-.32-.32-.213-.56-.4-.72-.56l-.32-.32c-.053-.107-.133-.16-.24-.16-.587 0-1.12.267-1.6.8-.48.48-1.2.96-2.16 1.44-.213.053-.56.24-1.04.56-.48.267-.827.427-1.04.48a7.69 7.69 0 0 0-.56.16c-.16 0-.347.107-.56.32a26.448 26.448 0 0 0-1.76 1.92 64.84 64.84 0 0 1-1.76 2.08 43.68 43.68 0 0 0-1.6 2c-.427.587-1.013 1.227-1.76 1.92-.213.213-.613.56-1.2 1.04s-.88 1.04-.88 1.68c0 .587.107 1.147.32 1.68.267.48.507 1.067.72 1.76.213.747.373 1.493.48 2.24.16.747.267 1.467.32 2.16.053.747.133 1.387.24 1.92.107.48.24.827.4 1.04.16.213.347.427.56.64.213.16.48.24.8.24.32 0 .507.027.56.08.107 0 .16.027.16.08 0 .053-.053.107-.16.16h-.8a2.409 2.409 0 0 0-.4-.08.615.615 0 0 0-.24.08c-.053 0-.08.08-.08.24 0 .32.373.533 1.12.64.747.053 1.253.08 1.52.08.693 0 1.253-.107 1.68-.32.427-.267.72-.4.88-.4.053 0 .08.027.08.08.053 0 .08.027.08.08 0 .16-.213.373-.64.64a9.061 9.061 0 0 1-1.44.72c-.053.053-.293.133-.72.24-.427.053-.8.08-1.12.08-.32 0-.587.053-.8.16-.16.107-.24.267-.24.48v.72a.48.48 0 0 0 .32.32c.213.107.4.213.56.32.213.107.4.16.56.16.213 0 .347.027.4.08.053 0 .08.027.08.08 0 .053-.08.107-.24.16h-.24c-.107 0-.32.027-.64.08-.267 0-.453.027-.56.08-.107.053-.187.187-.24.4l-.16.64c-.053.427-.16 1.013-.32 1.76-.16.747-.347 1.573-.56 2.48-.16.853-.48 2.213-.96 4.08-.427 1.867-.907 3.493-1.44 4.88a.999.999 0 0 1-.24.4c-.107.16-.187.24-.24.24l-4.96-.24c-.213 0-.347-.053-.4-.16-.053-.053-.08-.107-.08-.16 0-.053.107-.347.32-.88.267-.48.507-.987.72-1.52.16-.427.4-1.093.72-2 .32-.907.747-1.947 1.28-3.12a86.288 86.288 0 0 0 1.68-3.84c.693-1.6 1.04-2.64 1.04-3.12s-.107-1.12-.32-1.92c-.16-.853-.453-1.893-.88-3.12a57.354 57.354 0 0 0-1.44-4.24c-.533-1.6-.96-2.747-1.28-3.44-.373-.693-.747-1.6-1.12-2.72-.32-1.12-.587-1.947-.8-2.48-.32-.747-.8-1.627-1.44-2.64-.587-1.013-.88-1.947-.88-2.8 0-.587.027-.987.08-1.2.107-.267.16-.8.16-1.6 0-.373-.027-.96-.08-1.76 0-.8-.027-1.6-.08-2.4-.053-.853-.107-1.627-.16-2.32v-1.44c0-.48-.027-1.04-.08-1.68-.053-.64-.08-1.093-.08-1.36 0-.32.053-.64.16-.96.107-.32.347-.613.72-.88.267-.16.64-.267 1.12-.32a56.806 56.806 0 0 0 2.4-.56 121.31 121.31 0 0 0 3.04-.8c1.013-.267 1.867-.4 2.56-.4.373 0 .587.053.64.16.107.053.187.08.24.08.107 0 .48-.08 1.12-.24.64-.16 1.013-.293 1.12-.4a2.39 2.39 0 0 0 .24-.32.716.716 0 0 1 .48-.4.777.777 0 0 0 .48-.32c.107-.16.213-.293.32-.4a.999.999 0 0 1 .4-.24c.213-.107.427-.267.64-.48a2.69 2.69 0 0 1 .72-.64c.32-.16.64-.24.96-.24.32 0 .56-.027.72-.08.16-.053.32-.16.48-.32.213-.107.4-.267.56-.48.16-.213.427-.32.8-.32.32 0 .56-.027.72-.08.213-.053.347-.107.4-.16.107-.053.32-.107.64-.16.373-.107.693-.16.96-.16.213 0 .4.027.56.08h.56c.213 0 .4-.027.56-.08.213-.053.427-.187.64-.4.16-.213.267-.347.32-.4.053-.053.213-.08.48-.08s.453.027.56.08c.16.053.293.08.4.08.107 0 .293-.133.56-.4.32-.267.667-.4 1.04-.4.427 0 .72.08.88.24.16.107.347.16.56.16a.89.89 0 0 0 .4-.08c.16-.053.267-.08.32-.08.107 0 .24.053.4.16.213.107.32.267.32.48 0 .213.027.347.08.4h.16c.053 0 .187-.107.4-.32a1.49 1.49 0 0 1 .96-.32c.053 0 .133.027.24.08h.32a.614.614 0 0 0 .24-.08.71.71 0 0 1 .32-.08c.533 0 .907.133 1.12.4.213.267.373.4.48.4h.32a.71.71 0 0 1 .32-.08c.213 0 .4.107.56.32.213.213.373.32.48.32.16 0 .32-.027.48-.08.213-.107.347-.16.4-.16.053 0 .16.027.32.08.16.053.24.107.24.16l.16.16c.053.053.107.08.16.08.053 0 .107.027.16.08h.24c.053 0 .08-.027.08-.08.053-.053.107-.08.16-.08.053 0 .08.027.08.08.053.053.08.107.08.16 0 .053.027.107.08.16H40c.053 0 .16-.027.32-.08.16-.053.347-.107.56-.16a4.07 4.07 0 0 1 .8-.08c.267 0 .427-.027.48-.08.053 0 .293-.027.72-.08.427-.107 1.12-.16 2.08-.16.853 0 1.653.267 2.4.8.747.533 1.227.8 1.44.8.16 0 .427-.107.8-.32.373-.267.773-.4 1.2-.4.693 0 1.653.213 2.88.64 1.28.427 2.4.747 3.36.96.213.053.4.133.56.24.213.053.427.187.64.4.213.213.347.453.4.72.053.213.08.48.08.8v1.2c.053.693.08 1.52.08 2.48v2.8c.053.96.08 1.733.08 2.32 0 1.173.08 2.187.24 3.04.16.8.24 1.387.24 1.76s-.107.853-.32 1.44c-.16.533-.267.88-.32 1.04-.053.16-.133.347-.24.56-.107.16-.24.427-.4.8-.213.64-.4 1.307-.56 2a8.403 8.403 0 0 1-.48 1.84c-.053.267-.213.773-.48 1.52s-.48 1.44-.64 2.08a58.515 58.515 0 0 0-.88 3.68 131.654 131.654 0 0 1-.72 3.36L54 40.48c-.107.587-.16.933-.16 1.04l-.16.64v.88c0 .373.027.907.08 1.6.107.64.293 1.44.56 2.4.8 2.08 1.44 4 1.92 5.76a251.65 251.65 0 0 0 1.6 5.44c.213.693.533 1.573.96 2.64.427 1.067.64 1.76.64 2.08zm-2.72-43.68a68.63 68.63 0 0 1-.8-3.2c-.32-1.387-.613-2.613-.88-3.68a21.59 21.59 0 0 0-.8-2.64c-.267-.853-.507-1.493-.72-1.92a2.324 2.324 0 0 0-.88-.88c-.32-.267-.533-.427-.64-.48a22.22 22.22 0 0 0-1.6-.8 55.23 55.23 0 0 1-1.36-.88c-1.333-.853-2.24-1.36-2.72-1.52-.427-.213-.933-.32-1.52-.32-.267 0-.587.027-.96.08h-.8c-.16 0-.267.053-.32.16l-.24.48c-.16.213-.32.4-.48.56-.16.107-.373.24-.64.4a2.49 2.49 0 0 1-.88.32h-.64a.71.71 0 0 0-.32.08c-.053.053-.08.133-.08.24 0 .213.16.453.48.72.32.213.587.347.8.4.213.053.667.133 1.36.24.747.053 1.147.08 1.2.08.107 0 .187-.027.24-.08a.89.89 0 0 1 .4-.08c.107 0 .213.08.32.24l.48.48.32.32c.16.053.293.107.4.16.107 0 .24.133.4.4.213.213.587.427 1.12.64.107.053.24.16.4.32.16.107.293.213.4.32.053.053.24.16.56.32.32.16.507.24.56.24h.16c.053 0 .08-.027.08-.08 0-.053-.107-.16-.32-.32-.213-.16-.4-.293-.56-.4-.107-.053-.213-.16-.32-.32-.107-.16-.16-.267-.16-.32v-.08c.053-.053.107-.08.16-.08.053 0 .133.107.24.32.16.16.32.293.48.4.107.107.267.24.48.4.267.16.507.373.72.64.267.213.453.48.56.8.16.267.267.427.32.48 0 .053.027.16.08.32.053.107.16.373.32.8.16.373.347.907.56 1.6.213.693.347 1.147.4 1.36.107.213.24.587.4 1.12.213.48.347.8.4.96.053.107.107.347.16.72.053.373.107.773.16 1.2.053.373.187.853.4 1.44.267.533.507.987.72 1.36.213.427.373.827.48 1.2.107.373.187.693.24.96.053.213.133.4.24.56.107.16.187.24.24.24.053 0 .16-.053.32-.16.16-.107.373-.293.64-.56.32-.267.587-.587.8-.96a2.24 2.24 0 0 0 .32-1.12c0-.373-.107-.8-.32-1.28-.16-.533-.347-1.173-.56-1.92zm-15.04-16c-.16 0-.427.027-.8.08-.32.053-.613.133-.88.24-.213.107-.373.24-.48.4-.053.16-.08.293-.08.4 0 .107.027.187.08.24h.16c.373 0 .667-.027.88-.08a2.82 2.82 0 0 0 .72-.24c.213-.107.4-.267.56-.48.213-.213.32-.347.32-.4 0-.053-.027-.08-.08-.08-.053-.053-.187-.08-.4-.08zm-1.12 10.88a15.8 15.8 0 0 0-1.28-.88 27.482 27.482 0 0 1-1.36-1.04c-.213-.267-.427-.56-.64-.88-.16-.32-.24-.613-.24-.88 0-.533.16-.987.48-1.36.373-.427.987-.747 1.84-.96.107-.053.16-.107.16-.16.053-.053.08-.133.08-.24 0-.213-.133-.4-.4-.56-.213-.213-.32-.427-.32-.64 0-.053-.053-.08-.16-.08a.614.614 0 0 0-.24-.08c-.16 0-.267-.027-.32-.08a.71.71 0 0 1-.08-.32c0-.053.027-.133.08-.24.107-.107.16-.187.16-.24 0-.053-.027-.08-.08-.08-.053-.053-.107-.08-.16-.08a.614.614 0 0 0-.24.08h-.24c-.213 0-.347-.133-.4-.4-.053-.32-.16-.48-.32-.48-.107 0-.24.027-.4.08a.89.89 0 0 1-.4.08 3.74 3.74 0 0 1-.72-.08c-.267-.107-.453-.16-.56-.16-.053 0-.16.053-.32.16a.614.614 0 0 1-.24.08.614.614 0 0 0-.24.08h-.48c-.053 0-.107-.027-.16-.08l-.16-.16-.16-.16a2.38 2.38 0 0 0-.32-.24c-.107-.107-.187-.16-.24-.16a.614.614 0 0 0-.24.08h-.16a.614.614 0 0 1-.24-.08.614.614 0 0 0-.24-.08.614.614 0 0 0-.24.08c-.053.053-.133.08-.24.08-.213 0-.347-.08-.4-.24-.053-.16-.187-.24-.4-.24-.053 0-.107.027-.16.08 0 .053-.027.107-.08.16a.93.93 0 0 1-.24.16c-.107.053-.293.08-.56.08-2.613.053-4.827.693-6.64 1.92-1.813 1.227-2.72 2.427-2.72 3.6 0 .053.027.107.08.16h.16c.373 0 .8.053 1.28.16.533.107.933.32 1.2.64.213.267.347.533.4.8.053.213.08.347.08.4 0 .16.053.24.16.24.16 0 .347.027.56.08.213.053.427.24.64.56.213.267.32.613.32 1.04 0 .373-.053.747-.16 1.12-.107.32-.293.667-.56 1.04-.213.267-.4.48-.56.64-.16.16-.32.293-.48.4L21.44 18c-.107.053-.347.293-.72.72-.373.373-.56.667-.56.88v.16h.16a.615.615 0 0 0 .24-.08.999.999 0 0 1 .4-.24 837.306 837.306 0 0 0 3.76-2.48c.64-.48 1.467-.72 2.48-.72.533 0 .907.133 1.12.4.213.267.32.533.32.8 0 .32-.08.64-.24.96a4.04 4.04 0 0 1-.48.96 3.123 3.123 0 0 0-.24.64 1.33 1.33 0 0 0-.08.32v.24l.08.08c0 .053-.027.107-.08.16 0 .053-.027.08-.08.08-.053 0-.107-.053-.16-.16v-.32c0-.053-.027-.107-.08-.16-.053-.053-.107-.08-.16-.08-.16 0-.32.16-.48.48a8.496 8.496 0 0 1-.24.56 1.7 1.7 0 0 1-.32.4c-.16.107-.24.293-.24.56 0 .213.053.373.16.48.107.107.187.16.24.16a.615.615 0 0 0 .24-.08.48.48 0 0 0 .32-.32c.053-.107.107-.24.16-.4l.16-.32c.107 0 .16.027.16.08l.08.08c0 .053-.053.187-.16.4-.053.16-.107.267-.16.32-.053.107-.107.24-.16.4-.053.16-.08.293-.08.4 0 .053.053.16.16.32.107.107.267.16.48.16.373 0 .56-.107.56-.32.053-.213.16-.32.32-.32.213 0 .293.107.24.32 0 .213.133.32.4.32.16 0 .293-.053.4-.16.16-.16.293-.24.4-.24.267 0 .453.107.56.32.16.16.48.24.96.24.213 0 .32-.053.32-.16a.71.71 0 0 0 .08-.32c0-.373-.213-.747-.64-1.12-.373-.373-.613-.747-.72-1.12l-.16-.32v-.48c0-.213.027-.347.08-.4.053-.107.107-.16.16-.16.053 0 .107.053.16.16.053.053.08.133.08.24 0 .64.107 1.147.32 1.52.213.373.507.827.88 1.36a.523.523 0 0 0 .24.24.71.71 0 0 0 .32.08c.053 0 .107-.027.16-.08.107-.107.16-.187.16-.24 0-.16-.053-.267-.16-.32a.615.615 0 0 1-.08-.24c0-.053.027-.107.08-.16a.615.615 0 0 1 .24-.08c.053 0 .133.053.24.16.16.053.293.08.4.08.16 0 .267-.027.32-.08a.615.615 0 0 0 .08-.24c0-.053.027-.133.08-.24.107-.16.187-.24.24-.24.16 0 .267.08.32.24.107.16.373.24.8.24.267 0 .427-.107.48-.32a1.42 1.42 0 0 0 .16-.64c0-.213-.16-.533-.48-.96-.267-.48-.48-.72-.64-.72-.053 0-.107.053-.16.16a.71.71 0 0 0-.08.32.615.615 0 0 1-.08.24c0 .053-.027.08-.08.08-.053 0-.107-.027-.16-.08v-.24c0-.427-.16-.827-.48-1.2a10.013 10.013 0 0 0-.96-1.28c-.16-.213-.347-.533-.56-.96a3.428 3.428 0 0 1-.24-1.2c0-.427.16-.747.48-.96.32-.267.667-.4 1.04-.4s.693.053.96.16c.32.053.64.16.96.32.533.267.96.507 1.28.72.32.213.907.507 1.76.88.587.373 1.173.827 1.76 1.36.64.48 1.04.72 1.2.72.053 0 .16-.08.32-.24.213-.213.32-.587.32-1.12 0-.48-.187-.987-.56-1.52-.32-.587-.64-1.013-.96-1.28zm18.08 6.16a15.612 15.612 0 0 1-.16-.72c-.053-.267-.107-.773-.16-1.52 0-.373-.027-.853-.08-1.44 0-.64-.027-1.28-.08-1.92 0-.64-.027-1.227-.08-1.76v-2.4c.053-.48.08-.96.08-1.44V7.68c.053-.427.08-.667.08-.72 0-.213-.027-.373-.08-.48a2.08 2.08 0 0 0-.32-.56c-.213-.213-.4-.32-.56-.32a1.316 1.316 0 0 0-.4-.08c-.32 0-.56.107-.72.32a.768.768 0 0 1-.56.24h-.24c-.053-.053-.08-.107-.08-.16 0-.053.107-.133.32-.24.267-.107.4-.213.4-.32 0-.107-.32-.24-.96-.4a22.477 22.477 0 0 0-1.44-.48c-.373-.107-.88-.24-1.52-.4-.587-.16-.987-.24-1.2-.24-.267 0-.613.08-1.04.24-.373.16-.56.267-.56.32 0 .053.24.213.72.48.48.213 1.013.507 1.6.88.213.107.507.267.88.48.427.213.693.373.8.48.533.48 1.013 1.52 1.44 3.12a66.48 66.48 0 0 1 .96 3.84c.107.64.32 1.547.64 2.72.373 1.173.587 1.867.64 2.08.053.213.16.56.32 1.04.213.427.347.72.4.88.053.213.133.48.24.8.107.32.16.533.16.64v.32c0 .107.027.16.08.16.053 0 .16-.107.32-.32.16-.213.24-.427.24-.64v-.48c0-.16-.027-.347-.08-.56zM14.56 7.76c-.107-.16-.267-.24-.48-.24a1.773 1.773 0 0 0-.56-.08c-.267 0-.64.08-1.12.24-.427.107-.72.187-.88.24-.107.053-.24.107-.4.16-.107 0-.16.027-.16.08 0 .267.213.587.64.96.48.32 1.067.48 1.76.48.693 0 1.12-.08 1.28-.24.16-.16.24-.347.24-.56 0-.107-.053-.24-.16-.4l-.16-.64zM54.32 23.6c-.373-.853-.72-1.493-1.04-1.92-.267-.48-.507-1.067-.72-1.76a34.645 34.645 0 0 1-.88-2.08c-.267-.747-.507-1.413-.72-2a83.168 83.168 0 0 1-.72-2.08c-.267-.8-.507-1.413-.72-1.84-.32-.533-.693-.933-1.12-1.2-.427-.267-.88-.533-1.36-.8-.373-.213-.88-.507-1.52-.88a16.617 16.617 0 0 0-1.44-.96 6.335 6.335 0 0 0-1.76-.24h-.4c-.16 0-.32.027-.48.08-.053 0-.16.027-.32.08a.89.89 0 0 1-.4.08c-.107 0-.187.08-.24.24-.053.107-.107.24-.16.4-.053.213-.16.427-.32.64-.107.16-.293.347-.56.56a2.709 2.709 0 0 1-.96.48c-.32.107-.507.16-.56.16-.053 0-.107.027-.16.08-.053 0-.08.027-.08.08 0 .32.293.56.88.72.587.16 1.04.24 1.36.24.533 0 .907-.027 1.12-.08.213-.053.4-.08.56-.08.053 0 .133.107.24.32.107.16.267.32.48.48.427.267.96.613 1.6 1.04.64.427 1.147.72 1.52.88.213.053.32.24.32.56.053.267.08.507.08.72 0 .373.24 1.093.72 2.16a83.15 83.15 0 0 0 1.28 2.48c.053.16.133.373.24.64.16.213.293.48.4.8.053.373.213.8.48 1.28s.427.827.48 1.04l-.16.08c-.053.053-.107.08-.16.08-.053 0-.133-.053-.24-.16a1.777 1.777 0 0 1-.24-.56c-.053-.213-.133-.48-.24-.8a4.914 4.914 0 0 1-.08-.64l-.16-.16c-.053-.107-.107-.16-.16-.16-.053 0-.16.133-.32.4-.16.213-.347.427-.56.64l-.32.32c-.053.053-.08.133-.08.24 0 .053.24.293.72.72s.907.827 1.28 1.2c.533.427.987.747 1.36.96.373.16.693.32.96.48.32.16.587.347.8.56.267.16.48.347.64.56.107.107.187.213.24.32.053.107.133.16.24.16.053 0 .187-.053.4-.16.267-.16.48-.32.64-.48.213-.213.4-.427.56-.64.16-.267.24-.507.24-.72 0-.16-.027-.453-.08-.88-.053-.427-.187-.987-.4-1.68zm-40-13.92c-.053 0-.187.027-.4.08-.16.053-.347.08-.56.08a3.27 3.27 0 0 1-1.04-.16 6.207 6.207 0 0 1-.8-.32c-.32-.213-.533-.4-.64-.56a3.123 3.123 0 0 1-.24-.64c-.053-.16-.133-.24-.24-.24-.053-.053-.107-.08-.16-.08h-.4c-.16 0-.4.027-.72.08-.907.107-1.787.32-2.64.64-.853.267-1.76.507-2.72.72-.373.053-.853.133-1.44.24-.533.107-.88.187-1.04.24-.213.053-.373.213-.48.48-.107.213-.16.4-.16.56 0 .213.027.427.08.64.053.213.107.453.16.72.053.213.08.533.08.96v1.6c.053.747.133 1.547.24 2.4.16.8.24 1.307.24 1.52v2c.053.48.08.96.08 1.44v1.6c0 .107.027.16.08.16.373 0 .8-.267 1.28-.8L4 21.92c.213-.213.4-.667.56-1.36.16-.747.373-1.52.64-2.32a5.02 5.02 0 0 1 .32-.96l.24-.64c0-.053-.053-.16-.16-.32a2.406 2.406 0 0 1-.08-.4v-.32c.053-.16.08-.347.08-.56 0-.427-.16-.8-.48-1.12-.267-.373-.4-.587-.4-.64v-.16c.053-.053.107-.08.16-.08.053 0 .16.133.32.4.213.267.347.48.4.64 0 .107.053.267.16.48.107.213.187.32.24.32h.08c.053-.053.08-.16.08-.32 0-.213-.08-.427-.24-.64-.16-.213-.24-.347-.24-.4v-.08c.053-.107.107-.16.16-.16.053 0 .107.053.16.16.053.107.16.16.32.16s.267-.133.32-.4a8.03 8.03 0 0 1 .48-.96c.267-.427.48-.693.64-.8l.8-.4c.213-.107.48-.187.8-.24.32-.053.56-.08.72-.08.213 0 .72-.053 1.52-.16.8-.107 1.387-.187 1.76-.24.427-.053.72-.133.88-.24.213-.107.32-.187.32-.24 0-.053-.027-.08-.08-.08-.053-.053-.107-.08-.16-.08zM39.76 8.4c-.053 0-.293.053-.72.16-.373.107-.667.24-.88.4-.213.16-.373.347-.48.56-.107.213-.16.373-.16.48 0 .107.027.187.08.24.053.053.107.08.16.08.213 0 .48-.053.8-.16.373-.16.667-.347.88-.56.267-.213.427-.427.48-.64a2.41 2.41 0 0 0 .08-.4c0-.053-.027-.08-.08-.08-.053-.053-.107-.08-.16-.08zM21.6 10.32c-.16-.053-.453-.107-.88-.16a6.945 6.945 0 0 0-.96-.08c-.267 0-.453.027-.56.08-.107.053-.16.107-.16.16 0 .16.133.4.4.72.267.32.507.533.72.64.213.16.507.293.88.4.427.053.747.08.96.08.213 0 .4-.027.56-.08.16-.053.24-.24.24-.56 0-.373-.16-.64-.48-.8-.267-.213-.507-.347-.72-.4zm-.8 1.92c-.32-.053-.56-.133-.72-.24a12.73 12.73 0 0 1-.56-.4c-.213-.107-.373-.293-.48-.56a8.496 8.496 0 0 0-.24-.56.523.523 0 0 0-.24-.24c-.107-.053-.267-.08-.48-.08-.213 0-.48.027-.8.08-.32.053-.56.08-.72.08a.891.891 0 0 1-.4.08c-.16 0-.24.027-.24.08 0 .053.027.107.08.16l.16.16.16.16c.053.053.08.107.08.16 0 .053-.027.107-.08.16 0 .053-.027.08-.08.08-.053 0-.107-.027-.16-.08 0-.053-.027-.107-.08-.16 0-.053-.053-.133-.16-.24a1.252 1.252 0 0 0-.24-.32c-.053-.053-.133-.08-.24-.08h-.64a3.71 3.71 0 0 0-.72.08c-.213 0-.64.053-1.28.16-.64.053-1.067.107-1.28.16-.213 0-.373.027-.48.08-.053 0-.08.027-.08.08 0 .053.053.133.16.24.16.053.267.107.32.16l.16.16c.107.053.16.107.16.16 0 .053-.027.107-.08.16h-.08c-.053 0-.16-.053-.32-.16a.771.771 0 0 0-.4-.32 2.84 2.84 0 0 0-.8-.24 3.71 3.71 0 0 0-.72-.08c-.213 0-.507.107-.88.32a2.324 2.324 0 0 0-.88.88 5.064 5.064 0 0 0-.48 1.12c-.053.32-.133.693-.24 1.12a23.996 23.996 0 0 1-.64 1.84c-.213.533-.427 1.12-.64 1.76-.373 1.12-.64 2.027-.8 2.72-.107.693-.48 1.733-1.12 3.12-.213.533-.4 1.013-.56 1.44-.16.373-.24.72-.24 1.04 0 .8.213 1.787.64 2.96.48 1.12.88 1.68 1.2 1.68.053 0 .08-.027.08-.08a.614.614 0 0 0 .08-.24c0-.053-.027-.16-.08-.32a2.63 2.63 0 0 1-.08-.64c0-.8.427-1.893 1.28-3.28a32.502 32.502 0 0 0 2.32-4.16c.64-1.387 1.147-2.667 1.52-3.84.427-1.227.907-2.187 1.44-2.88.107-.107.267-.213.48-.32a3.13 3.13 0 0 1 .72-.4c.32-.107.613-.16.88-.16a3.71 3.71 0 0 1 .72-.08 39.61 39.61 0 0 0 2.48-.48 24.74 24.74 0 0 0 2.4-.64l2.08-.72.32-.16c.107-.053.16-.107.16-.16 0-.053-.053-.107-.16-.16a2.481 2.481 0 0 0-.48-.16zm3.36.48a.777.777 0 0 0-.48-.32 1.774 1.774 0 0 0-.56-.08c-.32 0-.747.133-1.28.4s-.8.48-.8.64c0 .053.08.133.24.24.16.107.293.267.4.48.053.107.133.213.24.32.107.053.187.08.24.08.107 0 .267-.027.48-.08.267-.107.587-.24.96-.4.32-.16.533-.293.64-.4.16-.107.24-.187.24-.24 0-.053-.027-.107-.08-.16l-.24-.48zm.16 1.2c-.053 0-.133.053-.24.16-.107.053-.24.107-.4.16-.213.053-.48.16-.8.32-.32.107-.587.16-.8.16-.213 0-.373-.08-.48-.24-.053-.16-.24-.4-.56-.72a1.252 1.252 0 0 0-.32-.24c-.107-.107-.187-.16-.24-.16-.213 0-.533.107-.96.32-.427.16-.72.293-.88.4-.107.053-.293.107-.56.16h-.48c-.373.053-.987.187-1.84.4-.8.213-1.387.32-1.76.32-.16.053-.293.107-.4.16-.053 0-.08.027-.08.08 0 .16.16.347.48.56.32.16.48.347.48.56 0 .053-.027.107-.08.16h-.16c-.053 0-.133-.08-.24-.24a3.88 3.88 0 0 0-.48-.56c-.16-.16-.32-.267-.48-.32a1.51 1.51 0 0 0-.48-.08c-.16 0-.373.107-.64.32a8.718 8.718 0 0 0-.64.72c-.427.693-.907 1.76-1.44 3.2a37.545 37.545 0 0 1-1.6 3.92 28.497 28.497 0 0 1-1.84 3.28c-.693 1.013-1.04 2.027-1.04 3.04 0 .373.187 1.013.56 1.92.373.853.8 1.28 1.28 1.28.053 0 .107-.053.16-.16.107-.107.187-.213.24-.32.16-.693.347-1.253.56-1.68.267-.48.667-.933 1.2-1.36.373-.32.72-.613 1.04-.88a8.25 8.25 0 0 0 1.04-.88c.32-.32.507-.533.56-.64.107-.107.16-.187.16-.24 0-.053-.027-.16-.08-.32v-.32c0-.64.027-1.12.08-1.44.107-.32.187-.507.24-.56.053 0 .08.027.08.08.053 0 .08.053.08.16 0 .053-.027.24-.08.56-.053.32-.08.587-.08.8 0 .16.027.32.08.48.053.107.107.16.16.16.107 0 .24-.107.4-.32.16-.213.24-.347.24-.4 0-.16-.027-.32-.08-.48a1.774 1.774 0 0 1-.08-.56c0-.267.053-.533.16-.8.107-.32.24-.667.4-1.04.053-.16.16-.32.32-.48.213-.213.4-.373.56-.48.32-.32.533-.587.64-.8.107-.213.24-.507.4-.88.053-.107.107-.293.16-.56.053-.267.133-.4.24-.4.053 0 .16.053.32.16.16.053.32.08.48.08.32 0 .533-.133.64-.4.16-.267.427-.427.8-.48.16-.053.4-.16.72-.32.373-.16.773-.427 1.2-.8.053-.053.187-.133.4-.24.267-.16.427-.267.48-.32.053-.053.133-.08.24-.08.16-.053.267-.08.32-.08.053 0 .267-.08.64-.24a5.85 5.85 0 0 0 1.2-.8c.373-.373.64-.693.8-.96.16-.267.24-.453.24-.56 0-.053-.027-.107-.08-.16 0-.053-.027-.08-.08-.08zm9.2.56c-.267 0-.533.08-.8.24-.213.107-.32.293-.32.56 0 .107.027.24.08.4.107.16.267.293.48.4l.48.32c.16.107.347.16.56.16.107 0 .213-.053.32-.16.16-.107.293-.24.4-.4.107-.16.24-.293.4-.4.16-.16.24-.32.24-.48 0-.107-.213-.24-.64-.4a3.428 3.428 0 0 0-1.2-.24zm-6.56 2.08c-.373 0-.773.107-1.2.32-.427.16-.64.347-.64.56 0 .053.027.133.08.24.107.107.24.213.4.32.267.213.507.4.72.56.267.107.48.16.64.16.267 0 .533-.187.8-.56.32-.373.48-.667.48-.88 0-.267-.133-.453-.4-.56-.213-.107-.507-.16-.88-.16zm-12.16 2.8c.053 0 .08.027.08.08v.16c0 .213-.053.453-.16.72-.053.213-.16.4-.32.56a.93.93 0 0 0-.16.24c-.053.053-.107.08-.16.08-.053 0-.107-.027-.16-.08v-.16c0-.213.107-.507.32-.88.213-.427.4-.667.56-.72zm26.8 3.36c.213.053.373.107.48.16.107.053.16.16.16.32 0 .053-.053.107-.16.16h-.16c-.053 0-.213-.053-.48-.16a2.509 2.509 0 0 1-.64-.48 2.509 2.509 0 0 1-.48-.64 2.19 2.19 0 0 1-.08-.48v-.16c.053-.107.107-.16.16-.16.053 0 .107.107.16.32.107.16.187.293.24.4.053.107.133.24.24.4.16.16.347.267.56.32zm-1.28 2.16c-.373-.373-.72-.613-1.04-.72l-.96-.32a2.975 2.975 0 0 0-.72-.08 4.498 4.498 0 0 0-.88-.08c-.213 0-.373.027-.48.08-.053.053-.08.133-.08.24 0 .053.027.08.08.08.107 0 .187.027.24.08l.24.24c.16.053.24.107.24.16 0 .053-.027.107-.08.16h-.16c-.373 0-.72-.08-1.04-.24-.267-.213-.747-.32-1.44-.32-.373 0-.667.053-.88.16-.16.053-.267.107-.32.16-.053.053-.133.187-.24.4-.053.16-.08.293-.08.4 0 .267.053.453.16.56.16.107.293.16.4.16.213 0 .453-.053.72-.16.267-.16.507-.24.72-.24.267 0 .533.107.8.32.32.213.613.32.88.32h.16a.615.615 0 0 1 .24-.08c.053 0 .08.027.08.08.053.053.08.133.08.24 0 .053.053.16.16.32.107.107.213.16.32.16.16 0 .293-.027.4-.08.107-.107.187-.16.24-.16.053 0 .107.053.16.16a.523.523 0 0 0 .24.24.71.71 0 0 0 .32.08h.4c.267 0 .507.053.72.16.213.107.373.16.48.16.107 0 .187-.027.24-.08a.891.891 0 0 0 .08-.4c0-.267-.16-.533-.48-.8-.32-.267-.587-.48-.8-.64a.93.93 0 0 0-.24-.16l-.16-.08v-.08c.053-.053.107-.08.16-.08.107 0 .24.107.4.32.213.16.427.293.64.4l.32.16c.16.053.267.08.32.08h.16c.053-.053.08-.107.08-.16 0-.053-.053-.16-.16-.32-.053-.16-.267-.427-.64-.8zm-15.04-.48c-.107-.053-.267-.08-.48-.08a1.51 1.51 0 0 0-.48-.08H24a.615.615 0 0 0-.24-.08c-.32 0-.587.107-.8.32-.16.16-.4.32-.72.48-.053 0-.107.053-.16.16l-.16.16c0 .16-.16.347-.48.56-.267.16-.4.32-.4.48 0 .053.027.107.08.16a.71.71 0 0 0 .32.08c.213 0 .56-.133 1.04-.4.48-.32 1.013-.48 1.6-.48.213 0 .373.027.48.08.107.053.267.08.48.08.16 0 .32-.08.48-.24.213-.16.32-.347.32-.56a.543.543 0 0 0-.16-.4 1.004 1.004 0 0 0-.4-.24zm3.52-.16c-.64 0-1.147.053-1.52.16-.373.107-.56.267-.56.48 0 .213.08.347.24.4.16.053.293.08.4.08.16 0 .373-.027.64-.08.32-.053.507-.08.56-.08h.16c.107 0 .16.027.16.08 0 .16-.293.32-.88.48-.587.16-.88.4-.88.72 0 .16.053.293.16.4.16.053.267.08.32.08.053 0 .107.027.16.08h.08c0 .053-.053.16-.16.32a.93.93 0 0 1-.16.24c-.107.107-.213.24-.32.4a2.08 2.08 0 0 1-.32.56l-.24.24c-.053.053-.08.133-.08.24a.71.71 0 0 0 .08.32c.107.107.267.16.48.16.107 0 .187-.027.24-.08.053-.053.107-.08.16-.08.053 0 .08.027.08.08.053 0 .08.027.08.08 0 .053-.053.133-.16.24-.053.053-.107.16-.16.32a4.23 4.23 0 0 1-.4.64c-.16.16-.347.373-.56.64-.16.213-.293.507-.4.88-.107.32-.16.56-.16.72v.56c.053.267.187.56.4.88.213.373.48.64.8.8.373.16.747.24 1.12.24.373 0 .773-.08 1.2-.24.427-.213.72-.507.88-.88.107-.267.16-.56.16-.88a7.96 7.96 0 0 0 .08-1.12c0-.373-.053-.72-.16-1.04a4.914 4.914 0 0 1-.08-.64c0-.16.027-.4.08-.72.053-.32.08-.533.08-.64a4.09 4.09 0 0 0-.08-.48c0-.267-.027-.507-.08-.72-.107-.32-.267-.507-.48-.56-.16-.107-.293-.16-.4-.16h-.24c-.053 0-.08-.027-.08-.08 0-.053.053-.08.16-.08h.24c.213 0 .56-.053 1.04-.16.533-.16.8-.4.8-.72 0-.16-.08-.24-.24-.24a.615.615 0 0 0-.24-.08c-.107 0-.293.053-.56.16-.213.053-.347.08-.4.08h-.24c-.053-.053-.08-.133-.08-.24 0-.053.08-.08.24-.08.213-.053.4-.08.56-.08.16 0 .293-.027.4-.08.16-.053.373-.107.64-.16.213-.107.347-.24.4-.4a.86.86 0 0 0 .16-.48c0-.213-.373-.347-1.12-.4a28.401 28.401 0 0 0-2-.08zm-3.68 5.92c-.213 0-.4.053-.56.16-.16.107-.293.213-.4.32a8.53 8.53 0 0 1-.48.4l-.4.4-.24.24-.08.16h-.16v-.24c0-.053.08-.24.24-.56.213-.373.373-.64.48-.8.107-.16.187-.347.24-.56.107-.213.16-.373.16-.48 0-.053-.053-.107-.16-.16-.053-.053-.107-.08-.16-.08a.615.615 0 0 0-.24.08c-.107 0-.187.053-.24.16-.053.16-.133.32-.24.48-.107.107-.187.16-.24.16h-.08c-.053-.053-.08-.107-.08-.16 0-.053.08-.187.24-.4.213-.267.347-.48.4-.64.053-.16.133-.267.24-.32.16-.107.347-.213.56-.32a2.42 2.42 0 0 0 .32-.24.93.93 0 0 1 .16-.24.93.93 0 0 1 .24-.16.93.93 0 0 0 .24-.16l.16-.16a.615.615 0 0 0 .08-.24c0-.053.053-.16.16-.32.107-.16.16-.267.16-.32 0-.053-.027-.08-.08-.08-.053-.053-.107-.08-.16-.08h-.16c-.053 0-.107.027-.16.08a.93.93 0 0 0-.16.24c0 .107-.027.16-.08.16h-.16c0-.053-.053-.08-.16-.08-.107 0-.187.053-.24.16 0 .107-.027.16-.08.16-.053 0-.107-.053-.16-.16 0-.107-.053-.16-.16-.16-.213 0-.32.08-.32.24 0 .107-.027.16-.08.16-.053 0-.107-.027-.16-.08 0-.053-.027-.08-.08-.08-.053 0-.08.027-.08.08 0 .053-.027.107-.08.16h-.16c-.053-.053-.133-.08-.24-.08-.213 0-.347.08-.4.24-.053.16-.107.24-.16.24-.053 0-.107-.027-.16-.08-.053-.107-.187-.16-.4-.16-.16 0-.293.08-.4.24a.986.986 0 0 0-.16.56c0 .16.053.267.16.32h.24c.213 0 .427-.027.64-.08.213-.107.347-.16.4-.16.053 0 .08.027.08.08.053 0 .08.027.08.08 0 .107-.107.187-.32.24-.213 0-.48.08-.8.24-.213.107-.4.213-.56.32-.107.107-.16.187-.16.24v.32a.71.71 0 0 1 .08.32c0 .107-.08.187-.24.24a.891.891 0 0 1-.4.08c-.267 0-.453.24-.56.72a4.7 4.7 0 0 0-.16 1.12c0 .267.053.48.16.64.16.107.32.16.48.16.16 0 .347-.16.56-.48.213-.373.373-.56.48-.56.053 0 .08.027.08.08.053 0 .08.027.08.08 0 .053-.08.187-.24.4l-.48.64c-.213.267-.4.64-.56 1.12a4.96 4.96 0 0 0-.16 1.2c0 .427.053.8.16 1.12.107.267.16.453.16.56.053.053.107.213.16.48.107.213.187.507.24.88.16.533.24.987.24 1.36.053.373.08.747.08 1.12 0 .107.027.267.08.48.053.16.133.24.24.24.213 0 .373-.16.48-.48.107-.373.187-.613.24-.72a.93.93 0 0 1 .16-.24l.16-.08c0-.053.053-.107.16-.16.16-.107.267-.213.32-.32a.93.93 0 0 1 .24-.16.93.93 0 0 0 .24-.16.93.93 0 0 0 .16-.24.523.523 0 0 1 .24-.24c.053-.053.133-.08.24-.08a.93.93 0 0 0 .24-.16h.16c.053-.053.08-.107.08-.16.053 0 .08-.027.08-.08 0-.053.027-.107.08-.16.053-.053.08-.107.08-.16.053-.053.08-.107.08-.16 0-.107-.107-.347-.32-.72a3.176 3.176 0 0 1-.32-1.44c0-.693.107-1.147.32-1.36.213-.267.373-.613.48-1.04l.4-1.28c.267-.853.4-1.307.4-1.36 0-.053-.053-.107-.16-.16-.053-.107-.107-.16-.16-.16zm16.72 16a3.899 3.899 0 0 0-.48-1.52 3.702 3.702 0 0 1-.32-1.52c0-.213-.027-.347-.08-.4l-.16-.16c-.053-.053-.107-.187-.16-.4 0-.267-.027-.587-.08-.96a10.075 10.075 0 0 0-.32-.96 7.984 7.984 0 0 0-.48-.96c-.267-.533-.64-1.253-1.12-2.16-.48-.96-.96-1.68-1.44-2.16a2.137 2.137 0 0 0-.56-.4c-.16-.16-.24-.293-.24-.4V34c.053-.053.107-.08.16-.08.053 0 .133.08.24.24l.4.4c.373.373.88.96 1.52 1.76.64.747 1.147 1.12 1.52 1.12.32 0 .533-.187.64-.56.107-.373.16-.667.16-.88 0-.267-.027-.64-.08-1.12a5.868 5.868 0 0 0-.4-1.6c-.48-1.12-.907-1.76-1.28-1.92-.32-.213-.48-.4-.48-.56v-.08c.053-.053.107-.08.16-.08.213 0 .4.107.56.32.213.16.48.24.8.24.373 0 .693-.16.96-.48.32-.32.48-.64.48-.96 0-.213-.053-.373-.16-.48a2.387 2.387 0 0 0-.24-.32c-.32-.267-.773-.453-1.36-.56-.587-.16-.987-.24-1.2-.24-.16 0-.32.027-.48.08a.615.615 0 0 1-.24.08c-.213 0-.373-.08-.48-.24-.107-.16-.4-.24-.88-.24-.107 0-.187-.027-.24-.08v-.24c0-.053-.027-.107-.08-.16 0-.053-.027-.08-.08-.08-.053 0-.107.027-.16.08h-.24v-.16c0-.053-.027-.107-.08-.16-.053-.053-.107-.08-.16-.08-.053 0-.107.027-.16.08h-.08c-.053 0-.107-.053-.16-.16-.053-.16-.107-.267-.16-.32a.48.48 0 0 0-.32-.32.891.891 0 0 0-.4-.08c-.107 0-.267.053-.48.16-.16.053-.24.187-.24.4 0 .16.133.32.4.48.32.107.613.293.88.56.107.107.4.32.88.64.48.267.827.4 1.04.4a.71.71 0 0 1 .32.08c.107 0 .16.027.16.08 0 .053-.053.107-.16.16h-.24c-.32 0-.667-.107-1.04-.32l-1.12-.64a3.123 3.123 0 0 0-.64-.24 2.082 2.082 0 0 0-.64-.08c-.213 0-.347.053-.4.16-.053.107-.08.267-.08.48 0 .533.267 1.04.8 1.52.587.427.88.8.88 1.12l-.08.08c0 .053-.027.08-.08.08-.213 0-.587-.427-1.12-1.28-.533-.853-.88-1.387-1.04-1.6a2.509 2.509 0 0 0-.64-.48c-.16-.107-.267-.16-.32-.16-.053 0-.107.027-.16.08-.053.053-.08.107-.08.16 0 .213.133.453.4.72.267.267.507.827.72 1.68.053.267.107.64.16 1.12.107.427.16.747.16.96 0 .267.027.48.08.64.053.107.133.24.24.4.213.373.347.72.4 1.04.107.32.16.56.16.72a5 5 0 0 1-.08.96c0 .267-.08.587-.24.96-.053.213-.213.48-.48.8-.213.32-.32.533-.32.64 0 .107.027.187.08.24.053.053.133.08.24.08.16 0 .267-.08.32-.24.107-.213.187-.32.24-.32.053 0 .08.053.08.16.053.053.08.107.08.16 0 .16.213.373.64.64.48.267.8.453.96.56.16.107.24.24.24.4.053.16.107.293.16.4a.523.523 0 0 0 .24.24c.107.053.187.08.24.08.053 0 .107-.027.16-.08a.615.615 0 0 0 .08-.24c0-.64-.32-1.467-.96-2.48-.587-1.013-.907-1.653-.96-1.92v-.08c.053-.053.107-.08.16-.08.16 0 .427.373.8 1.12.373.693.693 1.387.96 2.08.32.747.667 1.653 1.04 2.72.427 1.067.64 1.813.64 2.24 0 .16.027.293.08.4.053.053.08.107.08.16a.615.615 0 0 1-.08.24v.4c0 .16.08.32.24.48.16.16.24.4.24.72 0 .213.027.427.08.64.107.16.16.373.16.64a.86.86 0 0 1-.16.48c-.107.107-.187.16-.24.16h-.16c-.053-.053-.08-.107-.08-.16 0-.053.027-.187.08-.4a4.09 4.09 0 0 0 .08-.48c0-.213-.053-.4-.16-.56a.716.716 0 0 0-.48-.4l-.16-.16v-.4c0-.16-.053-.373-.16-.64a5.533 5.533 0 0 0-.16-.64c0-.213-.133-.427-.4-.64-.213-.213-.373-.32-.48-.32-.213 0-.347.107-.4.32v.4c0 .213.107.347.32.4.267 0 .4.16.4.48v.8c0 .107-.027.16-.08.16-.053 0-.107-.053-.16-.16a.891.891 0 0 0-.08-.4c-.053-.213-.133-.347-.24-.4-.107-.107-.16-.267-.16-.48-.053-.107-.16-.187-.32-.24-.107-.107-.16-.267-.16-.48 0-.213.08-.32.24-.32.213-.053.32-.187.32-.4 0-.053-.027-.107-.08-.16-.053-.053-.107-.08-.16-.08-.053 0-.133.053-.24.16-.053.053-.107.08-.16.08-.107 0-.187-.08-.24-.24a1.317 1.317 0 0 1-.08-.4c0-.16-.107-.32-.32-.48-.213-.213-.4-.32-.56-.32-.107 0-.187.053-.24.16-.053.107-.133.16-.24.16h-.16c0-.053-.027-.107-.08-.16l-.48-.16c-.16-.053-.293-.187-.4-.4 0-.16-.027-.347-.08-.56-.053-.267-.187-.4-.4-.4-.107 0-.187.08-.24.24a.615.615 0 0 0-.08.24v.16l.08.08c0 .053-.107.08-.32.08h-.32c-.32 0-.48.08-.48.24 0 .16-.347.293-1.04.4-.107 0-.24.053-.4.16-.16.107-.373.16-.64.16a1.42 1.42 0 0 1-.64-.16c-.213-.107-.4-.24-.56-.4l-.64-.48-.4-.4-.16-.16c-.053-.053-.107-.08-.16-.08-.053 0-.107-.027-.16-.08v-.16c0-.053-.053-.133-.16-.24a.543.543 0 0 0-.4-.16c-.107 0-.187.053-.24.16v.16c0 .107.053.213.16.32.107.107.187.16.24.16h.16c.053-.053.08-.053.08 0s-.08.16-.24.32a.891.891 0 0 1-.88.08c-.053-.053-.187-.08-.4-.08a.615.615 0 0 0-.24.08c-.107.053-.16.16-.16.32 0 .32-.133.507-.4.56-.267.053-.48.08-.64.08-.107 0-.24.053-.4.16-.16.053-.267.187-.32.4-.16.213-.267.4-.32.56a.615.615 0 0 0-.08.24c0 .053.027.133.08.24.053.107.08.267.08.48 0 .16-.08.347-.24.56a3.61 3.61 0 0 0-.32.48 2.42 2.42 0 0 0-.24.32c-.053.107-.107.16-.16.16-.053 0-.08-.053-.08-.16v-.32c0-.213.053-.32.16-.32.16-.053.267-.107.32-.16.053-.053.08-.133.08-.24.053-.16.08-.32.08-.48a.543.543 0 0 0-.16-.4c-.107-.107-.213-.16-.32-.16-.107 0-.187.027-.24.08V44a.71.71 0 0 1-.08.32.93.93 0 0 1-.16.24c-.16.213-.267.507-.32.88v.96c0 .213-.027.4-.08.56a1.33 1.33 0 0 0-.08.32v.4a.891.891 0 0 1-.08.88c-.107.16-.16.267-.16.32v.56c.053.213.08.613.08 1.2 0 .16.027.293.08.4.107.107.187.16.24.16.107 0 .187-.027.24-.08.107-.107.213-.16.32-.16.053 0 .133.08.24.24.107.107.16.187.16.24 0 .053-.053.133-.16.24l-.16.16c-.053.053-.107.16-.16.32a.615.615 0 0 0-.08.24l-.24.24c-.053.053-.08.187-.08.4 0 .16.08.267.24.32.16 0 .293.053.4.16.107.107.16.24.16.4a.71.71 0 0 1 .08.32.71.71 0 0 0 .08.32l.32.16a.93.93 0 0 1 .24.16c.107 0 .16.053.16.16 0 .107-.053.187-.16.24a.93.93 0 0 1-.24.16l-.24.24c-.053.053-.08.107-.08.16 0 .053.027.133.08.24.053.053.133.08.24.08.107 0 .24-.027.4-.08a.86.86 0 0 1 .48-.16c.213 0 .4.08.56.24.213.16.32.293.32.4 0 .16-.107.293-.32.4-.16.053-.24.16-.24.32v.16c.053.053.16.08.32.08s.347-.133.56-.4c.213-.267.32-.427.32-.48 0-.053-.027-.107-.08-.16v-.16c0-.053.027-.107.08-.16.053-.053.133-.08.24-.08.16 0 .293.08.4.24.107.16.373.24.8.24.267 0 .453-.027.56-.08l.24-.24.16-.16c.107-.107.213-.16.32-.16.107 0 .187.08.24.24.107.107.16.187.16.24 0 .053-.053.187-.16.4-.053.16-.08.293-.08.4 0 .16-.053.267-.16.32h-.24a.615.615 0 0 0-.24.08c-.053 0-.08.08-.08.24 0 .107.053.267.16.48.107.16.213.293.32.4.16.107.24.24.24.4.053.107.08.187.08.24v.32c.053.107.187.16.4.16.107 0 .16-.107.16-.32.053-.213.187-.32.4-.32.107 0 .213.08.32.24.16.107.267.16.32.16.16 0 .267-.08.32-.24.107-.16.24-.24.4-.24.107 0 .187.08.24.24.053.16.187.24.4.24.107 0 .187-.053.24-.16.107-.16.187-.32.24-.48.053-.107.133-.16.24-.16a.93.93 0 0 0 .24-.16.93.93 0 0 1 .24-.16c.16-.107.293-.187.4-.24.267-.32.48-.507.64-.56.16-.053.267-.107.32-.16l.16-.16c.053-.053.08-.107.08-.16v-.24c0-.107-.027-.187-.08-.24a2.19 2.19 0 0 0-.08-.48c0-.267-.053-.427-.16-.48a.93.93 0 0 1-.16-.24l-.16-.32a.777.777 0 0 0-.48-.32 1.317 1.317 0 0 0-.4-.08c-.16 0-.267.053-.32.16a.615.615 0 0 0-.08.24.71.71 0 0 1-.08.32c0 .107-.027.16-.08.16-.053 0-.107-.08-.16-.24-.053-.16-.187-.24-.4-.24-.213 0-.373.08-.48.24-.107.16-.24.24-.4.24a.986.986 0 0 1-.56-.16c-.107-.16-.267-.24-.48-.24a.891.891 0 0 0-.4.08c-.053.053-.107.08-.16.08-.053 0-.08-.027-.08-.08 0-.107-.027-.187-.08-.24 0-.053-.053-.107-.16-.16a.93.93 0 0 0-.24-.16h-.4c-.16-.053-.267-.107-.32-.16-.373-.213-.64-.347-.8-.4-.16-.107-.4-.32-.72-.64a17.181 17.181 0 0 1-1.84-2.16c-.48-.747-.72-1.467-.72-2.16v-.24c.053-.053.107-.08.16-.08.053 0 .187.373.4 1.12.213.747.827 1.467 1.84 2.16.213.107.4.213.56.32.213.107.373.16.48.16.107.053.267.16.48.32l.48.24c.107.053.347.107.72.16.427.053.933.08 1.52.08 1.013 0 1.76-.107 2.24-.32a6.255 6.255 0 0 0 1.52-.88l.56-.56c.373-.373.613-.667.72-.88.373-.213.64-.453.8-.72.213-.267.507-.667.88-1.2.053-.16.133-.267.24-.32.107-.107.187-.16.24-.16l-.16.4a3.123 3.123 0 0 1-.24.64c-.373.533-.8 1.093-1.28 1.68-.427.533-.693 1.04-.8 1.52a1.7 1.7 0 0 0-.32.4c0 .107-.027.187-.08.24l-.32.4a.93.93 0 0 0-.16.24.93.93 0 0 1-.16.24.93.93 0 0 1-.24.16h-.16a.615.615 0 0 0-.24.08c-.053 0-.08.053-.08.16 0 .053.16.187.48.4.373.16.613.24.72.24a.615.615 0 0 0 .24-.08.71.71 0 0 1 .32-.08c.107 0 .187.08.24.24.107.107.16.187.16.24 0 .053-.027.107-.08.16v.16c0 .16.053.293.16.4.16.053.293.08.4.08.107 0 .187-.027.24-.08.053-.053.08-.107.08-.16 0-.107-.027-.187-.08-.24a.615.615 0 0 1-.08-.24v-.16a.71.71 0 0 0 .08-.32.615.615 0 0 0-.08-.24v-.48c.053-.107.08-.267.08-.48 0-.053.027-.107.08-.16.053-.053.107-.08.16-.08.053 0 .133.027.24.08h.32c.267 0 .613-.107 1.04-.32.48-.213.72-.507.72-.88 0-.427.027-.8.08-1.12a5.9 5.9 0 0 1 .48-1.04v-.16c.053-.053.107-.08.16-.08.053 0 .107.027.16.08h.4c.053 0 .08.027.08.08 0 .053-.027.107-.08.16h-.16a.93.93 0 0 1-.24.16c-.053.053-.08.187-.08.4 0 .267.053.507.16.72.16.16.347.24.56.24.16 0 .267-.053.32-.16.107-.16.16-.267.16-.32a.71.71 0 0 0-.08-.32.615.615 0 0 1-.08-.24c0-.213.16-.427.48-.64.32-.213.48-.427.48-.64 0-.053-.027-.107-.08-.16v-.24c0-.16.027-.267.08-.32.107-.107.187-.16.24-.16.213 0 .347.08.4.24.107.16.267.24.48.24.32 0 .507-.213.56-.64.053-.427.08-.88.08-1.36 0-.267.027-.48.08-.64a.986.986 0 0 0 .16-.56zM8.16 36.48c-.16-.64-.32-1.12-.48-1.44a2.803 2.803 0 0 0-.4-.8.77.77 0 0 0-.4-.32c-.16-.107-.267-.16-.32-.16-.107 0-.187.053-.24.16v.24c0 .533.187 1.147.56 1.84.373.693.667 1.307.88 1.84a4 4 0 0 0 .4.96c.213.213.347.32.4.32h.08c.053-.053.08-.107.08-.16 0-.053-.053-.32-.16-.8-.053-.48-.187-1.04-.4-1.68zm24.08-2.72c-.16 0-.267.08-.32.24a3.898 3.898 0 0 1-.48.96.615.615 0 0 0-.08.24.71.71 0 0 0 .08.32c.053.107.24.16.56.16.32 0 .507-.133.56-.4.053-.267.08-.533.08-.8 0-.213-.053-.373-.16-.48-.107-.16-.187-.24-.24-.24zm-5.68 2.56c-.16-.213-.347-.347-.56-.4a1.42 1.42 0 0 0-.64-.16c-.213 0-.4.053-.56.16-.107.107-.16.267-.16.48 0 .213.027.347.08.4.107.053.187.08.24.08h.08c.053-.053.08-.107.08-.16h-.16c-.053-.053-.08-.16-.08-.32 0-.107.053-.187.16-.24.16-.053.267-.08.32-.08.053 0 .133.027.24.08.16 0 .293.053.4.16.16.16.373.427.64.8.267.373.48.56.64.56h.08c.053-.053.08-.107.08-.16 0-.053-.107-.187-.32-.4a7.284 7.284 0 0 0-.56-.8zm4.4-.32c-.373 0-.667.08-.88.24-.213.16-.4.347-.56.56-.053.107-.16.213-.32.32-.107.107-.16.187-.16.24v.16h.16c.053 0 .133-.053.24-.16a1.7 1.7 0 0 0 .32-.4c.16-.213.32-.373.48-.48.16-.16.347-.24.56-.24.213 0 .347.053.4.16.107.107.16.24.16.4 0 .16-.027.32-.08.48a.615.615 0 0 0-.08.24v.16h.16v-.08a.93.93 0 0 1 .16-.24c.053-.053.08-.133.08-.24.053-.16.08-.347.08-.56 0-.16-.08-.293-.24-.4-.107-.107-.267-.16-.48-.16zM30 37.84c-.053 0-.293.107-.72.32-.427.16-.8.24-1.12.24-.267 0-.507-.053-.72-.16-.213-.16-.373-.24-.48-.24-.053 0-.107.027-.16.08-.053 0-.08.107-.08.32 0 .053.053.16.16.32.107.16.213.267.32.32.053.107.133.213.24.32.16.053.32.08.48.08.16 0 .293-.027.4-.08a.891.891 0 0 1 .4-.08c.16 0 .267.027.32.08.053.053.187.08.4.08.373 0 .613-.133.72-.4.107-.267.16-.48.16-.64 0-.213-.053-.347-.16-.4-.053-.107-.107-.16-.16-.16zm5.12 8.72c.16.373.24.64.24.8.053.107.08.187.08.24h-.32a.615.615 0 0 0-.24.08c-.107 0-.267.107-.48.32-.213.213-.4.427-.56.64l-.24.32h-.16v-.16l.16-.16c.16-.16.24-.293.24-.4 0-.107-.027-.187-.08-.24-.053-.053-.107-.08-.16-.08-.053 0-.107.053-.16.16 0 .053-.027.107-.08.16l-.24.24c-.053.053-.107.08-.16.08a.615.615 0 0 0-.24.08c-.053 0-.107.053-.16.16-.053.16-.133.347-.24.56-.053.16-.133.267-.24.32a.93.93 0 0 0-.16.24c-.053.053-.08.107-.08.16-.053.053-.107.16-.16.32a.93.93 0 0 1-.16.24l-.24.24a.93.93 0 0 1-.16.24.93.93 0 0 1-.24.16c-.053.053-.16.08-.32.08a.93.93 0 0 0-.24.16l-.16.16-.32.32c-.16.107-.293.16-.4.16-.053 0-.107-.053-.16-.16-.053-.16-.16-.24-.32-.24-.213 0-.347.053-.4.16 0 .053-.027.08-.08.08-.053 0-.107-.053-.16-.16-.053-.107-.107-.16-.16-.16-.107 0-.24-.027-.4-.08-.107-.107-.187-.16-.24-.16-.213 0-.32.053-.32.16 0 .053-.053.08-.16.08-.107 0-.213-.08-.32-.24-.053-.213-.16-.32-.32-.32-.267-.107-.64-.427-1.12-.96-.48-.587-.72-.987-.72-1.2 0-.053-.027-.107-.08-.16a.93.93 0 0 0-.16-.24 8.53 8.53 0 0 1-.4-.48c-.213-.32-.507-.48-.88-.48-.267 0-.453.08-.56.24-.107.107-.213.16-.32.16-.053 0-.133-.133-.24-.4a6.34 6.34 0 0 1-.08-1.04c0-.32.08-.72.24-1.2.16-.48.4-.88.72-1.2.267-.32.587-.64.96-.96a2.34 2.34 0 0 1 1.44-.48c.64 0 1.253.107 1.84.32.64.16 1.067.24 1.28.24a3.8 3.8 0 0 0 1.04-.16c.373-.16.907-.24 1.6-.24.533 0 1.013.107 1.44.32.427.16.8.427 1.12.8.32.373.64.8.96 1.28.32.48.533.907.64 1.28zm-2.24-1.6c-.16-.32-.293-.507-.4-.56a.543.543 0 0 0-.4-.16c-.213 0-.373.107-.48.32-.107.16-.16.293-.16.4v.4c.053.16.08.267.08.32a.615.615 0 0 1-.08.24c0 .053-.027.08-.08.08l-.08-.24v-.56c0-.213-.053-.4-.16-.56a2.017 2.017 0 0 0-.24-.48c-.053-.107-.187-.187-.4-.24-.213-.107-.347-.16-.4-.16-.053 0-.187.027-.4.08-.16 0-.347.053-.56.16a.966.966 0 0 0-.56.56c-.053.213-.08.347-.08.4 0 .053-.027.16-.08.32 0 .16-.027.24-.08.24-.053 0-.08-.08-.08-.24v-.8c0-.267-.16-.453-.48-.56-.32-.16-.587-.24-.8-.24-.213 0-.4.107-.56.32-.16.16-.267.427-.32.8a4.5 4.5 0 0 0-.32 1.28c-.053.48-.08.827-.08 1.04 0 .213.213.373.64.48.427.107.773.16 1.04.16.427 0 .667-.053.72-.16.107-.16.16-.293.16-.4v-.24c.053-.107.107-.16.16-.16.053 0 .08.08.08.24l.16.48c.053.053.187.133.4.24.213.107.507.16.88.16.32 0 .56-.053.72-.16l.48-.32a.543.543 0 0 0 .16-.4c.053-.213.08-.347.08-.4v-.16c.053-.107.107-.16.16-.16.053 0 .08.053.08.16.053.107.107.267.16.48.053.213.16.373.32.48.16.053.293.08.4.08.213 0 .427-.133.64-.4.213-.32.32-.507.32-.56 0-.053-.053-.24-.16-.56a6.019 6.019 0 0 0-.4-1.04zm-7.68-.56c-.267 0-.48.16-.64.48-.16.267-.293.507-.4.72-.053.213-.107.453-.16.72v.64c0 .213.027.373.08.48a.71.71 0 0 0 .32.08c.213 0 .4-.053.56-.16.213-.16.32-.293.32-.4.053-.053.107-.347.16-.88.107-.533.16-.853.16-.96 0-.107-.027-.24-.08-.4 0-.213-.107-.32-.32-.32zm.16 4.24c0-.16-.107-.267-.32-.32-.16-.107-.267-.16-.32-.16a.615.615 0 0 0-.24.08c-.053 0-.08.027-.08.08 0 .16.053.267.16.32.16.053.267.107.32.16l.16.32c.107.053.187.08.24.08.053 0 .08-.027.08-.08v-.48zm1.84 1.92c0-.053-.027-.293-.08-.72v-.96c0-.16-.08-.267-.24-.32-.107-.107-.267-.16-.48-.16-.213 0-.4.08-.56.24-.16.107-.24.427-.24.96 0 .053.107.187.32.4l.56.56.32.32h.24c.053 0 .08-.027.08-.08a.615.615 0 0 0 .08-.24zm3.6-2c-.213 0-.373.107-.48.32a1.33 1.33 0 0 0-.08.32v.24c0 .053-.027.08-.08.08-.053 0-.107-.08-.16-.24v-.4c0-.107-.053-.187-.16-.24-.053-.053-.213-.08-.48-.08-.32 0-.507.053-.56.16-.053.107-.107.16-.16.16-.053 0-.107-.027-.16-.08 0-.107-.187-.16-.56-.16-.213 0-.373.027-.48.08-.107.053-.16.107-.16.16 0 .053.027.347.08.88.053.533.08.827.08.88 0 .107.133.24.4.4.267.107.427.16.48.16h.08c.053-.053.08-.107.08-.16v-.24c.053-.107.107-.16.16-.16.053 0 .08.053.08.16.053.053.08.107.08.16 0 .053.053.133.16.24.107.107.267.16.48.16.213 0 .347-.053.4-.16.107-.107.16-.4.16-.88V50c.053-.053.107-.08.16-.08.053 0 .08.08.08.24.053.107.08.24.08.4 0 .107.027.187.08.24h.4a.93.93 0 0 0 .24-.16c.107-.053.187-.16.24-.32.107-.16.187-.293.24-.4.053-.107.133-.24.24-.4a1.42 1.42 0 0 0 .16-.64c0-.16-.133-.24-.4-.24a2.975 2.975 0 0 0-.72-.08z" fill="#000"/></svg>