<svg width="18" height="16" viewBox="0 0 18 16" fill="none" xmlns="http://www.w3.org/2000/svg">
<path d="M16.3928 15.0714C16.7974 15.0714 17.148 14.9378 17.446 14.674L12.3463 9.57413C12.224 9.66174 12.1054 9.74694 11.9933 9.82795C11.6117 10.1091 11.302 10.3285 11.0641 10.4858C10.8263 10.6434 10.5099 10.804 10.1149 10.968C9.7197 11.1321 9.35149 11.214 9.00992 11.214H8.99992H8.98992C8.64832 11.214 8.28011 11.1322 7.88491 10.968C7.48971 10.804 7.1733 10.6434 6.93572 10.4858C6.69791 10.3285 6.38833 10.1092 6.00649 9.82795C5.90009 9.74995 5.78208 9.66436 5.6545 9.57275L0.553833 14.674C0.851842 14.9378 1.20266 15.0714 1.60724 15.0714H16.3928Z" fill="black"/>
<path d="M1.01462 6.36276C0.633012 6.10835 0.29461 5.81698 0 5.48877V13.2478L4.49484 8.75298C3.59562 8.1252 2.43701 7.32937 1.01462 6.36276Z" fill="black"/>
<path d="M16.9956 6.36276C15.6274 7.28879 14.4646 8.08598 13.507 8.75478L18 13.248V5.48877C17.7119 5.81037 17.3772 6.10155 16.9956 6.36276Z" fill="black"/>
<path d="M16.393 0.928711H1.60753C1.09171 0.928711 0.695135 1.1029 0.417322 1.45091C0.13928 1.79908 0.000488281 2.23451 0.000488281 2.7567C0.000488281 3.1785 0.184673 3.63553 0.552879 4.12792C0.921084 4.62012 1.31289 5.00672 1.72808 5.28793C1.9557 5.44875 2.64211 5.92595 3.78732 6.71935C4.40553 7.14775 4.94315 7.52116 5.40514 7.84338C5.79894 8.11776 6.13855 8.35538 6.41894 8.55257C6.45113 8.57515 6.50175 8.61136 6.56894 8.6594C6.64133 8.7114 6.73293 8.77738 6.84594 8.85898C7.06356 9.01637 7.24434 9.14359 7.38833 9.24078C7.53212 9.338 7.70634 9.4466 7.91072 9.56719C8.11494 9.68761 8.30755 9.77817 8.48834 9.8384C8.66916 9.8986 8.83654 9.92879 8.99053 9.92879H9.00053H9.01053C9.16449 9.92879 9.33191 9.8986 9.51276 9.8384C9.69351 9.77817 9.88596 9.68781 10.0903 9.56719C10.2945 9.4466 10.4685 9.33777 10.6128 9.24078C10.7568 9.14359 10.9375 9.0164 11.1552 8.85898C11.268 8.77738 11.3596 8.71136 11.432 8.65957C11.4992 8.61133 11.5498 8.57535 11.5822 8.55257C11.8006 8.40058 12.141 8.16394 12.5986 7.84616C13.4314 7.26756 14.6578 6.41595 16.283 5.28793C16.7718 4.94653 17.1802 4.53453 17.5084 4.05253C17.836 3.57053 18.0003 3.06494 18.0003 2.53592C18.0003 2.09392 17.841 1.71571 17.5232 1.40071C17.205 1.0861 16.8283 0.928711 16.393 0.928711Z" fill="black"/>
</svg>
