<svg width="49" height="51" viewBox="0 0 49 51" fill="none" xmlns="http://www.w3.org/2000/svg">
<g clip-path="url(#clip0_811_2538)">
<path d="M41.2798 23.9021C41.2798 23.0769 40.6372 22.408 39.8443 22.408C39.0517 22.408 38.4087 23.0769 38.4087 23.9021C38.4087 31.9028 32.1551 38.412 24.4664 38.412C16.7679 38.412 10.5273 31.9296 10.5273 23.9037V23.9021C10.5273 23.0769 9.88471 22.4088 9.0918 22.4088C8.29888 22.4088 7.65625 23.0784 7.65625 23.9037C7.65625 33.0693 14.4145 40.5832 23.0327 41.3365V48.0142H16.7802C15.9873 48.0142 15.3447 48.6831 15.3447 49.5084C15.3447 50.3336 15.9873 51.0025 16.7802 51.0025H32.1562C32.9492 51.0025 33.5918 50.3336 33.5918 49.5084C33.5918 48.6831 32.9492 48.0142 32.1562 48.0142H25.9034V41.3357C34.504 40.575 41.2798 33.0471 41.2798 23.9021Z" fill="#212121" fill-opacity="0.6"/>
<path d="M24.4678 34.996C29.8694 34.996 34.3327 30.8229 35.0333 25.3934H25.9034C25.1112 25.3934 24.4678 24.7249 24.4678 23.8992C24.4678 23.0744 25.1112 22.4051 25.9034 22.4051H35.1294V18.9923H25.9034C25.1112 18.9923 24.4678 18.3231 24.4678 17.4982C24.4678 16.6725 25.1112 16.004 25.9034 16.004H35.1294V12.5905H25.9034C25.1112 12.5905 24.4678 11.9212 24.4678 11.0963C24.4678 10.2718 25.1112 9.60219 25.9034 9.60219H35.0325C34.3301 4.18787 29.8608 0 24.4678 0C18.5802 0 13.8066 4.95751 13.8066 11.0963V23.8996C13.8066 30.0276 18.5697 34.996 24.4678 34.996Z" fill="#212121" fill-opacity="0.6"/>
</g>
<defs>
<clipPath id="clip0_811_2538">
<rect width="49" height="51" fill="white"/>
</clipPath>
</defs>
</svg>
