<svg width="49" height="49" viewBox="0 0 49 49" fill="none" xmlns="http://www.w3.org/2000/svg">
<path d="M17.0543 18.375H31.4098C31.5621 18.375 31.7081 18.3145 31.8158 18.2068C31.9235 18.0991 31.984 17.9531 31.984 17.8008C31.984 17.6485 31.9235 17.5024 31.8158 17.3947C31.7081 17.2871 31.5621 17.2266 31.4098 17.2266H17.0543C16.902 17.2266 16.756 17.2871 16.6483 17.3947C16.5406 17.5024 16.4801 17.6485 16.4801 17.8008C16.4801 17.9531 16.5406 18.0991 16.6483 18.2068C16.756 18.3145 16.902 18.375 17.0543 18.375Z" fill="#FECC2F"/>
<path d="M11.256 17.6943L9.9802 18.914L9.46274 18.3966C9.40968 18.3421 9.34633 18.2986 9.27636 18.2688C9.20638 18.239 9.13118 18.2234 9.05512 18.2229C8.97906 18.2224 8.90365 18.237 8.83328 18.2658C8.76291 18.2947 8.69898 18.3373 8.6452 18.3911C8.59142 18.4449 8.54886 18.5088 8.51999 18.5792C8.49112 18.6495 8.47653 18.725 8.47705 18.801C8.47757 18.8771 8.4932 18.9523 8.52302 19.0222C8.55285 19.0922 8.59628 19.1556 8.65079 19.2086L9.56524 20.1232C9.67135 20.2293 9.81478 20.2896 9.96483 20.2913C10.1149 20.293 10.2596 20.2359 10.3681 20.1322L12.0497 18.5243C12.1047 18.4724 12.1489 18.41 12.1798 18.3409C12.2106 18.2717 12.2275 18.1972 12.2294 18.1215C12.2313 18.0458 12.2183 17.9705 12.191 17.8999C12.1637 17.8293 12.1227 17.7648 12.0704 17.7101C12.0181 17.6554 11.9554 17.6116 11.8861 17.5811C11.8168 17.5507 11.7422 17.5343 11.6665 17.5328C11.5908 17.5314 11.5156 17.5449 11.4451 17.5726C11.3747 17.6003 11.3104 17.6417 11.256 17.6943Z" fill="#FECC2F"/>
<path d="M10.355 15.0159C9.58424 15.0159 8.83075 15.2444 8.18985 15.6727C7.54895 16.1009 7.04944 16.7096 6.75447 17.4217C6.4595 18.1338 6.38233 18.9174 6.53271 19.6734C6.68309 20.4294 7.05428 21.1238 7.59932 21.6689C8.14437 22.2139 8.8388 22.5851 9.59479 22.7354C10.3508 22.8858 11.1344 22.8086 11.8465 22.5136C12.5586 22.2186 13.1673 21.7191 13.5955 21.0782C14.0237 20.4373 14.2523 19.6838 14.2523 18.913C14.2511 17.8798 13.8401 16.8892 13.1095 16.1586C12.3789 15.428 11.3883 15.017 10.355 15.0159ZM10.355 21.6618C9.81138 21.6618 9.27993 21.5006 8.8279 21.1985C8.37586 20.8965 8.02354 20.4672 7.81549 19.9649C7.60745 19.4626 7.55301 18.9099 7.65907 18.3767C7.76514 17.8435 8.02693 17.3537 8.41136 16.9693C8.79578 16.5849 9.28557 16.3231 9.81878 16.217C10.352 16.111 10.9047 16.1654 11.407 16.3734C11.9092 16.5815 12.3385 16.9338 12.6406 17.3859C12.9426 17.8379 13.1038 18.3693 13.1038 18.913C13.1031 19.6418 12.8133 20.3406 12.298 20.856C11.7826 21.3714 11.0839 21.6614 10.355 21.6622V21.6618Z" fill="#FECC2F"/>
<path d="M17.0543 27.9453H31.4098C31.5621 27.9453 31.7081 27.8848 31.8158 27.7771C31.9235 27.6694 31.984 27.5234 31.984 27.3711C31.984 27.2188 31.9235 27.0727 31.8158 26.9651C31.7081 26.8574 31.5621 26.7969 31.4098 26.7969H17.0543C16.902 26.7969 16.756 26.8574 16.6483 26.9651C16.5406 27.0727 16.4801 27.2188 16.4801 27.3711C16.4801 27.5234 16.5406 27.6694 16.6483 27.7771C16.756 27.8848 16.902 27.9453 17.0543 27.9453Z" fill="#FECC2F"/>
<path d="M11.256 27.2646L9.9802 28.4844L9.46274 27.9669C9.40968 27.9124 9.34633 27.869 9.27636 27.8391C9.20638 27.8093 9.13118 27.7937 9.05512 27.7932C8.97906 27.7927 8.90365 27.8073 8.83328 27.8362C8.76291 27.865 8.69898 27.9076 8.6452 27.9614C8.59142 28.0152 8.54886 28.0791 8.51999 28.1495C8.49112 28.2199 8.47653 28.2953 8.47705 28.3713C8.47757 28.4474 8.4932 28.5226 8.52302 28.5926C8.55285 28.6625 8.59628 28.7259 8.65079 28.7789L9.56524 29.6935C9.67135 29.7996 9.81478 29.8599 9.96483 29.8616C10.1149 29.8633 10.2596 29.8062 10.3681 29.7025L12.0497 28.0947C12.1047 28.0427 12.1489 27.9803 12.1798 27.9112C12.2106 27.8421 12.2275 27.7675 12.2294 27.6918C12.2313 27.6162 12.2183 27.5409 12.191 27.4702C12.1637 27.3996 12.1227 27.3351 12.0704 27.2804C12.0181 27.2257 11.9554 27.1819 11.8861 27.1514C11.8168 27.121 11.7422 27.1046 11.6665 27.1031C11.5908 27.1017 11.5156 27.1152 11.4451 27.1429C11.3747 27.1706 11.3104 27.212 11.256 27.2646Z" fill="#FECC2F"/>
<path d="M10.355 24.5862C9.58424 24.5862 8.83075 24.8148 8.18985 25.243C7.54895 25.6712 7.04944 26.2799 6.75447 26.992C6.4595 27.7042 6.38233 28.4878 6.53271 29.2437C6.68309 29.9997 7.05428 30.6942 7.59932 31.2392C8.14437 31.7842 8.8388 32.1554 9.59479 32.3057C10.3508 32.4561 11.1344 32.3789 11.8465 32.0839C12.5586 31.7889 13.1673 31.2894 13.5955 30.6485C14.0237 30.0076 14.2523 29.2541 14.2523 28.4833C14.2511 27.4501 13.8401 26.4595 13.1095 25.7289C12.3789 24.9983 11.3883 24.5873 10.355 24.5862ZM10.355 31.2321C9.81138 31.2321 9.27993 31.0709 8.8279 30.7688C8.37586 30.4668 8.02354 30.0375 7.81549 29.5352C7.60745 29.0329 7.55301 28.4803 7.65907 27.947C7.76514 27.4138 8.02693 26.924 8.41136 26.5396C8.79578 26.1552 9.28557 25.8934 9.81878 25.7873C10.352 25.6813 10.9047 25.7357 11.407 25.9438C11.9092 26.1518 12.3385 26.5041 12.6406 26.9562C12.9426 27.4082 13.1038 27.9396 13.1038 28.4833C13.1031 29.2121 12.8133 29.9109 12.298 30.4263C11.7826 30.9417 11.0839 31.2317 10.355 31.2325V31.2321Z" fill="#FECC2F"/>
<path d="M11.256 36.8349L9.9802 38.0547L9.46274 37.5372C9.40968 37.4827 9.34633 37.4393 9.27636 37.4095C9.20638 37.3796 9.13118 37.364 9.05512 37.3635C8.97906 37.363 8.90365 37.3776 8.83328 37.4065C8.76291 37.4353 8.69898 37.4779 8.6452 37.5317C8.59142 37.5855 8.54886 37.6494 8.51999 37.7198C8.49112 37.7902 8.47653 37.8656 8.47705 37.9416C8.47757 38.0177 8.4932 38.0929 8.52302 38.1629C8.55285 38.2328 8.59628 38.2962 8.65079 38.3492L9.56524 39.2638C9.67135 39.3699 9.81478 39.4302 9.96483 39.4319C10.1149 39.4336 10.2596 39.3765 10.3681 39.2728L12.0497 37.665C12.1047 37.613 12.1489 37.5506 12.1798 37.4815C12.2106 37.4124 12.2275 37.3378 12.2294 37.2621C12.2313 37.1865 12.2183 37.1112 12.191 37.0406C12.1637 36.9699 12.1227 36.9054 12.0704 36.8507C12.0181 36.796 11.9554 36.7522 11.8861 36.7218C11.8168 36.6913 11.7422 36.6749 11.6665 36.6734C11.5908 36.672 11.5156 36.6855 11.4451 36.7132C11.3747 36.7409 11.3104 36.7823 11.256 36.8349Z" fill="#FECC2F"/>
<path d="M10.355 34.1565C9.58424 34.1565 8.83075 34.3851 8.18985 34.8133C7.54895 35.2415 7.04944 35.8502 6.75447 36.5623C6.4595 37.2745 6.38233 38.0581 6.53271 38.8141C6.68309 39.5701 7.05428 40.2645 7.59932 40.8095C8.14437 41.3545 8.8388 41.7257 9.59479 41.8761C10.3508 42.0264 11.1344 41.9492 11.8465 41.6543C12.5586 41.3593 13.1673 40.8597 13.5955 40.2188C14.0237 39.5779 14.2523 38.8244 14.2523 38.0536C14.2511 37.0204 13.8401 36.0298 13.1095 35.2992C12.3789 34.5686 11.3883 34.1576 10.355 34.1565ZM10.355 40.8024C9.81138 40.8024 9.27993 40.6412 8.8279 40.3392C8.37586 40.0371 8.02354 39.6078 7.81549 39.1055C7.60745 38.6033 7.55301 38.0506 7.65907 37.5174C7.76514 36.9841 8.02693 36.4944 8.41136 36.1099C8.79578 35.7255 9.28557 35.4637 9.81878 35.3577C10.352 35.2516 10.9047 35.306 11.407 35.5141C11.9092 35.7221 12.3385 36.0744 12.6406 36.5265C12.9426 36.9785 13.1038 37.51 13.1038 38.0536C13.1031 38.7825 12.8133 39.4813 12.298 39.9967C11.7826 40.5121 11.0839 40.802 10.355 40.8028V40.8024Z" fill="#FECC2F"/>
<path d="M17.0543 20.2891H24.7106C24.8629 20.2891 25.0089 20.2286 25.1166 20.1209C25.2243 20.0132 25.2848 19.8671 25.2848 19.7148C25.2848 19.5626 25.2243 19.4165 25.1166 19.3088C25.0089 19.2011 24.8629 19.1406 24.7106 19.1406H17.0543C16.902 19.1406 16.756 19.2011 16.6483 19.3088C16.5406 19.4165 16.4801 19.5626 16.4801 19.7148C16.4801 19.8671 16.5406 20.0132 16.6483 20.1209C16.756 20.2286 16.902 20.2891 17.0543 20.2891Z" fill="#FECC2F"/>
<path d="M17.0543 29.8594H24.7106C24.8629 29.8594 25.0089 29.7989 25.1166 29.6912C25.2243 29.5835 25.2848 29.4374 25.2848 29.2852C25.2848 29.1329 25.2243 28.9868 25.1166 28.8791C25.0089 28.7714 24.8629 28.7109 24.7106 28.7109H17.0543C16.902 28.7109 16.756 28.7714 16.6483 28.8791C16.5406 28.9868 16.4801 29.1329 16.4801 29.2852C16.4801 29.4374 16.5406 29.5835 16.6483 29.6912C16.756 29.7989 16.902 29.8594 17.0543 29.8594Z" fill="#FECC2F"/>
<path d="M5.64648 9.00562C5.49419 9.00562 5.34814 9.06611 5.24045 9.1738C5.13276 9.28149 5.07227 9.42754 5.07227 9.57983V10.1828C5.07227 10.3351 5.13276 10.4811 5.24045 10.5888C5.34814 10.6965 5.49419 10.757 5.64648 10.757C5.79878 10.757 5.94483 10.6965 6.05252 10.5888C6.16021 10.4811 6.2207 10.3351 6.2207 10.1828V9.57983C6.2207 9.42754 6.16021 9.28149 6.05252 9.1738C5.94483 9.06611 5.79878 9.00562 5.64648 9.00562Z" fill="#FECC2F"/>
<path d="M5.64648 11.426C5.49419 11.426 5.34814 11.4865 5.24045 11.5942C5.13276 11.7019 5.07227 11.848 5.07227 12.0002V17.551C5.07227 17.7033 5.13276 17.8494 5.24045 17.9571C5.34814 18.0648 5.49419 18.1252 5.64648 18.1252C5.79878 18.1252 5.94483 18.0648 6.05252 17.9571C6.16021 17.8494 6.2207 17.7033 6.2207 17.551V12.0002C6.2207 11.9248 6.20585 11.8502 6.17699 11.7805C6.14814 11.7108 6.10584 11.6475 6.05252 11.5942C5.9992 11.5409 5.9359 11.4986 5.86623 11.4697C5.79656 11.4409 5.72189 11.426 5.64648 11.426Z" fill="#FECC2F"/>
<path d="M43.7622 25.6197C43.3781 25.5391 42.9817 25.5355 42.5962 25.6091C42.2106 25.6827 41.8435 25.8321 41.516 26.0485L35.6015 29.9327V8.38599C35.6015 6.48628 34.0403 4.97656 32.1405 4.97656H28.5195V3.19409C28.5195 3.0418 28.459 2.89574 28.3513 2.78806C28.2436 2.68037 28.0976 2.61987 27.9453 2.61987C27.793 2.61987 27.6469 2.68037 27.5393 2.78806C27.4316 2.89574 27.3711 3.0418 27.3711 3.19409V4.97656H22.4902V3.19409C22.4902 3.0418 22.4297 2.89574 22.322 2.78806C22.2143 2.68037 22.0683 2.61987 21.916 2.61987C21.7637 2.61987 21.6176 2.68037 21.51 2.78806C21.4023 2.89574 21.3418 3.0418 21.3418 3.19409V4.97656H16.5566V3.19409C16.5566 3.0418 16.4961 2.89574 16.3884 2.78806C16.2807 2.68037 16.1347 2.61987 15.9824 2.61987C15.8301 2.61987 15.684 2.68037 15.5764 2.78806C15.4687 2.89574 15.4082 3.0418 15.4082 3.19409V4.97656H10.5273V3.19409C10.5273 3.0418 10.4668 2.89574 10.3591 2.78806C10.2514 2.68037 10.1054 2.61987 9.9531 2.61987C9.80081 2.61987 9.65475 2.68037 9.54706 2.78806C9.43938 2.89574 9.37888 3.0418 9.37888 3.19409V4.97656H6.30068C5.8511 4.97335 5.40534 5.0592 4.98911 5.22915C4.57288 5.39911 4.19442 5.6498 3.87558 5.96677C3.55673 6.28374 3.30381 6.66071 3.1314 7.07593C2.95899 7.49115 2.87051 7.9364 2.87107 8.38599V42.9348C2.87107 44.8346 4.40088 46.416 6.30068 46.416H32.1405C34.0403 46.416 35.6015 44.8346 35.6015 42.9348V37.0811L44.7973 31.0423C45.2911 30.7178 45.6777 30.2542 45.9081 29.71C46.1384 29.1659 46.2023 28.5656 46.0915 27.9852C45.9807 27.4047 45.7003 26.8702 45.2857 26.4492C44.8711 26.0281 44.3409 25.7395 43.7622 25.6197ZM27.9128 8.57251C28.1137 8.57251 28.31 8.63206 28.477 8.74364C28.644 8.85521 28.7741 9.0138 28.851 9.19934C28.9278 9.38488 28.9479 9.58905 28.9087 9.78602C28.8696 9.98299 28.7729 10.1639 28.6308 10.3059C28.4888 10.4479 28.3079 10.5446 28.1109 10.5838C27.914 10.623 27.7098 10.6029 27.5243 10.526C27.3387 10.4492 27.1801 10.319 27.0686 10.1521C26.957 9.98507 26.8974 9.78875 26.8974 9.58792C26.8977 9.3187 27.0048 9.06059 27.1951 8.87023C27.3855 8.67986 27.6436 8.57279 27.9128 8.57251ZM21.9292 8.57251C22.13 8.57253 22.3263 8.6321 22.4933 8.74369C22.6603 8.85527 22.7904 9.01386 22.8672 9.19941C22.9441 9.38495 22.9642 9.58911 22.925 9.78608C22.8858 9.98304 22.7891 10.164 22.6471 10.306C22.5051 10.448 22.3241 10.5447 22.1272 10.5838C21.9302 10.623 21.726 10.6029 21.5405 10.526C21.355 10.4492 21.1964 10.319 21.0848 10.152C20.9732 9.98506 20.9137 9.78875 20.9137 9.58792C20.914 9.3187 21.0211 9.06058 21.2115 8.87022C21.4018 8.67986 21.66 8.57279 21.9292 8.57251ZM15.9454 8.57251C16.1462 8.57257 16.3425 8.63217 16.5094 8.74378C16.6764 8.85539 16.8065 9.01399 16.8833 9.19954C16.9601 9.38509 16.9801 9.58924 16.9409 9.78619C16.9017 9.98315 16.805 10.164 16.663 10.306C16.521 10.448 16.34 10.5447 16.1431 10.5838C15.9461 10.623 15.7419 10.6029 15.5564 10.526C15.3709 10.4491 15.2123 10.319 15.1008 10.152C14.9892 9.98505 14.9297 9.78874 14.9297 9.58792C14.93 9.31866 15.0371 9.06052 15.2275 8.87015C15.4179 8.67978 15.6761 8.57274 15.9454 8.57251ZM9.96171 8.57251C10.1625 8.57253 10.3588 8.6321 10.5258 8.74369C10.6928 8.85527 10.8229 9.01386 10.8998 9.19941C10.9766 9.38495 10.9967 9.58911 10.9575 9.78608C10.9183 9.98304 10.8216 10.164 10.6796 10.306C10.5376 10.448 10.3566 10.5447 10.1597 10.5838C9.96271 10.623 9.75855 10.6029 9.57301 10.526C9.38748 10.4492 9.2289 10.319 9.11733 10.152C9.00575 9.98506 8.9462 9.78875 8.9462 9.58792C8.94651 9.3187 9.0536 9.06058 9.24398 8.87022C9.43436 8.67986 9.69248 8.57279 9.96171 8.57251ZM34.4531 42.9348C34.4502 43.5491 34.2063 44.1378 33.7738 44.5741C33.3413 45.0103 32.7548 45.2594 32.1405 45.2676H6.30068C5.03396 45.2676 4.0195 44.2014 4.0195 42.9348V8.38599C4.01879 8.08716 4.07745 7.79118 4.19209 7.51522C4.30673 7.23926 4.47505 6.98883 4.68729 6.77847C4.89953 6.56811 5.15145 6.40202 5.42841 6.28984C5.70538 6.17766 6.00188 6.12163 6.30068 6.125H9.37888V7.50198C8.51755 7.75425 7.79356 8.59357 7.79356 9.5883C7.79356 9.8724 7.84951 10.1537 7.95823 10.4162C8.06695 10.6787 8.22631 10.9172 8.42719 11.118C8.62808 11.3189 8.86657 11.4783 9.12904 11.587C9.39151 11.6957 9.67283 11.7517 9.95693 11.7517C10.241 11.7517 10.5223 11.6957 10.7848 11.587C11.0473 11.4783 11.2858 11.3189 11.4867 11.118C11.6875 10.9172 11.8469 10.6787 11.9556 10.4162C12.0643 10.1537 12.1203 9.8724 12.1203 9.5883C12.1271 9.11231 11.9737 8.64783 11.6849 8.26947C11.396 7.8911 10.9883 7.62081 10.5273 7.50198V6.125H15.4082V7.50198C14.9456 7.6201 14.5359 7.88974 14.2445 8.2679C13.9531 8.64605 13.7967 9.11091 13.8004 9.5883C13.8004 10.1628 14.0286 10.7138 14.4348 11.12C14.841 11.5262 15.392 11.7544 15.9665 11.7544C16.541 11.7544 17.092 11.5262 17.4982 11.12C17.9044 10.7138 18.1327 10.1628 18.1327 9.5883C18.1245 9.11853 17.9675 8.66345 17.6843 8.28854C17.4011 7.91364 17.0063 7.63824 16.5566 7.50198V6.125H21.3418V7.50198C20.4804 7.75425 19.7587 8.59357 19.7587 9.5883C19.7587 10.1619 19.9866 10.7121 20.3922 11.1177C20.7979 11.5233 21.348 11.7512 21.9216 11.7512C22.4953 11.7512 23.0454 11.5233 23.451 11.1177C23.8566 10.7121 24.0845 10.1619 24.0845 9.5883C24.091 9.11219 23.9374 8.6477 23.6482 8.26937C23.3591 7.89103 22.9513 7.62078 22.4902 7.50198V6.125H27.3711V7.50198C26.9087 7.62011 26.4992 7.88983 26.2081 8.26803C25.917 8.64622 25.7611 9.11107 25.7653 9.5883C25.7653 10.1627 25.9935 10.7136 26.3996 11.1198C26.8058 11.526 27.3567 11.7542 27.9311 11.7542C28.5055 11.7542 29.0564 11.526 29.4626 11.1198C29.8688 10.7136 30.097 10.1627 30.097 9.5883C30.097 8.59395 29.3808 7.75463 28.5195 7.50198V6.125H32.1405C33.407 6.125 34.4531 7.11955 34.4531 8.38599V30.6868L32.2962 32.1032C32.23 32.1468 32.1735 32.2036 32.1302 32.27C32.087 32.3365 32.058 32.4112 32.0451 32.4894C32.0322 32.5676 32.0356 32.6477 32.0551 32.7245C32.0746 32.8013 32.1098 32.8733 32.1585 32.9358C32.2472 33.0496 32.3754 33.1259 32.5178 33.1494C32.6601 33.1729 32.8061 33.142 32.9266 33.0628L41.4651 27.4557L42.1596 28.5128L27.6934 38.0133L26.9987 36.9561L29.7167 35.1715C29.7797 35.1301 29.834 35.0767 29.8763 35.0143C29.9187 34.952 29.9484 34.8818 29.9637 34.808C29.979 34.7342 29.9797 34.658 29.9655 34.584C29.9514 34.5099 29.9228 34.4393 29.8815 34.3763C29.8401 34.3132 29.7867 34.259 29.7243 34.2166C29.6619 34.1742 29.5918 34.1445 29.518 34.1292C29.4441 34.1139 29.368 34.1133 29.2939 34.1274C29.2199 34.1415 29.1493 34.1701 29.0863 34.2115L25.8908 36.3098C25.885 36.3137 25.8796 36.3186 25.8737 36.3227C25.8591 36.333 25.845 36.3434 25.831 36.355C25.8264 36.3589 25.8224 36.3633 25.8181 36.3673H17.0543C16.902 36.3673 16.7559 36.4278 16.6482 36.5355C16.5405 36.6432 16.4801 36.7892 16.4801 36.9415C16.4801 37.0938 16.5405 37.2398 16.6482 37.3475C16.7559 37.4552 16.902 37.5157 17.0543 37.5157H25.1709L24.7642 38.284C24.7465 38.2824 24.7287 38.2813 24.7105 38.2813H17.0543C16.902 38.2813 16.7559 38.3418 16.6482 38.4495C16.5405 38.5572 16.4801 38.7033 16.4801 38.8556C16.4801 39.0079 16.5405 39.1539 16.6482 39.2616C16.7559 39.3693 16.902 39.4298 17.0543 39.4298H24.1578L23.4939 40.684C23.4476 40.7715 23.4247 40.8694 23.4274 40.9684C23.4302 41.0673 23.4584 41.1639 23.5094 41.2487C23.5605 41.3335 23.6326 41.4037 23.7187 41.4524C23.8049 41.5011 23.9022 41.5268 24.0012 41.5268C24.0062 41.5268 24.0113 41.5268 24.0163 41.5268L28.8691 41.3996C28.8809 41.3996 28.8925 41.3973 28.9041 41.3964C28.9158 41.3954 28.9291 41.3948 28.9416 41.3928C28.9568 41.3905 28.9715 41.3866 28.9862 41.3833C28.9972 41.3807 29.0082 41.3789 29.0191 41.3756C29.0441 41.3681 29.0687 41.3589 29.0925 41.348C29.0983 41.3454 29.1038 41.3417 29.1095 41.3384C29.1281 41.3294 29.1462 41.3193 29.1637 41.3083C29.1656 41.3071 29.1676 41.3064 29.1693 41.3052L34.4531 37.8354V42.9348ZM27.8076 40.2784L24.9683 40.3527L26.2567 37.9182L27.8076 40.2784ZM29.0187 40.0302L28.9746 39.9632L28.3238 38.9733L42.79 29.4733L43.4846 30.5303L29.0187 40.0302ZM44.4281 29.8742L42.4417 26.851C42.6865 26.7481 42.9505 26.699 43.2159 26.707C43.4813 26.715 43.7418 26.7799 43.98 26.8974C44.1179 26.9638 44.2459 27.0491 44.3602 27.1509C44.5537 27.319 44.7101 27.5255 44.8193 27.7574C44.9285 27.9892 44.9883 28.2413 44.9946 28.4976C45.001 28.7538 44.954 29.0085 44.8564 29.2456C44.7589 29.4826 44.613 29.6967 44.4281 29.8742Z" fill="#FECC2F"/>
</svg>
