<svg width="49" height="49" viewBox="0 0 49 49" fill="none" xmlns="http://www.w3.org/2000/svg">
<path d="M0.816666 29.4H5.71667C6.16767 29.4 6.53333 29.7656 6.53333 30.2166H8.98333C9.43434 30.2166 9.8 30.5823 9.8 31.0333V31.1803L13.1083 31.8418L21.4677 31.0333C21.6691 31.014 21.8705 31.0701 22.0329 31.1909L23.7405 32.4641L25.6801 31.1705C25.8348 31.0659 26.0207 31.0175 26.2068 31.0333L35.0856 31.841L39.2 31.1582V31.0333C39.2 30.5823 39.5657 30.2166 40.0167 30.2166H42.4667C42.4667 29.7656 42.8323 29.4 43.2833 29.4H48.1833C48.6343 29.4 49 29.7656 49 30.2166V44.9166C49 45.3676 48.6343 45.7333 48.1833 45.7333H43.2833C42.8323 45.7333 42.4667 45.3676 42.4667 44.9166H40.0167C39.5657 44.9166 39.2 44.551 39.2 44.1H36.0901L23.9871 48.942C23.822 49.0075 23.64 49.0178 23.4685 48.9714L14.4852 46.5214C14.056 46.4088 13.7991 45.9695 13.9117 45.5402C13.9139 45.5322 13.9161 45.5241 13.9184 45.5161L9.75345 44.3466C9.64933 44.6848 9.33715 44.9158 8.98333 44.9166H6.53333C6.53333 45.3676 6.16767 45.7333 5.71667 45.7333H0.816666C0.365662 45.7333 0 45.3676 0 44.9166V30.2166C0 29.7656 0.365662 29.4 0.816666 29.4ZM44.1 44.1H47.3667V31.0333H44.1V44.1ZM40.8333 43.2833H42.4667V31.85H40.8333V43.2833ZM23.6343 47.3233L35.6295 42.5246C35.7262 42.4863 35.8293 42.4666 35.9333 42.4666H39.2V32.8136L35.2514 33.4719C35.1826 33.4831 35.1127 33.4858 35.0432 33.48L26.3465 32.6895L25.1321 33.4988L27.3371 35.1379C28.6248 35.9863 28.9809 37.718 28.1324 39.0057C27.6146 39.7916 26.7356 40.2639 25.7944 40.2616C25.2241 40.2606 24.6669 40.09 24.1938 39.7716L23.7184 39.4139L16.4436 45.3658L23.6343 47.3233ZM9.80653 42.6643L15.288 44.202L22.3767 38.398L21.0545 37.4033L22.0345 36.0966L25.1378 38.4347C25.6726 38.7919 26.3958 38.648 26.7531 38.1131C26.9029 37.8888 26.9702 37.6194 26.9435 37.351C26.9052 36.9898 26.7036 36.666 26.3963 36.4723L21.3109 32.6928L13.1483 33.4833C13.0686 33.4903 12.9884 33.4859 12.9099 33.4702L9.80653 32.8496V42.6643ZM6.53333 43.2833H8.16667V31.85H6.53333V43.2833ZM1.63334 44.1H4.9V31.0333H1.63334V44.1Z" fill="#FECC2F"/>
<path d="M36.4235 44.9817L37.0672 46.4829L31.3507 48.9341L30.707 47.4329L36.4235 44.9817Z" fill="#FECC2F"/>
<path d="M30.2167 11.4333H37.5667V6.53333C37.5667 6.08232 37.9323 5.71666 38.3833 5.71666H40.8333V2.45C40.8333 1.99899 41.199 1.63333 41.65 1.63333H42.4667V0H44.1V1.63333H44.9167C45.3677 1.63333 45.7333 1.99899 45.7333 2.45V5.71666H48.1833C48.6343 5.71666 49 6.08232 49 6.53333V26.95C49 27.401 48.6343 27.7666 48.1833 27.7666H30.2167C29.7657 27.7666 29.4 27.401 29.4 26.95V12.25C29.4 11.799 29.7657 11.4333 30.2167 11.4333ZM44.1 3.26666H42.4667V5.71666H44.1V3.26666ZM39.2 26.1333H47.3667V7.35H39.2V26.1333ZM31.0333 14.7H32.6667V16.3333H31.0333V17.9667H32.6667V19.6H31.0333V26.1333H37.5667V13.0667H31.0333V14.7Z" fill="#FECC2F"/>
<path d="M44.1 12.25H45.7333V13.8833H44.1V12.25Z" fill="#FECC2F"/>
<path d="M40.8333 12.25H42.4667V13.8833H40.8333V12.25Z" fill="#FECC2F"/>
<path d="M44.1 15.5167H45.7333V17.15H44.1V15.5167Z" fill="#FECC2F"/>
<path d="M40.8333 15.5167H42.4667V17.15H40.8333V15.5167Z" fill="#FECC2F"/>
<path d="M44.1 18.7833H45.7333V20.4167H44.1V18.7833Z" fill="#FECC2F"/>
<path d="M34.3 14.7H35.9333V16.3333H34.3V14.7Z" fill="#FECC2F"/>
<path d="M34.3 17.9666H35.9333V19.5999H34.3V17.9666Z" fill="#FECC2F"/>
<path d="M44.1 8.98334H45.7333V10.6167H44.1V8.98334Z" fill="#FECC2F"/>
<path d="M40.8333 8.98334H42.4667V10.6167H40.8333V8.98334Z" fill="#FECC2F"/>
<path d="M13.8833 0V1.225C13.8833 1.9015 14.4318 2.45 15.1083 2.45C16.687 2.45 17.9667 3.72971 17.9667 5.30833V6.53333H16.3333V5.30833C16.3333 4.63182 15.7848 4.08333 15.1083 4.08333C13.5297 4.08333 12.25 2.80361 12.25 1.225V0H13.8833Z" fill="#FECC2F"/>
<path d="M0.285023 18.1635L6.00169 13.2635C6.34408 12.9699 6.8596 13.0094 7.15329 13.3518C7.28018 13.4998 7.35001 13.6884 7.35001 13.8834V15.6073L10.085 13.2635C10.4274 12.9699 10.9429 13.0094 11.2366 13.3518C11.3635 13.4998 11.4333 13.6884 11.4333 13.8834V17.9667H13.0667V9.80002H12.25V8.16669H12.8396C12.5502 7.66301 12.0143 7.35176 11.4333 7.35002C9.17934 7.34737 7.35266 5.52069 7.35001 3.26669V1.63336H8.98334V3.26669C8.98334 4.61981 10.0802 5.71669 11.4333 5.71669C12.9183 5.72231 14.2128 6.72875 14.584 8.16669H18.7833V9.80002H17.9667V17.9667H18.7833C19.2343 17.9667 19.6 18.3323 19.6 18.7833V26.95C19.6 27.401 19.2343 27.7667 18.7833 27.7667H0.816673C0.365669 27.7667 5.72205e-06 27.401 5.72205e-06 26.95V18.7833C5.72205e-06 18.5451 0.10413 18.3187 0.285023 18.1635ZM16.3333 9.80002H14.7V17.9667H16.3333V9.80002ZM1.63334 26.1333H17.9667V19.6H10.6167C10.1657 19.6 9.80001 19.2344 9.80001 18.7833V15.6588L7.06499 18.0034C6.7226 18.297 6.20708 18.2575 5.91339 17.9151C5.7864 17.7671 5.71667 17.5786 5.71667 17.3836V15.6588L1.63334 19.159V26.1333Z" fill="#FECC2F"/>
<path d="M6.53332 22.8666H8.16666V24.5H6.53332V22.8666Z" fill="#FECC2F"/>
<path d="M3.26666 22.8666H4.89999V24.5H3.26666V22.8666Z" fill="#FECC2F"/>
<path d="M6.53332 19.6H8.16666V21.2333H6.53332V19.6Z" fill="#FECC2F"/>
<path d="M3.26666 19.6H4.89999V21.2333H3.26666V19.6Z" fill="#FECC2F"/>
<path d="M14.7 21.2333H16.3333V22.8667H14.7V21.2333Z" fill="#FECC2F"/>
<path d="M11.4333 21.2333H13.0667V22.8667H11.4333V21.2333Z" fill="#FECC2F"/>
<path d="M23.6833 20.4167V18.7833H25.3167V20.4167H26.95V22.05H25.3167V23.6833H23.6833V22.05H22.05V20.4167H23.6833Z" fill="#FECC2F"/>
</svg>
