<svg width="252" height="279" viewBox="0 0 252 279" fill="none" xmlns="http://www.w3.org/2000/svg">
<path d="M250.405 48.8416C248.263 34.9717 240.767 22.7613 229.403 14.4631C225.833 11.855 222.025 9.78046 218.099 8.18008C217.087 7.76516 216.076 7.40952 215.065 7.05388C213.339 6.46115 211.614 5.98696 209.829 5.57205C176.392 -3.25969 143.194 -1.60004 108.508 10.6696C71.145 23.9468 40.2073 49.6122 21.3472 82.9239C5.52144 110.842 -1.26104 142.968 1.65424 175.805C3.73658 199.337 11.5305 222.75 24.322 244.622C27.1778 252.505 31.9374 259.499 38.1845 265.19C39.0174 265.96 39.8503 266.671 40.7428 267.383C41.3972 267.916 42.0517 268.39 42.7061 268.865C52.0469 275.681 62.9941 279 73.7628 279C90.0645 279 106.128 271.532 116.421 257.484C124.75 246.163 128.142 232.293 125.94 218.423C124.869 211.606 122.549 205.205 119.098 199.455C118.622 198.685 118.146 197.855 117.611 197.084C116.837 195.958 116.005 194.832 115.172 193.765C99.9408 172.427 97.7989 151.681 108.925 132.062C122.668 107.819 149.917 97.9793 179.486 105.981C181.45 106.752 183.472 107.345 185.495 107.878C186.685 108.174 187.875 108.411 189.065 108.649C192.099 109.182 195.134 109.419 198.168 109.419C214.47 109.419 230.533 101.951 240.826 87.9028C249.155 76.5816 252.547 62.7116 250.405 48.8416ZM190.969 102.069C187.816 101.595 184.722 100.765 181.688 99.5797C177.999 98.1571 174.489 96.2604 171.157 93.8302C150.69 78.9525 146.228 50.2642 161.162 29.8741C168.42 19.9755 179.07 13.5147 191.207 11.6772C193.587 11.3216 195.966 11.1437 198.346 11.1437C201.797 11.1437 205.188 11.5587 208.52 12.3292C211.138 12.922 213.696 13.7518 216.195 14.8187C219.408 16.182 222.501 17.9009 225.417 20.0348C235.352 27.2661 241.837 37.8761 243.682 49.9678C245.586 62.0596 242.611 74.1514 235.352 83.9908C224.822 98.2757 207.449 104.677 190.969 102.069ZM110.947 253.453C96.0141 273.844 67.2183 278.289 46.7518 263.411C46.5138 263.234 46.2758 263.056 46.0379 262.819C38.8389 257.366 33.5438 250.075 30.569 241.717C29.6171 239.05 28.9032 236.264 28.4867 233.419C26.5828 221.327 29.5576 209.236 36.8161 199.396C44.0745 189.497 54.7242 183.037 66.8613 181.199C69.2411 180.844 71.6209 180.666 74.0007 180.666C83.6985 180.666 93.0393 183.689 101.012 189.497C104.343 191.928 107.259 194.714 109.758 197.796C111.304 199.752 112.732 201.767 113.922 203.96C116.6 208.702 118.444 213.918 119.277 219.431C121.121 231.463 118.146 243.555 110.947 253.453ZM102.975 128.742C93.4558 145.576 92.5038 163.002 100 180.784C89.648 174.857 77.6895 172.605 65.7309 174.501C51.8089 176.635 39.5529 184.104 31.2235 195.425C25.0955 203.782 21.6447 213.444 21.1093 223.52C14.1483 207.813 9.86461 191.513 8.43672 175.213C5.64044 143.798 12.1254 113.035 27.2373 86.3024C45.2644 54.4133 74.9527 29.8149 110.769 17.1304C130.105 10.2546 148.965 6.81679 167.647 6.81679C171.99 6.81679 176.273 6.99461 180.557 7.40952C170.621 10.9067 161.935 17.2489 155.569 25.9621C147.24 37.2833 143.848 51.1533 146.05 65.0233C148.013 77.4114 154.141 88.4956 163.601 96.616C138.018 95.1342 115.529 106.574 102.975 128.742Z" fill="white"/>
</svg>
