<svg width="68" height="68" viewBox="0 0 68 68" fill="none" xmlns="http://www.w3.org/2000/svg">
<g clip-path="url(#clip0)">
<path d="M56.9696 0.0020752H1.11897C0.502096 0.0020752 0.00195312 0.506826 0.00195312 1.12938V66.513C0.00195312 67.1356 0.502096 67.6404 1.11897 67.6404H56.9696C57.5865 67.6404 58.0866 67.1356 58.0866 66.513V1.12938C58.0866 0.506685 57.5865 0.0020752 56.9696 0.0020752ZM55.8526 65.3857H2.23598V2.25668H55.8526V65.3857Z" fill="#FECC2F"/>
<path d="M66.9431 6.34689L64.7091 0.710369C64.4808 0.131921 63.8311 -0.150046 63.2579 0.0803471C62.9729 0.194909 62.7472 0.422766 62.6336 0.710369L60.3996 6.34689C60.3471 6.47992 60.3202 6.62196 60.3203 6.76512V64.2577C60.3203 66.1255 61.8206 67.6396 63.6714 67.6396C65.5221 67.6396 67.0224 66.1255 67.0224 64.2577V6.76512C67.0225 6.62196 66.9956 6.48006 66.9431 6.34689ZM64.7884 64.2578C64.7884 64.8804 64.2882 65.3851 63.6714 65.3851C63.0545 65.3851 62.5543 64.8804 62.5543 64.2578V62.0032H64.7884V64.2578ZM64.7884 59.7486H62.5543V11.2745H64.7884V59.7486ZM64.7884 9.01987H62.5543V6.98171L63.6714 4.16344L64.7884 6.98171V9.01987Z" fill="#FECC2F"/>
<path d="M16.7561 11.2745C9.97015 11.2745 4.469 16.8264 4.469 23.6749C4.42627 30.4803 9.85817 36.0321 16.6016 36.0752C16.6531 36.0755 16.7046 36.0755 16.7561 36.0752C23.5421 36.0752 29.0433 30.5234 29.0433 23.6749C29.0433 16.8264 23.5421 11.2745 16.7561 11.2745ZM17.8732 13.5911C19.7615 13.7979 21.5515 14.5463 23.0315 15.7477L17.8732 20.9536V13.5911ZM8.90228 30.0074C5.43689 25.6295 6.14438 19.2453 10.4823 15.748C11.9651 14.5525 13.7529 13.8051 15.639 13.5921V23.6747C15.6412 23.8058 15.6662 23.9356 15.7127 24.058C15.7183 24.0727 15.7127 24.0885 15.7239 24.1031C15.7351 24.1178 15.7529 24.1437 15.7641 24.1663C15.8071 24.2556 15.862 24.3387 15.9272 24.4131C15.9428 24.4312 15.9495 24.4548 15.9663 24.4718L23.0314 31.602C18.6935 35.0993 12.3677 34.3854 8.90228 30.0074ZM24.6121 30.0079L18.3356 23.6747L24.6121 17.3415C27.5417 21.0462 27.5417 26.3035 24.6121 30.0079Z" fill="#FECC2F"/>
<path d="M53.6184 18.0382H49.1504V20.2928H53.6184V18.0382Z" fill="#FECC2F"/>
<path d="M46.9143 18.0382H35.7441V20.2928H46.9143V18.0382Z" fill="#FECC2F"/>
<path d="M53.6181 27.0568H46.916V29.3114H53.6181V27.0568Z" fill="#FECC2F"/>
<path d="M44.6802 27.0568H35.7441V29.3114H44.6802V27.0568Z" fill="#FECC2F"/>
<path d="M53.6174 22.5475H42.4473V24.8021H53.6174V22.5475Z" fill="#FECC2F"/>
<path d="M40.2122 22.5475H35.7441V24.8021H40.2122V22.5475Z" fill="#FECC2F"/>
<path d="M33.1875 18.3652C32.7424 17.9409 32.0465 17.9409 31.6013 18.3652C31.3972 18.5812 31.2814 18.8671 31.2774 19.1656C31.2745 19.4655 31.3912 19.7539 31.6013 19.966C31.7125 20.0652 31.8365 20.1486 31.9699 20.214C32.105 20.268 32.2492 20.2947 32.3944 20.2929C33.0051 20.2991 33.5053 19.8046 33.5114 19.1883C33.5116 19.1807 33.5116 19.1732 33.5114 19.1656C33.5072 18.867 33.3916 18.5812 33.1875 18.3652Z" fill="#FECC2F"/>
<path d="M33.4221 23.2465C33.3654 23.1099 33.2861 22.9841 33.1875 22.8745C32.7396 22.4574 32.0493 22.4574 31.6014 22.8745C31.5004 22.9823 31.4208 23.1085 31.3668 23.2465C31.1886 23.666 31.2816 24.1526 31.6014 24.4752C32.0357 24.9173 32.7431 24.9202 33.1811 24.4819C33.3942 24.2687 33.5133 23.9778 33.5114 23.6749C33.5152 23.5269 33.4846 23.3802 33.4221 23.2465Z" fill="#FECC2F"/>
<path d="M32.3944 27.0568C31.7775 27.0568 31.2774 27.5615 31.2774 28.1841C31.2745 28.4839 31.3912 28.7724 31.6013 28.9845C32.0357 29.4265 32.7431 29.4295 33.1811 28.9911C33.3941 28.7779 33.5132 28.487 33.5114 28.1841C33.5114 27.5614 33.0113 27.0568 32.3944 27.0568Z" fill="#FECC2F"/>
<path d="M40.2122 5.63794H35.7441V7.89255H40.2122V5.63794Z" fill="#FECC2F"/>
<path d="M33.5112 5.63794H17.873V7.89255H33.5112V5.63794Z" fill="#FECC2F"/>
<path d="M44.6812 60.8758H6.70278V39.457C6.70278 38.8345 6.20263 38.3297 5.58576 38.3297C4.96889 38.3297 4.46875 38.8345 4.46875 39.457V62.0031C4.46875 62.6257 4.96889 63.1304 5.58576 63.1304H44.6812C45.2981 63.1304 45.7982 62.6257 45.7982 62.0031C45.7982 61.3805 45.2981 60.8758 44.6812 60.8758Z" fill="#FECC2F"/>
<path d="M42.054 52.1246C42.0413 52.1142 42.0284 52.104 42.0152 52.0942L39.8928 50.428L42.2598 46.8455C42.6022 46.3275 42.4637 45.6274 41.9504 45.2819C41.4371 44.9364 40.7435 45.0762 40.4011 45.5942L38.1246 49.0392L31.9632 44.2019C31.5719 43.8932 31.0259 43.8822 30.6228 44.1749L23.351 49.4157L19.4839 47.4644C19.1696 47.3058 18.7996 47.3058 18.4853 47.4644L14.2406 49.6062L10.7857 46.5061C10.325 46.0921 9.61872 46.1336 9.2085 46.5986C8.79827 47.0636 8.83932 47.7763 9.30009 48.1903L12.0926 50.6918L9.54695 51.9758C8.99752 52.2568 8.77719 52.9336 9.05435 53.4887C9.32969 54.0458 10.0005 54.272 10.5525 53.9941C10.5528 53.994 10.5531 53.9938 10.5534 53.9937L13.9044 52.3027L19.37 57.2065C19.6689 57.4741 20.0868 57.5601 20.4658 57.432L26.8405 55.2901L34.3245 57.4489C34.4234 57.4773 34.5256 57.4926 34.6284 57.494C35.0017 57.494 35.3505 57.3059 35.5577 56.9923L38.6496 52.3084L40.6435 53.8731C41.1218 54.2661 41.8254 54.1934 42.215 53.7106C42.6045 53.2278 42.5325 52.5176 42.054 52.1246ZM34.1515 55.0622L27.1144 53.0331C26.8978 52.9711 26.6677 52.9766 26.4542 53.0489L20.3642 55.0961L16.0492 51.2249L18.9903 49.7357L22.9591 51.7446C23.3292 51.9307 23.771 51.8951 24.1074 51.6521L31.2495 46.5049L36.8826 50.9273L34.1515 55.0622Z" fill="#FECC2F"/>
<path d="M52.5011 45.0936H48.033C47.4162 45.0936 46.916 45.5984 46.916 46.2209C46.916 46.8435 47.4162 47.3482 48.033 47.3482H52.5011C53.1179 47.3482 53.6181 46.8435 53.6181 46.2209C53.6181 45.5984 53.1179 45.0936 52.5011 45.0936Z" fill="#FECC2F"/>
<path d="M52.5011 51.8574H48.033C47.4162 51.8574 46.916 52.3622 46.916 52.9847C46.916 53.6073 47.4162 54.112 48.033 54.112H52.5011C53.1179 54.112 53.6181 53.6073 53.6181 52.9847C53.6181 52.3622 53.1179 51.8574 52.5011 51.8574Z" fill="#FECC2F"/>
</g>
<defs>
<clipPath id="clip0">
<rect width="67.022" height="67.6395" fill="white"/>
</clipPath>
</defs>
</svg>
