<svg width="50" height="50" viewBox="0 0 50 50" fill="none" xmlns="http://www.w3.org/2000/svg">
<g clip-path="url(#clip0_811_2528)">
<path d="M45.3975 3.125H23.4306C20.8884 3.125 18.8281 5.1857 18.8281 7.72743V18.5478C19.9893 19.125 21.244 19.7491 22.4151 20.3312L24.2069 16.7461C25.2918 14.5782 27.9365 13.6974 30.1036 14.7804C32.2753 15.8672 33.1554 18.5047 32.0682 20.6768L28.8741 27.0664C28.9588 27.9121 28.8837 28.7647 28.6453 29.5898H30.754L25.1922 44.8837C24.8622 45.7909 25.5 46.8494 26.5693 46.8494C27.1671 46.8494 27.7293 46.4806 27.9453 45.8847L33.871 29.5898H34.8975L40.8836 45.8897C41.1014 46.4825 41.6621 46.8494 42.2595 46.8494C43.2586 46.8494 43.991 45.8515 43.6336 44.8799L38.0183 29.5898H45.3975C47.9392 29.5898 49.9999 27.5291 49.9999 24.9874V7.72743C49.9999 5.1857 47.9392 3.125 45.3975 3.125V3.125ZM42.2588 23.3143H35.6864C34.8777 23.3143 34.2216 22.6582 34.2216 21.8494C34.2216 21.04 34.8777 20.3846 35.6864 20.3846H42.2588C43.0682 20.3846 43.7236 21.04 43.7236 21.8494C43.7236 22.6582 43.0682 23.3143 42.2588 23.3143ZM42.2588 17.8223H35.6864C34.8777 17.8223 34.2216 17.1669 34.2216 16.3574C34.2216 15.5487 34.8777 14.8926 35.6864 14.8926H42.2588C43.0682 14.8926 43.7236 15.5487 43.7236 16.3574C43.7236 17.1669 43.0682 17.8223 42.2588 17.8223ZM42.2588 12.331H26.5693C25.7598 12.331 25.1044 11.6749 25.1044 10.8662C25.1044 10.0574 25.7598 9.40132 26.5693 9.40132H42.2588C43.0682 9.40132 43.7236 10.0574 43.7236 10.8662C43.7236 11.6749 43.0682 12.331 42.2588 12.331Z" fill="#212121" fill-opacity="0.6"/>
<path d="M25.7736 28.9616C26.0384 28.186 26.0365 27.3758 25.8129 26.6365L29.4483 19.3665C29.81 18.6428 29.517 17.7628 28.7933 17.4011C28.0701 17.0391 27.19 17.3325 26.828 18.0561L23.7274 24.2565C21.8742 23.3337 19.0586 21.9337 16.7904 20.8057C14.6801 19.7563 13.1741 18.8152 10.6045 18.8152H9.31015C11.311 18.8152 13.0966 17.8944 14.2654 16.4532C15.1573 15.3564 15.6906 13.9587 15.6906 12.4355C15.6906 8.91113 12.8342 6.05469 9.30939 6.05469C5.78613 6.05469 2.92969 8.91113 2.92969 12.4355C2.92969 14.1281 3.58887 15.6662 4.66423 16.8076C5.82695 18.0439 7.47833 18.8152 9.30901 18.8156C6.85463 18.8156 4.45518 19.8101 2.72903 21.5408C0.969315 23.296 0 25.6344 0 28.1254V32.8323C0 34.8587 1.31569 36.5829 3.13797 37.1964V45.3842C3.13797 46.1933 3.79372 46.8491 4.60281 46.8491H14.0167C14.8258 46.8491 15.4816 46.1933 15.4816 45.3842V28.9257C16.8705 29.62 18.6951 30.5321 20.1714 31.2706C21.2063 31.7879 22.4155 31.8344 23.494 31.3957C24.5693 30.9532 25.3983 30.0724 25.7679 28.9787C25.7698 28.973 25.7717 28.9673 25.7736 28.9616Z" fill="#212121" fill-opacity="0.6"/>
</g>
<defs>
<clipPath id="clip0_811_2528">
<rect width="50" height="50" fill="white"/>
</clipPath>
</defs>
</svg>
