<svg width="72" height="72" viewBox="0 0 72 72" fill="none" xmlns="http://www.w3.org/2000/svg">
<g clip-path="url(#clip0)">
<path d="M25.4383 22.5629C38.3021 19.3473 50.1276 12.9137 59.8058 3.89384V6.96774H62.1284V0H55.1607V2.32258H58.0815C48.7169 11.0056 37.2956 17.2044 24.8764 20.3095L22.3633 20.9378L22.9258 23.1901L25.4383 22.5629Z" fill="#FECC2F"/>
<path d="M62.1295 34.8387V11.6129H55.1618V34.8387H52.8392V16.2581H45.8715V34.8387H43.5489V20.9032H36.5811V34.8387H34.2586V26.7097H27.2908V34.8387H21.4844V72H58.0117L66.7747 61.985V34.8387H62.1295ZM57.4844 13.9355H59.807V34.8387H57.4844V13.9355ZM48.1941 18.5807H50.5166V34.8387H48.1941V18.5807ZM38.9037 23.2258H41.2263V34.8387H38.9037V23.2258ZM29.6134 29.0323H31.936V34.8387H29.6134V29.0323ZM23.807 37.1613H64.4521V60.3871H56.3231V69.6774H23.807V37.1613ZM63.0538 62.7097L58.6457 67.7472V62.7097H63.0538Z" fill="#FECC2F"/>
<path d="M5.22461 7.72132V66.1935C5.22461 69.395 7.82957 72 11.0311 72C14.2325 72 16.8375 69.395 16.8375 66.1935V7.72132L11.0311 0.463257L5.22461 7.72132ZM13.2606 6.96773H8.80147L11.0311 4.18188L13.2606 6.96773ZM9.86977 9.29031V53.4193H7.54719V9.29031H9.86977ZM14.5149 55.7419V58.0645H7.54719V55.7419H14.5149ZM12.1924 53.4193V9.29031H14.5149V53.4193H12.1924ZM11.0311 69.6774C9.11051 69.6774 7.54719 68.1141 7.54719 66.1935V60.3871H14.5149V66.1935C14.5149 68.1141 12.9516 69.6774 11.0311 69.6774Z" fill="#FECC2F"/>
<path d="M34.8386 44.129H34.2579V41.8064H31.9354V44.129H31.3547C28.4736 44.129 26.1289 46.4737 26.1289 49.3548C26.1289 52.2359 28.4736 54.5806 31.3547 54.5806H34.8386C36.4399 54.5806 37.7418 55.8825 37.7418 57.4838C37.7418 59.0851 36.4399 60.387 34.8386 60.387H31.3547C29.7534 60.387 28.4515 59.0851 28.4515 57.4838V56.9032H26.1289V57.4838C26.1289 60.3649 28.4736 62.7096 31.3547 62.7096H31.9354V65.0322H34.2579V62.7096H34.8386C37.7197 62.7096 40.0644 60.3649 40.0644 57.4838C40.0644 54.6027 37.7197 52.258 34.8386 52.258H31.3547C29.7534 52.258 28.4515 50.9561 28.4515 49.3548C28.4515 47.7535 29.7534 46.4516 31.3547 46.4516H34.8386C36.4399 46.4516 37.7418 47.7535 37.7418 49.3548V49.9354H40.0644V49.3548C40.0644 46.4737 37.7197 44.129 34.8386 44.129Z" fill="#FECC2F"/>
<path d="M43.5488 39.4839H45.8714V41.8065H43.5488V39.4839Z" fill="#FECC2F"/>
<path d="M48.1934 39.4839H62.1288V41.8065H48.1934V39.4839Z" fill="#FECC2F"/>
<path d="M43.5488 48.7742H45.8714V51.0968H43.5488V48.7742Z" fill="#FECC2F"/>
<path d="M48.1934 48.7742H62.1288V51.0968H48.1934V48.7742Z" fill="#FECC2F"/>
<path d="M43.5488 44.129H62.1295V46.4516H43.5488V44.129Z" fill="#FECC2F"/>
<path d="M43.5488 53.4193H62.1295V55.7419H43.5488V53.4193Z" fill="#FECC2F"/>
<path d="M43.5488 58.0646H54.0004V60.3872H43.5488V58.0646Z" fill="#FECC2F"/>
<path d="M43.5488 62.7096H54.0004V65.0322H43.5488V62.7096Z" fill="#FECC2F"/>
</g>
<defs>
<clipPath id="clip0">
<rect width="72" height="72" fill="white"/>
</clipPath>
</defs>
</svg>
