<svg width="44" height="44" viewBox="0 0 44 44" fill="none" xmlns="http://www.w3.org/2000/svg">
<g clip-path="url(#clip0)">
<path d="M36.1326 30.8709L37.405 29.5984L36.4015 28.5949L35.1291 29.8674L33.7899 28.5282C34.8658 26.5915 35.4839 24.3674 35.4839 21.9999C35.4839 21.7977 35.4626 21.6011 35.4534 21.4009C38.7882 20.6168 41.1613 17.6645 41.1613 14.1935H39.742C39.742 16.9342 37.9124 19.2783 35.315 19.9766C34.3335 13.5001 28.7455 8.51604 22 8.51604C21.7978 8.51604 21.6012 8.53733 21.4011 8.54656C20.6169 5.21178 17.6646 2.83862 14.1936 2.83862V4.25798C16.9344 4.25798 19.2784 6.08753 19.9767 8.68495C13.5002 9.66643 8.51616 15.2544 8.51616 21.9999C8.51616 22.2022 8.53746 22.3988 8.54668 22.5989C5.21191 23.3831 2.83875 26.3353 2.83875 29.8064H4.2581C4.2581 27.0656 6.08765 24.7215 8.68507 24.0232C9.66655 30.4997 15.2546 35.4838 22 35.4838C24.3675 35.4838 26.5917 34.8657 28.5277 33.7898L29.8668 35.1289L28.5944 36.4014L29.5978 37.4049L30.8703 36.1324L37.6484 42.9106C38.351 43.6131 39.2857 43.9999 40.2792 43.9999C42.3309 43.9999 44 42.3307 44 40.2798C44 39.2862 43.6133 38.3516 42.9107 37.649L36.1326 30.8709ZM22 9.9354C28.0536 9.9354 33.0646 14.4206 33.9212 20.2399L32.5224 20.4727C31.7787 15.3254 27.3503 11.3548 22 11.3548C21.9638 11.3548 21.9284 11.3597 21.8922 11.3604L21.658 9.95314C21.7729 9.94959 21.8844 9.9354 22 9.9354ZM22 12.7741C27.087 12.7741 31.2258 16.9129 31.2258 21.9999C31.2258 27.0869 27.087 31.2257 22 31.2257C16.9131 31.2257 12.7742 27.0869 12.7742 21.9999C12.7742 16.9129 16.9131 12.7741 22 12.7741ZM9.93552 21.9999C9.93552 15.9464 14.4207 10.9353 20.24 10.0788L20.4728 11.4775C15.3255 12.2213 11.3549 16.6497 11.3549 21.9999C11.3549 22.0361 11.3598 22.0716 11.3606 22.1078L9.95326 22.342C9.94971 22.227 9.93552 22.1156 9.93552 21.9999ZM22 34.0644C15.9465 34.0644 10.9355 29.5793 10.0789 23.7599L11.4776 23.5271C12.2214 28.6744 16.6498 32.6451 22 32.6451C27.8698 32.6451 32.6452 27.8697 32.6452 21.9999C32.6452 21.9637 32.6402 21.9282 32.6395 21.892L34.0468 21.6578C34.0504 21.7728 34.0646 21.8842 34.0646 21.9999C34.0646 28.6524 28.6526 34.0644 22 34.0644ZM29.7568 33.0113C31.0186 32.1199 32.12 31.0185 33.0114 29.7567L34.1256 30.8709L30.871 34.1255L29.7568 33.0113ZM40.2799 42.5806C39.6653 42.5806 39.0869 42.3414 38.6526 41.9071L31.8745 35.1289L35.1291 31.8744L41.9072 38.6525C42.3415 39.0868 42.5807 39.6652 42.5807 40.2798C42.5807 41.5487 41.5488 42.5806 40.2799 42.5806Z" fill="#FECC2F"/>
<path d="M37.6129 12.7742C41.1351 12.7742 44 9.90923 44 6.3871C44 2.86497 41.1351 0 37.6129 0C34.0908 0 31.2258 2.86497 31.2258 6.3871C31.2258 9.90923 34.0908 12.7742 37.6129 12.7742ZM39.742 10.8687C39.0954 11.1767 38.3751 11.3548 37.6129 11.3548C36.8507 11.3548 36.1304 11.1767 35.4839 10.8687V9.93548C35.4839 8.76168 36.4391 7.80645 37.6129 7.80645C38.7867 7.80645 39.742 8.76168 39.742 9.93548V10.8687ZM36.1936 4.96774C36.1936 4.18497 36.8302 3.54839 37.6129 3.54839C38.3957 3.54839 39.0323 4.18497 39.0323 4.96774C39.0323 5.75052 38.3957 6.3871 37.6129 6.3871C36.8302 6.3871 36.1936 5.75052 36.1936 4.96774ZM37.6129 1.41935C40.3516 1.41935 42.5807 3.64845 42.5807 6.3871C42.5807 7.74045 42.0349 8.96748 41.1542 9.86452C41.1301 8.67155 40.5205 7.6191 39.5958 6.99387C40.1223 6.47864 40.4516 5.76187 40.4516 4.96774C40.4516 3.40219 39.1785 2.12903 37.6129 2.12903C36.0474 2.12903 34.7742 3.40219 34.7742 4.96774C34.7742 5.76187 35.1035 6.47864 35.6301 6.99387C34.7047 7.61981 34.0951 8.67155 34.0716 9.86452C33.1909 8.96748 32.6452 7.74045 32.6452 6.3871C32.6452 3.64845 34.8743 1.41935 37.6129 1.41935Z" fill="#FECC2F"/>
<path d="M6.3871 12.7742C9.90923 12.7742 12.7742 9.90923 12.7742 6.3871C12.7742 2.86497 9.90923 0 6.3871 0C2.86497 0 0 2.86497 0 6.3871C0 9.90923 2.86497 12.7742 6.3871 12.7742ZM8.51613 10.8687C7.86961 11.1767 7.14929 11.3548 6.3871 11.3548C5.6249 11.3548 4.90458 11.1767 4.25806 10.8687V9.93548C4.25806 8.76168 5.21329 7.80645 6.3871 7.80645C7.5609 7.80645 8.51613 8.76168 8.51613 9.93548V10.8687ZM4.96774 4.96774C4.96774 4.18497 5.60432 3.54839 6.3871 3.54839C7.16987 3.54839 7.80645 4.18497 7.80645 4.96774C7.80645 5.75052 7.16987 6.3871 6.3871 6.3871C5.60432 6.3871 4.96774 5.75052 4.96774 4.96774ZM6.3871 1.41935C9.12574 1.41935 11.3548 3.64845 11.3548 6.3871C11.3548 7.74045 10.8091 8.96748 9.92839 9.86452C9.90426 8.67155 9.29464 7.6191 8.36994 6.99387C8.89652 6.47864 9.22581 5.76187 9.22581 4.96774C9.22581 3.40219 7.95264 2.12903 6.3871 2.12903C4.82155 2.12903 3.54839 3.40219 3.54839 4.96774C3.54839 5.76187 3.87768 6.47864 4.40426 6.99387C3.47955 7.61981 2.86994 8.67155 2.84581 9.86452C1.9651 8.96748 1.41935 7.74045 1.41935 6.3871C1.41935 3.64845 3.64845 1.41935 6.3871 1.41935Z" fill="#FECC2F"/>
<path d="M6.3871 31.2258C2.86497 31.2258 0 34.0908 0 37.6129C0 41.1351 2.86497 44 6.3871 44C9.90923 44 12.7742 41.1351 12.7742 37.6129C12.7742 34.0908 9.90923 31.2258 6.3871 31.2258ZM8.51613 42.0945C7.86961 42.4025 7.14929 42.5807 6.3871 42.5807C5.6249 42.5807 4.90458 42.4025 4.25806 42.0945V41.1613C4.25806 39.9875 5.21329 39.0323 6.3871 39.0323C7.5609 39.0323 8.51613 39.9875 8.51613 41.1613V42.0945ZM4.96774 36.1936C4.96774 35.4108 5.60432 34.7742 6.3871 34.7742C7.16987 34.7742 7.80645 35.4108 7.80645 36.1936C7.80645 36.9763 7.16987 37.6129 6.3871 37.6129C5.60432 37.6129 4.96774 36.9763 4.96774 36.1936ZM9.92839 41.0903C9.90426 39.8974 9.29464 38.8449 8.36994 38.2197C8.89652 37.7045 9.22581 36.9877 9.22581 36.1936C9.22581 34.628 7.95264 33.3549 6.3871 33.3549C4.82155 33.3549 3.54839 34.628 3.54839 36.1936C3.54839 36.9877 3.87768 37.7045 4.40426 38.2197C3.47955 38.8456 2.86994 39.8974 2.84581 41.0903C1.9651 40.1933 1.41935 38.9663 1.41935 37.6129C1.41935 34.8743 3.64845 32.6452 6.3871 32.6452C9.12574 32.6452 11.3548 34.8743 11.3548 37.6129C11.3548 38.9663 10.8091 40.1933 9.92839 41.0903Z" fill="#FECC2F"/>
<path d="M14.1935 20.5807V24.1291V24.8388V25.5485H29.8064V24.8388V24.1291V17.742H25.5483V24.1291H24.129V14.9033H19.8709V24.1291H18.4515V20.5807H14.1935ZM26.9677 19.1614H28.387V24.1291H26.9677V19.1614ZM21.2903 16.3227H22.7096V24.1291H21.2903V16.3227ZM17.0322 24.1291H15.6128V22.0001H17.0322V24.1291Z" fill="#FECC2F"/>
</g>
<defs>
<clipPath id="clip0">
<rect width="44" height="44" fill="white"/>
</clipPath>
</defs>
</svg>
