<svg width="626" height="615" viewBox="0 0 626 615" fill="none" xmlns="http://www.w3.org/2000/svg">
<g opacity="0.82">
<path d="M337.157 277.315C337.817 280.401 338.279 283.527 338.985 286.604C339.685 289.664 340.532 292.688 341.51 295.674C343.542 301.89 346.103 307.927 349.083 313.749C355.391 326.083 363.488 337.463 372.593 347.891C382.107 358.785 392.74 368.702 404.124 377.622C415.265 386.351 427.161 394.181 439.655 400.832C445.564 403.976 451.616 406.804 457.783 409.409C463.52 411.83 469.417 413.846 475.298 415.881C476.658 416.35 478.009 416.828 479.362 417.318C480.007 417.552 479.758 418.415 479.098 418.327C472.91 417.505 466.984 415.608 461.145 413.457C454.844 411.138 448.71 408.407 442.713 405.397C430.005 399.011 417.9 391.395 406.584 382.788C394.93 373.926 384.011 364.073 374.191 353.211C364.71 342.725 356.189 331.274 349.422 318.859C343.182 307.402 338.438 295.057 336.387 282.152C336.138 280.586 335.979 279.062 335.938 277.482C335.918 276.782 337.008 276.621 337.157 277.315Z" fill="#212121"/>
<path d="M311.917 278.374C307.766 286.783 304.307 295.682 301.883 304.748C299.441 313.897 298.073 323.31 297.6 332.768C297.108 342.588 297.569 352.447 298.758 362.209C299.986 372.308 302.028 382.3 304.656 392.128C307.369 402.274 310.719 412.255 314.574 422.03C318.455 431.871 322.862 441.507 327.698 450.918C332.519 460.305 337.773 469.47 343.421 478.389C348.849 486.96 354.636 495.311 360.801 503.372C366.663 511.038 372.821 518.472 379.308 525.622C385.242 532.163 391.566 538.281 397.989 544.332C399.421 545.68 400.767 547.168 402.288 548.414C403.1 549.078 401.936 550.215 401.126 549.556C399.525 548.249 397.761 547.127 396.148 545.824C394.497 544.483 392.902 543.06 391.317 541.648C387.972 538.668 384.771 535.526 381.638 532.324C374.978 525.517 368.724 518.328 362.798 510.874C356.423 502.856 350.485 494.473 344.895 485.896C339.133 477.061 333.768 467.967 328.818 458.655C323.782 449.173 319.177 439.457 315.081 429.537C311.032 419.734 307.463 409.735 304.515 399.553C301.626 389.579 299.334 379.432 297.78 369.169C296.287 359.326 295.477 349.37 295.592 339.415C295.703 329.778 296.677 320.137 298.711 310.716C300.675 301.604 303.503 292.359 307.987 284.153C309.103 282.116 310.284 280.111 311.523 278.146C311.678 277.896 312.049 278.111 311.917 278.374Z" fill="#212121"/>
<path d="M343.746 349.583C344.575 351.455 345.589 353.23 346.537 355.041C347.473 356.83 348.418 358.614 349.372 360.389C351.253 363.883 353.222 367.329 355.268 370.729C359.22 377.303 363.54 383.691 368.186 389.801C372.799 395.865 377.774 401.65 383.068 407.127C388.429 412.677 394.02 417.977 399.932 422.948C406.016 428.064 412.349 432.861 418.716 437.617C419.54 438.234 420.311 438.925 421.098 439.59C421.668 440.075 420.936 440.898 420.326 440.585C416.685 438.72 413.294 436.416 409.97 434.046C406.667 431.693 403.422 429.265 400.275 426.713C394.26 421.841 388.498 416.662 383.05 411.167C377.645 405.71 372.624 399.858 367.952 393.765C363.209 387.58 358.872 381.127 354.947 374.394C350.919 367.476 347.268 360.313 344.325 352.871C343.934 351.887 343.551 350.906 343.12 349.938C342.938 349.519 343.556 349.159 343.746 349.583Z" fill="#212121"/>
<path d="M320.291 348.179C321.72 353.671 323.082 359.168 324.32 364.704C325.536 370.142 326.655 375.599 327.871 381.037C330.262 391.73 333.061 402.385 337.103 412.598C339.146 417.757 341.54 422.785 344.302 427.603C347.305 432.849 350.443 437.934 354.167 442.715C361.303 451.873 369.64 459.995 378.11 467.906C382.343 471.86 386.597 475.796 390.757 479.832C394.922 483.871 399.041 487.978 402.677 492.504C403.583 493.628 404.465 494.768 405.331 495.918C405.687 496.393 404.906 496.963 404.504 496.541C396.477 488.004 387.928 480.014 379.232 472.167C370.615 464.396 361.967 456.543 354.589 447.559C347.087 438.419 340.931 428.158 336.284 417.296C331.926 407.11 328.996 396.448 326.642 385.647C325.457 380.217 324.349 374.767 323.372 369.297C322.875 366.525 322.382 363.756 321.873 360.987C321.36 358.191 320.928 355.376 320.381 352.586C320.105 351.179 319.821 349.777 319.53 348.377C319.434 347.887 320.162 347.685 320.291 348.179Z" fill="#212121"/>
<path d="M369.875 428.28C373.57 435.747 377.905 442.843 382.718 449.642C387.572 456.5 393.054 462.888 399.042 468.782C400.707 470.42 402.426 471.999 404.134 473.587C405.85 475.18 407.637 476.684 409.306 478.324C409.795 478.802 409.163 479.608 408.574 479.267C407.667 478.742 406.797 478.212 405.96 477.583C405.104 476.943 404.257 476.287 403.42 475.623C401.762 474.303 400.179 472.922 398.639 471.466C395.544 468.545 392.639 465.446 389.89 462.197C384.375 455.684 379.485 448.681 375.261 441.271C372.952 437.22 370.833 433.064 368.906 428.82C368.622 428.187 369.556 427.63 369.875 428.28Z" fill="#212121"/>
<path d="M523.316 401.048C523.526 400.002 523.696 398.974 524.017 397.953C524.319 397 524.541 396.012 524.691 395.026C524.75 394.631 524.663 395.334 524.693 394.998C524.704 394.884 524.717 394.767 524.724 394.651C524.747 394.395 524.76 394.139 524.764 393.881C524.774 393.423 524.761 392.962 524.724 392.507C524.707 392.287 524.644 392.041 524.649 391.824C524.626 392.305 524.664 391.938 524.635 391.771C524.613 391.644 524.59 391.521 524.566 391.397C524.476 390.921 524.359 390.449 524.218 389.984C524.083 389.526 523.918 389.077 523.745 388.632C523.619 388.305 523.902 388.992 523.738 388.618C523.697 388.525 523.654 388.425 523.613 388.332C523.506 388.094 523.394 387.855 523.274 387.621C522.822 386.725 522.293 385.866 521.706 385.047C521.635 384.946 521.561 384.848 521.49 384.747C521.338 384.534 521.597 384.889 521.603 384.897C521.555 384.85 521.516 384.787 521.477 384.734C521.317 384.527 521.154 384.323 520.986 384.121C520.648 383.71 520.3 383.309 519.937 382.924C519.217 382.153 518.446 381.427 517.639 380.745C517.442 380.576 517.237 380.412 517.035 380.25C516.983 380.21 516.598 379.907 516.87 380.12C517.142 380.333 516.699 379.991 516.633 379.942C516.196 379.615 515.755 379.304 515.298 379.005C514.373 378.389 513.412 377.827 512.429 377.312C511.939 377.059 511.444 376.816 510.943 376.591C510.698 376.479 510.454 376.373 510.208 376.27C509.843 376.114 510.608 376.427 510.18 376.259C510.042 376.203 509.903 376.148 509.765 376.093C508.715 375.684 507.644 375.338 506.554 375.051C505.505 374.777 504.443 374.571 503.369 374.412C502.924 374.349 503.721 374.452 503.34 374.41C503.213 374.397 503.082 374.381 502.954 374.367C502.667 374.335 502.38 374.313 502.096 374.293C501.58 374.259 501.065 374.24 500.555 374.239C500.016 374.236 499.478 374.258 498.94 374.295C498.689 374.314 498.435 374.337 498.183 374.366C498.103 374.374 497.65 374.431 497.986 374.386C498.322 374.342 497.788 374.416 497.706 374.429C496.688 374.587 495.689 374.826 494.713 375.153C494.477 375.231 494.243 375.315 494.011 375.405C493.96 375.425 493.908 375.445 493.856 375.465C493.563 375.574 494.205 375.313 494.002 375.405C493.86 375.467 493.723 375.522 493.581 375.585C493.109 375.795 492.651 376.024 492.203 376.278C491.75 376.534 491.311 376.808 490.878 377.097C490.666 377.238 490.456 377.385 490.251 377.531C489.892 377.787 490.53 377.309 490.23 377.549C490.108 377.648 489.982 377.744 489.858 377.847C489.011 378.548 488.208 379.311 487.488 380.14C487.306 380.349 487.13 380.566 486.954 380.784C486.749 381.034 487.126 380.549 486.996 380.728C486.95 380.791 486.901 380.858 486.851 380.919C486.695 381.127 486.545 381.335 486.38 381.533C486.298 381.631 486.217 381.728 486.138 381.822C485.929 382.06 486.266 381.627 486.154 381.802C486.11 381.87 486.057 381.935 486.009 382.001C485.822 382.263 485.642 382.522 485.467 382.79C485.127 383.306 484.683 384.012 484.393 384.392C484.149 384.71 483.807 384.921 483.39 384.809C483.039 384.715 482.676 384.331 482.719 383.946C482.881 382.509 483.473 381.166 484.066 379.858C484.596 378.684 485.476 377.588 486.297 376.612C487.779 374.857 489.737 373.458 491.841 372.532C496.237 370.595 501.112 370.391 505.793 371.343C510.371 372.274 514.792 374.322 518.505 377.151C522.195 379.968 525.296 383.526 526.908 387.926C527.621 389.875 527.974 392.005 527.856 394.076C527.792 395.172 527.64 396.306 527.311 397.357C527.124 397.957 526.862 398.548 526.593 399.116C526.538 399.229 526.486 399.343 526.429 399.45C526.37 399.561 526.315 399.638 526.239 399.744C525.899 400.235 526.411 399.524 526.197 399.799C525.976 400.085 525.753 400.375 525.517 400.653C525.152 401.084 524.648 401.411 524.19 401.734C523.746 402.05 523.224 401.509 523.316 401.048Z" fill="#212121"/>
<path d="M493.806 391.995C493.611 391.528 493.447 391.199 493.07 390.855C492.721 390.533 492.433 390.192 492.119 389.835C492.038 389.749 491.962 389.665 491.882 389.579C491.889 389.583 491.623 389.309 491.764 389.445C492.004 389.67 491.079 388.874 491.433 389.204C491.349 389.125 491.273 389.031 491.194 388.951C490.865 388.62 490.517 388.314 490.154 388.024C490.441 388.255 490.135 388.013 490.085 387.979C489.994 387.911 489.897 387.845 489.804 387.781C489.614 387.651 489.42 387.528 489.219 387.407C488.823 387.168 488.407 386.952 487.986 386.763C487.878 386.715 487.77 386.668 487.663 386.62C487.706 386.64 487.994 386.748 487.727 386.648C487.509 386.566 487.291 386.485 487.068 386.41C486.619 386.26 486.171 386.11 485.712 385.994C485.288 385.888 484.855 385.797 484.425 385.727C484.306 385.708 484.185 385.692 484.065 385.673C484.49 385.735 484.079 385.676 484.004 385.668C483.72 385.638 483.439 385.614 483.154 385.604C482.705 385.584 482.256 385.582 481.807 385.597C481.56 385.608 481.313 385.62 481.065 385.641C480.981 385.647 480.901 385.656 480.817 385.662C480.737 385.671 480.184 385.744 480.617 385.68C479.611 385.826 478.624 386.052 477.666 386.375C477.462 386.441 477.26 386.514 477.059 386.592C476.994 386.619 476.588 386.783 476.978 386.62C476.859 386.67 476.739 386.721 476.62 386.771C476.142 386.983 475.676 387.217 475.218 387.471C474.714 387.752 474.214 388.036 473.736 388.353C473.472 388.524 473.216 388.705 472.965 388.889C473.245 388.682 472.993 388.865 472.926 388.921C472.802 389.023 472.679 389.122 472.551 389.222C472.372 389.368 472.187 389.505 472.002 389.643C472.295 389.423 471.833 389.779 471.78 389.818C471.497 390.038 471.202 390.237 470.909 390.441C470.613 390.648 470.578 390.683 470.285 390.912C469.958 391.167 469.625 391.283 469.24 391.419C468.775 391.583 468.231 391.139 468.256 390.664C468.29 389.966 468.506 389.438 468.845 388.836C469.172 388.253 469.546 387.721 469.989 387.214C470.779 386.31 471.838 385.562 472.839 384.905C474.689 383.692 476.95 382.917 479.132 382.565C483.546 381.851 488.078 382.671 491.59 385.554C492.008 385.896 492.399 386.267 492.761 386.661C492.945 386.862 493.121 387.069 493.288 387.281C493.369 387.383 493.471 387.492 493.533 387.602C493.557 387.646 493.769 388.068 493.625 387.815C493.691 387.933 493.766 388.047 493.835 388.161C494.143 388.674 494.452 389.212 494.557 389.801C494.604 390.083 494.613 390.388 494.683 390.663C494.756 390.944 494.9 391.222 494.992 391.495C495.235 392.2 494.093 392.685 493.806 391.995Z" fill="#212121"/>
<path d="M476.293 384.908C476.099 384.431 475.892 383.932 475.63 383.496C475.459 383.212 475.279 382.978 475.15 382.664C475.061 382.438 475.219 382.814 475.094 382.527C475.036 382.394 474.978 382.26 474.915 382.129C474.495 381.227 473.991 380.361 473.455 379.522C473.33 379.325 473.198 379.129 473.062 378.94C473.005 378.857 472.943 378.782 472.886 378.699C473.146 379.079 472.902 378.723 472.834 378.634C472.54 378.269 472.233 377.916 471.904 377.586C471.591 377.27 471.266 376.967 470.924 376.684C470.839 376.615 470.754 376.546 470.669 376.476C470.451 376.29 470.964 376.692 470.673 376.479C470.483 376.339 470.295 376.205 470.102 376.073C469.376 375.588 468.608 375.177 467.812 374.821C467.797 374.813 467.656 374.771 467.64 374.747C467.635 374.739 467.983 374.881 467.822 374.822C467.72 374.783 467.62 374.74 467.517 374.7C467.299 374.619 467.075 374.539 466.856 374.467C466.44 374.33 466.014 374.209 465.588 374.106C465.141 373.997 464.692 373.907 464.239 373.833C464.13 373.815 464.018 373.8 463.909 373.782C463.545 373.726 464.175 373.806 463.899 373.781C463.677 373.757 463.456 373.734 463.232 373.714C462.313 373.64 461.389 373.628 460.468 373.679C459.994 373.703 459.523 373.755 459.049 373.804C458.754 373.838 459.368 373.755 459.074 373.804C458.959 373.822 458.845 373.836 458.733 373.856C458.491 373.895 458.246 373.937 458.002 373.986C457.072 374.165 456.154 374.401 455.254 374.693C454.809 374.839 454.371 374.999 453.938 375.168C453.563 375.314 454.179 375.063 453.912 375.177C453.804 375.225 453.699 375.269 453.591 375.316C453.362 375.418 453.133 375.519 452.906 375.627C452.049 376.034 451.217 376.494 450.418 377.009C450.026 377.261 449.644 377.523 449.267 377.793C449.093 377.922 449.001 377.959 449.253 377.8C449.158 377.86 449.066 377.941 448.978 378.015C448.785 378.168 448.593 378.326 448.405 378.486C447.704 379.083 447.041 379.726 446.435 380.417C446.285 380.59 446.135 380.762 445.99 380.943C445.94 381.003 445.711 381.304 445.883 381.075C446.058 380.843 445.801 381.182 445.751 381.253C445.476 381.623 445.221 382.003 444.976 382.39C444.727 382.795 444.491 383.211 444.275 383.635C444.178 383.828 444.087 384.02 443.996 384.212C443.949 384.319 443.904 384.423 443.857 384.53C443.837 384.573 443.781 384.67 443.78 384.715C443.779 384.664 443.917 384.365 443.834 384.587C443.501 385.491 443.215 386.398 443.032 387.344C442.985 387.581 442.948 387.819 442.91 388.057C442.894 388.162 442.864 388.559 442.901 388.106C442.891 388.245 442.869 388.387 442.855 388.523C442.796 389.023 442.752 389.522 442.734 390.02C442.715 390.537 442.723 391.051 442.75 391.565C442.763 391.827 442.784 392.094 442.811 392.359C442.824 392.491 442.841 392.626 442.855 392.758C442.861 392.817 442.869 392.871 442.876 392.93C442.839 392.639 442.89 393.018 442.898 393.098C442.921 393.275 442.939 393.451 442.958 393.626C442.967 393.706 443.001 393.975 442.973 393.755C443.013 394.057 443.067 394.363 443.123 394.664C443.234 395.267 443.37 395.87 443.529 396.461C443.69 397.063 443.88 397.652 444.014 398.258C444.225 399.234 443.039 399.614 442.487 398.88C441.679 397.803 441.151 396.494 440.673 395.245C440.237 394.105 439.956 392.964 439.794 391.758C439.487 389.505 439.602 387.267 440.226 385.075C441.411 380.913 444.121 377.455 447.565 374.907C450.9 372.435 454.97 371.002 459.08 370.535C463.035 370.088 467.217 370.725 470.703 372.71C472.432 373.692 473.991 375.02 475.202 376.594C475.875 377.473 476.497 378.377 476.925 379.403C477.169 379.983 477.392 380.566 477.579 381.168C477.765 381.78 477.833 382.338 477.854 382.974C477.874 383.554 477.911 384.129 477.902 384.707C477.886 385.686 476.63 385.726 476.293 384.908Z" fill="#212121"/>
<path d="M366.935 523.524C365.892 523.708 364.876 523.977 363.88 524.347C363.664 524.427 363.45 524.502 363.233 524.581C363.126 524.619 363.023 524.659 362.92 524.699C362.606 524.817 363.028 524.642 362.814 524.743C362.423 524.925 362.033 525.098 361.656 525.308C361.286 525.513 360.912 525.71 360.551 525.935C360.394 526.034 360.235 526.136 360.081 526.246C360.028 526.285 359.759 526.474 359.99 526.308C360.221 526.143 359.93 526.359 359.873 526.405C359.574 526.646 359.29 526.911 359.025 527.186C358.904 527.31 358.787 527.442 358.674 527.576C358.616 527.642 358.565 527.713 358.509 527.775C358.334 527.982 358.759 527.421 358.555 527.722C358.349 528.016 358.151 528.306 357.976 528.618C357.889 528.767 357.812 528.917 357.737 529.073C357.695 529.163 357.652 529.254 357.61 529.344C357.483 529.615 357.591 529.497 357.636 529.264C357.573 529.607 357.378 529.952 357.284 530.287C357.183 530.643 357.099 531.003 357.031 531.363C356.994 531.556 356.971 531.752 356.94 531.943C356.92 532.056 356.988 531.497 356.954 531.842C356.942 531.949 356.932 532.053 356.923 532.163C356.892 532.554 356.87 532.946 356.866 533.332C356.864 533.735 356.874 534.14 356.897 534.542C356.923 534.946 357.068 535.439 357.022 535.837C357.046 535.631 356.97 535.487 357.017 535.769C357.034 535.869 357.049 535.972 357.067 536.072C357.104 536.293 357.145 536.516 357.188 536.736C357.277 537.187 357.38 537.64 357.496 538.087C357.728 538.984 358.005 539.863 358.321 540.734C358.406 540.968 358.493 541.198 358.584 541.43C358.625 541.539 358.67 541.645 358.712 541.754C358.828 542.046 358.553 541.388 358.725 541.782C358.916 542.231 359.112 542.679 359.322 543.12C359.757 544.045 360.232 544.954 360.733 545.843C361.245 546.758 361.796 547.656 362.376 548.53C362.664 548.967 362.958 549.392 363.262 549.817C363.409 550.022 363.556 550.227 363.705 550.428C363.75 550.489 364.017 550.813 363.814 550.576C363.611 550.339 363.911 550.702 363.962 550.771C365.263 552.458 366.684 554.049 368.217 555.526C368.952 556.236 369.72 556.915 370.511 557.563C370.714 557.731 370.922 557.891 371.127 558.055C371.229 558.139 370.75 557.772 371.083 558.019C371.194 558.104 371.305 558.188 371.417 558.273C371.812 558.567 372.218 558.852 372.628 559.129C373.446 559.678 374.302 560.164 375.129 560.698C375.435 560.895 375.726 561.094 376.009 561.322C375.807 561.161 375.734 561.113 375.96 561.284C376.064 561.365 376.17 561.441 376.276 561.517C376.659 561.799 377.054 562.068 377.46 562.318C377.983 562.641 378.347 562.947 378.63 563.495C378.86 563.937 378.752 564.563 378.272 564.804C378.013 564.933 377.751 565.065 377.463 565.113C377.11 565.168 376.755 565.082 376.405 565.019C375.922 564.928 375.442 564.825 374.962 564.711C373.851 564.442 372.807 563.996 371.836 563.399C369.932 562.236 368.15 560.86 366.49 559.369C363.14 556.355 360.262 552.758 357.965 548.893C355.854 545.346 354.155 541.373 353.499 537.287C352.928 533.709 353.058 529.829 355.094 526.704C356.076 525.198 357.404 523.952 358.976 523.072C360.8 522.049 362.935 521.675 365.009 521.664C365.571 521.661 366.131 521.671 366.69 521.701C367.69 521.746 368.029 523.33 366.935 523.524Z" fill="#212121"/>
<path d="M376.85 550.91C376.81 552.033 376.696 553.155 376.675 554.28C376.668 554.854 376.687 555.434 376.736 556.006C376.785 556.638 376.819 556.847 376.93 557.46C377.137 558.598 377.404 559.71 377.78 560.806C377.977 561.374 378.195 561.939 378.42 562.493C378.332 562.273 378.454 562.573 378.483 562.644C378.535 562.77 378.59 562.891 378.646 563.019C378.778 563.31 378.912 563.597 379.05 563.886C379.591 564.992 380.201 566.064 380.864 567.107C381.208 567.645 381.57 568.179 381.938 568.702C382.102 568.937 382.273 569.17 382.445 569.399C382.5 569.476 382.56 569.556 382.617 569.629C382.601 569.605 382.49 569.46 382.598 569.603C382.7 569.737 382.803 569.871 382.907 570.001C384.485 572.013 386.233 573.914 388.051 575.71C389.056 576.707 390.057 577.71 391.058 578.704C392.003 579.641 393.019 580.618 393.749 581.725C394.037 582.161 393.554 582.744 393.074 582.606C391.886 582.262 390.827 581.558 389.788 580.897C388.653 580.169 387.535 579.297 386.54 578.396C384.585 576.62 382.771 574.721 381.135 572.646C377.941 568.6 375.155 563.964 374.43 558.785C374.052 556.092 374.164 552.945 375.655 550.596C375.982 550.083 376.876 550.251 376.85 550.91Z" fill="#212121"/>
<path d="M379.637 570.046C379.149 570.292 378.672 570.554 378.218 570.854C378.008 570.992 377.803 571.138 377.596 571.287C377.787 571.148 377.377 571.45 377.316 571.494C377.199 571.576 377.084 571.654 376.97 571.737C376.826 571.839 377.086 571.64 376.86 571.823C376.776 571.89 376.691 571.96 376.605 572.03C376.421 572.183 376.239 572.342 376.068 572.507C375.992 572.578 375.918 572.654 375.846 572.727C375.806 572.769 375.546 573.028 375.675 572.893C375.803 572.757 375.592 573.009 375.567 573.044C375.493 573.146 375.425 573.246 375.358 573.353C374.899 574.059 374.466 574.771 374.112 575.538C374.022 575.736 374.226 575.22 374.115 575.541C374.083 575.631 374.047 575.72 374.02 575.809C373.948 576.012 373.887 576.221 373.828 576.426C373.716 576.835 373.64 577.251 373.569 577.668C373.518 577.972 373.602 577.318 373.563 577.704C373.551 577.802 373.545 577.899 373.534 577.997C373.514 578.22 373.505 578.444 373.497 578.664C373.489 579.093 373.5 579.524 373.536 579.954C373.554 580.173 373.588 580.392 373.606 580.612C373.62 580.795 373.552 580.282 373.585 580.466C373.596 580.517 373.6 580.569 373.609 580.624C373.628 580.755 373.649 580.882 373.672 581.015C373.753 581.481 373.861 581.942 373.981 582.401C374.231 583.334 374.541 584.252 374.894 585.155C375.056 585.567 374.78 584.894 374.923 585.226C374.969 585.337 375.016 585.445 375.064 585.552C375.172 585.799 375.285 586.044 375.402 586.292C375.631 586.778 375.879 587.257 376.138 587.726C376.666 588.69 377.25 589.627 377.875 590.528C378.034 590.754 378.196 590.983 378.357 591.206C378.436 591.312 378.515 591.418 378.592 591.527C378.632 591.58 378.669 591.636 378.711 591.685C378.404 591.308 378.637 591.588 378.695 591.661C379.046 592.109 379.4 592.553 379.769 592.987C381.299 594.796 382.991 596.465 384.817 597.972C385.045 598.158 385.272 598.345 385.505 598.53C385.618 598.62 385.953 598.984 385.601 598.606C385.704 598.715 385.856 598.798 385.974 598.887C386.461 599.248 386.952 599.603 387.457 599.94C388.439 600.604 389.455 601.227 390.499 601.793C391.025 602.077 391.556 602.345 392.094 602.602C392.337 602.718 392.582 602.83 392.834 602.941C392.956 602.997 393.081 603.049 393.206 603.101C393.65 603.294 392.891 602.979 393.338 603.158C394.401 603.579 395.482 603.951 396.588 604.248C397.664 604.532 398.759 604.778 399.859 604.936C399.922 604.948 399.984 604.953 400.049 604.961C400.336 605.003 399.909 604.935 399.905 604.943C399.911 604.931 400.294 604.989 400.333 604.991C400.616 605.02 400.904 605.042 401.188 605.062C401.738 605.097 402.294 605.115 402.846 605.12C403.381 605.121 403.914 605.101 404.446 605.055C404.694 605.034 404.946 605.005 405.194 604.974C404.768 605.027 405.263 604.959 405.345 604.947C405.57 604.913 405.799 604.881 406.027 604.859C406.08 604.854 406.497 604.817 406.322 604.835C406.14 604.854 406.535 604.803 406.58 604.795C406.862 604.749 407.145 604.693 407.426 604.631C407.976 604.511 408.516 604.365 409.048 604.19C409.569 604.017 410.099 603.881 410.62 603.699C411.234 603.486 411.722 604.372 411.246 604.795C410.337 605.605 409.35 606.245 408.257 606.774C408.019 606.891 407.776 606.999 407.531 607.102C407.33 607.19 407.126 607.266 406.921 607.352C406.955 607.336 407.183 607.244 406.973 607.332C406.811 607.403 406.642 607.47 406.479 607.535C405.955 607.74 405.388 607.855 404.836 607.959C402.362 608.436 399.912 608.379 397.429 607.963C394.993 607.553 392.603 606.613 390.385 605.542C388.151 604.463 386.049 603.13 384.084 601.622C380.081 598.55 376.561 594.799 373.971 590.456C371.828 586.86 370.182 582.614 370.623 578.37C370.823 576.436 371.394 574.542 372.526 572.944C373.102 572.13 373.841 571.486 374.606 570.857C375.485 570.134 376.407 569.571 377.465 569.146C377.982 568.937 378.501 568.749 379.034 568.589C379.896 568.32 380.455 569.637 379.637 570.046Z" fill="#212121"/>
<path d="M400.431 549.976C400.061 550.295 399.719 550.651 399.4 551.02C399.336 551.097 399.269 551.178 399.202 551.259C399.359 551.056 398.951 551.597 399.043 551.472C399.104 551.392 398.951 551.597 398.923 551.636C398.845 551.746 398.776 551.855 398.705 551.969C398.593 552.154 398.489 552.342 398.392 552.536C398.341 552.641 398.294 552.748 398.243 552.853C398.181 552.987 398.271 552.78 398.275 552.772C398.245 552.85 398.215 552.927 398.188 553.001C398.03 553.428 397.871 553.85 397.765 554.292C397.709 554.509 397.667 554.729 397.628 554.951C397.607 555.074 397.589 555.193 397.574 555.314C397.617 555.014 397.569 555.391 397.561 555.491C397.522 555.982 397.515 556.477 397.536 556.968C397.549 557.215 397.563 557.457 397.585 557.705C397.599 557.837 397.616 557.972 397.629 558.104C397.65 558.266 397.621 558.04 397.62 558.024C397.631 558.1 397.642 558.177 397.657 558.255C397.746 558.81 397.864 559.358 398.006 559.899C398.155 560.464 398.335 561.017 398.522 561.575C398.609 561.84 398.702 562.103 398.797 562.362C398.842 562.483 398.887 562.604 398.936 562.727C398.968 562.81 398.998 562.888 399.032 562.967C399.118 563.182 398.939 562.749 399.031 562.962C399.521 564.094 400.072 565.191 400.713 566.246C401.032 566.775 401.368 567.293 401.723 567.804C401.816 567.937 401.907 568.065 402.002 568.195C402.047 568.256 402.296 568.594 402.208 568.479C402.118 568.357 402.339 568.649 402.379 568.702C402.49 568.847 402.608 568.99 402.723 569.136C403.518 570.115 404.384 571.041 405.316 571.895C405.568 572.126 405.824 572.349 406.082 572.569C406.221 572.684 406.359 572.799 406.5 572.91C406.552 572.951 406.605 572.997 406.657 573.037C406.391 572.822 406.729 573.093 406.809 573.155C406.972 573.279 407.133 573.407 407.291 573.533C407.344 573.579 407.537 573.721 407.276 573.525C407.344 573.579 407.418 573.632 407.489 573.683C407.755 573.882 408.024 574.073 408.302 574.259C408.862 574.633 409.427 575.005 410.004 575.35C410.294 575.523 410.605 575.668 410.889 575.852C411.152 576.03 411.462 576.324 411.673 576.486C412.35 577.003 412.189 578.127 411.232 578.156C408.494 578.241 405.847 576.483 403.834 574.773C401.723 572.981 399.919 570.813 398.43 568.484C395.794 564.348 393.834 559.038 395.043 554.107C395.351 552.849 395.906 551.744 396.738 550.75C397.172 550.233 397.626 549.857 398.048 549.568C398.566 549.21 399.128 548.957 399.723 548.743C400.411 548.498 400.967 549.509 400.431 549.976Z" fill="#212121"/>
<path d="M399.448 529.216C395.427 527.549 392.583 523.832 391.063 519.863C389.614 516.081 389.441 511.696 390.718 507.857C391.106 506.695 391.561 505.487 392.254 504.472C392.626 503.925 393.016 503.417 393.491 502.959C393.929 502.54 394.389 501.988 395.043 502.018C395.329 502.034 395.538 502.2 395.629 502.467C395.807 502.989 395.547 503.403 395.369 503.883C395.179 504.401 394.99 504.91 394.779 505.421C394.865 505.212 394.689 505.653 394.696 505.633C394.66 505.721 394.631 505.814 394.594 505.903C394.479 506.205 394.346 506.497 394.219 506.793C394.1 507.068 394.176 506.902 394.201 506.842C394.155 506.955 394.112 507.065 394.07 507.18C393.977 507.426 393.887 507.678 393.808 507.926C393.513 508.833 393.312 509.759 393.145 510.695C393.106 510.926 393.067 511.158 393.034 511.388C392.989 511.682 393.023 511.477 393.028 511.415C393.012 511.555 392.998 511.692 392.986 511.834C392.942 512.298 392.918 512.763 392.913 513.229C392.909 513.695 392.922 514.157 392.954 514.619C392.969 514.827 392.989 515.034 393.01 515.24C393.022 515.357 393.037 515.47 393.051 515.583C393.013 515.287 393.075 515.732 393.08 515.75C393.223 516.661 393.443 517.561 393.729 518.44C393.801 518.662 393.878 518.876 393.962 519.094C393.995 519.183 394.027 519.266 394.063 519.352C394.222 519.768 393.998 519.204 394.101 519.449C394.292 519.898 394.502 520.339 394.734 520.768C394.943 521.159 395.167 521.543 395.404 521.919C395.515 522.099 395.635 522.273 395.754 522.447C395.833 522.562 395.917 522.676 395.999 522.793C396.178 523.046 395.894 522.672 396.109 522.941C397.502 524.701 399.131 526.169 400.803 527.482C401.229 527.818 401.191 528.549 400.885 528.931C400.498 529.4 399.972 529.434 399.448 529.216Z" fill="#212121"/>
<path d="M402.41 506C402.197 505.917 401.985 505.808 401.768 505.733C401.54 505.651 401.316 505.64 401.088 505.533C400.884 505.435 400.684 505.314 400.485 505.199C400.26 505.069 400.022 505.005 399.793 504.873C398.936 504.381 398.096 503.715 397.392 503.028C395.945 501.62 394.794 499.986 393.851 498.208C391.943 494.613 390.755 490.468 390.749 486.39C390.749 485.232 390.92 484.065 391.137 482.929C391.345 481.837 391.761 480.746 392.409 479.835C392.721 479.392 393.315 479.576 393.385 480.096C393.627 481.942 393.492 483.799 393.645 485.653C393.721 486.575 393.784 487.495 393.888 488.413C393.927 488.77 393.978 489.088 394.058 489.564C394.143 490.047 394.24 490.527 394.353 491.007C394.786 492.844 395.363 494.5 396.139 496.082C396.551 496.919 397.011 497.739 397.519 498.522C397.766 498.9 398.028 499.261 398.285 499.629C398.406 499.8 398.52 499.975 398.639 500.149C398.7 500.234 398.761 500.319 398.822 500.404C398.845 500.433 399.084 500.756 398.972 500.611C399.568 501.39 400.196 502.163 400.867 502.881C401.554 503.614 402.169 504.419 402.957 505.055C403.387 505.394 402.925 506.208 402.41 506Z" fill="#212121"/>
<path d="M462.313 423.467C462.036 423.401 461.748 423.354 461.483 423.25C461.352 423.199 461.202 423.078 461.066 423.054C460.924 423.031 460.785 423.08 460.625 423.037C460.015 422.879 459.42 422.549 458.815 422.358C457.625 421.983 456.442 421.597 455.215 421.355C454.09 421.137 453.107 421.036 451.888 421.023C451.303 421.013 450.719 421.044 450.136 421.066C449.844 421.076 449.558 421.095 449.27 421.117C449.127 421.13 448.981 421.14 448.837 421.156C448.784 421.16 448.233 421.23 448.507 421.189C447.344 421.348 446.195 421.62 445.085 422.005C444.868 422.078 444.649 422.161 444.437 422.243C444.747 422.123 444.323 422.292 444.295 422.305C444.17 422.358 444.046 422.416 443.923 422.474C443.39 422.719 442.873 422.998 442.373 423.307C442.146 423.449 441.922 423.594 441.703 423.746C441.594 423.823 441.484 423.899 441.377 423.981C441.667 423.765 441.317 424.032 441.279 424.064C440.83 424.423 440.409 424.813 440.014 425.227C439.832 425.421 439.657 425.619 439.486 425.819C439.448 425.867 439.175 426.217 439.415 425.898C439.335 426.001 439.257 426.11 439.179 426.219C438.871 426.655 438.592 427.111 438.342 427.585C438.196 427.864 438.047 428.147 437.908 428.431C437.846 428.555 437.794 428.679 437.732 428.803C437.66 428.971 437.66 428.971 437.726 428.804C437.692 428.889 437.656 428.978 437.625 429.065C437.386 429.695 437.201 430.341 437.071 430.999C436.782 432.413 436.549 433.834 436.263 435.244C436.164 435.735 435.411 435.833 435.186 435.383C434.515 434.052 434.185 432.644 434.235 431.156C434.28 429.835 434.567 428.476 435.027 427.241C435.951 424.764 437.744 422.75 439.878 421.227C444.158 418.17 449.873 417.457 454.924 418.652C456.377 418.995 457.924 419.463 459.228 420.193C459.866 420.553 460.472 420.959 461.067 421.384C461.424 421.64 461.569 421.969 461.891 422.235C462.188 422.482 462.381 422.788 462.587 423.107C462.708 423.297 462.51 423.516 462.313 423.467Z" fill="#212121"/>
<path d="M442.066 434.971C441.903 434.906 441.744 434.844 441.579 434.783C441.319 434.687 441.44 434.703 441.159 434.705C440.753 434.704 440.296 434.439 439.909 434.32C439.18 434.092 438.422 433.922 437.681 433.732C436.184 433.344 434.827 433.171 433.303 433.096C430.053 432.934 427.087 433.515 424.013 434.577C423.1 434.891 422.265 435.245 421.368 435.583C420.485 435.915 419.657 436.323 418.723 436.465C418.158 436.552 417.552 435.981 417.916 435.414C418.843 433.951 420.56 433.045 422.105 432.339C423.693 431.613 425.375 431.121 427.089 430.798C430.404 430.175 433.829 430.149 437.117 430.981C438.044 431.214 438.973 431.493 439.832 431.921C440.619 432.317 441.791 432.732 442.119 433.59C442.048 433.464 441.976 433.337 441.9 433.209C442.124 433.453 442.448 433.646 442.709 433.852C443.224 434.26 442.668 435.21 442.066 434.971Z" fill="#212121"/>
<path d="M418.201 448.153C416.965 448.808 415.809 449.67 414.878 450.716C414.78 450.825 414.686 450.935 414.594 451.051C414.541 451.115 414.489 451.18 414.437 451.244C414.307 451.408 414.53 451.118 414.407 451.287C414.206 451.564 414.02 451.851 413.851 452.152C413.714 452.397 413.594 452.646 413.476 452.902C413.371 453.136 413.447 452.97 413.467 452.917C413.44 452.991 413.412 453.065 413.384 453.138C413.322 453.307 413.265 453.473 413.21 453.646C413.116 453.93 413.038 454.22 412.978 454.514C412.943 454.669 412.914 454.831 412.889 454.986C412.879 455.065 412.862 455.145 412.855 455.226C412.878 455.04 412.857 455.232 412.848 455.317C412.796 455.96 412.798 456.604 412.86 457.249C412.87 457.335 412.877 457.418 412.888 457.504C412.864 457.311 412.894 457.528 412.898 457.555C412.928 457.728 412.955 457.898 412.991 458.068C413.063 458.419 413.149 458.763 413.251 459.107C413.48 459.878 413.668 460.34 414 461.012C414.83 462.69 415.918 464.233 416.932 465.803C417.418 466.554 416.413 467.597 415.659 467.066C414.827 466.479 414.121 465.866 413.476 465.078C412.871 464.333 412.324 463.567 411.884 462.719C411.105 461.22 410.55 459.612 410.323 457.939C409.901 454.846 410.682 451.692 412.906 449.435C414.213 448.112 415.862 447.297 417.646 446.819C418.44 446.59 418.946 447.756 418.201 448.153Z" fill="#212121"/>
<path d="M322.007 230.237C351.214 223.296 376.774 251.962 383.55 269.166C384.969 272.766 389.27 272.74 389.208 267.566C388.332 195.666 321.461 172.848 321.461 172.848C321.461 172.848 322.239 176.94 323.614 198.073C324.995 219.204 322.007 230.237 322.007 230.237Z" stroke="#212121" stroke-width="4" stroke-miterlimit="10" stroke-linecap="round" stroke-linejoin="round"/>
<path d="M279.067 244.779C251.673 257.009 249.049 295.223 254.248 312.955C255.336 316.668 251.91 319.262 248.784 315.126C205.302 257.651 244.239 199.002 244.239 199.002C244.239 199.002 246.138 202.716 258.036 220.283C269.923 237.86 279.067 244.779 279.067 244.779Z" stroke="#212121" stroke-width="4" stroke-miterlimit="10" stroke-linecap="round" stroke-linejoin="round"/>
<path d="M220.127 3.33431C231.726 -0.59454 276.665 45.7932 276.665 45.7932L203.102 70.7088C203.104 70.7051 208.53 7.25942 220.127 3.33431Z" stroke="#212121" stroke-width="4" stroke-miterlimit="10" stroke-linecap="round" stroke-linejoin="round"/>
<path d="M288.558 269.268L331.012 254.889L328.691 232.156L276.423 249.857L288.558 269.268Z" fill="white" stroke="#212121" stroke-width="4" stroke-miterlimit="10" stroke-linecap="round" stroke-linejoin="round"/>
<path d="M203.102 70.7085L239.886 58.2518L276.665 45.7929C310.643 92.8034 335.286 140.899 328.687 232.157L276.398 249.865C215.107 181.604 205.078 128.561 203.102 70.7085Z" fill="#F7D033" fill-opacity="0.51" stroke="#212121" stroke-width="4" stroke-miterlimit="10" stroke-linecap="round" stroke-linejoin="round"/>
<path d="M246.678 78.0616C263.805 72.2577 282.448 81.4231 288.315 98.5444C294.183 115.656 285.058 134.231 267.927 140.033C250.796 145.835 232.157 136.662 226.29 119.551C220.42 102.433 229.549 83.8597 246.678 78.0616ZM264.735 130.722C276.718 126.666 283.103 113.676 278.994 101.703C274.891 89.7295 261.849 83.3153 249.87 87.3731C237.887 91.4287 231.503 104.425 235.608 116.395C239.713 128.365 252.749 134.781 264.735 130.722Z" fill="white" stroke="#212121" stroke-width="4" stroke-miterlimit="10" stroke-linecap="round" stroke-linejoin="round"/>
<path d="M235.602 116.395C239.707 128.366 252.747 134.784 264.729 130.722C276.712 126.666 283.097 113.676 278.988 101.704C274.885 89.7297 261.843 83.3155 249.864 87.3733C237.886 91.4273 231.497 104.425 235.602 116.395Z" fill="white" stroke="#212121" stroke-width="4" stroke-miterlimit="10" stroke-linecap="round" stroke-linejoin="round"/>
<path d="M278.64 117.479L235.007 114.336C233.96 110.033 234.217 105.668 235.557 101.696L279.826 104.889C280.654 109.224 280.181 113.574 278.64 117.479Z" fill="white" stroke="#212121" stroke-width="4" stroke-miterlimit="10" stroke-linecap="round" stroke-linejoin="round"/>
<path d="M327.209 256.18L292.407 267.965C290.775 323.178 334.773 341.557 334.773 341.557C363.959 295.07 327.209 256.18 327.209 256.18Z" fill="white" stroke="#212121" stroke-width="4" stroke-miterlimit="10" stroke-linecap="round" stroke-linejoin="round"/>
<path d="M297.884 266.109L321.767 258.02C327.919 270.363 335.367 292.171 326.474 314.417C326.471 314.421 304.513 300.202 297.884 266.109Z" fill="white" stroke="#212121" stroke-width="4" stroke-miterlimit="10" stroke-linecap="round" stroke-linejoin="round"/>
<path d="M318.049 288.284C318.049 288.284 308.564 280.863 302.542 264.535L317.012 259.636C319.556 267.854 321.055 278.135 318.049 288.284Z" fill="white" stroke="#212121" stroke-width="4" stroke-miterlimit="10" stroke-linecap="round" stroke-linejoin="round"/>
</g>
</svg>
