<svg width="53" height="53" fill="none" xmlns="http://www.w3.org/2000/svg"><g clip-path="url(#clip0)" fill="#000"><path d="M18.57 25.596c-2.006-2.266-4.68-3.513-7.533-3.513-2.852 0-5.527 1.247-7.532 3.513-4.074 4.603-4.074 12.091 0 16.694l7.532 8.51 7.532-8.51c4.075-4.603 4.075-12.09 0-16.694zm-1.323 15.523l-6.21 7.014-6.21-7.014c-3.502-3.957-3.502-10.395 0-14.352 1.666-1.881 3.872-2.917 6.21-2.917s4.545 1.036 6.209 2.917c3.503 3.957 3.503 10.394 0 14.352zm25.815-19.471l5.71-6.436c3.072-3.463 3.072-9.095 0-12.558C47.252.943 45.224 0 43.06 0c-2.163 0-4.19.943-5.71 2.654-3.072 3.463-3.072 9.095 0 12.558l5.71 6.436zm-4.39-17.82c1.18-1.33 2.738-2.061 4.389-2.061 1.652 0 3.21.731 4.39 2.06 2.497 2.816 2.497 7.397 0 10.212l-4.39 4.947-4.389-4.947c-2.498-2.815-2.498-7.396 0-10.212zm7.795 44.329a.883.883 0 0 0-1.056.667c-.101.45-.298.865-.585 1.23a.883.883 0 1 0 1.388 1.092 4.868 4.868 0 0 0 .92-1.933.883.883 0 0 0-.667-1.056zM28.265 27.384a3.142 3.142 0 0 1-1.106-.203.887.887 0 0 0-1.14.51.885.885 0 0 0 .51 1.14c.553.21 1.135.319 1.734.32h.316a.883.883 0 1 0 0-1.767h-.314zm-2.099-5.587c.16 0 .32-.043.466-.133a3.048 3.048 0 0 1 1.285-.444.885.885 0 0 0-.194-1.757 4.791 4.791 0 0 0-2.026.701.883.883 0 0 0 .47 1.633zM15.959 51.233h-1.767a.882.882 0 1 0 0 1.767h1.767a.883.883 0 1 0 0-1.767zm15.837-15.9c-.076 0-.151.002-.226.005a.883.883 0 0 0 .035 1.766h.037l1.73-.004a.883.883 0 1 0 0-1.767h-1.576zM31.352 21.2h1.767a.883.883 0 1 0 0-1.766h-1.767a.882.882 0 1 0 0 1.766zm10.852 14.133a.883.883 0 1 0 0 1.767h1.766a.883.883 0 1 0 0-1.767h-1.766zm3.157-7.066a.883.883 0 0 0-.883-.883h-1.767a.883.883 0 1 0 0 1.767h1.767a.883.883 0 0 0 .883-.884zM36.907 37.1h1.766a.883.883 0 1 0 0-1.767h-1.766a.883.883 0 1 0 0 1.767zm1.513-15.9a.883.883 0 1 0 0-1.766h-1.767a.883.883 0 1 0 0 1.766h1.767zm-6.31 6.184a.882.882 0 1 0 0 1.767h1.767a.883.883 0 1 0 0-1.767H32.11zm7.95.883a.883.883 0 0 0-.883-.883h-1.766a.883.883 0 1 0 0 1.767h1.766a.883.883 0 0 0 .884-.884zm12.434 3.208a.883.883 0 1 0-1.745.28 3.094 3.094 0 0 1-.088 1.36.883.883 0 1 0 1.696.496 4.865 4.865 0 0 0 .137-2.136zM37.158 51.233H35.39a.883.883 0 1 0 0 1.767h1.767a.883.883 0 1 0 0-1.767zm-5.301 0H30.09a.883.883 0 1 0 0 1.767h1.767a.883.883 0 1 0 0-1.767zm9.719-7.067a.883.883 0 0 0-.883-.883h-1.767a.883.883 0 1 0 0 1.767h1.767a.883.883 0 0 0 .883-.883zm-5.3 0a.883.883 0 0 0-.884-.883h-1.767a.883.883 0 1 0 0 1.767h1.767a.883.883 0 0 0 .883-.883zm6.121 7.067h-1.705a.882.882 0 1 0 0 1.767h1.741l.026-.884v.883c.488 0 .852-.395.852-.883s-.426-.883-.914-.883zm3.123-4.665a.883.883 0 0 0 .693-1.43 4.897 4.897 0 0 0-1.659-1.349.883.883 0 1 0-.787 1.582 3.1 3.1 0 0 1 1.058.86.884.884 0 0 0 .696.337zm3.369-11.474c-.38.159-.78.239-1.195.239h-.19a.883.883 0 1 0 0 1.767h.19c.65 0 1.282-.128 1.877-.378a.883.883 0 1 0-.682-1.628zM24.76 26.372a.885.885 0 0 0 .563-1.115 3.086 3.086 0 0 1-.13-1.358.882.882 0 0 0-.765-.987.88.88 0 0 0-.987.766 4.862 4.862 0 0 0 .202 2.13.885.885 0 0 0 1.116.564zm-3.5 24.861h-1.767a.882.882 0 1 0 0 1.767h1.766a.883.883 0 1 0 0-1.767zm8.883-6.541a.883.883 0 0 0 .369-1.687 3.124 3.124 0 0 1-1.085-.827.883.883 0 1 0-1.352 1.137 4.89 4.89 0 0 0 1.702 1.296.89.89 0 0 0 .366.08zm19.985-16.656a4.804 4.804 0 0 0-2.047-.638.883.883 0 1 0-.138 1.761 3.04 3.04 0 0 1 1.299.405.883.883 0 0 0 .886-1.528zM26.556 51.233H24.79a.883.883 0 1 0 0 1.767h1.766a.883.883 0 1 0 0-1.767zm2.204-11.625a3.07 3.07 0 0 1 .546-1.249.883.883 0 0 0-1.423-1.046 4.84 4.84 0 0 0-.86 1.962.884.884 0 0 0 1.736.333z"/><path d="M43.28 13.25a4.865 4.865 0 0 0 4.858-4.858 4.865 4.865 0 0 0-4.858-4.859 4.865 4.865 0 0 0-4.858 4.859 4.865 4.865 0 0 0 4.858 4.858zm0-7.95a3.095 3.095 0 0 1 3.092 3.092 3.095 3.095 0 0 1-3.092 3.091 3.095 3.095 0 0 1-3.092-3.091A3.096 3.096 0 0 1 43.28 5.3zM11.038 27.384a5.305 5.305 0 0 0-5.3 5.3c0 2.923 2.377 5.3 5.3 5.3s5.3-2.377 5.3-5.3-2.377-5.3-5.3-5.3zm0 8.833a3.537 3.537 0 0 1-3.533-3.533 3.537 3.537 0 0 1 3.533-3.533 3.537 3.537 0 0 1 3.534 3.533 3.537 3.537 0 0 1-3.534 3.533z"/></g><defs><clipPath id="clip0"><path fill="#fff" d="M0 0h53v53H0z"/></clipPath></defs></svg>