<svg width="39" height="39" viewBox="0 0 39 39" fill="none" xmlns="http://www.w3.org/2000/svg">
<g clip-path="url(#clip0)">
<path d="M30.5 11.7588C30.24 11.6321 29.9625 11.508 29.6761 11.3858C31.3372 8.1644 30.5589 4.22293 27.7982 1.87417C25.0375 -0.474299 21.0223 -0.610519 18.1087 1.54521C15.1948 3.70124 14.1512 7.58085 15.5898 10.9078C15.1761 11.0643 14.7701 11.2377 14.3704 11.4236C12.7759 9.965 10.2751 9.78238 9.216 9.77644C8.57565 9.77316 8.02779 10.2357 7.92369 10.8674C7.82792 11.4795 7.78926 12.0993 7.80859 12.7186C7.28721 12.7474 6.7685 12.8125 6.25574 12.9134C5.62579 13.0359 5.17847 13.598 5.20077 14.2396C5.22754 15.512 5.55828 16.7594 6.16502 17.878C6.09096 17.9607 6.01601 18.0425 5.94255 18.1248C5.52764 18.5876 5.09816 19.0659 4.66005 19.5082C3.82013 20.1521 2.80502 20.5265 1.74797 20.5822C1.19446 20.6574 0.696576 20.9587 0.373276 21.4141C0.049678 21.8697 -0.070779 22.4387 0.0404578 22.9862L1.09691 28.3012C1.17692 28.7494 1.6064 29.1043 2.37167 29.6007L2.46268 29.6605C3.03731 30.0316 3.65535 30.3306 4.30344 30.5498C4.7121 30.6955 5.11095 30.8677 5.4976 31.0652C6.3872 31.5461 7.15931 32.2186 7.75803 33.0338C7.86599 33.1852 7.9808 33.3301 8.1075 33.4776C9.25586 34.6741 10.7302 35.5069 12.3479 35.8725V37.0654C12.3479 38.1418 13.2205 39.0145 14.2969 39.0145H18.8451C19.9215 39.0145 20.7944 38.1418 20.7944 37.0654V36.9827C21.3381 37.008 21.8812 37.0336 22.4297 37.0518C22.7274 37.0622 23.0236 37.0666 23.3166 37.0666C23.7844 37.0666 24.241 37.0497 24.6928 37.0244V37.0654C24.6928 38.1418 25.5654 39.0145 26.6418 39.0145H31.19C32.2667 39.0145 33.1393 38.1418 33.1393 37.0654V34.5489C36.5826 32.4571 38.7711 28.8 38.9867 24.777C39.2368 19.4757 35.9051 14.3648 30.5 11.7588ZM22.7435 1.32988C25.7733 1.31947 28.4067 3.40769 29.0866 6.36022C29.7662 9.31275 28.3115 12.3426 25.5821 13.6581C23.4852 13.2051 21.3325 13.0695 19.1952 13.2551C16.7863 11.6877 15.696 8.72207 16.5157 5.96732C17.3351 3.21287 19.8694 1.32571 22.7435 1.32988ZM9.21214 11.0759C10.5743 11.0476 11.9181 11.3938 13.0968 12.0773C12.477 12.4295 11.8515 12.8354 11.2296 13.2747C10.5595 12.9714 9.84119 12.7893 9.10744 12.7367C9.08603 12.1811 9.12112 11.6246 9.21214 11.0759ZM6.50795 14.1869C7.15545 14.0585 7.81454 13.996 8.47482 14.0005C8.48642 14.0005 8.49624 14.0064 8.50724 14.0064C8.51824 14.0064 8.54739 14.0064 8.56762 14.0022C9.80223 13.9356 10.9997 14.4383 11.8164 15.3668C12.3586 15.9299 12.5121 16.7623 12.206 17.4818C11.6757 18.3381 10.7436 18.8631 9.7365 18.8729C8.28744 18.8729 6.65726 17.4063 6.50081 14.1869H6.50795ZM37.6873 24.7152C37.5124 28.0338 35.8233 31.0881 33.1054 33.0005C33.034 32.7183 32.7809 32.5196 32.4895 32.5172C32.1308 32.5172 31.8399 32.8081 31.8399 33.1668V37.0654C31.8399 37.4241 31.549 37.715 31.19 37.715H26.6418C26.2831 37.715 25.9922 37.4241 25.9922 37.0654V35.1161C25.9922 34.7574 25.7013 34.4665 25.3424 34.4665C24.9837 34.4665 24.6928 34.7574 24.6928 35.1161V35.7172C23.9727 35.76 23.2333 35.782 22.4725 35.7529C21.9098 35.7342 21.3524 35.7086 20.7944 35.6827V35.1161C20.7944 34.7574 20.5033 34.4665 20.1446 34.4665C19.7856 34.4665 19.4947 34.7574 19.4947 35.1161V37.0654C19.4947 37.4241 19.2038 37.715 18.8451 37.715H14.2969C13.9382 37.715 13.6473 37.4241 13.6473 37.0654V33.8167C13.6473 33.458 13.3564 33.1668 12.9975 33.1668C12.6388 33.1668 12.3479 33.458 12.3479 33.8167V34.5165C11.1049 34.2093 9.97592 33.5537 9.09257 32.627C8.99383 32.5119 8.90162 32.3965 8.81002 32.2683C8.09531 31.2945 7.17329 30.4918 6.1103 29.9183C5.67546 29.6941 5.22635 29.499 4.76594 29.3336C4.21451 29.1489 3.68748 28.8979 3.19613 28.5865L3.07865 28.5091C2.81989 28.3557 2.57719 28.1763 2.35472 27.9738L1.31522 22.7278C1.27447 22.5303 1.31819 22.3248 1.43627 22.1612C1.54929 22.0003 1.72448 21.8941 1.91959 21.8679C3.08906 21.7142 4.67433 21.3379 5.58415 20.421C6.04457 19.9552 6.48535 19.4647 6.91007 18.9918L6.9642 18.9312C7.68367 19.7012 8.68302 20.1485 9.7365 20.1723C11.2376 20.1649 12.6215 19.3606 13.371 18.06C13.9007 16.9012 13.6988 15.539 12.8553 14.584C12.7119 14.396 12.5525 14.2209 12.3788 14.0602C12.8514 13.7411 13.3237 13.4392 13.7916 13.1754C14.5702 12.7424 15.3831 12.373 16.2215 12.0708C16.5514 12.5758 16.9383 13.041 17.3747 13.4574C16.6418 13.5671 16.1778 13.6709 16.0999 13.6885C15.7501 13.7694 15.5318 14.1182 15.6127 14.4683C15.6933 14.8181 16.0425 15.0364 16.3923 14.9555C16.4735 14.9362 24.6101 13.1234 29.5006 16.7912C29.7877 17.0062 30.1951 16.9482 30.4105 16.6612C30.6258 16.3739 30.5675 15.9667 30.2805 15.7514C29.3603 15.0724 28.3449 14.5334 27.267 14.1518C27.9142 13.6899 28.4864 13.1311 28.9626 12.4943C29.3046 12.6368 29.6306 12.7789 29.9328 12.9259C34.8701 15.3091 37.9142 19.9359 37.6873 24.7152Z" fill="black" stroke="black" stroke-width="0.25"/>
<path d="M20.7939 9.92051C20.7939 9.56182 20.5027 9.27094 20.144 9.27094C19.785 9.27094 19.4941 9.56182 19.4941 9.92051C19.4941 11.3618 20.9515 12.5346 22.7429 12.5346C24.5343 12.5346 25.9917 11.3648 25.9917 9.92051C25.9917 8.65884 24.8734 7.60298 23.3928 7.36058V4.76168C24.1399 4.94757 24.6922 5.43357 24.6922 5.99243C24.6922 6.35112 24.9831 6.642 25.3418 6.642C25.7008 6.642 25.9917 6.35112 25.9917 5.99243C25.9917 4.72986 24.8734 3.6746 23.3928 3.4316V3.27902C23.3928 2.92003 23.1019 2.62915 22.7429 2.62915C22.3842 2.62915 22.0933 2.92003 22.0933 3.27902V3.43309C20.6125 3.67608 19.4941 4.73254 19.4941 5.99362C19.4941 7.2547 20.6125 8.31115 22.0933 8.55414V11.153C21.3459 10.9654 20.7939 10.4794 20.7939 9.92051ZM24.6922 9.92051C24.6922 10.4794 24.1399 10.9654 23.3928 11.1513V8.69066C24.1399 8.87596 24.6922 9.36195 24.6922 9.92051ZM20.7939 5.99362C20.7939 5.43476 21.3459 4.94876 22.0933 4.76287V7.22406C21.3459 7.03847 20.7939 6.55248 20.7939 5.99362Z" fill="black" stroke="black" stroke-width="0.25"/>
</g>
<defs>
<clipPath id="clip0">
<rect width="39" height="39" fill="white"/>
</clipPath>
</defs>
</svg>
