<svg width="72" height="73" viewBox="0 0 72 73" fill="none" xmlns="http://www.w3.org/2000/svg">
<g clip-path="url(#clip0)">
<path d="M32.7328 15.7915H18.264C17.6857 15.7915 17.2168 16.2647 17.2168 16.8484C17.2168 17.432 17.6857 17.9052 18.264 17.9052H32.7327C33.311 17.9052 33.7799 17.432 33.7799 16.8484C33.78 16.2647 33.3111 15.7915 32.7328 15.7915Z" fill="#FECC2F"/>
<path d="M52.3986 51.3436H44.6527C44.0743 51.3436 43.6055 51.8168 43.6055 52.4005C43.6055 52.9841 44.0743 53.4573 44.6527 53.4573H52.3986C52.9769 53.4573 53.4458 52.9841 53.4458 52.4005C53.4458 51.8168 52.9769 51.3436 52.3986 51.3436Z" fill="#FECC2F"/>
<path d="M66.4965 19.2102C67.0025 19.4926 67.6398 19.3076 67.9197 18.7969C69.9725 15.0513 71.2057 11.2444 71.4858 7.78762C71.5373 7.14731 70.9907 6.59592 70.3563 6.6482C66.3608 6.97794 61.9857 8.60872 57.7954 11.2375C57.3422 9.38079 56.7697 7.93023 56.0575 6.8335C54.9632 5.14846 53.5357 4.29382 51.8146 4.29382H6.11399C3.94977 4.29382 2.31572 4.99571 1.25777 6.38032C-0.795857 9.06711 0.272287 13.2935 0.318782 13.4722C0.439699 13.9366 0.855786 14.2606 1.33163 14.2606H10.5498C11.4861 20.2745 11.4384 28.8264 11.3941 36.6978C11.3716 40.6944 11.3483 44.8269 11.4434 48.5932C11.4581 49.1766 11.9377 49.6364 12.5168 49.6229C13.095 49.6081 13.5518 49.1231 13.5371 48.5396C13.443 44.8062 13.4662 40.6904 13.4885 36.71C13.5416 27.2775 13.5927 18.2039 12.2846 12.0749C12.1601 11.4917 12.0184 10.9108 11.8526 10.338C11.3912 8.73808 10.8045 7.40631 10.0587 6.4078H51.8146C53.7121 6.4078 55.0611 8.39341 55.9293 12.4731C54.7991 13.2753 53.6969 14.1476 52.6281 15.0787C50.2378 17.161 48.0307 19.5354 46.1327 22.109H18.2637C17.6854 22.109 17.2165 22.5822 17.2165 23.1659C17.2165 23.7496 17.6854 24.2227 18.2637 24.2227H44.6737C43.9007 25.4205 43.2062 26.636 42.5981 27.856H18.2637C17.6854 27.856 17.2165 28.3292 17.2165 28.9129C17.2165 29.4966 17.6854 29.9697 18.2637 29.9697H41.6319C41.1261 31.1882 40.7112 32.4036 40.3911 33.603H18.2637C17.6854 33.603 17.2165 34.0762 17.2165 34.6599C17.2165 35.2436 17.6854 35.7167 18.2637 35.7167H39.9228C39.8355 36.2204 39.7687 36.7189 39.7189 37.2125L36.4846 40.4766C36.0756 40.8894 36.0756 41.5586 36.4846 41.9712C36.8806 42.3707 37.5582 42.3824 37.9656 41.9712L41.1985 38.7085C43.1402 38.5096 45.0462 38.0281 46.8819 37.3664C48.7713 36.6852 50.5904 35.8099 52.3266 34.7967C54.0001 33.8202 55.5986 32.7136 57.1147 31.5036C57.114 33.2333 57.1042 34.9854 57.0945 36.6969C57.0517 44.2927 57.0076 52.1292 57.7778 57.8873C57.7778 57.8873 23.0876 57.8873 23.0458 57.8873C22.3822 57.8873 21.8787 58.5273 22.0263 59.1792C22.0286 59.1896 22.0297 59.2002 22.0324 59.2106C22.0327 59.2119 22.0344 59.2185 22.0367 59.2281C22.0948 59.4723 22.803 62.612 21.5115 64.4059C21.5077 64.4113 21.5039 64.4167 21.5 64.422C20.7564 65.4411 19.4415 65.7469 18.2506 65.7401C15.7056 65.7256 14.2192 61.4699 13.7066 52.731C13.6724 52.1485 13.1771 51.7045 12.5994 51.7386C12.022 51.7731 11.5816 52.2733 11.616 52.856C12.0255 59.8388 13.1513 67.854 18.2637 67.854H63.9644C66.1286 67.854 67.7626 67.1521 68.8206 65.7674C70.8739 63.0805 69.8058 58.8541 69.7593 58.6754C69.6384 58.211 69.2223 57.887 68.7464 57.887H59.893C59.102 52.2618 59.146 44.3625 59.189 36.7088C59.202 34.4036 59.2151 32.0261 59.2059 29.7222C59.7881 29.1946 60.3605 28.6481 60.9204 28.0831C62.6674 26.32 64.2541 24.4278 65.636 22.4589C65.9702 21.9826 65.8587 21.323 65.3867 20.9855C64.9148 20.6482 64.2612 20.7608 63.9268 21.2371C62.6129 23.1088 61.1031 24.9094 59.4394 26.5884C58.1277 27.9121 56.7286 29.1501 55.2535 30.2852C51.6499 33.057 47.7928 35.0478 44.1272 36.0208C44.0092 36.052 43.8907 36.0811 43.7723 36.1106L62.3824 17.3294C62.7914 16.9167 62.7914 16.2475 62.3824 15.8349C61.9734 15.4222 61.3103 15.4222 60.9015 15.8349L42.2915 34.6162C42.3182 34.507 42.3437 34.3981 42.3722 34.2886C43.4411 30.1601 45.4939 26.3913 48.0613 23.0325C48.0623 23.0312 48.0631 23.0301 48.0641 23.0288C48.0721 23.0182 48.0803 23.0078 48.0883 22.9974C50.4826 19.8377 53.3245 17.0208 56.5006 14.665C60.6717 11.5782 65.1455 9.53819 69.2473 8.90675C68.8209 11.719 67.7407 14.7565 66.087 17.7739C65.807 18.2847 65.9904 18.9277 66.4965 19.2102ZM10.1542 12.1465H2.19746V12.1466C2.14831 11.8049 2.10363 11.3754 2.09414 10.9053C2.07487 9.94373 2.20235 8.60111 2.91947 7.66658C3.56147 6.82984 4.58856 6.41767 6.05827 6.40752L6.74384 6.48361C6.75375 6.48601 6.76353 6.48854 6.7733 6.49108C8.15812 6.8552 9.23939 8.53348 9.9977 11.4903C10.0536 11.7081 10.1051 11.9271 10.1542 12.1465ZM67.8784 60.001C68.0373 61.1211 68.1529 63.1806 67.1624 64.4767C66.5126 65.327 65.4665 65.7403 63.9645 65.7403H23.1408C24.4876 63.9531 24.4697 61.4981 24.293 60.001H67.8784Z" fill="#FECC2F"/>
</g>
<defs>
<clipPath id="clip0">
<rect width="71.4891" height="72.1478" fill="white"/>
</clipPath>
</defs>
</svg>
