<svg width="45" height="45" viewBox="0 0 45 45" fill="none" xmlns="http://www.w3.org/2000/svg">
<path d="M36.3751 7.5C35.7537 7.5 35.25 8.00365 35.25 8.62507C35.25 9.24648 35.7537 9.75014 36.3751 9.75014C36.9965 9.75014 37.5001 9.24648 37.5001 8.62507C37.5001 8.00365 36.9965 7.5 36.3751 7.5Z" fill="#FECC2F"/>
<path d="M39.5305 0.219641C39.2376 -0.0732136 38.7628 -0.0732136 38.47 0.219641L32.4697 6.21955C32.3293 6.36031 32.25 6.55086 32.25 6.74998V11.9997C32.25 12.4141 32.5858 12.7499 33.0002 12.7499H38.2503C38.449 12.7499 38.6396 12.6709 38.7803 12.5302L44.7802 6.52991C45.0731 6.23706 45.0731 5.76259 44.7802 5.46939L39.5305 0.219641ZM37.9395 11.2499H33.75V7.06035L39.0001 1.81026L43.1896 5.99982L37.9395 11.2499Z" fill="#FECC2F"/>
<path d="M0.75016 25.5H2.99995V25.5961C3.00304 26.9454 3.93517 28.1151 5.25009 28.4189V35.25C5.25009 35.6644 5.58586 36.0002 5.99991 36.0002H10.4998C10.9142 36.0002 11.25 35.6644 11.25 35.25V32.25H12.006C13.244 32.2466 14.2469 31.2441 14.25 30.0061V28.4189C15.2078 28.1944 15.9868 27.4995 16.3185 26.5732L28.9455 32.1855C29.3242 32.3537 29.7675 32.1831 29.9353 31.8044C29.9779 31.7086 30.0002 31.6049 29.9999 31.4999V13.4998C30.0002 13.0858 29.6645 12.75 29.2501 12.75C29.1454 12.75 29.0413 12.772 28.9455 12.8145L16.3185 18.4268C15.9085 17.2743 14.8192 16.5035 13.5959 16.5001H5.90412C4.3008 16.5015 3.00167 17.801 2.99995 19.4039V19.5001H0.75016C0.33577 19.5001 0 19.8358 0 20.2499V24.7498C0 25.1642 0.33577 25.5 0.75016 25.5ZM25.5 15.9868L28.4999 14.6544V30.3456L25.5 29.0132V15.9868ZM16.5001 19.9876L24 16.6536V28.3499L16.5001 25.0125V19.9876ZM9.75002 31.4999V34.5002H6.75007V28.4999H9.75002V31.4999ZM12.75 30.0061C12.7496 30.4167 12.417 30.7497 12.006 30.7501H11.25V28.4999H12.75V30.0061ZM4.49993 24.7498V19.4039C4.50096 18.6291 5.1289 18.0008 5.90412 18.0001H13.5959C14.3711 18.0008 14.9991 18.6291 15.0001 19.4039V25.5961C14.9991 26.371 14.3711 26.9993 13.5959 27H5.90412C5.1289 26.9993 4.50096 26.371 4.49993 25.5961V24.7498ZM1.49998 21H2.99995V24H1.49998V21Z" fill="#FECC2F"/>
<path d="M37.3563 29.4914C37.0634 29.1985 36.5886 29.1985 36.2957 29.4914L30.9917 34.7954C30.6989 35.0882 30.6989 35.563 30.9917 35.8559L38.4168 43.2809C38.7096 43.5738 39.1841 43.5738 39.4773 43.2809L44.7803 37.9776C45.0731 37.6848 45.0731 37.2099 44.7803 36.9171L37.3563 29.4914ZM42.2867 36.5415L38.0542 36.2167L37.7288 31.9842L42.2867 36.5415ZM38.9469 41.6879L32.5823 35.3248L36.2027 31.7048L36.6085 36.9727C36.6366 37.3414 36.9295 37.635 37.2982 37.6635L42.5672 38.0683L38.9469 41.6879Z" fill="#FECC2F"/>
<path d="M20.2501 14.25C23.1436 14.2565 25.4947 11.916 25.5015 9.02252C25.5039 7.88269 25.1349 6.77307 24.4499 5.86189L29.0316 1.28025L27.9697 0.219727L23.388 4.8C21.0682 3.06038 17.7775 3.53039 16.0378 5.84988C14.2982 8.16936 14.7682 11.4601 17.0877 13.2001C17.9999 13.884 19.1099 14.2524 20.2501 14.25ZM20.2501 5.24975C22.321 5.24975 23.9998 6.92894 23.9998 8.99986C23.9998 11.0711 22.321 12.75 20.2501 12.75C18.1788 12.75 16.4999 11.0711 16.4999 8.99986C16.5024 6.92997 18.1798 5.25249 20.2501 5.24975Z" fill="#FECC2F"/>
<path d="M32.2501 26.2501H36.0002V26.9999C36.0002 27.4143 36.3359 27.75 36.7503 27.75H42.7502C43.1643 27.75 43.5001 27.4143 43.5001 26.9999V23.2642C43.4963 21.9904 42.6908 20.8571 41.4896 20.4345C42.8395 19.4739 43.155 17.6007 42.1944 16.2508C41.2341 14.9008 39.361 14.585 38.011 15.5456C36.6611 16.5062 36.3452 18.3794 37.3058 19.7293C37.4998 20.0019 37.7381 20.2405 38.011 20.4345C37.5256 20.6075 37.0926 20.9025 36.7538 21.2908C36.4925 20.9897 36.1736 20.7435 35.8158 20.567C36.8238 19.8406 37.0521 18.4343 36.3256 17.4263C35.5992 16.4183 34.1929 16.19 33.1846 16.9165C32.1766 17.643 31.9483 19.0492 32.6748 20.0572C32.8162 20.2536 32.9885 20.4256 33.1846 20.567C32.1574 21.0666 31.5037 22.1075 31.5002 23.2498V25.4999C31.5002 25.9139 31.836 26.2501 32.2501 26.2501ZM39.7503 16.5C40.5787 16.5 41.2503 17.1716 41.2503 18C41.2503 18.8284 40.5787 19.5 39.7503 19.5C38.9219 19.5 38.2503 18.8281 38.2503 18C38.2503 17.1716 38.9219 16.5 39.7503 16.5ZM37.5002 25.4999V23.2642C37.5015 22.4282 38.1786 21.7512 39.0145 21.7498H40.486C41.3217 21.7512 41.9991 22.4282 42.0001 23.2642V26.2497H37.5002V25.4999ZM34.5002 18C34.9142 18 35.25 18.3358 35.25 18.7498C35.25 19.1642 34.9142 19.5 34.5002 19.5C34.0858 19.5 33.75 19.1642 33.75 18.7498C33.75 18.3358 34.0858 18 34.5002 18ZM33.0002 23.2498C33.0002 22.4213 33.6718 21.7498 34.5002 21.7498C35.3286 21.7498 36.0002 22.4217 36.0002 23.2498V24.7501H33.0002V23.2498Z" fill="#FECC2F"/>
<path d="M21.0001 30.75H18.0001C17.8013 30.75 17.6105 30.829 17.4697 30.9697L12.9698 35.4697C12.6769 35.7625 12.6769 36.2373 12.9698 36.5302L21.2198 44.7802C21.5127 45.0731 21.9875 45.0731 22.2803 44.7802L28.2806 38.7803C28.5731 38.4875 28.5731 38.0127 28.2806 37.7198L21.5305 30.9697C21.3898 30.829 21.1989 30.75 21.0001 30.75ZM21.7502 43.1896L14.5607 36.0001L18.3105 32.25H20.6897L26.6896 38.2499L21.7502 43.1896Z" fill="#FECC2F"/>
<path d="M17.47 36.9697L20.4699 33.9697L21.5304 35.0303L18.5305 38.0302L17.47 36.9697Z" fill="#FECC2F"/>
<path d="M19.7194 39.2194L22.7197 36.2195L23.7802 37.28L20.7802 40.2803L19.7194 39.2194Z" fill="#FECC2F"/>
</svg>
