<svg xmlns="http://www.w3.org/2000/svg" width="108" height="74" fill="none"><path stroke="#000" stroke-width="2" d="M91 8.82h15v64H91zm-2.14-.25H108M88.86 56.42H108m-19.14 16.4H108M2 8.82h15v64H2zm-2-.25h19.14M0 72.82h19.14M0 56.42h19.14M88.86 3.1H108M0 3.1h19.14M16.4 61.52h75.2M16.4 17.77h75.2M23.24 71.1h61.52M23.24 10.94v61.52m61.52-61.52v61.52M60.16 0v72.46m12.3-65.62v65.62M47.86 0v72.46M35.53 6.84v65.62"/><circle cx="41.5" cy="36.323" r="5.5" stroke="#000" stroke-width="2"/><circle cx="54" cy="35.823" r="6" stroke="#000" stroke-width="2"/><circle cx="66.5" cy="36.323" r="5.5" stroke="#000" stroke-width="2"/></svg>