<svg width="72" height="73" viewBox="0 0 72 73" fill="none" xmlns="http://www.w3.org/2000/svg">
<g clip-path="url(#clip0)">
<path d="M32.52 56.1631C32.7523 56.3975 33.0574 56.5153 33.3623 56.5153C33.6674 56.5153 33.9724 56.3975 34.2047 56.1631C34.6706 55.693 34.6706 54.9329 34.2047 54.4628L22.2899 42.4383C21.824 41.9682 21.071 41.9682 20.6052 42.4383C20.1394 42.9085 20.1394 43.6684 20.6052 44.1385L32.52 56.1631Z" fill="#FECC2F"/>
<path d="M50.3905 50.151L51.9311 51.7058L50.3905 53.2605C49.9245 53.7307 49.9245 54.4907 50.3905 54.9607C50.6228 55.1952 50.9279 55.313 51.2328 55.313C51.5379 55.313 51.8429 55.1952 52.0752 54.9607L53.6158 53.4061L55.1565 54.9609C55.3888 55.1954 55.6939 55.3132 55.9988 55.3132C56.3039 55.3132 56.6089 55.1954 56.8412 54.9609C57.3071 54.4908 57.3071 53.7307 56.8412 53.2606L55.3006 51.7058L56.8412 50.151C57.3071 49.6807 57.3071 48.9208 56.8412 48.4507C56.3754 47.9805 55.6223 47.9805 55.1565 48.4507L53.6158 50.0054L52.0752 48.4506C51.6093 47.9803 50.8563 47.9803 50.3905 48.4506C49.9247 48.9208 49.9247 49.6807 50.3905 50.151Z" fill="#FECC2F"/>
<path d="M40.5098 37.2762C40.5098 39.265 42.1135 40.8836 44.0842 40.8836C46.0549 40.8836 47.6587 39.265 47.6587 37.2762C47.6587 35.2873 46.0549 33.6688 44.0842 33.6688C42.1135 33.6688 40.5098 35.2873 40.5098 37.2762ZM45.2758 37.2762C45.2758 37.9388 44.7409 38.4786 44.0844 38.4786C43.4278 38.4786 42.8929 37.9388 42.8929 37.2762C42.8929 36.6136 43.4278 36.0738 44.0844 36.0738C44.7409 36.0738 45.2758 36.6136 45.2758 37.2762Z" fill="#FECC2F"/>
<path d="M44.928 19.5918C44.8172 19.4812 44.6849 19.3934 44.5396 19.3321C44.2489 19.2106 43.9201 19.2106 43.6294 19.3321C43.484 19.3934 43.3518 19.4812 43.2422 19.5918L38.4763 24.4016C38.0105 24.8718 38.0105 25.6317 38.4763 26.1018C38.9422 26.5719 39.6952 26.5719 40.161 26.1018L42.8931 23.3446V30.0615C42.8931 30.7252 43.4269 31.2639 44.0845 31.2639C44.7422 31.2639 45.276 30.7252 45.276 30.0615V23.3446L48.0081 26.1018C48.2404 26.3363 48.5455 26.4541 48.8504 26.4541C49.1555 26.4541 49.4605 26.3363 49.6928 26.1018C50.1587 25.6316 50.1587 24.8716 49.6928 24.4016L44.928 19.5918Z" fill="#FECC2F"/>
<path d="M17.8713 33.6688C15.9006 33.6688 14.2969 35.2873 14.2969 37.2762C14.2969 39.265 15.9006 40.8836 17.8713 40.8836C19.842 40.8836 21.4458 39.265 21.4458 37.2762C21.4458 35.2873 19.842 33.6688 17.8713 33.6688ZM17.8713 38.4787C17.2148 38.4787 16.6799 37.9389 16.6799 37.2763C16.6799 36.6138 17.2148 36.0739 17.8713 36.0739C18.5278 36.0739 19.0627 36.6138 19.0627 37.2763C19.0627 37.9388 18.5278 38.4787 17.8713 38.4787Z" fill="#FECC2F"/>
<path d="M19.412 23.6968L20.9526 25.2517L19.412 26.8065C18.9462 27.2767 18.9462 28.0367 19.412 28.5068C19.6443 28.7413 19.9494 28.8591 20.2543 28.8591C20.5594 28.8591 20.8643 28.7413 21.0967 28.5068L22.6373 26.9519L24.178 28.5068C24.4103 28.7413 24.7154 28.8591 25.0203 28.8591C25.3254 28.8591 25.6304 28.7413 25.8627 28.5068C26.3285 28.0365 26.3285 27.2766 25.8627 26.8065L24.3219 25.2517L25.8626 23.6968C26.3283 23.2266 26.3283 22.4667 25.8626 21.9966C25.3966 21.5264 24.6436 21.5264 24.1778 21.9966L22.6372 23.5514L21.0967 21.9966C20.6308 21.5264 19.8777 21.5264 19.412 21.9966C18.946 22.4668 18.946 23.2268 19.412 23.6968Z" fill="#FECC2F"/>
<path d="M22.6387 14.4295H48.8512C49.5089 14.4295 50.0427 13.8908 50.0427 13.2271V6.01234C50.0427 5.34864 49.5089 4.80993 48.8512 4.80993H42.4863C41.4904 1.97208 38.7964 0 35.745 0C32.6936 0 29.9997 1.97208 29.0036 4.80979H22.6387C21.9811 4.80979 21.4473 5.3485 21.4473 6.0122V13.2269C21.4473 13.8908 21.9811 14.4295 22.6387 14.4295ZM23.8303 7.21475H29.9081C30.474 7.21475 30.9625 6.81188 31.0758 6.25161C31.525 4.02222 33.4885 2.40496 35.7452 2.40496C38.0031 2.40496 39.9666 4.02222 40.4146 6.25161C40.5278 6.81202 41.0162 7.21475 41.5823 7.21475H47.6601V12.0245H23.8303V7.21475Z" fill="#FECC2F"/>
<path d="M60.7653 4.80981H53.6164C52.9587 4.80981 52.4249 5.34853 52.4249 6.01223C52.4249 6.67593 52.9587 7.21464 53.6164 7.21464H60.7653C62.5025 7.21464 64.3397 9.06877 64.3397 10.822V66.135C64.3397 67.8883 62.5025 69.7424 60.7653 69.7424H10.7231C8.98584 69.7424 7.14863 67.8883 7.14863 66.135V10.8222C7.14863 9.06891 8.98584 7.21478 10.7231 7.21478H17.872C18.5296 7.21478 19.0634 6.67607 19.0634 6.01237C19.0634 5.34867 18.5296 4.80996 17.872 4.80996H10.7231C7.66092 4.80996 4.76562 7.73193 4.76562 10.8223V66.1353C4.76563 69.2255 7.66092 72.1475 10.7231 72.1475H60.7653C63.8274 72.1475 66.7227 69.2255 66.7227 66.1352V10.8222C66.7227 7.73179 63.8274 4.80981 60.7653 4.80981Z" fill="#FECC2F"/>
<path d="M36.9358 64.9328C38.9065 64.9328 40.5102 63.3142 40.5102 61.3254C40.5102 59.3365 38.9065 57.718 36.9358 57.718C34.9651 57.718 33.3613 59.3365 33.3613 61.3254C33.3613 63.3142 34.9651 64.9328 36.9358 64.9328ZM36.9358 60.123C37.5923 60.123 38.1272 60.6628 38.1272 61.3254C38.1272 61.988 37.5923 62.5278 36.9358 62.5278C36.2792 62.5278 35.7443 61.988 35.7443 61.3254C35.7443 60.6628 36.2794 60.123 36.9358 60.123Z" fill="#FECC2F"/>
<path d="M36.9363 38.4788C37.5939 38.4788 38.1277 37.9401 38.1277 37.2764C38.1277 36.6127 37.5939 36.074 36.9363 36.074H25.0215C24.3639 36.074 23.8301 36.6127 23.8301 37.2764C23.8301 37.9401 24.3639 38.4788 25.0215 38.4788H36.9363Z" fill="#FECC2F"/>
<path d="M35.7443 4.80981C34.4302 4.80981 33.3613 5.88836 33.3613 7.21478C33.3613 8.54105 34.43 9.61974 35.7443 9.61974C37.0585 9.61974 38.1273 8.54119 38.1273 7.21478C38.1273 5.8885 37.0585 4.80981 35.7443 4.80981Z" fill="#FECC2F"/>
</g>
<defs>
<clipPath id="clip0">
<rect width="71.4888" height="72.1475" fill="white"/>
</clipPath>
</defs>
</svg>
