<svg width="50" height="49" viewBox="0 0 50 49" fill="none" xmlns="http://www.w3.org/2000/svg">
<g clip-path="url(#clip0_811_2504)">
<path d="M25 0C20.1534 0 16.2109 3.90318 16.2109 8.58547C16.2109 13.2678 20.1534 17.0766 25 17.0766C29.8466 17.0766 33.7891 13.2678 33.7891 8.58547C33.7891 3.90318 29.8466 0 25 0Z" fill="#212121" fill-opacity="0.6"/>
<path d="M27.9297 17.0748H25H22.0703C20.0041 17.0748 18.0075 17.5908 16.1924 18.4686C19.2753 19.2722 22.178 20.4297 25 21.9945C27.8221 20.4297 30.7247 19.2722 33.8076 18.4686C31.9925 17.5908 29.9959 17.0748 27.9297 17.0748Z" fill="#212121" fill-opacity="0.6"/>
<path d="M47.0703 25.5695C45.4522 25.5695 44.1406 26.8367 44.1406 28.3999V34.0607C44.1406 35.6237 45.4522 36.891 47.0703 36.891C48.6884 36.891 50 35.6237 50 34.0607V28.3999C50 26.8367 48.6884 25.5695 47.0703 25.5695Z" fill="#212121" fill-opacity="0.6"/>
<path d="M2.92969 25.5695C1.31162 25.5695 0 26.8367 0 28.3999V34.0607C0 35.6237 1.31162 36.891 2.92969 36.891C4.54775 36.891 5.85938 35.6237 5.85938 34.0607V28.3999C5.85938 26.8367 4.54775 25.5695 2.92969 25.5695Z" fill="#212121" fill-opacity="0.6"/>
<path d="M4.39453 19.9088C3.58486 19.9088 2.92969 20.5417 2.92969 21.324V22.7392C6.16123 22.7392 8.78906 25.2779 8.78906 28.3999V34.0607C8.78906 37.1827 6.16123 39.7214 2.92969 39.7214V41.1366C2.92969 41.9188 3.58486 42.5518 4.39453 42.5518C11.9044 42.5518 17.9092 44.8431 23.5352 48.3069V24.4934C17.8838 21.363 11.8069 19.9088 4.39453 19.9088Z" fill="#212121" fill-opacity="0.6"/>
<path d="M47.0703 22.7392V21.324C47.0703 20.5417 46.4151 19.9088 45.6055 19.9088C38.1931 19.9088 32.1162 21.363 26.4648 24.4934V48.3069C32.0908 44.8431 38.0956 42.5518 45.6055 42.5518C46.4151 42.5518 47.0703 41.9188 47.0703 41.1366V39.7214C43.8388 39.7214 41.2109 37.1827 41.2109 34.0607V28.3999C41.2109 25.2779 43.8388 22.7392 47.0703 22.7392Z" fill="#212121" fill-opacity="0.6"/>
</g>
<defs>
<clipPath id="clip0_811_2504">
<rect width="50" height="48.3051" fill="white"/>
</clipPath>
</defs>
</svg>
