<svg width="40" height="46" viewBox="0 0 40 46" fill="none" xmlns="http://www.w3.org/2000/svg">
<path d="M35.2905 21.3165C33.9295 20.534 31.3775 20.5249 31.2695 20.5249C30.9459 20.5249 30.6836 20.8266 30.6836 21.1987C30.6836 21.5709 30.9459 21.8726 31.2695 21.8726C31.928 21.8726 33.84 21.9893 34.7665 22.5219C34.8506 22.5704 34.94 22.5932 35.028 22.5932C35.243 22.5932 35.4499 22.4566 35.5526 22.2206C35.6973 21.8877 35.58 21.483 35.2905 21.3165Z" fill="white"/>
<path d="M38.2119 30.9099L35.792 30.1147C35.6875 30.0804 35.6145 29.9692 35.6145 29.8442V28.9153C35.8114 28.7585 35.9992 28.5829 36.1748 28.387C37.0255 27.4375 37.4941 26.164 37.4941 24.8008V23.519L37.728 22.981C37.9848 22.3902 38.1205 21.7289 38.1205 21.0686V17.5961C38.1205 17.224 37.8582 16.9223 37.5346 16.9223H31.8961C29.8458 16.9223 28.1777 18.8406 28.1777 21.1985V21.2386C28.1777 21.7878 28.2905 22.3377 28.5041 22.8288L28.8041 23.519V24.6195C28.8041 26.3638 29.5516 27.9288 30.6837 28.8705L30.6838 29.844C30.6838 29.9942 30.6838 30.0563 30.2 30.2154L29.0192 30.6033L25.6035 29.175C25.6158 28.9896 25.5614 28.8011 25.4438 28.6591L24.3523 27.3404V25.1266C24.4677 25.0173 24.5815 24.905 24.6917 24.7862C26.0687 23.302 26.8584 21.2065 26.8584 19.037V17.2691C27.2741 16.2286 27.4848 15.1276 27.4848 13.9936V6.78906C27.4848 6.41693 27.2225 6.11523 26.8989 6.11523H18.1279C15.0412 6.11523 12.53 9.00317 12.53 12.5528V13.9938C12.53 15.1277 12.7407 16.2288 13.1565 17.2692V18.7904C13.1565 21.3092 14.1304 23.5785 15.6625 25.0746V27.3405L14.571 28.6592C14.4534 28.8012 14.3991 28.9897 14.4113 29.1751L10.8063 30.6826C10.545 30.7918 10.3023 30.9398 10.0819 31.119L9.51578 30.7935C11.2009 29.95 11.7348 28.7636 11.7604 28.7046C11.8429 28.515 11.8429 28.2916 11.7604 28.102C11.338 27.1304 11.2868 25.3496 11.2457 23.9188C11.232 23.4424 11.2191 22.9924 11.1943 22.5917C10.9945 19.3596 8.85797 16.9223 6.22437 16.9223C3.59078 16.9223 1.45414 19.3595 1.25445 22.5917C1.22969 22.9925 1.21672 23.4425 1.20305 23.9189C1.16195 25.3497 1.1107 27.1303 0.688359 28.1019C0.605859 28.2915 0.605859 28.5149 0.688359 28.7046C0.713984 28.7635 1.24672 29.9475 2.93523 30.792L1.36281 31.6961C0.522187 32.1798 0 33.1515 0 34.2322V39.2103C0 39.5825 0.262344 39.8842 0.585938 39.8842C0.909531 39.8842 1.17188 39.5825 1.17188 39.2103V34.2322C1.17188 33.6651 1.44586 33.1552 1.88688 32.9016L3.84492 31.7758L4.52602 32.5201C5.00227 33.0406 5.6132 33.3007 6.22437 33.3007C6.83539 33.3007 7.44664 33.0404 7.92273 32.5201L8.60375 31.7759L9.24219 32.143C8.94156 32.6961 8.77094 33.3448 8.77094 34.0243V39.2105C8.77094 39.5827 9.03328 39.8844 9.35687 39.8844C9.68047 39.8844 9.94281 39.5827 9.94281 39.2105V34.0243C9.94281 33.0993 10.4507 32.2653 11.2067 31.9492L15.0077 30.3597L16.5899 33.0893C16.7922 33.4382 17.1163 33.662 17.4792 33.7034C17.5197 33.708 17.5599 33.7102 17.6001 33.7102C17.9202 33.7102 18.2269 33.5653 18.4561 33.3018L19.4214 32.1917V39.2106C19.4214 39.5827 19.6838 39.8844 20.0073 39.8844C20.3309 39.8844 20.5933 39.5827 20.5933 39.2106V32.1917L21.5586 33.3018C21.7877 33.5654 22.0944 33.7103 22.4146 33.7103C22.4547 33.7103 22.495 33.708 22.5354 33.7035C22.8984 33.6621 23.2225 33.4383 23.4248 33.0894L25.0071 30.3599L28.808 31.9494C29.5639 32.2655 30.0719 33.0994 30.0719 34.0245V39.2107C30.0719 39.5828 30.3342 39.8845 30.6578 39.8845C30.9814 39.8845 31.2438 39.5828 31.2438 39.2107V34.0245C31.2438 33.0876 30.9201 32.2089 30.3771 31.5591L30.5219 31.5115C30.6679 31.4636 30.8671 31.3979 31.0671 31.2851L32.5631 33.0056V39.2107C32.5631 39.5828 32.8255 39.8845 33.1491 39.8845C33.4727 39.8845 33.735 39.5828 33.735 39.2107V33.0056L35.2206 31.2971C35.2996 31.3433 35.3826 31.3823 35.4699 31.4109L37.8899 32.206C38.4423 32.3875 38.8281 32.9757 38.8281 33.6364V39.2107C38.8281 39.5828 39.0905 39.8845 39.4141 39.8845C39.7377 39.8845 40 39.5828 40 39.2107V33.6364C40 32.377 39.2647 31.2558 38.2119 30.9099ZM3.75898 29.7197C2.66297 29.2662 2.1132 28.6615 1.87852 28.3313C2.03852 27.8503 2.14227 27.2994 2.2125 26.7178C2.53562 27.6088 3.0768 28.3694 3.75898 28.9121V29.7197ZM7.11563 31.5434C6.61586 32.0894 5.83297 32.0893 5.33336 31.5433L4.78844 30.9478C4.88039 30.7497 4.93094 30.5251 4.93094 30.2898V29.5715C5.33969 29.7184 5.77422 29.7977 6.22453 29.7977C6.6743 29.7977 7.10859 29.7181 7.51805 29.572L7.51797 30.2897C7.51797 30.5251 7.56844 30.7498 7.66047 30.948L7.11563 31.5434ZM6.22469 28.45C4.475 28.45 3.05164 26.8131 3.05164 24.801C3.05164 24.4289 2.7893 24.1272 2.4657 24.1272C2.43289 24.1272 2.40086 24.1311 2.36953 24.1371C2.37125 24.0791 2.37289 24.0211 2.37461 23.9637C2.38766 23.5004 2.40023 23.0627 2.42344 22.6874C2.49828 21.4766 2.91898 20.3609 3.60805 19.5457C4.30328 18.7231 5.2325 18.2701 6.22453 18.2701C7.21656 18.2701 8.1457 18.7231 8.84102 19.5457C9.53008 20.3609 9.95078 21.4766 10.0256 22.6874C10.0487 23.0626 10.0614 23.5002 10.0747 23.9634C10.0759 24.0032 10.077 24.0436 10.0782 24.0836C9.4407 22.9541 8.45617 22.1217 7.18406 21.6516C6.00883 21.2174 4.99805 21.2443 4.95539 21.2456C4.80195 21.2505 4.65633 21.3243 4.54984 21.4514L3.49266 22.7122C3.26805 22.9802 3.27477 23.4067 3.50773 23.665C3.7407 23.9233 4.11164 23.9155 4.33625 23.6477L5.21594 22.5986C5.97352 22.6412 8.41078 22.9671 9.35867 25.3675C9.12016 27.1363 7.79813 28.45 6.22469 28.45ZM8.68976 29.7219L8.68984 28.9183C9.37148 28.3786 9.91344 27.6194 10.2368 26.7217C10.307 27.3019 10.4107 27.8516 10.5704 28.3315C10.337 28.6586 9.78469 29.2686 8.68976 29.7219ZM14.3284 18.7903V17.1185C14.3284 17.0171 14.3084 16.9169 14.2701 16.8255C13.893 15.9276 13.7019 14.9749 13.7019 13.9938V12.5529C13.7019 9.74627 15.6874 7.46298 18.1279 7.46298H26.313V13.9939C26.313 14.975 26.1218 15.9277 25.7448 16.8256C25.7064 16.917 25.6865 17.0171 25.6865 17.1186V19.0372C25.6865 20.862 25.0486 22.5546 23.8903 23.8031C23.7457 23.9589 23.5956 24.105 23.4405 24.2411C23.437 24.2438 23.4338 24.2468 23.4304 24.2496C22.3453 25.197 21.0163 25.6574 19.6283 25.554C16.6563 25.3327 14.3284 22.3618 14.3284 18.7903ZM17.6275 32.3487C17.6234 32.3534 17.614 32.3644 17.5948 32.3621C17.5758 32.3599 17.5683 32.3471 17.5651 32.3415L15.7428 29.1981L16.3292 28.4895L19.0937 30.6625L17.6275 32.3487ZM20.0074 29.7484L16.8344 27.2541V25.9963C17.6554 26.5067 18.5747 26.8259 19.5524 26.8987C19.7069 26.9102 19.8604 26.9159 20.0134 26.9159C21.1338 26.9159 22.2121 26.6079 23.1805 26.0233V27.2541L20.0074 29.7484ZM22.4498 32.3417C22.4466 32.3473 22.4391 32.3601 22.42 32.3623C22.4009 32.3651 22.3915 32.3535 22.3873 32.3489L20.9212 30.6628L23.6856 28.4897L24.2721 29.1982L22.4498 32.3417ZM33.1491 31.7732L31.8194 30.2441C31.8426 30.1229 31.8557 29.9902 31.8556 29.8439L31.8555 29.5595C32.2245 29.6988 32.6134 29.7814 33.0159 29.7953C33.061 29.7969 33.1058 29.7976 33.1508 29.7976C33.5955 29.7976 34.0295 29.7203 34.4427 29.5729V29.8442C34.4427 29.9786 34.4573 30.1103 34.485 30.2369L33.1491 31.7732ZM35.3587 27.4199C34.7377 28.1129 33.9173 28.479 33.0511 28.4482C31.3555 28.3897 29.976 26.6722 29.976 24.6197V23.36C29.976 23.2554 29.9548 23.1522 29.9141 23.0587L29.5522 22.2262C29.4196 21.9212 29.3495 21.5798 29.3495 21.2387V21.1986C29.3495 19.5837 30.492 18.27 31.8961 18.27H36.9487V21.0686C36.9487 21.5209 36.8557 21.9738 36.6798 22.3784L36.3841 23.0587C36.3434 23.1523 36.3222 23.2554 36.3222 23.36V24.8009C36.3222 25.7964 35.98 26.7265 35.3587 27.4199Z" fill="white"/>
<path d="M36.9082 34.2136C36.5846 34.2136 36.3223 34.5153 36.3223 34.8875V39.2103C36.3223 39.5824 36.5846 39.8841 36.9082 39.8841C37.2318 39.8841 37.4941 39.5824 37.4941 39.2103V34.8875C37.4941 34.5154 37.2318 34.2136 36.9082 34.2136Z" fill="white"/>
<path d="M3.0918 35.1045C2.7682 35.1045 2.50586 35.4062 2.50586 35.7783V39.2104C2.50586 39.5826 2.7682 39.8843 3.0918 39.8843C3.41539 39.8843 3.67773 39.5826 3.67773 39.2104V35.7783C3.67773 35.4063 3.41539 35.1045 3.0918 35.1045Z" fill="white"/>
<path d="M24.8074 14.2379C22.5913 11.6893 17.9546 12.1766 16.0639 12.5043C15.4683 12.6075 15.0361 13.1871 15.0361 13.8824V15.4347C15.0361 15.8069 15.2985 16.1086 15.6221 16.1086C15.9457 16.1086 16.208 15.8069 16.208 15.4347V13.8823C16.208 13.8594 16.2211 13.8398 16.2386 13.8368C16.9939 13.7059 18.4925 13.5039 20.0453 13.623C21.8725 13.7628 23.1959 14.2903 23.9788 15.1907C24.2076 15.4539 24.5786 15.4539 24.8074 15.1907C25.0362 14.9276 25.0362 14.5009 24.8074 14.2379Z" fill="white"/>
<path d="M13.1162 35.6548C12.7926 35.6548 12.5303 35.9565 12.5303 36.3286V39.2105C12.5303 39.5827 12.7926 39.8844 13.1162 39.8844C13.4398 39.8844 13.7021 39.5827 13.7021 39.2105V36.3286C13.7021 35.9566 13.4398 35.6548 13.1162 35.6548Z" fill="white"/>
<path d="M26.8989 35.6548C26.5753 35.6548 26.313 35.9565 26.313 36.3286V39.2105C26.313 39.5827 26.5753 39.8844 26.8989 39.8844C27.2225 39.8844 27.4849 39.5827 27.4849 39.2105V36.3286C27.4849 35.9566 27.2225 35.6548 26.8989 35.6548Z" fill="white"/>
</svg>
