<svg width="79" height="80" viewBox="0 0 79 80" fill="none" xmlns="http://www.w3.org/2000/svg">
<g clip-path="url(#clip0)">
<path d="M55.9197 0C55.1519 0 54.5293 0.623635 54.5293 1.39266V7.79891C54.5293 8.56794 55.1519 9.19158 55.9197 9.19158C56.6874 9.19158 57.31 8.56794 57.31 7.79891V1.39266C57.31 0.623635 56.6874 0 55.9197 0Z" fill="black"/>
<path d="M23.9411 43.4512C23.1737 43.4512 22.5508 44.0751 22.5508 44.8438C22.5508 45.6126 23.1737 46.2365 23.9411 46.2365C24.7086 46.2365 25.3315 45.6126 25.3315 44.8438C25.3315 44.0751 24.7086 43.4512 23.9411 43.4512Z" fill="black"/>
<path d="M75.3846 40.6657C75.3846 37.5941 72.8898 35.0951 69.8232 35.0951H59.4438C61.0506 30.9724 61.7011 26.1198 61.5756 21.8002C61.5517 20.9759 61.5202 20.4991 61.4775 20.199C61.4056 17.1899 58.9388 14.7622 55.9195 14.7622C52.8529 14.7622 50.358 17.2612 50.358 20.3329V21.7255C50.358 30.5336 39.0663 35.4824 30.5447 37.6045C29.9004 36.1291 28.4297 35.0951 26.7218 35.0951H12.8181C12.0503 35.0951 11.4277 35.7187 11.4277 36.4877V69.9117C11.4277 70.6807 12.0503 71.3043 12.8181 71.3043H26.7218C28.4183 71.3043 29.8806 70.2839 30.5315 68.8241C31.2371 69.0055 31.8921 69.1768 32.4968 69.335C37.3513 70.6049 40.0254 71.3043 46.5289 71.3043H61.481C64.5476 71.3043 67.0424 68.8053 67.0424 65.7337C67.0424 64.5883 66.6953 63.523 66.1012 62.6367C68.249 61.8842 69.8232 59.8286 69.8232 57.3777C69.8232 56.2365 69.4845 55.1677 68.8922 54.2773C71.0306 53.5236 72.6039 51.4728 72.6039 49.0217C72.6039 47.8764 72.2567 46.811 71.6626 45.9247C73.8105 45.1723 75.3846 43.1167 75.3846 40.6657ZM28.1121 67.1263C28.1121 67.8942 27.4884 68.519 26.7218 68.519H14.2085V37.8804H26.7218C27.4884 37.8804 28.1121 38.5052 28.1121 39.2731V67.1263ZM69.8232 43.4511C66.841 43.4511 66.1301 43.4511 62.8713 43.4511C62.1036 43.4511 61.481 44.0747 61.481 44.8437C61.481 45.6128 62.1036 46.2364 62.8713 46.2364H67.0424C68.5757 46.2364 69.8232 47.4859 69.8232 49.0217C69.8232 50.5601 68.5782 51.807 67.0424 51.807H60.0906C59.3228 51.807 58.7002 52.4307 58.7002 53.1997C58.7002 53.9687 59.3228 54.5924 60.0906 54.5924H64.2617C65.7768 54.5924 67.0424 55.8047 67.0424 57.3777C67.0424 58.916 65.7975 60.163 64.2617 60.163C61.2795 60.163 60.5686 60.163 57.3099 60.163C56.5421 60.163 55.9195 60.7867 55.9195 61.5557C55.9195 62.3247 56.5421 62.9483 57.3099 62.9483H61.481C63.0143 62.9483 64.2617 64.1978 64.2617 65.7337C64.2617 67.2695 63.0143 68.519 61.481 68.519H46.5289C40.3826 68.519 37.9819 67.891 33.1995 66.64C32.4989 66.4567 31.7304 66.2558 30.8929 66.0419V40.3907C40.9547 37.99 53.1388 32.1302 53.1388 21.7255V20.3329C53.1388 18.797 54.3862 17.5475 55.9195 17.5475C57.45 17.5475 58.6973 18.7951 58.7002 20.3285V20.3329C58.7002 20.9381 59.4544 28.3662 56.4303 35.0951H51.7484C50.9806 35.0951 50.358 35.7187 50.358 36.4877C50.358 37.2568 50.9806 37.8804 51.7484 37.8804C52.7193 37.8804 68.2384 37.8804 69.8232 37.8804C71.3565 37.8804 72.6039 39.1299 72.6039 40.6657C72.6039 42.2041 71.359 43.4511 69.8232 43.4511Z" fill="black"/>
<path d="M23.9411 49.022C23.1734 49.022 22.5508 49.6456 22.5508 50.4146V61.5559C22.5508 62.325 23.1734 62.9486 23.9411 62.9486C24.7089 62.9486 25.3315 62.325 25.3315 61.5559V50.4146C25.3315 49.6456 24.7089 49.022 23.9411 49.022Z" fill="black"/>
<path d="M44.7966 17.5474H39.2351C38.4673 17.5474 37.8447 18.171 37.8447 18.94C37.8447 19.7091 38.4673 20.3327 39.2351 20.3327H44.7966C45.5643 20.3327 46.1869 19.7091 46.1869 18.94C46.1869 18.171 45.5643 17.5474 44.7966 17.5474Z" fill="black"/>
<path d="M72.6042 17.5474H67.0427C66.275 17.5474 65.6523 18.171 65.6523 18.94C65.6523 19.7091 66.275 20.3327 67.0427 20.3327H72.6042C73.3719 20.3327 73.9945 19.7091 73.9945 18.94C73.9945 18.171 73.3719 17.5474 72.6042 17.5474Z" fill="black"/>
<path d="M68.7 6.13873C68.1569 5.59503 67.2768 5.59503 66.7336 6.13873L62.8017 10.077C62.2588 10.6209 62.2588 11.5027 62.8017 12.0467C63.345 12.5905 64.2249 12.5904 64.7681 12.0467L68.7 8.10837C69.2429 7.56454 69.2429 6.6827 68.7 6.13873Z" fill="black"/>
<path d="M49.0373 10.077L45.1055 6.13873C44.5625 5.59503 43.6824 5.59503 43.1391 6.13873C42.5962 6.68256 42.5962 7.5644 43.1391 8.10837L47.071 12.0467C47.6143 12.5905 48.4943 12.5904 49.0373 12.0467C49.5803 11.5028 49.5803 10.621 49.0373 10.077Z" fill="black"/>
</g>
<defs>
<clipPath id="clip0">
<rect width="71.1868" height="71.3043" fill="white" transform="translate(7.81299)"/>
</clipPath>
</defs>
</svg>
