<svg width="49" height="48" viewBox="0 0 49 48" fill="none" xmlns="http://www.w3.org/2000/svg">
<g clip-path="url(#clip0_811_2353)">
<path d="M44.6032 22.197L34.0102 18.784L37.4231 8.19106L35.3046 7.50848L31.8916 18.1015L21.2986 14.6885L24.7116 4.09553L22.593 3.41294L19.18 14.0059L8.58706 10.593L7.90447 12.7116L18.4974 16.1245L15.0845 26.7175L4.49152 23.3046L3.80894 25.4231L14.4019 28.8361L10.989 39.4291L13.1076 40.1117L16.5205 29.5187L27.1135 32.9316L23.7005 43.5246L25.8191 44.2072L29.2321 33.6142L39.8251 37.0272L40.5077 34.9086L29.9147 31.4956L33.3276 20.9026L43.9206 24.3156L44.6032 22.197ZM27.7961 30.813L17.2031 27.4001L20.616 16.8071L31.209 20.22L27.7961 30.813Z" fill="#212121"/>
<path d="M14.6722 20.7384C15.2368 18.986 14.2705 17.1011 12.5182 16.5366C10.7659 15.972 8.88104 16.9382 8.31645 18.6906C7.75188 20.4429 8.71817 22.3278 10.4705 22.8924C12.2227 23.4569 14.1077 22.4906 14.6722 20.7384ZM10.435 19.3732C10.6232 18.7891 11.2515 18.467 11.8356 18.6552C12.4197 18.8434 12.7418 19.4717 12.5536 20.0558C12.3654 20.6399 11.7371 20.962 11.153 20.7738C10.569 20.5856 10.2468 19.9573 10.435 19.3732Z" fill="#212121"/>
<path d="M33.7398 26.882C33.1752 28.6343 34.1414 30.5192 35.8938 31.0838C37.6462 31.6484 39.531 30.6821 40.0956 28.9298C40.6602 27.1774 39.6939 25.2926 37.9416 24.728C36.1892 24.1634 34.3044 25.1296 33.7398 26.882ZM37.977 28.2472C37.7888 28.8313 37.1606 29.1534 36.5764 28.9652C35.9922 28.777 35.6702 28.1488 35.8584 27.5646C36.0466 26.9805 36.6748 26.6584 37.259 26.8466C37.8431 27.0348 38.1652 27.6631 37.977 28.2472Z" fill="#212121"/>
<path d="M27.2776 14.2762C29.03 14.8407 30.9148 13.8744 31.4794 12.1221C32.0439 10.3699 31.0777 8.48496 29.3254 7.92037C27.573 7.35578 25.6881 8.32209 25.1236 10.0744C24.559 11.8267 25.5252 13.7116 27.2776 14.2762ZM28.6428 10.039C29.2269 10.2272 29.549 10.8555 29.3608 11.4396C29.1726 12.0237 28.5443 12.3458 27.9602 12.1576C27.3761 11.9694 27.054 11.3411 27.2422 10.757C27.4304 10.1729 28.0587 9.85077 28.6428 10.039Z" fill="#212121"/>
<path d="M21.1344 33.3437C19.3821 32.7791 17.4973 33.7454 16.9327 35.4977C16.3681 37.25 17.3343 39.1349 19.0867 39.6995C20.839 40.2641 22.7239 39.2978 23.2884 37.5455C23.853 35.7931 22.8868 33.9083 21.1344 33.3437ZM19.7693 37.5809C19.1852 37.3927 18.863 36.7645 19.0513 36.1803C19.2395 35.5961 19.8678 35.2741 20.4518 35.4623C21.036 35.6505 21.3581 36.2787 21.1699 36.8629C20.9816 37.4471 20.3534 37.7691 19.7693 37.5809Z" fill="#212121"/>
<path d="M13.2967 9.42924L15.1075 8.50098L16.0359 10.3118L18.0165 9.29643L17.0882 7.48558L18.899 6.55723L17.8837 4.5766L16.0728 5.50486L15.1445 3.69406L13.1638 4.70941L14.0921 6.52026L12.2813 7.44862L13.2967 9.42924Z" fill="#212121"/>
<path d="M38.7195 17.6202L40.5304 16.6919L41.4587 18.5027L43.4393 17.4873L42.5111 15.6765L44.3219 14.7481L43.3065 12.7675L41.4957 13.6958L40.5673 11.885L38.5867 12.9003L39.515 14.7112L37.7042 15.6395L38.7195 17.6202Z" fill="#F7D033"/>
<path d="M20.897 24.2557L21.9124 26.2364L23.7232 25.3082L24.6516 27.119L26.6322 26.1036L25.7039 24.2928L27.5147 23.3644L26.4994 21.3837L24.6885 22.3121L23.7602 20.5012L21.7795 21.5166L22.7078 23.3275L20.897 24.2557Z" fill="#F7D033"/>
<path d="M35.1156 38.1909L33.3047 39.1192L32.3764 37.3083L30.3958 38.3237L31.324 40.1346L29.5132 41.0629L30.5286 43.0436L32.3394 42.1153L33.2678 43.9261L35.2484 42.9107L34.3201 41.0999L36.1309 40.1716L35.1156 38.1909Z" fill="#F7D033"/>
<path d="M9.69276 29.9999L7.88189 30.9283L6.95355 29.1174L4.97291 30.1328L5.90117 31.9437L4.09039 32.872L5.10572 34.8527L6.91657 33.9244L7.84492 35.7352L9.82557 34.7198L8.89728 32.909L10.7081 31.9806L9.69276 29.9999Z" fill="#212121"/>
</g>
<defs>
<clipPath id="clip0_811_2353">
<rect width="37.8393" height="37.8393" fill="white" transform="translate(12) rotate(17.8584)"/>
</clipPath>
</defs>
</svg>
