<svg width="42" height="42" viewBox="0 0 42 42" fill="none" xmlns="http://www.w3.org/2000/svg">
<g clip-path="url(#clip0)">
<path d="M31.201 9.74439C31.3164 10.3092 31.2606 10.8958 31.0415 11.4289C31.0175 11.4863 30.9797 11.534 30.9524 11.5891C31.3724 12.1449 31.73 12.7146 32.0772 13.2688C32.8423 14.7351 33.9678 15.983 35.3476 16.8948C38.6368 18.8698 38.7817 19.9399 37.8516 21.7372L37.7116 22.0066C37.1519 23.1333 35.8298 25.7706 33.7925 26.1009C33.6516 26.124 33.509 26.1355 33.3664 26.1359C32.4502 26.0917 31.5916 25.6774 30.9867 24.988C28.7627 22.764 27.0481 21.9848 25.1675 21.7686C25.1569 21.9009 25.1085 22.0274 25.0275 22.1325C25.0079 22.1572 23.1267 24.5465 24.3598 26.1919C26.4438 27.493 28.0479 29.437 28.9306 31.7299C29.9804 34.5581 29.5739 38.5458 26.7687 40.6958C25.4593 41.6168 23.8793 42.0727 22.2806 41.9904C22.1188 41.9904 21.9391 41.9715 21.7709 41.9654C21.7334 41.9769 21.6947 41.9856 21.6556 41.9904C21.5748 41.9897 21.4947 41.975 21.4188 41.9471C21.2516 41.9366 21.0972 41.9388 20.9242 41.9225C20.0707 41.853 19.2236 41.7171 18.3913 41.5159C17.5737 41.3577 16.7827 41.0834 16.0427 40.7012C15.053 41.0511 14.0083 41.2196 12.9591 41.1981C12.4404 41.1981 11.9506 41.1683 11.5152 41.1283C9.43437 41.0421 7.40354 40.4651 5.58799 39.4444C3.63245 38.2693 2.34584 36.2401 2.11741 33.9702C2.10684 33.851 2.09915 33.7322 2.09563 33.6124V33.6047C2.08858 33.2202 2.39357 32.9018 2.77802 32.8922C2.96319 32.8806 3.14484 32.946 3.28036 33.0722C3.41588 33.1988 3.49341 33.3753 3.49469 33.5608C3.51103 33.604 3.6725 33.9539 4.77329 34.5587C5.72864 35.0656 6.873 35.0672 7.82963 34.5629C8.15737 34.3851 8.37074 34.1682 8.40021 33.9821C8.4095 33.8491 8.38868 33.7158 8.33934 33.5922C8.00455 32.8178 7.50606 32.1255 6.87781 31.5626C6.63593 31.307 6.39437 31.0539 6.17235 30.7928C5.4387 29.9499 4.76592 29.0557 4.15882 28.117C2.63577 25.7844 1.91142 23.0199 2.09563 20.2401C2.74598 11.7864 12.2331 8.55678 14.6721 7.86317C14.4325 7.03405 14.4572 6.15111 14.7423 5.33673C14.8352 5.10446 15.0454 4.93947 15.293 4.90422C17.4661 4.59346 18.9164 5.04423 19.8778 5.71188C20.8876 4.65882 22.2553 4.02224 23.7111 3.92709C25.1809 3.9005 26.6146 4.38234 27.7702 5.29123L38.3379 0.114355C38.8082 -0.126564 39.3843 0.0240106 39.6761 0.464201C39.9709 0.890935 39.9039 1.47017 39.5195 1.81841L31.201 9.74439ZM23.6374 21.6888C21.6056 21.5597 19.6616 20.8132 18.0652 19.5494C18.1382 19.9636 18.243 20.3717 18.3788 20.77C19.1038 22.7531 20.6124 24.3508 22.5507 25.1882C22.5395 23.9372 22.9194 22.7137 23.6374 21.6888ZM18.7104 40.1534C19.4819 40.3389 20.2664 40.4648 21.0571 40.5298C21.151 40.5382 21.2368 40.541 21.3288 40.5474C22.1992 39.2765 25.0381 34.4642 21.1606 30.5877C20.8953 30.3132 20.8992 29.8765 21.1692 29.6064C21.4393 29.3367 21.8757 29.3328 22.1502 29.5981C26.1212 33.5691 24.175 38.3917 22.9496 40.5628C24.0173 40.5394 25.0544 40.1982 25.9274 39.5831C28.1671 37.865 28.4769 34.504 27.6283 32.2143C26.8321 30.16 25.3786 28.4272 23.4942 27.2863C23.0457 27.0028 22.5795 26.7487 22.0986 26.5251C19.751 25.5445 17.9229 23.6235 17.0595 21.2307C15.6444 17.1972 17.2072 12.6643 17.937 10.9153C17.6083 10.792 17.288 10.6469 16.9785 10.4806C14.262 11.7403 12.0973 13.9464 10.8895 16.6862C10.062 18.4912 9.69612 20.4739 9.82586 22.4551C10.1014 25.5031 12.2325 27.0547 14.6997 28.8513C16.0228 29.7426 17.1592 30.8838 18.045 32.2107C18.9228 33.7661 19.1708 35.5987 18.7376 37.3316C18.6079 38.275 18.1741 39.1506 17.502 39.825C17.8973 39.9608 18.3067 40.0595 18.7104 40.1534ZM3.49341 20.3474C3.33322 22.8267 3.98294 25.291 5.34451 27.369C5.91573 28.2526 6.54911 29.0945 7.23983 29.8884C7.44487 30.1299 7.66817 30.3644 7.89275 30.6002C8.67029 31.3073 9.27739 32.1819 9.66824 33.1574C9.7903 33.4913 9.82939 33.8494 9.7823 34.2018C9.62788 34.9044 9.15212 35.4936 8.49825 35.7931C7.12161 36.5181 5.47586 36.5149 4.10211 35.7848L4.03227 35.7457C4.5439 36.7869 5.34291 37.6596 6.33478 38.261C7.08733 38.7175 7.90428 39.0577 8.75839 39.2701C8.90448 39.1948 9.07235 39.1743 9.23222 39.2121C10.1552 39.4252 11.1253 39.2205 11.8833 38.6521C12.7701 37.8214 13.0088 36.1157 12.5727 33.7203C12.5279 33.4743 12.6179 33.2231 12.8085 33.0613C12.9991 32.8995 13.2618 32.8518 13.4973 32.9361C13.7328 33.0203 13.9052 33.2238 13.95 33.4698C14.4825 36.3974 14.1089 38.4849 12.8399 39.6741C12.7909 39.7196 12.7393 39.7558 12.6897 39.7978C13.9631 39.8961 15.2373 39.6145 16.3505 38.9882C16.9307 38.5153 17.2956 37.8284 17.3626 37.0829C17.7237 35.6925 17.5433 34.2166 16.858 32.954C16.0648 31.7818 15.0527 30.7739 13.8773 29.9858C11.3646 28.1564 8.76832 26.264 8.43225 22.5849C8.27527 20.3637 8.68118 18.1391 9.61314 16.1166C10.8635 13.3185 13.0017 11.0111 15.697 9.55185C15.5676 9.41986 15.4468 9.27953 15.335 9.13184C13.7709 9.56242 4.09539 12.5194 3.49341 20.3474ZM20.3055 8.53723C20.2831 8.4251 19.7282 5.8993 15.9494 6.23953C15.8508 6.78865 15.928 7.35474 16.1699 7.85741C16.61 8.7365 17.5907 9.39711 19.0849 9.82641C19.2851 9.88343 19.4492 10.027 19.5331 10.2176C19.6167 10.4082 19.6113 10.6261 19.5181 10.8125C18.5563 12.885 18.0043 15.1241 17.8931 17.4064C19.3765 19.1409 21.5104 20.1859 23.7902 20.2949C26.5614 20.2949 28.8992 20.9141 31.9834 23.9993C32.3608 24.4876 32.9557 24.7576 33.5721 24.7201C34.9016 24.5045 36.0342 22.2357 36.4612 21.3816L36.6079 21.0942C37.1289 20.0892 37.3233 19.7124 34.6274 18.0952C33.0547 17.0742 31.7684 15.669 30.8903 14.0121C30.6103 13.5642 30.3303 13.1381 30.0365 12.7222C29.3022 13.3018 28.4538 13.7196 27.5469 13.9483C27.5104 13.9614 27.4729 13.972 27.4351 13.98V13.9736C27.3889 13.9845 27.3422 13.9919 27.2951 13.9954C27.0151 13.9954 26.762 13.8285 26.6514 13.5712C26.5412 13.3136 26.5951 13.0154 26.7882 12.8126C26.8405 12.6546 26.8831 12.4941 26.9157 12.3311C27.032 11.888 26.992 11.4183 26.8023 11.0012C26.1129 9.5464 24.3102 8.91719 21.2481 9.08507C21.1837 9.08507 21.1202 9.09084 21.0558 9.09628C20.6996 9.12896 20.376 8.88772 20.3055 8.53723ZM23.7928 5.32487C22.6923 5.40208 21.6594 5.8836 20.8928 6.67684C21.1276 6.98247 21.324 7.31566 21.4771 7.66935C23.0306 7.59502 26.7219 7.56779 28.0643 10.3986C28.3209 10.9474 28.4234 11.5558 28.3603 12.1581C29.0113 11.8992 29.5306 11.3885 29.8004 10.7417C30.1076 9.68641 29.0972 8.39018 28.1956 7.48866C26.7546 6.04763 25.3264 5.31911 23.951 5.31911C23.895 5.32135 23.8453 5.32263 23.7928 5.32487ZM28.9431 6.27573C29.0238 6.35294 29.1048 6.4215 29.1853 6.50192C29.7488 7.04943 30.239 7.66775 30.6439 8.34117L36.9126 2.37137L28.9431 6.27573Z" fill="#C4C4C4"/>
<path d="M34.2898 20.295C34.2898 20.0118 34.4602 19.7568 34.7219 19.6485C34.9834 19.5402 35.2842 19.6001 35.4844 19.8C35.8199 20.1018 35.9416 20.575 35.7929 21.0011C35.5062 21.6941 34.59 21.6941 34.2891 21.6941C33.9024 21.6941 33.5891 21.3807 33.5891 20.994C33.5891 20.6077 33.9024 20.2944 34.2891 20.2944L34.2898 20.295Z" fill="#C4C4C4"/>
<path d="M23.2599 11.9161C24.246 12.0898 25.1113 12.6751 25.6396 13.5257C25.982 14.1674 26.0577 14.9183 25.8494 15.6155C25.8087 15.7356 25.7363 15.8423 25.6396 15.924C25.3253 16.1694 24.936 16.2982 24.5378 16.2889C24.1659 16.2838 23.8 16.1915 23.4697 16.0201C23.1234 15.8448 22.9847 15.4223 23.1599 15.076C23.3348 14.7296 23.7577 14.5906 24.104 14.7658C24.2479 14.8386 24.4055 14.8812 24.5666 14.8911C24.5807 14.6447 24.5256 14.3993 24.4077 14.1828C24.056 13.6907 23.5194 13.3623 22.9212 13.2729C22.5461 13.1794 22.318 12.7991 22.4115 12.4242C22.5054 12.0491 22.8853 11.821 23.2605 11.9145L23.2599 11.9161Z" fill="#C4C4C4"/>
<path d="M15.3561 25.8937C15.2293 25.8937 15.105 25.8591 14.9964 25.7937C14.8339 25.6963 11.0414 23.3282 13.2929 16.5744C13.415 16.2073 13.8116 16.0086 14.1791 16.1307C14.5462 16.2528 14.7449 16.6494 14.6228 17.0165C12.7483 22.6381 15.5878 24.5116 15.723 24.5962C15.9911 24.7596 16.1176 25.0819 16.0321 25.3843C15.9469 25.6864 15.6704 25.895 15.3561 25.8937Z" fill="#C4C4C4"/>
</g>
<defs>
<clipPath id="clip0">
<rect width="42" height="42" fill="white" transform="matrix(-1 0 0 1 42 0)"/>
</clipPath>
</defs>
</svg>
