<svg width="49" height="49" viewBox="0 0 49 49" fill="none" xmlns="http://www.w3.org/2000/svg">
<g clip-path="url(#clip0)">
<path d="M45.1576 0.0290527H9.65284C7.53403 0.0290527 5.81035 1.75273 5.81035 3.87144V18.868L2.71083 23.0687C2.47585 23.3872 2.54351 23.8359 2.862 24.0709C2.99014 24.1654 3.13912 24.2109 3.28695 24.2109C3.50673 24.2109 3.72365 24.1101 3.86421 23.9196L5.81026 21.2821V29.7965C5.81026 31.011 6.38781 32.1399 7.33125 32.8574L6.65508 33.8087C6.42584 34.1314 6.50152 34.5788 6.82413 34.8081C7.14683 35.0374 7.59413 34.9618 7.82347 34.6391L14.3914 25.398C14.5975 25.108 14.9046 24.9182 15.2563 24.8636C15.6085 24.809 15.9582 24.8967 16.2427 25.1105C16.7378 25.4828 16.9036 26.1588 16.6371 26.7179L13.6807 32.9205C13.6215 33.0449 13.5992 33.1837 13.6169 33.3204L13.7936 34.694C14.0256 36.4987 13.7101 38.3089 12.8814 39.9287C12.8254 40.0381 12.7985 40.1601 12.8033 40.283L13.1142 48.2818C13.1292 48.6678 13.4469 48.9707 13.8299 48.9706C13.8392 48.9706 13.8487 48.9704 13.8582 48.97C14.2538 48.9546 14.5618 48.6216 14.5465 48.226L14.2427 40.4111C15.1399 38.5766 15.4761 36.5409 15.2152 34.5112L15.103 33.6388H45.1575C47.2764 33.6388 49 31.9151 49 29.7964V3.87144C49.0001 1.75273 47.2765 0.0290527 45.1576 0.0290527V0.0290527ZM47.5668 29.7966C47.5668 31.1249 46.486 32.2056 45.1576 32.2056H15.6095L16.2928 30.7722H41.3217C41.8596 30.7722 42.2974 30.3344 42.2974 29.7966V3.87144C42.2974 3.33345 41.8596 2.8957 41.3217 2.8957H18.6981C18.3022 2.8957 17.9814 3.21658 17.9814 3.61239C17.9814 4.00819 18.3022 4.32907 18.6981 4.32907H40.864V29.3388H16.9759L17.9311 27.3348C18.4899 26.1626 18.1421 24.7454 17.1042 23.9649C16.5079 23.5166 15.7734 23.3325 15.0363 23.4473C14.2992 23.5618 13.6553 23.9597 13.2231 24.5678L10.1105 28.9472V4.32917H15.6437C16.0396 4.32917 16.3603 4.00828 16.3603 3.61248C16.3603 3.21668 16.0396 2.8958 15.6437 2.8958H9.65284C9.11485 2.8958 8.67709 3.33355 8.67709 3.87144V29.7965C8.67709 30.0812 8.80056 30.3371 8.99569 30.5156L8.16261 31.6877C7.59203 31.2367 7.24363 30.5427 7.24363 29.7966V3.87144C7.24363 2.54309 8.32439 1.46242 9.65274 1.46242H45.1575C46.4859 1.46242 47.5667 2.54319 47.5667 3.87144V29.7966H47.5668Z" fill="white"/>
<path d="M44.9091 16.1172C44.5132 16.1172 44.1924 16.4381 44.1924 16.8339V18.9495C44.1924 19.3453 44.5132 19.6662 44.9091 19.6662C45.305 19.6662 45.6258 19.3453 45.6258 18.9495V16.8339C45.6258 16.4381 45.305 16.1172 44.9091 16.1172Z" fill="white"/>
<path d="M2.80933 36.9812C1.13239 33.7164 0.981595 29.9009 2.39557 26.5129C2.54798 26.1476 2.37541 25.7279 2.01018 25.5755C1.64496 25.423 1.22527 25.5956 1.07266 25.9609C-0.504238 29.7395 -0.33596 33.9949 1.53421 37.6362L2.47947 39.4765L2.22079 48.233C2.20913 48.6286 2.52046 48.9589 2.91598 48.9705C2.92324 48.9707 2.93031 48.9708 2.93757 48.9708C3.32363 48.9708 3.64212 48.6637 3.65359 48.2753L3.91771 39.3344C3.92125 39.2133 3.89411 39.0935 3.83888 38.9858L2.80933 36.9812Z" fill="white"/>
<path d="M25.718 26.4286C28.1332 26.4286 30.4198 25.504 32.1563 23.8249C32.441 23.5498 32.4486 23.0961 32.1734 22.8115C31.8984 22.5271 31.4446 22.5193 31.1601 22.7944C29.6923 24.2137 27.7596 24.9952 25.7181 24.9952C21.4003 24.9952 17.8876 21.4824 17.8876 17.1646C17.8876 12.8467 21.4004 9.33401 25.7181 9.33401C30.036 9.33401 33.5487 12.8468 33.5487 17.1646C33.5487 18.3344 33.2968 19.4598 32.8 20.5095C32.6308 20.8673 32.7835 21.2946 33.1412 21.464C33.4989 21.6331 33.9263 21.4805 34.0956 21.1227C34.6837 19.8799 34.982 18.5482 34.982 17.1646C34.982 12.0564 30.8261 7.90063 25.718 7.90063C20.6098 7.90063 16.4541 12.0565 16.4541 17.1646C16.4541 22.2728 20.6098 26.4286 25.718 26.4286V26.4286Z" fill="white"/>
<path d="M25.1979 12.0546C24.5987 11.6413 23.8262 11.5944 23.1818 11.9327C22.5374 12.271 22.137 12.9332 22.137 13.6611V20.6681C22.137 21.396 22.5373 22.0582 23.1819 22.3965C23.468 22.5467 23.7793 22.621 24.0895 22.621C24.478 22.621 24.8648 22.5044 25.1979 22.2746L30.2733 18.771C30.8011 18.4067 31.1163 17.8061 31.1163 17.1646C31.1163 16.5231 30.8011 15.9226 30.2733 15.5582L25.1979 12.0546ZM29.459 17.5913L24.3836 21.0948C24.1508 21.2555 23.9314 21.1711 23.8481 21.1272C23.7646 21.0834 23.5705 20.951 23.5705 20.6681V13.661C23.5705 13.378 23.7646 13.2456 23.848 13.2018C23.8947 13.1774 23.9838 13.1401 24.0939 13.1401C24.1809 13.1401 24.2809 13.1633 24.3836 13.2342L29.459 16.7377C29.6611 16.8773 29.683 17.0826 29.683 17.1645C29.683 17.2464 29.6611 17.4518 29.459 17.5913Z" fill="white"/>
</g>
<defs>
<clipPath id="clip0">
<rect width="49" height="49" fill="white"/>
</clipPath>
</defs>
</svg>
