<svg width="52" height="52" fill="none" xmlns="http://www.w3.org/2000/svg"><g clip-path="url(#clip0)" fill="#000"><path d="M51.837 25.534C51.347 24.87 39.7 9.258 26 9.258S.652 24.87.163 25.534a.84.84 0 0 0 .014 1.012c.49.63 12.137 15.421 25.823 15.421s25.334-14.791 25.824-15.421a.839.839 0 0 0 .013-1.012zM26 40.29c-11.497 0-21.926-11.69-24.09-14.273C4.045 23.324 14.49 10.935 26 10.935s21.956 12.39 24.09 15.082C47.929 28.602 37.51 40.29 26 40.29zM2.514 8.42a.839.839 0 0 0 .84-.839V3.387h4.193a.839.839 0 1 0 0-1.677H2.515a.839.839 0 0 0-.84.839V7.58a.84.84 0 0 0 .84.839zm41.938-5.033h4.194v4.194a.838.838 0 1 0 1.677 0V2.549a.839.839 0 0 0-.839-.839h-5.032a.838.838 0 1 0 0 1.677zM7.547 48.676H3.353v-4.193a.839.839 0 1 0-1.677 0v5.032a.84.84 0 0 0 .839.839h5.032a.839.839 0 1 0 0-1.678zm41.937-5.031a.838.838 0 0 0-.839.838v4.193h-4.193a.839.839 0 0 0 0 1.678h5.032a.839.839 0 0 0 .839-.839v-5.032a.839.839 0 0 0-.839-.838z"/><path d="M40.258 26.032c0-7.875-6.384-14.258-14.258-14.258-7.875 0-14.258 6.383-14.258 14.258 0 7.874 6.383 14.258 14.258 14.258 7.87-.009 14.25-6.387 14.258-14.258zM26 38.613c-6.948 0-12.58-5.633-12.58-12.58 0-6.949 5.632-12.581 12.58-12.581s12.58 5.632 12.58 12.58c-.007 6.945-5.635 12.573-12.58 12.581z"/><path d="M23.486 30.226a7.549 7.549 0 1 0-7.549-7.549 7.557 7.557 0 0 0 7.549 7.549zm5.804-8.387h-4.966v-4.965a5.871 5.871 0 0 1 4.966 4.965zm-6.643-4.965v5.803a.84.84 0 0 0 .839.839h5.804a5.872 5.872 0 1 1-6.643-6.642zm10.063 8.319h5.033v1.678h-5.032v-1.678zm-2.515 2.517h6.71v1.677h-6.71V27.71zm4.192 2.516h1.677v1.677h-1.677v-1.677zm-8.387 0h7.548v1.677H26v-1.677zm6.71 2.516h1.678v1.677h-1.677v-1.677zm-8.386 0h7.549v1.677h-7.549v-1.677zm-2.515 2.516h8.386v1.677H21.81v-1.677zm-1.68-2.516h3.355v1.677h-3.355v-1.677zm-2.516 0h1.678v1.677h-1.678v-1.677zm-.84-2.516h4.194v1.677h-4.194v-1.677zm-1.675-2.516h1.677v1.677h-1.677V27.71z"/></g><defs><clipPath id="clip0"><path fill="#fff" d="M0 0h52v52H0z"/></clipPath></defs></svg>