<svg width="80" height="82" viewBox="0 0 80 82" fill="none" xmlns="http://www.w3.org/2000/svg">
<path d="M72.6671 48.0301H71.5773V36.9769C71.5773 35.2271 70.8038 33.6777 69.6224 32.7363V31.2313C69.6224 29.0482 68.0451 27.2723 66.1062 27.2723H65.2925L68.406 22.128C69.4496 20.4038 69.0528 18.0449 67.5214 16.8696L46.3942 0.658606C45.6524 0.0892503 44.7583 -0.120875 43.8758 0.0676292C42.9938 0.255813 42.2295 0.819403 41.724 1.65478L23.4886 31.7839H18.4141L19.6384 17.8294C19.6522 17.6722 19.743 17.5359 19.8696 17.4822C21.4469 16.8126 22.8138 15.5621 23.7185 13.9612C23.7897 13.8351 23.9241 13.7631 24.0632 13.7789L32.0223 14.6643C32.593 14.7266 33.1007 14.2586 33.157 13.6164C33.2133 12.9741 32.7967 12.4022 32.2263 12.3388L24.2672 11.4535C23.3434 11.3516 22.4623 11.831 21.9673 12.7067C21.3022 13.8838 20.2971 14.8031 19.1374 15.2955C18.2645 15.6661 17.6651 16.5488 17.5729 17.5996L16.3286 31.7837H15.0053L16.9415 9.71352C17.0112 8.91915 17.6409 8.33554 18.3473 8.41514L34.431 10.2041C35.0014 10.2661 35.5094 9.79841 35.5657 9.15618C35.622 8.51395 35.2054 7.94204 34.635 7.87861L18.5513 6.08967C16.7073 5.88483 15.0583 7.40711 14.876 9.4837L13.3154 27.2723H10.6576C8.71887 27.2723 7.14141 29.0482 7.14141 31.2313V32.2579C5.55529 33.0802 4.45093 34.8855 4.45093 36.9769V76.807C4.45093 79.6706 6.51996 82.0002 9.06337 82.0002H66.965C69.5082 82.0002 71.5773 79.6706 71.5773 76.807V65.754H72.6671C73.9535 65.754 75 64.5757 75 63.1274V50.6569C75.0001 49.2084 73.9535 48.0301 72.6671 48.0301ZM66.1062 29.6093C66.9008 29.6091 67.547 30.3369 67.547 31.2315V31.8268C67.3561 31.7996 67.1622 31.784 66.965 31.784H62.5619L63.878 29.6093H66.1062ZM43.439 2.97062C43.6325 2.65111 43.9248 2.43554 44.2622 2.36347C44.3428 2.34633 44.4238 2.33768 44.5041 2.33768C44.7597 2.33768 45.0095 2.42385 45.2254 2.58945L66.3526 18.8005C66.9384 19.25 67.0903 20.1524 66.6911 20.8119L60.0505 31.7835H58.4568L61.7126 26.4044C62.2406 25.532 62.2841 24.4218 61.8258 23.5068C61.2167 22.2912 60.9698 20.8599 61.1305 19.4763C61.25 18.447 60.8477 17.4422 60.0808 16.8538L49.1285 8.45005C48.3614 7.86148 47.3836 7.8075 46.5766 8.30927C45.492 8.98353 44.2185 9.24827 42.991 9.0548C42.0806 8.91098 41.1573 9.37383 40.6372 10.2331L27.5938 31.7837H26.0001L43.439 2.97062ZM43.896 22.8125C39.3769 22.8125 35.6673 26.7801 35.365 31.7837H30.1051L42.3519 11.5491C42.352 11.5491 42.352 11.5491 42.352 11.5491C42.4216 11.4339 42.5369 11.3654 42.6554 11.3654C42.6712 11.3654 42.687 11.3667 42.7028 11.3691C44.3724 11.632 46.1042 11.2723 47.5795 10.3551C47.6956 10.2827 47.8446 10.2931 47.9596 10.3812L58.912 18.7851C59.0266 18.8732 59.0896 19.0257 59.0726 19.1736C58.854 21.0553 59.1899 23.0019 60.0182 24.655C60.0846 24.7878 60.0765 24.9578 59.9977 25.0884L55.9456 31.7835H52.4275C52.125 26.7801 48.4155 22.8125 43.896 22.8125ZM50.3464 31.7839H37.4458C37.7431 28.07 40.5217 25.1495 43.896 25.1495C47.2706 25.1494 50.0492 28.07 50.3464 31.7839ZM9.21685 31.2313C9.21685 30.3367 9.86305 29.6089 10.6576 29.6089H13.1104L12.9197 31.7837H9.21685V31.2313ZM6.52637 36.9769C6.52637 35.402 7.66443 34.1205 9.06337 34.1205H66.965C68.3639 34.1205 69.5018 35.402 69.5018 36.9769V40.2191H6.52637V36.9769ZM69.5018 76.807C69.5018 78.382 68.3639 79.6634 66.965 79.6634H9.06337C7.66443 79.6634 6.52637 78.382 6.52637 76.807V73.5648H12.1224C12.6956 73.5648 13.1601 73.0417 13.1601 72.3965C13.1601 71.7512 12.6955 71.2281 12.1224 71.2281H6.52637V42.556H69.5018V48.0301H59.6351H59.635C56.5262 48.0301 53.8333 50.0705 52.5552 53.024C52.551 53.0339 52.5461 53.0435 52.5417 53.0534C52.5309 53.0786 52.5215 53.1047 52.511 53.13C52.3588 53.494 52.2265 53.8709 52.1188 54.2597C52.1186 54.2608 52.1183 54.2618 52.118 54.2629C51.8883 55.094 51.7644 55.9769 51.7644 56.8921C51.7644 61.7786 55.2951 65.754 59.6349 65.754H59.635H69.5017V71.2281H18.767C18.1938 71.2281 17.7294 71.7512 17.7294 72.3965C17.7294 73.0417 18.194 73.5648 18.767 73.5648H69.5018V76.807ZM72.9247 63.1273C72.9247 63.2871 72.8092 63.4171 72.6671 63.4171H59.6353C57.4384 63.4171 55.523 62.0336 54.5405 59.9997C54.4958 59.9073 54.4532 59.8135 54.4123 59.7185C54.3308 59.5284 54.2573 59.3332 54.1923 59.1333C53.9644 58.434 53.8401 57.6791 53.8401 56.8921C53.8401 56.105 53.9646 55.3501 54.1923 54.6508C54.2574 54.4511 54.331 54.2559 54.4123 54.0656C54.4532 53.9706 54.4958 53.8768 54.5405 53.7844C55.523 51.7506 57.4384 50.367 59.6353 50.367H72.6671C72.8091 50.367 72.9247 50.497 72.9247 50.6569V63.1273Z" fill="#333333"/>
</svg>
