<svg width="35" height="35" viewBox="0 0 35 35" fill="none" xmlns="http://www.w3.org/2000/svg">
<path d="M31.0369 12.5193H30.1965V8.46423C30.1965 8.43895 30.1925 8.41348 30.1895 8.38763C30.1882 8.22676 30.1366 8.06864 30.0263 7.94334L23.2779 0.23472C23.2758 0.232741 23.2738 0.232039 23.2724 0.229933C23.2322 0.184993 23.1854 0.147586 23.1356 0.115285C23.121 0.105455 23.1062 0.0972203 23.0908 0.0885387C23.0479 0.0652391 23.0023 0.0456418 22.9554 0.0315343C22.9427 0.0282149 22.9312 0.0229805 22.9186 0.0196611C22.8676 0.0075325 22.8147 0 22.7611 0H6.17655C5.41928 0 4.80404 0.615941 4.80404 1.37257V12.5189H3.96372C2.88038 12.5189 2.00195 13.3971 2.00195 14.4808V24.6823C2.00195 25.765 2.88038 26.644 3.96372 26.644H4.80404V33.6275C4.80404 34.3842 5.41928 35 6.17655 35H28.8236C29.5802 35 30.1961 34.3842 30.1961 33.6275V26.6441H31.0365C32.1195 26.6441 32.9981 25.7655 32.9981 24.6824V14.4812C32.9982 13.3971 32.1202 12.5193 31.0369 12.5193ZM6.17655 1.37257H22.0748V8.39478C22.0748 8.77395 22.3823 9.08106 22.7611 9.08106H28.8236V12.5193H6.17655V1.37257ZM20.081 20.0863C18.7325 19.6165 17.8526 18.8706 17.8526 17.6897C17.8526 16.3046 19.0087 15.245 20.9241 15.245C21.8389 15.245 22.5138 15.4374 22.995 15.6544L22.5858 17.1353C22.2608 16.9792 21.6828 16.75 20.8879 16.75C20.093 16.75 19.7077 17.1114 19.7077 17.533C19.7077 18.051 20.1655 18.2796 21.2129 18.677C22.6458 19.2071 23.3203 19.9536 23.3203 21.0976C23.3203 22.4588 22.2725 23.6149 20.0444 23.6149C19.1173 23.6149 18.2021 23.3744 17.7444 23.1211L18.1174 21.6037C18.6114 21.8564 19.3703 22.1097 20.1528 22.1097C20.9965 22.1097 21.4415 21.7606 21.4415 21.2305C21.4418 20.725 21.0565 20.4354 20.081 20.0863ZM16.9748 21.9528V23.4948H11.9039V15.3766H13.7472V21.9528H16.9748ZM6.01569 23.4948H3.92025L6.2686 19.3869L4.00419 15.3763H6.11208L6.82224 16.8579C7.06315 17.3517 7.24393 17.7487 7.43684 18.2071H7.46027C7.65349 17.689 7.80989 17.3277 8.01403 16.8579L8.70064 15.3763H10.7961L8.50779 19.3383L10.9169 23.4941H8.79748L8.06242 22.0245C7.76182 21.4593 7.56898 21.0373 7.34007 20.5675H7.31613C7.14728 21.0373 6.94301 21.4593 6.68985 22.0245L6.01569 23.4948ZM28.8236 33.2558H6.17655V26.6441H28.8236V33.2558H28.8236ZM28.836 23.4948L28.1012 22.0252C27.8002 21.4594 27.6075 21.038 27.3786 20.5682H27.3552C27.1863 21.038 26.9813 21.4594 26.7279 22.0252L26.0544 23.4948H23.9583L26.3067 19.3869L24.0424 15.3763H26.1502L26.8613 16.8579C27.1019 17.3517 27.2822 17.7487 27.4753 18.2071H27.4993C27.6917 17.689 27.8478 17.3277 28.0528 16.8579L28.7392 15.3763H30.8352L28.5468 19.3383L30.9555 23.4941H28.836V23.4948Z" fill="#C4C4C4"/>
</svg>
